<svg width="200" height="108" viewBox="0 0 200 108" fill="none" xmlns="http://www.w3.org/2000/svg">
<path d="M197.804 13.3994H194.06C192.829 13.3994 191.826 14.402 191.826 15.633V80.4845L191.255 79.7611C190.963 79.3803 190.57 79.1138 190.113 78.9996C188.489 78.5681 187.422 77.8067 186.915 76.7406C186.268 75.37 185.938 73.3394 185.938 70.6996V54.6835C185.938 50.8127 185.202 47.2465 183.755 44.0738C182.321 40.9264 179.986 38.3628 176.825 36.4718C173.653 34.5808 169.427 33.6163 164.236 33.6163C160.568 33.6163 157.053 34.3016 153.766 35.6469C150.491 36.9921 147.75 38.9593 145.618 41.5102C144.121 43.2996 143.042 45.419 142.433 47.7922C142.268 48.4522 142.407 49.1502 142.826 49.6959C143.258 50.2543 143.905 50.5716 144.603 50.5716H148.651C149.628 50.5716 150.479 49.9243 150.783 48.9598C151.596 46.3708 153.068 44.3657 155.149 42.9823C157.687 41.3071 160.733 40.4568 164.223 40.4568C166.647 40.4568 168.881 40.9264 170.886 41.8528C172.904 42.792 174.566 44.353 175.823 46.5104C176.724 48.0714 177.32 50.0513 177.561 52.4118C177.65 53.2367 177.384 54.0616 176.825 54.6835C176.28 55.2927 175.518 55.6353 174.706 55.6353H163.271C159.324 55.6353 155.581 56.1811 152.141 57.2598C148.74 58.3258 145.973 60.0645 143.917 62.4378C143.016 63.4784 142.293 64.7222 141.773 66.1309L141.163 67.8188V56.2826C141.163 48.6045 139.336 42.8554 135.719 39.175C132.115 35.4946 127.203 33.629 121.15 33.629C117.228 33.629 113.662 34.5681 110.565 36.4337C109.372 37.1444 108.281 37.9694 107.316 38.8831C106.466 39.6826 105.273 39.9111 104.207 39.4923C103.179 39.0862 102.494 38.1343 102.43 37.0175C102.367 35.8372 101.377 34.9108 100.197 34.9108H97.1635C95.9325 34.9108 94.9299 35.9134 94.9299 37.1444V84.2791C94.9299 85.5101 95.9325 86.5127 97.1635 86.5127H100.907C102.138 86.5127 103.141 85.5101 103.141 84.2791V59.7599C103.141 53.6682 104.677 48.8964 107.697 45.584C110.73 42.2589 114.576 40.5837 119.144 40.5837C123.713 40.5837 127.203 42.0051 129.5 44.8098C131.785 47.6019 132.94 51.7772 132.94 57.2344V84.2791C132.94 85.5101 133.942 86.5127 135.173 86.5127H138.917C140.148 86.5127 141.151 85.5101 141.151 84.2791V76.0172L141.76 77.6797C142.166 78.7712 142.699 79.7865 143.334 80.6875C145.009 83.0481 147.319 84.8375 150.2 86.0051C153.093 87.1727 156.355 87.7691 159.87 87.7691C164.071 87.7691 167.713 86.7539 170.708 84.7614C172.447 83.6065 173.983 82.2866 175.29 80.8271C175.912 80.1291 176.8 79.7865 177.701 79.8499C178.628 79.9261 179.452 80.4337 179.96 81.2459C180.303 81.7917 180.696 82.2993 181.115 82.7435C182.371 84.0634 183.932 85.0279 185.773 85.6117C186.826 85.9416 187.968 86.1828 189.161 86.3351C189.923 86.4239 190.671 86.132 191.154 85.5482C191.293 85.3832 191.471 85.3071 191.687 85.3071C191.89 85.3071 192.08 85.4086 192.194 85.5736C192.613 86.1447 193.273 86.4874 193.971 86.4874H197.753C198.984 86.4874 199.987 85.4848 199.987 84.2537V15.633C199.987 14.402 198.984 13.3994 197.753 13.3994H197.804ZM177.32 65.1663C177.028 67.0192 176.534 69.5701 175.848 71.1311C174.604 73.9739 172.739 76.3472 170.328 78.162C167.891 79.9895 164.858 80.916 161.292 80.916C158.081 80.916 155.301 80.1672 153.004 78.7077C150.669 77.2102 149.489 74.7989 149.489 71.5373C149.489 68.999 150.187 66.9939 151.583 65.5725C152.953 64.1637 154.781 63.1865 157.002 62.6408C159.185 62.1078 161.558 61.8413 164.033 61.8413H174.49C175.328 61.8413 176.127 62.2093 176.673 62.8439C177.219 63.4784 177.46 64.3287 177.32 65.1663Z" fill="white"/>
<path d="M47.4906 51.9925C47.4906 57.3354 45.6377 66.0669 40.942 73.4912C36.1448 81.2454 29.5962 86.8041 18.3519 86.8041C5.47041 86.8041 0.0132446 79.1641 0.0132446 68.1355C0.0132446 59.6198 6.01613 33.8696 29.8119 33.8696C37.8834 33.8696 47.4906 37.8039 47.4906 51.9925ZM9.40465 72.2855C9.40465 80.8012 12.2474 84.7228 18.2503 84.7228C32.8705 84.7228 38.1119 55.6856 38.1119 47.8298C38.1119 39.974 35.7133 35.9383 29.3804 35.9383C15.9532 35.9383 9.40465 61.0412 9.40465 72.2855Z" fill="white"/>
<path d="M104.676 0.9873C100.273 0.9873 97.176 2.25641 94.8408 3.95701C94.0286 4.55349 92.9752 4.61695 92.0995 4.14738C89.8532 2.92904 86.7947 2.01528 82.7462 2.01528C81.9467 2.01528 81.1725 2.05335 80.4237 2.1295C66.8189 3.37322 60.0165 15.4805 57.4275 26.0268L56.996 27.9812C56.7422 29.1361 55.7142 29.9483 54.5339 29.9483H48.8864C48.2518 29.9483 47.6934 30.3545 47.4904 30.9509C47.1731 31.9028 47.8838 32.8927 48.8864 32.8927H52.8206C54.4197 32.8927 55.6127 34.3521 55.2954 35.9132C51.8815 52.6146 46.0436 79.6974 43.683 91.5001C42.9343 95.3201 42.2236 98.3533 41.4621 100.549C40.5737 103.112 39.6219 104.496 38.4416 104.496C38.2513 104.496 38.0101 104.496 37.7436 104.432C37.0964 104.318 36.2207 104.013 35.2181 103.163C34.2916 102.376 33.2383 101.133 32.1088 99.1528C31.5631 97.9472 30.6874 96.8557 29.266 96.8557C28.3649 96.8557 27.3496 97.338 26.4739 98.0614C25.2302 99.0893 24.253 100.625 24.253 102.084C24.253 104.356 26.6135 106.78 30.5605 107.529C31.3473 107.681 32.1849 107.757 33.086 107.757C43.6703 107.757 50.9804 98.9117 56.0061 75.4459L64.5345 34.8852C64.7756 33.7176 65.8036 32.88 66.9966 32.88H79.5353C80.4491 33.0957 81.071 34.0095 80.8679 34.9867C77.5302 51.409 72.0222 76.9307 69.5221 89.2664C67.8849 97.7822 65.7021 102.579 64.0649 102.579C62.212 102.579 60.4607 101.488 58.062 97.2364C57.4021 96.145 56.7549 95.4851 55.4477 95.4851C53.1506 95.4851 50.6504 97.4522 50.6504 100.067C50.6504 102.681 53.8105 105.638 59.4961 105.638C70.7404 105.638 77.5048 93.4164 81.6548 73.7706L90.0689 34.8344C90.3228 33.6795 91.3508 32.8419 92.531 32.8419H101.034C101.707 32.8419 102.29 32.385 102.455 31.7378C102.697 30.7986 101.999 29.8976 101.034 29.8976H94.1047C92.4803 29.8976 91.2873 28.3873 91.6553 26.8136L93.1148 20.5189C95.4119 10.2645 98.1405 3.48744 100.869 3.48744C103.268 3.48744 103.268 4.57888 105.781 9.49032C106.212 10.366 106.986 11.1275 108.509 11.1275C110.476 11.1275 112.989 9.27458 112.989 7.09171C112.989 4.03316 110.692 0.974609 104.689 0.974609L104.676 0.9873ZM89.6882 10.3533C87.848 14.4272 84.4214 22.2195 82.4162 28.2097C82.0736 29.2376 81.1217 29.9103 80.043 29.9103C77.251 29.9103 71.7684 29.9103 67.3011 29.9103C66.362 29.6818 65.7401 28.7173 65.994 27.7147C68.1134 19.3767 70.9308 6.35563 79.1292 4.36313C79.8272 4.19814 80.5633 4.09661 81.3375 4.09661C85.221 4.09661 87.7972 5.61954 89.4598 7.86587C89.9928 8.57657 90.0563 9.54109 89.6882 10.3533Z" fill="white"/>
</svg>
