<svg width="24" height="28" viewBox="0 0 24 28" fill="none" xmlns="http://www.w3.org/2000/svg">
<path d="M0.347656 4.15234C0.347656 3.04777 1.24309 2.15234 2.34766 2.15234H21.195C22.2995 2.15234 23.195 3.04777 23.195 4.15234V7.64105H0.347656V4.15234Z" fill="#FFE4AA"/>
<rect x="4.82117" y="0.144531" width="2.54355" height="5.71182" rx="1.27177" fill="#F6B958"/>
<rect x="16.2894" y="0.144531" width="2.54355" height="5.71182" rx="1.27177" fill="#F6B958"/>
<path d="M0.347656 7.64111H23.195V22.8658C23.195 23.9704 22.2995 24.8658 21.195 24.8658H2.34766C1.24309 24.8658 0.347656 23.9704 0.347656 22.8658V7.64111Z" fill="#E7EAED"/>
<rect x="3.58289" y="9.89453" width="15.8414" height="1.74032" rx="0.870161" fill="#D9D9D9"/>
<rect x="3.58289" y="12.8843" width="15.8414" height="1.74032" rx="0.870161" fill="#D9D9D9"/>
<rect x="3.58289" y="15.793" width="9.23709" height="1.74032" rx="0.870161" fill="#D9D9D9"/>
<circle cx="18.833" cy="23.0366" r="4.81935" fill="#F6B958"/>
<path d="M16.3799 23.0366H21.2861" stroke="white" stroke-linecap="round"/>
<path d="M18.833 20.5835L18.833 25.4897" stroke="white" stroke-linecap="round"/>
</svg>
