<svg width="24" height="28" viewBox="0 0 24 28" fill="none" xmlns="http://www.w3.org/2000/svg">
<path d="M0.347656 4.15234C0.347656 3.04777 1.24309 2.15234 2.34766 2.15234H21.195C22.2995 2.15234 23.195 3.04777 23.195 4.15234V7.64105H0.347656V4.15234Z" fill="#AACFFF"/>
<rect x="4.82117" y="0.144531" width="2.54355" height="5.71182" rx="1.27177" fill="#5899F6"/>
<rect x="16.2894" y="0.144531" width="2.54355" height="5.71182" rx="1.27177" fill="#5899F6"/>
<path d="M0.347656 7.64111H23.195V22.8658C23.195 23.9704 22.2995 24.8658 21.195 24.8658H2.34766C1.24309 24.8658 0.347656 23.9704 0.347656 22.8658V7.64111Z" fill="#E7EAED"/>
<rect x="3.58289" y="9.89453" width="15.8414" height="1.74032" rx="0.870161" fill="#D9D9D9"/>
<rect x="3.58289" y="12.8843" width="15.8414" height="1.74032" rx="0.870161" fill="#D9D9D9"/>
<rect x="3.58289" y="15.793" width="9.23709" height="1.74032" rx="0.870161" fill="#D9D9D9"/>
<circle cx="18.833" cy="23.0366" r="4.81935" fill="#5899F6"/>
<path d="M18.9062 20.9823C19.1014 20.7871 19.4167 20.7871 19.6118 20.9823L21.3131 22.6836L21.6673 23.0364L21.3131 23.3892L19.6118 25.0905C19.4167 25.2857 19.1014 25.2857 18.9062 25.0905C18.711 24.8953 18.711 24.5801 18.9062 24.3849L19.8224 23.4687H16.4979C16.2219 23.4687 15.9987 23.2455 15.9987 22.9695C15.9987 22.6934 16.2219 22.4702 16.4979 22.4702H19.6885L18.9062 21.6879L18.8421 21.6098C18.714 21.4158 18.7354 21.1531 18.9062 20.9823Z" fill="white"/>
</svg>
