<svg width="28" height="22" viewBox="0 0 28 22" fill="none" xmlns="http://www.w3.org/2000/svg">
<rect x="0.841492" y="2.82373" width="23" height="19.0625" rx="2" fill="#4E5968"/>
<circle cx="12.3415" cy="12.355" r="6.25" fill="#D9D9D9"/>
<circle cx="12.3415" cy="12.355" r="5.125" fill="#333D4B"/>
<circle cx="12.3415" cy="12.355" r="2.8125" fill="#4E5968"/>
<circle cx="11.0482" cy="11.1182" r="1" fill="#D9D9D9"/>
<path d="M3.50983 2.68066C3.50983 2.12838 3.95754 1.68066 4.50983 1.68066H7.66608C8.21836 1.68066 8.66608 2.12838 8.66608 2.68066V2.82349H3.50983V2.68066Z" fill="#333D4B"/>
<path d="M20.8317 1.50439C21.0784 0.663319 22.2592 0.635082 22.5456 1.46338L23.3679 3.84229C23.3779 3.87125 23.4004 3.89473 23.4294 3.90479L25.8083 4.72607C26.6368 5.01234 26.6093 6.19415 25.7682 6.44092L23.4343 7.12549C23.4027 7.13475 23.3772 7.1587 23.3669 7.18994L22.5505 9.67725C22.2728 10.5228 21.0678 10.4954 20.8288 9.63818L20.1472 7.19482C20.1378 7.16118 20.1114 7.13494 20.0778 7.12549L17.6345 6.44385C16.7774 6.20492 16.7494 5.00013 17.5944 4.72217L20.0817 3.90479C20.113 3.89452 20.1379 3.86993 20.1472 3.83838L20.8317 1.50439Z" fill="#FFD900" stroke="white" stroke-width="0.8"/>
</svg>
