<svg width="50" height="50" viewBox="0 0 50 50" fill="none" xmlns="http://www.w3.org/2000/svg">
<path d="M26.3349 11.4648H23.4319V14.513H26.3349V11.4648Z" fill="#B0B0B0"/>
<path d="M24.8819 49.2307C34.7918 49.2307 42.8253 41.2126 42.8253 31.3219C42.8253 21.4311 34.7918 13.4131 24.8819 13.4131C14.972 13.4131 6.93848 21.4311 6.93848 31.3219C6.93848 41.2126 14.972 49.2307 24.8819 49.2307Z" fill="#E0E0E0"/>
<path d="M24.882 45.8276C32.9185 45.8276 39.4333 39.3253 39.4333 31.3044C39.4333 23.2835 32.9185 16.7812 24.882 16.7812C16.8456 16.7812 10.3308 23.2835 10.3308 31.3044C10.3308 39.3253 16.8456 45.8276 24.882 45.8276Z" fill="#FEFEFE"/>
<path d="M26.3348 9.36719H23.4297C22.6286 9.36719 21.9792 10.0153 21.9792 10.8148V10.817C21.9792 11.6165 22.6286 12.2646 23.4297 12.2646H26.3348C27.1359 12.2646 27.7853 11.6165 27.7853 10.817V10.8148C27.7853 10.0153 27.1359 9.36719 26.3348 9.36719Z" fill="#E0E0E0"/>
<path d="M8.3848 9.82794C5.09896 11.9527 3.84205 16.0261 5.14788 19.5433C5.4754 20.4263 6.54303 20.7787 7.33631 20.265L18.3593 13.1371C19.1525 12.6256 19.2674 11.5091 18.5932 10.8489C15.9092 8.22109 11.6706 7.70316 8.3848 9.82794Z" fill="#E0E0E0"/>
<path d="M41.6153 10.1775C44.9011 12.3023 46.158 16.3757 44.8522 19.8929C44.5247 20.7759 43.4571 21.1283 42.6638 20.6146L31.6408 13.4868C30.8476 12.9752 30.7327 11.8587 31.4069 11.1985C34.0887 8.5707 38.3295 8.05277 41.6132 10.1775H41.6153Z" fill="#E0E0E0"/>
<path d="M38.1907 42.8775C37.4382 42.1264 36.2182 42.1264 35.4658 42.8775C34.7133 43.6285 34.7133 44.8461 35.4658 45.5972L38.0148 48.1412C38.7672 48.8923 39.9872 48.8923 40.7397 48.1412C41.4922 47.3902 41.4922 46.1726 40.7397 45.4215L38.1907 42.8775Z" fill="#E0E0E0"/>
<path d="M9.14069 45.4214C8.38822 46.1724 8.38822 47.3901 9.14069 48.1411C9.89317 48.8921 11.1132 48.8922 11.8657 48.1411L14.4147 45.597C15.1671 44.846 15.1671 43.6284 14.4147 42.8773C13.6622 42.1263 12.4422 42.1263 11.6897 42.8773L9.14069 45.4214Z" fill="#E0E0E0"/>
<path d="M25.4688 19.4369C25.4688 19.2387 25.2061 19.0781 24.882 19.0781C24.5579 19.0781 24.2952 19.2387 24.2952 19.4369V31.1093C24.2952 31.3074 24.5579 31.468 24.882 31.468C25.2061 31.468 25.4688 31.3074 25.4688 31.1093V19.4369Z" fill="#C7C7C7"/>
<path d="M25.8438 32.1962C25.8438 31.7038 25.4134 31.3047 24.8824 31.3047C24.3514 31.3047 23.9209 31.7038 23.9209 32.1962V42.7946C23.9209 43.287 24.3514 43.6861 24.8824 43.6861C25.4134 43.6861 25.8438 43.287 25.8438 42.7946V32.1962Z" fill="#C7C7C7"/>
<path d="M25.8711 32.602C26.3504 32.1237 26.3504 31.3483 25.8711 30.8699C25.3919 30.3916 24.6149 30.3916 24.1357 30.8699L19.2708 35.7255C18.7916 36.2038 18.7916 36.9793 19.2708 37.4576C19.75 37.9359 20.527 37.9359 21.0062 37.4576L25.8711 32.602Z" fill="#C7C7C7"/>
<path d="M24.8821 33.6117C26.1589 33.6117 27.1939 32.5787 27.1939 31.3044C27.1939 30.0301 26.1589 28.9971 24.8821 28.9971C23.6053 28.9971 22.5703 30.0301 22.5703 31.3044C22.5703 32.5787 23.6053 33.6117 24.8821 33.6117Z" fill="#DEDEDE"/>
<path d="M32.4932 6.39551C32.4932 5.62073 31.8656 4.99234 31.0908 4.99219C30.3159 4.99219 29.6875 5.62063 29.6875 6.39551C29.6877 7.17025 30.316 7.79785 31.0908 7.79785C31.8655 7.7977 32.493 7.17015 32.4932 6.39551ZM33.4932 6.39551C33.493 7.72244 32.4178 8.7977 31.0908 8.79785C29.7638 8.79785 28.6877 7.72253 28.6875 6.39551C28.6875 5.06835 29.7637 3.99219 31.0908 3.99219C32.4178 3.99234 33.4932 5.06845 33.4932 6.39551Z" fill="#E0E0E0"/>
<path d="M36.844 4.61133C36.844 4.36013 36.6401 4.15633 36.3889 4.15625C36.1377 4.15625 35.9338 4.36008 35.9338 4.61133C35.9339 4.86251 36.1377 5.06641 36.3889 5.06641C36.64 5.06632 36.8439 4.86246 36.844 4.61133ZM37.344 4.61133C37.3439 5.1386 36.9162 5.56632 36.3889 5.56641C35.8616 5.56641 35.4339 5.13865 35.4338 4.61133C35.4338 4.08394 35.8615 3.65625 36.3889 3.65625C36.9162 3.65633 37.344 4.08399 37.344 4.61133Z" fill="#E0E0E0"/>
<path d="M34.5906 1.43359H35.5251V2.28516H34.5906V3.2207H33.738V2.28516H32.8035V1.43359H33.738V0.498047H34.5906V1.43359Z" fill="#E0E0E0"/>
</svg>
