<svg width="24" height="24" viewBox="0 0 24 24" fill="none" xmlns="http://www.w3.org/2000/svg">
<path fill-rule="evenodd" clip-rule="evenodd" d="M12 3.25C6.61522 3.25 2.25 7.61522 2.25 13C2.25 18.3848 6.61522 22.75 12 22.75C17.3848 22.75 21.75 18.3848 21.75 13C21.75 7.61522 17.3848 3.25 12 3.25ZM12 13.75C11.5858 13.75 11.25 13.4142 11.25 13V8C11.25 7.58579 11.5858 7.25 12 7.25C12.4142 7.25 12.75 7.58579 12.75 8V12.25H17C17.4142 12.25 17.75 12.5858 17.75 13C17.75 13.4142 17.4142 13.75 17 13.75H12Z" fill="#CDD1D5"/>
<path fill-rule="evenodd" clip-rule="evenodd" d="M4.40004 3.95004C4.64857 4.28141 5.11867 4.34856 5.45004 4.10004L7.45004 2.60004C7.78141 2.35151 7.84857 1.88141 7.60004 1.55004C7.35152 1.21867 6.88141 1.15151 6.55004 1.40004L4.55004 2.90004C4.21867 3.14856 4.15152 3.61866 4.40004 3.95004Z" fill="#CDD1D5"/>
<path fill-rule="evenodd" clip-rule="evenodd" d="M19.6001 3.95004C19.3515 4.28141 18.8814 4.34856 18.5501 4.10004L16.5501 2.60004C16.2187 2.35151 16.1515 1.88141 16.4001 1.55004C16.6486 1.21867 17.1187 1.15151 17.4501 1.40004L19.4501 2.90004C19.7814 3.14856 19.8486 3.61866 19.6001 3.95004Z" fill="#CDD1D5"/>
</svg>
