<svg width="50" height="51" viewBox="0 0 50 51" fill="none" xmlns="http://www.w3.org/2000/svg">
<g clip-path="url(#clip0_1266_6256)">
<path d="M26.3349 11.9648H23.4319V15.013H26.3349V11.9648Z" fill="#B0B0B0"/>
<path d="M24.8818 49.7312C34.7916 49.7312 42.8252 41.7131 42.8252 31.8224C42.8252 21.9316 34.7916 13.9136 24.8818 13.9136C14.9719 13.9136 6.93835 21.9316 6.93835 31.8224C6.93835 41.7131 14.9719 49.7312 24.8818 49.7312Z" fill="#E0E0E0"/>
<path d="M24.882 46.3283C32.9184 46.3283 39.4333 39.8261 39.4333 31.8052C39.4333 23.7842 32.9184 17.282 24.882 17.282C16.8456 17.282 10.3308 23.7842 10.3308 31.8052C10.3308 39.8261 16.8456 46.3283 24.882 46.3283Z" fill="#FEFEFE"/>
<path d="M26.3349 9.86768H23.4298C22.6287 9.86768 21.9793 10.5158 21.9793 11.3153V11.3174C21.9793 12.117 22.6287 12.7651 23.4298 12.7651H26.3349C27.136 12.7651 27.7853 12.117 27.7853 11.3174V11.3153C27.7853 10.5158 27.136 9.86768 26.3349 9.86768Z" fill="#E0E0E0"/>
<path d="M8.38473 10.3284C5.0989 12.4532 3.84199 16.5266 5.14782 20.0438C5.47534 20.9268 6.54297 21.2792 7.33625 20.7655L18.3592 13.6376C19.1525 13.1261 19.2673 12.0096 18.5931 11.3494C15.9092 8.72158 11.6706 8.20365 8.38473 10.3284Z" fill="#E0E0E0"/>
<path d="M41.6153 10.6785C44.9011 12.8033 46.158 16.8767 44.8522 20.3939C44.5247 21.2769 43.4571 21.6293 42.6638 21.1156L31.6408 13.9877C30.8476 13.4762 30.7327 12.3597 31.4069 11.6995C34.0887 9.07168 38.3295 8.55375 41.6132 10.6785H41.6153Z" fill="#E0E0E0"/>
<path d="M38.1907 43.3779C37.4383 42.6269 36.2183 42.6269 35.4658 43.3779C34.7133 44.129 34.7133 45.3466 35.4658 46.0976L38.0148 48.6417C38.7673 49.3928 39.9873 49.3928 40.7398 48.6417C41.4922 47.8907 41.4922 46.6731 40.7398 45.922L38.1907 43.3779Z" fill="#E0E0E0"/>
<path d="M9.14066 45.9217C8.38819 46.6727 8.38819 47.8903 9.14066 48.6414C9.89314 49.3924 11.1131 49.3924 11.8656 48.6414L14.4146 46.0973C15.1671 45.3463 15.1671 44.1286 14.4146 43.3776C13.6622 42.6265 12.4422 42.6265 11.6897 43.3776L9.14066 45.9217Z" fill="#E0E0E0"/>
<path d="M25.4687 19.9378C25.4687 19.7397 25.206 19.5791 24.8819 19.5791C24.5578 19.5791 24.2951 19.7397 24.2951 19.9378V31.6103C24.2951 31.8084 24.5578 31.969 24.8819 31.969C25.206 31.969 25.4687 31.8084 25.4687 31.6103V19.9378Z" fill="#C7C7C7"/>
<path d="M25.8437 32.6969C25.8437 32.2046 25.4133 31.8054 24.8823 31.8054C24.3513 31.8054 23.9208 32.2046 23.9208 32.6969V43.2953C23.9208 43.7877 24.3513 44.1868 24.8823 44.1868C25.4133 44.1868 25.8437 43.7877 25.8437 43.2953V32.6969Z" fill="#C7C7C7"/>
<path d="M25.871 33.103C26.3502 32.6247 26.3502 31.8492 25.871 31.3709C25.3918 30.8926 24.6148 30.8926 24.1355 31.3709L19.2706 36.2265C18.7914 36.7048 18.7914 37.4802 19.2706 37.9586C19.7499 38.4369 20.5268 38.4369 21.0061 37.9586L25.871 33.103Z" fill="#C7C7C7"/>
<path d="M24.8821 34.1124C26.1589 34.1124 27.1939 33.0794 27.1939 31.8051C27.1939 30.5308 26.1589 29.4978 24.8821 29.4978C23.6054 29.4978 22.5703 30.5308 22.5703 31.8051C22.5703 33.0794 23.6054 34.1124 24.8821 34.1124Z" fill="#DEDEDE"/>
<path d="M32.4932 6.89502C32.4932 6.12024 31.8656 5.49185 31.0908 5.4917C30.3159 5.4917 29.6875 6.12015 29.6875 6.89502C29.6877 7.66976 30.316 8.29736 31.0908 8.29736C31.8655 8.29721 32.493 7.66967 32.4932 6.89502ZM33.4932 6.89502C33.493 8.22195 32.4178 9.29721 31.0908 9.29736C29.7638 9.29736 28.6877 8.22205 28.6875 6.89502C28.6875 5.56786 29.7637 4.4917 31.0908 4.4917C32.4178 4.49185 33.4932 5.56796 33.4932 6.89502Z" fill="#E0E0E0"/>
<path d="M36.8441 5.11108C36.8441 4.85988 36.6402 4.65609 36.389 4.65601C36.1377 4.65601 35.9339 4.85983 35.9339 5.11108C35.934 5.36226 36.1378 5.56616 36.389 5.56616C36.6401 5.56608 36.844 5.36221 36.8441 5.11108ZM37.3441 5.11108C37.344 5.63836 36.9162 6.06608 36.389 6.06616C35.8616 6.06616 35.434 5.63841 35.4339 5.11108C35.4339 4.58369 35.8616 4.15601 36.389 4.15601C36.9163 4.15609 37.3441 4.58374 37.3441 5.11108Z" fill="#E0E0E0"/>
<path d="M34.5906 1.93359H35.5251V2.78516H34.5906V3.7207H33.738V2.78516H32.8035V1.93359H33.738V0.998047H34.5906V1.93359Z" fill="#E0E0E0"/>
</g>
<defs>
<clipPath id="clip0_1266_6256">
<rect width="50" height="50" fill="white" transform="translate(0 0.5)"/>
</clipPath>
</defs>
</svg>
