<svg width="24" height="25" viewBox="0 0 24 25" fill="none" xmlns="http://www.w3.org/2000/svg">
<path d="M18.4626 4.13403C17.4189 4.46613 16.6629 5.4432 16.6628 6.59692C16.6628 8.02415 17.8196 9.18175 19.2468 9.18188C20.0157 9.18188 20.7041 8.8437 21.1775 8.31079C20.7326 9.45869 19.6212 10.2737 18.3162 10.2737C16.62 10.2736 15.2449 8.89861 15.2449 7.20239C15.245 5.5063 16.6201 4.13121 18.3162 4.1311C18.3652 4.1311 18.4142 4.13176 18.4626 4.13403Z" fill="#FFEB00"/>
<path d="M1.50012 18.3134V14.0783C1.50012 12.6848 2.62908 11.5549 4.02196 11.5549H8.38717C9.77986 11.5549 10.909 12.6846 10.909 14.0783V18.3134" fill="#51D3E1"/>
<path d="M3.9003 13.458H8.67446C9.42713 13.458 10.0384 14.0965 10.0384 14.8828V15.834C10.0384 16.2607 9.7067 16.6069 9.29847 16.6069H3.27629C2.86779 16.6069 2.53638 16.2605 2.53638 15.834V14.8828C2.53638 14.0965 3.14763 13.458 3.9003 13.458Z" fill="#EEFBFC"/>
<path d="M10.5482 16.5722C10.5482 16.5722 11.1234 11.8207 14.2055 11.8355C17.2876 11.8502 17.3023 12.9422 17.3023 12.9422V16.5722H10.5482Z" fill="#CDD1D5"/>
<path d="M8.37225 16.5722C8.37225 16.5722 9.86168 11.8354 14.5956 11.8354C14.5956 11.8354 11.3364 12.4699 10.9383 16.5722H8.37225Z" fill="#EAF6EC"/>
<path d="M1.50006 18.3132V16.572H22.4999V18.3132" fill="#4E6E72"/>
<path d="M1.50006 17.9675H2.23741V19.6123C2.23741 19.8564 2.07227 20.0545 1.86874 20.0545C1.6652 20.0545 1.50006 19.8564 1.50006 19.6123V17.9675Z" fill="#4E6E72"/>
<path d="M21.7624 17.9675H22.4997V19.6123C22.4997 19.8564 22.3346 20.0545 22.1311 20.0545C21.9275 20.0545 21.7624 19.8564 21.7624 19.6123V17.9675Z" fill="#4E6E72"/>
<path d="M15.6129 11.5549H19.9781C21.3699 11.5549 22.4999 12.6855 22.4999 14.0783V18.3134H13.0912V14.0783C13.0912 12.6857 14.2211 11.5549 15.6131 11.5549H15.6129Z" fill="#4E6E72"/>
</svg>
