<svg width="35" height="27" viewBox="0 0 35 27" fill="none" xmlns="http://www.w3.org/2000/svg">
<path d="M28.27 0.197266C26.5313 0.751335 25.272 2.37939 25.272 4.30176C25.272 6.68066 27.2007 8.60938 29.5796 8.60938C30.862 8.60925 32.0123 8.04759 32.8013 7.1582C32.06 9.07197 30.2033 10.4297 28.0278 10.4297C25.2007 10.4297 22.9087 8.13773 22.9087 5.31055C22.9088 2.48342 25.2007 0.191428 28.0278 0.191406C28.109 0.191406 28.1898 0.193529 28.27 0.197266Z" fill="#FBFBFB"/>
<path d="M0.000244141 23.8297V16.7711C0.000244141 14.4485 1.88187 12.5654 4.20338 12.5654H11.4789C13.8001 12.5654 15.682 14.4482 15.682 16.7711V23.8297" fill="#D5D3D3"/>
<path d="M4.00031 15.7373H11.9574C13.2119 15.7373 14.2307 16.8015 14.2307 18.112V19.6974C14.2307 20.4086 13.6778 20.9856 12.9974 20.9856H2.96027C2.27942 20.9856 1.72705 20.4082 1.72705 19.6974V18.112C1.72705 16.8015 2.74583 15.7373 4.00031 15.7373Z" fill="#EEEEEE"/>
<path d="M15.0806 20.928C15.0806 20.928 16.0392 13.0087 21.1762 13.0333C26.3132 13.0578 26.3377 14.8778 26.3377 14.8778V20.928H15.0806Z" fill="#E4E4E4"/>
<path d="M11.4539 20.9279C11.4539 20.9279 13.9363 13.0332 21.8263 13.0332C21.8263 13.0332 16.3942 14.0907 15.7306 20.9279H11.4539Z" fill="#F9F9F9"/>
<path d="M0 23.8297V20.9277H35.0004V23.8297" fill="#D0D0D0"/>
<path d="M0 23.2539H1.22895V25.9953C1.22895 26.4022 0.953707 26.7323 0.614473 26.7323C0.27524 26.7323 0 26.4022 0 25.9953V23.2539Z" fill="#D0D0D0"/>
<path d="M33.7712 23.2539H35.0002V25.9953C35.0002 26.4022 34.725 26.7323 34.3857 26.7323C34.0465 26.7323 33.7712 26.4022 33.7712 25.9953V23.2539Z" fill="#D0D0D0"/>
<path d="M23.5219 12.5664H30.7974C33.1171 12.5664 35.0006 14.4507 35.0006 16.7721V23.8307H19.3191V16.7721C19.3191 14.451 21.2023 12.5664 23.5222 12.5664H23.5219Z" fill="#D0D0D0"/>
</svg>
