<svg width="96" height="96" viewBox="0 0 96 96" fill="none" xmlns="http://www.w3.org/2000/svg">
<g clip-path="url(#clip0_1448_5400)">
<path d="M50.6063 21.9102H44.9385V27.8613H50.6063V21.9102Z" fill="#B0B0B0"/>
<path d="M47.7691 95.6452C67.1171 95.6452 82.8018 79.9908 82.8018 60.68C82.8018 41.3693 67.1171 25.7148 47.7691 25.7148C28.421 25.7148 12.7363 41.3693 12.7363 60.68C12.7363 79.9908 28.421 95.6452 47.7691 95.6452Z" fill="#E0E0E0"/>
<path d="M47.7697 89.0012C63.4601 89.0012 76.1796 76.3062 76.1796 60.6461C76.1796 44.986 63.4601 32.291 47.7697 32.291C32.0794 32.291 19.3599 44.986 19.3599 60.6461C19.3599 76.3062 32.0794 89.0012 47.7697 89.0012Z" fill="white"/>
<path d="M50.6059 17.8154H44.9339C43.3699 17.8154 42.1021 19.0808 42.1021 20.6418V20.646C42.1021 22.2069 43.3699 23.4724 44.9339 23.4724H50.6059C52.1699 23.4724 53.4378 22.2069 53.4378 20.646V20.6418C53.4378 19.0808 52.1699 17.8154 50.6059 17.8154Z" fill="#E0E0E0"/>
<path d="M15.5601 18.7152C9.14481 22.8636 6.69082 30.8165 9.24032 37.6835C9.87977 39.4075 11.9642 40.0955 13.513 39.0926L35.0343 25.1761C36.5831 24.1773 36.8073 21.9975 35.491 20.7086C30.2508 15.578 21.9753 14.5668 15.5601 18.7152Z" fill="#E0E0E0"/>
<path d="M80.4395 19.3988C86.8548 23.5472 89.3088 31.5001 86.7593 38.3671C86.1199 40.0911 84.0354 40.7791 82.4866 39.7762L60.9654 25.8597C59.4166 24.8609 59.1923 22.6811 60.5086 21.3922C65.7446 16.2616 74.0243 15.2504 80.4354 19.3988H80.4395Z" fill="#E0E0E0"/>
<path d="M73.7538 83.2415C72.2846 81.7752 69.9027 81.7752 68.4336 83.2415C66.9644 84.7078 66.9644 87.0852 68.4335 88.5515L73.4102 93.5186C74.8794 94.9849 77.2613 94.9849 78.7305 93.5186C80.1996 92.0522 80.1996 89.6749 78.7305 88.2086L73.7538 83.2415Z" fill="#E0E0E0"/>
<path d="M17.0367 88.2069C15.5675 89.6732 15.5675 92.0506 17.0367 93.5169C18.5058 94.9832 20.8877 94.9832 22.3569 93.5169L27.3336 88.5498C28.8027 87.0835 28.8027 84.7061 27.3336 83.2398C25.8644 81.7735 23.4825 81.7735 22.0134 83.2398L17.0367 88.2069Z" fill="#E0E0E0"/>
<path d="M48.9155 37.4767C48.9155 37.0899 48.4025 36.7764 47.7698 36.7764C47.137 36.7764 46.624 37.0899 46.624 37.4767V60.2661C46.624 60.6529 47.137 60.9665 47.7698 60.9665C48.4025 60.9665 48.9155 60.6529 48.9155 60.2661V37.4767Z" fill="#C7C7C7"/>
<path d="M49.6469 62.3881C49.6469 61.4267 48.8065 60.6475 47.7698 60.6475C46.733 60.6475 45.8926 61.4267 45.8926 62.3881V83.0804C45.8926 84.0417 46.733 84.821 47.7698 84.821C48.8065 84.821 49.6469 84.0417 49.6469 83.0804V62.3881Z" fill="#C7C7C7"/>
<path d="M49.7005 63.18C50.6361 62.2462 50.6361 60.7321 49.7005 59.7983C48.7648 58.8644 47.2479 58.8644 46.3122 59.7983L36.8139 69.2783C35.8783 70.2121 35.8783 71.7261 36.8139 72.66C37.7496 73.5938 39.2665 73.5938 40.2022 72.66L49.7005 63.18Z" fill="#C7C7C7"/>
<path d="M47.7699 65.1512C50.2626 65.1512 52.2834 63.1344 52.2834 60.6464C52.2834 58.1585 50.2626 56.1416 47.7699 56.1416C45.2771 56.1416 43.2563 58.1585 43.2563 60.6464C43.2563 63.1344 45.2771 65.1512 47.7699 65.1512Z" fill="#DEDEDE"/>
<path d="M62.6289 12.0116C62.6289 10.4989 61.4036 9.27204 59.891 9.27174C58.3781 9.27174 57.1511 10.4987 57.1511 12.0116C57.1514 13.5242 58.3783 14.7495 59.891 14.7495C61.4034 14.7492 62.6286 13.524 62.6289 12.0116ZM64.5813 12.0116C64.581 14.6023 62.4817 16.7016 59.891 16.7019C57.3 16.7019 55.199 14.6025 55.1987 12.0116C55.1987 9.42044 57.2998 7.31934 59.891 7.31934C62.4819 7.31964 64.5813 9.42062 64.5813 12.0116Z" fill="#E0E0E0"/>
<path d="M71.1243 8.52876C71.1243 8.03832 70.7262 7.64042 70.2358 7.64026C69.7453 7.64026 69.3473 8.03822 69.3473 8.52876C69.3475 9.01916 69.7453 9.41726 70.2358 9.41726C70.7261 9.4171 71.1241 9.01907 71.1243 8.52876ZM72.1005 8.52876C72.1003 9.55821 71.2652 10.3933 70.2358 10.3935C69.2062 10.3935 68.3713 9.55831 68.3711 8.52876C68.3711 7.49908 69.2061 6.66406 70.2358 6.66406C71.2653 6.66422 72.1005 7.49918 72.1005 8.52876Z" fill="#E0E0E0"/>
<path d="M66.7236 2.32422H68.5498V3.9873H66.7236V5.81348H65.0605V3.9873H63.2344V2.32422H65.0605V0.498047H66.7236V2.32422Z" fill="#E0E0E0"/>
</g>
<defs>
<clipPath id="clip0_1448_5400">
<rect width="96" height="96" fill="white"/>
</clipPath>
</defs>
</svg>
