<svg width="24" height="25" viewBox="0 0 24 25" fill="none" xmlns="http://www.w3.org/2000/svg">
<path d="M7.39791 7.12399C7.59317 6.92872 7.90968 6.92872 8.10494 7.12399C8.3002 7.31925 8.3002 7.63575 8.10494 7.83102L6.5483 9.38766L5.46041 8.29977C5.26515 8.1045 5.26515 7.788 5.46041 7.59274C5.63128 7.42187 5.89524 7.40012 6.08932 7.52828L6.16744 7.59274L6.5483 7.9736L7.39791 7.12399Z" fill="#7EDD93"/>
<rect x="9.47021" y="7.53271" width="9.375" height="1.3" rx="0.65" fill="#7EDD93"/>
<path d="M7.39791 14.9443C7.59317 14.749 7.90968 14.749 8.10494 14.9443C8.3002 15.1396 8.3002 15.4561 8.10494 15.6513L6.5483 17.208L5.46041 16.1201C5.26515 15.9248 5.26515 15.6083 5.46041 15.413C5.63128 15.2422 5.89524 15.2204 6.08932 15.3486L6.16744 15.413L6.5483 15.7939L7.39791 14.9443Z" fill="#7EDD93"/>
<rect x="9.47021" y="15.353" width="9.375" height="1.3" rx="0.65" fill="#7EDD93"/>
<path d="M7.39791 11.0341C7.59317 10.8389 7.90968 10.8389 8.10494 11.0341C8.3002 11.2294 8.3002 11.5459 8.10494 11.7412L6.5483 13.2978L5.46041 12.2099C5.26515 12.0147 5.26515 11.6982 5.46041 11.5029C5.63128 11.332 5.89524 11.3103 6.08932 11.4384L6.16744 11.5029L6.5483 11.8838L7.39791 11.0341Z" fill="#7EDD93"/>
<rect x="9.47021" y="11.4429" width="9.375" height="1.3" rx="0.65" fill="#7EDD93"/>
</svg>
