<svg width="24" height="25" viewBox="0 0 24 25" fill="none" xmlns="http://www.w3.org/2000/svg">
<path d="M5.12988 6.52051C5.12989 6.67049 5.1602 6.82096 5.2002 6.96094C4.51026 6.98094 3.95031 7.53034 3.9502 8.24023C3.9502 8.95023 4.52047 9.52051 5.23047 9.52051H18.7695C19.4795 9.52051 20.0498 8.95023 20.0498 8.24023C20.0497 7.59033 19.5596 7.07023 18.9297 6.99023C18.9797 6.84028 19.0098 6.69045 19.0098 6.52051V4.96094H20C21.1 4.96094 22 5.86094 22 6.96094V20.2705C22 21.3705 21.1 22.2705 20 22.2705H4C2.90002 22.2705 2.00003 21.3705 2 20.2705V6.96094C2 5.85094 2.9 4.96094 4 4.96094H5.12988V6.52051ZM5.5 16.79C4.95014 16.79 4.50022 17.2402 4.5 17.79V18.79C4.5 19.34 4.95 19.79 5.5 19.79H6.5C7.05 19.79 7.5 19.34 7.5 18.79V17.79C7.49978 17.2402 7.04986 16.79 6.5 16.79H5.5ZM11.5 16.79C10.9501 16.79 10.5002 17.2402 10.5 17.79V18.79C10.5 19.34 10.95 19.79 11.5 19.79H12.5C13.05 19.79 13.5 19.34 13.5 18.79V17.79C13.4998 17.2402 13.0499 16.79 12.5 16.79H11.5ZM5.5 11.79C4.95014 11.79 4.50022 12.2402 4.5 12.79V13.79C4.5 14.34 4.95 14.79 5.5 14.79H6.5C7.05 14.79 7.5 14.34 7.5 13.79V12.79C7.49978 12.2402 7.04986 11.79 6.5 11.79H5.5ZM11.5 11.79C10.9501 11.79 10.5002 12.2402 10.5 12.79V13.79C10.5 14.34 10.95 14.79 11.5 14.79H12.5C13.05 14.79 13.5 14.34 13.5 13.79V12.79C13.4998 12.2402 13.0499 11.79 12.5 11.79H11.5ZM17.5 11.79C16.9501 11.79 16.5002 12.2402 16.5 12.79V13.79C16.5 14.34 16.95 14.79 17.5 14.79H18.5C19.05 14.79 19.5 14.34 19.5 13.79V12.79C19.4998 12.2402 19.0499 11.79 18.5 11.79H17.5ZM6.62988 3.02051C7.17988 3.02051 7.62988 3.47051 7.62988 4.02051V6.52051C7.62988 7.07051 7.17988 7.52051 6.62988 7.52051C6.07988 7.52051 5.62988 7.07051 5.62988 6.52051V4.02051C5.62988 3.47051 6.07988 3.02051 6.62988 3.02051ZM17.5098 3.00098C18.0598 3.00098 18.5098 3.45098 18.5098 4.00098V6.50098C18.5097 6.62059 18.4803 6.73035 18.4404 6.83008C18.4304 6.87008 18.4104 6.90066 18.4004 6.93066V6.94043C18.2404 7.27043 17.8998 7.50098 17.5098 7.50098C17.1199 7.50088 16.7801 7.27036 16.6201 6.94043C16.5902 6.88053 16.5795 6.82083 16.5596 6.75098C16.5496 6.71098 16.5195 6.62012 16.5195 6.62012L16.5098 6.60059V4.00098C16.5098 3.45106 16.9599 3.00111 17.5098 3.00098ZM16.0098 4.96094V6.52051C16.0098 6.68048 16.0401 6.82095 16.0801 6.96094H8.06055C8.10054 6.82096 8.12988 6.67049 8.12988 6.52051V4.96094H16.0098Z" fill="#CDD1D5"/>
</svg>
