<svg width="24" height="25" viewBox="0 0 24 25" fill="none" xmlns="http://www.w3.org/2000/svg">
<path d="M20.0794 6.05673L19.4546 11.1207C19.4546 11.1207 19.3208 11.753 20.302 11.753L19.5065 17.9327C19.5065 17.9327 19.1794 18.7064 20.0569 18.8546C20.9343 19.0027 20.8749 17.9546 20.8749 17.9546L21.4998 6.49508C21.4998 6.49508 21.5223 5.87778 20.9201 5.66951C20.102 5.3868 20.0794 6.05598 20.0794 6.05598V6.05673Z" fill="#8A949E"/>
<path d="M11.8929 19.2914C15.8685 19.2914 19.0914 16.0685 19.0914 12.0928C19.0914 8.11718 15.8685 4.89429 11.8929 4.89429C7.91721 4.89429 4.69434 8.11718 4.69434 12.0928C4.69434 16.0685 7.91721 19.2914 11.8929 19.2914Z" fill="#B1B8BE"/>
<path d="M11.8928 16.8912C14.543 16.8912 16.6914 14.7429 16.6914 12.0927C16.6914 9.44256 14.543 7.29419 11.8928 7.29419C9.24266 7.29419 7.0943 9.44256 7.0943 12.0927C7.0943 14.7429 9.24266 16.8912 11.8928 16.8912Z" fill="#8A949E"/>
<path d="M12.3391 15.8995C14.6661 15.8995 16.5526 14.0131 16.5526 11.686C16.5526 9.35889 14.6661 7.47241 12.3391 7.47241C10.012 7.47241 8.12549 9.35889 8.12549 11.686C8.12549 14.0131 10.012 15.8995 12.3391 15.8995Z" fill="#B1B8BE"/>
<path d="M2.61893 5.60038C2.61893 5.60038 2.50012 5.56806 2.50012 5.91543C2.50012 6.2628 2.55952 9.42522 2.55952 9.42522C2.55952 9.42522 2.5099 9.88161 2.97607 10.2779C3.44224 10.6741 3.15429 10.8628 3.16481 11.4282C3.17534 11.9937 2.75803 17.8132 2.75803 17.8132C2.75803 17.8132 2.5896 18.9629 3.52119 18.8689C4.45277 18.7749 4.09637 17.9027 4.07607 17.1689C4.05577 16.435 3.70916 11.4478 3.70916 11.4478C3.70916 11.4478 3.53096 10.6147 3.76856 10.3177C4.00616 10.0207 4.3836 9.94102 4.33398 8.97936C4.28435 8.0177 4.26481 5.77707 4.26481 5.77707C4.26481 5.77707 4.27685 5.60038 4.10617 5.60038C3.9355 5.60038 3.98359 5.7861 3.98359 5.7861L3.9949 8.74927C3.9949 8.74927 4.02873 8.85304 3.88362 8.85304C3.73851 8.85304 3.79411 8.62221 3.79411 8.62221L3.77532 5.75527C3.77532 5.75527 3.76404 5.61392 3.64524 5.62144C3.52644 5.62896 3.51142 5.74399 3.51142 5.74399V8.61468C3.51142 8.61468 3.51517 8.81544 3.38509 8.81544C3.25502 8.81544 3.23248 8.73724 3.23248 8.58837V5.8034C3.23248 5.8034 3.26933 5.59888 3.13173 5.59888C2.99414 5.59888 2.99413 5.77332 2.99413 5.77332L3.03848 8.59138C3.03848 8.59138 3.05354 8.80717 2.92346 8.80717C2.79338 8.80717 2.80088 8.56582 2.80088 8.56582L2.7896 5.75151C2.7896 5.75151 2.79712 5.59362 2.61893 5.60038Z" fill="#8A949E"/>
</svg>
