<svg width="188" height="97" viewBox="0 0 188 97" fill="none" xmlns="http://www.w3.org/2000/svg">
<path d="M6.19043 14.5H4.1543L7.88965 3.89453H10.2334L13.9834 14.5H11.9473L11.061 11.8779H7.06934L6.19043 14.5ZM7.58203 10.3398H10.5483L9.10547 6.0625H9.01758L7.58203 10.3398ZM17.1475 3.89453V14.5H15.2432V3.89453H17.1475ZM28.9541 2.56152V7.73242H30.917V9.09473H28.9541V15.7744H27.3281V2.56152H28.9541ZM18.5098 12.1562C21.7324 10.5449 23.4756 8.30371 23.7979 5.28613H19.2275V3.93848H25.4531C25.4458 7.82764 23.8345 11.248 19.4326 13.416L18.5098 12.1562ZM45.7266 3.32324V4.42188C45.7339 5.53516 45.7339 6.81689 45.4263 8.49414H47.2061V9.82715H35.1064V8.49414H43.771C44.0786 6.89746 44.1006 5.71826 44.1006 4.6416H36.6006V3.32324H45.7266ZM36.6738 15.5254V11.0869H38.2852V14.207H46.1074V15.5254H36.6738ZM60.1553 10.0615V11.3799H54.8818V15.7891H53.2705V11.3799H48.0557V10.0615H60.1553ZM49.5352 8.50879V3.23535H58.6758V8.50879H49.5352ZM51.1318 7.23438H57.0498V4.53906H51.1318V7.23438ZM73.1338 12.9619V14.2803H61.0342V12.9619H64.1689V10.2373H62.0742V8.91895H63.9346V4.99316H62.0303V3.68945H72.0791V4.99316H70.1455V8.91895H72.0352V10.2373H69.9404V12.9619H73.1338ZM65.5605 8.91895H68.5342V4.99316H65.5605V8.91895ZM65.7949 12.9619H68.3145V10.2373H65.7949V12.9619ZM86.083 8.56738V9.79785H73.9834V8.56738H86.083ZM75.3896 11.7314V10.5889H84.6182V13.6064H77.0303V14.5293H85.0137V15.6572H75.4043V12.5518H83.0068V11.7314H75.3896ZM75.4775 3.98242V2.85449H84.5889V5.84277H77.1328V6.70703H84.8232V7.82031H75.5215V4.78809H82.9629V3.98242H75.4775ZM101.61 2.57617V12.3467H99.9844V9.02148H97.3184V10.1934H91.1221V3.44043H92.748V5.5791H95.707V3.44043H97.3184V4.86133H99.9844V2.57617H101.61ZM92.748 8.9043H95.707V6.83887H92.748V8.9043ZM92.8799 15.54V11.3799H94.5352V14.2217H101.903V15.54H92.8799ZM97.3184 7.70312H99.9844V6.17969H97.3184V7.70312ZM113.974 2.56152V7H115.761V8.34766H113.974V12.9033H112.348V2.56152H113.974ZM103.368 10.252C104.357 10.252 105.507 10.2446 106.708 10.208V9.36572C105.236 9.18262 104.298 8.45752 104.306 7.39551C104.298 6.09912 105.58 5.33008 107.499 5.34473C109.425 5.33008 110.692 6.09912 110.692 7.39551C110.692 8.4502 109.784 9.16797 108.334 9.36572V10.1274C109.462 10.0615 110.597 9.95898 111.659 9.79785L111.791 10.9404C108.986 11.4678 105.829 11.5044 103.544 11.5264L103.368 10.252ZM103.705 4.90527V3.71875H106.708V2.51758H108.334V3.71875H111.308V4.90527H103.705ZM105.272 15.54V12.2148H106.898V14.2217H114.442V15.54H105.272ZM105.873 7.39551C105.858 7.9668 106.474 8.30371 107.499 8.30371C108.524 8.30371 109.14 7.9668 109.14 7.39551C109.14 6.77295 108.524 6.43604 107.499 6.44336C106.474 6.43604 105.858 6.77295 105.873 7.39551ZM126.82 2.56152V7.83496H128.856V9.18262H126.82V15.8037H125.209V2.56152H126.82ZM116.376 5.90137V4.59766H119.511V2.75195H121.137V4.59766H124.184V5.90137H116.376ZM116.991 9.88574C116.977 8.05469 118.397 6.7583 120.331 6.76562C122.235 6.7583 123.649 8.05469 123.656 9.88574C123.649 11.7095 122.235 12.9912 120.331 12.9912C118.397 12.9912 116.977 11.7095 116.991 9.88574ZM118.544 9.88574C118.537 10.9624 119.291 11.6509 120.331 11.6436C121.349 11.6509 122.089 10.9624 122.104 9.88574C122.089 8.80908 121.349 8.09863 120.331 8.09863C119.291 8.09863 118.537 8.80908 118.544 9.88574ZM140.224 3.77734V5.05176C140.209 6.69971 140.209 8.53809 139.696 11.3066L138.056 11.1309C138.576 8.55273 138.576 6.67041 138.583 5.08105H130.673V3.77734H140.224ZM129.413 14.0898V12.7568H133.866V8.15723H135.478V12.7568H141.483V14.0898H129.413ZM150.639 11.1748C150.639 12.2808 151.144 13.4307 152.279 14.1631C153.437 13.3794 153.971 12.1782 153.979 11.1748V10.6328H155.575V11.1748C155.568 12.5591 156.388 13.8628 158.124 14.4121L157.333 15.5986C156.044 15.1665 155.194 14.3242 154.733 13.2622C154.301 14.3096 153.524 15.2324 152.323 15.7158C151.063 15.2544 150.272 14.3608 149.855 13.3135C149.379 14.3315 148.537 15.1592 147.313 15.5986L146.508 14.4121C148.222 13.8115 149.049 12.4639 149.057 11.1748V10.6328H150.639V11.1748ZM146.171 6.42871C146.171 4.56836 147.694 3.2793 149.745 3.2793C151.789 3.2793 153.312 4.56836 153.305 6.42871C153.312 8.26709 151.789 9.5708 149.745 9.56348C147.694 9.5708 146.171 8.26709 146.171 6.42871ZM147.768 6.42871C147.76 7.5127 148.588 8.2085 149.745 8.21582C150.88 8.2085 151.708 7.5127 151.708 6.42871C151.708 5.34473 150.88 4.64893 149.745 4.65625C148.588 4.64893 147.76 5.34473 147.768 6.42871ZM155.326 10.0762V2.57617H156.967V10.0762H155.326ZM162.519 3.52832C164.306 3.52832 165.631 5.02246 165.866 7.43945H168.393V2.56152H170.004V15.8184H168.393V8.75781H165.88C165.705 11.314 164.357 12.8887 162.519 12.8887C160.526 12.8887 159.113 11.0796 159.12 8.20117C159.113 5.34473 160.526 3.52832 162.519 3.52832ZM160.688 8.20117C160.68 10.2373 161.427 11.4165 162.519 11.4238C163.617 11.4165 164.357 10.2373 164.364 8.20117C164.357 6.17969 163.617 4.99316 162.519 4.99316C161.427 4.99316 160.68 6.17969 160.688 8.20117ZM183.964 12.8594V14.1924H171.864V12.8594H174.662V9.51221C173.607 8.9043 172.97 7.95215 172.978 6.78027C172.97 4.6709 175.036 3.2793 177.885 3.2793C180.749 3.2793 182.829 4.6709 182.821 6.78027C182.829 7.9375 182.206 8.86768 181.181 9.47559V12.8594H183.964ZM174.574 6.78027C174.567 8.13525 175.907 8.99951 177.885 8.99219C179.855 8.99951 181.225 8.13525 181.225 6.78027C181.225 5.40332 179.855 4.56104 177.885 4.56836C175.907 4.56104 174.567 5.40332 174.574 6.78027ZM176.273 12.8594H179.525V10.0981C179.02 10.208 178.471 10.2666 177.885 10.2666C177.313 10.2666 176.771 10.208 176.273 10.1055V12.8594Z" fill="#E6E8EA"/>
<path d="M32.3037 26.8203V36.3916H31.4551V26.8203H32.3037ZM24.7842 30.8916C24.7896 28.8613 25.7993 27.5669 27.2227 27.5615C28.6406 27.5669 29.6665 28.8613 29.6611 30.8916C29.6665 32.9272 28.6406 34.2163 27.2227 34.2109C25.7993 34.2163 24.7896 32.9272 24.7842 30.8916ZM25.6006 30.8916C25.6006 32.4438 26.2666 33.4644 27.2227 33.459C28.1841 33.4644 28.8447 32.4438 28.8447 30.8916C28.8447 29.3394 28.1841 28.3188 27.2227 28.3135C26.2666 28.3188 25.6006 29.3394 25.6006 30.8916ZM44.915 26.8203V36.3701H44.0986V26.8203H44.915ZM36.5898 33.2871C36.8853 33.2871 37.229 33.2871 37.5996 33.2817V28.7432H36.7939V28.0449H41.1875V28.7432H40.3818V33.1689C40.7417 33.1367 41.0854 33.1045 41.4023 33.0615L41.4561 33.6846C39.9468 33.9639 37.9434 34.0122 36.6973 34.0068L36.5898 33.2871ZM38.373 33.2656C38.7705 33.2549 39.1895 33.2388 39.5977 33.2173V28.7432H38.373V33.2656ZM40.9082 31.2139V30.4512H42.2402V27.0566H43.0459V35.8652H42.2402V31.2139H40.9082ZM54.0781 26.8203V36.3916H53.2295V26.8203H54.0781ZM46.5586 30.8916C46.564 28.8613 47.5737 27.5669 48.9971 27.5615C50.415 27.5669 51.4409 28.8613 51.4355 30.8916C51.4409 32.9272 50.415 34.2163 48.9971 34.2109C47.5737 34.2163 46.564 32.9272 46.5586 30.8916ZM47.375 30.8916C47.375 32.4438 48.041 33.4644 48.9971 33.459C49.9585 33.4644 50.6191 32.4438 50.6191 30.8916C50.6191 29.3394 49.9585 28.3188 48.9971 28.3135C48.041 28.3188 47.375 29.3394 47.375 30.8916ZM59.127 29.7529C59.1323 31.375 60.3086 33.0239 61.7158 33.6309L61.2432 34.2969C60.126 33.792 59.1646 32.6909 58.7188 31.3696C58.2729 32.7715 57.3062 33.9854 56.2158 34.5332L55.7109 33.8672C57.0806 33.2119 58.2729 31.4072 58.2783 29.7529V28.5068H56.0225V27.8086H61.4043V28.5068H59.127V29.7529ZM62.7363 36.3701V26.8203H63.585V36.3701H62.7363ZM73.4033 26.8203V36.3701H72.5869V26.8203H73.4033ZM65.3359 30.9453C65.3413 28.915 66.147 27.6313 67.3877 27.626C68.5479 27.6313 69.332 28.7485 69.4395 30.5479H70.6748V27.0244H71.4805V35.8867H70.6748V31.2461H69.4448C69.3643 33.1045 68.564 34.27 67.3877 34.2646C66.147 34.27 65.3413 32.9756 65.3359 30.9453ZM66.1309 30.9453C66.1201 32.4922 66.6143 33.4697 67.3877 33.459C68.1665 33.4697 68.6606 32.4922 68.6553 30.9453C68.6606 29.3931 68.1665 28.4209 67.3877 28.4209C66.6143 28.4209 66.1201 29.3931 66.1309 30.9453ZM78.0869 29.3877C78.0815 31.1172 79.1934 32.8574 80.5791 33.4912L80.0742 34.1787C78.9893 33.6201 78.0923 32.4814 77.668 31.1226C77.2437 32.5513 76.3467 33.7759 75.2617 34.3506L74.7139 33.6738C76.1157 32.9863 77.2222 31.1494 77.2275 29.3877V27.6475H78.0869V29.3877ZM79.5371 30.7734V30.0859H81.8037V26.8203H82.6416V36.3916H81.8037V30.7734H79.5371ZM95.9297 30.6338V31.3428H94.3828V36.3701H93.5449V26.8203H94.3828V30.6338H95.9297ZM87.3896 33.9424V27.7656H88.2275V33.2334C89.624 33.2334 91.0474 33.126 92.6211 32.793L92.7285 33.5127C91.0796 33.8457 89.5972 33.9424 88.1523 33.9424H87.3896ZM103.965 26.8203V28.9795H105.404V29.6885H103.965V31.6865H103.127V26.8203H103.965ZM96.5098 31.2246C98.8892 30.6875 100.296 29.5059 100.441 27.9912H96.9395V27.293H101.365C101.371 29.6938 99.6196 31.2676 96.8428 31.9336L96.5098 31.2246ZM97.874 32.8037V32.1162H103.965V34.4795H98.7227V35.5859H104.319V36.2842H97.8955V33.8242H103.127V32.8037H97.874ZM113.558 27.7119C113.563 29.0601 115.314 30.2202 117.038 30.4619L116.694 31.1494C115.212 30.9023 113.74 30.0806 113.128 28.9097C112.516 30.0913 111.049 30.9023 109.562 31.1494L109.218 30.4619C110.942 30.2202 112.688 29.0815 112.688 27.7119V27.1641H113.558V27.7119ZM108.767 32.9111V32.2021H117.468V32.9111H113.515V36.3701H112.688V32.9111H108.767ZM124.268 33.2334C124.262 34.0767 124.719 34.9736 125.626 35.4893C126.54 34.9253 127.023 33.9692 127.018 33.2334V32.707H127.845V33.2334C127.839 34.2163 128.564 35.1938 129.789 35.6182L129.37 36.2412C128.414 35.9028 127.748 35.2368 127.415 34.4365C127.12 35.21 126.534 35.9458 125.653 36.3164C124.724 35.9619 124.133 35.2637 123.849 34.4634C123.505 35.2314 122.85 35.8975 121.937 36.2412L121.507 35.6182C122.715 35.167 123.44 34.1465 123.451 33.2334V32.707H124.268V33.2334ZM121.26 29.624C121.254 28.292 122.312 27.3843 123.763 27.3896C125.213 27.3843 126.26 28.292 126.266 29.624C126.26 30.9346 125.213 31.8369 123.763 31.8369C122.312 31.8369 121.254 30.9346 121.26 29.624ZM122.087 29.624C122.076 30.5103 122.78 31.1333 123.763 31.1387C124.735 31.1333 125.438 30.5103 125.438 29.624C125.438 28.7324 124.735 28.0986 123.763 28.1094C122.78 28.0986 122.076 28.7324 122.087 29.624ZM128.081 32.2881V26.8311H128.919V32.2881H128.081ZM132.485 32.5566V33.6738H137.255V32.5566H138.104V36.2412H131.647V32.5566H132.485ZM130.541 31.8799V31.1816H139.242V31.8799H130.541ZM131.035 29.8281C132.738 29.5972 134.462 28.5928 134.462 27.3789V26.9277H135.332V27.3789C135.327 28.5552 137.067 29.6133 138.748 29.8281L138.437 30.5049C136.959 30.2847 135.504 29.5327 134.897 28.4639C134.29 29.5381 132.829 30.2847 131.357 30.5049L131.035 29.8281ZM132.485 35.5645H137.255V34.3398H132.485V35.5645ZM147.922 26.8203V36.3701H147.084V26.8203H147.922ZM140.671 33.9102V27.7656H141.498V33.1797C142.959 33.1689 144.463 33.0562 146.063 32.7178L146.182 33.4375C144.484 33.792 142.975 33.9102 141.444 33.9102H140.671ZM156.945 26.8203V30.6016H158.546V31.3105H156.945V36.3916H156.107V26.8203H156.945ZM149.974 33.9961V27.7549H154.432V28.4531H150.812V33.2871C152.541 33.2817 153.76 33.2065 155.184 32.9434L155.291 33.6738C153.792 33.9424 152.541 33.9961 150.726 33.9961H149.974ZM160.071 35.5645C159.695 35.5591 159.373 35.2476 159.384 34.8662C159.373 34.4902 159.695 34.1787 160.071 34.1787C160.453 34.1787 160.764 34.4902 160.759 34.8662C160.764 35.2476 160.453 35.5591 160.071 35.5645ZM15.0571 41.0127C15.0518 42.189 16.6523 43.145 18.3442 43.376L18.0112 44.042C16.4697 43.8164 15.0249 43.0483 14.5093 41.9312C13.9883 43.0483 12.5542 43.8164 11.0073 44.042L10.6958 43.376C12.377 43.145 13.9668 42.189 13.9614 41.0127V40.9912H10.9536V40.3037H18.0864V40.9912H15.0571V41.0127ZM10.1479 45.4385V44.7402H18.8921V45.4385H15.0034V47.3936H14.1655V45.4385H10.1479ZM11.2651 49.166V46.4375H12.1138V48.457H17.9146V49.166H11.2651ZM27.5396 39.8203V49.3916H26.6909V39.8203H27.5396ZM20.2241 47.082V40.6367H21.062V43.1611H23.9087V40.6367H24.7358V47.082H20.2241ZM21.062 46.373H23.9087V43.8379H21.062V46.373ZM34.8657 43.9453V44.6436H32.771V46.5234C33.7056 46.4858 34.6455 46.4214 35.5317 46.3193L35.5962 46.9531C33.48 47.2593 31.1704 47.3022 29.3442 47.2969L29.2261 46.5879C30.0586 46.5879 30.9824 46.5825 31.9331 46.5557V44.6436H29.9565V40.7334H34.8228V41.4209H30.7837V43.9453H34.8657ZM36.1655 49.3916V39.8203H37.0034V49.3916H36.1655ZM43.5132 40.6582V41.5068H45.7476V39.8311H46.5962V46.8027H45.7476V44.2568H43.5132V45.1162H39.1304V40.6582H43.5132ZM39.9683 44.4395H42.686V41.3564H39.9683V44.4395ZM40.4194 49.166V46.1797H41.2681V48.457H46.811V49.166H40.4194ZM43.5132 43.5586H45.7476V42.2158H43.5132V43.5586ZM58.4126 39.8203V41.8936H59.8521V42.6025H58.4126V44.6865H57.5747V39.8203H58.4126ZM51.1294 42.291C51.124 41.0396 52.1768 40.1802 53.6108 40.1748C55.0503 40.1802 56.0923 41.0396 56.0923 42.291C56.0923 43.5479 55.0503 44.4126 53.6108 44.418C52.1768 44.4126 51.124 43.5479 51.1294 42.291ZM51.9565 42.291C51.9512 43.1289 52.6548 43.7305 53.6108 43.7305C54.5615 43.7305 55.2705 43.1289 55.2651 42.291C55.2705 41.4639 54.5615 40.873 53.6108 40.8838C52.6548 40.873 51.9512 41.4639 51.9565 42.291ZM52.3218 45.8145V45.1377H58.4126V47.4688H53.1704V48.5645H58.7671V49.2412H52.3433V46.8242H57.5747V45.8145H52.3218ZM68.3384 39.8311V45.4922H67.5005V39.8311H68.3384ZM60.937 41.0879V40.4111H65.2983V43H61.7749V44.3213C63.4829 44.332 64.7559 44.2783 66.3081 44.0205L66.4048 44.7295C64.7988 44.9766 63.4937 45.0303 61.7319 45.0303H60.9585V42.334H64.4604V41.0879H60.937ZM62.1294 49.2412V46.0078H68.3384V49.2412H62.1294ZM62.9565 48.5537H67.5112V46.6953H62.9565V48.5537ZM74.311 39.9922C76.4326 39.9922 77.6787 40.5776 77.6841 41.6357C77.6787 42.7207 76.4326 43.3062 74.311 43.3115C72.1787 43.3062 70.9272 42.7207 70.9272 41.6357C70.9272 40.5776 72.1787 39.9922 74.311 39.9922ZM69.9604 44.6436V43.9561H78.6616V44.6436H69.9604ZM71.0132 46.1152V45.4707H77.5444V47.6084H71.8726V48.5967H77.8345V49.2627H71.0347V46.9854H76.7173V46.1152H71.0132ZM71.8081 41.6357C71.7974 42.3018 72.7266 42.667 74.311 42.667C75.8955 42.667 76.8193 42.3018 76.8247 41.6357C76.8193 41.0073 75.8955 40.6313 74.311 40.626C72.7266 40.6313 71.7974 41.0073 71.8081 41.6357ZM90.9292 44.8906V45.5781H82.2173V44.8906H86.1489V43.9453H83.3774V40.0996H89.8442V40.7871H84.2261V41.6787H89.5864V42.3232H84.2261V43.2686H89.8979V43.9453H86.9868V44.8906H90.9292ZM83.2808 47.8232C83.2754 46.8296 84.4624 46.2871 86.5786 46.2979C88.6733 46.2871 89.855 46.8296 89.8657 47.8232C89.855 48.8276 88.6733 49.3486 86.5786 49.3486C84.4624 49.3486 83.2754 48.8276 83.2808 47.8232ZM84.1294 47.8232C84.1187 48.4033 84.9995 48.7041 86.5786 48.6934C88.1416 48.7041 89.0117 48.4033 89.0171 47.8232C89.0117 47.2539 88.1416 46.937 86.5786 46.9316C84.9995 46.937 84.1187 47.2539 84.1294 47.8232ZM96.5044 41.4746V42.1621H91.7134V41.4746H93.7007V40.1104H94.5386V41.4746H96.5044ZM92.0571 44.9766C92.0571 43.709 92.9219 42.812 94.1089 42.8066C95.312 42.812 96.1714 43.709 96.1821 44.9766C96.1714 46.2603 95.312 47.1626 94.1089 47.168C92.9219 47.1626 92.0571 46.2603 92.0571 44.9766ZM92.8091 44.9766C92.8091 45.8252 93.3516 46.4321 94.1089 46.4268C94.8716 46.4321 95.4302 45.8252 95.4302 44.9766C95.4302 44.1387 94.8716 43.5264 94.1089 43.5156C93.3516 43.5264 92.8091 44.1387 92.8091 44.9766ZM96.9985 48.8975V40.0566H97.7935V43.8486H99.061V39.8203H99.8667V49.3701H99.061V44.5469H97.7935V48.8975H96.9985ZM111.458 39.8311V42.7207H112.886V43.4297H111.458V46.2334H110.609V39.8311H111.458ZM103.959 45.2559C104.722 45.2559 105.614 45.2559 106.548 45.229V44.5254C105.437 44.4233 104.717 43.9131 104.722 43.1182C104.717 42.248 105.614 41.7109 106.957 41.7109C108.31 41.7109 109.191 42.248 109.202 43.1182C109.191 43.9077 108.493 44.418 107.386 44.5254V45.1968C108.278 45.1538 109.18 45.0786 110.018 44.9551L110.093 45.5674C108.02 45.9326 105.737 45.9487 104.056 45.9434L103.959 45.2559ZM104.196 41.3457V40.7012H106.548V39.7451H107.386V40.7012H109.728V41.3457H104.196ZM105.13 47.3828V46.7061H111.458V49.3701H110.609V47.3828H105.13ZM105.528 43.1182C105.522 43.6177 106.076 43.9561 106.957 43.9453C107.837 43.9561 108.396 43.6177 108.396 43.1182C108.396 42.6133 107.837 42.3018 106.957 42.3125C106.076 42.3018 105.522 42.6133 105.528 43.1182ZM121.394 39.8311V46.8135H120.556V39.8311H121.394ZM113.735 42.8389C113.729 41.4639 114.809 40.5024 116.238 40.4971C117.667 40.5024 118.735 41.4639 118.741 42.8389C118.735 44.23 117.667 45.1968 116.238 45.1914C114.809 45.1968 113.729 44.23 113.735 42.8389ZM114.562 42.8389C114.551 43.7896 115.271 44.4502 116.238 44.4502C117.188 44.4502 117.914 43.7896 117.914 42.8389C117.914 41.9043 117.188 41.2383 116.238 41.2383C115.271 41.2383 114.551 41.9043 114.562 42.8389ZM115.228 49.166V46.1045H116.066V48.457H121.695V49.166H115.228ZM130.482 39.7881V42.1084H131.932V42.8066H130.482V45.0732H129.644V39.7881H130.482ZM123.038 41.3672V40.6904H125.465V39.7236H126.303V40.6904H128.731V41.3672H123.038ZM123.585 43.3652C123.58 42.3984 124.493 41.8022 125.884 41.7969C127.27 41.8022 128.172 42.3984 128.183 43.3652C128.172 44.3374 127.27 44.9282 125.884 44.9336C124.493 44.9282 123.58 44.3374 123.585 43.3652ZM124.391 46.2012V45.5674H130.482V47.6836H125.24V48.6182H130.836V49.2627H124.413V47.0605H129.644V46.2012H124.391ZM124.391 43.3652C124.386 43.9399 124.977 44.2998 125.884 44.2998C126.787 44.2998 127.377 43.9399 127.388 43.3652C127.377 42.7959 126.787 42.4253 125.884 42.4199C124.977 42.4253 124.386 42.7959 124.391 43.3652ZM140.075 40.7119C140.08 42.0601 141.831 43.2202 143.555 43.4619L143.211 44.1494C141.729 43.9023 140.257 43.0806 139.645 41.9097C139.033 43.0913 137.566 43.9023 136.079 44.1494L135.735 43.4619C137.459 43.2202 139.205 42.0815 139.205 40.7119V40.1641H140.075V40.7119ZM135.284 45.9111V45.2021H143.985V45.9111H140.032V49.3701H139.205V45.9111H135.284ZM150.785 46.2334C150.779 47.0767 151.236 47.9736 152.144 48.4893C153.057 47.9253 153.54 46.9692 153.535 46.2334V45.707H154.362V46.2334C154.356 47.2163 155.082 48.1938 156.306 48.6182L155.887 49.2412C154.931 48.9028 154.265 48.2368 153.932 47.4365C153.637 48.21 153.051 48.9458 152.17 49.3164C151.241 48.9619 150.65 48.2637 150.366 47.4634C150.022 48.2314 149.367 48.8975 148.454 49.2412L148.024 48.6182C149.232 48.167 149.958 47.1465 149.968 46.2334V45.707H150.785V46.2334ZM147.777 42.624C147.771 41.292 148.83 40.3843 150.28 40.3896C151.73 40.3843 152.777 41.292 152.783 42.624C152.777 43.9346 151.73 44.8369 150.28 44.8369C148.83 44.8369 147.771 43.9346 147.777 42.624ZM148.604 42.624C148.593 43.5103 149.297 44.1333 150.28 44.1387C151.252 44.1333 151.956 43.5103 151.956 42.624C151.956 41.7324 151.252 41.0986 150.28 41.1094C149.297 41.0986 148.593 41.7324 148.604 42.624ZM154.598 45.2881V39.8311H155.436V45.2881H154.598ZM159.625 40.5615C160.925 40.5669 161.865 41.6841 161.994 43.4727H164.137V39.8203H164.975V49.3916H164.137V44.1709H162.005C161.914 46.0454 160.958 47.2163 159.625 47.2109C158.213 47.2163 157.225 45.9272 157.23 43.8916C157.225 41.8613 158.213 40.5669 159.625 40.5615ZM158.036 43.8916C158.041 45.4438 158.686 46.4644 159.625 46.459C160.56 46.4644 161.215 45.4438 161.215 43.8916C161.215 42.3394 160.56 41.3188 159.625 41.3135C158.686 41.3188 158.041 42.3394 158.036 43.8916ZM175.309 47.4365V48.1455H166.565V47.4365H168.735V44.8638C167.918 44.4395 167.424 43.752 167.424 42.8818C167.424 41.4048 168.875 40.4326 170.916 40.4219C172.957 40.4326 174.407 41.4048 174.407 42.8818C174.407 43.7358 173.929 44.4126 173.139 44.8369V47.4365H175.309ZM168.241 42.8818C168.235 43.9507 169.347 44.665 170.916 44.665C172.468 44.665 173.59 43.9507 173.59 42.8818C173.59 41.813 172.468 41.1094 170.916 41.1201C169.347 41.1094 168.235 41.813 168.241 42.8818ZM169.562 47.4365H172.291V45.1646C171.877 45.272 171.415 45.3311 170.916 45.3311C170.427 45.3311 169.97 45.2773 169.562 45.1699V47.4365ZM177.082 48.5645C176.706 48.5591 176.383 48.2476 176.394 47.8662C176.383 47.4902 176.706 47.1787 177.082 47.1787C177.463 47.1787 177.774 47.4902 177.769 47.8662C177.774 48.2476 177.463 48.5591 177.082 48.5645Z" fill="#B1B8BE"/>
<g clip-path="url(#clip0_1239_6310)">
<rect x="0.625" y="72.5" width="187" height="5" rx="2.5" fill="#464C53"/>
<rect x="0.625" y="72.5" width="31" height="5" rx="2.5" fill="#51D3E1"/>
</g>
<path d="M88.0396 85.7227V93.5H87.062V86.7324H87.019L85.1284 87.9893V87.0117L87.062 85.7227H88.0396ZM92.8628 85.7227V93.5H91.8853V86.7324H91.8423L89.9517 87.9893V87.0117L91.8853 85.7227H92.8628ZM96.5796 89.332C95.5698 89.332 95.022 88.5801 95.022 87.4629C95.022 86.3672 95.5913 85.6045 96.5796 85.6045C97.6001 85.6045 98.1372 86.3672 98.1372 87.4629C98.1372 88.5801 97.5786 89.332 96.5796 89.332ZM96.5796 88.666C97.106 88.666 97.353 88.1934 97.353 87.4629C97.353 86.7432 97.1274 86.2598 96.5796 86.2705C96.064 86.2705 95.8062 86.7432 95.8062 87.4629C95.8062 88.1934 96.064 88.666 96.5796 88.666ZM101.328 93.6074C100.318 93.6182 99.7593 92.8555 99.77 91.749C99.7593 90.6426 100.339 89.8799 101.328 89.8799C102.337 89.8799 102.875 90.6426 102.875 91.749C102.875 92.8555 102.316 93.6182 101.328 93.6074ZM101.328 92.9414C101.843 92.9414 102.09 92.4688 102.09 91.749C102.09 91.0186 101.865 90.5352 101.328 90.5459C100.812 90.5566 100.543 91.0186 100.543 91.749C100.543 92.4688 100.801 92.9414 101.328 92.9414ZM95.7847 93.5L101.134 85.7227H102.004L96.6548 93.5H95.7847Z" fill="#6D7882"/>
<defs>
<clipPath id="clip0_1239_6310">
<rect x="0.625" y="72.5" width="187" height="5" rx="2.5" fill="white"/>
</clipPath>
</defs>
</svg>
