<svg width="28" height="28" viewBox="0 0 28 28" fill="none" xmlns="http://www.w3.org/2000/svg">
<path d="M13.0984 5.80369H7.4119C5.52756 5.80369 4 7.3312 4 9.21548V20.5882C4 22.4725 5.52756 24 7.4119 24H18.7849C20.6692 24 22.1968 22.4725 22.1968 20.5882L22.1968 14.9018M9.68649 18.3136L13.8244 17.4799C14.044 17.4356 14.2457 17.3274 14.4041 17.1689L23.6671 7.90116C24.1112 7.45682 24.1109 6.73657 23.6664 6.2926L21.7042 4.33264C21.2599 3.88886 20.54 3.88916 20.0961 4.33332L10.8321 13.6021C10.674 13.7602 10.566 13.9615 10.5217 14.1807L9.68649 18.3136Z" stroke="#096AB3" stroke-width="2" stroke-linecap="round" stroke-linejoin="round"/>
</svg>
