<svg preserveAspectRatio="xMidYMid meet" width="100%" height="100%" overflow="visible" style="display: block;" viewBox="0 0 25.6413 20.8651" fill="none" xmlns="http://www.w3.org/2000/svg">
<g id="Group">
<path id="Vector" d="M1.1961 9.73113C1.29507 9.55348 1.49175 9.57251 1.68463 9.60043L4.06893 10.712C4.30495 10.8034 4.46103 10.8592 4.62091 10.6194C4.81506 10.3275 5.02823 10.4455 5.12848 10.7463C5.17289 11.1371 5.37338 11.3706 5.72741 11.448L5.76294 11.7614C5.93424 11.5964 6.16519 11.6802 6.45704 12.0126C7.11307 11.9961 7.47344 12.2081 7.53943 12.6496L7.83508 12.5519C8.56344 13.1788 9.33241 13.8082 10.3564 13.4453L10.5861 13.666C10.7054 13.5899 10.7904 13.5899 10.8399 13.666C11.0531 14.0404 11.4414 14.2041 11.8652 14.3728C13.2039 14.7827 14.4855 15.2928 15.7062 15.9032C16.026 15.6316 16.0589 15.3956 15.9156 14.9337C15.5717 14.7764 15.5691 14.5835 15.9156 14.4261C15.6224 14.2117 15.5285 14.0645 15.9156 13.9186C15.611 13.5823 15.611 13.4123 15.9156 13.411C16.177 13.213 16.7137 13.2511 16.6769 13.6648L16.9307 13.7815V20.6185L16.6769 20.7707C16.6515 20.7745 16.6312 20.9103 16.4282 20.8494C15.389 20.5411 16.3698 18.658 15.7113 17.9918L1.32299 11.5063L1.10093 11.2767C0.519761 11.4175 0.677107 9.81614 1.1961 9.72986V9.73113Z" fill="#4B7F9E"/>
<path id="Vector_2" d="M18.1996 6.93898C18.7274 7.07349 18.9774 8.0366 18.4533 8.2079C18.1475 8.57081 17.3037 8.45407 17.0575 8.08101C14.3192 8.19902 11.5822 8.71674 8.84763 9.63417L8.13957 9.66081C7.98984 9.89556 7.73352 9.89429 7.37188 9.66081C6.8402 9.79532 6.79325 9.61132 6.94552 9.11518C6.44049 8.9794 5.88978 8.94387 5.29085 9.00859L5.25786 8.71547C4.74267 8.41727 4.20719 8.13811 3.65013 7.87671L3.60826 7.57344C3.61461 7.20672 4.04096 7.25748 4.33662 7.30062L5.25786 7.57344C5.38729 7.29174 6.39988 6.90979 6.65367 7.19276C6.68158 6.89076 6.81736 6.90091 6.90745 7.19276C7.26782 7.02654 7.6485 7.06968 8.04948 7.31966L8.23347 7.08364C8.93392 7.27905 9.56076 7.22068 10.1153 6.9098L10.4604 6.93898C10.331 6.65474 10.7345 5.86167 11.0949 5.92384C11.0632 5.49495 10.8893 5.20056 10.6495 4.85668L10.7142 4.65493C11.6481 4.49631 13.3688 5.79822 14.04 5.64088C14.2951 5.58124 14.691 5.23482 14.9981 5.18533C15.7201 5.06986 17.7478 6.34386 18.2008 6.93898H18.1996Z" fill="#E6F5FB"/>
<path id="Vector_3" d="M24.4172 12.2681C24.7141 12.5422 24.756 13.0104 24.5428 13.6715C24.8359 14.226 24.8016 15.2095 24.0365 15.3135C22.8577 15.8338 21.5088 16.1688 20.3109 16.7271C19.6638 17.0291 19.0788 17.477 18.4164 17.7524C18.2401 17.826 17.8467 17.8387 17.8277 17.8602C17.7756 17.9199 17.8619 18.1635 17.8137 18.2587C17.7503 18.383 17.5891 18.3602 17.5688 18.4465C17.4736 18.8322 17.735 19.4109 17.4381 19.7535L17.1983 19.5441C17.1602 19.454 17.3632 17.694 17.6919 17.7866C17.2757 17.5773 17.2947 16.0025 17.6919 15.7564C17.315 15.5 17.1729 14.438 17.565 14.1702C17.6487 13.6791 18.2692 14.0547 17.9457 14.424C18.0891 14.5725 17.9787 14.6334 17.8061 14.6219C20.0013 13.7147 22.2067 12.7947 24.421 11.8608C24.5085 11.9864 24.5212 12.1425 24.4172 12.2656V12.2681Z" fill="#A5D7D3"/>
<path id="Vector_4" d="M8.93648 0.340544C9.80696 -0.0883509 9.46308 1.94573 9.26386 1.78331C8.97328 1.54475 8.54311 1.71225 8.17513 1.86325C8.28552 1.89878 8.28425 1.94192 8.17513 1.99014L8.05712 2.23377C7.31099 2.20459 6.74252 2.4203 6.35169 2.88092C5.65379 3.22226 4.32015 3.67526 3.73391 3.13344C3.69838 2.94817 4.07017 2.90122 4.0486 2.9063L2.56524 3.27809L2.59062 3.38722C2.84567 3.41767 2.83425 3.5433 2.59062 3.641C2.4688 4.00518 2.09066 4.73735 1.70237 4.78303L1.57167 5.91998C1.53741 6.59378 1.32677 6.89198 0.94102 6.8133C0.665664 6.99222 0.60856 6.76762 0.56161 6.50369L0.594603 2.48502C0.330668 2.37843 0.234232 2.21347 0.30656 1.99141C0.805245 1.69956 1.36357 2.00156 1.85591 1.96603C3.036 1.88101 7.69548 0.742791 8.93521 0.341813L8.93648 0.340544Z" fill="#B5E0DE"/>
<path id="Vector_5" d="M8.17509 1.99014C8.64332 1.93558 9.02399 2.27438 9.31711 3.00528C9.41355 2.97102 9.45162 3.01797 9.444 3.13217C9.84752 3.03066 10.1013 3.32758 10.2054 4.02041C10.3817 4.22979 10.5568 4.42774 10.7129 4.65487C11.0619 5.16371 11.3537 5.32106 11.0936 5.92379L10.7967 5.93648C10.3437 4.8782 8.95293 4.17142 7.94668 4.90612L7.66625 4.78177C7.68402 5.1193 7.66371 5.3274 7.28558 5.16244C7.16883 5.58626 6.66634 5.85908 6.27044 5.92379C5.66136 6.04434 5.28195 5.64463 5.12968 4.72593L4.51425 4.27674C3.78716 4.21075 3.14636 3.99884 2.59184 3.63974C2.58676 3.55599 2.59565 3.4697 2.59184 3.38595C2.85451 3.15247 3.41664 2.98244 3.73387 3.13217C4.68429 3.11948 5.50655 3.09918 6.31993 2.6043C6.46839 2.51421 6.47981 2.29595 6.62193 2.24773C6.89221 2.1551 7.94541 1.92923 8.17382 1.99014H8.17509Z" fill="#F7CDA8"/>
<path id="Vector_6" d="M23.6557 9.09637C23.7331 9.37807 23.5606 9.54303 23.3233 9.36665C22.8754 9.37173 22.4122 9.40092 22.0061 9.60394C21.9757 9.71688 21.93 9.84631 21.8285 9.87803C21.1877 10.0785 20.5088 10.2612 19.849 10.3653C19.9035 10.7371 19.1371 11.0112 18.8338 10.8729C18.042 11.1964 17.2388 11.4921 16.4229 11.7611C16.4013 12.1266 15.7339 12.5631 15.4078 12.3956C14.7923 12.5275 15.088 11.704 15.3951 11.3792C14.7898 11.3424 14.8355 10.7041 15.4078 10.6191C15.5778 10.4211 16.2732 10.2765 16.5498 10.3653C17.249 10.5569 17.7438 10.4452 18.0357 10.0316L18.7336 9.8628C18.5521 9.77905 18.4595 9.65089 18.4544 9.47705C18.2679 9.29052 18.1829 9.07861 18.2007 8.84259C18.0332 8.5685 18.1321 8.28046 18.4544 8.20813C18.4912 7.77543 18.4722 7.29578 18.2007 6.93921C19.2298 7.18411 20.2576 7.51403 21.2448 7.89217C22.0594 8.20432 23.0543 8.52663 23.657 9.09637H23.6557Z" fill="#F9F4DE"/>
<path id="Vector_7" d="M24.1634 9.60354C24.5162 9.62003 24.4896 9.7355 24.1634 9.85732C24.4363 10.0603 24.3271 10.1834 24.0365 10.238L23.9401 10.5045C21.651 11.3572 19.3657 12.2733 17.0841 13.2555L15.9167 13.4103C15.5284 13.6184 14.4384 13.0753 15.1554 12.7758C14.814 12.555 15.0386 12.2391 15.4092 12.3952C15.753 12.0183 16.0525 11.9625 16.4243 11.7607C17.2415 11.4968 18.0447 11.2011 18.8352 10.8725C18.867 10.6821 19.6537 10.4474 19.8504 10.3649C20.6143 10.1999 21.3756 10.0159 22.1357 9.81164L22.0075 9.60354C22.3984 9.16703 23.1788 9.39416 23.6571 9.09597C23.7447 9.17845 24.1482 9.5642 24.1647 9.60354H24.1634Z" fill="#F8DDA7"/>
<path id="Vector_8" d="M0.307812 1.99L0.821727 2.32753C0.840761 3.67767 0.779853 5.03287 0.8065 6.383C0.811576 6.61268 0.942272 6.78906 0.942272 6.8119C1.23285 7.48569 1.30011 8.25466 1.14403 9.11879C1.11484 9.28756 1.17068 9.40937 1.32295 9.47663C1.50567 9.65935 1.45111 9.76594 1.19606 9.73041C0.990491 10.1415 1.0679 10.6618 0.943542 11.1262H1.51456C1.62495 11.2557 1.33564 11.3914 1.32295 11.5069C1.22905 11.729 1.10216 11.729 0.942272 11.5069C0.836951 12.0005 0.861063 12.5309 0.896593 13.022L0.688488 13.0296C0.317963 12.8355 0.117476 12.8786 0.0476851 12.338C-0.0627109 11.4942 0.0540297 10.1923 0.0476851 9.28121C0.0375337 7.56944 0.0946334 5.82087 0.184727 4.08879C0.205029 3.69543 0.0578375 2.13466 0.306546 1.99H0.307812Z" fill="#5A92AE"/>
<path id="Vector_9" d="M17.5651 13.5376C17.8849 13.766 17.8836 13.9437 17.5651 14.1721C17.5727 14.7342 17.692 15.191 17.692 15.7582V17.7885C17.692 18.0867 17.4636 19.1526 17.4382 19.7553C17.4052 20.5205 17.555 20.6233 16.6769 20.7705V13.6645C16.786 13.2953 17.4065 13.1303 17.5651 13.5376Z" fill="#B2DEDC"/>
<path id="Vector_10" d="M24.1634 9.60347C24.6735 9.5819 25.1887 9.53368 25.5604 9.94735C25.3701 12.0157 25.8092 14.5129 25.5655 16.5267C25.5516 16.6447 25.5452 16.7259 25.4945 16.8388C25.4589 16.9188 25.3625 16.9264 25.3054 16.9632C24.2255 17.4111 24.374 15.6283 24.7978 15.0598L24.6291 14.8733C24.5415 13.867 24.5973 12.9141 24.7978 12.0144L24.7293 11.0615C24.4768 10.9638 24.473 10.8064 24.6709 10.6186C24.5605 10.5767 24.5605 10.5336 24.6709 10.4917L24.5567 10.2455C24.2598 10.1732 24.1291 10.0438 24.1634 9.85725C24.1697 9.79254 24.1786 9.64027 24.1634 9.60347Z" fill="#B3DFDC"/>
<path id="Vector_11" d="M10.2054 4.02089C9.98714 3.75949 9.66229 3.35344 9.44404 3.13265C9.40724 2.59589 9.34887 2.08706 9.2702 1.60613C9.58996 1.42722 9.6496 0.509788 9.20929 0.329602L9.31842 0.0885072C9.68894 -0.0409226 10.0036 -0.065032 10.298 0.271232L10.2067 4.02216L10.2054 4.02089Z" fill="#B5E0DE"/>
<path id="Vector_12" d="M24.7979 15.0601C24.8068 15.6235 24.7586 16.2212 24.7979 16.7769C24.822 17.1386 25.1113 16.9089 25.3068 16.9635C24.9388 17.202 24.4934 17.1081 24.1647 16.8366C23.8526 16.7922 23.7879 16.5219 24.0378 16.329C24.0429 16.0575 24.3018 15.7428 24.0378 15.4408C24.3411 15.0804 24.5949 14.9535 24.7992 15.0601H24.7979Z" fill="#BAAC95"/>
<path id="Vector_13" d="M24.798 12.0151C24.8729 12.9795 24.7828 14.0733 24.798 15.0605L24.0366 15.4412V15.3143C24.5011 15.1088 24.6622 14.4806 24.5417 14.0048C24.5163 13.9058 24.2955 13.9236 24.2841 13.8398C24.2308 13.4706 24.6039 13.1483 24.4173 12.2702C24.5252 12.1103 24.5391 11.8806 24.3082 11.9136L24.4173 11.7626C23.9313 11.7411 24.3488 10.6929 24.732 10.9327L24.798 12.0164V12.0151Z" fill="#85BEC2"/>
<path id="Vector_14" d="M9.31716 0.0866019L9.5811 0.52311L9.44405 3.13201C9.40218 3.09013 9.35903 3.04699 9.31716 3.00512C9.07226 2.77037 8.9479 2.44299 8.94537 2.02297C8.65605 2.09023 8.40481 2.07246 8.17513 1.86309C8.29822 1.53698 9.36538 1.56997 9.44151 1.47861C9.33746 1.33522 9.45928 0.639851 9.43136 0.606859C9.38187 0.549758 9.01008 0.530724 8.93648 0.340386C8.95932 0.332772 9.02785 0.188116 9.31716 0.0866019Z" fill="#81BAC2"/>
<path id="Vector_15" d="M1.32279 11.5074C1.26569 12.0188 1.4611 12.5695 1.1959 13.0301C1.08931 13.1532 0.93577 13.204 0.848215 13.0479C0.799996 12.9641 0.900239 11.7333 0.942114 11.5074C0.95861 11.4884 0.935771 11.4135 1.01952 11.3983L1.32279 11.5074Z" fill="#6E96AD"/>
<path id="Vector_16" d="M0.942223 11.507C0.994249 11.7747 0.869895 12.9345 0.942223 13.031C0.95745 13.0513 1.12495 13.0183 1.19601 13.031C1.14398 13.1223 1.11734 13.2264 1.00821 13.2721C0.871166 13.2442 0.78107 13.0792 0.688439 13.031C1.03739 12.6249 0.59327 11.9093 0.942223 11.5083V11.507Z" fill="#4B7F9E"/>
<path id="Vector_17" d="M8.68259 10.4917C8.97317 10.7506 9.3272 10.9346 9.74341 11.0424L9.86522 11.2975C10.2142 11.352 10.3106 11.5246 10.4096 11.9104C11.2433 12.1185 11.5986 12.4484 11.4742 12.9026C11.6481 13.4001 10.9958 13.5764 10.586 13.664C10.4007 13.6665 10.1469 13.796 9.8906 13.7985C8.71685 13.8112 8.40343 13.2656 7.54056 12.6489C7.2817 12.4217 7.20684 12.0347 7.5266 11.8888C7.48473 11.2899 8.07097 10.0945 8.68259 10.4917Z" fill="#76BDC6"/>
<path id="Vector_18" d="M12.87 11.7607C12.889 12.116 12.9753 12.3266 13.1314 12.3914C13.5387 12.1896 13.7557 12.3939 13.7823 13.003C14.2531 13.003 14.696 13.0499 15.0449 13.1768C15.3089 13.2733 15.9205 13.5956 15.9154 13.9166C15.9052 14.0841 15.923 14.2554 15.9154 14.4242C15.6578 14.5079 15.3266 14.5231 14.9206 14.4698C14.9498 14.7871 14.9015 15.0256 14.7734 15.1855C14.6731 15.3111 14.5741 15.315 14.4435 15.2718C13.2304 14.8759 12.0566 14.4546 10.9615 13.9204L10.8397 13.6628C10.7547 13.6615 10.671 13.6628 10.5859 13.6628C10.8829 13.4611 11.2026 13.0943 11.4742 12.9015C11.3815 12.6477 11.5478 12.5347 11.9716 12.5627C12.2076 12.1084 12.5071 11.8406 12.87 11.7594V11.7607Z" fill="#F7B685"/>
<path id="Vector_19" d="M24.0365 10.2381C24.1304 9.93861 24.6798 10.2013 24.671 10.4919C24.6722 10.5337 24.6671 10.5769 24.671 10.6188L24.6595 10.8979C22.4059 11.823 20.1206 12.762 17.801 13.7149L17.565 13.5373C17.2757 13.4878 16.9382 13.6959 16.6768 13.6642C16.6374 13.6591 16.0499 13.4561 15.9154 13.4104C16.0258 13.0018 16.7821 13.0982 17.0841 12.9929C18.9697 12.3343 20.7665 11.3585 22.6432 10.6847C22.9211 10.5845 23.8347 10.2216 24.0365 10.2381Z" fill="#C3E8E7"/>
<path id="Vector_20" d="M6.01796 9.47725C6.28951 9.53308 6.55979 9.63967 6.8288 9.79575C7.16126 9.56353 7.61045 9.69804 7.95306 9.83128C8.21319 9.55592 8.97581 9.49121 8.80958 9.98609L8.79055 10.1713C7.84647 10.5203 7.59649 11.1573 7.4328 12.0697C6.42782 12.2105 6.35549 11.741 6.5674 10.8616C6.35676 11.3159 6.08902 11.6154 5.76544 11.7613C5.26422 11.4301 4.79218 11.5735 5.13098 10.7462C4.79726 10.5457 5.16017 9.96832 5.51166 10.1117C5.28706 9.77671 5.64109 9.34401 6.01923 9.47725H6.01796Z" fill="#AED8EE"/>
<path id="Vector_21" d="M9.19018 9.98489C9.4059 10.2996 9.01253 10.6714 8.68261 10.4925C8.65216 10.5191 8.48085 10.5229 8.36538 10.6143C7.80833 11.0508 7.56977 11.9733 7.54058 12.6496C6.79573 12.1179 7.05205 12.4441 6.36049 12.2448C6.20314 12.1992 5.96585 11.8946 5.7641 11.7614C6.28816 10.514 7.25508 9.53569 6.65107 11.7614L7.41243 11.8883C7.22843 10.83 7.89461 10.2932 8.8095 9.98489C8.93766 9.69684 9.0341 9.75141 9.19018 9.98489Z" fill="#82CAE2"/>
<path id="Vector_22" d="M10.8399 13.6647C11.7344 13.6786 11.5923 13.9921 12.0123 14.2027C12.9843 14.6925 13.8053 14.8587 14.7735 15.1874C14.9537 14.9856 15.2443 15.0402 15.644 15.3498C15.6427 15.1544 15.729 15.0262 15.9155 14.9336C16.2239 15.0783 15.9257 16.219 15.8534 16.2013C15.3623 16.0667 14.9474 15.6899 14.5185 15.5059C13.4995 15.0694 12.1875 14.8029 11.2345 14.3486C10.9084 14.1926 10.6229 14.0695 10.8386 13.6647H10.8399Z" fill="#699BB6"/>
<path id="Vector_23" d="M13.6313 12.1417C14.2214 12.0605 14.5183 12.2267 14.5247 12.6404C14.6947 12.6074 14.8622 12.6518 15.0272 12.7762C15.0627 12.6658 15.1058 12.6671 15.1541 12.7762C15.0246 13.3269 15.4611 13.1632 15.6527 13.2305C15.7581 13.2685 15.8456 13.3865 15.9154 13.4106C15.8824 13.5312 15.9243 13.7634 15.9154 13.9182C15.6604 13.6162 15.3685 13.62 15.0728 13.488C15.0322 13.4703 15.0183 13.332 14.9244 13.2964C14.1592 13.0071 13.3205 13.8065 13.5032 12.3955C13.2799 12.4057 13.2824 12.9716 12.9994 12.7736C12.988 12.766 13.0032 12.6467 12.9005 12.5249C12.8459 12.4602 12.6365 12.4234 12.6276 12.3359C12.6213 12.2762 12.9144 11.9438 12.8713 11.761C12.9081 11.6545 12.9499 11.657 12.9982 11.761C13.2088 11.8854 13.4207 12.0123 13.6326 12.1417H13.6313Z" fill="#F7CB97"/>
<path id="Vector_24" d="M4.24148 10.365C4.5714 10.2635 4.71986 10.2381 4.62216 10.6188L4.74905 10.9982C4.159 11.3979 1.95616 9.76223 1.19607 9.73051C1.23795 9.64549 1.28236 9.56174 1.32297 9.47672C1.18846 9.12904 1.49554 9.05164 1.70364 9.34983C1.87241 9.143 2.13635 9.19375 2.49545 9.49956L4.0816 10.0325L4.24148 10.365Z" fill="#69A1BE"/>
<path id="Vector_25" d="M15.9154 14.4257C15.9078 14.5945 15.9217 14.7645 15.9154 14.9333C15.9065 15.1858 15.923 15.4421 15.9154 15.6946C15.8304 15.7936 14.97 15.2543 14.7746 15.1871C14.2759 14.0793 15.0842 13.9905 15.9166 14.4257H15.9154Z" fill="#F4997C"/>
<path id="Vector_26" d="M5.51043 10.1113C5.43048 10.2344 5.16655 10.6544 5.12975 10.7458C4.93434 10.7648 4.79095 10.7001 4.62218 10.6189C4.49656 10.5593 4.36332 10.4133 4.24151 10.3651C4.11335 9.96286 4.79983 9.65579 5.12975 9.85754C5.43937 9.64817 5.58275 9.74715 5.51043 10.1113Z" fill="#63B8D3"/>
<path id="Vector_27" d="M17.0574 8.08154C17.0891 8.29599 16.8658 8.38989 16.6768 8.33532C16.3925 8.51932 16.1362 8.60307 15.7124 8.60941L15.5347 8.84289C15.0741 9.1119 14.163 9.26798 13.6313 9.09668L13.5831 9.26037L10.341 9.72225C9.89438 9.9735 9.51116 10.0611 9.1914 9.98365C9.00106 10.1093 8.91223 10.0014 8.81072 9.98365C8.74981 9.97223 8.67114 9.79712 8.37929 9.85295C8.18641 9.88975 8.00622 10.1232 7.87679 10.0991C7.66869 10.0598 7.63951 9.59536 7.13321 9.86564C7.02789 9.92147 7.02408 10.1093 6.97713 10.1042C6.87688 10.094 5.90489 9.76286 6.02037 9.47608L5.92012 9.36442C5.18034 9.88848 4.41391 9.21849 5.25901 8.71473C5.30089 8.71473 5.42144 8.81624 5.56736 8.82132C6.15487 8.83909 7.689 8.4178 7.0355 9.60171C7.37684 9.35554 7.64585 9.69687 7.73467 9.69941C7.84126 9.70195 7.94024 9.45451 8.04302 9.41644C8.18641 9.36442 8.39071 9.51034 8.58358 9.44943C10.3601 8.89111 12.7418 8.35563 14.6198 7.98764C15.8101 7.75416 15.9801 7.91912 17.0587 8.079L17.0574 8.08154Z" fill="#C3E4F4"/>
<path id="Vector_28" d="M11.0934 5.92447C10.9069 6.35717 10.8041 6.64268 10.459 6.9396C9.85751 7.06269 8.96293 6.77845 8.45282 6.38635C8.04296 6.07166 7.26004 5.27859 7.66736 4.78244C8.4617 4.27868 8.70914 4.20128 9.64053 4.52231C10.5719 4.84335 10.5935 5.18723 11.0934 5.92447Z" fill="#FBE7E7"/>
<path id="Vector_29" d="M2.59171 3.76718C3.07771 3.87758 3.52183 4.22146 3.92281 4.79628L4.86689 6.17813C5.18792 5.7264 5.68914 5.82156 5.77162 6.37862C5.86933 6.0652 6.03556 5.91293 6.27158 5.92435C6.58373 5.3508 6.8261 5.48911 7.28671 5.163C7.66993 5.26832 7.54304 6.25046 7.15982 6.30502C6.79057 6.43318 6.98598 6.21239 7.01517 6.30249C7.13952 6.67301 6.92 6.9674 6.65225 7.19327C6.05332 7.37345 6.18529 7.52319 5.25644 7.57394C4.67528 7.56506 4.37962 7.39502 4.3682 7.06637C3.37337 6.34944 2.73256 5.23532 2.39376 4.06919L2.59171 3.76718Z" fill="#EA9B8B"/>
<path id="Vector_30" d="M7.66747 4.78153C7.81086 5.61775 8.88183 6.68745 9.73835 6.60751L10.4591 6.9387C9.58354 7.69243 9.02268 7.412 8.04815 7.31937C7.65859 7.24197 7.48856 7.11508 7.54058 6.9387C7.10661 6.93235 6.89978 6.67095 7.15991 6.30424L7.2868 5.16221C7.37308 5.1013 7.45176 4.91858 7.66747 4.78153Z" fill="#F9C5C5"/>
<path id="Vector_31" d="M4.36826 7.06615C4.65504 7.22349 4.87837 7.51534 5.2565 7.57372C4.76543 7.60036 4.05103 7.48743 3.60691 7.57372C3.70081 7.9011 3.26557 8.0927 2.97245 8.08128C2.48518 8.30208 1.67308 7.84019 1.57664 7.31993C1.22134 7.19304 1.33935 6.91007 1.70353 6.93926C2.1172 5.83276 3.76933 6.19821 4.36826 7.06615Z" fill="#A7D3EB"/>
<path id="Vector_32" d="M3.60703 7.57398L4.90513 8.20591C4.99269 8.28204 5.24647 8.63734 5.25662 8.71601C5.02441 9.3086 4.14251 8.67668 3.76564 8.39371C3.69839 8.34295 3.63748 8.29092 3.60703 8.20844C3.49028 8.59547 2.98652 8.47365 2.97257 8.08155C3.07408 7.85822 3.37989 7.6184 3.60703 7.57398Z" fill="#C3E5F2"/>
<path id="Vector_33" d="M17.0575 8.0807C17.5334 8.15176 17.9826 8.1378 18.4534 8.20759C18.4305 8.48168 18.3899 8.63522 18.1996 8.84205C18.1374 9.08315 18.0232 9.08315 17.9458 8.84205C17.4788 8.78495 17.1413 8.65806 16.9306 8.46137L16.6769 8.33448C16.7314 8.15303 16.8723 8.08197 17.0575 8.0807Z" fill="#AFDCEE"/>
<path id="Vector_34" d="M7.16 6.30412C7.28816 6.51349 7.33384 6.71145 7.54068 6.93858C7.41505 7.06674 7.20315 7.15176 6.90622 7.19237C6.82628 7.19364 6.7108 7.1746 6.65243 7.19237L6.52808 7.13019C6.9151 6.88529 6.71334 5.57576 7.16 6.30412Z" fill="#D1857E"/>
<path id="Vector_35" d="M7.5405 6.93869C7.65471 7.06432 7.90722 7.19755 8.04807 7.31937C7.71688 7.28765 7.22581 7.1874 6.90604 7.19248C7.04309 6.97422 7.30068 6.93362 7.5405 6.93869Z" fill="#7EB3C7"/>
<path id="Vector_36" d="M24.7979 12.0147C24.7814 11.8028 24.539 11.3523 24.6697 11.0008C24.5441 10.9957 24.4185 11.7127 24.4172 11.7609C24.4857 11.9487 24.4591 11.983 24.3271 11.8497C22.2575 12.7659 20.1765 13.6617 18.0866 14.5373L17.9457 14.4256C17.848 14.267 17.7757 14.1274 17.565 14.1718C17.5625 13.9599 17.5676 13.7493 17.565 13.5374L24.671 10.6189C24.6723 10.6404 24.7953 10.7572 24.803 10.9247C24.8194 11.2876 24.7826 11.653 24.7979 12.0147Z" fill="#A9D9D6"/>
<path id="Vector_37" d="M24.4171 11.7613C24.4171 11.793 24.7343 12.161 24.4171 12.2688C24.393 12.1559 24.4894 11.9237 24.3549 11.8894C23.1203 12.6571 21.7308 13.081 20.3984 13.6431C20.0432 13.7928 17.8238 14.9196 17.6931 14.8067C17.5218 14.6582 17.8505 14.4895 17.9456 14.426L24.4171 11.7613Z" fill="#5D9FB0"/>
<path id="Vector_38" d="M2.59178 3.64005C2.70217 3.67177 2.69964 3.71364 2.59178 3.76694C2.78973 4.99271 3.69447 6.06495 4.36826 7.06613C3.3544 6.50907 2.7745 6.22483 1.70353 6.93924C1.32413 7.0674 1.27972 6.72606 1.57157 5.91268L1.70353 4.78207C1.82154 4.42297 2.21237 3.67177 2.59178 3.64005Z" fill="#487D9F"/>
<path id="Vector_39" d="M1.70347 6.9387C1.69713 7.01737 1.59054 7.17471 1.57658 7.31937C1.71362 7.56174 1.74916 7.88658 1.68444 8.29136C1.82529 8.71899 1.83163 9.07175 1.70347 9.34964C1.68317 9.34964 1.37355 9.45623 1.3228 9.47653C0.968769 9.61865 1.08551 9.6415 0.8165 9.85594C0.940854 8.84969 0.961155 7.82821 0.942122 6.8118C1.57912 6.16846 1.47126 5.48705 1.70347 4.78153C1.74662 5.43756 1.68063 6.07964 1.61972 6.73059C1.61211 6.81434 1.70601 6.9057 1.70347 6.9387Z" fill="#5487A7"/>
<path id="Vector_40" d="M2.59182 3.38622C2.38371 3.42302 1.65155 3.61717 1.57795 3.38749C2.80246 3.16163 3.9889 2.69593 5.22863 2.53224C5.36568 2.51448 5.66641 2.39139 5.63722 2.6236C4.98373 2.70735 4.36577 2.98017 3.73512 3.13244C3.36586 3.22127 2.96488 3.32024 2.59309 3.38622H2.59182Z" fill="#79B6BE"/>
<path id="Vector_41" d="M8.17513 1.86354L9.189 1.73665L9.31716 3.00556C9.29305 2.98146 9.14205 3.00556 9.07099 2.93451C8.85908 2.72767 8.46191 2.06656 8.17513 1.99043V1.86354Z" fill="#B9DFDC"/>
<path id="Vector_42" d="M2.59187 3.64036C3.18699 3.5896 4.01179 4.0388 4.64879 4.02357C4.7871 4.32177 5.08657 4.30781 5.26295 4.49181C5.60302 4.84964 5.49516 5.28996 5.57256 5.40924C5.67154 5.56277 6.11312 5.75565 6.27174 5.92315C6.10043 6.23657 6.06871 6.58679 5.70072 6.80885C5.39491 6.58172 5.65631 5.90792 5.15255 6.20485C5.09799 6.23784 5.03454 6.54999 4.93937 6.55507C4.73254 6.56649 3.96738 5.36102 3.86079 5.09835L2.59187 3.76598C2.58553 3.72538 2.59441 3.68097 2.59187 3.63909V3.64036Z" fill="#F2A995"/>
<path id="Vector_43" d="M17.9456 8.84231C18.0281 8.85246 18.1372 8.82328 18.1994 8.84231C18.4278 8.91337 18.7108 9.25979 18.4532 9.47677C18.2591 9.8105 18.1449 9.8143 17.9456 9.47677C17.4888 9.57067 17.0663 9.73944 16.6767 9.98434C16.3493 10.3714 15.8367 10.5389 15.1362 10.4856L14.9002 10.6188C14.1604 10.8662 13.4841 11.205 12.87 11.6339C12.6885 11.8129 12.3789 12.0882 12.1086 12.0146C11.8726 11.9397 11.6188 11.9397 11.3472 12.0146C11.1036 12.2519 11.0516 12.2253 11.0935 11.8877C10.8879 11.6669 10.6773 11.4969 10.459 11.3801C10.1189 11.3535 10.157 11.2583 10.459 11.1264L10.3829 10.8637C9.98824 10.983 9.45148 10.6239 9.69765 10.2381L9.71669 9.95262C11.0326 9.48565 12.62 9.30547 14.012 9.34988C14.7365 8.95017 15.7085 8.91845 16.5498 8.9692C16.5067 8.79917 16.6754 8.75729 17.0574 8.84231C17.1906 8.62406 17.4863 8.62406 17.9456 8.84231Z" fill="#C9EAEC"/>
<path id="Vector_44" d="M15.4079 10.6192L15.1541 11.1268C16.7136 11.0849 14.8623 11.6902 15.4079 12.3957C15.3013 12.5112 15.1922 12.6152 15.1541 12.7764H15.0272C14.6504 12.8068 14.427 12.6558 14.4004 12.2789L13.6314 12.1419C13.1746 12.298 12.9995 12.369 12.997 11.7612C13.4627 11.1826 14.0971 10.8019 14.9004 10.6192C14.9346 10.4073 15.3216 10.4276 15.4079 10.6192Z" fill="#FAEBCB"/>
<path id="Vector_45" d="M18.4533 9.47699C18.6855 9.50618 19.0764 9.62292 19.0853 9.92111C18.8695 10.213 18.428 10.1038 18.1704 10.2396C18.0447 10.3056 18.0333 10.4997 17.8569 10.5886C17.527 10.7548 16.7593 10.7611 16.55 10.364C16.6299 10.1267 16.9256 9.95791 17.4382 9.8564C17.3595 9.60262 17.5296 9.47572 17.9458 9.47572C18.1107 9.48334 18.2934 9.45542 18.4533 9.47572V9.47699Z" fill="#F8E2B4"/>
<path id="Vector_46" d="M22.0063 9.60365C22.2512 9.55544 22.9973 9.45138 23.2092 9.47169C23.3881 9.48945 23.581 9.56432 23.4021 9.72928C23.3018 9.82064 21.1269 10.2533 20.764 10.3269C20.5305 10.3739 20.0395 10.5249 19.8491 10.365C20.5013 10.0897 21.3185 9.7407 22.0063 9.60365Z" fill="#F5B593"/>
<path id="Vector_47" d="M18.834 10.8732C18.7756 11.2196 18.3163 11.1206 17.8214 11.3198C17.4306 11.4772 16.8075 12.0228 16.423 11.7614C17.2225 11.3287 17.9178 11.0419 18.834 10.8732Z" fill="#F4BF98"/>
<path id="Vector_48" d="M17.4382 9.85765C17.2263 9.99089 16.7518 10.2916 16.55 10.3652C16.262 10.4693 15.729 10.5619 15.408 10.619C15.2544 10.6469 15.0565 10.5936 14.9004 10.619C14.922 10.5936 14.8585 10.4172 14.908 10.3792C14.974 10.3284 15.5818 10.3792 15.8191 10.3322C16.2391 10.251 16.4244 10.0721 16.6769 9.98454C16.9066 9.76502 17.2517 9.53662 17.4382 9.85765Z" fill="#E4BAA7"/>
<path id="Vector_49" d="M24.671 10.4923C24.454 10.5177 24.1786 10.25 24.0365 10.2386C23.9693 10.0888 24.1596 9.89976 24.1634 9.85788C24.3169 9.95051 24.6456 9.97843 24.7446 10.1066C24.907 10.3134 24.6697 10.4708 24.671 10.4923Z" fill="#98A6A1"/>
<path id="Vector_50" d="M14.0122 9.3501C13.2343 9.48334 12.525 9.55947 11.6494 9.71555C10.9147 9.84625 10.3919 9.70413 9.69784 10.2383C9.59887 10.5099 9.73972 10.732 10.1179 10.9071C10.4084 10.7028 10.68 10.8119 10.4592 11.1266C10.4452 11.2053 10.4795 11.3157 10.4592 11.3804C10.8234 11.4743 11.0353 11.643 11.0937 11.8879C11.1787 11.9273 11.2662 11.9679 11.3474 12.0148C11.5543 11.7864 11.7243 11.8664 11.9235 12.0681L12.1088 12.0148C12.2801 11.671 12.7356 11.7166 12.8701 11.6342C12.9805 11.6697 12.9793 11.7128 12.8701 11.761C12.5339 12.0516 12.3372 12.4222 11.9743 12.7089C11.7966 12.8498 11.5517 12.8485 11.4743 12.9031C11.3386 12.445 10.1369 12.077 10.0773 12.0136C10.0519 11.9869 10.2536 11.7192 10.2016 11.6468C10.1775 11.6126 9.96685 11.6024 9.88437 11.5123C9.77652 11.3943 9.71941 11.1824 9.66993 11.1469C9.5443 11.0581 8.61165 11.2954 8.68271 10.4909C8.87431 10.3284 9.07607 10.0708 9.19028 9.98329C9.92371 9.41608 12.5758 9.22194 13.6315 9.09505C13.8434 9.12169 13.9703 9.20671 14.0122 9.34883V9.3501Z" fill="#8ECACF"/>
<path id="Vector_51" d="M3.60699 8.20818C4.52061 8.53557 3.99274 8.69037 5.25658 8.71575C5.28323 8.93527 5.12462 9.13323 5.12969 9.34894L6.27045 9.09643C6.34913 9.37178 6.10676 9.36925 6.01794 9.47583C5.84029 9.68774 5.66264 9.87554 5.51037 10.1103C5.37967 10.0316 5.26039 9.93518 5.12969 9.85651C4.70968 9.95041 4.37722 9.68013 4.13359 9.04821C3.45852 8.76016 3.28341 8.47973 3.60699 8.20692V8.20818Z" fill="#8FD0E5"/>
<path id="Vector_52" d="M13.6313 12.1414C13.781 12.0906 13.965 11.861 14.1934 11.9003L15.0271 12.7759C14.7682 12.8812 14.1287 13.0499 14.1363 12.5855C14.7137 12.3635 14.0805 12.1642 13.696 12.5233L13.6313 12.1414Z" fill="#F8DDA7"/>
<path id="Vector_53" d="M14.9003 10.6189C14.6732 10.893 14.092 10.9171 13.7152 11.1467C13.4423 11.313 13.2837 11.6137 12.997 11.7609H12.8701V11.634C13.7786 11.0782 13.6479 10.8244 14.9003 10.6189Z" fill="#E2C2B0"/>
<path id="Vector_54" d="M2.97255 8.08106C3.3012 8.22318 3.46743 8.15846 3.60701 8.20795C3.59813 8.63811 4.12981 8.66222 4.32649 8.88428C4.65895 9.25988 4.46607 9.4553 5.12971 9.85755L4.24147 10.3651C3.68441 10.1418 2.98397 9.95271 2.39773 9.73446C2.18582 9.65579 1.84448 9.35886 1.70363 9.34998C1.43843 8.83987 1.38259 8.19272 1.4435 7.62425C1.46254 7.44914 1.5742 7.3362 1.57674 7.31971C2.0272 7.59126 2.48909 7.87296 2.97255 8.08106Z" fill="#79C8E0"/>
<path id="Vector_55" d="M15.5347 8.8428C15.6197 8.38345 16.5638 8.50146 16.5498 8.96969C15.7136 9.09024 14.8418 9.20825 14.012 9.35036C13.8267 9.3491 13.6858 9.27804 13.6313 9.09658C14.2302 9.02425 14.9408 8.88467 15.5347 8.8428Z" fill="#7AC0CD"/>
<path id="Vector_56" d="M16.6768 8.33491C16.7847 8.34252 16.8964 8.33872 16.9306 8.4618C16.9091 8.54809 16.8862 8.61534 16.857 8.61788C16.3228 8.67498 16.5068 8.3476 17.0296 8.66356C17.0626 8.68386 17.0651 8.75619 17.0575 8.84248C16.9991 8.84882 16.7504 8.94018 16.55 8.96937C16.3545 8.76127 15.8317 8.82091 15.5348 8.84248C15.0717 8.25243 16.2213 8.30446 16.6768 8.33491Z" fill="#8FD0E3"/>
<path id="Vector_57" d="M16.9307 8.46174C17.2961 8.49473 17.654 8.62036 17.9458 8.84242C17.7098 8.81323 17.2987 8.81831 17.0576 8.84242C16.899 8.82846 16.2886 8.52773 16.4244 8.46301C16.5906 8.47063 16.7645 8.44652 16.9307 8.46174Z" fill="#64BBD1"/>
<path id="Vector_58" d="M9.69769 10.2384C9.7218 10.8119 10.3829 10.652 10.7116 10.4922C10.7433 10.6939 10.6443 11.0403 10.459 11.1266C10.4527 11.1292 10.4628 10.9693 10.3969 11.0023C10.2801 11.0594 10.1799 11.3068 9.95401 11.2535C9.88676 10.6926 9.10891 10.6926 9.69769 10.2384Z" fill="#B1DEDF"/>
<path id="Vector_59" d="M11.3474 12.0148C11.6862 11.5466 11.9133 11.4108 12.1087 12.0148C12.0339 12.1645 12.2521 12.431 11.7293 12.5236C11.808 12.1214 11.6075 12.1671 11.3474 12.0148Z" fill="#ACDADD"/>
<path id="Vector_60" d="M17.9457 9.47696C17.7884 9.60893 17.6094 9.74978 17.4381 9.85764C17.2123 9.91093 16.8798 9.91474 16.6768 9.98453C16.6083 9.8551 17.1818 9.44778 17.2173 9.43382C17.4737 9.3285 17.6983 9.46681 17.9457 9.47696Z" fill="#AFD5DB"/>
<path id="Vector_61" d="M10.4591 11.3799H11.0936V11.8874C10.7307 11.7161 10.8271 11.5562 10.3335 11.7605C10.251 11.5512 10.4312 11.4687 10.4591 11.3799Z" fill="#ABD9DB"/>
</g>
</svg>
