<svg width="32" height="32" viewBox="0 0 32 32" fill="none" xmlns="http://www.w3.org/2000/svg">
<path d="M4.57635 6.64355C4.57635 5.53899 5.47179 4.64355 6.57635 4.64355H25.4237C26.5282 4.64355 27.4237 5.53899 27.4237 6.64355V25.357C27.4237 26.4616 26.5282 27.357 25.4237 27.357H6.57635C5.47179 27.357 4.57635 26.4616 4.57635 25.357V6.64355Z" fill="#E7EAED"/>
<path d="M6.89124 8.125C6.89124 7.57272 7.33895 7.125 7.89124 7.125H24.1088C24.661 7.125 25.1088 7.57272 25.1088 8.125V21.4999C25.1088 22.0522 24.661 22.4999 24.1088 22.4999H7.89124C7.33895 22.4999 6.89124 22.0522 6.89124 21.4999V8.125Z" fill="#AACFFF"/>
<path d="M13.1348 11.2409C13.5259 10.6105 14.4438 10.6105 14.8349 11.2409L17.9443 16.2546L19.1103 14.3766C19.5014 13.7462 20.4194 13.7462 20.8105 14.3766L24.9023 20.9733C25.3154 21.6395 24.8366 22.4997 24.0527 22.4997H7.94725C7.16352 22.4996 6.68469 21.6394 7.09764 20.9733L13.1348 11.2409Z" fill="#A5EBB5"/>
<circle cx="20.9809" cy="10.4966" r="2.15973" fill="#FFE4AA"/>
</svg>
