<svg width="24" height="25" viewBox="0 0 24 25" fill="none" xmlns="http://www.w3.org/2000/svg">
<path d="M11.0084 3.37945L3.92 8.69574C3.216 9.22374 2.864 9.48774 2.61013 9.82232C2.38527 10.1186 2.21749 10.4542 2.11534 10.8119C2 11.2157 2 11.6557 2 12.5357V17.8357C2 19.5159 2 20.356 2.32698 20.9977C2.6146 21.5622 3.07354 22.0211 3.63803 22.3088C4.27976 22.6357 5.11984 22.6357 6.8 22.6357H10.4211V18.7147C10.4211 18.1745 10.4211 17.9044 10.5227 17.6965C10.6204 17.4967 10.782 17.3351 10.9819 17.2374C11.1897 17.1357 11.4598 17.1357 12 17.1357C12.5402 17.1357 12.8103 17.1357 13.0181 17.2374C13.218 17.3351 13.3796 17.4967 13.4773 17.6965C13.5789 17.9044 13.5789 18.1745 13.5789 18.7147V22.6357H17.2C18.8802 22.6357 19.7202 22.6357 20.362 22.3088C20.9265 22.0211 21.3854 21.5622 21.673 20.9977C22 20.356 22 19.5159 22 17.8357V12.9427C22 12.0955 22 11.6719 21.8923 11.2808C21.7968 10.9344 21.6399 10.6079 21.429 10.3169C21.1909 9.98843 20.8601 9.72381 20.1985 9.19457L12.9679 3.41006C12.6216 3.13304 12.4485 2.99453 12.2559 2.9393C12.086 2.89057 11.9061 2.88776 11.7347 2.93116C11.5405 2.98035 11.3631 3.11338 11.0084 3.37945Z" fill="#CDD1D5"/>
</svg>
