<svg width="24" height="25" viewBox="0 0 24 25" fill="none" xmlns="http://www.w3.org/2000/svg">
<path d="M16.9599 6.06842C16.9599 9.51168 14.7492 12.303 12.0221 12.303C9.29502 12.303 7.08429 9.51168 7.08429 6.06842C7.08429 2.62516 9.29502 6.06844 12.0221 6.06844C14.7492 6.06844 16.9599 2.62516 16.9599 6.06842Z" fill="#D9D9D9"/>
<path d="M7.04035 18.374C7.04035 14.9307 9.25108 12.1394 11.9782 12.1394C14.7052 12.1394 16.916 14.9307 16.916 18.374C16.916 21.8172 14.7052 18.3739 11.9782 18.3739C9.25108 18.3739 7.04035 21.8172 7.04035 18.374Z" fill="#D9D9D9"/>
<rect x="6.54187" y="4.53809" width="10.9582" height="1.52525" rx="0.762626" fill="#383838"/>
<path d="M16.2407 4.53228L16.8208 4.53233L16.1165 6.06289L15.4952 6.06289L16.2407 4.53228Z" fill="#585858"/>
<path d="M15.3864 4.53228L15.9664 4.53233L15.2622 6.06289L14.6409 6.06289L15.3864 4.53228Z" fill="#585858"/>
<rect x="17.4584" y="19.9041" width="10.9582" height="1.52525" rx="0.762626" transform="rotate(-180 17.4584 19.9041)" fill="#383838"/>
<path d="M7.52203 17.4071C7.52203 17.2896 7.55352 17.1743 7.61322 17.0732L7.80049 16.7559C8.05162 16.3304 8.45092 16.0126 8.92188 15.8633L9.69502 15.6183C10.0755 15.4977 10.3962 15.2376 10.5927 14.8901L10.666 14.7604C11.2578 13.7139 12.7785 13.7537 13.3146 14.8297C13.5051 15.2121 13.8497 15.4951 14.2617 15.6077L15.156 15.8522C15.7169 16.0055 16.1759 16.4088 16.4001 16.9453L16.4966 17.1761C16.5293 17.2544 16.5461 17.3384 16.5461 17.4232C16.5461 17.7771 16.2593 18.0639 15.9054 18.0639H8.17888C7.81611 18.0639 7.52203 17.7698 7.52203 17.4071Z" fill="#D5A063"/>
<path d="M16.2153 8.33195C16.2153 8.40365 16.1973 8.4742 16.1629 8.53714L15.6758 9.42998C15.3867 9.95995 14.9861 10.421 14.5017 10.7813L14.3661 10.8821C12.9388 11.9438 10.9784 11.9222 9.57484 10.8294C9.19304 10.5322 8.86901 10.1674 8.61884 9.75323L7.88696 8.54149C7.84733 8.47589 7.82639 8.40071 7.82639 8.32407C7.82639 8.09181 8.01467 7.90353 8.24693 7.90353L15.7868 7.90353C16.0235 7.90353 16.2153 8.09534 16.2153 8.33195Z" fill="#D5A063"/>
<rect x="14.6522" y="6.43286" width="1.7573" height="0.516531" rx="0.258266" fill="white"/>
<rect x="13.7659" y="6.43286" width="0.597477" height="0.516531" rx="0.258266" fill="white"/>
</svg>
