<svg width="26" height="38" viewBox="0 0 26 38" fill="none" xmlns="http://www.w3.org/2000/svg">
<path d="M24.7232 5.04102C24.7232 13.1797 19.4978 19.7775 13.0519 19.7775C6.60603 19.7775 1.38062 13.1797 1.38062 5.04102C1.38062 -3.09769 6.60603 5.04107 13.0519 5.04107C19.4978 5.04107 24.7232 -3.09769 24.7232 5.04102Z" fill="#F4F4F4"/>
<path d="M1.27654 34.1269C1.27654 25.9882 6.50196 19.3905 12.9478 19.3905C19.3937 19.3905 24.6191 25.9882 24.6191 34.1269C24.6191 42.2657 19.3937 34.1269 12.9478 34.1269C6.50196 34.1269 1.27654 42.2657 1.27654 34.1269Z" fill="#F4F4F4"/>
<rect x="0.0983887" y="1.42383" width="25.9015" height="3.60518" rx="1.80259" fill="#EBEBEB"/>
<path d="M23.0232 1.41114L24.3942 1.41126L22.7296 5.02897L21.261 5.02897L23.0232 1.41114Z" fill="white"/>
<path d="M21.0036 1.41114L22.3746 1.41126L20.7101 5.02897L19.2415 5.02897L21.0036 1.41114Z" fill="white"/>
<rect x="25.9014" y="37.7441" width="25.9015" height="3.60518" rx="1.80259" transform="rotate(-180 25.9014 37.7441)" fill="#EBEBEB"/>
<path d="M2.41479 31.8426C2.41479 31.5651 2.48922 31.2925 2.63032 31.0535L3.07298 30.3035C3.66655 29.2979 4.61037 28.5467 5.72356 28.1938L7.55101 27.6146C8.45032 27.3296 9.20836 26.7147 9.67272 25.8935L9.84616 25.5867C11.2448 23.1132 14.8392 23.2074 16.1065 25.7507C16.5568 26.6545 17.3712 27.3234 18.3452 27.5897L20.4589 28.1675C21.7847 28.5299 22.8696 29.4831 23.3996 30.7513L23.6276 31.2969C23.7049 31.4818 23.7447 31.6803 23.7447 31.8808C23.7447 32.7172 23.0667 33.3952 22.2304 33.3952H3.96735C3.1099 33.3952 2.41479 32.7001 2.41479 31.8426Z" fill="#E4E4E4"/>
<path d="M22.9629 10.3921C22.9629 10.5616 22.9204 10.7284 22.8392 10.8771L21.3858 13.5411C20.9013 14.4291 20.2302 15.2015 19.4186 15.8051L17.1567 17.4876C14.6311 19.3661 11.1623 19.328 8.67871 17.3943L6.92397 16.0282C6.24837 15.5022 5.67501 14.8567 5.23234 14.1239L3.27756 10.8874C3.1839 10.7324 3.1344 10.5547 3.1344 10.3735C3.1344 9.82453 3.57944 9.37949 4.12842 9.37949L21.9502 9.37949C22.5095 9.37949 22.9629 9.83287 22.9629 10.3921Z" fill="#E4E4E4"/>
<rect x="19.2681" y="5.90332" width="4.15366" height="1.22091" rx="0.610453" fill="white"/>
<rect x="17.1733" y="5.90332" width="1.41223" height="1.22091" rx="0.610453" fill="white"/>
</svg>
