<svg width="24" height="24" viewBox="0 0 24 24" fill="none" xmlns="http://www.w3.org/2000/svg">
<path d="M9.97607 19.3477C9.34437 19.3477 8.86961 19.9418 9.21045 20.4736C9.79907 21.392 10.8287 22.001 12.0005 22.001C13.1721 22.0008 14.2019 21.3919 14.7905 20.4736C15.1312 19.9419 14.6564 19.3479 14.0249 19.3477H9.97607ZM12.0005 2C11.493 2 11.0815 2.41143 11.0815 2.91895V3.66895C11.0815 3.69298 11.0836 3.71667 11.0854 3.74023C8.37136 4.1781 6.29834 6.53153 6.29834 9.36914C6.29836 9.69427 6.3271 10.013 6.37939 10.3232L6.36475 10.3242C6.49472 12.0235 6.00189 14.5345 4.5083 15.9844C4.09776 16.2128 3.81984 16.6512 3.81982 17.1543C3.81996 17.893 4.41897 18.4922 5.15771 18.4922H18.8423C19.581 18.4922 20.18 17.893 20.1802 17.1543C20.1802 16.6522 19.9038 16.2142 19.4946 15.9854C17.9995 14.5357 17.5062 12.0243 17.6362 10.3242L17.6216 10.3232C17.6739 10.013 17.7016 9.69422 17.7017 9.36914C17.7017 6.532 15.6298 4.17867 12.9165 3.74023C12.9183 3.71671 12.9194 3.69293 12.9194 3.66895V2.91895C12.9194 2.41156 12.5078 2.00023 12.0005 2Z" fill="white"/>
</svg>
