<svg width="20" height="21" viewBox="0 0 20 21" fill="none" xmlns="http://www.w3.org/2000/svg">
<path d="M10.6561 1.45117H9.23022V2.94825H10.6561V1.45117Z" fill="#228738"/>
<path d="M9.94263 1.9082C15.0849 1.90845 19.2551 6.06937 19.2551 11.2041C19.2551 16.3388 15.0849 20.4998 9.94263 20.5C4.80011 20.5 0.629164 16.339 0.62915 11.2041C0.62915 6.06922 4.8001 1.9082 9.94263 1.9082Z" fill="#D9D9D9" stroke="#D9D9D9"/>
<path d="M9.94259 18.3286C13.8897 18.3286 17.0895 15.135 17.0895 11.1955C17.0895 7.25607 13.8897 4.0625 9.94259 4.0625C5.99545 4.0625 2.79565 7.25607 2.79565 11.1955C2.79565 15.135 5.99545 18.3286 9.94259 18.3286Z" fill="white"/>
<path d="M10.6393 0.0742188H9.2124C8.81895 0.0742188 8.5 0.392548 8.5 0.785228V0.786271C8.5 1.17895 8.81895 1.49728 9.2124 1.49728H10.6393C11.0327 1.49728 11.3517 1.17895 11.3517 0.786271V0.785228C11.3517 0.392548 11.0327 0.0742188 10.6393 0.0742188Z" fill="#D9D9D9"/>
<path d="M1.83945 0.647417C0.225596 1.691 -0.391744 3.69162 0.249621 5.4191C0.410484 5.8528 0.934857 6.02586 1.32448 5.77357L6.73848 2.27273C7.1281 2.02148 7.18451 1.47311 6.85338 1.14888C5.53514 -0.141782 3.45331 -0.396161 1.83945 0.647417Z" fill="#FFE0A3"/>
<path d="M18.1607 0.819292C19.7746 1.86287 20.3919 3.8635 19.7506 5.59098C19.5897 6.02467 19.0653 6.19773 18.6757 5.94544L13.2617 2.44461C12.8721 2.19335 12.8157 1.64498 13.1468 1.32075C14.464 0.0300924 16.5469 -0.224286 18.1597 0.819292H18.1607Z" fill="#FFE0A3"/>
<path d="M16.479 16.879C16.1094 16.5101 15.5102 16.5101 15.1406 16.879C14.771 17.2479 14.771 17.8459 15.1406 18.2148L16.3926 19.4643C16.7622 19.8332 17.3614 19.8332 17.731 19.4643C18.1006 19.0954 18.1006 18.4974 17.731 18.1285L16.479 16.879Z" fill="#D9D9D9"/>
<path d="M2.21069 18.1291C1.84111 18.498 1.84111 19.0961 2.21069 19.4649C2.58028 19.8338 3.17949 19.8338 3.54907 19.4649L4.80104 18.2154C5.17062 17.8465 5.17062 17.2485 4.80104 16.8796C4.43145 16.5108 3.83224 16.5108 3.46265 16.8796L2.21069 18.1291Z" fill="#D9D9D9"/>
<path d="M10.2303 5.36759C10.2303 5.27029 10.1012 5.19141 9.94204 5.19141C9.78285 5.19141 9.65381 5.27029 9.65381 5.36759V11.1005C9.65381 11.1978 9.78285 11.2767 9.94204 11.2767C10.1012 11.2767 10.2303 11.1978 10.2303 11.1005V5.36759Z" fill="#51D3E1"/>
<path d="M10.4149 11.6332C10.4149 11.3914 10.2035 11.1953 9.94269 11.1953C9.68188 11.1953 9.47046 11.3914 9.47046 11.6332V16.8386C9.47046 17.0804 9.68188 17.2764 9.94269 17.2764C10.2035 17.2764 10.4149 17.0804 10.4149 16.8386V11.6332Z" fill="#51D3E1"/>
<path d="M10.4279 11.8347C10.6633 11.5997 10.6633 11.2189 10.4279 10.9839C10.1925 10.749 9.8109 10.749 9.57552 10.9839L7.18608 13.3687C6.95071 13.6037 6.95071 13.9845 7.18608 14.2194C7.42146 14.4544 7.80308 14.4544 8.03845 14.2194L10.4279 11.8347Z" fill="#51D3E1"/>
<path d="M9.94209 12.329C10.5692 12.329 11.0775 11.8216 11.0775 11.1957C11.0775 10.5699 10.5692 10.0625 9.94209 10.0625C9.315 10.0625 8.80664 10.5699 8.80664 11.1957C8.80664 11.8216 9.315 12.329 9.94209 12.329Z" fill="#51D3E1"/>
</svg>
