<svg width="25" height="25" viewBox="0 0 25 25" fill="none" xmlns="http://www.w3.org/2000/svg">
<path d="M11.0584 3.37945L3.97005 8.69574C3.26605 9.22374 2.91405 9.48774 2.66018 9.82232C2.43532 10.1186 2.26754 10.4542 2.16539 10.8119C2.05005 11.2157 2.05005 11.6557 2.05005 12.5357V17.8357C2.05005 19.5159 2.05005 20.356 2.37703 20.9977C2.66465 21.5622 3.12359 22.0211 3.68808 22.3088C4.32981 22.6357 5.16989 22.6357 6.85005 22.6357H10.4711V18.7147C10.4711 18.1745 10.4711 17.9044 10.5727 17.6965C10.6704 17.4967 10.832 17.3351 11.0319 17.2374C11.2397 17.1357 11.5098 17.1357 12.05 17.1357C12.5902 17.1357 12.8603 17.1357 13.0682 17.2374C13.2681 17.3351 13.4297 17.4967 13.5274 17.6965C13.629 17.9044 13.629 18.1745 13.629 18.7147V22.6357H17.25C18.9302 22.6357 19.7703 22.6357 20.412 22.3088C20.9765 22.0211 21.4354 21.5622 21.7231 20.9977C22.05 20.356 22.05 19.5159 22.05 17.8357V12.9427C22.05 12.0955 22.05 11.6719 21.9423 11.2808C21.8469 10.9344 21.6899 10.6079 21.479 10.3169C21.2409 9.98843 20.9101 9.72381 20.2486 9.19457L13.0179 3.41006C12.6717 3.13304 12.4985 2.99453 12.3059 2.9393C12.136 2.89057 11.9562 2.88776 11.7848 2.93116C11.5906 2.98035 11.4132 3.11338 11.0584 3.37945Z" fill="#1E2124"/>
</svg>
