<svg preserveAspectRatio="none" width="100%" height="100%" overflow="visible" style="display: block;" viewBox="0 0 26.997 17.5891" fill="none" xmlns="http://www.w3.org/2000/svg">
<g id="Group">
<path id="Vector" d="M1.4167 12.4272C2.73525 14.8209 5.4407 15.6922 7.96771 16.2472C9.30132 16.5404 10.6662 16.6922 12.0207 16.7895C12.2408 16.9471 12.5293 17.0374 12.8873 17.0618L13.1573 16.9146C15.8917 16.9274 18.5844 16.6122 21.2354 15.968L21.8078 16.019C22.0569 15.7606 22.4624 15.895 22.503 16.2507C17.2022 17.8995 10.7577 18.0211 5.37465 16.6365C3.3783 16.1233 -1.26094 14.5938 0.324097 11.7412C0.563938 11.3091 0.869821 11.265 1.06679 11.0379C1.51171 11.1712 1.67856 12.0738 1.41439 12.4283L1.4167 12.4272Z" fill="#C2D2D7"/>
<path id="Vector_2" d="M17.638 0.144352C18.0841 0.080626 19.1872 -0.0734745 19.3888 0.385351C19.4884 0.612446 19.5266 0.745691 19.2602 0.839542C19.2242 1.05969 19.1339 1.04578 19.0284 0.839542L18.6403 1.11182C17.7759 1.17092 17.017 1.42814 16.3635 1.88233C16.8942 2.19748 17.4828 2.39329 18.127 2.46976C18.7063 2.44775 19.1999 2.5613 19.6077 2.80925C19.8337 2.49062 20.1952 2.48483 20.4188 2.80925C21.0213 2.85907 21.6145 2.72582 22.1985 2.41067C22.9284 1.94953 22.9748 2.39445 22.7697 3.05256L22.9678 2.92511C23.0872 2.94597 23.0872 3.02244 22.9678 3.15684C23.3108 3.31789 23.3595 4.52984 22.9678 4.66309L22.7778 6.5737C23.2888 6.38137 23.7372 6.17976 23.9793 5.71282C24.0535 5.57031 24.1972 5.47646 24.3582 5.47298C24.2875 5.16594 24.4671 5.17173 24.7058 5.24125C24.8842 5.05935 24.9236 5.33163 24.9225 5.54598C24.9202 6.14732 23.0883 7.29206 22.3885 7.32682C22.6133 7.51568 22.5136 8.17032 22.1568 8.13788C21.9656 8.04635 21.859 7.81693 21.837 7.44964C21.4454 7.0082 21.253 6.41265 21.2577 5.66184C20.8463 4.92147 20.5613 4.11968 20.4037 3.25533L18.6484 3.28777L18.4491 3.04098C18.1397 3.44187 17.0981 2.98884 16.6683 2.76174C16.1376 2.48135 15.8109 2.27743 15.6683 1.6506C15.6463 0.620557 16.7366 0.217347 17.638 0.144352Z" fill="#FADDD2"/>
<path id="Vector_3" d="M18.4487 3.04069L18.7163 3.14381C18.8461 3.34194 19.7371 6.80862 19.6467 6.9859C19.5135 7.24659 19.3014 7.19214 19.145 6.9801L18.8322 7.00907C18.086 6.46566 17.2286 6.1227 16.2611 5.9825L16.1325 5.70443C16.2125 4.6095 15.9124 3.53428 15.7849 2.46021C15.7536 2.19604 15.6737 1.88668 15.6691 1.64915C16.2125 2.47759 17.5078 2.93989 18.4498 3.03953L18.4487 3.04069Z" fill="#F2A8A9"/>
<path id="Vector_4" d="M24.3579 14.0482C24.4564 14.0853 24.4564 14.1247 24.3579 14.1641C24.9071 14.4271 24.4344 14.8535 23.9281 14.7318C23.5631 15.1304 23.2433 15.2497 22.9676 15.091C22.7254 14.9404 22.4543 14.9404 22.1565 15.091L22.0754 15.2161C22.679 15.4363 23.3337 15.5174 23.9767 15.5614L24.125 15.7862C23.5735 16.1998 23.1634 16.413 22.5029 16.2497C22.3129 16.2022 22.007 16.0898 21.8077 16.0179C21.2956 16.0573 20.5842 15.9704 20.4174 15.4386C20.1995 15.6518 19.6295 15.595 19.6063 15.2069C19.093 14.8071 19.0166 14.4595 19.3746 14.1641C20.8634 12.8189 22.5806 12.783 24.2652 13.8003L24.3568 14.0482H24.3579Z" fill="#E4E9E7"/>
<path id="Vector_5" d="M14.2778 5.12555C14.8189 5.26691 15.3635 5.43375 15.8999 5.58901L15.7493 5.80568C15.265 5.78714 14.834 6.06522 14.5397 6.43482L14.2778 6.40007C13.8283 6.51593 13.3671 6.35719 12.8979 5.92502C12.4078 5.69445 11.5874 5.62377 11.1275 5.87404L10.9189 5.70488C10.7103 5.80915 10.5562 5.95514 10.4566 6.14169C10.0719 6.1973 9.76257 6.28304 9.52853 6.40007C9.7197 6.70479 9.04421 7.00256 8.83334 6.74766C8.84145 6.83108 8.84145 6.90292 8.80553 6.92957C8.56569 7.11379 8.00953 7.47413 7.79055 7.32699C7.4024 7.2621 7.3352 5.89026 7.67469 5.70488C8.97006 5.32252 10.372 4.97724 11.73 5.00969C12.0104 5.01664 13.2188 5.29471 13.4459 5.09543C13.4981 5.05024 13.4575 4.90309 13.4679 4.89382C13.461 4.50683 14.3462 4.78027 14.279 5.12555H14.2778Z" fill="#A4DDC8"/>
<path id="Vector_6" d="M25.053 11.7296C24.98 11.2893 25.1109 10.3948 25.6509 10.3079C26.7875 10.1237 27.0262 11.2024 26.9068 12.0772C26.8906 13.1953 25.9857 13.7352 25.7482 14.7421C25.4087 14.8452 24.5281 14.4733 24.3578 14.1628C24.3659 14.1211 24.3439 14.0654 24.3578 14.0469L24.2744 13.8024C24.8074 13.3517 25.0426 12.6125 24.8618 11.9382L25.053 11.7296Z" fill="#B9D3E2"/>
<path id="Vector_7" d="M7.67367 5.70455L7.78953 7.32666C7.76636 7.99752 7.11867 7.73914 6.82322 7.27336C6.71083 7.69164 6.45361 7.86428 6.05156 7.79012L6.23463 7.97203C6.11065 8.47836 6.2045 8.84333 6.51502 9.06464C7.01787 8.61392 7.35156 9.45394 6.47331 9.54084L5.47455 9.80038C5.56724 9.92667 5.60548 10.068 5.5881 10.2244C5.87081 10.0425 6.7537 10.3206 6.74675 10.6879C7.0422 10.5176 7.57402 10.7319 7.67367 11.0355C7.77447 11.0679 7.77331 11.1073 7.67367 11.1514L7.55317 11.2858C6.78382 11.0876 6.05156 10.8107 5.35637 10.4562C4.91956 10.7215 4.50939 9.8838 4.66118 9.52926V9.41339L4.89175 9.22105C4.92999 8.28139 4.88016 6.57006 4.64727 8.67301L4.42829 8.83407C4.05289 8.66143 3.9011 8.31731 4.31242 8.02301C4.49781 6.69636 6.59033 6.02434 7.67251 5.70571L7.67367 5.70455Z" fill="#B4E3D6"/>
<path id="Vector_8" d="M22.5043 7.3289C23.4973 7.50617 24.4242 7.90243 25.2851 8.51999L25.6327 8.48755C25.6964 9.39014 25.9212 9.16652 26.3754 9.77249C26.9246 10.5036 27.1331 11.1745 26.9072 12.0794C26.9072 12.0631 26.7948 12.0527 26.7809 11.792C26.7693 11.5707 26.9002 11.4143 26.8435 11.1606C26.7415 10.7006 26.4924 10.9068 26.4681 10.8906C26.4055 10.85 26.4634 10.6704 26.1321 10.5998C24.9919 10.3565 25.518 10.9254 25.343 11.149C25.2758 11.2347 25.1009 11.2405 25.0661 11.2868C25.0047 11.368 25.2712 11.6669 25.0533 11.7306C24.7405 11.7793 24.6582 11.5221 24.8216 11.2672C24.5343 11.1049 24.7173 10.5279 25.0533 10.572L24.905 10.3008C25.2538 9.87446 25.299 9.52223 24.8216 9.18158C24.6212 9.4249 23.8553 9.17579 23.8947 8.83399C23.2192 8.76563 22.5634 8.72739 21.925 8.71812C21.8242 8.68568 21.8253 8.64629 21.925 8.60226C21.7686 8.31839 21.8323 8.18051 22.1567 8.1388C22.2506 7.83755 22.2494 7.56179 22.3885 7.32774C22.4244 7.28024 22.4626 7.2814 22.5043 7.32774V7.3289Z" fill="#9FC1D5"/>
<path id="Vector_9" d="M25.7483 14.7436C25.9453 14.9081 26.2628 15.1364 26.0797 15.4226C25.9221 15.6694 25.271 15.4202 25.0253 15.4573C24.7797 15.4944 24.4761 15.7447 24.1262 15.7864C23.6744 15.8385 21.9897 15.5917 21.8101 15.148C21.7788 14.7911 22.0418 15.0553 22.1565 15.0912C22.3697 14.9128 22.7718 14.8687 22.9676 15.0912C23.2248 15.0112 23.8088 14.5281 23.8609 14.5153C24.0069 14.4806 24.3174 14.5443 24.3591 14.513C24.3811 14.4956 24.3441 14.2384 24.3591 14.1654C24.8376 14.2048 25.3845 14.4377 25.7495 14.7447L25.7483 14.7436Z" fill="#F5F7F6"/>
<path id="Vector_10" d="M2.69132 9.64587C2.74925 9.86254 2.67394 10.1047 2.46422 10.3712C2.41904 10.874 2.26378 11.1718 1.99613 11.268C2.07723 12.1022 1.92197 12.4892 1.53267 12.4266C1.50023 12.5274 1.46083 12.5263 1.4168 12.4266C1.29167 11.9632 1.23258 11.4835 1.06921 11.0363C1.67402 10.3411 1.67402 9.80229 2.57545 9.06655C3.12929 8.81164 3.04355 9.30986 2.69132 9.64587Z" fill="#B2CFE2"/>
<path id="Vector_11" d="M21.3455 0.143281C22.2609 0.299698 22.8124 0.77938 22.9989 1.58464L22.8518 1.64953C22.9619 1.94498 22.912 1.99596 22.6201 1.88126L22.4567 1.90327C22.2365 1.63215 21.9979 1.36797 21.6931 1.18607C21.4904 1.45371 21.0119 1.27992 20.9979 0.954336C20.8311 0.894086 20.7129 0.724923 20.6434 0.446847C20.3352 0.355314 20.1834 0.215117 20.1869 0.0274156C20.6643 0.045954 20.8925 0.0633337 21.3455 0.143281Z" fill="#EEA6A8"/>
<path id="Vector_12" d="M20.1867 0.0274732C20.7649 0.157242 21.0152 0.29628 20.9978 0.954393C20.5517 1.21741 19.6654 1.156 19.2598 0.838528C19.2575 -0.0269834 18.2414 0.0935162 17.6377 0.143338C18.4024 -0.0466804 19.3861 -0.00381036 20.1867 0.0274732Z" fill="#F7C4BA"/>
<path id="Vector_13" d="M23.4311 2.34509L23.6362 2.42967C24.2502 2.27904 24.7612 2.48181 25.1691 3.04028C25.8434 3.6729 25.497 4.88253 25.0532 5.58931C24.8238 5.53253 24.8307 5.12353 24.9373 4.89412L24.9315 4.89064C24.8076 4.80722 24.7589 4.65312 24.8029 4.5106C25.1609 3.35543 24.3731 2.54669 23.2098 3.25115L22.9665 3.1573C22.9757 3.08199 22.9583 3.00088 22.9665 2.92557C22.6826 2.76684 22.8738 2.3335 23.1982 2.34625C23.226 2.36015 23.372 2.35204 23.4299 2.34625L23.4311 2.34509Z" fill="#D68F92"/>
<path id="Vector_14" d="M4.42932 8.83328C4.7549 8.84023 4.88699 9.18319 4.66105 9.4126V9.52847C4.5197 9.60378 4.40383 9.48792 4.31346 9.18087C4.19991 9.11599 4.08405 9.00012 3.96586 8.83328L3.96007 9.09629C3.7492 9.28168 2.9196 9.77294 2.69135 9.64433C2.77014 9.3987 2.89064 9.16349 2.57548 9.06501C3.10615 8.63167 3.68895 8.30146 4.31346 8.02222C4.26016 8.40574 4.35633 8.54246 4.42932 8.83328Z" fill="#89AEC3"/>
<path id="Vector_15" d="M25.0534 5.59034C25.058 5.65986 25.058 5.73054 25.0569 5.80121C25.0557 5.87189 24.9677 5.91129 24.9225 5.85915C24.9225 5.85915 24.9213 5.85683 24.9202 5.85683C24.8843 5.81859 24.8194 5.83366 24.7962 5.88C24.3907 6.70033 23.4174 7.28429 22.5044 7.32832H22.3885C22.6029 6.96913 23.0478 7.05024 23.3954 6.88687C23.8009 6.69685 24.5772 5.97385 24.7695 5.57875C24.8831 5.34586 24.7023 5.25897 24.7058 5.24159C24.488 4.98437 24.5911 4.8349 24.8785 4.8824C24.9121 4.8882 24.9375 4.91716 24.941 4.95076C24.9584 5.11761 25.043 5.43856 25.0534 5.58918V5.59034Z" fill="#E5A3A6"/>
<path id="Vector_16" d="M21.3455 0.143405C22.7625 0.392514 23.387 0.795725 23.1993 2.34484C22.7683 2.48504 22.8066 1.95669 22.8517 1.64965C22.8239 1.58592 22.8888 1.38779 22.8263 1.27425C22.5517 0.769076 21.8541 0.35312 21.2829 0.261587L21.3443 0.143405H21.3455Z" fill="#F2D3CD"/>
<path id="Vector_17" d="M25.169 3.04072C24.7334 2.63172 24.3788 2.62593 23.8342 2.57494C23.6141 2.55409 23.3673 2.71167 23.431 2.34553C24.1227 2.27485 25.0392 2.01879 25.169 3.04072Z" fill="#EDCBC2"/>
<path id="Vector_18" d="M1.53251 12.4256L1.87547 12.5229C3.06541 14.1809 4.98645 14.7603 6.85767 15.2121L6.89706 15.3628C8.60607 15.8204 10.3325 16.1924 12.0762 16.4809C12.2802 16.6732 12.5513 16.7717 12.8884 16.7752V17.0602C9.72533 16.9687 2.4015 16.0719 1.41665 12.4256H1.53251Z" fill="#87AABC"/>
<path id="Vector_19" d="M21.8092 16.0185C19.0169 16.9269 15.8213 17.1459 12.8876 17.0613C12.4821 16.6766 12.1252 17.2502 12.0766 16.482C13.3256 16.4437 14.5225 16.4044 15.6684 16.3661C15.249 16.1413 15.8607 15.7879 16.016 16.2502C16.3705 16.46 17.8235 16.285 18.565 16.0185L18.8025 15.7439C19.361 15.6547 19.8998 15.5539 20.4188 15.4392C20.8835 15.6142 21.3689 15.8609 21.8092 16.0185Z" fill="#86A4B2"/>
<path id="Vector_20" d="M15.8999 5.59048C15.9324 5.59974 16.0146 5.67158 16.1316 5.70634C17.2868 6.05046 18.1674 6.05162 19.1441 6.98086C19.4639 6.95189 19.4848 6.97506 19.26 7.21259C19.0236 8.69102 18.5173 8.47551 17.8789 7.29485L17.1744 6.86499C16.6183 6.82675 16.1212 6.98086 15.6844 7.32845L15.2047 7.21259C15.1711 7.31339 15.1329 7.31223 15.0889 7.21259C14.827 7.38754 14.5872 7.25893 14.3705 6.83023C13.8873 6.83834 13.7773 6.23237 14.2778 6.40153C14.6335 5.88477 15.2534 5.4862 15.8999 5.59048Z" fill="#8FBEC2"/>
<path id="Vector_21" d="M18.4491 3.04199C19.1061 3.11151 19.8453 2.96668 20.5103 3.06748C20.6598 3.15206 20.9923 4.61544 21.1071 4.96071C21.1766 5.16927 21.3735 5.29556 21.4593 5.5354C21.6157 5.97106 21.5612 6.63728 21.6968 7.00805C21.7432 7.13318 21.9506 7.14129 22.0537 7.37186C22.1568 7.60244 22.1637 7.89326 22.1568 8.14005C22.1023 8.315 22.049 8.46447 21.9251 8.60351C21.6296 8.76688 20.3887 9.27784 20.1685 9.18979C20.0643 9.14807 20.0029 9.04611 19.9554 8.9511C19.9264 8.62089 19.8882 8.27329 19.8395 7.90832C19.5533 7.98942 19.0562 7.4773 19.2602 7.21313C19.2103 7.15983 19.1918 7.02659 19.1443 6.9814L19.4838 6.93274L18.4491 3.04199Z" fill="#FBCCC1"/>
<path id="Vector_22" d="M20.8822 1.65001C21.2912 1.19814 22.378 2.0173 21.8091 2.46107C21.5449 2.79592 20.8613 2.89324 20.4187 2.80866C20.1499 2.8075 19.8765 2.82141 19.6077 2.80866C19.1002 2.3846 18.5417 2.04279 17.9323 1.78442L17.8697 1.53415C17.9218 1.17149 18.6089 1.14832 18.7839 1.39279C19.5393 1.30705 20.238 1.39279 20.8822 1.65001Z" fill="#F7B74F"/>
<path id="Vector_23" d="M17.8697 1.53503C18.4884 1.64858 19.3794 2.18851 19.6076 2.80954C18.9982 2.78058 16.4689 2.73539 16.3634 1.88262C16.6983 1.5049 17.4595 1.17817 17.8697 1.53503Z" fill="#F3A045"/>
<path id="Vector_24" d="M19.2598 0.840234C19.846 0.828648 20.4219 0.847186 20.9977 0.956099C21.2526 1.0036 21.4577 1.09166 21.6929 1.18783C22.0266 1.40218 22.4565 1.73703 22.504 2.11475C22.4993 2.37081 22.0394 2.53882 21.8088 2.46234C21.8308 1.89576 21.3476 1.7602 20.8819 1.65129C20.1774 1.38943 19.4162 1.30369 18.597 1.39175C18.4742 1.12642 18.6179 0.942195 19.028 0.840234C19.1045 0.8356 19.1833 0.841393 19.2598 0.840234Z" fill="#FAECA7"/>
<path id="Vector_25" d="M23.1996 2.34529C23.1787 2.51562 22.9771 2.83424 22.9678 2.92462C22.6608 3.87703 22.6423 4.91402 22.3885 5.87918C22.3468 6.03907 22.392 6.23952 22.1579 6.2847C22.1464 5.74825 22.7998 2.54574 22.6191 2.34645C22.0154 2.53415 21.4709 2.9223 20.8104 2.93273C20.5822 2.93621 20.4397 2.80991 20.4188 2.80991C20.8626 2.7821 21.399 2.62221 21.8092 2.46232C22.0757 2.3592 22.2831 2.32096 22.5044 2.11472C22.2784 1.95135 22.3422 1.85171 22.6203 1.88299C22.6817 1.79493 22.7778 1.72889 22.852 1.65126C22.8601 1.67096 22.991 1.69529 23.0211 1.77292C23.1011 1.97453 23.0293 2.26535 23.1996 2.34645V2.34529Z" fill="#FAEDE6"/>
<path id="Vector_26" d="M19.0281 0.839339L18.6805 1.30164C19.3699 1.3897 20.3664 1.05021 20.882 1.65039C20.1045 1.46849 18.6365 1.42214 17.8695 1.53453C17.3481 1.611 16.8603 1.70949 16.3632 1.88212C16.2763 1.17419 18.5125 0.868305 19.0281 0.839339Z" fill="#FAE282"/>
<path id="Vector_27" d="M25.0532 11.7297C25.2235 12.4608 25.1945 12.7899 24.8701 13.4573C24.7589 13.6855 24.3928 14.0018 24.358 14.047C23.6315 13.9764 22.8448 13.2279 22.1114 13.2441C21.583 13.2557 19.896 13.8941 19.3758 14.1629C19.304 14.1073 19.2495 14.0609 19.2576 14.047C19.6353 13.3009 20.5402 12.4296 21.2296 12.0773L21.4197 11.9348C22.5968 12.2511 23.6141 12.1063 24.4739 11.498C24.3209 11.1747 24.5735 11.0021 24.8215 11.2663C24.9338 11.3833 25.0173 11.5756 25.0532 11.7297Z" fill="#9FB9C7"/>
<path id="Vector_28" d="M19.6077 15.207C19.8325 15.2892 20.1604 15.3414 20.4188 15.4387C20.4721 15.7353 20.3331 15.6774 20.1303 15.7179C19.6309 15.8176 19.0632 15.9392 18.565 16.018C17.8315 16.2683 16.893 16.3807 16.1318 16.2497C15.8201 16.2208 15.841 16.1246 16.1318 16.018C16.2141 15.7527 16.3508 15.755 16.5953 15.7863C16.5315 15.5685 16.9927 15.3136 17.1746 15.4387L17.4318 15.4306C17.5963 15.806 17.9347 15.6924 18.4491 15.0911C18.317 14.9289 18.4885 14.7794 18.6808 14.8594C19.0667 14.455 19.3679 14.8269 19.6077 15.207Z" fill="#73919F"/>
<path id="Vector_29" d="M19.3757 14.1644C19.2123 14.5896 19.5796 14.7738 19.6074 15.2072C19.2992 15.0948 19.0443 14.8295 18.6805 14.8596C18.5959 14.5908 19.1022 13.9848 19.3757 14.1644Z" fill="#C8D8E1"/>
<path id="Vector_30" d="M22.1565 15.0898C22.3755 14.653 22.8737 14.5383 22.9676 15.0898C22.5366 15.2254 22.5458 15.2115 22.1565 15.0898Z" fill="#539794"/>
<path id="Vector_31" d="M10.9175 5.70531C11.1284 5.63579 11.6555 5.37394 11.7923 5.35888C11.8537 5.35192 11.8328 5.54542 11.9 5.56859C11.9591 5.58829 12.3079 5.49328 12.462 5.51761C12.9903 5.60335 13.4468 6.03321 13.8431 6.26146C13.9358 6.31476 14.2173 6.07724 14.2787 6.4005C14.2289 6.4735 14.1397 6.52332 14.164 6.63223C14.8743 6.47234 14.4792 6.84427 14.5093 6.86396C15.0898 6.73767 14.5661 7.19186 15.0909 7.21272C15.2462 7.48384 14.7827 7.92297 14.5116 7.79204C14.4514 8.03304 14.4398 8.28679 14.4792 8.55096C14.2023 8.57297 14.069 8.71664 14.0783 8.98082L13.8164 9.06656C14.1072 9.37244 13.6959 9.86371 13.2753 9.86255C12.4979 9.86139 11.7424 8.99704 11.7888 8.20336L11.5003 8.02377C11.3995 8.19757 11.2442 8.11994 11.0368 7.79204C10.6707 7.78161 10.6753 7.58233 10.8398 7.27644C10.0114 6.96361 10.1725 5.99498 10.921 5.70647L10.9175 5.70531Z" fill="#FAFAF6"/>
<path id="Vector_32" d="M9.52719 6.40162C9.95474 5.96365 10.4008 6.49083 10.4391 6.98094C10.8063 7.12461 10.8608 7.50002 10.6453 7.77577L10.8017 8.02488C10.8944 8.07471 10.9709 7.99823 11.0334 7.79315C11.0891 7.80706 11.3555 7.96579 11.4969 8.02488C11.9615 8.15465 11.9847 8.76758 11.7194 9.1059C12.4331 9.31562 12.6671 9.61223 12.4238 9.99459C12.4968 11.3908 11.6047 10.2703 11.2652 9.76286L10.6279 9.64699C10.3892 9.3191 10.0949 9.02248 9.74734 8.75715C9.46695 8.75715 9.20046 8.62854 8.94787 8.37248C8.73468 8.60305 8.65589 8.5625 8.71614 8.25661C8.52612 8.10947 8.33263 7.9936 8.13681 7.90902C7.38717 7.76535 8.40099 7.08985 8.64083 6.95082L8.832 6.75037C9.03709 6.62755 9.44493 6.45491 9.52719 6.40277V6.40162Z" fill="#E4E1D0"/>
<path id="Vector_33" d="M8.83222 6.74845C9.01645 7.42395 8.61672 6.99293 8.25406 7.33009L8.48347 7.55835C7.8439 7.56183 8.15557 7.78544 8.13703 7.9071C8.28882 8.06352 8.22393 8.09944 8.02117 8.02297C8.03391 8.36825 7.65388 8.28946 7.44184 8.13883C7.46733 8.52119 7.39086 8.67645 7.21011 8.60229C7.03052 8.46673 6.83819 8.27324 6.63079 8.02297C6.37125 8.22573 6.12562 8.09365 6.05146 7.79124C6.11751 7.6719 6.32027 7.70202 6.40485 7.59543C6.52303 7.44596 6.5323 7.09837 6.80343 7.00799C7.41404 7.24436 7.05022 7.79124 7.78944 7.32778C8.14399 7.10648 8.51244 6.94079 8.83222 6.74845Z" fill="#9BD4C0"/>
<path id="Vector_34" d="M9.52744 6.40034C9.53787 6.39454 9.51007 6.24508 9.5622 6.20684C9.78351 6.04 10.0315 6.07128 10.1659 5.70631C10.3837 6.30185 10.4439 5.73295 10.5355 5.70399C10.656 5.66575 10.8344 5.73295 10.9178 5.70515C10.7012 6.07823 10.4057 6.45711 10.4463 6.91246C10.503 7.12218 11.5852 6.95996 11.1889 7.34C10.9688 7.55088 10.8657 7.29713 11.0337 7.79188C11.0059 7.93671 10.9283 8.01434 10.802 8.02361C10.7521 7.99348 10.4984 8.06416 10.4602 8.01897C10.3848 7.92975 10.5529 7.55667 10.5366 7.40141C10.4961 6.9982 10.0164 6.33893 9.52744 6.4015V6.40034Z" fill="#EEEFE1"/>
<path id="Vector_35" d="M7.20986 8.60133C7.43811 8.66506 7.55398 8.89679 7.55746 9.29652C7.74168 9.18761 7.74168 8.99412 7.55746 8.7172C7.37091 8.67201 7.33152 8.47967 7.44159 8.13787C7.65826 7.92005 7.82858 8.07067 8.02092 8.02201C8.12172 8.05445 8.12056 8.09384 8.02092 8.13787C8.30478 8.28386 8.4948 8.58511 8.58865 9.04394C8.80764 9.30116 8.88874 9.53984 8.83197 9.75998C9.02083 9.95811 8.81227 10.1887 8.60024 9.99171C8.562 10.0972 8.52377 10.0972 8.48438 9.99171C8.42297 10.2802 8.05567 10.1794 7.90505 9.99171C7.9317 10.3231 7.74632 10.3694 7.55746 10.1076C7.40567 10.0311 7.36744 9.91524 7.44159 9.75998C7.29097 9.6615 6.93063 9.64875 6.86227 9.75998C7.19712 10.264 6.48223 10.1887 6.11378 10.1458C5.93766 10.2026 5.76271 10.2292 5.58775 10.2234C5.38846 10.1041 5.18222 9.97781 5.01074 9.81792C5.00495 9.61399 6.57376 9.20383 6.86227 9.29536C6.91093 9.19109 6.54943 9.07174 6.51467 9.06479C6.01413 8.91649 6.1833 8.28386 6.63054 8.02201C6.76494 8.09732 6.87964 8.06372 7.04649 8.24563C7.17742 8.38814 7.1554 8.50516 7.20986 8.60133Z" fill="#6EA168"/>
<path id="Vector_36" d="M4.42932 8.83439C4.35401 8.14847 4.50116 7.46603 5.12335 7.09642V9.64429L4.66105 9.41372C4.54866 9.23181 4.48146 9.04179 4.42932 8.83439Z" fill="#C1E9E0"/>
<path id="Vector_37" d="M6.6309 8.02293L6.97734 8.71812L6.39917 8.37168L6.51388 9.06687C6.45479 9.05528 6.29721 9.16651 6.22306 9.14682C5.95657 9.0773 5.92413 8.02061 6.05042 7.79235C6.28563 7.79699 6.43973 7.91749 6.62975 8.02408L6.6309 8.02293Z" fill="#649F67"/>
<path id="Vector_38" d="M21.9248 8.60217V8.71803C21.8136 8.82695 21.6595 8.90458 21.4613 8.94976C21.1033 9.06447 20.4035 9.42713 20.7696 9.76545L20.5344 9.87668C20.7916 10.1362 20.8299 10.3297 20.6503 10.456C20.3038 11.0434 20.3791 11.4594 20.875 11.7039L20.9979 11.9623C21.1381 12.1731 20.5286 12.6783 20.3027 12.5416C19.5855 12.932 19.1255 12.9205 18.9239 12.508C18.5427 12.603 18.2681 12.5752 18.1012 12.4257L18.0943 12.0932C18.9424 11.1964 19.5623 10.149 19.9551 8.94976C20.6329 8.99959 21.2852 8.78524 21.9248 8.60217Z" fill="#8FB0BE"/>
<path id="Vector_39" d="M25.0532 10.5732C24.9964 10.7412 24.8944 11.156 24.8214 11.2684C24.8098 11.2858 24.5943 11.3553 24.4738 11.5002C24.3591 11.6821 24.0463 11.9184 23.8945 11.7319C23.6964 11.8118 23.5423 11.8118 23.431 11.7319C23.0556 11.8582 22.8737 11.5917 22.8876 10.9313C22.5852 10.9266 22.3767 10.9069 22.5041 10.5732C23.3372 10.6057 24.1309 10.4713 24.8875 10.1712C25.0752 10.1874 25.1308 10.3218 25.0532 10.5732Z" fill="#F9C9C0"/>
<path id="Vector_40" d="M23.8944 8.83397C24.0022 8.85135 24.6742 9.1132 24.8214 9.18156C25.1411 9.36579 25.3972 9.94859 24.9372 9.99262C24.5873 9.63459 24.1238 9.40286 23.5468 9.29743C23.3985 9.60679 22.5214 9.46311 22.3882 9.18156C22.0696 9.27773 21.9989 9.01356 22.2723 8.83397C22.7821 8.70767 23.3221 8.70767 23.8944 8.83397Z" fill="#EEABA9"/>
<path id="Vector_41" d="M25.0532 10.5725C24.7183 10.1067 24.3175 10.5366 23.9432 10.5632C23.4867 10.5957 22.963 10.591 22.5042 10.5725C22.4045 10.9409 21.729 10.8367 21.6931 10.4566C21.7928 10.1994 22.028 10.1114 22.1763 10.3361C23.0209 10.2828 23.8633 10.2064 24.7056 10.109C24.6732 9.98853 24.7508 9.94914 24.9373 9.99317C25.1946 9.69771 25.0254 9.43586 24.8215 9.18211C25.5653 9.52623 25.2652 9.94914 25.0532 10.5725Z" fill="#EFD9D2"/>
<path id="Vector_42" d="M23.8943 8.83451C23.5119 8.77426 22.687 8.80555 22.2722 8.83451C22.1575 9.14735 21.6488 9.25974 21.4611 8.95038C21.6083 8.87275 21.752 8.7453 21.9246 8.71865C22.439 8.64102 23.4123 8.68157 23.8943 8.83451Z" fill="#E7D3D4"/>
<path id="Vector_43" d="M4.89245 10.9197C5.33506 11.0391 5.92249 11.7342 5.93524 12.1942C5.84718 12.4109 5.67107 12.6009 5.4069 12.7654C5.41501 13.0308 5.35939 13.2277 5.24005 13.3529C4.26562 13.2301 3.04788 12.8755 2.22756 12.3101C1.90545 12.273 1.82782 11.9254 1.99583 11.2673C2.17774 10.6231 2.13139 10.1874 2.69102 9.6452C2.92275 9.42042 3.6527 8.98361 3.96553 8.83415L4.11616 8.9419C4.23087 9.72631 4.48924 10.3856 4.89245 10.9197Z" fill="#618297"/>
<path id="Vector_44" d="M2.22772 12.3096C4.1731 13.5285 6.29458 14.5331 8.59219 15.3221L8.83203 15.5539C10.2201 15.7902 11.6232 15.9791 13.0391 16.1204L13.3508 16.3649C14.0205 16.0243 15.0157 15.9999 15.6681 16.3649C15.6681 16.38 15.8639 16.4819 15.726 16.4808C14.5129 16.4402 13.287 16.5341 12.0762 16.4808C10.2259 16.3974 8.39753 16.0741 6.63059 15.5515L6.74762 15.3221C4.81151 15.1263 2.58806 14.1183 1.53369 12.4243C1.8164 12.2193 1.89056 11.6446 1.99715 11.2657C1.95544 11.6272 2.09216 11.9817 2.22888 12.3085L2.22772 12.3096Z" fill="#90B6CF"/>
<path id="Vector_45" d="M22.62 1.8825C22.5737 1.94738 22.547 2.07367 22.5042 2.11423C22.2041 2.08874 22.028 1.44105 21.6931 1.18731C22.0986 1.35299 22.3906 1.44337 22.62 1.8825Z" fill="#FAE57D"/>
<path id="Vector_46" d="M4.66077 9.52971C4.94348 9.99433 4.81719 10.036 5.35596 10.4566C5.52976 10.3964 5.88546 10.6258 5.81942 10.8042C6.75561 11.7636 7.67905 12.7033 8.86899 13.3695L8.94777 13.7008C8.31168 13.7136 7.2098 13.4344 6.86221 12.8898C6.54589 13.1343 5.79277 12.5654 5.93528 12.1946C5.53323 11.8285 5.16247 11.4009 4.8925 10.9201C4.53216 10.5354 4.1556 9.64326 4.31317 9.18211C4.37342 9.31188 4.61095 9.4486 4.66077 9.52971Z" fill="#6A9CB2"/>
<path id="Vector_47" d="M4.31337 9.18216C4.47326 9.87272 4.52772 10.2678 4.89269 10.9201C4.80463 11.1762 4.62852 10.7487 4.59955 10.6919C4.28672 10.079 4.09554 9.51238 3.96577 8.83457C4.03529 8.80097 4.16274 8.68974 4.19634 8.7187C4.21836 8.87744 4.27745 9.0269 4.31337 9.18216Z" fill="#4B6575"/>
<path id="Vector_48" d="M14.046 14.3956C13.9974 14.3029 14.002 14.2253 14.0901 14.1986C15.375 13.8082 16.2 13.5892 14.7968 14.9228L15.4573 15.1916C15.7713 15.1383 15.9578 15.2206 16.0157 15.4384C16.171 15.6226 16.2092 15.8149 16.1316 16.0177C16.1525 16.0675 16.1177 16.1799 16.1316 16.2494C16.12 16.3549 16.0795 16.3491 16.0157 16.2494C15.9219 16.2575 15.8234 16.239 15.7284 16.2494C15.6681 16.2703 15.6658 16.3097 15.6681 16.3641C14.8976 16.3491 14.1213 16.3838 13.3508 16.3641L13.2338 16.1127C13.739 15.5925 14.009 15.019 14.046 14.3944V14.3956Z" fill="#749AAF"/>
<path id="Vector_49" d="M18.5649 16.017C18.4838 16.3044 18.2474 16.2152 18.0458 16.2511C17.4931 16.3484 16.9265 16.3866 16.3646 16.4249C16.1572 16.4388 15.9649 16.6369 16.0158 16.2488C16.0541 16.2453 16.0935 16.2499 16.1317 16.2488C16.981 16.2152 17.7225 16.1503 18.5649 16.017Z" fill="#99B9C9"/>
<path id="Vector_50" d="M17.1743 6.86444C18.1082 6.96872 18.2205 7.49011 18.7396 8.1378C18.9795 7.93503 18.808 7.16917 19.2599 7.21204C19.4568 7.42639 19.7036 7.61525 19.8392 7.90723C19.9759 8.446 19.94 9.11338 19.6677 9.60697C19.5263 9.86303 19.0826 10.2547 18.9123 9.87693C18.7292 9.79351 18.6064 9.5919 18.5427 9.27327C18.2854 9.04734 18.1 8.82372 17.9853 8.60242C17.8811 8.47496 17.8417 8.24323 17.8695 7.90723C17.5705 7.68592 17.4153 7.4148 17.406 7.09617C17.2519 7.05098 17.1754 6.97335 17.1743 6.86444Z" fill="#79B2B9"/>
<path id="Vector_51" d="M15.6678 7.44294C15.7547 7.78359 15.7941 8.09179 15.7837 8.36986C15.9888 8.67111 15.6864 9.14152 15.3202 9.18092C15.2785 9.37789 15.1986 9.34081 15.0885 9.18092C14.8301 9.33502 14.6042 8.78466 14.7409 8.60159C14.3945 8.76149 14.3169 8.49036 14.5092 7.79054C14.5787 7.64687 14.9761 7.24713 15.0885 7.21121C15.121 7.20079 15.165 7.21932 15.2044 7.21121C15.603 7.17877 15.7571 7.25524 15.6678 7.44294Z" fill="#E1F3C2"/>
<path id="Vector_52" d="M17.1742 6.86432C17.2518 6.9408 17.3271 7.02074 17.4059 7.09606L17.2275 7.28839C16.6574 7.13893 16.048 7.11112 16.1187 7.86192L15.9008 8.02297C15.7375 7.9801 15.6598 7.78661 15.6691 7.44365C15.5463 7.3104 15.3389 7.32894 15.2056 7.21192C15.7548 7.10648 16.0213 6.92342 16.3075 6.86548C16.5022 6.82725 16.961 6.83999 17.1753 6.86432H17.1742Z" fill="#8CBD8C"/>
<path id="Vector_53" d="M19.9554 8.95018C19.8812 10.4275 19.0632 11.3996 18.1016 12.4261C18.185 12.7448 17.2928 13.4249 17.0588 13.1213C16.8734 13.6717 15.5826 14.0876 15.0891 13.8165L15.0369 13.5512C15.2072 13.4851 17.7435 11.3185 17.5222 11.2883C17.0321 11.549 16.6081 11.5803 16.2477 11.3822C16.0496 11.2501 16.1272 11.1725 16.4794 11.1505C16.4597 10.7855 16.9614 10.6615 17.1746 10.9187C17.0831 10.621 17.1793 10.5966 17.4064 10.8029C17.5199 10.5538 17.6358 10.4773 17.754 10.5711C17.7864 10.468 17.8258 10.4703 17.8698 10.5711C17.9695 10.2224 18.5778 9.69635 18.9126 9.87594C18.9508 9.84466 19.1061 9.85045 19.2023 9.76355C19.8778 9.15062 19.9114 8.83431 19.8395 7.90623C20.0064 8.26426 19.9763 8.54465 19.9554 8.94902V8.95018Z" fill="#CFEFE8"/>
<path id="Vector_54" d="M22.5041 11.8463C22.9722 11.9146 23.4356 11.8752 23.8945 11.7304C24.0856 11.6481 24.2676 11.5485 24.4738 11.4987C24.4541 11.5218 24.5827 11.6875 24.1424 11.9227C23.6465 12.1869 21.5691 12.4395 21.2296 12.078C21.1531 12.0143 21.0755 11.976 20.9978 11.9621C20.2204 11.8996 19.823 10.7861 20.6502 10.4559L20.926 10.5335C21.1682 11.1708 21.7649 11.45 22.3952 11.5833L22.5041 11.8451V11.8463Z" fill="#758897"/>
<path id="Vector_55" d="M21.2297 12.0788C20.7512 12.5411 19.5995 13.5816 19.3759 14.1644C18.7931 14.4657 19.0005 14.4854 18.6807 14.8596C18.61 14.9419 18.5173 15.0079 18.4489 15.0913C17.9866 15.6915 17.6379 15.8016 17.4015 15.4216C18.0156 14.9639 18.5961 14.468 19.1441 13.9327C19.2484 13.4912 19.4419 13.2213 19.7235 13.1216C19.4616 12.7972 19.954 12.5296 20.3028 12.5423C20.516 12.3511 20.8717 12.27 20.998 11.963C21.0339 11.9653 21.1799 11.8147 21.2181 11.8575C21.261 11.9062 21.2077 12.0557 21.2297 12.0788Z" fill="#AF8077"/>
<path id="Vector_56" d="M19.1439 13.3521C19.7232 13.0682 19.2667 13.695 19.0281 13.9314C18.6295 14.4922 18.0525 14.9579 17.4778 15.3461C17.516 15.5848 17.3816 15.5593 17.1742 15.4376C17.0305 15.5396 16.793 15.6369 16.5949 15.7852C16.3852 15.9451 16.2079 15.8953 16.1256 15.63L18.7963 13.6996C18.6063 13.4227 18.8601 13.1655 19.1439 13.3521Z" fill="#AF8077"/>
<path id="Vector_57" d="M18.7965 13.6994C18.004 14.4178 17.2057 15.1628 16.2486 15.6715L16.5951 15.785C16.478 15.8731 16.4398 16.1002 16.1316 16.0167C16.0632 15.8557 15.7608 15.7363 16.0157 15.4374C16.0227 15.2092 16.7387 14.6727 16.9751 14.5649L17.2903 14.6263C17.3378 14.149 18.3539 13.455 18.7965 13.6994Z" fill="#905B53"/>
<path id="Vector_58" d="M19.144 13.9324C18.6678 14.4527 18.1591 15.1363 17.523 15.4398L17.8683 15.4954L18.4488 15.0911C18.0653 15.5615 17.6493 16.4119 17.1743 15.4387C17.574 15.156 18.7547 14.2511 19.0281 13.9324C19.0629 13.8629 19.1011 13.8641 19.144 13.9324Z" fill="#82524C"/>
<path id="Vector_59" d="M13.8143 9.06501C13.9742 8.76492 14.2824 8.98854 14.1619 9.29674C14.17 9.39754 14.0936 9.47517 13.9302 9.52847C14.2256 9.64549 14.0982 10.1437 13.8143 10.2237C13.8236 10.3917 13.7854 10.4299 13.6985 10.3395C13.651 10.4426 13.5745 10.4959 13.4644 10.4936L12.6557 9.99193C12.6174 10.0916 12.578 10.0916 12.5398 9.99193C12.5108 10.095 12.4726 10.0927 12.4239 9.99193C12.388 9.98614 12.0914 9.88649 12.0775 9.87491C11.9443 9.77063 12.5433 9.75093 12.3081 9.52963C12.2478 9.47285 11.8632 9.52731 11.7878 9.49834C11.7334 9.47749 11.6477 9.18551 11.3812 9.29558C11.5341 8.79852 12.001 8.53203 11.497 8.02222C11.5642 8.05003 11.738 7.98515 11.8481 8.0732C11.9779 8.17632 12.0207 8.73248 12.2084 8.99085C12.4969 9.38595 13.1458 9.85405 13.6324 9.5192C13.8781 9.35004 13.7633 9.23185 13.8143 9.06501Z" fill="#F0ECDC"/>
<path id="Vector_60" d="M14.5095 7.79024L14.5999 7.85745C14.3438 8.44141 14.6369 8.39622 14.7412 8.6013C14.9173 9.198 14.725 9.42973 14.1619 9.29649L13.8143 9.06476C13.9348 8.66966 13.8734 8.25718 14.3936 8.48544C14.3473 8.1726 14.3878 8.04051 14.5095 7.79024Z" fill="#D5E0B6"/>
<path id="Vector_61" d="M11.9602 6.40122C11.7227 6.57502 11.3322 6.12315 11.4979 5.93892C11.6509 5.76976 11.9961 6.37458 11.9602 6.40122Z" fill="#9CCA8D"/>
<path id="Vector_62" d="M13.8145 8.02222V8.2528C13.5677 8.26206 13.2838 8.30146 13.1205 8.079L13.8145 8.02222Z" fill="#BDDCB2"/>
<path id="Vector_63" d="M11.2652 9.7608C11.3417 9.80831 11.5329 9.78861 11.6452 9.86856C11.9442 10.0794 12.1921 11.0318 12.4239 9.99253C12.4609 9.99833 12.5015 9.99137 12.5397 9.99253C13.2071 11.5138 12.2744 11.303 11.132 10.8928C10.6071 11.2624 10.0139 10.7769 9.75896 10.2243C9.61413 10.0505 9.67902 9.98558 9.87483 10.1084C9.84123 9.80483 9.91886 9.7272 10.1066 9.87667C10.2433 9.5395 10.6291 9.50126 11.2652 9.7608Z" fill="#F78E6F"/>
<path id="Vector_64" d="M8.71636 8.25464C8.78588 8.26623 8.88552 8.36587 8.94809 8.37051C9.20763 8.37051 9.4046 8.57907 9.539 8.9927C10.0592 9.04716 10.6837 9.47818 10.1067 9.87675C10.0905 9.88139 10.0106 10.0366 9.87501 10.1085C9.59462 10.1247 9.43936 10.0471 9.41155 9.87675C9.13231 9.96134 8.93882 9.9231 8.83222 9.76089C8.34559 9.3403 8.21814 8.70536 8.02117 8.13878C8.19149 7.91516 8.58775 8.0148 8.71636 8.25464Z" fill="#A1BE81"/>
<path id="Vector_65" d="M8.94803 8.37099C9.13457 8.38373 9.49259 7.94461 9.41149 8.60388C9.95258 8.3119 10.0001 8.8275 10.3743 8.98276C10.5076 9.03721 10.6756 8.93525 10.6848 8.95147C10.7219 9.01404 10.5516 9.17741 10.6721 9.36163C10.7764 9.51921 11.0892 9.65361 11.2653 9.76253C10.9548 9.85406 10.3546 9.80656 10.1067 9.87839C10.2307 9.08008 9.46247 9.32687 9.42655 9.28516C9.34544 9.18668 9.12762 8.54015 8.94803 8.37215V8.37099Z" fill="#E1D8BD"/>
<path id="Vector_66" d="M11.0335 7.79035C11.1157 8.03251 11.4935 8.58171 10.9755 8.36968C10.8342 8.31175 10.8191 8.03251 10.8017 8.02208C10.7681 7.80542 10.8017 7.73242 11.0335 7.79035Z" fill="#91BF85"/>
<path id="Vector_67" d="M8.71636 8.25374C8.48579 8.21435 8.26564 8.10543 8.02117 8.13788V8.02201C8.02928 8.01969 8.13588 7.91426 8.13703 7.90615C8.43712 7.87486 8.7291 7.8934 8.71636 8.25374Z" fill="#D98669"/>
<path id="Vector_68" d="M7.55737 8.71754C7.81575 9.13002 7.81575 9.32351 7.55737 9.29686C7.39168 9.13349 7.33375 8.82182 7.20977 8.60167C7.34649 8.4719 7.30594 8.27493 7.4415 8.13821C7.50523 8.32707 7.5284 8.52057 7.55737 8.71754Z" fill="#D5A189"/>
<path id="Vector_69" d="M7.44188 9.76185C7.45462 9.76417 7.50328 9.91827 7.65854 9.89278L7.55774 10.1094C7.64464 10.4733 7.08385 10.8255 6.74669 10.6888C6.33652 10.5358 6.00863 10.4779 5.58804 10.2253C5.82903 9.72941 6.40604 9.98895 6.69802 9.94608C6.81736 9.9287 6.84633 9.76533 6.86255 9.76185C6.94945 9.65294 7.31211 9.66337 7.44188 9.76185Z" fill="#4C8655"/>
<path id="Vector_70" d="M7.90499 11.0368C7.90152 11.1434 7.74626 11.1284 7.67326 11.0368C7.17389 11.0194 7.0615 10.8074 6.74634 10.6892C7.00588 10.5235 7.28975 10.2466 7.5574 10.1099C7.62228 10.0775 7.80998 10.0242 7.90499 9.99404C8.40553 10.0751 8.15295 10.746 7.90499 11.0368Z" fill="#DDAC4A"/>
<path id="Vector_71" d="M8.48451 9.99162C8.62238 10.3149 8.41383 11.2267 7.90518 11.0344C8.00367 10.6636 8.00367 10.3624 7.90518 9.99162C8.37791 9.83983 8.18789 9.94991 8.48451 9.99162Z" fill="#EBC461"/>
<path id="Vector_72" d="M8.71651 10.457C8.74085 10.7768 8.54272 10.669 8.63888 10.6018C8.78835 10.4964 9.01197 11.341 8.25305 11.1522C8.20555 11.4789 7.7699 11.4337 7.67373 11.1522V11.0363C7.74325 11.0386 7.85448 11.0514 7.90546 11.0363C8.26116 10.9332 8.41411 10.3191 8.48478 9.99351C8.51723 9.99814 8.56821 9.9993 8.60065 9.99351C8.96447 9.92515 8.85323 10.2206 8.71651 10.457Z" fill="#F0D885"/>
<path id="Vector_73" d="M9.41111 9.87758C9.41343 10.1325 9.06931 10.4024 8.83179 10.4569C8.79935 10.5577 8.75995 10.5565 8.71592 10.4569C8.75879 10.4059 8.61165 10.1012 8.60006 9.99344C8.76575 9.96216 8.76691 9.81501 8.83179 9.76171C9.03687 9.59139 9.18865 9.81385 9.41111 9.87758Z" fill="#C9E4A6"/>
<path id="Vector_74" d="M7.55774 8.71816L8.13707 9.52805C8.07102 9.58251 7.62031 9.35889 7.55774 9.29748C7.70836 9.05185 7.58439 8.90122 7.55774 8.71816Z" fill="#D76553"/>
<path id="Vector_75" d="M6.86255 9.75983L6.57289 9.64396H7.50213L7.44188 9.75983C7.34455 9.73781 6.96799 9.74013 6.86255 9.75983Z" fill="#92C588"/>
<path id="Vector_76" d="M18.1013 12.4269C18.1349 12.413 18.7686 12.245 18.8046 12.2485C19.2483 12.2809 19.2275 12.6332 19.2611 12.6587C19.5021 12.8348 19.5855 12.3273 19.6087 12.3122C19.6747 12.2694 19.7604 12.4617 19.8439 12.4825C20.0165 12.5266 20.2216 12.3945 20.3015 12.544C20.1625 12.6679 19.852 12.9819 19.7222 13.1233C19.5264 13.2461 19.3329 13.3237 19.1429 13.355C19.012 13.4697 18.9077 13.6018 18.7953 13.7026C18.2472 13.9274 17.7815 14.3109 17.289 14.6295C16.7688 14.699 16.8337 13.4674 17.0573 13.1233C17.3817 12.9622 17.7768 12.5636 18.1001 12.4281L18.1013 12.4269Z" fill="#88B7C7"/>
<path id="Vector_77" d="M21.114 10.2251C21.3608 10.02 21.6771 10.1301 21.6934 10.4569C22.0433 10.5484 22.1221 10.5577 22.5044 10.5727C22.5832 10.7859 23.0015 10.6295 23.0768 10.6967C23.1011 10.7187 23.1579 11.2111 23.1845 11.3479C23.2263 11.5622 23.0837 11.7997 23.4325 11.7314C23.2274 11.9249 22.9181 11.9631 22.5056 11.8472C21.6215 11.6561 20.9599 11.3849 20.6517 10.4569C20.595 10.2842 20.5347 10.0571 20.5359 9.87753C20.8209 9.76862 21.143 9.86942 21.1152 10.2251H21.114Z" fill="#EEA7A9"/>
<path id="Vector_78" d="M21.4612 8.95014C21.4311 9.16796 21.5087 9.32206 21.6929 9.4136C22.2618 9.20156 22.5573 9.56538 21.9247 9.76119C21.9768 10.0648 21.3801 10.2919 21.1136 10.2247C20.9213 10.1204 20.7069 10.0694 20.5343 9.87706C20.5389 9.17028 20.8599 9.08686 21.4612 8.95014Z" fill="#F0E6DB"/>
<path id="Vector_79" d="M23.8944 11.7313C23.2003 12.0314 23.2131 12.0013 22.504 11.8472C22.8608 11.941 23.1621 11.7788 23.4309 11.7313C23.5688 11.707 23.7472 11.7475 23.8944 11.7313Z" fill="#816270"/>
<path id="Vector_80" d="M23.5466 9.29858C24.1283 9.40402 24.5917 9.63575 24.937 9.99377C24.8455 10.0981 24.7725 10.0726 24.7053 10.1096C24.1503 10.244 23.7633 10.1664 23.5466 9.87791C23.2917 9.99725 22.8793 10.0575 22.7356 9.76204C22.3382 10.0123 22.0682 10.0123 21.9245 9.76204C22.1586 9.42719 22.0705 9.37274 21.6928 9.41445C21.5723 9.07496 22.213 8.91275 22.388 9.18272C22.8318 9.13521 23.1365 9.23138 23.5466 9.29858Z" fill="#D7D8BF"/>
<path id="Vector_81" d="M22.2724 8.83415L22.3882 9.18174C22.2469 9.1968 21.8622 9.36597 21.6931 9.41347C21.3617 9.50616 21.0628 9.48299 20.7673 9.76107C20.5576 9.48878 21.2771 9.04734 21.4613 8.95001C21.6699 8.90251 22.0546 8.84921 22.2724 8.83415Z" fill="#F7C3BB"/>
<path id="Vector_82" d="M24.9372 9.99329L23.5468 9.2981C24.0439 9.37921 24.5711 9.3711 24.936 9.82065V9.99329H24.9372Z" fill="#C99789"/>
<path id="Vector_83" d="M22.7358 9.76074C22.8389 9.98436 23.1089 10.0226 23.5469 9.8766C23.9095 9.94612 24.3139 9.87429 24.7055 10.1083C23.723 10.6552 22.7706 10.4096 21.693 10.4559C21.4138 10.3829 21.357 10.3563 21.1137 10.2242C21.2168 9.9971 21.6919 9.79897 21.9248 9.76074C22.1576 9.7225 22.4821 9.76769 22.7358 9.76074Z" fill="#AFD4AA"/>
<path id="Vector_84" d="M5.93551 12.1936C6.19968 12.4335 6.55655 12.7069 6.86243 12.8888L6.98177 13.1136C7.65495 13.5006 8.41734 13.6941 9.17973 13.8157C9.34658 13.6477 9.4439 13.6987 9.41146 13.9316L10.3975 14.2769C10.4658 14.4124 10.423 14.5225 10.2909 14.5955L7.79051 14.395C7.42206 14.5306 6.96555 14.3696 6.74772 14.0475C6.20779 13.8482 5.70494 13.6164 5.24148 13.3523C4.92401 12.6884 5.33996 12.3825 5.93667 12.1936H5.93551Z" fill="#4D7188"/>
<path id="Vector_85" d="M5.24001 13.3524C5.73591 13.554 6.30017 13.7591 6.74625 14.0476C6.67094 14.2642 5.36746 13.6745 5.4335 13.7L7.33832 14.4253L7.44144 14.6269C7.98833 14.8424 8.51899 15.0637 9.03227 15.292L8.94769 15.438C9.09484 15.5434 9.0566 15.5828 8.83182 15.5538C7.68823 15.1448 6.50409 14.6779 5.39411 14.1831C4.70008 13.8749 3.0687 13.2261 2.53803 12.8681C2.31673 12.7186 2.31905 12.5286 2.22752 12.3096C3.25292 12.4672 4.27601 12.9596 5.24001 13.3524Z" fill="#824E48"/>
<path id="Vector_86" d="M11.9604 14.1644C12.5896 14.3602 13.2546 14.3915 13.9545 14.2571L14.046 14.3961C14.7018 14.8364 13.6046 15.8954 13.3508 16.3658C11.9199 16.3287 10.1425 16.0229 8.83208 15.5548L8.94795 15.4389C9.30481 15.3532 9.72888 15.3926 10.2225 15.5548L10.2167 15.4007C9.44501 15.0762 8.65365 14.8016 7.84259 14.578L7.78814 14.3961C8.58992 14.1064 9.52148 14.3486 10.3372 14.395L9.41025 13.9327C10.1228 13.7102 11.3035 13.8133 11.9593 14.1644H11.9604Z" fill="#668FA6"/>
<path id="Vector_87" d="M10.4541 11.9622C11.1504 12.3782 12.0426 13.3445 11.9603 14.1637C11.0693 14.1532 10.2896 14.1022 9.4113 13.9319C9.33251 13.8983 9.25952 13.8473 9.17957 13.8161C9.01968 13.8369 8.94321 13.7987 8.94784 13.7002C7.74169 12.8845 6.46949 12.187 5.81949 10.8036L5.97938 10.7364C7.32921 11.2786 8.75087 11.6042 10.2432 11.7131L10.4541 11.9611V11.9622Z" fill="#8DBDC2"/>
<path id="Vector_88" d="M7.67336 11.153C7.846 11.1842 8.0812 11.1205 8.25268 11.153C8.67907 10.9293 8.9108 10.9676 8.94787 11.2688L9.28156 11.0846C10.5225 11.2804 11.768 11.4391 13.0275 11.3951L13.3507 11.6164C13.5211 11.4484 13.7528 11.3708 14.0459 11.3847C14.1421 11.1101 14.5928 11.3279 14.7411 11.5006L14.7875 11.3418L15.5522 11.2688C15.6124 10.9444 15.9032 10.7961 16.1315 11.0371C16.3157 10.8946 16.347 10.9293 16.3632 11.153C16.3922 11.0545 16.4304 11.0568 16.4791 11.153L16.2474 11.3847C16.1802 11.4623 16.1106 11.5353 16.0319 11.5967C15.4664 12.0324 11.3463 12.453 10.709 12.1332C10.6186 12.088 10.5352 12.0277 10.4541 11.964C9.11124 11.8783 7.0025 11.4461 5.81952 10.8054C5.72683 10.7544 5.46845 10.5447 5.35606 10.4578C5.42558 10.226 5.70365 10.4578 5.82068 10.5145C6.54599 10.8645 6.87157 11.0058 7.67336 11.153Z" fill="#BBDED9"/>
<path id="Vector_89" d="M8.9483 13.7006C9.01434 13.7272 9.08734 13.7794 9.18003 13.8165C8.72352 13.9949 7.63439 13.6264 7.20916 13.4121C7.08287 13.3484 6.54757 13.0993 6.86273 12.8895C7.62164 13.3426 8.24152 13.4167 8.9483 13.7006Z" fill="#3A566A"/>
<path id="Vector_90" d="M17.2898 14.6268C16.9469 14.8493 16.407 15.3591 16.0153 15.4379C15.9852 15.4437 15.4325 15.4205 15.4024 15.4147C15.3618 15.4066 14.6643 15.1111 14.6377 15.0787C14.2901 14.6604 15.3804 14.3453 15.319 13.9316C15.2506 13.8656 14.2136 14.358 14.0456 14.3939C13.7478 14.4588 12.7584 14.5538 12.4757 14.5179C12.4409 14.5133 11.9797 14.1877 11.9601 14.1622L12.23 13.9316C13.0874 13.9397 13.9402 13.8517 14.7733 13.6512L15.0872 13.8146C15.8404 13.6292 16.3606 13.4647 17.057 13.1194C17.2806 13.5284 17.0106 14.2387 17.2887 14.6257L17.2898 14.6268Z" fill="#79ADBD"/>
<path id="Vector_91" d="M17.4061 7.09646C17.5081 7.19379 17.7862 7.41046 17.8093 7.44985C17.9182 7.62712 17.8371 7.7847 17.8696 7.90752C17.9854 8.28524 17.9078 8.51697 17.6379 8.60271C17.2034 8.91438 15.813 8.96536 16.0157 8.25511C15.8489 8.36982 15.7655 8.16937 15.8999 8.02338C15.7632 6.90644 16.5174 6.84851 17.4061 7.09646Z" fill="#E3F7BE"/>
<path id="Vector_92" d="M17.9856 8.60182C18.5661 8.69799 18.9542 9.30512 18.9125 9.87633C18.4456 10.2494 18.434 10.2842 17.8697 10.5715C17.8651 10.217 17.7666 9.97018 17.5754 9.82999L17.7539 9.6446C17.5279 9.60057 17.105 9.18462 17.1745 8.94941C17.1792 8.79879 17.3333 8.68292 17.638 8.60182C17.8257 8.32954 17.9416 8.32954 17.9856 8.60182Z" fill="#EFF9CB"/>
<path id="Vector_93" d="M17.9853 8.60142C17.8891 8.5852 17.7443 8.59679 17.6377 8.60142C17.7744 8.40677 17.8741 8.15071 17.8694 7.90623C17.9262 8.1229 18.0734 8.31292 17.9853 8.60142Z" fill="#79AD69"/>
<path id="Vector_94" d="M17.1745 8.94909C17.2869 8.98616 17.6959 9.49597 17.7538 9.64428C17.8523 10.1645 17.2915 9.92004 17.0713 9.56781C17.2602 9.96175 17.2938 10.4113 17.1745 10.9188C17.003 10.979 16.616 11.1273 16.4793 11.1505C16.4445 11.1563 16.3993 11.1528 16.3634 11.1505C16.0946 10.8667 16.7098 9.9154 16.3518 10.774C16.3437 10.7948 16.3008 10.8006 16.2475 10.8029C16.1294 10.2514 15.8594 9.86442 15.4365 9.64428C15.3287 9.6744 15.2905 9.63617 15.3206 9.52841C15.0414 9.50871 14.9649 9.43108 15.0889 9.29668C14.9881 9.26424 14.9893 9.22485 15.0889 9.18082C15.1619 9.1924 15.2581 9.16344 15.3206 9.18082C15.8096 8.70925 16.6983 8.60844 17.1745 8.94909Z" fill="#BFD390"/>
<path id="Vector_95" d="M17.6379 8.60214C17.5035 8.79331 17.3992 8.87905 17.1744 8.94973C17.1339 8.93699 16.3981 8.9451 16.3182 8.95668C15.8767 9.01925 15.7365 9.29733 15.3206 9.18146C15.5141 8.94278 15.5593 8.59287 15.784 8.37041C15.6832 8.068 15.7945 8.06568 16.0158 8.25454C16.6032 8.86863 17.0052 8.62647 17.6379 8.60214Z" fill="#6FAA63"/>
<path id="Vector_96" d="M14.7408 8.60156C14.8335 8.78346 14.7987 9.07776 15.0884 9.18088V9.29675C15.0768 9.35931 15.0594 9.41029 15.0258 9.42767C14.8069 9.53427 13.9912 9.83204 13.9298 9.52848C13.9923 9.39871 14.0329 9.35931 14.1615 9.29675C14.3133 9.22259 14.567 9.20405 14.7408 9.17972C14.8683 9.043 14.1592 8.53667 14.7408 8.60156Z" fill="#89B674"/>
<path id="Vector_97" d="M15.8997 8.02371C15.9356 8.09207 15.9739 8.21257 16.0156 8.25544C15.9704 8.34118 15.8116 8.3435 15.7838 8.37131C15.6541 8.08049 15.5486 7.75491 15.668 7.44439C15.8047 7.59269 15.7838 7.80357 15.8997 8.02371Z" fill="#558952"/>
<path id="Vector_98" d="M16.2476 11.3844C16.5755 11.3021 16.908 11.2535 17.2382 11.1585C17.3726 11.1191 17.9867 10.7101 17.8685 11.0924C17.58 12.0263 15.8003 13.1537 15.0889 13.8176C13.9233 14.1038 13.1667 14.1791 11.9605 14.1652C11.7508 13.9033 11.5029 13.3101 11.2457 12.9683C10.9884 12.6265 10.5644 12.3936 10.4543 11.9637C12.4611 12.0923 14.3184 11.871 16.2476 11.3844Z" fill="#A8E0C9"/>
<path id="Vector_99" d="M17.7535 9.64414C17.8845 9.98131 17.9053 10.1852 17.8694 10.5711C17.8393 10.5861 17.7848 10.556 17.7535 10.5711C17.6354 10.5212 17.5195 10.5977 17.4059 10.8028C17.3272 10.8341 17.2542 10.8908 17.1742 10.9187C16.742 10.7286 17.1059 10.4088 17.0143 9.9871C16.9552 9.71366 16.7154 9.56535 16.7119 9.2977C16.8718 9.28612 17.0224 9.28496 17.1731 9.35679C17.3237 9.42863 17.5542 9.94539 17.7547 9.64414H17.7535Z" fill="#D4EDAC"/>
<path id="Vector_100" d="M17.7539 10.5722C17.6612 10.6174 17.572 10.7379 17.4063 10.8039L17.6392 9.99404H17.7527L17.7539 10.5722Z" fill="#9DCC7E"/>
<path id="Vector_101" d="M19.7237 13.1206C19.5267 13.3361 19.3611 13.6953 19.1444 13.9317H19.0285C19.098 13.8506 19.1421 13.496 19.3761 13.4103L19.1444 13.3523C19.2776 13.2353 19.6287 12.846 19.7237 13.1206Z" fill="#758897"/>
<path id="Vector_102" d="M9.75917 10.2256C10.3327 10.0704 10.2864 11.2186 10.5123 10.5732L10.9178 10.9208C10.9503 10.5489 10.8309 9.72972 11.3824 9.87919C11.2492 10.1271 11.0858 10.3786 11.16 10.6798L12.5399 11.0367V9.99389C12.5793 9.99505 12.6187 9.99042 12.657 9.99389C13.0625 9.99042 13.6082 11.2916 13.3521 11.616C11.6165 11.6878 10.5818 11.5117 8.94927 11.2684C8.79517 11.0529 8.79865 10.9046 9.06514 10.8049C8.85658 10.4006 9.41969 9.96145 9.76033 10.2256H9.75917Z" fill="#F86656"/>
<path id="Vector_103" d="M13.6988 10.3392C13.8436 10.6451 13.9954 10.9499 14.1541 11.2523L14.0464 11.382C14.0359 11.389 14.0927 11.5825 13.9699 11.6161C13.8135 11.6589 13.5412 11.6057 13.3512 11.6138L12.656 9.99165C12.6699 9.99281 12.7371 9.85609 12.9132 9.88969C13.1693 9.93835 13.4265 10.2651 13.6988 10.3392Z" fill="#F69674"/>
<path id="Vector_104" d="M15.0889 9.29809C15.1167 9.3062 15.2627 9.47652 15.3206 9.52982L15.1909 9.77429C13.9743 9.9701 14.2327 11.0963 15.3774 11.0465L15.5524 11.2666C15.2905 11.3524 15.0229 11.4798 14.7413 11.4984C14.1678 11.2527 13.7217 10.8924 13.8144 10.2238C13.7947 10.0477 13.855 9.68508 13.9303 9.52866C14.3254 9.53214 14.673 9.1857 15.0889 9.29693V9.29809Z" fill="#D2EEA9"/>
<path id="Vector_105" d="M13.8142 10.2239C13.8269 10.3398 14.0285 10.8137 14.1062 10.9168C14.3356 11.2203 14.7527 11.1311 14.7411 11.4984C14.4723 11.517 14.0737 11.3617 14.0459 11.3826C13.8849 11.0605 13.696 10.7117 13.6983 10.3398C13.6983 10.2853 13.7528 10.2262 13.8142 10.2239Z" fill="#9FCE80"/>
<path id="Vector_106" d="M9.41129 9.8759C9.64766 9.94311 9.9547 9.70906 9.87475 10.1076C9.83304 10.1296 9.8006 10.1945 9.75889 10.2235C9.52484 10.3869 9.24444 10.4402 9.0637 10.8028C8.77519 10.9523 8.63152 10.7043 8.83197 10.4552C8.86093 10.1586 9.1112 9.90603 9.41129 9.8759Z" fill="#719F66"/>
<path id="Vector_107" d="M8.71608 10.4558H8.83194C8.87481 10.5682 9.04282 10.7061 9.06367 10.8034C9.09032 10.9308 9.09959 11.2043 8.94781 11.2668C8.69522 11.2298 8.50289 11.1985 8.25262 11.151C8.74852 11.2425 8.47856 10.5033 8.50868 10.4697C8.54576 10.428 8.70102 10.4743 8.71608 10.4558Z" fill="#F5EBC2"/>
<path id="Vector_108" d="M23.5468 9.87808C23.2097 10.3311 22.6431 10.1098 22.1576 10.2257L22.7358 9.76222C23.3568 9.746 23.2456 9.82015 23.5468 9.87808Z" fill="#73A680"/>
<path id="Vector_109" d="M6.74617 14.049C7.09956 14.1637 7.43788 14.2738 7.78895 14.3966C8.41347 14.6144 9.98923 15.0744 10.4539 15.3815C10.5025 15.4139 10.608 15.5217 10.5697 15.5541C10.4573 15.5668 10.3334 15.539 10.2221 15.5541C9.26044 15.3664 8.33352 15.0582 7.44136 14.6272C6.43797 14.2761 5.46934 13.7478 4.43003 13.4674C4.40338 13.2519 4.66639 13.3758 4.78226 13.4036C5.37433 13.545 6.12977 13.8486 6.74617 14.0479V14.049Z" fill="#6E413D"/>
<path id="Vector_110" d="M10.2225 15.5542C9.67331 15.6318 9.47866 15.6619 8.948 15.4383C8.92946 15.4302 8.87152 15.2865 8.74871 15.2356C8.31306 15.056 7.79746 14.9459 7.44175 14.6273C8.35013 14.9447 9.36163 15.0861 10.2225 15.5542Z" fill="#657C8E"/>
<path id="Vector_111" d="M15.3207 9.52797C15.3601 9.56389 15.4018 9.60444 15.4366 9.64384C15.9661 9.7794 16.1897 10.4387 16.1317 10.9184C16.2337 10.952 16.2326 10.9913 16.1317 11.0342C15.9545 11.1594 15.7529 11.1999 15.5524 11.2659C13.8202 11.4432 13.6511 9.6253 15.3207 9.52797Z" fill="#E5F9C5"/>
<path id="Vector_112" d="M16.3635 11.151C16.2233 11.1428 16.2129 11.1602 16.1318 11.0351C16.1144 11.0084 16.148 10.9517 16.1318 10.9192C16.104 10.8138 16.1422 10.7755 16.2476 10.8034C16.3705 10.6377 16.3855 10.5461 16.3647 10.3399H16.4782L16.3635 11.151Z" fill="#9DC77A"/>
<path id="Vector_113" d="M16.2476 10.804C16.2152 10.8481 16.1735 10.8851 16.1317 10.9199C15.9081 10.475 15.7865 10.0451 15.4366 9.64539C16.1445 9.54575 16.3148 10.2201 16.2476 10.804Z" fill="#D2EEA9"/>
</g>
</svg>
