<svg width="24" height="25" viewBox="0 0 24 25" fill="none" xmlns="http://www.w3.org/2000/svg">
<path d="M12 2.63574C17.5228 2.63574 22 7.11289 22 12.6357C22 18.1586 17.5228 22.6357 12 22.6357C6.47715 22.6357 2 18.1586 2 12.6357C2 7.11289 6.47715 2.63574 12 2.63574ZM12 4.13574C7.30558 4.13574 3.5 7.94132 3.5 12.6357C3.5 14.8053 4.31366 16.7842 5.65137 18.2861C7.00785 16.221 9.34458 14.8574 12 14.8574C14.6554 14.8574 16.9905 16.2219 18.3467 18.2871C19.6852 16.785 20.5 14.806 20.5 12.6357C20.5 7.94132 16.6944 4.13574 12 4.13574ZM12 7.37598C13.8512 7.37598 15.3516 8.87634 15.3516 10.7275C15.3515 12.5787 13.8512 14.0791 12 14.0791C10.1489 14.0791 8.64852 12.5786 8.64844 10.7275C8.64844 8.87637 10.1488 7.37603 12 7.37598Z" fill="#CDD1D5"/>
</svg>
