<svg width="24" height="25" viewBox="0 0 24 25" fill="none" xmlns="http://www.w3.org/2000/svg">
<path d="M3.74988 5.89111C3.74988 4.78655 4.64531 3.89111 5.74988 3.89111H18.25C19.3546 3.89111 20.25 4.78654 20.25 5.89111V18.2946C20.25 19.3991 19.3546 20.2946 18.25 20.2946H5.74988C4.64531 20.2946 3.74988 19.3991 3.74988 18.2946V5.89111Z" fill="#FFE4AA"/>
<path d="M3.74988 7.85498H20.25V18.2945C20.25 19.3991 19.3546 20.2945 18.25 20.2945H5.74988C4.64531 20.2945 3.74988 19.3991 3.74988 18.2945V7.85498Z" fill="#E7EAED"/>
<rect x="6.0863" y="9.48242" width="11.4405" height="1.25684" rx="0.628422" fill="#D9D9D9"/>
<rect x="6.0863" y="11.6416" width="11.4405" height="1.25684" rx="0.628422" fill="#D9D9D9"/>
<rect x="6.0863" y="13.7424" width="6.67095" height="1.25684" rx="0.628422" fill="#D9D9D9"/>
</svg>
