<svg width="24" height="24" viewBox="0 0 24 24" fill="none" xmlns="http://www.w3.org/2000/svg">
<path d="M15.851 4.52776C15.5944 4.11584 15.9545 3.57098 16.4031 3.75608C19.853 5.1794 22.2816 8.57332 22.2817 12.5371C22.2817 17.7837 18.0283 22.037 12.7817 22.0371C10.4874 22.0371 8.38443 21.2227 6.74317 19.8681C6.36884 19.5592 6.67957 18.9848 7.16386 19.0168C7.3681 19.0302 7.57412 19.0371 7.78174 19.0371C13.0283 19.037 17.2817 14.7837 17.2817 9.53711C17.2817 7.69768 16.757 5.98181 15.851 4.52776Z" fill="#FFD05F"/>
<path d="M10.1086 1.8788C10.2811 1.60277 10.6671 1.56244 10.8928 1.79687L11.7151 2.65071C11.7803 2.71838 11.8632 2.76632 11.9544 2.78904L13.1046 3.07568C13.4204 3.15438 13.5781 3.50902 13.4249 3.79618L12.8669 4.84208C12.8227 4.92497 12.8027 5.01864 12.8093 5.11236L12.8921 6.29488C12.9149 6.61955 12.6263 6.87906 12.3059 6.8221L11.1387 6.61466C11.0462 6.59822 10.951 6.60817 10.8639 6.64338L9.76482 7.08758C9.46307 7.20953 9.12709 7.01527 9.08224 6.69292L8.91886 5.51881C8.90591 5.42576 8.86701 5.33824 8.80661 5.26628L8.04453 4.35829C7.8353 4.109 7.91623 3.72943 8.20894 3.58715L9.2751 3.06895C9.35959 3.02789 9.43081 2.96384 9.48058 2.88417L10.1086 1.8788Z" fill="#B9EDF3"/>
<path d="M3.55091 13.3897C3.76533 13.1449 4.1528 13.1669 4.33811 13.4345L4.82246 14.1338C4.87595 14.2111 4.95012 14.2717 5.03646 14.3087L5.81832 14.6439C6.11745 14.7722 6.21625 15.1475 6.01904 15.4064L5.50359 16.0832C5.44667 16.1579 5.41195 16.2472 5.40342 16.3408L5.32618 17.1879C5.29663 17.5121 4.97022 17.722 4.66304 17.6145L3.86011 17.3334C3.77144 17.3023 3.67582 17.2969 3.5842 17.3177L2.7546 17.506C2.43722 17.5781 2.13668 17.3325 2.14404 17.0071L2.16325 16.1567C2.16538 16.0627 2.14099 15.9701 2.0929 15.8894L1.65742 15.1586C1.49082 14.879 1.63149 14.5173 1.94322 14.4238L2.75802 14.1792C2.848 14.1522 2.92856 14.1004 2.99045 14.0297L3.55091 13.3897Z" fill="#B9EDF3"/>
<path d="M10.7236 11.7722C10.8953 11.4957 11.2812 11.4545 11.5076 11.6884L11.7228 11.9107C11.7881 11.9783 11.8711 12.026 11.9623 12.0485L12.2628 12.1226C12.5788 12.2005 12.7373 12.5548 12.5848 12.8423L12.4398 13.1157C12.3958 13.1987 12.376 13.2924 12.3828 13.3861L12.4052 13.6947C12.4287 14.0193 12.1408 14.2796 11.8202 14.2234L11.5154 14.17C11.4228 14.1537 11.3276 14.1639 11.2406 14.1993L10.954 14.316C10.6525 14.4387 10.3161 14.2452 10.2704 13.923L10.227 13.6166C10.2139 13.5236 10.1748 13.4361 10.1142 13.3643L9.91468 13.1278C9.70485 12.879 9.78486 12.4992 10.0772 12.3563L10.3552 12.2203C10.4396 12.179 10.5107 12.1148 10.5603 12.035L10.7236 11.7722Z" fill="#B9EDF3"/>
<path d="M5.72357 7.77219C5.89534 7.49575 6.28124 7.45449 6.50757 7.68837L6.72276 7.91074C6.78809 7.97825 6.87112 8.02599 6.96233 8.04849L7.26278 8.12259C7.57877 8.20052 7.73726 8.55479 7.58477 8.84231L7.43978 9.11569C7.39576 9.19868 7.37601 9.2924 7.38281 9.3861L7.40517 9.69474C7.4287 10.0193 7.14075 10.2796 6.82017 10.2234L6.51537 10.17C6.42284 10.1537 6.32761 10.1639 6.24059 10.1993L5.95397 10.316C5.65252 10.4387 5.31607 10.2452 5.27043 9.92298L5.22704 9.61659C5.21387 9.52357 5.17476 9.43615 5.11419 9.36433L4.91468 9.12779C4.70485 8.879 4.78486 8.49924 5.07723 8.35626L5.35522 8.22031C5.43961 8.17904 5.51067 8.11483 5.56025 8.03503L5.72357 7.77219Z" fill="#B9EDF3"/>
</svg>
