<svg width="320" height="198" viewBox="0 0 320 198" fill="none" xmlns="http://www.w3.org/2000/svg">
<g clip-path="url(#clip0_1357_5652)">
<path d="M0 24C0 10.7452 10.7452 0 24 0H296C309.255 0 320 10.7452 320 24V174C320 187.255 309.255 198 296 198H24C10.7452 198 0 187.255 0 174V24Z" fill="#F4F5F6"/>
<path d="M-50 50C-50 44.4772 -45.5228 40 -40 40H58C63.5229 40 68 44.4772 68 50V148C68 153.523 63.5229 158 58 158H-40C-45.5228 158 -50 153.523 -50 148V50Z" fill="#DCF6F9"/>
<path d="M-40 40.25H58C63.3848 40.25 67.75 44.6152 67.75 50V148C67.75 153.385 63.3848 157.75 58 157.75H-40C-45.3848 157.75 -49.75 153.385 -49.75 148V50C-49.75 44.6152 -45.3848 40.25 -40 40.25Z" stroke="black" stroke-opacity="0.1" stroke-width="0.5"/>
<path d="M41.6894 74.577L39.1614 95.0655C39.1614 95.0655 38.6199 97.6239 42.5899 97.6239L39.3713 122.627C39.3713 122.627 38.0481 125.757 41.5982 126.356C45.1484 126.956 44.908 122.715 44.908 122.715L47.436 76.3505C47.436 76.3505 47.5273 73.853 45.0906 73.0103C41.7807 71.8665 41.6894 74.574 41.6894 74.574V74.577Z" fill="#73DCE7"/>
<path d="M8.56655 128.125C24.652 128.125 37.6919 115.085 37.6919 99C37.6919 82.9147 24.652 69.875 8.56655 69.875C-7.5189 69.875 -20.5587 82.9147 -20.5587 99C-20.5587 115.085 -7.5189 128.125 8.56655 128.125Z" fill="#B9EDF3"/>
<path d="M8.56633 118.413C19.2888 118.413 27.9813 109.721 27.9813 98.9986C27.9813 88.2762 19.2888 79.584 8.56633 79.584C-2.15619 79.584 -10.8484 88.2762 -10.8484 98.9986C-10.8484 109.721 -2.15619 118.413 8.56633 118.413Z" fill="#73DCE7"/>
<path d="M10.3718 114.402C19.7872 114.402 27.4199 106.77 27.4199 97.3545C27.4199 87.9392 19.7872 80.3066 10.3718 80.3066C0.956417 80.3066 -6.67627 87.9392 -6.67627 97.3545C-6.67627 106.77 0.956417 114.402 10.3718 114.402Z" fill="#B9EDF3"/>
<path d="M75 33C75 19.7452 85.7452 9 99 9H231C244.255 9 255 19.7452 255 33V165C255 178.255 244.255 189 231 189H99C85.7452 189 75 178.255 75 165V33Z" fill="#DCF6F9"/>
<path d="M99 9.25H231C244.117 9.25 254.75 19.8832 254.75 33V165C254.75 178.117 244.117 188.75 231 188.75H99C85.8832 188.75 75.25 178.117 75.25 165V33C75.25 19.8832 85.8832 9.25 99 9.25Z" stroke="black" stroke-opacity="0.1" stroke-width="0.5"/>
<path d="M129.088 88.2196C126.434 89.4954 121.621 89.8238 117.164 89.739C111.356 89.6286 105.51 89.7778 101.227 93.701C100.555 94.316 99.8395 95.006 99.0797 95.7789C95.3462 99.5767 96.6889 106.046 98.8903 111.241C100.526 115.1 103.572 118.115 106.967 120.573C111.486 123.844 116.755 125.927 122.289 126.63L143.913 129.38C150.221 130.182 156.628 129.636 162.71 127.778C167.52 126.308 172.534 125.674 177.563 125.785C198.498 126.25 229.822 125.671 230.794 120.404C231.489 116.64 231.489 110.634 231.279 105.452C231.073 100.378 230.188 95.3662 228.934 90.4453C226.619 81.3605 223.645 70.1236 222.662 67.947C220.917 64.0819 215.69 67.278 212.231 69.7319C210.17 71.1941 207.74 72.7521 205.253 74.0174C198.725 77.3389 181.888 71.7267 177.307 69.8941C172.725 68.0616 135.043 85.3563 129.088 88.2196Z" fill="#F2F2F2"/>
<path d="M136.196 123.038C104.476 123.083 98.0089 105.678 98.7316 96.8333C98.7393 96.7393 98.7614 96.6483 98.7971 96.5611C100.665 91.9923 105.035 91.3959 107.659 90.9873C107.814 90.9633 107.894 91.2085 107.754 91.2784C107.746 91.2823 107.739 91.2871 107.732 91.2924C106.411 92.3172 105.921 92.7083 105.902 93.8316C105.312 101.049 119.326 108.187 126.602 110.936C126.738 110.987 126.879 111.006 127.024 110.995L139.194 110.053C139.716 110.012 140.12 109.579 140.09 109.056C139.844 104.851 137.984 97.4152 131.93 95.206C125.787 92.9644 125.517 90.1584 126.23 88.8249C126.315 88.6662 126.454 88.5571 126.619 88.4849C139.297 82.9378 168.638 70.1626 170.436 68.3191C171.175 67.5605 172.153 67.4222 172.894 67.6255C173.825 67.8813 175.272 69.9243 176.237 69.9783L176.532 69.9948C177.404 70.0435 177.799 71.109 177.169 71.7143L175.189 73.6165C174.782 74.0079 174.779 74.6583 175.181 75.0548C183.198 82.9548 197.172 97.8102 199.305 96.1222C201.504 94.3813 219.704 89.5041 228.347 87.3041C229.225 90.2534 230.512 96.2211 230.409 98.4774C230.306 100.734 229.623 103.18 229.255 103.853C224.617 112.844 185.561 115.192 183.442 114.963C181.323 114.734 167.922 117.483 160.535 120.289C154.625 122.534 141.847 123.057 136.196 123.038Z" fill="#73DCE7"/>
<path d="M189.506 75.4486C185.258 73.2977 181.771 72.9146 179.305 73.1981C177.505 73.4049 177.396 75.4303 178.911 76.4221C185.955 81.6334 197.637 84.0386 203.536 83.8096C209.434 83.5805 217.624 74.3606 220.373 70.581C222.31 67.9176 221.812 67.4284 221.157 67.5323C220.974 67.5613 220.808 67.6479 220.655 67.7519C219.681 68.4133 217.33 70.4168 214.016 74.3606C209.492 79.7437 198.439 79.9728 189.506 75.4486Z" fill="#B1B8BE"/>
<path d="M168.759 77.475C148.929 89.2746 147.296 83.8178 149.173 78.8608C149.426 78.1917 149.969 77.6825 150.623 77.3926L166.727 70.2547C168.555 69.4445 170.642 70.6162 170.937 72.5937C171.037 73.2671 171.134 73.8844 171.212 74.3204C171.466 75.729 169.682 77.0104 168.759 77.475Z" fill="#D9D9D9"/>
<circle cx="169.763" cy="77.1116" r="2.305" fill="#F2F2F2"/>
<circle cx="169.763" cy="77.1114" r="1.47463" fill="#D9D9D9"/>
<path d="M171.638 69.5999C170.646 67.1756 169.044 66.9396 169.777 77.1102" stroke="#F2F2F2" stroke-width="2" stroke-linecap="round"/>
<circle cx="159.226" cy="81.2034" r="2.305" fill="#F2F2F2"/>
<circle cx="159.225" cy="81.2051" r="1.47463" fill="#D9D9D9"/>
<path d="M160.701 74.1886C159.708 71.7643 158.45 71.0328 159.183 81.2035" stroke="#F2F2F2" stroke-width="2" stroke-linecap="round"/>
<circle cx="147.751" cy="86.846" r="2.305" fill="#F2F2F2"/>
<circle cx="147.751" cy="86.8496" r="1.47463" fill="#D9D9D9"/>
<path d="M149.648 79.4006C148.655 76.9763 146.968 76.675 147.701 86.8456" stroke="#F2F2F2" stroke-width="2" stroke-linecap="round"/>
<path d="M169.067 124.3C138.555 134.104 111.227 123.193 101.378 116.512C120.734 140.678 165.459 130.485 167.578 128.538C169.273 126.98 170.957 127.392 171.587 127.793C186.591 134.551 217.057 128.71 224.731 125.961C230.87 123.762 231.527 119.012 231.088 116.913C214.686 128.503 182.907 126.667 169.067 124.3Z" fill="#CDD1D5"/>
<path d="M174.166 84.0961C169.881 86.5278 159.695 92.1835 153.596 94.5357C153.218 94.6814 152.873 94.8918 152.582 95.1732C148.093 99.5126 141.359 107.789 147.299 109.296C152.757 110.681 174.006 104.444 187.293 100.065C189.403 99.3698 190.01 96.7001 188.433 95.1349L177.795 84.5742C176.832 83.6179 175.347 83.4262 174.166 84.0961Z" fill="#F2F2F2"/>
<path d="M262 50C262 44.4772 266.477 40 272 40H370C375.523 40 380 44.4772 380 50V148C380 153.523 375.523 158 370 158H272C266.477 158 262 153.523 262 148V50Z" fill="#DCF6F9"/>
<path d="M272 40.25H370C375.385 40.25 379.75 44.6152 379.75 50V148C379.75 153.385 375.385 157.75 370 157.75H272C266.615 157.75 262.25 153.385 262.25 148V50C262.25 44.6152 266.615 40.25 272 40.25Z" stroke="black" stroke-opacity="0.1" stroke-width="0.5"/>
<path d="M293.667 69.9898C294.807 68.8498 296.655 68.8498 297.795 69.9898C298.935 71.1298 298.935 72.9777 297.795 74.1177L288.706 83.2059L282.355 76.8544C281.215 75.7144 281.215 73.8665 282.355 72.7265C283.353 71.7289 284.894 71.6019 286.027 72.3502L286.483 72.7265L288.706 74.9501L293.667 69.9898Z" fill="#96E5ED"/>
<path d="M305.766 76.1703C305.766 74.0744 307.465 72.3754 309.56 72.3754H356.705C358.801 72.3754 360.5 74.0744 360.5 76.1703C360.5 78.2662 358.801 79.9652 356.705 79.9652H309.56C307.465 79.9652 305.766 78.2662 305.766 76.1703Z" fill="#96E5ED"/>
<path d="M293.667 115.647C294.807 114.507 296.655 114.507 297.795 115.647C298.935 116.787 298.935 118.635 297.795 119.775L288.706 128.863L282.355 122.512C281.215 121.372 281.215 119.524 282.355 118.384C283.353 117.387 284.894 117.26 286.027 118.008L286.483 118.384L288.706 120.608L293.667 115.647Z" fill="#96E5ED"/>
<path d="M305.766 121.828C305.766 119.732 307.465 118.033 309.56 118.033H356.705C358.801 118.033 360.5 119.732 360.5 121.828C360.5 123.924 358.801 125.623 356.705 125.623H309.56C307.465 125.623 305.766 123.924 305.766 121.828Z" fill="#96E5ED"/>
<path d="M293.667 92.8186C294.807 91.6786 296.655 91.6786 297.795 92.8186C298.935 93.9586 298.935 95.8065 297.795 96.9465L288.706 106.035L282.355 99.6832C281.215 98.5432 281.215 96.6953 282.355 95.5553C283.353 94.5578 284.894 94.4307 286.027 95.179L286.483 95.5553L288.706 97.7789L293.667 92.8186Z" fill="#96E5ED"/>
<path d="M305.766 98.9991C305.766 96.9033 307.465 95.2042 309.56 95.2042H356.705C358.801 95.2042 360.5 96.9033 360.5 98.9991C360.5 101.095 358.801 102.794 356.705 102.794H309.56C307.465 102.794 305.766 101.095 305.766 98.9991Z" fill="#96E5ED"/>
</g>
<defs>
<clipPath id="clip0_1357_5652">
<path d="M0 24C0 10.7452 10.7452 0 24 0H296C309.255 0 320 10.7452 320 24V174C320 187.255 309.255 198 296 198H24C10.7452 198 0 187.255 0 174V24Z" fill="white"/>
</clipPath>
</defs>
</svg>
