<svg width="320" height="198" viewBox="0 0 320 198" fill="none" xmlns="http://www.w3.org/2000/svg">
<g clip-path="url(#clip0_3435_14406)">
<path d="M0 24C0 10.7452 10.7452 0 24 0H296C309.255 0 320 10.7452 320 24V174C320 187.255 309.255 198 296 198H24C10.7452 198 0 187.255 0 174V24Z" fill="#F4F5F6"/>
<g filter="url(#filter0_i_3435_14406)">
<circle cx="258" cy="175" r="54" fill="white"/>
</g>
<ellipse cx="298.726" cy="170.467" rx="3.27419" ry="8.8871" fill="#979797"/>
<rect x="293.58" y="161.58" width="5.6129" height="17.7742" fill="#979797"/>
<ellipse cx="294.048" cy="170.467" rx="3.27419" ry="8.8871" fill="#BAAEAE"/>
<ellipse cx="218.274" cy="170.467" rx="3.27419" ry="8.8871" fill="#979797"/>
<rect x="217.806" y="161.58" width="5.6129" height="17.7742" fill="#979797"/>
<ellipse cx="223.419" cy="170.467" rx="3.74194" ry="8.8871" fill="#BAAEAE"/>
<g filter="url(#filter1_g_3435_14406)">
<ellipse cx="258.913" cy="170.915" rx="37.9126" ry="37.915" fill="#B9EDF3"/>
</g>
<path d="M253.072 166.805C254.752 169.721 257.974 168.675 259.375 167.787C259.492 167.703 259.415 166.883 258.169 164.277C256.924 161.67 254.895 161.608 254.037 161.903C253.015 162.321 251.393 163.888 253.072 166.805Z" fill="#3B3A39"/>
<ellipse cx="0.832322" cy="0.887088" rx="0.832322" ry="0.887088" transform="matrix(0.892594 0.450861 -0.323947 0.946075 254.08 162.715)" fill="white"/>
<path d="M279.224 159.48C276.584 160.401 276.776 164.103 277.202 165.838C277.245 165.986 277.91 166.144 280.219 165.59C282.528 165.036 282.978 162.916 282.914 161.925C282.784 160.726 281.865 158.559 279.224 159.48Z" fill="#3B3A39"/>
<ellipse cx="0.832322" cy="0.887088" rx="0.832322" ry="0.887088" transform="matrix(0.892594 0.450861 -0.323947 0.946075 279.137 160)" fill="white"/>
<ellipse cx="1.27483" cy="1.35872" rx="1.27483" ry="1.35872" transform="matrix(0.892594 0.450861 -0.323947 0.946075 275.88 152)" fill="#696867"/>
<ellipse cx="1.27483" cy="1.35872" rx="1.27483" ry="1.35872" transform="matrix(0.892594 0.450861 -0.323947 0.946075 256.428 153.176)" fill="#696867"/>
<g filter="url(#filter2_ig_3435_14406)">
<ellipse cx="6.14338" cy="5.91552" rx="6.14338" ry="5.91552" transform="matrix(0.0470462 0.998893 -0.996644 0.081858 280.997 165.615)" fill="#FFF6D9"/>
</g>
<g filter="url(#filter3_ig_3435_14406)">
<ellipse cx="6.14338" cy="5.91552" rx="6.14338" ry="5.91552" transform="matrix(0.939402 0.342816 -0.309842 0.950788 260.347 165.275)" fill="#FFF6D9"/>
</g>
<path d="M271.751 169.312L270.745 171.769C270.47 172.44 269.611 172.489 269.146 171.861L267.59 169.761C267.114 169.119 267.386 168.225 268.087 168.128L270.65 167.771C271.412 167.664 272.056 168.566 271.751 169.312Z" fill="#696867"/>
<g filter="url(#filter4_g_3435_14406)">
<ellipse cx="246.602" cy="198.5" rx="9.60215" ry="9.5" fill="#B9EDF3"/>
</g>
<path d="M284.683 187.783C285.423 186.946 288.788 181.461 292.469 183.027C295.722 184.411 296.643 181.344 296.912 178.001" stroke="#A2A2A2"/>
<rect x="285.905" y="181" width="10" height="13" rx="3" transform="rotate(43.2376 285.905 181)" fill="#535353"/>
<g filter="url(#filter5_g_3435_14406)">
<ellipse cx="279.602" cy="197.5" rx="9.60215" ry="9.5" fill="#B9EDF3"/>
</g>
<circle cx="248.5" cy="28.5" r="51.5" fill="white"/>
<circle cx="42.5" cy="115.5" r="60.5" fill="white"/>
<circle cx="162" cy="8" r="28" fill="white"/>
<circle cx="100" cy="192" r="28" fill="white"/>
<g filter="url(#filter6_g_3435_14406)">
<ellipse cx="41.6658" cy="113.303" rx="45.78" ry="45.2929" fill="#B9EDF3"/>
</g>
<path d="M61.1538 102.872C58.0891 104.289 58.7554 108.715 59.4716 110.751C59.5415 110.924 60.3586 111.035 63.0682 110.097C65.7778 109.16 66.0689 106.559 65.8757 105.375C65.5787 103.95 64.2185 101.454 61.1538 102.872Z" fill="#3B3A39"/>
<path d="M27.6588 115.04C30.0207 118.347 33.7694 116.711 35.3485 115.479C35.4792 115.364 35.2897 114.387 33.4859 111.402C31.6822 108.416 29.2372 108.58 28.2402 109.035C27.0622 109.659 25.2968 111.733 27.6588 115.04Z" fill="#3B3A39"/>
<ellipse cx="1.53938" cy="1.64067" rx="1.53938" ry="1.64067" transform="matrix(0.932308 0.361666 -0.23014 0.973157 53.0782 97.041)" fill="#696867"/>
<ellipse cx="1.53938" cy="1.64067" rx="1.53938" ry="1.64067" transform="matrix(0.932308 0.361666 -0.23014 0.973157 32.6047 100.348)" fill="#696867"/>
<g filter="url(#filter7_ig_3435_14406)">
<ellipse cx="7.41821" cy="7.14307" rx="7.41821" ry="7.14307" transform="matrix(0.974873 0.222761 -0.188623 0.98205 50.5199 111.541)" fill="#FFF6D9"/>
</g>
<g filter="url(#filter8_ig_3435_14406)">
<ellipse cx="7.41821" cy="7.14307" rx="7.41821" ry="7.14307" transform="matrix(0.974873 0.222761 -0.188623 0.98205 37.3322 114.139)" fill="#FFF6D9"/>
</g>
<path d="M51.709 116.864L50.6845 120.662C50.4957 121.362 49.6502 121.518 49.11 120.953L46.4336 118.154C45.8808 117.576 46.0391 116.656 46.7232 116.471L50.424 115.472C51.1671 115.271 51.9188 116.086 51.709 116.864Z" fill="#696867"/>
<ellipse cx="1.00504" cy="1.07117" rx="1.00504" ry="1.07117" transform="matrix(0.932308 0.361666 -0.23014 0.973157 28.3879 110.006)" fill="white"/>
<ellipse cx="0.949246" cy="1.01171" rx="0.949246" ry="1.01171" transform="matrix(0.932308 0.361666 -0.23014 0.973157 61.529 104.229)" fill="white"/>
<path d="M47.4167 138.35L61.641 128.193L71.0827 146.43L61.0436 153.675L47.4167 138.35Z" fill="#E6FCFF"/>
<path d="M47.4167 138.35L61.641 128.193L57.1607 126.932L47.0787 134.116L47.4167 138.35Z" fill="#D2FAFF"/>
<path d="M51.4313 141.73L63.3421 133.226L69.4778 146.017L61.066 152.076L51.4313 141.73Z" fill="#AC6E30"/>
<path d="M58.6759 138.113L50.1048 125.219" stroke="#AEAEAE"/>
<g filter="url(#filter9_g_3435_14406)">
<ellipse cx="78.7238" cy="141.077" rx="11.5947" ry="11.4714" fill="#B9EDF3"/>
</g>
<g filter="url(#filter10_g_3435_14406)">
<ellipse cx="51.5947" cy="152.471" rx="11.5947" ry="11.4714" fill="#B9EDF3"/>
</g>
<path d="M162.954 67.2031H156.081V74.4202H162.954V67.2031Z" fill="#2ECADC"/>
<path d="M159.514 156.626C182.978 156.626 202 137.642 202 114.223C202 90.8048 182.978 71.8203 159.514 71.8203C136.049 71.8203 117.028 90.8048 117.028 114.223C117.028 137.642 136.049 156.626 159.514 156.626Z" fill="#96E5ED"/>
<path d="M159.515 148.567C178.543 148.567 193.969 133.171 193.969 114.18C193.969 95.1885 178.543 79.793 159.515 79.793C140.486 79.793 125.061 95.1885 125.061 114.18C125.061 133.171 140.486 148.567 159.515 148.567Z" fill="white"/>
<path d="M162.954 62.2383H156.075C154.179 62.2383 152.641 63.7729 152.641 65.6659V65.6709C152.641 67.564 154.179 69.0986 156.075 69.0986H162.954C164.851 69.0986 166.389 67.564 166.389 65.6709V65.6659C166.389 63.7729 164.851 62.2383 162.954 62.2383Z" fill="#96E5ED"/>
<path d="M120.452 63.33C112.672 68.3609 109.696 78.0055 112.788 86.3333C113.563 88.4241 116.091 89.2584 117.97 88.0421L144.07 71.1653C145.948 69.9541 146.22 67.3105 144.624 65.7475C138.269 59.5255 128.232 58.2992 120.452 63.33Z" fill="#96E5ED"/>
<path d="M199.135 64.1582C206.915 69.189 209.891 78.8336 206.799 87.1615C206.023 89.2522 203.496 90.0865 201.617 88.8702L175.517 71.9935C173.639 70.7822 173.367 68.1386 174.963 66.5756C181.313 60.3536 191.354 59.1273 199.13 64.1582H199.135Z" fill="#96E5ED"/>
<path d="M191.027 141.583C189.245 139.805 186.356 139.805 184.575 141.583C182.793 143.361 182.793 146.244 184.575 148.022L190.61 154.046C192.392 155.824 195.28 155.824 197.062 154.046C198.844 152.268 198.844 149.385 197.062 147.607L191.027 141.583Z" fill="#96E5ED"/>
<path d="M122.243 147.604C120.461 149.383 120.461 152.266 122.243 154.044C124.024 155.822 126.913 155.822 128.695 154.044L134.73 148.02C136.512 146.242 136.512 143.359 134.73 141.581C132.949 139.802 130.06 139.802 128.278 141.581L122.243 147.604Z" fill="#96E5ED"/>
<path d="M160.904 86.0818C160.904 85.6127 160.282 85.2324 159.514 85.2324C158.747 85.2324 158.125 85.6127 158.125 86.0818V113.719C158.125 114.188 158.747 114.568 159.514 114.568C160.282 114.568 160.904 114.188 160.904 113.719V86.0818Z" fill="#96E5ED"/>
<path d="M161.791 116.292C161.791 115.127 160.772 114.182 159.515 114.182C158.257 114.182 157.238 115.127 157.238 116.292V141.387C157.238 142.552 158.257 143.497 159.515 143.497C160.772 143.497 161.791 142.552 161.791 141.387V116.292Z" fill="#96E5ED"/>
<path d="M161.856 117.253C162.99 116.121 162.99 114.285 161.856 113.152C160.721 112.02 158.881 112.02 157.747 113.152L146.228 124.649C145.093 125.781 145.093 127.617 146.227 128.75C147.362 129.882 149.202 129.882 150.337 128.75L161.856 117.253Z" fill="#96E5ED"/>
<path d="M159.514 119.643C162.537 119.643 164.988 117.197 164.988 114.18C164.988 111.163 162.537 108.717 159.514 108.717C156.491 108.717 154.04 111.163 154.04 114.18C154.04 117.197 156.491 119.643 159.514 119.643Z" fill="#73DCE7"/>
<path d="M177.535 55.2002C177.535 53.3657 176.049 51.8779 174.215 51.8775C172.38 51.8775 170.892 53.3655 170.892 55.2002C170.893 57.0345 172.38 58.5205 174.215 58.5205C176.049 58.5202 177.535 57.0343 177.535 55.2002ZM179.903 55.2002C179.903 58.342 177.357 60.8879 174.215 60.8882C171.073 60.8882 168.525 58.3422 168.524 55.2002C168.524 52.0578 171.073 49.5098 174.215 49.5098C177.357 49.5101 179.903 52.058 179.903 55.2002Z" fill="#96E5ED"/>
<path d="M187.838 50.9762C187.838 50.3814 187.355 49.8989 186.76 49.8987C186.165 49.8987 185.683 50.3813 185.683 50.9762C185.683 51.5709 186.166 52.0537 186.76 52.0537C187.355 52.0535 187.838 51.5708 187.838 50.9762ZM189.022 50.9762C189.022 52.2246 188.009 53.2374 186.76 53.2376C185.512 53.2376 184.499 52.2248 184.499 50.9762C184.499 49.7275 185.512 48.7148 186.76 48.7148C188.009 48.715 189.022 49.7276 189.022 50.9762Z" fill="#96E5ED"/>
<path d="M182.501 43.4521H184.716V45.4697H182.501V47.6826H180.485V45.4697H178.27V43.4521H180.485V41.2363H182.501V43.4521Z" fill="#96E5ED"/>
<rect x="2" y="169" width="318" height="29" fill="url(#paint0_linear_3435_14406)"/>
<rect width="318" height="29" transform="matrix(1 0 0 -1 2 29)" fill="url(#paint1_linear_3435_14406)"/>
<rect width="198" height="29" transform="matrix(-4.37114e-08 -1 -1 4.37114e-08 29 198)" fill="url(#paint2_linear_3435_14406)"/>
<rect x="291" y="198" width="198" height="29" transform="rotate(-90 291 198)" fill="url(#paint3_linear_3435_14406)"/>
<g filter="url(#filter11_g_3435_14406)">
<ellipse cx="249.913" cy="28.5093" rx="37.9126" ry="37.5093" fill="#B9EDF3"/>
</g>
<path d="M270.754 32.4684C268.113 33.3894 268.305 37.091 268.731 38.8266C268.774 38.9746 269.439 39.1321 271.748 38.5783C274.057 38.0246 274.507 35.9042 274.443 34.9132C274.314 33.7145 273.394 31.5475 270.754 32.4684Z" fill="#3B3A39"/>
<path d="M242.164 39.791C243.844 42.7077 247.066 41.6615 248.467 40.7738C248.584 40.6894 248.507 39.8692 247.261 37.2629C246.015 34.6567 243.987 34.5943 243.129 34.889C242.107 35.3077 240.485 36.8743 242.164 39.791Z" fill="#3B3A39"/>
<ellipse cx="1.27483" cy="1.35872" rx="1.27483" ry="1.35872" transform="matrix(0.892594 0.450861 -0.323947 0.946075 264.569 27.0098)" fill="#696867"/>
<ellipse cx="1.27483" cy="1.35872" rx="1.27483" ry="1.35872" transform="matrix(0.892594 0.450861 -0.323947 0.946075 247.428 28.082)" fill="#696867"/>
<g filter="url(#filter12_ig_3435_14406)">
<ellipse cx="6.30706" cy="6.72206" rx="6.30706" ry="6.72206" transform="matrix(0.685581 0.727997 -0.626896 0.779103 265.355 36.0508)" fill="#FFF6D9"/>
</g>
<g filter="url(#filter13_ig_3435_14406)">
<ellipse cx="6.30706" cy="6.72206" rx="6.30706" ry="6.72206" transform="matrix(0.892594 0.450861 -0.323947 0.946075 250.882 36.7695)" fill="#FFF6D9"/>
</g>
<path d="M262.014 41.4933L260.857 43.8832C260.542 44.5357 259.682 44.5321 259.256 43.8766L257.833 41.6843C257.397 41.0133 257.724 40.1387 258.431 40.0846L261.01 39.8869C261.778 39.8281 262.365 40.7679 262.014 41.4933Z" fill="#696867"/>
<ellipse cx="0.832322" cy="0.887088" rx="0.832322" ry="0.887088" transform="matrix(0.892594 0.450861 -0.323947 0.946075 243.172 35.7012)" fill="white"/>
<ellipse cx="0.786117" cy="0.837844" rx="0.786117" ry="0.837844" transform="matrix(0.892594 0.450861 -0.323947 0.946075 270.953 33.6172)" fill="white"/>
<path d="M225.097 14.3009C225.231 13.3416 226.515 13.1148 226.97 13.97L227.621 15.1942C227.825 15.5767 228.251 15.7846 228.678 15.7092L230.044 15.4679C230.998 15.2994 231.61 16.45 230.937 17.1471L229.974 18.145C229.673 18.4567 229.607 18.9267 229.811 19.3092L230.462 20.5335C230.918 21.3886 230.012 22.3265 229.142 21.9022L227.895 21.2946C227.505 21.1049 227.038 21.1874 226.737 21.4992L225.774 22.4971C225.102 23.1942 223.93 22.6232 224.064 21.6638L224.257 20.2905C224.317 19.8614 224.094 19.4425 223.705 19.2527L222.458 18.6452C221.587 18.2208 221.768 16.93 222.722 16.7615L224.088 16.5202C224.514 16.4448 224.844 16.1033 224.904 15.6743L225.097 14.3009Z" fill="#FFF043"/>
<path d="M220.512 25.6615C221.174 24.9546 222.354 25.5082 222.234 26.4694L222.212 26.6454C222.158 27.0753 222.387 27.4909 222.78 27.6749L222.94 27.7503C223.817 28.1617 223.655 29.455 222.704 29.6376L222.53 29.6711C222.104 29.7527 221.78 30.0991 221.726 30.529L221.704 30.705C221.584 31.6662 220.304 31.9119 219.836 31.0635L219.75 30.9082C219.541 30.5288 219.112 30.3272 218.686 30.4089L218.512 30.4423C217.561 30.6249 216.931 29.4835 217.594 28.7766L217.715 28.6471C218.011 28.331 218.07 27.86 217.861 27.4806L217.775 27.3253C217.308 26.4769 218.199 25.5258 219.076 25.9372L219.236 26.0126C219.629 26.1966 220.095 26.1071 220.391 25.7909L220.512 25.6615Z" fill="#FFF043"/>
<path d="M233.194 25.5154C233.67 24.6713 234.947 24.9286 235.059 25.8909L235.394 28.7797C235.444 29.21 235.765 29.5593 236.19 29.6448L239.041 30.219C239.991 30.4102 240.141 31.705 239.26 32.1084L236.616 33.3197C236.222 33.5001 235.989 33.9137 236.039 34.344L236.374 37.2328C236.486 38.1951 235.301 38.738 234.645 38.0251L232.676 35.8848C232.383 35.566 231.917 35.4723 231.523 35.6528L228.88 36.864C227.999 37.2675 227.116 36.3083 227.592 35.4642L229.019 32.9302C229.231 32.5527 229.177 32.0813 228.883 31.7625L226.914 29.6222C226.258 28.9093 226.898 27.7736 227.848 27.9649L230.699 28.539C231.123 28.6245 231.555 28.4268 231.767 28.0494L233.194 25.5154Z" fill="#FFF043"/>
<path d="M283.061 12.9946C269.106 23.1032 241.187 17.6036 225.542 12.3683C222.936 11.4963 220.166 9.37446 220.91 6.72923C221.679 3.99843 225.427 3.93319 227.5 4.42079C252.717 11.4257 269.041 11.147 277.411 6.94125C279.544 5.86946 282.128 4.46812 283.962 5.99674C284.554 6.49052 284.949 7.11136 285.201 7.76568C285.949 9.71108 284.749 11.772 283.061 12.9946Z" fill="#EDC0FF"/>
<path d="M235.999 -6.07968C259.499 -15.0796 275 -0.912741 281.5 5.42059C274.5 14.4206 243 17.4209 224.5 4.4209C221.355 2.21119 217.931 7.10043 217.116 8.57126C217.08 8.74391 217.048 8.86216 217 8.9209C216.881 9.06328 216.931 8.90557 217.116 8.57126C217.45 6.97835 218.154 0.754933 235.999 -6.07968Z" fill="#F7E3FF"/>
<mask id="mask0_3435_14406" style="mask-type:alpha" maskUnits="userSpaceOnUse" x="216" y="-9" width="66" height="23">
<path d="M236 -6.07968C259.499 -15.0796 275.001 -0.912741 281.501 5.42059C274.5 14.4206 243 17.4209 224.5 4.4209C221.355 2.21119 217.931 7.10043 217.117 8.57126C217.08 8.74391 217.049 8.86216 217 8.9209C216.881 9.06328 216.932 8.90557 217.117 8.57126C217.451 6.97835 218.154 0.754933 236 -6.07968Z" fill="#F7E3FF"/>
</mask>
<g mask="url(#mask0_3435_14406)">
<circle cx="264.5" cy="10.4219" r="3.5" fill="#F9F9F9"/>
<circle cx="238.5" cy="7.42188" r="3.5" fill="#F9F9F9"/>
<circle cx="227.5" cy="0.421875" r="3.5" fill="#F9F9F9"/>
<circle cx="252.5" cy="3.42188" r="3.5" fill="#F9F9F9"/>
<circle cx="273.5" cy="3.42188" r="3.5" fill="#F9F9F9"/>
</g>
<g filter="url(#filter14_g_3435_14406)">
<circle cx="217" cy="10.0098" r="4" fill="#FFFABF"/>
</g>
</g>
<defs>
<filter id="filter0_i_3435_14406" x="204" y="121" width="108" height="112" filterUnits="userSpaceOnUse" color-interpolation-filters="sRGB">
<feFlood flood-opacity="0" result="BackgroundImageFix"/>
<feBlend mode="normal" in="SourceGraphic" in2="BackgroundImageFix" result="shape"/>
<feColorMatrix in="SourceAlpha" type="matrix" values="0 0 0 0 0 0 0 0 0 0 0 0 0 0 0 0 0 0 127 0" result="hardAlpha"/>
<feOffset dy="4"/>
<feGaussianBlur stdDeviation="2"/>
<feComposite in2="hardAlpha" operator="arithmetic" k2="-1" k3="1"/>
<feColorMatrix type="matrix" values="0 0 0 0 1 0 0 0 0 1 0 0 0 0 1 0 0 0 0.25 0"/>
<feBlend mode="normal" in2="shape" result="effect1_innerShadow_3435_14406"/>
</filter>
<filter id="filter1_g_3435_14406" x="217" y="129" width="83.8253" height="83.8301" filterUnits="userSpaceOnUse" color-interpolation-filters="sRGB">
<feFlood flood-opacity="0" result="BackgroundImageFix"/>
<feBlend mode="normal" in="SourceGraphic" in2="BackgroundImageFix" result="shape"/>
<feTurbulence type="fractalNoise" baseFrequency="2 2" numOctaves="3" seed="1451" />
<feDisplacementMap in="shape" scale="8" xChannelSelector="R" yChannelSelector="G" result="displacedImage" width="100%" height="100%" />
<feMerge result="effect1_texture_3435_14406">
<feMergeNode in="displacedImage"/>
</feMerge>
</filter>
<filter id="filter2_ig_3435_14406" x="265.487" y="162.08" width="19.8058" height="20.3125" filterUnits="userSpaceOnUse" color-interpolation-filters="sRGB">
<feFlood flood-opacity="0" result="BackgroundImageFix"/>
<feBlend mode="normal" in="SourceGraphic" in2="BackgroundImageFix" result="shape"/>
<feColorMatrix in="SourceAlpha" type="matrix" values="0 0 0 0 0 0 0 0 0 0 0 0 0 0 0 0 0 0 127 0" result="hardAlpha"/>
<feOffset dx="2" dy="2"/>
<feGaussianBlur stdDeviation="2"/>
<feComposite in2="hardAlpha" operator="arithmetic" k2="-1" k3="1"/>
<feColorMatrix type="matrix" values="0 0 0 0 1 0 0 0 0 1 0 0 0 0 1 0 0 0 0.25 0"/>
<feBlend mode="normal" in2="shape" result="effect1_innerShadow_3435_14406"/>
<feTurbulence type="fractalNoise" baseFrequency="2 2" numOctaves="3" seed="9085" />
<feDisplacementMap in="effect1_innerShadow_3435_14406" scale="8" xChannelSelector="R" yChannelSelector="G" result="displacedImage" width="100%" height="100%" />
<feMerge result="effect2_texture_3435_14406">
<feMergeNode in="displacedImage"/>
</feMerge>
</filter>
<filter id="filter3_ig_3435_14406" x="254.228" y="162.998" width="20.1136" height="20.0156" filterUnits="userSpaceOnUse" color-interpolation-filters="sRGB">
<feFlood flood-opacity="0" result="BackgroundImageFix"/>
<feBlend mode="normal" in="SourceGraphic" in2="BackgroundImageFix" result="shape"/>
<feColorMatrix in="SourceAlpha" type="matrix" values="0 0 0 0 0 0 0 0 0 0 0 0 0 0 0 0 0 0 127 0" result="hardAlpha"/>
<feOffset dx="2" dy="2"/>
<feGaussianBlur stdDeviation="2"/>
<feComposite in2="hardAlpha" operator="arithmetic" k2="-1" k3="1"/>
<feColorMatrix type="matrix" values="0 0 0 0 1 0 0 0 0 1 0 0 0 0 1 0 0 0 0.25 0"/>
<feBlend mode="normal" in2="shape" result="effect1_innerShadow_3435_14406"/>
<feTurbulence type="fractalNoise" baseFrequency="2 2" numOctaves="3" seed="9085" />
<feDisplacementMap in="effect1_innerShadow_3435_14406" scale="8" xChannelSelector="R" yChannelSelector="G" result="displacedImage" width="100%" height="100%" />
<feMerge result="effect2_texture_3435_14406">
<feMergeNode in="displacedImage"/>
</feMerge>
</filter>
<filter id="filter4_g_3435_14406" x="233" y="185" width="27.2043" height="27" filterUnits="userSpaceOnUse" color-interpolation-filters="sRGB">
<feFlood flood-opacity="0" result="BackgroundImageFix"/>
<feBlend mode="normal" in="SourceGraphic" in2="BackgroundImageFix" result="shape"/>
<feTurbulence type="fractalNoise" baseFrequency="2 2" numOctaves="3" seed="1451" />
<feDisplacementMap in="shape" scale="8" xChannelSelector="R" yChannelSelector="G" result="displacedImage" width="100%" height="100%" />
<feMerge result="effect1_texture_3435_14406">
<feMergeNode in="displacedImage"/>
</feMerge>
</filter>
<filter id="filter5_g_3435_14406" x="266" y="184" width="27.2043" height="27" filterUnits="userSpaceOnUse" color-interpolation-filters="sRGB">
<feFlood flood-opacity="0" result="BackgroundImageFix"/>
<feBlend mode="normal" in="SourceGraphic" in2="BackgroundImageFix" result="shape"/>
<feTurbulence type="fractalNoise" baseFrequency="2 2" numOctaves="3" seed="1451" />
<feDisplacementMap in="shape" scale="8" xChannelSelector="R" yChannelSelector="G" result="displacedImage" width="100%" height="100%" />
<feMerge result="effect1_texture_3435_14406">
<feMergeNode in="displacedImage"/>
</feMerge>
</filter>
<filter id="filter6_g_3435_14406" x="-8.11417" y="64.0098" width="99.5599" height="98.5859" filterUnits="userSpaceOnUse" color-interpolation-filters="sRGB">
<feFlood flood-opacity="0" result="BackgroundImageFix"/>
<feBlend mode="normal" in="SourceGraphic" in2="BackgroundImageFix" result="shape"/>
<feTurbulence type="fractalNoise" baseFrequency="2 2" numOctaves="3" seed="1451" />
<feDisplacementMap in="shape" scale="8" xChannelSelector="R" yChannelSelector="G" result="displacedImage" width="100%" height="100%" />
<feMerge result="effect1_texture_3435_14406">
<feMergeNode in="displacedImage"/>
</feMerge>
</filter>
<filter id="filter7_ig_3435_14406" x="45.0468" y="109" width="22.7151" height="22.416" filterUnits="userSpaceOnUse" color-interpolation-filters="sRGB">
<feFlood flood-opacity="0" result="BackgroundImageFix"/>
<feBlend mode="normal" in="SourceGraphic" in2="BackgroundImageFix" result="shape"/>
<feColorMatrix in="SourceAlpha" type="matrix" values="0 0 0 0 0 0 0 0 0 0 0 0 0 0 0 0 0 0 127 0" result="hardAlpha"/>
<feOffset dx="2" dy="2"/>
<feGaussianBlur stdDeviation="2"/>
<feComposite in2="hardAlpha" operator="arithmetic" k2="-1" k3="1"/>
<feColorMatrix type="matrix" values="0 0 0 0 1 0 0 0 0 1 0 0 0 0 1 0 0 0 0.25 0"/>
<feBlend mode="normal" in2="shape" result="effect1_innerShadow_3435_14406"/>
<feTurbulence type="fractalNoise" baseFrequency="2 2" numOctaves="3" seed="9085" />
<feDisplacementMap in="effect1_innerShadow_3435_14406" scale="8" xChannelSelector="R" yChannelSelector="G" result="displacedImage" width="100%" height="100%" />
<feMerge result="effect2_texture_3435_14406">
<feMergeNode in="displacedImage"/>
</feMerge>
</filter>
<filter id="filter8_ig_3435_14406" x="31.8591" y="111.598" width="22.7151" height="22.416" filterUnits="userSpaceOnUse" color-interpolation-filters="sRGB">
<feFlood flood-opacity="0" result="BackgroundImageFix"/>
<feBlend mode="normal" in="SourceGraphic" in2="BackgroundImageFix" result="shape"/>
<feColorMatrix in="SourceAlpha" type="matrix" values="0 0 0 0 0 0 0 0 0 0 0 0 0 0 0 0 0 0 127 0" result="hardAlpha"/>
<feOffset dx="2" dy="2"/>
<feGaussianBlur stdDeviation="2"/>
<feComposite in2="hardAlpha" operator="arithmetic" k2="-1" k3="1"/>
<feColorMatrix type="matrix" values="0 0 0 0 1 0 0 0 0 1 0 0 0 0 1 0 0 0 0.25 0"/>
<feBlend mode="normal" in2="shape" result="effect1_innerShadow_3435_14406"/>
<feTurbulence type="fractalNoise" baseFrequency="2 2" numOctaves="3" seed="9085" />
<feDisplacementMap in="effect1_innerShadow_3435_14406" scale="8" xChannelSelector="R" yChannelSelector="G" result="displacedImage" width="100%" height="100%" />
<feMerge result="effect2_texture_3435_14406">
<feMergeNode in="displacedImage"/>
</feMerge>
</filter>
<filter id="filter9_g_3435_14406" x="63.129" y="125.605" width="31.1894" height="30.9434" filterUnits="userSpaceOnUse" color-interpolation-filters="sRGB">
<feFlood flood-opacity="0" result="BackgroundImageFix"/>
<feBlend mode="normal" in="SourceGraphic" in2="BackgroundImageFix" result="shape"/>
<feTurbulence type="fractalNoise" baseFrequency="2 2" numOctaves="3" seed="1451" />
<feDisplacementMap in="shape" scale="8" xChannelSelector="R" yChannelSelector="G" result="displacedImage" width="100%" height="100%" />
<feMerge result="effect1_texture_3435_14406">
<feMergeNode in="displacedImage"/>
</feMerge>
</filter>
<filter id="filter10_g_3435_14406" x="36" y="137" width="31.1894" height="30.9434" filterUnits="userSpaceOnUse" color-interpolation-filters="sRGB">
<feFlood flood-opacity="0" result="BackgroundImageFix"/>
<feBlend mode="normal" in="SourceGraphic" in2="BackgroundImageFix" result="shape"/>
<feTurbulence type="fractalNoise" baseFrequency="2 2" numOctaves="3" seed="1451" />
<feDisplacementMap in="shape" scale="8" xChannelSelector="R" yChannelSelector="G" result="displacedImage" width="100%" height="100%" />
<feMerge result="effect1_texture_3435_14406">
<feMergeNode in="displacedImage"/>
</feMerge>
</filter>
<filter id="filter11_g_3435_14406" x="208" y="-13" width="83.8253" height="83.0195" filterUnits="userSpaceOnUse" color-interpolation-filters="sRGB">
<feFlood flood-opacity="0" result="BackgroundImageFix"/>
<feBlend mode="normal" in="SourceGraphic" in2="BackgroundImageFix" result="shape"/>
<feTurbulence type="fractalNoise" baseFrequency="2 2" numOctaves="3" seed="1451" />
<feDisplacementMap in="shape" scale="8" xChannelSelector="R" yChannelSelector="G" result="displacedImage" width="100%" height="100%" />
<feMerge result="effect1_texture_3435_14406">
<feMergeNode in="displacedImage"/>
</feMerge>
</filter>
<filter id="filter12_ig_3435_14406" x="255.427" y="34.9141" width="20.0756" height="21.9297" filterUnits="userSpaceOnUse" color-interpolation-filters="sRGB">
<feFlood flood-opacity="0" result="BackgroundImageFix"/>
<feBlend mode="normal" in="SourceGraphic" in2="BackgroundImageFix" result="shape"/>
<feColorMatrix in="SourceAlpha" type="matrix" values="0 0 0 0 0 0 0 0 0 0 0 0 0 0 0 0 0 0 127 0" result="hardAlpha"/>
<feOffset dx="2" dy="2"/>
<feGaussianBlur stdDeviation="2"/>
<feComposite in2="hardAlpha" operator="arithmetic" k2="-1" k3="1"/>
<feColorMatrix type="matrix" values="0 0 0 0 1 0 0 0 0 1 0 0 0 0 1 0 0 0 0.25 0"/>
<feBlend mode="normal" in2="shape" result="effect1_innerShadow_3435_14406"/>
<feTurbulence type="fractalNoise" baseFrequency="2 2" numOctaves="3" seed="9085" />
<feDisplacementMap in="effect1_innerShadow_3435_14406" scale="8" xChannelSelector="R" yChannelSelector="G" result="displacedImage" width="100%" height="100%" />
<feMerge result="effect2_texture_3435_14406">
<feMergeNode in="displacedImage"/>
</feMerge>
</filter>
<filter id="filter13_ig_3435_14406" x="244.296" y="35.0039" width="20.0755" height="21.9375" filterUnits="userSpaceOnUse" color-interpolation-filters="sRGB">
<feFlood flood-opacity="0" result="BackgroundImageFix"/>
<feBlend mode="normal" in="SourceGraphic" in2="BackgroundImageFix" result="shape"/>
<feColorMatrix in="SourceAlpha" type="matrix" values="0 0 0 0 0 0 0 0 0 0 0 0 0 0 0 0 0 0 127 0" result="hardAlpha"/>
<feOffset dx="2" dy="2"/>
<feGaussianBlur stdDeviation="2"/>
<feComposite in2="hardAlpha" operator="arithmetic" k2="-1" k3="1"/>
<feColorMatrix type="matrix" values="0 0 0 0 1 0 0 0 0 1 0 0 0 0 1 0 0 0 0.25 0"/>
<feBlend mode="normal" in2="shape" result="effect1_innerShadow_3435_14406"/>
<feTurbulence type="fractalNoise" baseFrequency="2 2" numOctaves="3" seed="9085" />
<feDisplacementMap in="effect1_innerShadow_3435_14406" scale="8" xChannelSelector="R" yChannelSelector="G" result="displacedImage" width="100%" height="100%" />
<feMerge result="effect2_texture_3435_14406">
<feMergeNode in="displacedImage"/>
</feMerge>
</filter>
<filter id="filter14_g_3435_14406" x="210.7" y="3.70977" width="12.6" height="12.6" filterUnits="userSpaceOnUse" color-interpolation-filters="sRGB">
<feFlood flood-opacity="0" result="BackgroundImageFix"/>
<feBlend mode="normal" in="SourceGraphic" in2="BackgroundImageFix" result="shape"/>
<feTurbulence type="fractalNoise" baseFrequency="5 5" numOctaves="3" seed="8432" />
<feDisplacementMap in="shape" scale="4.5999999046325684" xChannelSelector="R" yChannelSelector="G" result="displacedImage" width="100%" height="100%" />
<feMerge result="effect1_texture_3435_14406">
<feMergeNode in="displacedImage"/>
</feMerge>
</filter>
<linearGradient id="paint0_linear_3435_14406" x1="161" y1="169" x2="161" y2="198" gradientUnits="userSpaceOnUse">
<stop stop-color="#F4F5F6" stop-opacity="0"/>
<stop offset="1" stop-color="#F4F5F6"/>
</linearGradient>
<linearGradient id="paint1_linear_3435_14406" x1="159" y1="0" x2="159" y2="29" gradientUnits="userSpaceOnUse">
<stop stop-color="#F4F5F6" stop-opacity="0"/>
<stop offset="1" stop-color="#F4F5F6"/>
</linearGradient>
<linearGradient id="paint2_linear_3435_14406" x1="99" y1="0" x2="99" y2="29" gradientUnits="userSpaceOnUse">
<stop stop-color="#F4F5F6" stop-opacity="0"/>
<stop offset="1" stop-color="#F4F5F6"/>
</linearGradient>
<linearGradient id="paint3_linear_3435_14406" x1="390" y1="198" x2="390" y2="227" gradientUnits="userSpaceOnUse">
<stop stop-color="#F4F5F6" stop-opacity="0"/>
<stop offset="1" stop-color="#F4F5F6"/>
</linearGradient>
<clipPath id="clip0_3435_14406">
<path d="M0 24C0 10.7452 10.7452 0 24 0H296C309.255 0 320 10.7452 320 24V174C320 187.255 309.255 198 296 198H24C10.7452 198 0 187.255 0 174V24Z" fill="white"/>
</clipPath>
</defs>
</svg>
