<svg width="320" height="198" viewBox="0 0 320 198" fill="none" xmlns="http://www.w3.org/2000/svg">
<path d="M0 24C0 10.7452 10.7452 0 24 0H296C309.255 0 320 10.7452 320 24V174C320 187.255 309.255 198 296 198H24C10.7452 198 0 187.255 0 174V24Z" fill="#F4F5F6"/>
<path d="M279 31C279 24.3726 273.627 19 267 19L141 19C134.373 19 129 24.3726 129 31L129 164C129 171.732 135.268 178 143 178L265 178C272.732 178 279 171.732 279 164L279 31Z" fill="white"/>
<path d="M279 31.0312C279 24.4038 273.627 19.0312 267 19.0312L141 19.0312C134.373 19.0312 129 24.4038 129 31.0313L129 39.0312L279 39.0313L279 31.0312Z" fill="#CDD1D5"/>
<ellipse cx="141.147" cy="29.6852" rx="2.96171" ry="3.04069" fill="#51D3E1"/>
<ellipse cx="150.967" cy="29.6852" rx="2.96171" ry="3.04069" fill="#E6E8EA"/>
<ellipse cx="160.786" cy="29.6852" rx="2.96171" ry="3.04069" fill="#E6E8EA"/>
<path d="M141.714 48.25H267.26C268.226 48.2502 269.01 49.0336 269.01 50V167.715C269.01 168.681 268.226 169.465 267.26 169.465H141.714C140.748 169.465 139.964 168.681 139.964 167.715V50L139.973 49.8213C140.063 48.9387 140.808 48.25 141.714 48.25Z" stroke="#E6E8EA" stroke-width="0.5"/>
<line x1="197.432" y1="47.7148" x2="197.432" y2="169.715" stroke="#E6E8EA" stroke-width="0.5"/>
<line x1="227.627" y1="47.7148" x2="227.627" y2="169.715" stroke="#E6E8EA" stroke-width="0.5"/>
<line x1="257.821" y1="47.7148" x2="257.821" y2="169.715" stroke="#E6E8EA" stroke-width="0.5"/>
<line x1="153.601" y1="47.7148" x2="153.601" y2="169.715" stroke="#E6E8EA" stroke-width="0.5"/>
<line x1="182.821" y1="47.7148" x2="182.821" y2="169.715" stroke="#E6E8EA" stroke-width="0.5"/>
<line x1="213.016" y1="47.7148" x2="213.016" y2="169.715" stroke="#E6E8EA" stroke-width="0.5"/>
<line x1="243.211" y1="47.7148" x2="243.211" y2="169.715" stroke="#E6E8EA" stroke-width="0.5"/>
<line x1="269.26" y1="93.459" x2="140.688" y2="93.459" stroke="#E6E8EA" stroke-width="0.5"/>
<line x1="168.211" y1="47.7148" x2="168.211" y2="169.715" stroke="#E6E8EA" stroke-width="0.5"/>
<line x1="269.26" y1="145.621" x2="140.688" y2="145.621" stroke="#E6E8EA" stroke-width="0.5"/>
<line x1="269.26" y1="67.377" x2="140.688" y2="67.3769" stroke="#E6E8EA" stroke-width="0.5"/>
<line x1="269.26" y1="119.539" x2="140.688" y2="119.539" stroke="#E6E8EA" stroke-width="0.5"/>
<path d="M116 64.5C116 63.1193 117.119 62 118.5 62H290.5C291.881 62 293 63.1193 293 64.5C293 65.8807 291.881 67 290.5 67H118.5C117.119 67 116 65.8807 116 64.5Z" fill="#51D3E1"/>
<rect x="123" y="64" width="163" height="68" fill="url(#paint0_linear_3435_14313)"/>
<path d="M256.453 79.1524C256.727 78.2178 258.039 78.1867 258.357 79.1073L259.829 83.3672C259.929 83.6574 260.157 83.8855 260.448 83.9858L264.708 85.4576C265.628 85.7757 265.597 87.0882 264.662 87.3624L260.493 88.5856C260.177 88.6782 259.927 88.9204 259.824 89.2331L258.363 93.6835C258.054 94.6229 256.715 94.5925 256.449 93.64L255.233 89.2768C255.139 88.9396 254.875 88.6761 254.538 88.5821L250.175 87.3657C249.222 87.1002 249.192 85.7609 250.131 85.4524L254.582 83.991C254.895 83.8883 255.137 83.6382 255.229 83.3224L256.453 79.1524Z" fill="url(#paint1_linear_3435_14313)"/>
<path d="M266.787 72.9532C267.061 72.0186 268.373 71.9875 268.691 72.9081L269.367 74.8638C269.468 75.1541 269.696 75.3821 269.986 75.4824L271.942 76.1582C272.862 76.4763 272.831 77.7888 271.896 78.0629L270.031 78.6102C269.715 78.7029 269.465 78.945 269.362 79.2578L268.697 81.2838C268.388 82.2232 267.049 82.1928 266.783 81.2403L266.243 79.3015C266.149 78.9643 265.885 78.7008 265.548 78.6068L263.609 78.0663C262.657 77.8007 262.626 76.4614 263.566 76.1529L265.592 75.4876C265.905 75.3849 266.147 75.1349 266.239 74.819L266.787 72.9532Z" fill="url(#paint2_linear_3435_14313)"/>
<g filter="url(#filter0_g_3435_14313)">
<ellipse cx="65.6853" cy="107.507" rx="37.6852" ry="37.2842" fill="#B9EDF3"/>
</g>
<path d="M51.9605 109.352C51.9028 108.086 52.882 107.014 54.1476 106.956L70.4171 106.215C71.6826 106.157 72.7553 107.136 72.8129 108.402C73.0051 112.62 69.7412 116.196 65.5227 116.388L59.9467 116.642C55.7282 116.834 52.1527 113.57 51.9605 109.352Z" fill="#353535" fill-opacity="0.8"/>
<path d="M76.7847 108.221C76.727 106.956 77.7062 105.883 78.9718 105.825L94.2483 105.129C95.5138 105.072 96.5865 106.051 96.6441 107.316C96.8363 111.535 93.5724 115.11 89.3539 115.303L84.7709 115.511C80.5524 115.704 76.9769 112.44 76.7847 108.221Z" fill="#353535" fill-opacity="0.8"/>
<path d="M70.945 109.379L78.8888 109.017" stroke="#353535" stroke-opacity="0.8" stroke-linecap="round"/>
<path d="M95.7048 108.544C95.4191 109.552 94.4594 111.785 92.9069 112.652" stroke="#C9C9C9" stroke-linecap="round"/>
<ellipse cx="91.463" cy="113.714" rx="0.497001" ry="0.496999" transform="rotate(-2.60845 91.463 113.714)" fill="#C9C9C9"/>
<path d="M86.4016 101.604C83.777 102.519 83.9676 106.199 84.3909 107.924C84.4343 108.071 85.0948 108.228 87.39 107.677C89.6851 107.127 90.1323 105.019 90.0691 104.034C89.9402 102.843 89.0262 100.689 86.4016 101.604Z" fill="#3B3A39"/>
<path d="M57.9836 108.884C59.6531 111.783 62.8556 110.743 64.2482 109.861C64.3645 109.777 64.2876 108.962 63.0496 106.371C61.8115 103.781 59.7953 103.719 58.9419 104.012C57.9268 104.428 56.314 105.985 57.9836 108.884Z" fill="#3B3A39"/>
<g filter="url(#filter2_g_3435_14313)">
<ellipse cx="1.26718" cy="1.35056" rx="1.26718" ry="1.35056" transform="matrix(0.892595 0.45086 -0.323948 0.946075 80.2534 96.1777)" fill="#696867"/>
</g>
<g filter="url(#filter3_g_3435_14313)">
<ellipse cx="1.26718" cy="1.35056" rx="1.26718" ry="1.35056" transform="matrix(0.892595 0.45086 -0.323948 0.946075 63.2152 97.2461)" fill="#696867"/>
</g>
<g filter="url(#filter4_ig_3435_14313)">
<ellipse cx="6.10653" cy="5.88002" rx="6.10653" ry="5.88002" transform="matrix(0.916376 0.400319 -0.368116 0.92978 77.7132 108.006)" fill="#FFF6D9"/>
</g>
<g filter="url(#filter5_ig_3435_14313)">
<ellipse cx="6.10653" cy="5.88002" rx="6.10653" ry="5.88002" transform="matrix(0.916376 0.400319 -0.368116 0.92978 66.6485 108.086)" fill="#FFF6D9"/>
</g>
<path d="M77.7088 112.802L76.5684 115.159C76.2526 115.812 75.3928 115.808 74.9672 115.152L73.5638 112.991C73.1282 112.32 73.455 111.445 74.1615 111.391L76.7053 111.196C77.4727 111.137 78.0598 112.077 77.7088 112.802Z" fill="#696867"/>
<ellipse cx="0.827329" cy="0.881764" rx="0.827329" ry="0.881764" transform="matrix(0.892595 0.45086 -0.323948 0.946075 58.985 104.818)" fill="white"/>
<ellipse cx="0.781402" cy="0.832815" rx="0.781402" ry="0.832815" transform="matrix(0.892595 0.45086 -0.323948 0.946075 86.5999 102.746)" fill="white"/>
<rect x="84.5389" y="71.1289" width="4.53253" height="6.34551" rx="2" fill="#CDD1D5"/>
<rect x="40.1202" y="71.1289" width="4.53253" height="6.34551" rx="2" fill="#CDD1D5"/>
<rect x="63.6893" y="56.625" width="1.81301" height="5.43901" fill="#D9D9D9"/>
<rect x="44.6527" y="60.252" width="39.8862" height="27.1951" rx="9" fill="#E6E8EA"/>
<rect x="48.2787" y="64.7832" width="32.6342" height="18.13" rx="5" fill="#464C53"/>
<ellipse cx="70.4881" cy="71.5824" rx="1.35976" ry="1.35975" fill="#51D3E1"/>
<ellipse cx="57.797" cy="71.5824" rx="1.35976" ry="1.35975" fill="#51D3E1"/>
<path d="M65.9169 73.8477C67.0215 73.8477 67.9594 74.8077 67.3797 75.7479C66.7413 76.7834 65.5967 77.4736 64.291 77.4736C62.9852 77.4736 61.8406 76.7834 61.2022 75.7479C60.6225 74.8077 61.5604 73.8477 62.665 73.8477H65.9169Z" fill="#51D3E1"/>
<ellipse cx="64.5958" cy="55.7195" rx="2.71952" ry="2.71951" fill="#CDD1D5"/>
<defs>
<filter id="filter0_g_3435_14313" x="26.7001" y="68.9227" width="77.9705" height="77.1684" filterUnits="userSpaceOnUse" color-interpolation-filters="sRGB">
<feFlood flood-opacity="0" result="BackgroundImageFix"/>
<feBlend mode="normal" in="SourceGraphic" in2="BackgroundImageFix" result="shape"/>
<feTurbulence type="fractalNoise" baseFrequency="10 10" numOctaves="3" seed="7242" />
<feDisplacementMap in="shape" scale="2.5999999046325684" xChannelSelector="R" yChannelSelector="G" result="displacedImage" width="100%" height="100%" />
<feMerge result="effect1_texture_3435_14313">
<feMergeNode in="displacedImage"/>
</feMerge>
</filter>
<filter id="filter2_g_3435_14313" x="78.9339" y="95.827" width="4.02615" height="4.40078" filterUnits="userSpaceOnUse" color-interpolation-filters="sRGB">
<feFlood flood-opacity="0" result="BackgroundImageFix"/>
<feBlend mode="normal" in="SourceGraphic" in2="BackgroundImageFix" result="shape"/>
<feTurbulence type="fractalNoise" baseFrequency="10 10" numOctaves="3" seed="7630" />
<feDisplacementMap in="shape" scale="1.6000000238418579" xChannelSelector="R" yChannelSelector="G" result="displacedImage" width="100%" height="100%" />
<feMerge result="effect1_texture_3435_14313">
<feMergeNode in="displacedImage"/>
</feMerge>
</filter>
<filter id="filter3_g_3435_14313" x="61.8957" y="96.8953" width="4.02615" height="4.40078" filterUnits="userSpaceOnUse" color-interpolation-filters="sRGB">
<feFlood flood-opacity="0" result="BackgroundImageFix"/>
<feBlend mode="normal" in="SourceGraphic" in2="BackgroundImageFix" result="shape"/>
<feTurbulence type="fractalNoise" baseFrequency="10 10" numOctaves="3" seed="7630" />
<feDisplacementMap in="shape" scale="1.6000000238418579" xChannelSelector="R" yChannelSelector="G" result="displacedImage" width="100%" height="100%" />
<feMerge result="effect1_texture_3435_14313">
<feMergeNode in="displacedImage"/>
</feMerge>
</filter>
<filter id="filter4_ig_3435_14313" x="74.943" y="109.728" width="14.2031" height="14.1805" filterUnits="userSpaceOnUse" color-interpolation-filters="sRGB">
<feFlood flood-opacity="0" result="BackgroundImageFix"/>
<feBlend mode="normal" in="SourceGraphic" in2="BackgroundImageFix" result="shape"/>
<feColorMatrix in="SourceAlpha" type="matrix" values="0 0 0 0 0 0 0 0 0 0 0 0 0 0 0 0 0 0 127 0" result="hardAlpha"/>
<feOffset dx="2" dy="2"/>
<feGaussianBlur stdDeviation="2"/>
<feComposite in2="hardAlpha" operator="arithmetic" k2="-1" k3="1"/>
<feColorMatrix type="matrix" values="0 0 0 0 1 0 0 0 0 1 0 0 0 0 1 0 0 0 0.25 0"/>
<feBlend mode="normal" in2="shape" result="effect1_innerShadow_3435_14313"/>
<feTurbulence type="fractalNoise" baseFrequency="10 10" numOctaves="3" seed="5329" />
<feDisplacementMap in="effect1_innerShadow_3435_14313" scale="0.40000000596046448" xChannelSelector="R" yChannelSelector="G" result="displacedImage" width="100%" height="100%" />
<feMerge result="effect2_texture_3435_14313">
<feMergeNode in="displacedImage"/>
</feMerge>
</filter>
<filter id="filter5_ig_3435_14313" x="63.8783" y="109.808" width="14.2031" height="14.1805" filterUnits="userSpaceOnUse" color-interpolation-filters="sRGB">
<feFlood flood-opacity="0" result="BackgroundImageFix"/>
<feBlend mode="normal" in="SourceGraphic" in2="BackgroundImageFix" result="shape"/>
<feColorMatrix in="SourceAlpha" type="matrix" values="0 0 0 0 0 0 0 0 0 0 0 0 0 0 0 0 0 0 127 0" result="hardAlpha"/>
<feOffset dx="2" dy="2"/>
<feGaussianBlur stdDeviation="2"/>
<feComposite in2="hardAlpha" operator="arithmetic" k2="-1" k3="1"/>
<feColorMatrix type="matrix" values="0 0 0 0 1 0 0 0 0 1 0 0 0 0 1 0 0 0 0.25 0"/>
<feBlend mode="normal" in2="shape" result="effect1_innerShadow_3435_14313"/>
<feTurbulence type="fractalNoise" baseFrequency="10 10" numOctaves="3" seed="5329" />
<feDisplacementMap in="effect1_innerShadow_3435_14313" scale="0.40000000596046448" xChannelSelector="R" yChannelSelector="G" result="displacedImage" width="100%" height="100%" />
<feMerge result="effect2_texture_3435_14313">
<feMergeNode in="displacedImage"/>
</feMerge>
</filter>
<linearGradient id="paint0_linear_3435_14313" x1="204.5" y1="64" x2="204.5" y2="132" gradientUnits="userSpaceOnUse">
<stop stop-color="#51D3E1"/>
<stop offset="1" stop-color="white" stop-opacity="0"/>
</linearGradient>
<linearGradient id="paint1_linear_3435_14313" x1="257.334" y1="76.1465" x2="257.334" y2="96.8149" gradientUnits="userSpaceOnUse">
<stop stop-color="#FAF6C7"/>
<stop offset="1" stop-color="#FFFABA"/>
</linearGradient>
<linearGradient id="paint2_linear_3435_14313" x1="267.668" y1="69.9473" x2="267.668" y2="84.4151" gradientUnits="userSpaceOnUse">
<stop stop-color="#FAF6C7"/>
<stop offset="1" stop-color="#FFFABA"/>
</linearGradient>
</defs>
</svg>
