<svg preserveAspectRatio="xMidYMid meet" width="100%" height="100%" overflow="visible" style="display: block;" viewBox="0 0 30.02 25.1538" fill="none" xmlns="http://www.w3.org/2000/svg">
<g id="Group">
<path id="Vector" d="M13.3122 8.52226L13.6761 8.53359C14.6573 9.42561 15.6484 9.42278 16.6282 8.53359L16.9935 8.52226C17.8134 8.64403 18.9333 8.77996 19.4685 9.52048C19.6229 9.73428 19.6059 9.91834 19.6838 10.0798L19.722 10.6051C18.8767 11.5707 18.6856 12.4386 18.8441 13.7059L18.551 13.9027C18.2254 14.2283 17.853 14.5342 17.4311 14.8216L14.8244 17.4254C13.6435 18.8031 12.4315 19.2803 11.1884 18.8583C10.4875 19.116 10.697 17.6902 11.3299 17.7256L11.2549 17.3674C11.514 16.9186 11.6499 16.406 11.6131 15.8849C11.4843 15.8708 11.4914 15.8212 11.6131 15.7434L11.7547 14.6106C11.5791 14.4337 11.5791 14.1972 11.7547 13.9027L11.4673 13.6563C11.4885 12.5321 11.2832 11.4957 10.5993 10.5796L10.622 10.2213C10.6687 10.1222 10.6305 9.92684 10.7523 9.72153C11.3271 8.75589 12.3041 8.69075 13.3122 8.52226Z" fill="#C7EAE4"/>
<path id="Vector_2" d="M24.073 17.4431C24.1693 17.8084 23.7077 18.2261 23.3651 18.2926C23.3297 18.3535 23.2348 18.4002 23.0819 18.4342C23.0082 18.6126 22.7675 18.6169 22.6571 18.4342C22.5198 18.4937 22.1899 18.5489 22.0511 18.5107C20.849 18.1751 18.3811 15.5132 18.6926 14.0449C18.4972 14.1738 18.4349 14.103 18.551 13.9033C18.6005 13.303 18.4632 12.6078 18.5836 12.0244C18.7237 11.3391 19.4232 10.7034 19.6837 10.0804C20.4044 11.5529 20.934 14.7713 22.0992 15.6647C22.7874 16.1928 24.5912 16.2636 24.073 17.4431Z" fill="#A2D3CD"/>
<path id="Vector_3" d="M11.7549 13.9032C11.5156 15.6887 10.1535 17.5194 8.54643 18.3492C8.26749 18.4936 7.91776 18.6649 7.64874 18.4341C7.58503 18.6238 7.33583 18.5785 7.22397 18.4341C7.08946 18.4738 7.04274 18.4256 7.08238 18.2925C6.66894 18.2005 6.27815 17.8706 6.23284 17.443C5.77834 16.2848 7.27353 16.2041 7.98006 15.7212C9.32092 14.8037 9.90286 11.761 10.6221 10.2219C11.6742 11.4112 11.7322 12.3981 11.7549 13.9032Z" fill="#A1D2CC"/>
<path id="Vector_4" d="M7.64888 23.5314C8.02127 23.0783 9.32956 23.3799 9.63115 23.8146C9.96105 23.4705 10.8871 23.6277 11.047 24.0978L11.6927 24.1304C11.9476 23.7764 12.9543 23.5923 13.3125 23.9562L13.4187 23.6603C13.8109 23.6305 14.2003 23.6348 14.5868 23.673C14.6703 23.4592 14.785 23.4606 14.87 23.673C15.1673 23.1661 16.7545 23.4663 16.9938 23.9562C17.4498 23.7622 17.9864 23.7183 18.6037 23.8231C19.4589 23.6504 20.2915 23.6008 21.0999 23.673C21.2146 23.2766 21.4029 23.2865 21.5247 23.673C21.8192 23.6065 22.0075 23.6532 22.0911 23.8146C22.0472 23.4012 22.3558 23.2015 22.6574 23.5314C22.6928 23.4054 22.7396 23.4097 22.799 23.5314C23.4758 23.4564 24.5845 23.4705 25.2061 23.673C25.1792 23.7849 24.92 23.7339 24.9342 23.7353C25.216 23.7509 27.6442 23.9335 26.6191 24.4277C25.8106 24.8171 22.1534 24.8411 21.0405 24.7873L20.392 24.5226L14.9592 24.5622C14.3999 24.6882 13.8562 24.7024 13.3281 24.6033C10.4255 24.7548 7.52712 24.8595 4.61178 24.5679C4.01002 24.558 3.85993 24.4036 4.03267 23.9449C4.09214 23.7877 6.42413 23.6617 6.79793 23.8146L6.83899 23.6603C7.07545 23.6971 7.25102 23.6546 7.36429 23.5314C7.45774 23.5371 7.55544 23.5215 7.64747 23.5314H7.64888Z" fill="#D9E8EE"/>
<path id="Vector_5" d="M11.3301 1.72661C11.3457 1.24237 11.8072 1.50006 12.3099 1.21972C12.7318 0.984676 13.0943 0.249823 13.587 0.0912422C14.4918 -0.200433 15.1389 0.504684 15.3583 0.448048C15.5183 0.406987 15.5141 0.0615082 15.6755 0.0204471C16.1413 -0.0970727 16.7417 0.312123 16.9257 0.732645C17.0404 0.994587 17.6535 2.89189 17.6733 3.11277C17.6988 3.40162 17.6195 3.71028 17.5601 3.99205C17.3463 4.21434 17.1098 4.35593 16.8521 4.41682C16.7133 4.46071 16.6666 4.41399 16.7105 4.27523C16.821 3.42286 16.491 3.04623 15.7194 3.14251C15.5027 2.86499 15.6203 2.65969 16.0748 2.52518L16.2857 2.29297C16.2277 2.1712 16.1328 2.12447 16.0026 2.15138C16.1498 2.53084 15.9006 2.65968 15.5778 2.43456C15.0879 2.40341 14.5895 2.31137 14.084 2.15987C12.6271 3.11844 11.7096 2.97401 11.3301 1.72661Z" fill="#2B595F"/>
<path id="Vector_6" d="M5.24166 23.6737C5.54042 23.617 6.53155 23.4853 6.74676 23.6326C6.78782 23.6609 6.79774 23.7317 6.79915 23.8152C6.05297 23.8464 5.35635 23.8124 4.60592 23.9582C4.3992 23.9979 4.16699 23.9568 4.10894 24.2386C9.5106 24.7582 14.9661 24.434 20.3918 24.5232L20.3592 24.7129C18.3147 24.7865 16.2489 24.8644 14.1618 24.948C14.1548 24.9565 14.0415 24.8559 13.9551 24.8885C13.427 25.0924 13.3236 25.0357 12.7459 24.948C12.3438 24.7993 11.8327 24.7483 11.6132 24.948C10.4805 24.8304 9.20052 25.1108 7.99559 25.0966C7.59206 25.0924 7.25224 24.955 6.87561 24.9423C4.57477 24.8644 2.27393 24.7922 0.00282711 24.3802C-0.0325704 24.1225 0.273264 24.2768 0.426181 24.24L1.27572 24.0984C2.2711 23.8591 2.85304 23.8917 3.82434 23.8152C4.09337 23.7133 4.37655 23.6666 4.67388 23.6737C4.8622 23.6652 5.05193 23.6836 5.24025 23.6737H5.24166Z" fill="#EBF2F7"/>
<path id="Vector_7" d="M25.2056 23.6724C25.4406 23.6667 25.6785 23.6681 25.9135 23.6724L26.7631 23.814C27.7627 23.8253 28.3871 24.0278 29.3117 24.0971L30.0196 24.2387C30.0225 24.4271 29.6416 24.4384 29.4788 24.4766C25.6006 25.3814 19.0506 25.1336 14.9375 25.0897C14.6982 25.0869 14.3074 25.1803 14.1601 24.9453C14.1771 24.9269 14.1219 24.7555 14.187 24.6975C14.4221 24.4922 19.5561 24.5502 20.3901 24.5205C22.4191 24.4483 24.458 24.5049 26.4785 24.2373C26.5082 23.8649 26.4955 24.0023 26.2632 23.9598C25.6417 23.8437 24.9875 23.7913 24.3546 23.8126C24.3843 23.5506 24.9974 23.678 25.2027 23.6724H25.2056Z" fill="#ECF3F8"/>
<path id="Vector_8" d="M16.0023 2.1512C16.1793 2.01952 16.3237 2.05633 16.2855 2.29279C16.3676 2.41314 16.4002 2.82517 16.5687 2.99933C16.0986 2.99083 16.008 2.68641 15.7191 3.14233C15.8409 3.17773 15.8381 3.22587 15.7191 3.28392C15.9712 3.54161 15.9089 3.63223 15.5776 3.70869C15.8706 3.7894 16.1057 3.88426 16.2855 3.99187C16.4087 4.22832 16.5036 4.51151 16.5687 4.84141C16.6905 4.88813 16.6905 4.93628 16.5687 4.983C16.8094 5.33981 16.6947 5.66263 16.2855 5.83254C16.1793 5.89342 16.0703 6.0874 16.0023 6.11572C15.7857 6.93553 14.3585 6.87323 14.1617 5.97413C13.8332 5.68953 13.6675 5.42476 13.5953 4.983C13.2923 5.01698 13.5061 4.55965 13.7227 4.41239L13.5953 4.13346C13.2413 4.00178 13.138 3.35613 13.5953 3.28392C13.6349 3.16074 13.6831 3.16215 13.7369 3.28392C14.1702 3.17631 14.9404 3.15649 14.5864 3.70869C14.4873 3.8432 14.4873 3.88992 14.5864 3.85028C14.7493 3.64639 14.7422 3.41843 14.5142 3.26551L14.5864 3.14233C14.4547 3.1041 14.4576 3.05737 14.5864 3.00074C14.3372 2.73172 14.4307 2.63685 14.8696 2.71756C14.8045 2.34942 15.0395 2.25456 15.5776 2.43438C15.7064 2.3565 15.7871 2.27297 16.0023 2.1512Z" fill="#E9B9A3"/>
<path id="Vector_9" d="M6.23253 17.4436C6.59784 17.438 6.89518 18.0326 7.08207 18.2932C7.00278 18.5225 6.70828 18.3951 6.51571 18.2932C6.41518 18.6457 5.57556 18.9855 5.2414 18.8595C5.26406 19.0436 5.26547 19.0931 5.09981 19.0011C4.40744 19.1059 3.64851 19.474 2.93207 19.2574C2.4365 19.1073 2.2312 17.8925 2.69278 18.0822C2.75933 18.1091 2.84145 18.2861 2.90517 18.2847C3.05384 18.2818 3.211 17.7325 3.3356 17.5937C3.97417 16.8872 4.67363 17.7126 5.31361 17.7395C5.76529 17.7579 6.07395 17.4479 6.23112 17.445L6.23253 17.4436Z" fill="#E7B7A1"/>
<path id="Vector_10" d="M24.0731 17.4426C24.202 17.4383 24.5517 17.7569 24.9921 17.7371C25.8076 17.7017 26.9927 16.5619 27.1895 18.2921C27.3326 18.4238 27.8083 17.7654 27.8961 18.2242C27.9485 18.496 27.6724 19.1657 27.3736 19.2564C26.5864 19.4942 25.8331 19.0355 25.0643 19.0001C25.0246 19.1233 24.9765 19.1218 24.9227 19.0001C24.5022 18.7792 24.0448 18.6362 23.5507 18.5696L23.3652 18.2921C23.3312 18.0443 23.9061 17.4468 24.0731 17.4426Z" fill="#E7B8A2"/>
<path id="Vector_11" d="M9.91394 22.3987C10.2892 21.9555 11.8523 22.0943 12.0378 22.6819C12.8038 23.0019 11.5663 23.9817 11.1883 23.3898L11.0637 23.6858C10.4463 23.5796 9.96916 23.622 9.63076 23.8146C8.93273 23.7197 8.18088 23.5852 7.6485 23.5314C7.32285 23.2058 7.22232 22.6847 7.6485 22.3987C7.6485 22.3194 7.65417 22.2415 7.67824 22.1707C7.85664 21.6469 9.5359 22.2486 9.91394 22.3987Z" fill="#C7EAE4"/>
<path id="Vector_12" d="M25.0644 19.0012C25.298 19.4388 25.2824 20.008 24.9865 20.4101L22.5157 22.3994C22.2864 22.5566 21.9494 22.5877 21.5034 22.4914C20.9427 22.7222 20.5717 22.6925 20.3919 22.3994L20.348 22.204C21.3349 21.581 22.3713 20.9807 23.4573 20.4044L24.9242 19.0012H25.0658H25.0644Z" fill="#6392A0"/>
<path id="Vector_13" d="M11.3302 1.72724C11.728 1.63521 11.5723 2.026 11.7535 2.21856C12.5917 3.10491 13.277 1.90989 14.1025 1.87591C14.4749 1.86034 15.2749 2.169 15.5765 2.43519C15.2834 2.61218 14.9959 2.64616 14.8685 2.71837C14.4862 2.70988 14.1096 2.75802 13.7358 2.85996C13.9156 2.96332 13.8689 3.10491 13.5942 3.28473C13.563 3.55517 13.6154 3.85817 13.5942 4.13427C13.6933 4.5194 13.5914 4.56188 13.311 4.27586C13.0193 4.33675 12.6795 3.99835 12.7447 3.7095C12.3864 3.39659 12.4473 3.43482 11.9829 3.12615C11.5185 2.81749 11.3132 2.24546 11.3288 1.72724H11.3302Z" fill="#244A50"/>
<path id="Vector_14" d="M9.91413 22.3978C9.31237 22.3511 8.1046 22.0919 7.64868 22.3978C7.71806 22.0835 7.47594 22.0976 7.29896 21.9758C6.27243 21.2665 4.72202 20.5146 5.10006 18.9996C5.11847 18.9274 5.20342 18.8991 5.24165 18.858C5.54324 18.9812 5.79102 19.2545 5.985 19.6778C7.1163 20.6562 8.41185 21.4449 9.87165 22.041L9.91554 22.3978H9.91413Z" fill="#6492A0"/>
<path id="Vector_15" d="M22.5155 22.3971C23.0705 22.669 22.9771 23.0173 22.7987 23.5298C22.752 23.5355 22.7038 23.5242 22.6571 23.5298L22.347 23.4817C22.0185 22.7284 21.3516 22.8686 20.9693 23.4817L20.6748 23.3868C20.4115 23.8385 18.4066 23.7026 18.1276 23.3826C17.802 23.0088 17.7199 22.7228 18.2678 22.6789C18.4915 22.2301 20.0901 21.9667 20.3917 22.3957C21.0585 22.3405 21.9392 22.114 22.5155 22.3957V22.3971Z" fill="#C7E9E4"/>
<path id="Vector_16" d="M16.0023 6.11701C16.025 6.58567 15.9697 7.06566 16.0023 7.53291L15.9428 7.91804C15.3581 8.05396 14.7634 8.06812 14.1616 7.95768C14.2494 7.24831 14.3231 6.68479 14.1616 5.97542C14.8554 6.57576 15.2264 6.44267 16.0023 6.11701Z" fill="#E2A88D"/>
<path id="Vector_17" d="M16.2854 8.38136C16.3916 9.48435 13.9152 9.49568 14.0199 8.38136C14.0978 8.2511 14.1431 8.1081 14.1615 7.95659C14.5282 7.34492 15.3948 8.10668 16.0022 7.53182C16.0263 7.88014 16.0079 8.10668 16.2854 8.38136Z" fill="#E7B8A2"/>
<path id="Vector_18" d="M14.0202 8.38067C14.2057 8.4458 14.4606 8.93004 15.085 8.95694C15.8283 8.98809 16.0251 8.47128 16.2857 8.38067C16.6071 8.26881 16.8336 8.49819 16.9936 8.52226C15.8396 9.7909 14.4648 9.78949 13.3123 8.52226C13.4793 8.49394 13.6988 8.26881 14.0202 8.38067Z" fill="#A4D2CB"/>
<path id="Vector_19" d="M13.3123 4.27447C13.9764 4.10598 13.6635 5.13109 13.1707 4.84083C12.5746 4.57464 12.5208 4.36933 12.746 3.70811C12.9895 3.92049 13.0546 3.63023 13.3123 4.27447Z" fill="#D9B09B"/>
<path id="Vector_20" d="M11.6132 24.9476C11.5339 24.5186 11.8298 24.6757 12.1017 24.6644C12.6213 24.6446 13.1452 24.68 13.6649 24.6644C13.7371 25.0821 13.1962 24.7748 12.964 24.8017C12.8266 24.8173 12.7672 24.9433 12.7459 24.9476C12.0323 25.1019 12.1923 25.007 11.6132 24.9476Z" fill="#ECF3F8"/>
<path id="Vector_21" d="M17.5599 3.99113C17.4707 4.41307 17.5571 4.55325 17.1351 4.84067C16.9369 4.90439 16.7033 4.93554 16.7104 4.69908C16.4159 4.45413 16.4739 4.35785 16.852 4.4159C17.0799 3.95998 16.8463 3.6145 17.5599 3.99113Z" fill="#E9B9A3"/>
<path id="Vector_22" d="M13.5954 4.13411C13.8305 4.10579 14.2397 4.195 14.1618 4.48667C14.1221 4.63392 13.7823 4.66224 13.6421 4.75286C13.5671 4.79958 13.6067 4.97799 13.5968 4.98507C13.434 5.09409 13.2599 4.88312 13.1721 4.84348C13.645 4.9171 13.4467 4.61127 13.3137 4.27712C13.4198 4.29127 13.5572 4.13977 13.5968 4.13553L13.5954 4.13411Z" fill="#DEA990"/>
<path id="Vector_23" d="M7.3655 23.5311C7.4547 23.9531 7.15595 23.7987 6.79914 23.8143C6.44233 23.5736 5.7089 23.6486 5.24165 23.6727C5.80235 23.4377 6.7241 23.4957 7.3655 23.5311Z" fill="#DEE7EB"/>
<path id="Vector_24" d="M16.2857 5.8332C16.5179 5.58825 16.484 5.2187 16.5689 4.98366C16.6086 4.86048 16.6567 4.86189 16.7105 4.98366C17.1636 5.90541 16.5916 5.65621 16.2857 5.8332Z" fill="#2D4042"/>
<path id="Vector_25" d="M4.67541 23.6725C4.53666 23.6781 4.13029 23.79 3.82587 23.8141C3.98445 23.5635 4.40922 23.6923 4.67541 23.6725Z" fill="#DEE7EB"/>
<path id="Vector_26" d="M26.7636 23.8141C26.496 23.8112 26.067 23.9103 25.914 23.6725C26.1817 23.6767 26.6093 23.5762 26.7636 23.8141Z" fill="#D9E8EE"/>
<path id="Vector_27" d="M1.27703 24.0974C1.04199 24.154 0.782885 24.3551 0.427494 24.239C0.678108 24.1795 0.928722 23.9827 1.27703 24.0974Z" fill="#CED6DA"/>
<path id="Vector_28" d="M17.1353 4.84135C16.9909 4.93905 16.9258 5.03108 16.7106 4.98294H16.569C16.5845 4.94188 16.5534 4.88241 16.569 4.84135C16.375 4.60065 16.4557 4.51569 16.7106 4.69976L17.1353 4.84135Z" fill="#DBB19D"/>
<path id="Vector_29" d="M30.0199 24.2393C29.7934 24.2308 29.4323 24.3271 29.312 24.0977C29.5584 24.1161 29.9803 23.9929 30.0199 24.2393Z" fill="#CDD5DA"/>
<path id="Vector_30" d="M18.5512 13.9037C18.6659 13.9235 18.6517 13.966 18.6928 14.0453C18.6814 14.5196 18.7494 14.9854 18.9136 15.4329L18.6928 15.7443C18.6984 16.5245 18.8174 17.2891 19.051 18.0409L18.8344 18.293C18.3714 18.477 17.8999 18.5719 17.4185 18.5761C17.4312 18.6569 17.4354 18.7234 17.41 18.7376C17.0461 18.9443 14.7424 19.8547 14.5059 19.7315C14.4493 19.7018 14.4097 19.6395 14.3743 19.5659C14.227 20.0515 12.5265 19.9736 12.2504 19.5659L12.1386 19.7131C11.8823 19.5885 11.6161 19.5121 11.3301 19.5659C11.0738 19.9057 10.9832 19.8236 10.9053 19.4243C10.7991 19.168 10.9124 18.923 11.1885 18.8579C11.4575 18.62 11.7747 18.8763 12.1839 18.8027C14.3799 18.4077 17.308 13.6927 18.5512 13.9023V13.9037Z" fill="#A2D3CD"/>
<path id="Vector_31" d="M11.7548 14.6103L11.6132 15.7431C11.6175 15.7898 11.6104 15.8379 11.6132 15.8846C11.6514 16.3661 11.5736 17.2227 11.0469 17.3005C11.2125 18.0722 10.1138 19.035 9.34777 18.9996C9.02778 19.1582 8.47558 18.9572 8.21505 18.7164C8.0947 19.0973 7.91771 19.103 7.79028 18.7164C7.52551 18.6145 7.47737 18.5196 7.64869 18.4333C8.6908 18.2209 10.5116 16.4199 11.0242 15.508C11.3046 15.011 11.3612 14.3356 11.7548 13.9024C11.7591 14.1374 11.7576 14.3753 11.7548 14.6103Z" fill="#84BBB5"/>
<path id="Vector_32" d="M11.6132 15.7443C11.5877 15.4158 11.524 14.8268 11.7548 14.6116C11.7519 14.967 11.8652 15.5092 11.6132 15.7443Z" fill="#A1D2CC"/>
<path id="Vector_33" d="M23.3653 18.2929C23.868 18.249 24.9228 18.443 24.9228 19.0008C24.9228 20.4549 21.4468 21.7109 20.3919 22.399C19.776 22.45 18.8656 22.6439 18.2681 22.6822C18.0543 23.0687 17.747 23.0999 17.5601 22.6822C17.1141 22.743 16.5393 21.7576 16.8522 21.4078C17.5134 20.6008 18.8755 20.0132 19.8865 19.5941C20.668 19.2713 21.5516 18.9314 22.3742 18.8592C22.411 18.6468 22.6177 18.6256 22.799 18.7176C23.2124 18.4854 23.3073 18.3906 23.0822 18.4345C23.1218 18.2971 23.245 18.3028 23.3653 18.2929Z" fill="#77A4B1"/>
<path id="Vector_34" d="M22.6571 18.4349C22.7803 18.4745 22.7789 18.5227 22.6571 18.5765C22.5778 18.7506 22.289 18.7535 22.0907 18.7181C21.8076 18.9828 21.2893 19.2122 20.958 19.0013C19.5874 18.8894 18.5184 17.0926 18.6926 15.7447C18.5835 15.2293 18.3556 14.527 18.6926 14.0456C18.8851 14.4095 18.9644 14.9574 19.232 15.4176C19.8324 16.4498 21.4777 18.2069 22.6571 18.4349Z" fill="#84BAB4"/>
<path id="Vector_35" d="M23.0817 18.4341C23.1752 18.4412 23.2715 18.4271 23.3635 18.4356V18.5743C23.1554 18.5545 22.984 18.6536 22.7986 18.7173C22.5947 18.7485 22.5479 18.7017 22.657 18.5757V18.4341C22.7801 18.4582 22.9444 18.4228 23.0817 18.4341Z" fill="#4A737B"/>
<path id="Vector_36" d="M7.08239 18.2932C7.1192 18.3442 7.18575 18.3824 7.22398 18.4348C7.30185 18.5254 7.25513 18.5721 7.08239 18.5764C6.85443 19.0125 6.26541 18.742 6.51603 18.2932C6.70293 18.279 6.89549 18.3031 7.08239 18.2932Z" fill="#728181"/>
<path id="Vector_37" d="M7.64869 18.4329L7.79028 18.7161C7.61046 19.1012 7.08941 18.9979 7.08233 18.5745C7.09932 18.5065 7.15737 18.4442 7.22392 18.4329C7.35418 18.4103 7.52268 18.4584 7.64869 18.4329Z" fill="#385E63"/>
<path id="Vector_38" d="M17.5601 22.6819C17.7937 22.6664 18.0344 22.6975 18.268 22.6819C17.7951 23.2936 18.9647 23.3503 19.3314 23.3871C19.759 23.4295 20.2857 23.3219 20.6751 23.3899C21.0319 23.1421 21.2046 23.2497 21.0998 23.6731C19.0723 24.0879 19.0836 24.2508 16.9937 23.9563C17.1027 23.6802 17.0051 23.3588 16.8521 23.0968L16.9937 22.8235C16.8337 22.4002 17.3675 22.3237 17.5601 22.6819Z" fill="#C6E5E0"/>
<path id="Vector_39" d="M15.2945 22.1161C15.8411 21.9915 16.7841 22.2931 16.9936 22.824C17.2966 23.1299 17.5274 24.0729 16.9936 23.9568C16.3168 23.8619 15.5154 23.6438 14.8698 23.6736C14.7338 23.6212 14.6404 23.5263 14.5866 23.3904C14.2921 23.1058 14.6036 22.1699 15.0114 22.1161C15.0637 21.7451 15.1799 21.7593 15.2945 22.1161Z" fill="#E8BAA3"/>
<path id="Vector_40" d="M12.604 22.8232C13.0486 22.7509 13.0529 22.8217 13.0288 23.2479C13.3573 23.4462 13.4507 23.6826 13.312 23.9559C12.26 24.1102 12.1623 24.2575 11.0465 24.0975C10.861 23.7831 10.7747 23.5028 11.1881 23.3895C11.5279 23.3428 12.2359 23.1035 12.0377 22.6816C12.2642 22.3318 12.6026 22.3899 12.604 22.8232Z" fill="#C6E6E1"/>
<path id="Vector_41" d="M20.675 23.3882C20.9624 23.2593 21.121 22.7199 21.4169 22.7085C22.1348 22.6816 22.4718 22.8544 22.6572 23.5298C22.5072 23.5453 22.2537 23.7889 22.0909 23.8129C21.9521 23.6898 21.7638 23.643 21.5245 23.6713C21.3886 23.6855 21.2215 23.6459 21.0998 23.6713C20.9879 23.609 20.7699 23.4052 20.675 23.3882Z" fill="#CAEBE5"/>
<path id="Vector_42" d="M11.1884 23.3902V23.9579H11.7548V24.0967L11.0468 24.0981C10.5838 24.0316 10.0939 23.8772 9.63093 23.8149L9.41996 23.5317C9.97216 23.2542 10.6263 23.468 11.1884 23.3902Z" fill="#C4E4DF"/>
<path id="Vector_43" d="M14.3037 23.5306C14.5444 23.4697 14.6392 23.5164 14.5869 23.6722C14.2725 23.709 13.7501 23.8916 13.3125 23.9554C13.0761 23.8038 13.0138 23.5122 13.0294 23.2474C13.2913 22.9501 14.1578 23.1596 14.3037 23.5306Z" fill="#DDB5A1"/>
<path id="Vector_44" d="M14.5866 23.3902C14.8882 23.3562 14.9037 23.3718 14.8698 23.6734C14.7763 23.6776 14.6786 23.6621 14.5866 23.6734C14.479 23.6847 14.3515 23.5389 14.3034 23.5318C14.2496 23.1552 14.326 23.1183 14.5866 23.3902Z" fill="#E0B09A"/>
<path id="Vector_45" d="M21.5244 23.6729C21.7155 23.6545 22.1629 23.2213 22.0907 23.8145C21.9024 23.8428 21.6872 23.7692 21.5244 23.6729Z" fill="#C6E5E0"/>
<path id="Vector_46" d="M16.5686 3.9919C16.6522 4.02163 16.7003 4.1165 16.7102 4.27508C16.747 4.3303 16.8051 4.37136 16.8518 4.41667C16.8122 4.49596 16.7315 4.64746 16.7102 4.69985C16.706 4.70976 16.6409 4.64888 16.5686 4.84144C15.9556 4.68711 16.1 4.49171 16.2855 3.9919C16.478 3.74695 16.5729 3.74695 16.5686 3.9919Z" fill="#E6AC90"/>
<path id="Vector_47" d="M16.2859 2.29186C16.2718 2.27063 16.0523 2.24656 16.0028 2.15027C16.0311 2.1347 16.0452 2.00161 16.1415 1.95771C16.2874 1.88975 16.6342 2.00444 16.8523 1.7255L16.2874 2.29186H16.2859Z" fill="#265157"/>
<path id="Vector_48" d="M16.7105 4.2751C16.6354 4.16324 16.6014 4.18023 16.5689 3.99192C16.4485 3.6167 16.1908 3.44538 15.793 3.47936L15.7193 3.28397C15.7363 3.24007 15.6995 3.17353 15.7193 3.14238C16.7643 3.0107 16.7827 3.33919 16.7105 4.2751Z" fill="#D4A790"/>
<path id="Vector_49" d="M15.7193 3.28458C15.892 3.31573 16.5235 3.23927 16.5702 3.28458C16.6099 3.32423 16.5405 3.82829 16.5702 3.99395C16.4753 3.99395 16.3819 3.99537 16.287 3.99395C16.0747 3.89342 15.8382 3.79855 15.5791 3.71077C15.521 3.47715 15.6754 3.40635 15.7207 3.286L15.7193 3.28458Z" fill="#E0B59E"/>
<path id="Vector_50" d="M14.8699 2.7172C14.8189 2.74552 14.5966 2.9664 14.5867 3.00038C14.3715 3.06834 13.74 3.11931 13.7372 2.85879C14.111 2.17066 14.2851 2.57986 14.8699 2.7172Z" fill="#BDA395"/>
<path id="Vector_51" d="M14.5868 3.00075C14.5769 3.03332 14.5811 3.10694 14.5868 3.14234C14.3688 3.23154 14.0856 3.27827 13.7373 3.28393H13.5957C13.6254 3.02624 13.6268 3.06163 13.7373 2.85916L14.5868 3.00075Z" fill="#2F5457"/>
<path id="Vector_52" d="M15.5778 3.70811H16.4274C16.4685 3.73643 16.3184 3.90492 16.2858 3.99129C16.0125 3.98562 15.6642 4.05359 15.5778 3.70811Z" fill="#847C72"/>
<path id="Vector_53" d="M14.5867 3.70811C14.6929 3.74775 14.6901 3.79589 14.5867 3.8497C14.4508 4.05076 13.791 4.07483 13.7372 3.70952H14.5867V3.70811Z" fill="#77756B"/>
<path id="Vector_54" d="M14.5867 3.14243C14.6377 3.43269 15.1021 3.66915 14.5867 3.85038C14.6023 3.82631 14.5796 3.75977 14.5867 3.70879C14.6986 2.94279 14.2738 3.55871 13.7372 3.28402C13.8957 3.03341 14.3205 3.16225 14.5867 3.14243Z" fill="#D7AB96"/>
<path id="Vector_55" d="M15.4363 4.55878C15.3004 4.93824 14.9492 4.93966 14.7298 4.62816L15.4363 4.55878Z" fill="#E3A893"/>
<path id="Vector_56" d="M15.5779 5.12647H14.7298V5.26523H15.5779V5.12647Z" fill="#E6AD98"/>
<path id="Vector_57" d="M6.51596 18.2921C6.64905 18.52 6.86286 18.52 7.08232 18.5752C7.30179 18.6305 7.56656 18.6758 7.79027 18.7168C7.91912 18.7409 8.08903 18.6913 8.21504 18.7168C9.48086 19.1515 10.7665 19.7037 12.072 20.372L12.3212 20.6991C12.6397 20.3168 13.628 21.1253 13.5955 21.5486C13.3505 22.023 13.1098 22.5115 12.8762 23.0141L12.6043 22.8229C12.4656 22.755 12.2093 22.7394 12.038 22.6814C11.3484 22.4477 10.6221 22.4534 9.91412 22.3982C8.37504 21.4354 5.7627 20.7869 5.24165 18.8584C5.57155 18.5059 6.05013 18.3275 6.51596 18.2921Z" fill="#77A4B1"/>
<path id="Vector_58" d="M17.4186 18.5762C17.6919 18.5309 17.8335 18.5776 17.8434 18.7178L17.8037 19.0421C16.9075 19.4442 16.1174 19.9978 15.4363 20.7001L15.2848 20.9889C14.4438 20.911 13.6212 20.7312 12.8183 20.4509L12.7447 20.1337C12.453 20.5004 11.3232 20.0049 11.3288 19.5674C11.6658 19.2318 12.0736 19.5674 12.2492 19.5674H14.373C14.5344 19.5674 16.7022 18.7291 17.4172 18.5762H17.4186Z" fill="#88BDB7"/>
<path id="Vector_59" d="M9.34761 19.0014C9.86017 19.1331 10.3968 19.2775 10.9051 19.4262C11.0297 19.463 11.1713 19.5211 11.3299 19.5678C11.7688 19.6952 12.3465 20.0181 12.7458 20.1342C13.0785 20.3961 12.6792 20.8733 12.321 20.7005C11.1161 20.1299 9.88424 19.5452 8.63683 19.068C8.41737 18.9845 8.13135 19.1091 8.21489 18.7183C8.60568 18.799 8.96532 18.9037 9.34761 19.0014Z" fill="#375E66"/>
<path id="Vector_60" d="M18.8344 18.2919C18.8486 18.3358 18.8189 18.3924 18.8344 18.4335C18.7934 18.7846 18.0359 19.0522 17.8433 18.7166L17.4185 18.575C17.8631 18.4802 18.3459 18.2593 18.8344 18.2919Z" fill="#92C5BF"/>
<path id="Vector_61" d="M22.0911 18.7174C22.3361 18.6607 22.4309 18.7074 22.3743 18.8589C20.3212 19.6037 18.7708 20.4717 16.8523 21.4076C16.8296 21.8253 16.3765 21.8394 16.1443 21.5492C15.6643 21.6086 15.1928 21.7035 14.7284 21.8323C14.5415 22.2217 13.6127 22.0164 13.5957 21.5492C13.212 21.3708 12.7065 20.8823 12.3214 20.6996L12.7462 20.1333C13.4499 20.3386 14.7468 20.7605 15.4364 20.6996C15.5341 20.5651 15.6672 20.4221 15.8158 20.3485C16.4516 20.0356 18.4027 19.3998 19.1361 19.2115L19.4009 19.4253C19.9078 19.2724 20.4458 19.1464 20.9584 19.0005C21.3364 18.8929 21.7088 18.8094 22.0911 18.7174Z" fill="#365D65"/>
<path id="Vector_62" d="M16.8519 21.4066L17.5599 22.6809C17.2979 22.6979 17.0233 22.8225 16.9935 22.8225C16.6721 22.8225 15.6866 22.2604 15.2944 22.1145C15.2944 21.6643 15.7532 21.5383 16.144 21.5482C16.4314 21.4038 16.7585 21.4519 16.8519 21.4066Z" fill="#A8D5CF"/>
<path id="Vector_63" d="M22.6576 18.5747C22.7227 18.579 22.785 18.6483 22.7991 18.7163C22.6576 18.7659 22.5174 18.8069 22.3744 18.8579L22.0912 18.7163C22.2724 18.6724 22.3064 18.5506 22.6576 18.5747Z" fill="#436D74"/>
<path id="Vector_64" d="M14.7278 21.833C15.0549 21.6362 15.113 21.7778 15.011 22.1162C14.9685 22.4348 14.7406 23.1498 14.5863 23.3905C14.5565 23.4372 14.371 23.4783 14.3031 23.5321C13.8103 23.457 13.5328 23.5151 13.0288 23.2489C12.9608 23.1838 12.924 23.1031 12.8914 23.0181C12.8617 22.9402 13.4748 21.7537 13.5951 21.5498C13.9095 21.6957 14.4716 21.7226 14.7278 21.833Z" fill="#A6D5CF"/>
<path id="Vector_65" d="M16.1439 21.5489C15.991 21.6253 15.6314 22.0954 15.2944 22.1152C15.2222 22.0883 15.0806 22.1421 15.0112 22.1152C14.8356 22.0458 14.7535 21.8434 14.728 21.832C14.8441 21.1071 15.6031 21.4299 16.1439 21.5489Z" fill="#375E66"/>
<path id="Vector_66" d="M13.5955 21.5486C13.781 21.744 13.049 22.9051 13.0291 23.2477C12.7927 23.1231 12.6355 22.8385 12.6044 22.8229C13.0886 23.0042 13.1976 21.1309 13.5955 21.5486Z" fill="#89B5BE"/>
<path id="Vector_67" d="M18.8345 18.4354C18.9053 18.6223 19.3513 19.0782 19.4009 19.4265C18.3545 19.7408 16.4048 20.6159 15.4364 20.7008C15.6643 19.7253 16.9839 19.0739 17.8434 18.7185C18.1634 18.5855 18.4735 18.4311 18.8345 18.4354Z" fill="#A1D2CC"/>
</g>
</svg>
