<svg preserveAspectRatio="xMidYMid meet" width="100%" height="100%" overflow="visible" style="display: block;" viewBox="0 0 20.0393 25.8969" fill="none" xmlns="http://www.w3.org/2000/svg">
<g id="Group">
<path id="Vector" d="M14.2494 13.0117L14.3291 13.037C14.4015 13.2736 14.4873 13.5054 14.5838 13.7324C14.5645 13.7879 14.5657 13.7915 14.6176 13.8144C14.5331 14.1537 14.6369 14.1911 14.7166 14.5025C15.0655 15.8702 15.3588 17.2537 15.6304 18.6395C16.2183 20.0084 16.7253 21.4123 17.3663 22.7571C17.3953 22.8163 17.4508 23.0239 17.4653 23.042C17.4726 23.0505 17.5474 22.9998 17.6355 23.1567C17.6633 23.2062 17.8178 23.5997 17.8239 23.6396C17.8408 23.7554 17.5619 23.8906 17.4605 23.9486C17.4846 24.0464 17.4134 24.0621 17.3603 23.9824C17.2565 24.0669 17.2046 23.9534 17.2565 23.8472L17.1418 23.7398C16.7917 23.9546 16.7579 23.5985 17.0887 23.5031L17.2794 23.3209C17.178 23.3523 17.1478 23.3498 17.0597 23.2979C16.9933 23.3221 16.9281 23.3088 16.863 23.2557C16.7917 23.2871 16.729 23.2846 16.677 23.2472C16.5322 22.9623 16.3608 22.6992 16.1616 22.4565L16.1797 22.3588C16.0723 22.2477 16.0083 22.1258 15.989 21.9918C15.7741 21.9049 15.7234 21.7503 15.7487 21.5367C15.5822 21.3809 15.5158 21.1999 15.447 20.991C15.3335 21.3218 15.1621 21.0538 15.1452 20.851C15.045 20.7387 14.9701 20.5951 15.0594 20.4551C14.9436 20.3633 14.8591 20.2595 14.8059 20.1424C14.8844 20.0845 14.8941 20.0217 14.8361 19.9529C14.6659 19.9034 14.6901 19.7935 14.7396 19.6583C14.6043 19.4471 14.4595 19.1863 14.4848 18.934C14.2869 18.9111 14.2796 18.5707 14.5283 18.5695C14.3931 18.5296 14.3545 18.4331 14.4148 18.281C14.3521 18.1554 14.3013 18.0299 14.2627 17.9019C14.1927 17.8693 14.107 17.8681 14.0068 17.8959C13.9718 17.7546 13.9416 17.6061 13.9163 17.4528C13.769 17.3297 13.7328 17.2054 13.8016 17.0255C13.6386 16.9301 13.5505 16.772 13.5348 16.5511C13.4093 16.4811 13.3489 16.3966 13.3561 16.2988C13.1787 16.1237 13.105 15.9487 13.1352 15.7725C13.0036 15.6433 12.9892 15.5262 13.0314 15.35C12.8346 15.158 12.8636 15.0011 12.9191 14.7729C12.831 14.657 12.8564 14.5025 12.994 14.3094C12.9481 14.0836 13.1135 14.074 13.2885 14.0836C13.2487 14.0112 13.2306 13.9472 13.2849 13.8748C13.2221 13.7106 13.3356 13.2736 13.5589 13.3171L13.6145 13.2616C13.5638 13.1095 13.7666 12.9646 13.9054 12.9404C13.9283 12.7002 14.0104 12.6024 14.1517 12.6447C14.2724 12.6604 14.3231 12.926 14.2519 13.0129L14.2494 13.0117Z" fill="#B1DDDE"/>
<path id="Vector_2" d="M8.63122 16.1238C8.7459 16.1117 8.82316 16.1347 8.86541 16.1902L8.93663 16.1624C9.27705 16.2312 9.71042 16.329 9.96876 16.5584C10.2211 16.632 10.4782 16.7068 10.7377 16.7829L10.786 16.8348C11.1795 16.9591 11.5646 17.1016 11.9425 17.2609C11.9727 17.2694 11.9727 17.2803 11.9425 17.2947C11.9123 17.436 11.8556 17.5241 11.7747 17.5627L11.4512 18.3063L11.4065 18.3329C11.3135 18.5816 11.1989 18.8134 11.0624 19.0246C10.9683 19.0958 10.343 19.184 10.2235 19.1646L10.1679 19.1019C10.0702 19.1912 9.90961 19.2129 9.78768 19.1646C9.74664 19.1924 9.68387 19.1936 9.63196 19.1948C9.34103 19.2009 8.92215 19.2021 8.6952 19.0343C8.66502 19.0113 8.65295 18.9739 8.65898 18.9232C8.46825 18.8049 8.68916 18.5466 8.82678 18.4597C8.71451 18.3812 8.60466 18.2943 8.49843 18.2001L8.3753 18.2605C8.48153 18.4343 8.37409 18.4705 8.20992 18.4488L8.10007 18.526C8.21595 18.6564 8.12421 18.7482 7.82483 18.7989L7.74033 18.8472C7.34076 18.7385 6.8929 18.6081 6.55852 18.3534C6.51506 18.3196 6.31708 18.1554 6.39676 18.1518C6.42814 18.1506 6.40641 18.182 6.35209 18.1301C6.54162 17.6521 6.75287 17.1752 7.00396 16.725C7.08725 16.5753 7.30817 16.1697 7.42405 16.0755C7.46993 16.0381 7.51338 16.0236 7.57133 16.0224C7.82725 16.0188 8.17732 16.1407 8.44411 16.1588C8.51895 16.1636 8.61915 16.119 8.62639 16.1238H8.63122Z" fill="#FEC290"/>
<path id="Vector_3" d="M9.66713 5.421C9.91942 5.23751 10.016 5.66243 9.66833 5.62501L9.71783 5.72158C9.65988 5.83143 9.59228 5.94008 9.51381 6.04872C9.59107 6.18272 9.5621 6.27326 9.46553 6.38794L9.49812 6.47727C9.38223 6.63782 9.42328 6.84063 9.60435 6.91788C9.70093 7.03136 9.64057 7.07481 9.54158 7.14362C9.53192 7.23175 9.51502 7.31746 9.48967 7.40196C9.58987 7.4756 9.60797 7.54561 9.56089 7.65546L9.60918 7.69047C9.57297 7.82205 9.58262 7.94035 9.63815 8.04537C9.73955 8.09124 9.74076 8.2349 9.63333 8.26387L9.70334 8.32061L9.69006 9.03284C9.6973 9.1101 9.72748 9.18253 9.77818 9.25013C9.75404 9.51329 9.73956 9.77645 9.73593 10.0408C9.62608 10.0469 9.62487 10.0758 9.73473 10.1277C9.70817 10.5804 9.70093 11.0367 9.713 11.4967L9.66833 11.5739L9.72265 11.6584C9.60918 12.1135 9.56331 12.5819 9.58383 13.0648C9.58745 13.1203 9.55124 13.1553 9.50054 13.1794C9.58624 13.2495 9.50295 13.4197 9.40276 13.4547L9.45829 13.5621C9.44621 13.7939 9.59107 14.0438 9.72145 14.2248L9.70334 14.2852C9.83371 14.2611 9.94598 14.2792 10.0426 14.3383C10.2224 14.2538 10.3528 14.2623 10.4337 14.3649C10.482 14.3359 10.5278 14.3311 10.5713 14.3504C10.5797 13.8277 10.6473 13.3147 10.7717 12.8125C10.8079 12.7087 10.9503 12.763 10.9165 12.8704C11.0542 13.0092 11.1399 13.1046 10.966 13.2543C11.0626 13.3593 11.0855 13.4728 11.0373 13.5947C11.1338 13.6768 11.0928 13.8567 11.0373 13.9677L11.0409 14.0498C11.0868 14.0969 11.053 14.1524 10.9407 14.2176C10.9817 14.3094 10.8767 14.3371 10.7934 14.3311L10.7729 14.5448C10.6811 14.6063 10.6256 14.6775 10.5725 14.7862C10.5484 14.9117 10.4651 14.9721 10.3383 14.954C10.2164 14.9721 10.1536 14.7657 10.2719 14.7198C10.2297 14.6715 10.249 14.6534 10.3057 14.686L10.2635 14.6691C10.3178 14.6896 10.3274 14.5629 10.319 14.523C10.3093 14.4772 9.81199 14.5182 9.6792 14.5689C9.54037 14.5665 9.40396 14.5713 9.26876 14.5846C9.37982 14.5846 9.3424 14.7294 9.23496 14.6848C9.19512 14.6703 9.17339 14.6329 9.16857 14.5749C8.90058 14.5786 8.81849 14.5291 8.76658 14.2454C8.69415 13.8482 8.66276 13.3074 8.64224 12.8946C8.61086 12.2234 8.62413 11.5293 8.66639 10.8713C8.77865 10.3185 8.67725 9.50725 8.70019 8.91453C8.74968 7.60959 8.8209 6.43623 9.66954 5.41859L9.66713 5.421Z" fill="#6AA4AB"/>
<path id="Vector_4" d="M6.32319 18.229C6.45839 18.3268 6.58152 18.439 6.695 18.567L6.76984 18.561C6.97506 18.6937 7.24305 18.8217 7.50863 18.8169C7.62934 18.8821 7.75127 18.9279 7.87319 18.9533C7.76938 19.2454 7.98787 19.2973 8.24379 19.2792C8.34157 19.272 8.51902 19.2466 8.53955 19.1525C8.88238 19.1525 9.22642 19.1778 9.57409 19.2285C9.65376 19.1561 9.87467 19.1078 9.90364 19.2333C9.99539 19.1899 10.0835 19.1452 10.1692 19.0981C10.3648 19.0812 10.8464 19.0547 11.0034 18.9786C11.1362 18.9146 11.2702 18.5332 11.3486 18.3859C11.3679 18.3497 11.4041 18.3328 11.4066 18.3292L11.4319 18.3485C11.1917 19.0269 10.9611 19.7005 10.7378 20.3693L10.5072 20.3608C9.05138 19.9963 7.6221 19.651 6.21938 19.3227C6.17712 19.2611 6.13246 19.2418 6.08779 19.2647C5.93207 19.0004 6.22179 18.4921 6.32198 18.2278L6.32319 18.229Z" fill="#FCB07F"/>
<path id="Vector_5" d="M9.73469 20.6044C9.89162 20.6201 9.62001 21.0185 9.55845 21.0293C9.416 20.9835 9.3653 21.0161 9.40514 21.1259L9.34236 21.1754C9.37979 21.2732 9.31701 21.3589 9.15405 21.4338C9.1794 21.6559 9.00436 21.7742 8.82208 21.6836C8.89692 21.8997 8.59875 21.9625 8.43095 21.9383C8.34524 22.1677 8.19676 22.3717 8.04587 22.5649L8.06156 22.6457L8.0845 22.7254C7.95533 22.8739 7.83944 23.0091 7.82979 23.2131C7.77546 23.3169 7.5292 23.3036 7.52679 23.1805L7.45074 23.2167C7.31312 23.0936 7.16464 23.0043 7.0065 22.9475C7.0234 23.0357 7.00288 23.1165 6.94493 23.1914C7.12359 23.3568 6.76386 23.4147 6.72885 23.3024C6.72885 23.3 6.76265 23.3193 6.69143 23.3145C6.65521 23.2916 6.60331 23.2831 6.57192 23.2469C6.55261 23.2228 6.59123 23.2155 6.59123 23.2143C6.66125 23.096 6.71678 22.962 6.75903 22.8135C6.8375 22.6482 6.91596 22.5262 6.99322 22.379C7.03668 22.3343 7.04875 22.3536 7.02702 22.4128L7.05599 22.4586C7.24672 22.1629 7.48574 21.7561 7.4954 21.4096C7.69941 21.0016 7.84669 20.5537 8.09778 20.1723L8.19073 20.1542C8.65307 20.2773 9.11904 20.3956 9.58742 20.5091L9.73711 20.6068L9.73469 20.6044Z" fill="#669EA5"/>
<path id="Vector_6" d="M11.9415 3.84741L12.0284 3.81723C12.2819 3.93794 12.5511 4.01158 12.8336 4.03813L12.8782 4.11539C13.0038 4.14195 13.017 4.2337 13.0122 4.34958L13.0436 4.46427C12.9845 4.69121 13.0376 4.8397 13.2054 4.91092C13.4565 5.56762 13.6556 6.24121 13.8053 6.93171L13.7486 6.99207C13.8331 7.75862 13.8102 8.5638 13.4601 9.24947C13.4842 9.37984 13.3997 9.46555 13.3007 9.36777L13.314 9.03218L13.2464 9.00925C13.1498 7.8395 13.0388 6.58526 12.4811 5.50726L12.4774 5.35395C12.4473 5.24772 12.4545 5.17529 12.5801 5.15235C12.3821 5.01111 12.2095 4.84573 12.0634 4.65258L11.9427 4.58498C11.857 4.59705 11.8147 4.55118 11.8763 4.48479C11.8099 4.34475 11.7797 4.20111 11.7869 4.05263C11.6831 4.00796 11.7193 3.83775 11.7423 3.74963C11.8087 3.68082 11.9741 3.75083 11.9427 3.84982L11.9415 3.84741Z" fill="#F2FCFE"/>
<path id="Vector_7" d="M11.5067 3.51322C11.5912 3.48183 11.602 3.51684 11.5405 3.57961C11.5888 3.63152 11.5622 3.68222 11.4644 3.73051C11.5489 3.99125 11.689 4.22907 11.8857 4.44395L11.8749 4.48258C11.8918 4.5043 11.9099 4.54172 11.9413 4.58276C12.0704 4.63226 12.2056 4.78316 12.2093 4.91715C12.2612 5.09702 11.9099 4.9075 11.9751 4.78316L11.835 4.72763C11.6914 4.52603 11.5163 4.36668 11.3099 4.25079C11.3099 4.31598 11.2809 4.36427 11.2218 4.39204L11.4149 4.81816L11.3727 4.88456L11.4584 4.91112C11.5465 5.16824 11.6902 5.37467 11.8918 5.5316L11.9075 5.61972C11.9485 5.6825 12.0258 5.72233 12.1368 5.73802C12.1573 5.80804 12.2032 5.87443 12.2744 5.93479C12.2708 6.09534 12.2672 6.25831 12.2636 6.42248L12.3082 6.45508C12.3722 6.47439 12.3722 6.50336 12.3082 6.52147C12.2418 6.65667 12.2612 6.77739 12.2877 6.92104C12.33 7.14799 12.4121 7.32786 12.5122 7.53428C12.5461 7.68035 12.6112 7.81072 12.7054 7.9242C12.767 8.15839 12.8466 8.40948 12.9432 8.62918L12.9915 8.6485C12.9951 8.89355 13.0241 9.13499 13.0808 9.37159C13.0941 9.74702 13.0434 10.0935 12.9746 10.4641C13.0567 10.5051 13.0663 10.6005 13.0024 10.7502L12.8515 11.2029L12.8768 11.2379C12.9613 11.3127 12.849 11.5409 12.7428 11.5384C12.6933 11.6459 12.6004 11.5698 12.5593 11.4829C12.4181 11.495 12.4048 11.4612 12.3734 11.3441C12.3457 11.2427 12.4471 10.5667 12.4833 10.4423C12.4857 10.4351 12.5062 10.4327 12.5316 10.4315C12.5436 10.2625 12.5786 10.1562 12.6921 10.0343C12.6004 10.0041 12.5605 9.90878 12.575 9.74702C12.6668 9.71926 12.6861 9.66252 12.6342 9.5744C12.546 9.44402 12.5364 9.34141 12.6064 9.26898C12.5859 9.05531 12.5521 8.85251 12.5074 8.66057L12.4277 8.63039C12.3674 8.48433 12.3143 8.33343 12.2672 8.17771C12.2358 7.95921 12.1598 7.73588 12.0571 7.52101C12.0427 7.42926 12.0258 7.34114 12.0064 7.25664L11.9244 7.16248C11.8628 6.90414 11.835 6.64581 11.8399 6.38748C11.8145 6.3235 11.7892 6.21847 11.8737 6.21968L11.7904 5.97463C11.7179 5.92151 11.6672 5.84787 11.6395 5.7513C11.6298 5.78027 11.6189 5.78027 11.6057 5.7513C11.5344 5.7006 11.5344 5.6668 11.6057 5.65111C11.5405 5.62697 11.5212 5.60765 11.532 5.53764C11.433 5.42658 11.3848 5.3288 11.3618 5.18152C11.2182 5.12961 11.1928 5.04632 11.1506 4.90628L10.9067 4.70107C10.8826 4.57553 10.8427 4.53448 10.7884 4.57673C10.856 4.79523 10.6496 4.82782 10.5023 4.70227C10.4383 4.76505 10.3538 4.84472 10.3345 4.71556C10.5591 4.37031 11.0673 4.09507 11.2894 3.78C11.3485 3.6955 11.3534 3.58686 11.3884 3.5434C11.427 3.49511 11.4801 3.52167 11.5055 3.5108L11.5067 3.51322Z" fill="#70AAB0"/>
<path id="Vector_8" d="M12.8116 0.9383C12.8116 0.9383 12.8273 1.01436 12.8768 1.05661C12.9891 1.15318 13.6663 1.61431 13.6784 1.6626C13.7182 1.81349 13.3947 1.83522 13.4128 1.98853C13.4285 2.12615 13.7037 2.45813 13.7568 2.61868C13.8522 2.90961 13.5383 2.96272 13.3476 3.0436L13.0048 3.09913C12.5581 3.11241 12.4374 3.02066 12.2442 2.62954C12.1803 2.53055 12.0632 2.50279 11.893 2.54624L11.8423 2.47503C11.6998 2.60057 11.5429 2.36638 11.5091 2.2179C11.4222 1.84126 11.7928 1.62156 12.0318 1.92818L12.109 1.90766C12.0342 1.77608 11.9485 1.52257 12.0439 1.40427C12.039 1.35478 12.0185 1.31614 11.9847 1.28596C12.1066 1.09161 12.5605 0.759639 12.7935 0.847762C12.8164 0.856213 12.8152 0.903297 12.8128 0.93589L12.8116 0.9383Z" fill="#FDAB8D"/>
<path id="Vector_9" d="M13.2799 4.68421C13.4223 4.83752 13.5117 5.00531 13.5479 5.18639L13.8545 5.81894C13.8642 5.85636 13.8618 5.90224 13.8485 5.95535C13.9257 5.98553 13.9752 6.09177 13.9149 6.15574C13.9861 6.51065 14.0694 6.87039 14.1648 7.23495C14.382 8.36003 14.4871 9.57323 14.0175 10.6452C13.9451 10.8106 13.6952 11.0991 13.5129 11.0399C13.4356 11.0967 13.4103 11.1112 13.4127 11.0061C13.3258 10.9482 13.2268 10.5885 13.2461 10.4822C13.263 10.3905 13.2787 10.3156 13.3777 10.306L13.3741 10.1732C13.4803 10.114 13.5419 9.91727 13.5262 9.78327L13.6131 9.66859L13.5938 9.48148C13.7917 8.66906 13.8243 7.82284 13.7471 6.99231C13.6988 6.72311 13.2521 5.0367 13.1278 4.91961C13.0855 4.87977 13.0023 4.88701 12.9817 4.83148C12.96 4.76871 12.9745 4.52124 12.9757 4.43191C12.9757 4.38845 13.0107 4.35586 13.0107 4.35103C13.0988 4.46813 13.2063 4.55142 13.2787 4.68542L13.2799 4.68421Z" fill="#FCE2A9"/>
<path id="Vector_10" d="M8.42976 11.6741C8.64584 11.6017 8.65067 12.2572 8.46356 12.2427C8.54565 12.3948 8.5372 12.4974 8.437 12.5505C8.51305 12.6833 8.5215 12.9055 8.437 13.0407C8.33922 13.0636 8.34888 13.1336 8.38751 13.2121C8.59031 13.0515 8.67119 13.41 8.42614 13.4318L8.39716 13.4801C8.56134 13.6454 8.53478 13.713 8.40441 13.8821C8.51667 14.045 8.51185 14.1307 8.38871 14.1392C8.48408 14.2816 8.47442 14.3384 8.36819 14.4615L8.41286 14.4965C8.64463 14.3891 8.63256 14.5605 8.49495 14.7102C8.64463 14.6571 8.74362 14.9625 8.72068 14.9878C8.61928 15.1025 8.6567 14.791 8.88848 15.0095C9.07559 14.9914 9.15889 14.9914 9.32065 15.0977C9.3629 15.0156 9.41118 14.9661 9.46551 14.9492C9.57898 14.989 9.51379 15.2836 9.39911 15.2836C8.9585 15.3886 8.42976 15.5938 7.97586 15.4526C7.46523 15.2944 7.70184 14.6776 7.22501 14.5146C7.0053 14.5194 6.96788 14.4542 7.11395 14.319C7.38194 14.2321 8.1666 12.7847 8.12555 12.6713C8.12555 12.6688 8.11227 12.6713 8.09537 12.6749C8.02898 12.7666 7.99518 12.7509 8.02898 12.6411C8.17022 12.3453 8.32232 11.9856 8.42976 11.6717V11.6741Z" fill="#68A2A9"/>
<path id="Vector_11" d="M6.08885 19.2664C6.14317 19.06 6.19508 19.2459 6.24819 19.264C6.46307 19.3365 6.78538 19.3654 7.01957 19.4234C8.26054 19.7324 9.49305 20.0813 10.7376 20.371L10.8378 20.4712C11.0225 20.4084 11.1336 20.8309 10.8415 20.6559C10.6387 20.7078 10.425 20.7138 10.2029 20.6728C10.1159 20.7694 9.79001 20.7235 9.73448 20.6064C9.19488 20.5074 8.62027 20.3372 8.09515 20.1718C8.08308 20.1682 8.04928 20.1259 8.00582 20.1115C7.54952 19.9642 6.33028 19.6793 6.08764 19.2689L6.08885 19.2664Z" fill="#EE845C"/>
<path id="Vector_12" d="M6.65765 24.1499L6.73974 24.1825C6.81337 24.4529 7.10551 24.6303 7.3735 24.5603L7.42661 24.6182C7.47731 24.5277 7.73806 24.5591 7.76221 24.6629C7.92638 24.646 8.13281 24.7691 7.89499 24.8186C7.92759 24.8585 7.91552 24.8923 7.85999 24.92C8.04951 24.9913 8.2161 25.1083 8.35975 25.2701C8.42735 25.1735 8.5191 25.2303 8.54928 25.3317C8.73156 25.2713 9.0249 25.2532 9.20235 25.3075L9.37377 25.2327C9.50173 25.246 9.62245 25.2749 9.73471 25.3208C9.76972 25.3836 9.80473 25.5212 9.71298 25.5502C8.86435 25.6419 7.98553 25.7071 7.17552 25.3884C7.00411 25.3208 6.90391 25.2267 6.75784 25.153C6.52486 25.0359 6.28584 24.9261 6.05769 24.7981C6.0939 24.5132 6.22186 24.2814 6.49951 24.1764C6.56349 24.1523 6.62143 24.1619 6.65644 24.1499H6.65765Z" fill="#325A5E"/>
<path id="Vector_13" d="M10.337 4.718C10.337 4.718 10.3527 4.74094 10.3696 4.73129C10.4106 4.70835 10.477 4.62023 10.5217 4.62506C10.5362 4.62626 10.6653 4.78078 10.7377 4.683C10.7824 4.62264 10.6013 4.47295 10.7221 4.41621C10.8005 4.38 10.7607 4.50313 10.7715 4.51641C10.774 4.52003 10.821 4.49106 10.8488 4.49468C10.9949 4.51641 10.9092 4.57073 10.9466 4.64075C10.984 4.71076 11.211 4.86649 11.223 4.88097C11.2387 4.90029 11.211 4.99806 11.2556 5.04997C11.2955 5.09584 11.38 5.08257 11.4222 5.15259C11.4645 5.2226 11.45 5.34694 11.491 5.41816C11.5248 5.47611 11.6238 5.49904 11.6395 5.53646C11.6673 5.60406 11.5755 5.57871 11.5743 5.60165C11.5743 5.61372 11.6033 5.63665 11.6069 5.65356C11.5997 5.6777 11.5924 5.69581 11.5876 5.69581C11.4331 5.68374 11.0914 5.1719 11.0516 4.98721C10.9937 4.85321 10.9104 4.87976 10.7993 5.06567C10.6617 5.06808 10.5639 5.16224 10.5048 5.34935C10.3551 5.42782 10.3237 5.4918 10.4118 5.54129L10.4034 5.62097L10.3901 5.66442C10.3008 5.63062 10.2488 5.62821 10.2356 5.65476C10.3684 5.81894 10.3756 5.95655 10.2597 6.06882C10.3599 6.22817 10.2416 6.32595 10.0955 6.22817C10.0762 6.24024 9.90118 6.58911 9.91205 6.63257L10.0171 6.80881C10.04 6.89694 9.96033 7.09612 9.92533 7.1758C9.99655 7.26754 9.96154 7.35686 9.84445 7.35807C9.9217 7.58381 9.88307 7.68884 9.72977 7.67315C9.70924 7.68401 9.6344 8.03891 9.77202 8.00874C9.93257 8.14514 9.76357 8.48556 9.63198 8.26465C9.62716 8.21154 9.65733 8.14514 9.6513 8.11376C9.64647 8.08599 9.53783 7.95079 9.53783 7.87474C9.53783 7.79869 9.6513 7.79024 9.52696 7.7154C9.46057 7.67556 9.40625 7.73713 9.43039 7.59589C9.62474 7.62003 9.4823 7.4474 9.36399 7.4124C9.54507 7.3122 9.36641 7.06956 9.59698 7.04421C9.56076 6.89332 9.42435 6.94523 9.39659 6.92712C9.39176 6.92471 9.42677 6.87038 9.41711 6.82572C9.40383 6.76898 9.34468 6.705 9.34347 6.67482C9.34106 6.62774 9.46057 6.45632 9.43039 6.42494C9.29639 6.50944 9.23603 6.39235 9.33019 6.33923C9.36762 6.3175 9.42556 6.36337 9.42918 6.35733C9.4328 6.3513 9.42315 6.30422 9.44246 6.27042C9.45091 6.25594 9.49678 6.25593 9.49678 6.23783C9.49678 6.23058 9.46781 6.09538 9.46298 6.09055C9.399 6.02778 9.39659 6.14849 9.39297 6.15211C9.35917 6.17747 9.2976 6.12194 9.2976 6.10745C9.2976 6.06158 9.46298 6.00363 9.49557 5.97225C9.55593 5.91551 9.55835 5.83826 9.59698 5.77911C9.61871 5.74651 9.66216 5.75858 9.66337 5.75496C9.67424 5.73806 9.43642 5.51594 9.83117 5.55457C9.82755 5.43386 9.78167 5.39884 9.66458 5.42057C9.82996 5.2226 10.133 4.85562 10.3333 4.718H10.337Z" fill="#7DB6BB"/>
<path id="Vector_14" d="M13.1798 0.269195C13.3065 0.401984 13.2932 0.653074 13.0796 0.737576C12.9987 0.828113 12.878 0.841389 12.8116 0.937962C12.6462 0.791895 12.2165 1.12025 12.0969 1.24338C12.0402 1.30132 12.0306 1.32305 12.0426 1.40634H11.9678C11.8495 1.55603 11.7227 1.55482 11.5851 1.40513C11.3811 1.51016 11.2519 1.48964 11.1976 1.34358C11.1409 1.3641 11.0986 1.35202 11.0721 1.30735C11.0841 1.26027 11.0684 1.17819 11.0865 1.10576C11.1723 0.77379 11.3811 0.915032 11.6479 0.83053C11.7457 0.799144 11.7976 0.739989 11.8748 0.706189C12.08 0.591508 12.2128 0.40802 12.348 0.201594C12.4108 0.0977783 12.476 0.0651863 12.5436 0.105023C12.651 0.0591505 12.75 0.0325935 12.8792 0L12.9118 0.0386302C13.0204 0.0181084 13.1979 0.165383 13.1798 0.27282V0.269195Z" fill="#5C534E"/>
<path id="Vector_15" d="M14.6178 13.8155C14.5296 13.8747 14.5658 13.8481 14.5345 13.7841C14.4331 13.5825 14.3208 13.218 14.2496 13.0128C14.2641 12.9355 14.2966 12.8908 14.3498 12.8788C14.427 12.7991 14.4717 12.6989 14.4838 12.5782C14.4536 12.5721 14.4548 12.5601 14.4838 12.5444C14.5393 12.4466 14.5707 12.3307 14.5791 12.1955C14.7976 11.3964 14.9111 10.5876 14.9183 9.76789C14.8218 9.6846 14.8157 9.47938 14.9183 9.39971C14.8882 9.26209 14.8882 9.13896 14.9183 9.03152L15.0197 9.91637C15.0391 10.9171 15.1127 11.8237 14.9026 12.8124C14.829 13.1588 14.7023 13.4763 14.6178 13.8143V13.8155Z" fill="#9BD0D3"/>
<path id="Vector_16" d="M13.3803 4.71716C14.0153 5.42094 14.6647 6.4072 14.8772 7.385L14.952 7.35965C14.9798 7.8063 14.9279 8.25416 14.9182 8.69719C14.8385 8.70323 14.7975 8.63441 14.7951 8.48955C14.7746 8.34711 14.7263 8.20467 14.6502 8.06222C14.6019 8.05739 14.5609 8.04532 14.5525 7.99824C14.4003 7.32947 14.1843 6.66794 13.9223 6.03298L13.9477 5.98952C13.8125 5.72877 13.6797 5.46199 13.5469 5.18675C13.4467 5.01775 13.3682 4.84996 13.2789 4.68457C13.3151 4.6894 13.3477 4.70026 13.3791 4.71837L13.3803 4.71716Z" fill="#A1D2D4"/>
<path id="Vector_17" d="M13.3464 3.04476C13.2498 3.08581 12.9927 3.15341 12.9456 3.21256L12.9118 3.4057C12.7223 3.36949 12.5352 3.31638 12.3505 3.24757L12.2467 3.57713C12.342 3.76665 12.2744 3.86443 12.0692 3.76424C12.0427 3.83787 12.0004 3.86564 11.9413 3.84753C11.8725 3.81132 11.8121 3.79562 11.7409 3.74733C11.6684 3.82701 11.491 3.67611 11.5405 3.57954C11.5272 3.56505 11.52 3.53125 11.5067 3.51314C11.6008 3.4721 11.6238 2.82144 11.6745 2.67658C11.5972 2.58121 11.7433 2.46291 11.8423 2.47619C11.9425 2.49309 12.1308 2.4448 12.2105 2.49309C12.3505 2.5788 12.4398 2.99406 12.6849 3.02183L13.3476 3.04476H13.3464Z" fill="#FD806B"/>
<path id="Vector_18" d="M11.0721 1.30663L11.2725 1.24023C11.2025 1.54927 11.5067 1.33319 11.5876 1.33922C11.7107 1.34888 11.7324 1.46718 11.7421 1.47322C11.7783 1.49736 11.934 1.33802 11.9932 1.30663C11.9992 1.30543 12.0379 1.38992 12.0427 1.40682C12.0837 1.52754 12.0692 1.61808 12.0994 1.73518C12.1296 1.85227 12.3022 2.03335 12.1779 2.0756C12.1682 1.92108 12.0632 2.01041 12.0077 1.98989C11.9799 1.97902 11.9473 1.91625 11.9063 1.89332C11.5031 1.6712 11.4258 2.40395 11.8423 2.47638C11.8109 2.55364 11.7011 2.60313 11.6745 2.67676C11.5453 2.58743 11.4826 2.44257 11.357 2.34238C11.2472 2.25425 11.083 2.19872 10.9719 2.10819C10.8971 1.97419 10.8367 1.80761 10.9381 1.67361C10.9876 1.56134 11.0395 1.42373 11.0721 1.30543V1.30663Z" fill="#334443"/>
<path id="Vector_19" d="M10.0689 14.7518C10.4346 14.7168 10.0266 14.9944 9.86848 15.0668C9.90107 15.2914 9.87452 15.4918 9.79122 15.6716C10.0133 15.6668 10.1244 15.6825 10.1823 15.9155C10.2089 16.0205 10.233 16.2076 10.1027 16.1895C9.98075 16.2173 9.79967 16.2088 9.69223 16.1267C9.52202 16.1798 9.38441 16.0881 9.27697 15.8551C9.11883 15.8805 9.00415 16.0133 8.94379 16.1557L8.86533 16.1907C8.83998 16.1847 8.72167 16.2124 8.65407 16.1907C8.61665 16.1774 8.63355 16.1267 8.63114 16.1243C8.72529 15.8781 8.90396 15.5907 9.19126 15.563C9.23713 15.5582 9.32526 15.5968 9.3325 15.5895C9.34336 15.5787 9.38803 15.3348 9.4001 15.2877C9.43149 15.161 9.46046 15.0934 9.46649 14.9534C9.37354 14.9099 9.37233 14.829 9.46649 14.7856C9.5691 14.6769 9.96264 14.6371 10.0689 14.7518Z" fill="#FA846C"/>
<path id="Vector_20" d="M7.82868 18.7975C7.99044 18.6864 8.19807 18.7275 8.16186 18.9435C7.71279 19.0582 8.16427 19.3334 8.35742 19.0968C8.41778 18.8856 8.6242 18.8349 8.69784 19.0317C9.22779 19.1391 9.63339 19.1439 10.1694 19.098L10.2358 19.2658C10.0438 19.0848 10.0402 19.331 9.85189 19.2996C9.81085 19.29 9.85793 19.1982 9.81809 19.1982C9.70824 19.1982 9.82654 19.2731 9.80119 19.2984C9.74204 19.3576 9.72755 19.2333 9.71789 19.2308C9.6177 19.2079 9.63943 19.2996 9.61529 19.2996L8.61334 19.1958C8.53125 19.1705 8.58678 19.2924 8.54574 19.3009C8.44675 19.3202 7.91198 19.3057 7.83834 19.255C7.71279 19.1657 7.84437 19.0811 7.82747 18.9641C7.66209 19.0304 7.61381 18.9121 7.49309 18.8796C7.44842 18.8675 7.40014 18.8928 7.35789 18.8808C7.17923 18.8325 7.01143 18.7504 6.82794 18.7238C6.85812 18.55 6.67342 18.6695 6.62635 18.6248C6.6179 18.6176 6.6348 18.5657 6.601 18.5283C6.49356 18.4076 6.32576 18.4377 6.32214 18.2289C6.33542 18.1939 6.34387 18.1577 6.35594 18.1287C6.45131 18.0587 6.40664 18.1215 6.44165 18.1589C6.7531 18.4884 7.38203 18.6936 7.82747 18.7975H7.82868Z" fill="#EB865A"/>
<path id="Vector_21" d="M7.22611 23.5809C7.4096 23.5628 7.64983 23.7137 7.72829 23.8815L7.75847 23.9515C7.57136 24.135 7.47841 24.339 7.47962 24.5623L7.42771 24.6167C7.38787 24.6167 7.33838 24.6517 7.28164 24.6468C6.93639 24.6142 6.76377 24.4815 6.65875 24.1483C6.91467 24.0638 6.93277 23.733 7.09333 23.5459C7.13799 23.4626 7.23336 23.4783 7.22732 23.5797L7.22611 23.5809Z" fill="#FC8D77"/>
<path id="Vector_22" d="M17.5608 24.7518C17.5994 24.7301 17.6441 24.7264 17.6924 24.7373C17.7274 24.6142 17.8324 24.6226 17.8952 24.7264C18.0968 24.7095 18.3008 24.6854 18.5096 24.6528C18.5483 24.689 18.599 24.7216 18.6642 24.7518C18.4915 24.8689 18.302 24.9691 18.1294 25.0862C17.8795 25.2455 17.62 25.3976 17.3496 25.5425L17.2264 25.5208C17.1987 25.4918 17.1021 25.3783 17.0924 25.353C16.9898 25.3807 16.9548 25.085 16.9621 25.0005C16.9681 24.922 17.0019 24.8061 17.0924 24.817C17.1407 24.7216 17.4787 24.6878 17.5608 24.7506V24.7518Z" fill="#2E5559"/>
<path id="Vector_23" d="M8.66399 10.8721L8.699 11.2886C8.71348 12.2097 8.64709 13.5206 8.86679 14.3983C8.92353 14.6252 9.3062 14.3488 9.23256 14.6844C9.26154 14.694 9.26154 14.7049 9.23256 14.7182C9.12392 14.9644 9.04304 15.0103 8.91629 14.7218C8.80161 14.8365 8.69658 14.7894 8.74608 14.6361C8.53844 14.6397 8.58552 14.4731 8.69175 14.3572C8.60846 14.2884 8.58432 14.2293 8.65433 14.1375C8.59035 14.024 8.57949 13.8912 8.62174 13.7416C8.55776 13.645 8.55172 13.5726 8.60242 13.5255C8.56017 13.3649 8.54327 13.1959 8.55534 13.0209C8.49619 12.9002 8.45756 12.6599 8.46118 12.5127C8.53482 12.4427 8.50947 12.3244 8.46239 12.2435C8.47567 12.2097 8.53482 12.0841 8.52879 12.0769C8.52034 12.066 8.39841 12.0648 8.42859 11.9755C8.53603 12.0443 8.59397 11.967 8.46118 11.926C8.58914 11.8258 8.50102 11.7703 8.42738 11.6749C8.49619 11.4721 8.62053 11.0737 8.66157 10.8721H8.66399Z" fill="#3F767D"/>
<path id="Vector_24" d="M11.9413 3.8474L12.0415 3.68081C12.3952 3.83412 12.1671 3.68685 12.1803 3.57217C12.1852 3.52388 12.3011 3.14966 12.3264 3.14483C12.4037 3.16415 12.4749 3.23658 12.5473 3.26072C12.604 3.28004 12.6487 3.25347 12.6813 3.26313C12.7332 3.27762 12.767 3.33435 12.8286 3.34401C12.9614 3.36574 12.8745 3.29693 12.9445 3.21122C12.9674 3.39834 12.9155 3.57941 12.9095 3.7629C12.9046 3.89207 13.0036 4.05503 12.8781 4.11418C12.4628 4.02727 12.3469 4.06228 11.9413 3.84619V3.8474Z" fill="#FEA990"/>
<path id="Vector_25" d="M19.066 24.1156C19.0708 24.0879 19.078 24.0613 19.0877 24.0372C19.1299 23.937 19.7178 23.4215 19.8506 23.331C19.9484 23.2646 20.0643 23.366 20.0027 23.4807C19.8724 23.914 19.0358 24.4995 18.6652 24.7518L18.3972 24.8182L18.4974 24.718C18.3549 24.6323 18.3622 24.7506 18.3453 24.7518C18.2342 24.7578 18.099 24.7422 17.9843 24.7603C17.9421 24.7663 17.8552 24.8399 17.8298 24.817C17.8214 24.8098 17.8371 24.6878 17.7634 24.683L17.796 24.817L17.6958 24.7832V24.8846L17.5618 24.7506C17.5015 24.6806 17.5461 24.6408 17.6282 24.6842C17.6572 24.5864 17.6801 24.5212 17.7622 24.6178C17.8141 24.5261 17.9155 24.5212 18.0688 24.6045L18.1292 24.5623C18.3598 24.6251 18.4998 24.543 18.6579 24.3679C18.8149 24.3112 18.9416 24.2243 19.0684 24.1156H19.066Z" fill="#3E6A70"/>
<path id="Vector_26" d="M17.8285 24.2499C17.8321 24.2125 17.8044 24.1412 17.8611 24.1497C17.808 24.3332 18.1882 24.2631 18.1291 24.1159C18.1943 24.105 18.1472 24.2004 18.1629 24.2161C18.1943 24.2487 18.3814 24.1678 18.3645 24.0821C18.4297 24.0712 18.3814 24.163 18.3995 24.1811C18.4152 24.1968 18.624 24.163 18.6651 24.1497C18.7592 24.1847 18.8691 24.1593 18.997 24.0736L19.0658 24.1159C19.0176 24.1593 18.9608 24.274 18.9222 24.3066C18.787 24.4177 18.612 24.3561 18.6313 24.6181L18.5649 24.5179C18.4792 24.6265 18.4248 24.6482 18.2824 24.6531C18.2341 24.6543 18.1798 24.6144 18.1496 24.6156C18.1291 24.6156 18.1315 24.6857 18.1158 24.6844C18.0337 24.6772 17.9178 24.5879 17.7633 24.6181C17.674 24.501 17.7573 24.3392 17.8297 24.2499H17.8285Z" fill="#518084"/>
<path id="Vector_27" d="M13.3802 4.71845C13.7352 4.91763 14.2059 5.69384 14.4172 6.05599C14.6116 6.39883 14.7709 6.76701 14.8916 7.16296C14.8626 7.33196 14.8723 7.33076 14.9182 7.15934C14.9363 7.23539 14.958 7.2535 14.952 7.35973C14.9484 7.42491 14.8844 7.56011 14.9182 7.66031C14.9109 7.66997 14.8759 7.64341 14.8675 7.62772C14.8132 7.51787 14.789 7.18107 14.7419 7.0181C14.5391 6.33364 13.8861 5.36911 13.4128 4.83434C13.3766 4.7933 13.3283 4.77881 13.3802 4.71725V4.71845Z" fill="#E2F4F2"/>
<path id="Vector_28" d="M7.52662 23.1807C7.54594 23.2543 7.49162 23.3328 7.36245 23.4161C7.37211 23.526 7.35521 23.637 7.22483 23.5827C7.19103 23.5646 7.12464 23.567 7.09084 23.5489C6.9665 23.4837 6.8156 23.3968 6.69006 23.3147C6.7311 23.1843 6.82405 23.1505 6.75645 23.3147L6.95684 23.2809L6.85665 23.2145C6.84699 23.2085 6.94839 23.0624 6.95201 23.025C6.95684 22.967 6.87234 22.9453 6.89045 22.8801C6.97133 22.8717 7.03772 22.8801 7.11498 22.9055C7.23208 22.9441 7.39746 23.1288 7.52542 23.1807H7.52662Z" fill="#73ABB1"/>
<path id="Vector_29" d="M8.09512 12.6785C7.95992 13.1746 7.69193 13.6647 7.36961 14.0776C7.27545 14.1114 7.21509 14.1597 7.14749 14.2635C7.09679 14.4095 7.01108 14.5049 6.85777 14.5182C6.80828 14.5363 6.70205 14.5713 6.65738 14.5351C6.87105 14.377 7.04247 14.1874 7.20664 13.9798C7.50361 13.6068 7.82351 13.0744 8.02872 12.6447L8.04562 12.6773H8.09512V12.6785Z" fill="#89B3B6"/>
<path id="Vector_30" d="M20.0028 23.4812C20.0294 23.3786 19.9569 23.3424 19.87 23.3629C19.6225 23.637 19.3401 23.8736 19.066 24.1174L18.6146 24.319L18.664 24.1512C18.9839 24.0498 19.6889 23.2 19.9811 23.2845C20.0885 23.3159 20.0173 23.4305 20.0016 23.4824L20.0028 23.4812Z" fill="#669497"/>
<path id="Vector_31" d="M8.0952 12.6784C8.10847 12.6543 8.12417 12.6301 8.1459 12.612C8.17849 12.6881 8.10244 12.8172 8.06864 12.9017C7.86342 13.4087 7.53507 14.034 7.12705 14.4022C7.09928 14.4276 7.06428 14.4493 7.02565 14.4517L7.22604 14.5181H6.85785C6.91821 14.4952 7.1862 14.3008 7.02444 14.3008C7.23328 14.0739 7.3878 13.8192 7.55921 13.5645C7.63285 13.5294 7.57974 13.6127 7.56646 13.6381C7.49403 13.7685 7.39021 13.9194 7.29243 14.0328L7.30933 14.0823C7.47713 13.8988 7.6244 13.6659 7.74512 13.4474C7.88273 13.1975 7.96965 12.915 8.0952 12.6772V12.6784Z" fill="#C3E0E1"/>
<path id="Vector_32" d="M17.4604 23.9497C17.4966 24.0765 17.6246 24.231 17.7393 24.2902C17.8214 24.3336 17.7767 24.3071 17.8286 24.2503C17.8153 24.3783 17.8045 24.4966 17.7622 24.6185C17.6922 24.6318 17.6777 24.6608 17.6282 24.6849C17.5787 24.6728 17.5546 24.6306 17.5558 24.5569C17.295 24.4447 17.2769 24.2986 17.2938 24.0499C17.2383 23.9618 17.2661 23.9401 17.3602 23.9835C17.382 23.9715 17.4254 23.9703 17.4604 23.9497Z" fill="#FBB2A1"/>
<path id="Vector_33" d="M14.6514 8.06205C14.6514 8.06205 14.6864 8.07412 14.6997 8.09827C14.7263 8.14535 14.7142 8.23227 14.7697 8.26245L14.853 8.19605C14.8591 8.36143 14.824 8.55096 14.9206 8.69702C14.9182 8.80808 14.9242 8.92035 14.9206 9.03141C14.917 9.15333 14.9254 9.27767 14.9206 9.39959C14.9061 9.40442 14.8904 9.40804 14.876 9.40563C14.8096 9.39718 14.5971 8.22019 14.5947 8.11275L14.6526 8.06084L14.6514 8.06205Z" fill="#7EB6BC"/>
<path id="Vector_34" d="M7.49418 21.4066C7.50987 21.4501 7.57265 21.3596 7.55575 21.4513C7.47487 21.9076 7.15376 22.3325 6.95458 22.7406L6.85921 22.7285C6.95337 22.6452 6.97027 22.5136 7.0258 22.411C7.17307 22.1237 7.30707 21.834 7.42658 21.5418C7.44952 21.4972 7.47125 21.4525 7.49297 21.4078L7.49418 21.4066Z" fill="#669EA5"/>
<path id="Vector_35" d="M18.1291 25.0859C18.018 25.1608 17.8949 25.2972 17.7609 25.3865C17.7029 25.4251 17.4072 25.6183 17.3734 25.6219C17.272 25.6304 17.2708 25.5688 17.2249 25.5205C17.4989 25.4155 17.7488 25.2525 18.0047 25.1113C18.0482 25.0871 18.0723 25.0389 18.1279 25.0859H18.1291Z" fill="#57767A"/>
<path id="Vector_36" d="M7.02575 22.4104L6.99195 22.3766C7.1356 22.099 7.2865 21.8189 7.42653 21.5401C7.49292 21.5594 7.42653 21.6403 7.41204 21.6753C7.30098 21.9529 7.16095 22.1605 7.02575 22.4092V22.4104Z" fill="#73ABB1"/>
<path id="Vector_37" d="M14.9183 7.15885L14.8857 7.29285C14.8411 6.90173 14.631 6.52027 14.4439 6.17985C14.427 6.14967 14.3437 6.07723 14.4173 6.0555C14.6383 6.43576 14.8133 6.72186 14.9195 7.15885H14.9183Z" fill="#A1D2D4"/>
<path id="Vector_38" d="M0.335734 25.6214C0.406957 25.6939 0.204154 25.788 0.202946 25.8049C0.195703 25.8919 0.384021 25.7663 0.335734 25.8882C0.0930942 25.9281 0.194496 25.8194 0.167939 25.788C0.155867 25.7735 0.0496363 25.8363 0.0339431 25.8218C0.0641223 25.741 0.0496364 25.7192 0.000142664 25.6552C0.00979998 25.642 0.322456 25.6094 0.334527 25.6214H0.335734Z" fill="#D0E7E6"/>
<path id="Vector_39" d="M6.75779 22.8116C6.94973 22.9239 6.70226 22.9347 6.69019 22.9456C6.67812 22.9577 6.80487 23.2558 6.59 23.2124C6.60931 23.0168 6.68536 22.9613 6.75779 22.8116Z" fill="#73ABB1"/>
<path id="Vector_40" d="M13.9487 5.98961C14.1515 6.31192 14.3748 7.10141 14.5004 7.49494C14.5583 7.67722 14.5632 7.87279 14.6513 8.06352L14.9193 9.40106C14.9144 9.52298 14.9253 9.64732 14.9193 9.76924C14.9507 10.2292 14.8903 10.7 14.8179 11.1551C14.8529 11.1985 14.836 11.2444 14.7672 11.2927C14.6803 11.7007 14.6018 12.1087 14.5306 12.5168L14.4847 12.5457C14.4847 12.5566 14.4847 12.5674 14.4847 12.5795C14.4823 12.7183 14.4376 12.8185 14.3507 12.8801C14.3241 12.9429 14.3459 13.0358 14.2505 13.0141C14.2131 12.9055 14.1914 12.7618 14.1503 12.6459C14.1298 12.588 14.0308 12.3152 14.0006 12.3127C13.9584 12.3091 13.8195 12.5095 13.8497 12.2451C13.8002 12.215 13.8111 12.2029 13.8835 12.2113C14.1636 11.691 14.3905 10.9704 14.4485 10.3535C14.5849 8.9025 14.259 7.54806 13.9161 6.15741C13.8932 6.09101 13.8739 6.02341 13.8497 5.95702C13.8256 5.77715 13.9101 5.84837 13.9499 5.99082L13.9487 5.98961Z" fill="#376A70"/>
<path id="Vector_41" d="M11.8751 17.8946C11.8244 18.2869 11.7387 18.6696 11.6167 19.0426C11.6445 19.2961 11.5685 19.453 11.385 19.5134C11.4188 19.6993 11.3572 20.2292 11.2618 20.3837C11.2292 20.4368 11.1858 20.4562 11.129 20.4731C11.2932 20.5032 11.2015 20.6698 11.1061 20.7362L11.0699 20.8075C10.8598 20.8135 10.651 20.8014 10.4434 20.7736L10.4035 20.7024C10.3335 20.7845 10.2418 20.7749 10.2031 20.6686C10.3347 20.6553 10.4929 20.6891 10.6196 20.6662C10.7572 20.6421 10.8297 20.496 10.9721 20.6686C11.0011 20.6372 10.8671 20.496 10.8381 20.4682C10.7874 20.4501 10.7609 20.3994 10.7633 20.3463C11.0409 19.4132 11.3632 18.4692 11.7749 17.5578C11.8135 17.46 11.8304 17.3393 11.9427 17.2898C12.0042 17.2982 12.0103 17.3501 11.9608 17.4443C12.0236 17.5167 11.9885 17.862 11.8751 17.8921V17.8946Z" fill="#F59769"/>
<path id="Vector_42" d="M7.82853 18.798C7.82853 18.629 8.07962 18.7424 8.09652 18.6471C8.10738 18.5855 7.93717 18.5408 8.13153 18.4153C8.22931 18.3525 8.25466 18.3815 8.3633 18.3972C8.38382 18.3404 8.26673 18.2728 8.29691 18.2306C8.30415 18.2209 8.47315 18.1292 8.50575 18.134C8.59387 18.1461 8.61439 18.233 8.67234 18.2753C8.7508 18.332 8.87031 18.3284 8.89325 18.4527C8.89928 18.5324 8.79909 18.5384 8.76287 18.5879C8.7496 18.6072 8.63491 18.8016 8.63009 18.8149C8.62526 18.8281 8.80513 18.8704 8.69648 19.0322C8.64337 19.0213 8.50454 18.9585 8.49609 18.9646C8.47919 18.9778 8.4297 19.1891 8.28604 19.241C8.18826 19.2772 7.84905 19.2374 7.9082 19.0635C7.96735 18.8897 8.0096 18.8994 8.16171 18.9139C8.08445 18.8994 8.03616 18.769 8.02771 18.763C8.01202 18.7521 7.97097 18.8149 7.93717 18.8245C7.88285 18.839 7.86112 18.804 7.82853 18.7968V18.798Z" fill="#F7A170"/>
<path id="Vector_43" d="M11.9413 17.2599C12.0137 17.1259 12.1561 17.2442 12.0958 17.3879C12.2274 17.5122 12.2551 17.6245 12.1754 17.7247C12.2394 17.7585 12.2612 17.8043 12.2418 17.8623C12.2249 18.1206 12.033 18.4369 11.8073 18.5649C11.7855 18.5492 11.7686 18.5347 11.7698 18.5202C11.7771 18.3826 11.8097 18.1979 11.8338 18.0591C11.8435 18.0035 11.8555 17.9492 11.8737 17.8961C11.8918 17.7295 11.9557 17.4362 11.94 17.2937C11.9388 17.2817 11.9425 17.2684 11.94 17.2599H11.9413Z" fill="#4C878A"/>
<path id="Vector_44" d="M10.7714 16.0889L10.8559 16.1142C10.938 16.3134 10.9102 16.5295 10.8559 16.7311C11.1529 16.8325 11.4498 16.9411 11.7456 17.0558L11.8084 17.1584C11.8663 17.057 12.0257 17.1681 11.9424 17.2586C11.334 17.1137 10.5734 16.7757 9.96865 16.556C9.98676 16.5428 10.023 16.5355 10.035 16.5222C10.1835 16.4824 10.4467 16.5633 10.5372 16.69C10.5517 16.6393 10.5928 16.6285 10.6579 16.6562C10.6664 16.4583 10.6881 16.2724 10.7219 16.0973L10.7714 16.0877V16.0889Z" fill="#EEE8D7"/>
<path id="Vector_45" d="M10.838 20.47C10.838 20.47 10.7559 20.4965 10.7378 20.3698L11.4066 18.3297C11.5358 18.0749 11.6154 17.7997 11.7748 17.5607C11.5829 18.0411 11.3885 18.5361 11.2147 19.0238C11.0879 19.3775 10.8549 19.9581 10.7861 20.3034C10.7716 20.377 10.8091 20.412 10.8392 20.47H10.838Z" fill="#967457"/>
<path id="Vector_46" d="M7.89482 24.8179C7.91534 24.8179 8.08072 24.9301 8.16281 24.8855C7.99864 24.9953 8.30767 25.116 8.42114 25.145C8.71811 25.221 8.94143 25.1414 9.21787 25.151C9.35066 25.1559 9.49914 25.2041 9.63435 25.2186C9.65004 25.2633 9.71764 25.2887 9.73454 25.3188C9.64762 25.32 9.58002 25.2826 9.55105 25.3852C9.39774 25.1872 9.31686 25.3611 9.20218 25.3707C9.15631 25.3744 9.12734 25.3164 9.08871 25.3237C8.97644 25.3442 9.04163 25.3538 8.88349 25.349C8.85089 25.349 8.89435 25.4335 8.81468 25.4178C8.7845 25.4118 8.83279 25.3297 8.68068 25.3478C8.59498 25.3587 8.57204 25.4118 8.4972 25.4166L8.4465 25.25L8.3463 25.4166L8.2787 25.25L8.1954 25.3502C8.21593 25.2826 8.22317 25.2162 8.16281 25.1655C8.0771 25.0943 8.09642 25.2911 8.02882 25.2162C8.01795 25.2041 8.06141 25.139 8.05537 25.1027C8.03727 24.9941 7.75841 24.9953 7.69443 24.8975C7.75358 24.9072 7.88396 24.813 7.89482 24.8142V24.8179Z" fill="#487377"/>
<path id="Vector_47" d="M10.804 5.88716L10.8378 5.81594C10.9368 5.82197 10.9779 5.68315 10.9115 5.61675C10.9078 5.42723 11.0696 5.48276 11.1915 5.54553C11.2929 5.45982 11.3883 5.49483 11.4776 5.64935C11.5513 5.66866 11.5947 5.70367 11.6068 5.75316C11.614 5.75799 11.6309 5.74833 11.6406 5.75316C11.7082 5.81231 11.7287 5.87267 11.701 5.93424C11.7975 5.96924 11.8555 6.06461 11.8748 6.22154C11.8724 6.27104 11.8362 6.3326 11.841 6.38934L11.7601 6.399C11.7396 6.23724 11.5851 6.19257 11.6997 6.37847C11.6889 6.41952 11.2519 6.58973 11.1964 6.51609C11.1915 6.65492 11.0913 6.72252 10.961 6.73459C11.0068 6.80219 10.9718 6.87824 10.8571 6.96395C10.8535 7.15831 10.7992 7.2754 10.693 7.31523C10.9404 7.5627 10.8789 7.76189 10.5723 7.91157C10.6278 8.07213 10.6459 8.24837 10.431 8.26406C10.4878 8.43669 10.4805 8.59121 10.4069 8.72883C10.5022 8.86886 10.5131 8.98836 10.4371 9.08735C10.5409 9.16944 10.5626 9.25153 10.4793 9.36017L10.4817 9.56177C10.7618 9.62695 10.7159 9.85511 10.4371 9.82855V9.92754C10.6712 9.8032 10.6966 10.0531 10.5397 10.1907C10.6809 10.2909 10.7594 10.4116 10.6036 10.5444C10.6664 10.6808 10.6833 10.7315 10.5747 10.851C10.5783 11.0442 10.5203 11.2313 10.3972 11.4124C10.6676 11.4305 10.5385 11.7226 10.3634 11.7986C10.4564 11.9049 10.39 12.0304 10.3043 12.1197C10.3839 12.2972 10.4202 12.494 10.4117 12.7088C10.5397 12.9346 10.5252 13.106 10.3707 13.2267C10.4153 13.2919 10.4346 13.3583 10.4274 13.4259C10.4745 13.2726 10.5867 13.2303 10.6049 13.4162C10.6266 13.4344 10.6435 13.4513 10.6435 13.4682C10.6314 13.7482 10.5952 14.0464 10.5385 14.3192C10.4358 14.2842 10.3236 14.277 10.2017 14.2963C9.97713 14.254 10.1268 14.0548 10.32 14.0983C10.1642 14.1031 10.052 14.0536 9.98437 13.9486L9.83226 13.9196C9.76587 14.0235 9.65119 14.0029 9.63308 13.881C9.64998 13.6396 9.60653 13.4066 9.50271 13.1821C9.56186 12.8513 9.50633 12.4578 9.54979 12.1342C9.57272 11.9628 9.64515 11.7685 9.67051 11.5765L9.72966 11.428C9.69465 10.8172 9.71879 10.1955 9.7538 9.59315C9.73086 9.53642 9.72966 9.50141 9.74897 9.48692C9.75621 9.28412 9.77311 8.92801 9.80209 8.73607C9.80812 8.69503 9.83589 8.65881 9.87331 8.64191C9.78519 8.44272 9.81657 8.2351 9.96747 8.01901C9.99885 7.74137 10.0773 7.4951 10.2017 7.28264C10.157 7.13416 10.1739 6.81789 10.3888 6.85169C10.3803 6.72373 10.4093 6.62474 10.4769 6.55472C10.3888 6.36037 10.3731 5.89682 10.6387 5.88957C10.7316 5.88595 10.827 5.93303 10.9235 6.03081C10.932 6.03684 10.7449 5.92941 10.8052 5.88957L10.804 5.88716Z" fill="#A0D3D4"/>
<path id="Vector_48" d="M12.5111 8.66376C12.7127 8.59254 12.6716 8.66618 12.5449 8.76396C12.7561 8.7712 12.5666 8.77965 12.5774 8.84725C12.5835 8.88709 12.6269 8.9221 12.633 8.95469C12.6426 9.01022 12.6849 9.2939 12.6813 9.31201C12.6776 9.33615 12.6112 9.32891 12.6112 9.34943C12.6112 9.39651 12.8817 9.79367 12.6112 9.76832C12.7271 9.8492 12.6016 9.92042 12.6112 9.93491C12.9094 9.99285 12.6849 10.1377 12.6112 10.2524C12.5424 10.3586 12.435 11.1747 12.4422 11.3232C12.4447 11.3726 12.4543 11.4282 12.5111 11.4402C12.54 11.2821 12.6197 11.1976 12.779 11.2737C12.7827 11.3316 12.709 11.2978 12.662 11.3401C12.5738 11.4173 12.6257 11.5344 12.7465 11.5416L12.7851 11.6261C12.7597 11.7251 12.505 12.3058 12.4483 12.3589C12.4181 12.3867 12.3843 12.4024 12.3445 12.4108L12.3517 12.5376C12.0487 13.1061 11.7155 13.6554 11.3256 14.1696L11.2073 14.2167C11.1023 14.2614 11.013 14.2614 10.9393 14.2167C10.9442 14.1648 11.0033 14.0803 11.0395 14.0489C11.0093 13.962 11.0431 13.9487 11.1059 14.0151C11.2568 13.933 11.4125 13.7314 11.5019 13.5806C11.5031 13.5781 11.4765 13.5926 11.4403 13.6143L11.3739 13.618C11.2544 13.9451 11.0359 13.6156 11.2411 13.3898C11.1868 13.2872 11.182 13.1689 11.2278 13.0337C11.1132 12.855 11.1095 12.7379 11.2158 12.6812C11.2218 12.5665 11.2641 12.5001 11.351 12.4229C11.3534 12.2539 11.4463 11.9847 11.6286 12.1657C11.6383 12.0837 11.7916 11.5923 11.7228 11.8193L11.6745 11.8072C11.619 11.8374 11.5743 11.8374 11.5405 11.8072C11.5067 11.7722 11.427 11.6696 11.4101 11.6237C11.386 11.5573 11.5212 11.3521 11.5671 11.3014C11.4644 11.223 11.5079 11.1312 11.6117 11.0793C11.5369 10.9163 11.5333 10.763 11.6009 10.6194C11.4524 10.5252 11.4125 10.3224 11.6153 10.2753C11.6178 10.2017 11.6491 10.1667 11.7083 10.1691C11.8049 9.97958 11.899 10.2246 11.8906 10.3514C12.0403 10.3309 12.2225 10.53 12.0885 10.6616C12.2141 10.7473 12.2708 10.6846 12.26 10.4721C12.2696 10.3683 12.3626 10.3586 12.4543 10.355C12.4712 10.0834 12.4616 9.81298 12.3903 9.54741L12.4435 9.46895C12.4157 9.45808 12.3855 9.44601 12.3686 9.41945C12.3493 9.38685 12.3324 8.89674 12.4097 8.86656C12.4748 8.81949 12.47 8.78931 12.4519 8.71567L12.5098 8.66497L12.5111 8.66376Z" fill="#84BBC0"/>
<path id="Vector_49" d="M11.7085 10.1695C11.7061 10.1864 11.6747 10.3253 11.6699 10.3313C11.6493 10.3579 11.4695 10.3216 11.5769 10.5112C11.6119 10.5715 11.6916 10.545 11.6626 10.6802C11.653 10.7236 11.601 10.7562 11.6071 10.819C11.6131 10.8782 11.694 11.0133 11.6771 11.1172C11.6711 11.1534 11.6107 11.151 11.5914 11.1715C11.5177 11.2512 11.6566 11.2439 11.6747 11.2898C11.7206 11.4033 11.6179 11.3562 11.5841 11.3803C11.5745 11.3876 11.4791 11.5783 11.4755 11.5928C11.4526 11.6809 11.5576 11.6242 11.5745 11.6423C11.5866 11.6544 11.5322 11.7702 11.5407 11.8089C11.5117 11.8644 11.5564 11.8644 11.6747 11.8089C11.7037 11.7763 11.7278 11.7401 11.758 11.7087C11.8147 11.7823 11.6662 12.3207 11.6409 12.3436C11.5238 12.4523 11.5829 12.1843 11.5745 12.1771C11.5709 12.1734 11.4779 12.1734 11.4743 12.1771C11.4658 12.1855 11.4212 12.375 11.4163 12.3992C11.4103 12.4342 11.4514 12.4994 11.4405 12.5102C11.4332 12.5163 11.3596 12.5018 11.3234 12.544C11.2872 12.5863 11.2956 12.672 11.2715 12.7203C11.2606 12.742 11.1689 12.7939 11.1737 12.8301C11.1761 12.847 11.2691 12.8543 11.292 13.0028C11.3101 13.115 11.2498 13.2261 11.2522 13.2635C11.2546 13.2925 11.3101 13.3263 11.3077 13.3951C11.3041 13.5037 11.0675 13.6498 11.3403 13.7162C11.3681 13.6546 11.2316 13.6076 11.3065 13.5653C11.3705 13.5291 11.4163 13.5496 11.4405 13.616C11.4019 13.7681 11.2473 13.9419 11.1061 14.0168C11.088 14.024 11.0518 14.0397 11.0397 14.0506C10.8562 13.9649 11.1133 13.8393 10.989 13.75C10.8466 13.8212 10.9431 13.9552 10.9226 14.0168C10.8948 14.1001 10.8864 14.0421 10.8635 14.0095C10.8031 13.9214 10.779 13.8502 10.8695 13.7645C10.9492 13.6896 11.0554 13.7609 11.0385 13.6486C10.89 13.7488 11.018 13.4518 11.0023 13.4011C10.9878 13.354 10.9142 13.377 10.9021 13.2973C10.8767 13.1368 11.0095 13.1814 11.0023 13.1017C10.9926 12.9907 10.7222 12.8434 10.9045 12.8458L10.7705 12.8132C10.7947 12.2736 10.8405 11.734 10.9081 11.1944L10.9721 11.0399C11.0083 10.9844 11.0337 10.9035 11.0482 10.7985C11.1182 10.1176 11.2715 9.3366 11.467 8.63886C11.4864 8.57005 11.5214 8.51211 11.5745 8.46382L11.6614 8.48555C11.7688 9.0167 11.8099 9.55751 11.7833 10.1068L11.7085 10.1695Z" fill="#6BA5AC"/>
<path id="Vector_50" d="M10.9383 14.5178L11.0409 14.4635C11.3813 14.9802 11.6686 15.5379 11.9052 16.1354L12.1346 16.5024L12.108 16.5917C12.2155 16.6014 12.2927 16.7269 12.242 16.8259C12.347 16.809 12.4859 17.048 12.4098 17.1265C12.5112 17.0879 12.5535 17.3414 12.4762 17.3945C12.405 17.5526 12.3253 17.7096 12.242 17.8629C12.1998 17.8327 12.0923 17.7518 12.0754 17.712C12.0658 17.6878 12.1189 17.706 12.1394 17.6697C12.207 17.5502 12.1466 17.5816 12.1128 17.5345C12.0682 17.4718 12.1201 17.4042 11.9752 17.4609C12.0199 17.3945 12.0597 17.3486 12.0416 17.2605C11.9994 17.2859 11.9801 17.2702 11.9414 17.2605C11.9209 17.2001 11.8569 17.1845 11.8074 17.1603C11.7712 17.1241 11.7652 17.0734 11.7869 17.007C11.6541 17.0372 11.3451 16.8464 11.4803 16.704L11.3137 16.4408C11.2135 16.6485 10.8622 16.3563 11.0868 16.1873L11.0674 16.1403C10.9733 16.1451 10.9214 16.1077 10.896 16.0147C10.7053 15.9773 10.4627 15.7636 10.4373 15.5874C10.3806 15.5246 10.3564 15.4304 10.3625 15.3061C10.3033 15.1612 10.2949 15.0429 10.3371 14.9524C10.4132 14.8957 10.4916 14.8377 10.5713 14.7846C10.6184 14.6494 10.7934 14.4973 10.9395 14.5166L10.9383 14.5178Z" fill="#315E64"/>
<path id="Vector_51" d="M10.6374 5.88829C10.4612 6.06816 10.4648 6.23113 10.5107 6.46653C10.5191 6.50998 10.5698 6.56913 10.5698 6.57517C10.5662 6.60293 10.4889 6.61259 10.4757 6.63191C10.4672 6.64398 10.4636 6.89748 10.4358 6.92404C10.4177 6.94094 10.2837 6.91197 10.2704 6.92525C10.2644 6.93128 10.2765 7.02786 10.2632 7.06769C10.1847 7.32361 10.2632 7.18237 10.2716 7.24273C10.2849 7.33086 10.2028 7.35138 10.1787 7.41777C10.1087 7.60368 10.0833 7.85959 10.0302 8.03825C10.0037 8.12758 9.88898 8.27607 9.8757 8.42093C9.86725 8.50664 9.93847 8.56337 9.94088 8.64787C9.94209 8.71065 9.87328 8.67926 9.86725 8.74445C9.84552 8.98347 9.88777 9.07158 9.81413 9.35889C9.76343 9.56049 9.79602 9.44581 9.79723 9.58825C9.80206 10.1146 9.7405 10.6554 9.73446 11.1877C9.73205 11.3459 9.85397 11.4569 9.67048 11.5716C9.71394 11.2372 9.71394 10.8389 9.64513 10.5516C9.63306 10.5009 9.67169 10.3777 9.67289 10.2872C9.67289 10.251 9.70549 10.2087 9.70428 10.1858C9.70307 10.1592 9.59081 10.1508 9.58356 10.0506C9.5727 9.90815 9.691 10.0144 9.70307 9.99989C9.72601 9.97213 9.69342 9.86831 9.63668 9.8659L9.56908 9.93229V9.79951L9.70307 9.8321C9.691 9.7476 9.72118 9.63051 9.70307 9.55325C9.69704 9.52911 9.58356 9.53151 9.63547 9.46391C9.6403 9.45788 9.69945 9.50013 9.70187 9.49772C9.8093 9.2925 9.6572 9.22248 9.63547 9.11263C9.59081 8.88568 9.65599 8.52957 9.63547 8.26037C9.68859 8.24589 9.76102 8.30745 9.76947 8.21088C9.78999 7.96583 9.6741 8.10103 9.63909 8.00566C9.60288 7.90667 9.64996 7.62057 9.71877 7.52521L9.73567 7.6254C9.76343 7.59764 9.83224 7.59402 9.83586 7.59161C9.85035 7.57833 9.66444 7.25118 9.90226 7.29101C9.92278 7.23428 9.80447 7.16547 9.83586 7.12563C9.8419 7.11718 9.90467 7.1184 9.91916 7.09425C9.93364 7.07011 9.90105 7.02182 9.9095 6.9844C9.91795 6.94698 9.96624 6.9168 9.96744 6.87455C9.96865 6.8154 9.85518 6.6995 9.84431 6.63553C9.81896 6.47256 10.064 6.31563 10.035 6.12248L10.2354 6.22268C10.2463 6.08868 10.1075 6.03677 10.1002 5.9064C10.093 5.78931 10.2946 5.87018 10.2016 5.98849C10.437 5.94986 10.134 5.79896 10.2354 5.6541C10.3549 5.60581 10.6253 5.77723 10.6362 5.88829H10.6374Z" fill="#90C6CA"/>
<path id="Vector_52" d="M10.2694 14.7183C10.2441 14.816 10.3141 14.886 10.3358 14.9524C10.3986 15.1383 10.4698 15.3931 10.436 15.5874C10.5012 15.6586 10.471 15.7371 10.3696 15.6876L10.3298 15.7093C10.3817 15.7721 10.3901 16.028 10.2694 16.0546C10.3781 16.1065 10.2767 16.2924 10.1692 16.255C10.1475 16.2332 10.1282 16.2067 10.1028 16.1886C10.2018 16.1161 10.0908 15.795 10.0292 15.7612C9.95556 15.7202 9.65376 15.7721 9.56806 15.6707C9.94831 15.6792 9.74913 15.1492 9.81311 15.0333C9.84691 14.9718 10.1306 14.8716 10.1692 14.7677C10.162 14.7351 10.0992 14.7533 10.069 14.7508C10.0099 14.6241 10.2368 14.6048 10.2694 14.717V14.7183Z" fill="#FEB7A3"/>
<path id="Vector_53" d="M9.50048 13.1789C9.58981 13.1608 9.56809 13.2223 9.58982 13.2718C9.61637 13.337 9.67432 13.4553 9.6876 13.5108C9.71295 13.6207 9.68518 13.7909 9.70208 13.914C9.79141 13.9454 9.7564 13.8561 9.7902 13.8488C9.81797 13.8428 10.0003 13.8742 10.0268 13.8923C10.0534 13.9104 10.0594 13.9671 10.1113 13.9913C10.2296 14.0456 10.4034 13.9708 10.4385 14.1494C10.4059 14.1929 10.162 14.118 10.1379 14.2158C10.2212 14.2484 10.4264 14.2001 10.4843 14.2134C10.5061 14.2182 10.5169 14.2834 10.5386 14.316C10.5568 14.2931 10.5688 14.3039 10.5724 14.3498C10.5749 14.4102 10.3479 14.4597 10.3383 14.45L10.3721 14.3498C10.2707 14.3088 10.0389 14.4234 9.98939 14.4186C9.97128 14.4162 9.9749 14.3571 9.94834 14.3498C9.86746 14.3305 9.6043 14.3908 9.56929 14.2991C9.56084 14.2762 9.66707 14.2641 9.66828 14.2327C9.66828 14.2182 9.58378 14.1627 9.56809 14.1337C9.51739 14.0408 9.48117 13.9044 9.43288 13.8078C9.35321 13.6509 9.40633 13.7535 9.39908 13.5953C9.39667 13.5446 9.3351 13.506 9.3339 13.4312C9.3339 13.337 9.3846 13.4082 9.42685 13.3732C9.4353 13.366 9.49807 13.2078 9.5029 13.1801L9.50048 13.1789Z" fill="#83BAC0"/>
<path id="Vector_54" d="M10.972 11.0381C10.9007 11.6199 10.8428 12.2211 10.7716 12.8102C10.71 13.3232 10.6327 13.8363 10.5712 14.3481C10.5591 14.3372 10.547 14.3276 10.5374 14.3143C10.5845 14.0222 10.5712 13.6998 10.6038 13.4113L10.5507 13.3063C10.6846 12.4939 10.7764 11.6742 10.8259 10.8461C10.9068 10.1134 10.9961 9.3625 11.3027 8.68649L11.4065 8.62855C11.4343 8.65269 11.456 8.68408 11.4476 8.71788C11.3015 9.31301 11.1615 9.87796 11.0721 10.4997C11.083 10.6928 11.0613 10.8715 10.9707 11.0368L10.972 11.0381Z" fill="#E2F5F4"/>
<path id="Vector_55" d="M9.26632 14.5837L9.36651 14.5656L10.3202 14.5016L10.3033 14.6839C10.3033 14.6839 10.2719 14.7165 10.2695 14.7177C10.2176 14.7322 10.1041 14.6851 10.0691 14.7515C9.86145 14.7406 9.63692 14.7865 9.46671 14.7853C9.43412 14.894 9.2289 14.8227 9.23252 14.7189V14.6851C9.27115 14.667 9.26149 14.5885 9.26632 14.5849V14.5837Z" fill="#E6F6F6"/>
<path id="Vector_56" d="M11.2061 14.2162C11.2628 14.3478 11.0781 14.553 10.9381 14.5168C10.8138 14.6146 10.7015 14.6967 10.5699 14.7848C10.5144 14.7618 10.588 14.681 10.5928 14.6303C10.5965 14.5965 10.559 14.5289 10.5699 14.518L10.7027 14.5518C10.7124 14.5108 10.722 14.2609 10.7365 14.25C10.745 14.244 10.8053 14.2742 10.8403 14.2645C10.8765 14.2548 10.9079 14.2247 10.9369 14.2162C11.0479 14.186 11.0733 14.1281 11.2049 14.2162H11.2061Z" fill="#6BA5AC"/>
<path id="Vector_57" d="M9.26617 14.5836C9.39654 14.5099 9.56434 14.5703 9.7104 14.5425C9.78645 14.528 9.86009 14.4592 9.89148 14.4556C9.93373 14.4508 9.96632 14.5099 10.017 14.5136C10.0919 14.5184 10.2379 14.4508 10.3369 14.4834L10.3031 14.6838C10.3152 14.6439 10.2947 14.5643 10.3031 14.516C10.2766 14.4882 9.65487 14.5981 9.54502 14.6041C9.48708 14.6065 9.29393 14.5582 9.26617 14.5836Z" fill="#83BAC0"/>
<path id="Vector_58" d="M9.80118 21.5415C9.78911 21.6429 9.73961 21.7406 9.65511 21.8324C9.2483 22.3285 8.87287 22.8452 8.53003 23.3812C8.55901 23.4645 8.4564 23.625 8.36224 23.6154L8.16185 23.8834C8.23186 24.0922 7.95542 24.0222 7.82746 23.9172C7.80936 23.9063 7.76228 23.9051 7.72727 23.8834C7.56068 23.7844 7.3953 23.6745 7.22509 23.5828C7.3277 23.555 7.28665 23.4234 7.30355 23.3896C7.31683 23.3631 7.48463 23.211 7.52688 23.1808C7.56551 23.1965 7.74779 23.2243 7.75986 23.2134C7.76831 23.2061 7.78642 23.0408 7.81418 22.9828C7.86971 22.8645 7.98319 22.7498 8.06165 22.6448L8.052 22.5531L8.34292 22.2211C8.41052 21.9821 8.6423 21.8529 8.86321 21.8734C8.90546 21.6344 9.06722 21.6248 9.24709 21.7551C9.27606 21.7672 9.30141 21.7624 9.33038 21.7503C9.38833 21.7262 9.48369 21.4702 9.49818 21.4002C9.55492 21.323 9.65753 21.3411 9.67443 21.4389C9.76738 21.4401 9.80963 21.4751 9.80239 21.5427L9.80118 21.5415Z" fill="#8ABFC5"/>
<path id="Vector_59" d="M10.2031 20.6721C10.2598 20.6781 10.3214 20.6986 10.4035 20.7059C10.3214 20.8435 10.2163 20.969 10.1355 21.1066C10.0244 21.2419 9.92783 21.3879 9.84574 21.5436L9.80108 21.5412C9.75279 21.5098 9.67915 21.5195 9.63449 21.4893C9.59706 21.464 9.61879 21.3964 9.56809 21.4072C9.48601 21.5581 9.63207 21.4785 9.63449 21.6076C9.38098 21.5593 9.48842 21.7163 9.41116 21.7766C9.20353 21.9384 9.0973 21.6511 8.98745 21.738C8.94278 21.7742 8.95727 21.8913 8.89932 21.9275C8.84138 21.9637 8.7774 21.8998 8.72187 21.913C8.7098 21.9154 8.52872 22.0325 8.51665 22.0434C8.4575 22.0989 8.44422 22.204 8.39835 22.2595C8.28608 22.3935 8.17865 22.4889 8.06276 22.6434C7.92273 22.6253 7.97826 22.542 8.04344 22.4563C8.15571 22.3054 8.2209 22.2341 8.31385 22.041C8.34403 21.9794 8.36093 21.9082 8.36455 21.8406C8.47319 21.901 8.77016 21.9215 8.76774 21.7573C8.76774 21.6619 8.6603 21.6209 8.88484 21.61C8.90053 21.61 8.9464 21.7899 9.09851 21.5231C9.06229 21.4374 8.97658 21.5231 8.96572 21.5062C8.90657 21.4241 9.02125 21.272 9.08281 21.4386C9.09971 21.3276 9.29165 21.2817 9.3001 21.2708C9.3158 21.2491 9.19991 21.1103 9.3665 21.1042C9.36287 21.0487 9.20111 21.0535 9.19991 20.9871C9.1987 20.8954 9.45221 21.0427 9.4341 20.87C9.57171 21.0777 9.58379 20.9099 9.66949 20.7602C9.69364 20.7179 9.7371 20.7324 9.73468 20.6021C9.90972 20.6346 10.0268 20.6491 10.2031 20.6684V20.6721Z" fill="#78B0B5"/>
<path id="Vector_60" d="M11.9753 4.7842C12.0356 4.84335 12.1213 4.90371 12.1926 4.95078L12.2095 4.91819C12.3459 4.9025 12.5149 5.22118 12.4775 5.35277C13.0714 6.47422 13.1342 7.35787 13.2838 8.57711C13.3128 8.81733 13.3659 8.68213 13.3804 8.69782C13.4553 8.7787 13.285 8.76059 13.2802 8.76542C13.2706 8.77508 13.3176 8.95494 13.314 9.03341C13.3164 9.28691 13.3261 9.54404 13.3406 9.80358C13.4492 9.95568 13.4685 9.95931 13.3985 9.81445C13.3949 9.7046 13.5337 9.57301 13.6158 9.66838C13.5905 9.75892 13.5856 9.84825 13.5494 9.95327C13.5035 10.0849 13.3237 10.4011 13.3152 10.4905C13.2995 10.6607 13.4323 10.8333 13.4154 11.0059C13.4263 11.0228 13.4335 11.0385 13.4287 11.0494C13.3949 11.1278 13.1547 11.1737 13.1547 11.0615C13.1667 10.9178 13.1716 10.7947 13.0472 10.7053C13.046 10.6414 13.0376 10.5786 13.0243 10.5182C13.2657 9.70219 13.0979 8.91149 12.8468 8.12924C12.7599 8.06044 12.6935 7.96024 12.6477 7.82745C12.5028 7.54618 12.2372 6.98606 12.2626 6.68186C12.2674 6.6227 12.2867 6.57683 12.3109 6.52372C12.3109 6.50199 12.3109 6.47905 12.3109 6.45732L12.2674 6.39817C12.2602 6.20382 12.2722 6.03119 12.2855 5.84287C12.166 5.77889 12.0429 5.71854 11.9185 5.66301L11.9101 5.62197C11.6059 5.44572 11.5166 5.18738 11.3753 4.88559C11.4441 4.71659 11.8316 4.64416 11.9777 4.7854L11.9753 4.7842Z" fill="#A8D7D7"/>
<path id="Vector_61" d="M13.6145 9.66722C13.3393 9.79156 13.5203 9.84106 13.5095 9.91228C13.501 9.96781 13.3694 10.0318 13.4467 10.1356H13.3127L13.3791 10.3034H13.2789C13.2282 10.1634 13.3477 10.0245 13.3489 9.9171C13.3489 9.85675 13.2861 9.87365 13.2789 9.84589C13.2185 9.58876 13.2994 9.28818 13.3115 9.03226V9.31111L13.4117 9.36664C13.3513 9.21574 13.425 9.20246 13.4612 9.10227C13.5167 8.94896 13.5928 8.73891 13.6362 8.53852C13.7497 8.02548 13.7594 7.51606 13.7461 6.99215C13.9078 7.8939 13.8583 8.7872 13.6121 9.66843L13.6145 9.66722Z" fill="#BEE5E8"/>
<path id="Vector_62" d="M11.741 3.74692L11.8412 3.89781C11.6577 3.96421 11.8617 3.98835 11.8666 4.02819C11.8702 4.05112 11.834 4.1139 11.8376 4.1646C11.8448 4.26962 11.9728 4.35412 11.875 4.48208C11.8509 4.4507 11.7821 4.4181 11.7422 4.36378C11.6203 4.19839 11.3499 3.87246 11.4042 3.66483C11.4115 3.63586 11.5273 3.65276 11.5406 3.57912C11.5853 3.62499 11.6879 3.70949 11.741 3.74692Z" fill="#C6E8EB"/>
<path id="Vector_63" d="M11.9415 4.58318C12.1479 4.56507 12.1129 4.67009 12.1769 4.73166C12.2686 4.81978 12.8348 5.25678 12.8445 5.30265C12.865 5.39922 12.6839 5.37387 12.6453 5.34973C12.6368 5.3449 12.696 5.24229 12.5439 5.21815L12.4763 5.35214C12.4111 5.23022 12.2904 5.02862 12.2083 4.91756C12.1262 4.80651 12.0284 4.69665 11.9403 4.58318H11.9415Z" fill="#CAEBEC"/>
<path id="Vector_64" d="M11.841 6.38965C11.8518 6.39689 11.8977 6.37999 11.9074 6.38965C11.917 6.39931 11.9001 6.5997 11.9098 6.67092C11.9363 6.85441 11.975 7.04393 12.0076 7.25881L12.0522 7.31675C12.0522 7.5099 12.1077 7.70908 12.2236 7.9143L12.1488 7.98552C12.3311 8.04105 12.2997 8.15573 12.2164 8.29214C12.3938 8.46597 12.4192 8.55651 12.4566 8.79311L12.4095 8.86313C12.447 9.08887 12.4059 9.23855 12.4433 9.4655C12.4361 9.52948 12.4011 9.58863 12.3383 9.64416C12.3504 9.96889 12.1524 9.87231 12.0619 9.63692C11.8989 9.6345 11.6816 9.33875 11.8047 9.20597C11.7565 9.10336 11.7577 8.98143 11.8084 8.84019C11.7118 8.73155 11.7178 8.60238 11.8253 8.45149C11.8458 8.34405 11.6575 8.16056 11.649 8.33681L11.573 8.36215C11.55 8.50943 11.4945 8.59755 11.4052 8.63015C10.8849 9.60554 10.862 11.4875 10.7316 12.6222C10.7026 12.8806 10.6314 13.163 10.6024 13.4129L10.5348 13.3284C10.4998 13.4226 10.431 13.6302 10.3513 13.4455C10.3356 13.4093 10.3634 13.3683 10.3562 13.3357C10.3465 13.2898 10.2898 13.262 10.3042 13.2017C10.3151 13.1534 10.3972 13.1208 10.4177 13.0773C10.4732 12.9602 10.3658 12.848 10.3429 12.7176C10.3187 12.58 10.3332 12.3579 10.2934 12.2311C10.2777 12.1816 10.2004 12.137 10.2004 12.1237C10.2004 12.108 10.367 11.9945 10.3356 11.8605C10.3296 11.8328 10.2403 11.8521 10.2668 11.7893C10.2958 11.7217 10.5445 11.665 10.4672 11.4718C10.4346 11.438 10.2608 11.5901 10.2668 11.4887C10.2668 11.4827 10.3139 11.4392 10.3296 11.3849C10.3803 11.2111 10.4745 11.1435 10.4938 11.0807C10.5167 11.001 10.4829 10.9057 10.507 10.826C10.5408 10.7113 10.7014 10.7366 10.4672 10.552C10.8125 10.3395 10.4648 10.2984 10.4648 10.1838C10.4648 10.1138 10.5867 10.0799 10.5662 9.98337C10.5384 9.84938 10.4286 10.0655 10.4153 10.0655C10.3392 10.0679 10.3682 9.76488 10.3658 9.69848C10.4334 9.74798 10.5952 9.82041 10.6 9.68158C10.6 9.64537 10.4225 9.64899 10.4093 9.5826C10.4069 9.57174 10.4032 9.36531 10.4044 9.35444C10.4105 9.30978 10.4696 9.26391 10.4612 9.21803C10.4527 9.17578 10.3622 9.1444 10.3646 9.08042C10.3658 9.03454 10.4298 8.99954 10.4262 8.95246C10.4225 8.89451 10.3296 8.79432 10.3344 8.71102C10.338 8.66032 10.3972 8.62049 10.402 8.54564C10.4081 8.44786 10.3417 8.33077 10.3634 8.21246C10.3706 8.17142 10.4817 8.21488 10.5179 8.16297C10.5771 8.07968 10.4841 7.93602 10.501 7.88049C10.5131 7.83945 10.7557 7.77668 10.7847 7.5944C10.7956 7.52438 10.5867 7.33244 10.5988 7.2757C10.6169 7.18999 10.728 7.26364 10.7328 7.25881C10.7436 7.24674 10.7581 7.00409 10.7919 6.93287C10.8378 6.83509 10.9271 6.83026 10.9332 6.82302C10.9416 6.81215 10.8342 6.71678 10.8668 6.65643C11.1118 6.70351 11.2096 6.52002 11.0346 6.35584C11.1444 6.35584 11.2567 6.18805 11.3026 6.32084C11.1819 6.3317 11.1867 6.40776 11.2531 6.48984C11.3871 6.44518 11.5356 6.35343 11.6708 6.38844C11.4571 6.28221 11.678 6.10475 11.7673 6.24116C11.7963 6.28462 11.7866 6.35464 11.8373 6.38844L11.841 6.38965Z" fill="#ACD8D9"/>
<path id="Vector_65" d="M13.0458 10.7038C13.2378 10.6386 13.239 10.9597 13.2136 11.072C13.2957 11.1154 13.3983 11.008 13.414 11.0056C13.4249 11.0032 13.4865 11.043 13.5142 11.0394C13.577 11.1384 13.4382 11.2567 13.3235 11.2241C13.3645 11.352 13.3452 11.4909 13.1859 11.4184L13.1774 11.4957C13.373 11.5017 13.3851 11.7866 13.1883 11.7721C13.0567 11.6526 13.181 11.8397 13.2124 11.8301L13.7677 11.3859C14.0912 11.3243 13.7436 11.7021 13.6337 11.7987C13.5818 11.8723 13.4527 12.0691 13.4152 12.1391C13.3923 12.1826 13.6192 12.0438 13.6084 12.0039C13.7219 11.9448 13.8679 12.1041 13.8812 12.2103C13.8703 12.2164 13.8607 12.2381 13.8474 12.2441C13.8245 12.2538 13.8027 12.2695 13.781 12.2779L13.7098 12.3697C13.5263 12.4313 13.2511 12.4795 13.0736 12.4192C12.9456 12.4977 12.668 12.5158 12.5437 12.4119C12.4773 12.4518 12.4435 12.4518 12.4435 12.4119C12.4121 12.5085 12.3807 12.5025 12.3433 12.4119C12.5388 12.051 12.5968 11.9279 12.744 11.5428C12.7851 11.4341 12.8382 11.3581 12.878 11.2422C12.866 11.066 12.9589 10.8631 13.0458 10.7074V10.7038Z" fill="#C6E7EA"/>
<path id="Vector_66" d="M10.4035 5.62044C10.383 5.60475 10.2719 5.513 10.2719 5.50455C10.2719 5.4961 10.3407 5.36814 10.3467 5.36211C10.3624 5.34642 10.4143 5.3609 10.4373 5.33072C10.4844 5.27278 10.5942 5.03376 10.6099 5.02531C10.6534 5.00238 10.721 5.03496 10.7644 5.01203C10.8248 4.97823 10.9105 4.67523 11.0928 4.92994C11.1628 5.02772 11.2219 5.2595 11.292 5.35124C11.3414 5.41643 11.4284 5.43574 11.4561 5.48886C11.4996 5.57215 11.432 5.647 11.607 5.65424C11.6119 5.68563 11.6034 5.72184 11.607 5.75444C11.5406 5.71098 11.4513 5.68925 11.3644 5.61924C11.3366 5.5963 11.3402 5.55646 11.3378 5.55525C11.2992 5.53232 11.2461 5.61441 11.1954 5.6132C11.1362 5.6132 11.0493 5.53232 10.9721 5.55284C10.9515 5.61199 11.0264 5.63493 11.0264 5.66873C11.0264 5.67838 10.9696 5.83894 10.9636 5.84618C10.9419 5.87757 10.8441 5.88239 10.8031 5.88722C10.6727 5.88722 10.453 5.73392 10.4023 5.61924L10.4035 5.62044Z" fill="#95CACD"/>
<path id="Vector_67" d="M13.046 10.704C13.0002 10.8862 12.9398 11.0613 12.8782 11.2387C12.8022 11.2882 12.801 11.287 12.8191 11.1965C12.8589 10.9888 12.9917 10.7848 13.0122 10.5869C13.0195 10.5144 12.999 10.4987 12.97 10.5784C12.964 10.5965 12.865 10.9309 12.8758 10.7534C12.9012 10.3647 13.0207 9.94224 13.0255 9.53784C13.0279 9.32658 12.9664 9.19741 12.9434 9.07549C12.9253 8.9765 12.9748 8.80629 12.9434 8.63005C12.8867 8.54313 12.8505 8.4369 12.8348 8.31135C12.731 8.16167 12.7334 8.1001 12.8432 8.12907C13.2585 9.12257 13.3116 9.64648 13.0436 10.704H13.046Z" fill="#478087"/>
<path id="Vector_68" d="M11.3726 4.8847C11.3376 4.80986 11.1396 4.39822 11.1432 4.36442C11.1469 4.33544 11.2157 4.33062 11.229 4.30768C11.2543 4.26664 11.2241 4.18455 11.2881 4.14954C11.3629 4.21835 11.5259 4.29682 11.5863 4.35235C11.701 4.45858 11.8615 4.67708 11.9726 4.78451C11.7601 4.73261 11.5633 4.8159 11.3702 4.8847H11.3726Z" fill="#90C5CA"/>
<path id="Vector_69" d="M12.0089 7.25898L12.1091 7.32537C11.9292 7.33503 12.1658 7.6332 12.1912 7.69597C12.2938 7.95793 12.3384 8.19695 12.4181 8.47218C12.435 8.52892 12.4821 8.54702 12.5111 8.66412C12.5207 8.70033 12.5521 8.92125 12.5437 8.93211L12.4097 8.86572C12.4 8.81019 12.359 8.77397 12.3529 8.72086C12.3481 8.67498 12.3904 8.51926 12.3735 8.50115C12.3662 8.4927 12.301 8.49994 12.2612 8.46373C12.2479 8.45286 12.1501 8.31766 12.1477 8.30921C12.1368 8.25126 12.2539 8.11244 12.2419 8.09795C12.2334 8.0883 12.0511 8.0557 12.0415 7.94706L12.1743 7.89636C12.1489 7.80341 12.0898 7.73822 12.056 7.63078C12.0185 7.51248 12.021 7.35072 12.0077 7.26139L12.0089 7.25898Z" fill="#9ECFD2"/>
<path id="Vector_70" d="M12.8453 8.12935C12.762 8.2042 12.8803 8.31888 12.9008 8.39131C12.9238 8.46978 12.931 8.55186 12.9455 8.63154C12.7813 8.61947 12.8453 8.38286 12.8103 8.28991C12.7982 8.25852 12.6993 8.20662 12.6667 8.09676C12.6522 8.04727 12.6848 7.9676 12.6473 7.91569C12.622 7.88189 12.5568 7.90482 12.5471 7.89395C12.529 7.87343 12.5532 7.79497 12.5435 7.75151C12.5375 7.72495 12.4783 7.73099 12.4747 7.70685C12.4445 7.44368 12.418 7.48232 12.3287 7.24209C12.2973 7.15759 12.1995 6.7218 12.2103 6.64454C12.2103 6.6373 12.2973 6.54435 12.3093 6.52383C12.3057 7.19984 12.3999 7.12741 12.6498 7.67184C12.7186 7.82153 12.7813 7.97846 12.8441 8.12935H12.8453Z" fill="#538E95"/>
<path id="Vector_71" d="M11.9087 5.62122C11.9847 5.66468 12.3239 5.77211 12.3372 5.79384C12.3782 5.86024 12.3179 6.02803 12.3167 6.10649C12.3131 6.21997 12.3119 6.34069 12.3106 6.45778C12.2756 6.4771 12.2117 6.54228 12.2189 6.44812C12.2249 6.37207 12.2334 6.30085 12.2274 6.22359C12.2237 6.16685 12.1791 6.09684 12.1779 6.07149C12.1779 6.05579 12.231 6.06062 12.237 6.05338C12.2829 5.9906 12.0885 5.84454 12.0427 5.80712L12.1091 5.75763C12.0813 5.73952 11.794 5.71296 11.9087 5.62363V5.62122Z" fill="#538E95"/>
<path id="Vector_72" d="M11.6408 5.75448C11.6553 5.76172 11.8485 5.94159 11.8557 5.95487C11.8617 5.96694 11.8762 6.19751 11.875 6.22286C11.8074 6.18665 11.8062 6.06713 11.7652 6.03092C11.741 6.0104 11.6119 5.99471 11.6143 5.93797C11.6143 5.91745 11.7121 5.83777 11.642 5.75327L11.6408 5.75448Z" fill="#95CACD"/>
<path id="Vector_73" d="M12.6885 1.81745C12.7151 1.78606 12.9166 1.63758 12.9577 1.64483C13.0313 1.65931 13.1182 1.87056 13.0989 1.94299C13.082 2.00456 12.8744 2.1458 12.8334 2.13855C12.7549 2.12527 12.5919 1.93334 12.6885 1.81745Z" fill="#FD8972"/>
<path id="Vector_74" d="M12.8443 1.10639C12.8649 1.19331 12.819 1.16434 12.7816 1.19211C12.6814 1.26574 12.5715 1.3261 12.4774 1.40698C12.4291 1.34783 12.7152 1.01948 12.8443 1.10639Z" fill="#304F4F"/>
<path id="Vector_75" d="M13.9149 6.15489C14.411 7.57693 14.7635 9.53253 14.4014 11.0053C14.3615 11.1694 14.0561 12.1424 13.974 12.2016C13.9451 12.2221 13.8944 12.2016 13.8811 12.2076C13.8087 12.2197 13.7109 12.0398 13.6638 12.041C13.6421 12.041 13.4622 12.3537 13.3137 12.1243C13.461 12.0507 13.4924 11.8768 13.5805 11.7561C13.6143 11.7103 13.8895 11.4507 13.8473 11.4048L13.2244 11.9046C13.1049 11.8865 12.9999 11.6897 13.0783 11.6064C13.1411 11.5413 13.1785 11.7622 13.2449 11.7066C13.2558 11.6982 13.2751 11.6185 13.2473 11.5871C13.1942 11.5268 13.1073 11.604 13.1085 11.4568C13.1085 11.4326 13.1387 11.3107 13.1447 11.3059C13.2099 11.2455 13.2159 11.4411 13.2775 11.3722C13.286 11.3638 13.2328 11.1477 13.2437 11.1381C13.2739 11.1127 13.3849 11.1719 13.4055 11.1646C13.4127 11.1622 13.4706 11.062 13.5117 11.0379C13.8087 10.8556 13.898 10.7928 14.0296 10.4355C14.5173 9.11244 14.1949 7.63607 13.9016 6.31664C13.8907 6.26836 13.8497 6.18748 13.9137 6.15489H13.9149Z" fill="#F2FDFD"/>
<path id="Vector_76" d="M13.9489 5.9897C13.9284 5.95711 13.8897 5.9221 13.8656 5.8895L13.8487 5.95589C13.7533 5.69998 13.6085 5.45734 13.5481 5.18693C13.6157 5.30161 13.7316 5.4344 13.7956 5.55874C13.8596 5.68308 13.9453 5.85087 13.9501 5.9897H13.9489Z" fill="#6A9DA1"/>
<path id="Vector_77" d="M8.46347 12.2431C8.65179 12.2817 8.54315 12.3928 8.53349 12.464C8.5178 12.5895 8.51417 12.8008 8.63127 12.8623L8.56367 12.8792C8.54435 12.9372 8.60833 12.9565 8.6192 13.0024C8.63489 13.0724 8.60954 13.2378 8.61799 13.3307C8.62523 13.4176 8.73991 13.5637 8.59747 13.5975C8.76647 13.6977 8.64938 13.8643 8.66386 13.9959C8.6699 14.0538 8.72301 14.1021 8.72543 14.1383C8.72905 14.183 8.67231 14.2132 8.67111 14.2337C8.67111 14.2614 8.75078 14.2964 8.75923 14.3387C8.77371 14.4051 8.653 14.4848 8.66386 14.5343C8.69163 14.6695 8.7713 14.486 8.78096 14.486C8.9234 14.5753 8.77613 14.6163 8.79786 14.7528C8.9741 14.4944 8.99945 14.8107 9.06585 14.8517C9.18656 14.929 9.0248 14.6912 9.23244 14.719C9.28676 14.7262 9.38937 14.7854 9.46663 14.7854C9.46542 14.8409 9.46904 14.8976 9.46663 14.9531C9.37488 15.3781 9.16121 15.0352 9.08396 15.0533L9.03084 15.1535C8.9898 15.1729 8.99342 15.0123 8.93064 15.0871C8.9065 15.1161 8.98014 15.1994 8.94634 15.2211C8.83528 15.2127 8.87149 15.063 8.80631 15.0183C8.72422 14.9616 8.68438 15.0654 8.66265 15.0533C8.66024 15.0521 8.66869 15.0147 8.65058 15.0002C8.53469 14.9025 8.5697 15.0171 8.54435 15.022C8.42484 15.0449 8.37897 14.9 8.49607 14.9C8.52624 14.9 8.6035 14.9531 8.62765 14.9037C8.6192 14.7226 8.48399 14.8336 8.39346 14.7359C8.37294 14.6658 8.44054 14.6948 8.4514 14.6803C8.46227 14.6646 8.38138 14.6151 8.56005 14.5693C8.45744 14.4413 8.45502 14.5862 8.44536 14.5862C8.43088 14.5862 8.30775 14.5306 8.30171 14.5053C8.27878 14.3894 8.39346 14.3435 8.39466 14.3327C8.39949 14.2349 8.16047 14.0116 8.42726 14.0852C8.45381 13.9971 8.38259 14.0321 8.36207 13.9935C8.26912 13.8208 8.44778 13.7544 8.4514 13.7013C8.45864 13.6132 8.32344 13.5468 8.32706 13.5033C8.33551 13.379 8.41519 13.3524 8.52866 13.35C8.51176 13.0941 8.42605 13.3066 8.37776 13.3162C8.29447 13.3343 8.28602 13.0301 8.29688 13.0181C8.30533 13.0096 8.3669 13.0169 8.39466 12.9987C8.42605 12.9782 8.43933 12.6849 8.42726 12.6366C8.42001 12.6052 8.35603 12.633 8.36328 12.569C8.37173 12.4942 8.42243 12.4652 8.49486 12.4797C8.50572 12.4712 8.40311 12.3336 8.40432 12.2938C8.40553 12.2636 8.45864 12.2527 8.46106 12.2455L8.46347 12.2431Z" fill="#518A92"/>
<path id="Vector_78" d="M10.4033 5.62114C10.5264 5.71771 10.6725 5.78531 10.804 5.88913C10.8439 5.92051 11.0455 6.07624 11.0551 6.08952C11.0889 6.14384 11.101 6.25128 11.0056 6.22351C11.0358 6.05089 10.9718 6.11366 10.9103 6.06899C10.8185 6.0026 10.7316 5.94949 10.6374 5.88913C10.5131 5.80945 10.4093 5.6827 10.2367 5.65494L9.90228 5.58854L10.4033 5.62114Z" fill="#ACD8D9"/>
<path id="Vector_79" d="M14.9183 9.76668C14.9738 9.80169 14.9521 9.89343 14.9521 9.95017C14.9557 10.2495 14.9473 10.5525 14.9147 10.8495C14.905 10.9304 14.8423 11.0934 14.8495 11.1513C14.8531 11.1779 14.9497 11.1597 14.9183 11.2213C14.8918 11.2744 14.794 11.2551 14.7831 11.2937C14.7457 11.4229 14.7396 11.6716 14.7095 11.8152C14.6612 12.0482 14.6153 12.2196 14.5827 12.4587C14.5694 12.554 14.6129 12.5492 14.4837 12.5419C14.4934 12.1605 14.7107 11.5605 14.7759 11.1453C14.841 10.73 14.899 10.1976 14.9183 9.76668Z" fill="#76AFB4"/>
<path id="Vector_80" d="M14.4834 12.578C14.481 12.6576 14.5366 12.7784 14.4834 12.8786C14.4219 12.8918 14.4726 12.8146 14.4339 12.8109C14.4086 12.8085 14.4291 12.9063 14.3507 12.8786C14.3917 12.7784 14.417 12.6649 14.4846 12.578H14.4834Z" fill="#76AFB4"/>
<path id="Vector_81" d="M17.294 24.0488C17.4099 24.1092 17.3556 24.3313 17.3641 24.3446C17.387 24.3784 17.562 24.4761 17.5922 24.5003C17.6489 24.545 17.626 24.6234 17.6272 24.6838C17.6067 24.6946 17.5813 24.7405 17.5608 24.7502C17.4413 24.8045 17.2264 24.8154 17.0924 24.8166C17.0924 24.72 16.8257 24.4085 16.7581 24.3144C16.7303 24.2226 16.8595 24.1381 16.9259 24.2142C17.0381 24.1575 17.1938 24.1031 17.294 24.0464V24.0488Z" fill="#FD8974"/>
<path id="Vector_82" d="M13.046 12.6104C12.8456 12.4716 13.1269 12.3002 13.2054 12.5102L13.6653 12.4028C13.71 12.3979 13.7341 12.4354 13.7486 12.4764C13.8331 12.4981 13.8765 12.6116 13.8174 12.6901C13.7969 12.7178 13.7486 12.7058 13.7293 12.7227C13.547 12.8832 13.3876 12.917 13.2657 13.1476C13.2416 13.1923 13.2512 13.2743 13.2476 13.2792C13.2355 13.2924 13.1462 13.2345 13.1015 13.2478C13.0834 13.2526 13.0001 13.383 12.8879 13.4047C12.8384 13.4144 12.7853 13.3757 12.7804 13.3782C12.7382 13.4059 12.7454 13.6618 12.8806 13.6292C12.807 13.7693 12.7575 13.7439 12.6464 13.797C12.8517 13.884 12.5571 13.9383 12.5475 13.9491C12.4823 14.0276 12.644 14.0807 12.6464 14.0976C12.6477 14.1121 12.5294 14.2763 12.5233 14.3366C12.5112 14.4562 12.5921 14.8376 12.6573 14.9414C12.673 14.9668 12.7285 14.9716 12.7478 15.0018C12.632 15.0465 12.6501 15.1454 12.7816 15.1189C12.7913 15.2215 12.6959 15.2239 12.6139 15.2191L12.714 15.5197C12.6694 15.4557 12.5523 15.4122 12.5487 15.2674L12.3459 14.9511L12.2674 14.9257C12.1805 14.7229 12.1636 14.5081 12.1563 14.2872C11.9861 14.2799 11.9547 14.1302 12.1081 14.0723C12.0779 13.8791 12.1117 13.7125 12.2082 13.5689C12.1636 13.2888 12.5294 13.0607 12.7442 12.9291C12.6223 12.7987 12.5052 12.6683 12.7672 12.672C12.8553 12.7166 12.9482 12.6961 13.0472 12.6092L13.046 12.6104Z" fill="#7BB4B9"/>
<path id="Vector_83" d="M13.7809 12.2756L13.7471 12.476C13.5842 12.4337 13.3077 12.5931 13.1641 12.5786C13.1315 12.575 13.1496 12.412 13.0458 12.4434C13.0433 12.4989 13.0494 12.5556 13.0458 12.61C13.0264 12.715 12.8019 12.7114 12.7065 12.6727C12.61 12.8019 12.2309 12.7271 12.4434 12.5762C12.4361 12.4893 12.441 12.4108 12.5436 12.4084C12.9432 12.4023 13.4007 12.4011 13.7809 12.2744V12.2756Z" fill="#32636A"/>
<path id="Union" d="M12.3433 14.9535C12.4771 14.9143 12.5878 15.2197 12.606 15.3442L12.7095 15.5219C12.8676 15.7512 12.9806 16.1324 13.0543 16.4076C13.0591 16.427 13.1109 16.4228 13.1109 16.4457C13.1107 16.4745 13.076 16.5128 13.0816 16.5405C13.0888 16.5815 13.1635 16.5821 13.1744 16.599C13.1875 16.6183 13.1483 16.6695 13.1539 16.7045C13.1611 16.7492 13.2444 16.8563 13.2662 16.9613C13.278 17.0226 13.2401 17.0944 13.2613 17.1283C13.2782 17.1549 13.3434 17.165 13.3736 17.2192C13.4183 17.2952 13.4029 17.4522 13.4439 17.5102C13.4681 17.5451 13.5384 17.5294 13.565 17.5619C13.572 17.5711 13.5573 17.6614 13.5777 17.7143C13.6875 17.9906 13.8716 18.2921 13.9791 18.56C14.0092 18.636 14.1404 19.0072 14.1548 19.0278C14.1721 19.0533 14.3123 19.175 14.3267 19.2123C14.3579 19.293 14.2695 19.2948 14.2828 19.3696C14.4819 19.279 14.381 19.4315 14.5171 19.5365V19.5707C14.5884 19.654 14.6101 19.7327 14.5836 19.8051C14.6282 20.079 14.657 20.1687 14.7173 20.4076C14.8452 20.5126 14.8329 20.6272 14.7955 20.7865C14.8619 20.9459 14.999 21.0691 15.1451 21.185L15.2232 21.4399C15.2919 21.4894 15.3315 21.5737 15.3423 21.6967C15.5234 21.7233 15.5684 21.9202 15.5865 22.0795C15.5878 22.0801 15.5891 22.0809 15.5904 22.0815L15.5865 22.0776C15.6793 22.0197 15.7255 22.0204 15.7232 22.0805C15.8691 22.07 15.9941 22.2467 15.9869 22.3793C15.986 22.463 16.0808 22.7491 16.1207 22.8471C16.1315 22.9182 16.1417 22.9896 16.149 23.0619C16.2661 23.0535 16.3952 23.1374 16.3228 23.2485C16.3349 23.3508 16.3662 23.4185 16.4566 23.4487C16.4842 23.4306 16.5105 23.4314 16.5367 23.4496C16.4332 23.2899 16.3351 23.1256 16.2496 22.9535L16.2896 22.8832C16.2667 22.8349 16.2711 22.7503 16.2554 22.7153C16.2651 22.6889 16.2764 22.6888 16.2896 22.7153C16.3053 22.7442 16.3458 22.7721 16.3687 22.8178C16.4182 22.9156 16.6204 23.4483 16.6627 23.4809C16.6751 23.4875 16.8516 23.4721 16.8814 23.4613C16.9743 23.4276 16.9629 23.2502 17.1255 23.35C17.1387 23.3656 17.0163 23.4781 16.9898 23.4985C16.9332 23.543 16.7261 23.6347 16.6998 23.6615C16.6503 23.7134 16.5983 23.8282 16.4898 23.8862C16.4789 23.9574 16.4001 24.0058 16.2564 24.0336C16.2033 24.1978 16.1361 24.2494 16.0552 24.1879C15.8923 23.8705 15.781 23.5313 15.6011 23.2211C15.1581 22.4558 14.4769 21.7903 14.1148 20.978L14.0025 20.8764C13.8999 20.6144 13.859 20.552 13.7974 20.2768C13.7407 20.0221 13.7308 19.6597 13.6656 19.4389C13.629 19.3181 13.4168 19.1157 13.3384 18.9975C13.0693 18.5871 12.8873 18.1655 12.6773 17.7358C12.6158 17.6092 12.5134 17.4707 12.4771 17.4018C12.4493 17.3487 12.4252 17.1646 12.4107 17.1332C12.3976 17.0165 12.5153 17.0058 12.6021 17.0707C12.6134 17.0792 12.6218 17.0903 12.6285 17.102C12.6949 17.0416 12.6703 16.9519 12.5513 16.8305C12.5958 16.7282 12.5952 16.673 12.5474 16.6655C12.4557 16.4023 12.4395 16.14 12.4986 15.8793C12.3395 15.8046 12.274 15.7224 12.3004 15.6332C11.9411 15.7078 12.0351 15.385 12.2379 15.2475C12.1078 15.1654 12.1431 15.0689 12.3433 14.9604V14.9535Z" fill="#65A0A7"/>
<path id="Vector_84" d="M16.4913 23.883C16.5661 24.1896 16.6675 23.9748 16.7375 23.9856C16.816 23.9977 16.7967 24.1015 16.8087 24.1196C16.8232 24.1414 16.9138 24.1027 16.9258 24.2174C16.8751 24.2428 16.8196 24.2862 16.758 24.3176C16.6941 24.3502 16.3029 24.5578 16.2776 24.5494C16.1726 24.448 16.1207 24.3092 16.0555 24.1836C16.1617 24.1583 16.1665 24.0206 16.2124 23.9808C16.2752 23.9253 16.4393 23.9096 16.49 23.883H16.4913Z" fill="#7BB1B6"/>
<path id="Union_2" d="M13.7818 12.2762C13.7555 12.1909 13.7832 12.1852 13.8483 12.243L13.9137 12.2811C14.0741 12.1706 14.2489 12.5491 14.149 12.6434C14.1358 12.7207 14.0439 12.6825 14.0318 12.7079C14.0077 12.7578 13.982 12.9734 13.941 13.0047C13.9155 13.0225 13.8545 13.0048 13.816 13.0311C13.8065 13.0383 13.655 13.1825 13.6471 13.1962C13.6386 13.2179 13.7803 13.2326 13.7467 13.3133C13.6379 13.2658 13.6097 13.3735 13.5904 13.3797C13.547 13.3906 13.4732 13.3584 13.443 13.3993C13.4321 13.415 13.3138 13.7462 13.315 13.7655C13.3178 13.8086 13.3685 13.8422 13.3688 13.8651C13.3688 13.8917 13.3011 13.9247 13.318 13.9911C13.3265 14.0248 13.3887 14.0587 13.3815 14.0985C13.3667 14.1754 13.1851 14.1398 13.1305 14.1493C12.9977 14.1734 13.0783 14.2528 13.0602 14.3192C13.036 14.4073 12.9117 14.6165 12.9117 14.6346C12.9121 14.7008 13.0067 14.7397 13.0055 14.7674C13.0047 14.7855 12.9575 14.8152 12.9547 14.8426C12.9499 14.8885 12.9732 14.9251 12.9684 14.9637C12.966 14.9891 12.9274 15.0157 12.9274 15.035C12.9237 15.1244 13.0951 15.295 13.1012 15.3348C13.1081 15.3892 13.0648 15.4811 13.0816 15.5702C13.0963 15.6496 13.1849 15.6875 13.2018 15.7538C13.2183 15.82 13.1685 15.8817 13.1793 15.9335C13.1843 15.9554 13.3868 16.1988 13.4195 16.2723C13.4425 16.323 13.4118 16.3692 13.4215 16.3837C13.4383 16.4067 13.567 16.4506 13.5983 16.5262C13.6428 16.6311 13.6192 16.7551 13.7154 16.8768C13.7577 16.9299 13.8523 16.9679 13.8668 16.9921C13.8856 17.0251 13.8278 17.1494 13.8326 17.2108C13.8401 17.3131 13.9369 17.3576 13.9742 17.4178C14.0213 17.4927 13.9597 17.6222 14.149 17.5282C14.1885 17.6734 14.07 17.608 14.0299 17.659C14.0239 17.6675 14.0465 17.8197 14.0152 17.8622C14.1394 17.761 14.2936 17.7825 14.3649 17.9305C14.3842 17.9704 14.3614 18.0292 14.3795 18.0799C14.405 18.1499 14.4782 18.2305 14.483 18.2811C14.4878 18.3317 14.432 18.436 14.4508 18.4618C14.4616 18.4762 14.573 18.4719 14.5856 18.5174C14.6266 18.6754 14.5161 18.6154 14.44 18.661C14.3495 18.7153 14.4547 18.8542 14.485 18.9315C14.4854 18.9333 14.4846 18.9356 14.485 18.9374C14.5504 19.1029 14.6108 19.2579 14.6764 19.4237C14.7017 19.4865 14.8085 19.6293 14.8121 19.6571C14.8164 19.6888 14.7299 19.7886 14.7838 19.868C14.8502 19.8825 14.9146 19.7488 14.9508 19.8514C14.9611 19.8823 14.8828 19.8527 14.8834 19.8846C14.8846 19.9498 15.0325 20.0725 14.8502 20.1522L15.151 20.454C15.1723 20.5151 15.0908 20.4949 15.0836 20.5262C15.0753 20.565 15.116 20.6769 15.0836 20.7372C15.2412 20.7264 15.1516 20.7504 15.1656 20.8153C15.1958 20.9553 15.2334 20.9194 15.2672 20.9725C15.272 20.9805 15.2648 21.2051 15.3443 21.0497C15.4599 20.8207 15.2825 20.8664 15.2125 20.7567C15.1837 20.711 15.2187 20.6843 15.2154 20.659C15.213 20.6409 15.0836 20.6221 15.15 20.5702C15.2005 20.5309 15.2329 20.5881 15.2594 20.6122C15.5152 20.8475 15.5108 21.0366 15.6363 21.3046C15.664 21.3636 15.7972 21.4516 15.8121 21.5311C15.8302 21.6253 15.757 21.7021 15.8717 21.8397C15.9308 21.9107 16.015 21.9087 16.0367 21.9413C16.0631 21.98 16.0466 22.0557 16.0719 22.1063C16.1105 22.1824 16.2239 22.2777 16.2408 22.3417C16.254 22.3922 16.2124 22.4534 16.2252 22.4706C16.3 22.5683 16.4135 22.6831 16.5016 22.8133C16.5436 22.8758 16.7028 23.1915 16.7272 23.2069C16.7634 23.2262 16.8207 23.1801 16.8678 23.1874C16.9245 23.1959 16.9946 23.2775 17.108 23.2811C17.2214 23.2846 17.3046 23.1915 17.3902 23.329C17.2876 23.3785 17.2009 23.4995 17.1236 23.5575C17.0765 23.5924 16.9444 23.5753 16.9215 23.6971C16.9119 23.7453 16.9231 23.7586 16.9723 23.7479C17.1121 23.719 17.1608 23.5887 17.2897 23.5799C17.3247 23.6101 17.0695 23.6453 17.2711 23.7684C17.3037 23.7888 17.3544 23.7777 17.358 23.7801C17.3991 23.82 17.1999 23.9306 17.358 23.9813C17.3195 24.003 17.2989 24.0439 17.2916 24.0477C17.3029 24.1635 17.0091 24.2834 16.9234 24.2147C16.8257 24.2002 16.7267 24.1738 16.7291 24.0506C16.5794 24.1967 16.3561 24.0159 16.4889 23.8807C16.4816 23.7998 16.5288 23.7274 16.6315 23.6659C16.7651 23.5394 16.7783 23.4984 16.6725 23.5428C16.5192 23.2748 16.3893 22.9971 16.2867 22.7098C16.1769 22.5276 16.1666 22.5276 16.2535 22.7098C16.3018 22.7522 16.3554 22.8416 16.2867 22.8778C16.3287 23.0586 16.0464 23.0198 16.1188 22.8436C15.9983 22.8283 15.8747 22.438 15.985 22.3758C15.9846 22.3733 15.9834 22.3705 15.983 22.368C15.8924 22.2613 15.8423 22.1385 15.7047 22.0751C15.6647 22.0652 15.7541 22.2022 15.5885 22.0751C15.4219 21.9471 15.5141 21.941 15.4791 21.8505C15.4751 21.8424 15.376 21.7809 15.3551 21.7508C15.2984 21.664 15.3031 21.4792 15.1539 21.5077C15.1953 21.468 15.0667 21.1544 15.0533 21.1395C15.0401 21.1251 14.9369 21.1886 14.9205 21.1737C14.9929 21.0337 14.8917 21.0935 14.8434 20.9969C14.7845 20.8779 14.7553 20.5495 14.7193 20.4061C14.7181 20.4041 14.7167 20.4022 14.7154 20.4003C14.6092 20.3797 14.5192 19.9631 14.524 19.8641L14.5816 19.7997C14.6009 19.7201 14.5778 19.6424 14.5152 19.5653C14.4897 19.5557 14.487 19.5474 14.5065 19.537C14.4422 19.5733 14.3952 19.5316 14.3629 19.4071C14.229 19.4445 14.1865 19.3339 14.2672 19.2362L14.0924 19.0438C13.9355 18.6119 13.7497 18.1896 13.5338 17.7782C13.5229 17.6648 13.4719 17.5808 13.3815 17.5301C13.3742 17.3541 13.3126 17.225 13.1969 17.1405C13.2102 16.986 13.1871 16.8829 13.1002 16.7489C13.105 16.6706 13.084 16.6187 13.0406 16.5946C12.9573 16.2735 12.8583 15.9148 12.6881 15.6083L12.7115 15.5204C12.6452 15.4239 12.5835 15.3213 12.569 15.202C12.6196 15.1815 12.6395 15.1161 12.6275 15.0077C12.4875 14.7602 12.3663 14.3701 12.5533 14.119C12.4121 14.0225 12.4493 13.8909 12.6109 13.8583C12.6001 13.7678 12.6532 13.7046 12.7701 13.6708C12.64 13.5259 12.6451 13.2789 12.8912 13.3368C12.984 13.2464 13.0767 13.1967 13.1695 13.1893C13.2794 12.931 13.5323 12.7634 13.7701 12.6464C13.7701 12.5922 13.7631 12.5352 13.7486 12.4774C13.6412 12.4484 13.6949 12.3112 13.7818 12.2762ZM15.7223 22.076L15.7242 22.0751L15.7223 22.0741V22.076Z" fill="#8CC3C7"/>
<path id="Vector_85" d="M16.2895 22.8781C16.3499 23.0036 16.636 23.4756 16.6239 23.5806C16.5804 23.542 16.4887 23.4853 16.4561 23.4467C16.3752 23.4467 16.3149 23.3247 16.3221 23.2463C16.2943 23.2161 16.2629 23.1449 16.2231 23.1304C16.1833 23.1159 16.1 23.1593 16.0879 23.1461C16.0782 23.1364 16.0879 22.9312 16.0541 22.8781L16.1205 22.8443C16.1615 22.9469 16.2159 22.9541 16.2883 22.8781H16.2895Z" fill="#8CC3C7"/>
<path id="Vector_86" d="M14.5174 19.5674C14.6019 19.6096 14.7057 19.7642 14.5838 19.8016C14.5778 19.763 14.5271 19.6869 14.5174 19.5674Z" fill="#8CC3C7"/>
<path id="Vector_87" d="M16.2569 22.7123C16.2436 22.6833 16.0879 22.5167 16.1229 22.4781C16.2472 22.5022 16.2412 22.6229 16.2895 22.7123H16.2557H16.2569Z" fill="#8CC3C7"/>
<path id="Vector_88" d="M11.8085 18.5639C11.7228 19.1144 11.4983 19.998 11.3088 20.5219C11.2726 20.6221 11.2219 20.7187 11.106 20.7368L11.1724 20.5364L11.0384 20.5521C11.0396 20.3819 11.1313 20.4229 11.1917 20.371C11.24 20.33 11.3329 19.7904 11.3414 19.6817C11.3474 19.6021 11.3027 19.4777 11.3088 19.4681C11.3257 19.4439 11.485 19.4125 11.508 19.3739C11.5599 19.2846 11.5333 19.1011 11.5526 19.019C11.5876 18.8717 11.6927 18.6472 11.7301 18.4999C11.7808 18.3007 11.7711 18.0702 11.8749 17.8915C11.852 18.104 11.8399 18.3575 11.8085 18.5603V18.5639Z" fill="#FDC492"/>
<path id="Vector_89" d="M10.5372 16.6919C10.3682 16.6484 10.1944 16.5989 10.035 16.5241C10.1123 16.442 10.1268 16.3466 10.169 16.2561C10.2052 16.1789 10.2414 16.1945 10.2692 16.0557C10.3006 15.9121 10.4829 15.9869 10.5662 16.069C10.6941 16.197 10.7436 16.6364 10.5372 16.6907V16.6919Z" fill="#4F8A8F"/>
<path id="Vector_90" d="M10.4371 15.5867C10.5288 15.5649 10.4866 15.6796 10.5228 15.6893C10.5699 15.7013 10.6495 15.6772 10.7039 15.6869C10.7135 15.7436 10.6616 15.7146 10.6266 15.7195C10.5192 15.7351 10.6628 15.804 10.6701 15.8112C10.6942 15.8366 10.6966 15.88 10.7389 15.9042C10.7473 15.909 10.9103 15.95 10.92 15.95C10.9574 15.9524 11.0262 15.9102 11.0383 15.921C11.1131 15.9838 10.9453 15.9742 10.9719 16.0369C11.002 16.1082 11.0914 16.0442 11.1022 16.0551C11.1083 16.0611 11.1638 16.1975 11.1638 16.2059C11.1638 16.2337 11.0914 16.2675 11.0757 16.3098C11.037 16.4184 11.1059 16.3713 11.1445 16.3906C11.171 16.4027 11.1843 16.5102 11.2374 16.4558C11.2543 16.4389 11.2362 16.2603 11.3038 16.2554C11.3533 16.4353 11.4897 16.5536 11.5718 16.7407C11.5839 16.7673 11.4752 16.7359 11.5054 16.8071C11.5368 16.8771 11.6153 16.8252 11.6394 16.8397C11.6732 16.8602 11.6056 16.9375 11.7263 16.9556C11.7939 16.9665 11.7686 16.8264 11.8229 16.9242C11.8821 17.0292 11.8458 17.0594 11.806 17.1584C11.4982 17.0099 11.0974 16.8892 10.7691 16.7902C10.833 16.5427 10.8874 16.3339 10.7691 16.0876C10.7111 16.0973 10.6568 16.0659 10.6061 15.9935C10.3997 15.9174 10.32 15.816 10.3683 15.6869C10.3876 15.6869 10.4323 15.6012 10.4347 15.5867H10.4371Z" fill="#44767C"/>
<path id="Vector_91" d="M10.3696 15.6872C10.4178 15.9214 10.6496 15.8356 10.7703 16.0879C10.7027 16.2956 10.8017 16.5008 10.7027 16.7229C10.6388 16.7434 10.5881 16.7036 10.5361 16.6903C10.6689 16.4598 10.6315 15.9648 10.2682 16.0554C10.2935 15.931 10.2851 15.7801 10.3358 15.6534C10.349 15.6594 10.3623 15.6872 10.3684 15.6872H10.3696Z" fill="#F4A376"/>
<path id="Vector_92" d="M10.1355 21.1056C9.96531 21.4002 9.82407 21.6863 9.60799 21.9989C9.43053 22.256 9.20721 22.4939 9.03217 22.7437C8.88972 22.8922 8.74607 23.0962 8.60001 23.3558L8.52999 23.3787C8.84144 22.6979 9.37621 22.1522 9.80113 21.539C9.90495 21.3893 9.97738 21.2058 10.1355 21.1044V21.1056Z" fill="#8ABFC5"/>
<path id="Vector_93" d="M9.03207 22.7458C8.85824 22.9944 8.32709 23.9457 8.14722 24.0531C7.9915 24.1461 7.90579 23.965 7.82853 23.9167C7.94804 24.0085 7.96856 23.7803 8.06272 23.8503C8.06755 23.854 8.00477 23.9904 8.07962 23.9831C8.10618 23.9807 8.1436 23.901 8.16291 23.8829L8.3633 23.6149C8.42487 23.5389 8.47315 23.4592 8.5311 23.3807C8.67234 23.1888 8.79185 22.9848 8.93308 22.7965C8.94395 22.782 9.01879 22.6782 9.03207 22.7458Z" fill="#97BFC2"/>
<path id="Vector_94" d="M11.2738 6.15504C11.2436 6.11641 11.3583 6.00898 11.374 6.02105C11.3656 6.06088 11.4126 6.10796 11.4078 6.13693C11.3994 6.19246 11.2883 6.17315 11.2738 6.15383V6.15504Z" fill="#ACD8D9"/>
<path id="Vector_95" d="M12.4434 12.4105C12.4519 12.4588 12.4519 12.5155 12.4434 12.5783C12.4507 12.6085 12.4217 12.6701 12.4615 12.6809L13.0458 12.6121C13.0434 12.6459 13.053 12.7364 13.0458 12.7461C13.0422 12.7509 12.9879 12.7099 12.9468 12.728C12.9009 12.7485 12.8708 12.8451 12.7778 12.8137C12.814 12.728 12.7223 12.6701 12.6776 12.7135C12.6233 12.7666 12.7295 12.7799 12.7428 12.8077C12.7537 12.8294 12.738 12.8704 12.7452 12.8801C12.7488 12.8861 12.884 12.8149 12.878 12.897C12.8744 12.9525 12.5883 13.0974 12.5279 13.1481C12.5026 13.1698 12.2696 13.4294 12.2636 13.4475C12.2503 13.4897 12.2841 13.538 12.272 13.5899C12.2599 13.6418 12.1972 13.6792 12.1791 13.7674C12.1634 13.8458 12.1851 14.045 12.1646 14.1018C12.144 14.1585 12.0499 14.1211 12.0764 14.2164C12.109 14.2225 12.1984 14.2056 12.2104 14.2164C12.2273 14.2321 12.2346 14.5738 12.2454 14.6329C12.2611 14.7174 12.3155 14.8635 12.3444 14.9528C12.4036 15.1411 12.301 14.9854 12.2104 15.1532C12.4905 15.2751 12.2756 15.2775 12.208 15.3439C12.1911 15.3608 12.1018 15.5467 12.1102 15.554C12.3613 15.6095 12.2684 15.531 12.3275 15.42C12.3782 15.3246 12.4289 15.4876 12.412 15.5697C12.3988 15.6324 12.3372 15.6554 12.3456 15.7206C12.7331 15.7894 12.4977 15.9886 12.5207 16.2408C12.5315 16.3579 12.6366 16.4859 12.581 16.6247L12.7138 16.5909C12.7392 16.6175 12.6209 16.7527 12.6185 16.8155C12.6173 16.8577 12.8659 17.0207 12.68 17.1088C12.7199 17.18 12.8188 17.1824 12.8647 17.2271C12.8744 17.2368 12.9939 17.5084 12.8973 17.4601C12.8406 17.4311 12.8237 17.3007 12.7802 17.2742C12.7199 17.238 12.6028 17.3527 12.5472 17.075L12.4132 17.1269C12.3686 17.0364 12.2949 16.9169 12.2454 16.8263C12.2937 16.7298 12.2189 16.5982 12.1115 16.5921C12.0439 16.463 11.94 16.3447 11.8724 16.2131C11.6129 15.7109 11.3727 15.0301 11.0636 14.5798C11.0238 14.5218 11.0298 14.5025 10.9417 14.5182C11.153 14.3504 11.0588 14.4168 11.2097 14.2176C11.7179 13.5404 11.9437 13.1565 12.3468 12.4117C12.3794 12.4081 12.4169 12.4166 12.447 12.4117L12.4434 12.4105Z" fill="#5C959C"/>
<path id="Vector_96" d="M11.5742 8.36304C11.5826 8.33045 11.6816 7.89707 11.7746 7.99485C11.8035 8.02503 11.6997 8.1035 11.7058 8.17472C11.7082 8.19645 11.9061 8.27371 11.8929 8.44754C11.8868 8.53325 11.777 8.6093 11.8072 8.74209C11.8132 8.77106 11.8748 8.74813 11.876 8.81332C11.8784 8.90506 11.8265 9.03301 11.8216 9.11631C11.8204 9.13804 11.8723 9.17184 11.8687 9.21168C11.8651 9.24789 11.818 9.28532 11.8192 9.3167C11.8192 9.32998 11.9617 9.5352 11.9725 9.54486C12.0172 9.58349 12.0727 9.55934 12.109 9.58348C12.15 9.61125 12.1753 9.78628 12.2767 9.80198C12.2478 9.57986 12.2864 9.57986 12.4445 9.4676C12.4699 9.62091 12.5194 9.78508 12.5266 9.95287C12.529 10.0169 12.529 10.4213 12.5121 10.4382C12.5013 10.449 12.3468 10.3766 12.3118 10.4877C12.4808 10.5492 12.3287 10.5625 12.313 10.5951C12.2755 10.6772 12.3202 10.88 12.1778 10.8715C12.2755 10.6808 12.0124 10.7882 11.9436 10.6542C12.1766 10.5722 12.0643 10.5516 11.9738 10.4056L11.8434 10.4708C11.8301 10.3995 11.8216 10.3247 11.8084 10.2523C11.7915 10.1641 11.8446 10.1593 11.7094 10.169C11.7553 9.8225 11.7142 9.63418 11.6925 9.2998C11.6744 9.02095 11.7178 8.70829 11.5754 8.46324C11.5464 8.44513 11.5464 8.41253 11.5754 8.36304H11.5742Z" fill="#9ECFD2"/>
<path id="Vector_97" d="M11.6744 11.8081C11.5585 11.9397 11.1167 12.4672 10.9597 12.4407C10.7811 12.4105 10.9441 12.1739 11.0298 12.1087C11.1312 12.0315 11.4112 11.8697 11.5404 11.8093C11.5826 11.79 11.6502 11.7454 11.6744 11.8093V11.8081Z" fill="#9CCACE"/>
<path id="Vector_98" d="M11.1061 14.0149C11.2292 13.8809 11.333 13.7626 11.4405 13.6141C11.5865 13.4125 11.7061 13.1976 11.8256 12.9791C11.8908 12.9079 11.8859 12.9586 11.8618 13.0153C11.7628 13.2363 11.3318 13.9763 11.123 14.0487C11.1049 14.0547 11.1085 14.0149 11.1061 14.0161V14.0149Z" fill="#BDDFE1"/>
<path id="Vector_99" d="M11.5744 8.46312C11.3885 9.12344 11.2859 9.81514 11.1181 10.4598C11.0963 10.5406 11.1495 10.7821 11.1398 10.8159C11.1289 10.8545 11.0553 10.8485 11.0481 10.8847C11.042 10.9185 11.0662 11.1141 11.0722 11.172L10.972 11.038C11.0456 10.4344 11.0843 9.87067 11.2291 9.27071C11.281 9.05463 11.3728 8.84941 11.4078 8.62971C11.4549 8.54038 11.5176 8.44501 11.5756 8.36171C11.5683 8.38948 11.5828 8.43535 11.5756 8.46191L11.5744 8.46312Z" fill="#4E8890"/>
<path id="Vector_100" d="M12.1091 16.5914C12.184 16.4018 12.4604 16.84 12.2431 16.8255C12.2009 16.7471 12.1514 16.671 12.1091 16.5914Z" fill="#65A0A7"/>
<path id="Vector_101" d="M8.16275 23.8828C8.17845 23.7681 8.30158 23.6921 8.36314 23.6148C8.34262 23.7392 8.24605 23.8068 8.16275 23.8828Z" fill="#8ABFC5"/>
<path id="Vector_102" d="M12.1755 9.267C12.1924 9.28873 12.178 9.45773 12.1248 9.46738C12.0524 9.48066 11.9462 9.28027 11.951 9.21026C11.9546 9.14869 12.0331 9.0823 12.0089 9.00021C12.3349 9.11972 12.0283 9.16801 12.0427 9.25009C12.056 9.32373 12.1719 9.26096 12.1767 9.267H12.1755Z" fill="#9ECFD2"/>
<path id="Vector_103" d="M12.5437 12.4096C12.4725 12.4422 12.4689 12.511 12.4436 12.5774C12.4303 12.5207 12.3953 12.4929 12.4436 12.4096C12.5184 12.3963 12.5051 12.4096 12.5437 12.4096Z" fill="#84BBC0"/>
<path id="Vector_104" d="M13.6807 19.2334C13.6264 19.2865 13.6095 19.1924 13.5938 19.1706C13.391 18.8797 13.1858 18.5224 13.0458 18.1965L13.6807 19.2334Z" fill="#65A0A7"/>
<path id="Vector_105" d="M12.6778 17.7291C12.6717 17.711 12.6597 17.6144 12.7104 17.6289L12.9446 18.1636C12.8697 18.0707 12.7128 17.8305 12.6778 17.7291Z" fill="#65A0A7"/>
<path id="Vector_106" d="M16.4575 23.4476C16.3826 23.5406 16.2402 23.3197 16.3235 23.2473C16.3874 23.3173 16.42 23.403 16.4575 23.4476Z" fill="#65A0A7"/>
<path id="Vector_107" d="M12.1756 16.0212C12.1455 16.1733 12.242 16.0972 12.3108 16.1371C12.3953 16.1866 12.2022 16.399 12.4098 16.3556L12.3265 16.4883C12.306 16.4883 12.1467 16.1974 12.1093 16.1455C12.0875 16.1165 12.0453 16.1238 12.0429 16.1214C11.9982 16.0586 12.1262 16.0175 12.1756 16.0212Z" fill="#65A0A7"/>
<path id="Vector_108" d="M12.5097 16.6573C12.4542 16.7116 12.2611 16.5462 12.5097 16.5233V16.6573Z" fill="#65A0A7"/>
</g>
</svg>
