<svg width="308" height="353" viewBox="0 0 308 353" fill="none" xmlns="http://www.w3.org/2000/svg">
<g style="mix-blend-mode:screen">
<path d="M153.056 183.457C168.849 183.457 181.651 170.659 181.651 154.872C181.651 139.085 168.849 126.287 153.056 126.287C137.264 126.287 124.461 139.085 124.461 154.872C124.461 170.659 137.264 183.457 153.056 183.457Z" fill="#5BBFCC" fill-opacity="0.2"/>
<path d="M114.047 215.206C126.529 215.206 136.649 205.09 136.649 192.612C136.649 180.134 126.529 170.018 114.047 170.018C101.564 170.018 91.4445 180.134 91.4445 192.612C91.4445 205.09 101.564 215.206 114.047 215.206Z" fill="#5BBFCC" fill-opacity="0.2"/>
<path d="M192.07 215.206C204.553 215.206 214.672 205.09 214.672 192.612C214.672 180.134 204.553 170.018 192.07 170.018C179.588 170.018 169.468 180.134 169.468 192.612C169.468 205.09 179.588 215.206 192.07 215.206Z" fill="#5BBFCC" fill-opacity="0.2"/>
<path d="M114.047 137.21C126.529 137.21 136.649 127.094 136.649 114.616C136.649 102.138 126.529 92.0222 114.047 92.0222C101.564 92.0222 91.4445 102.138 91.4445 114.616C91.4445 127.094 101.564 137.21 114.047 137.21Z" fill="#5BBFCC" fill-opacity="0.2"/>
<path d="M192.07 137.21C204.553 137.21 214.672 127.094 214.672 114.616C214.672 102.138 204.553 92.0222 192.07 92.0222C179.588 92.0222 169.468 102.138 169.468 114.616C169.468 127.094 179.588 137.21 192.07 137.21Z" fill="#5BBFCC" fill-opacity="0.2"/>
<path d="M232.084 100.518C241.863 100.518 249.79 92.5931 249.79 82.8178C249.79 73.0425 241.863 65.118 232.084 65.118C222.305 65.118 214.378 73.0425 214.378 82.8178C214.378 92.5931 222.305 100.518 232.084 100.518Z" fill="#5BBFCC" fill-opacity="0.2"/>
<path d="M232.084 242.11C241.863 242.11 249.79 234.186 249.79 224.41C249.79 214.635 241.863 206.711 232.084 206.711C222.305 206.711 214.378 214.635 214.378 224.41C214.378 234.186 222.305 242.11 232.084 242.11Z" fill="#5BBFCC" fill-opacity="0.2"/>
<path d="M76.0417 100.518C85.8205 100.518 93.7478 92.5931 93.7478 82.8178C93.7478 73.0425 85.8205 65.118 76.0417 65.118C66.2628 65.118 58.3355 73.0425 58.3355 82.8178C58.3355 92.5931 66.2628 100.518 76.0417 100.518Z" fill="#5BBFCC" fill-opacity="0.2"/>
<path d="M76.0417 242.11C85.8205 242.11 93.7478 234.186 93.7478 224.41C93.7478 214.635 85.8205 206.711 76.0417 206.711C66.2628 206.711 58.3355 214.635 58.3355 224.41C58.3355 234.186 66.2628 242.11 76.0417 242.11Z" fill="#5BBFCC" fill-opacity="0.2"/>
<path d="M78.3501 177.499C91.5473 177.499 102.246 166.804 102.246 153.612C102.246 140.419 91.5473 129.724 78.3501 129.724C65.1529 129.724 54.4544 140.419 54.4544 153.612C54.4544 166.804 65.1529 177.499 78.3501 177.499Z" fill="#5BBFCC" fill-opacity="0.2"/>
<path d="M153.056 252.182C166.253 252.182 176.952 241.488 176.952 228.295C176.952 215.103 166.253 204.408 153.056 204.408C139.859 204.408 129.16 215.103 129.16 228.295C129.16 241.488 139.859 252.182 153.056 252.182Z" fill="#5BBFCC" fill-opacity="0.2"/>
<path d="M153.056 102.82C166.253 102.82 176.952 92.1252 176.952 78.9327C176.952 65.7403 166.253 55.0457 153.056 55.0457C139.859 55.0457 129.16 65.7403 129.16 78.9327C129.16 92.1252 139.859 102.82 153.056 102.82Z" fill="#5BBFCC" fill-opacity="0.2"/>
<path d="M192.071 53.5672C197.476 53.5672 201.857 49.1873 201.857 43.7843C201.857 38.3814 197.476 34.0014 192.071 34.0014C186.666 34.0014 182.284 38.3814 182.284 43.7843C182.284 49.1873 186.666 53.5672 192.071 53.5672Z" fill="#5BBFCC" fill-opacity="0.2"/>
<path d="M114.046 53.5672C119.451 53.5672 123.833 49.1873 123.833 43.7843C123.833 38.3814 119.451 34.0014 114.046 34.0014C108.642 34.0014 104.26 38.3814 104.26 43.7843C104.26 49.1873 108.642 53.5672 114.046 53.5672Z" fill="#5BBFCC" fill-opacity="0.2"/>
<path d="M262.966 203.022C268.371 203.022 272.752 198.642 272.752 193.239C272.752 187.836 268.371 183.457 262.966 183.457C257.561 183.457 253.18 187.836 253.18 193.239C253.18 198.642 257.561 203.022 262.966 203.022Z" fill="#5BBFCC" fill-opacity="0.2"/>
<path d="M262.966 125.032C268.371 125.032 272.752 120.652 272.752 115.249C272.752 109.846 268.371 105.466 262.966 105.466C257.561 105.466 253.18 109.846 253.18 115.249C253.18 120.652 257.561 125.032 262.966 125.032Z" fill="#5BBFCC" fill-opacity="0.2"/>
<path d="M44.3244 203.022C49.7293 203.022 54.1108 198.642 54.1108 193.239C54.1108 187.836 49.7293 183.457 44.3244 183.457C38.9195 183.457 34.538 187.836 34.538 193.239C34.538 198.642 38.9195 203.022 44.3244 203.022Z" fill="#5BBFCC" fill-opacity="0.2"/>
<path d="M44.3244 125.032C49.7293 125.032 54.1108 120.652 54.1108 115.249C54.1108 109.846 49.7293 105.466 44.3244 105.466C38.9195 105.466 34.538 109.846 34.538 115.249C34.538 120.652 38.9195 125.032 44.3244 125.032Z" fill="#5BBFCC" fill-opacity="0.2"/>
<path d="M192.071 272.365C197.476 272.365 201.857 267.985 201.857 262.582C201.857 257.179 197.476 252.799 192.071 252.799C186.666 252.799 182.284 257.179 182.284 262.582C182.284 267.985 186.666 272.365 192.071 272.365Z" fill="#5BBFCC" fill-opacity="0.2"/>
<path d="M114.046 272.365C119.451 272.365 123.833 267.985 123.833 262.582C123.833 257.179 119.451 252.799 114.046 252.799C108.642 252.799 104.26 257.179 104.26 262.582C104.26 267.985 108.642 272.365 114.046 272.365Z" fill="#5BBFCC" fill-opacity="0.2"/>
<path d="M227.767 177.499C240.964 177.499 251.662 166.804 251.662 153.612C251.662 140.419 240.964 129.724 227.767 129.724C214.57 129.724 203.871 140.419 203.871 153.612C203.871 166.804 214.57 177.499 227.767 177.499Z" fill="#5BBFCC" fill-opacity="0.2"/>
<path d="M153.662 306.291C156.121 306.291 158.115 304.298 158.115 301.839C158.115 299.38 156.121 297.387 153.662 297.387C151.202 297.387 149.208 299.38 149.208 301.839C149.208 304.298 151.202 306.291 153.662 306.291Z" fill="#5BBFCC" fill-opacity="0.2"/>
<path d="M5.37501 158.696C7.83479 158.696 9.82885 156.703 9.82885 154.244C9.82885 151.785 7.83479 149.792 5.37501 149.792C2.91522 149.792 0.921173 151.785 0.921173 154.244C0.921173 156.703 2.91522 158.696 5.37501 158.696Z" fill="#5BBFCC" fill-opacity="0.2"/>
<path d="M153.662 9.45402C156.121 9.45402 158.115 7.46069 158.115 5.00179C158.115 2.54289 156.121 0.549561 153.662 0.549561C151.202 0.549561 149.208 2.54289 149.208 5.00179C149.208 7.46069 151.202 9.45402 153.662 9.45402Z" fill="#5BBFCC" fill-opacity="0.2"/>
<path d="M302.625 158.696C305.085 158.696 307.079 156.703 307.079 154.244C307.079 151.785 305.085 149.792 302.625 149.792C300.165 149.792 298.171 151.785 298.171 154.244C298.171 156.703 300.165 158.696 302.625 158.696Z" fill="#5BBFCC" fill-opacity="0.2"/>
<path d="M48.7782 262.582C51.238 262.582 53.232 260.588 53.232 258.13C53.232 255.671 51.238 253.677 48.7782 253.677C46.3184 253.677 44.3243 255.671 44.3243 258.13C44.3243 260.588 46.3184 262.582 48.7782 262.582Z" fill="#5BBFCC" fill-opacity="0.2"/>
<path d="M48.3252 53.3979C50.785 53.3979 52.7791 51.4045 52.7791 48.9456C52.7791 46.4867 50.785 44.4934 48.3252 44.4934C45.8654 44.4934 43.8714 46.4867 43.8714 48.9456C43.8714 51.4045 45.8654 53.3979 48.3252 53.3979Z" fill="#5BBFCC" fill-opacity="0.2"/>
<path d="M258.747 52.6886C261.207 52.6886 263.201 50.6952 263.201 48.2364C263.201 45.7775 261.207 43.7841 258.747 43.7841C256.287 43.7841 254.293 45.7775 254.293 48.2364C254.293 50.6952 256.287 52.6886 258.747 52.6886Z" fill="#5BBFCC" fill-opacity="0.2"/>
<path d="M258.512 263.509C260.972 263.509 262.966 261.516 262.966 259.057C262.966 256.598 260.972 254.605 258.512 254.605C256.053 254.605 254.059 256.598 254.059 259.057C254.059 261.516 256.053 263.509 258.512 263.509Z" fill="#5BBFCC" fill-opacity="0.2"/>
</g>
<path d="M124.643 261.519L115.507 272.721C115.329 272.939 115.358 273.255 115.576 273.433C115.793 273.611 116.11 273.572 116.288 273.364L125.424 262.171C125.909 261.568 126.779 261.479 127.402 261.944C138.436 270.16 153.12 273.156 167.22 268.717C172.174 267.155 176.643 264.791 180.568 261.825C181.191 261.36 182.061 261.439 182.546 262.043L191.732 273.186C191.91 273.404 192.226 273.433 192.443 273.255C192.661 273.077 192.691 272.761 192.513 272.543L183.327 261.4C182.833 260.807 182.912 259.937 183.485 259.422C188.963 254.488 193.086 248.269 195.558 241.407C195.815 240.675 196.596 240.28 197.328 240.507L211.141 244.798C211.408 244.877 211.695 244.729 211.774 244.462C211.853 244.195 211.705 243.908 211.438 243.829L197.644 239.548C196.903 239.321 196.497 238.539 196.695 237.798C198.782 229.957 198.742 221.463 196.122 213.177C193.63 205.277 189.101 198.563 183.317 193.431C182.734 192.917 182.655 192.047 183.139 191.444L192.275 180.241C192.453 180.024 192.424 179.707 192.206 179.529C192.068 179.42 191.89 179.391 191.732 179.44C191.643 179.47 191.554 179.519 191.494 179.598L182.358 190.791C181.873 191.394 181.003 191.483 180.38 191.019C169.355 182.792 154.662 179.796 140.572 184.236C135.618 185.798 131.149 188.161 127.224 191.128C126.601 191.592 125.731 191.513 125.246 190.91L116.06 179.766C115.922 179.598 115.704 179.549 115.517 179.608C115.457 179.628 115.398 179.658 115.348 179.697C115.131 179.875 115.101 180.192 115.279 180.409L124.465 191.553C124.959 192.146 124.88 193.016 124.307 193.53C118.829 198.464 114.706 204.684 112.234 211.546C111.977 212.277 111.196 212.673 110.464 212.446L96.6408 208.164C96.5419 208.134 96.4332 208.134 96.3343 208.164C96.186 208.214 96.0574 208.332 96.008 208.5C95.9289 208.767 96.0772 209.054 96.3442 209.133L110.138 213.415C110.879 213.642 111.285 214.413 111.087 215.165C109.001 223.006 109.04 231.499 111.66 239.785C114.152 247.686 118.681 254.399 124.465 259.531C125.048 260.045 125.127 260.915 124.643 261.519ZM179.856 261.093C176.05 263.951 171.709 266.235 166.913 267.748C153.169 272.089 138.862 269.201 128.104 261.232C127.451 260.747 127.352 259.808 127.866 259.185L148.888 233.427C151.478 230.244 156.343 230.234 158.954 233.408L180.094 259.066C180.608 259.689 180.509 260.629 179.866 261.113L179.856 261.093ZM194.569 241.179C192.176 247.794 188.182 253.796 182.912 258.572C182.308 259.116 181.369 259.027 180.855 258.404L157.203 229.7C156.65 229.037 157.312 228.058 158.133 228.315L193.64 239.34C194.411 239.578 194.846 240.418 194.569 241.179ZM182.744 194.232C188.35 199.235 192.73 205.761 195.153 213.454C197.694 221.523 197.753 229.779 195.756 237.402C195.548 238.183 194.718 238.628 193.946 238.381L157.263 226.99C156.521 226.763 156.432 225.735 157.124 225.389L179.52 213.998C179.767 213.869 179.866 213.563 179.738 213.316C179.619 213.088 179.372 212.989 179.134 213.059C179.105 213.059 179.085 213.078 179.055 213.088L159.448 223.055C158.607 223.48 157.787 222.462 158.38 221.73L180.677 194.4C181.191 193.777 182.121 193.679 182.724 194.222L182.744 194.232ZM127.926 191.849C131.733 188.992 136.073 186.708 140.869 185.195C154.623 180.854 168.92 183.741 179.678 191.711C180.331 192.195 180.43 193.135 179.916 193.758L158.716 219.733C156.215 222.798 151.538 222.808 149.016 219.753L127.688 193.876C127.174 193.253 127.273 192.314 127.916 191.83L127.926 191.849ZM113.203 211.763C115.606 205.148 119.59 199.146 124.861 194.371C125.464 193.827 126.403 193.916 126.917 194.539L150.569 223.243C151.122 223.905 150.46 224.884 149.639 224.627L114.132 213.602C113.361 213.365 112.926 212.525 113.203 211.763ZM112.619 239.489C110.078 231.42 110.019 223.164 112.016 215.54C112.224 214.759 113.055 214.314 113.826 214.562L150.509 225.952C151.251 226.18 151.34 227.208 150.648 227.554L128.252 238.945C128.005 239.073 127.906 239.38 128.034 239.627C128.163 239.874 128.47 239.973 128.717 239.845L148.324 229.878C149.165 229.453 149.985 230.471 149.392 231.203L127.095 258.532C126.581 259.155 125.652 259.254 125.048 258.71C119.442 253.707 115.062 247.181 112.639 239.489H112.619Z" fill="white"/>
<path d="M251.791 257.9H248.047C246.816 257.9 245.813 258.902 245.813 260.133V324.985L245.242 324.261C244.95 323.88 244.557 323.614 244.1 323.5C242.475 323.068 241.409 322.307 240.902 321.241C240.254 319.87 239.924 317.84 239.924 315.2V299.184C239.924 295.313 239.188 291.747 237.742 288.574C236.307 285.426 233.972 282.863 230.812 280.972C227.639 279.081 223.413 278.116 218.223 278.116C214.555 278.116 211.039 278.802 207.752 280.147C204.478 281.492 201.737 283.459 199.605 286.01C198.107 287.8 197.029 289.919 196.419 292.292C196.254 292.952 196.394 293.65 196.813 294.196C197.244 294.754 197.892 295.072 198.59 295.072H202.638C203.615 295.072 204.465 294.424 204.77 293.46C205.582 290.871 207.054 288.866 209.136 287.482C211.674 285.807 214.72 284.957 218.21 284.957C220.634 284.957 222.868 285.426 224.873 286.353C226.891 287.292 228.553 288.853 229.81 291.011C230.711 292.572 231.307 294.551 231.548 296.912C231.637 297.737 231.371 298.562 230.812 299.184C230.266 299.793 229.505 300.135 228.693 300.135H217.258C213.311 300.135 209.567 300.681 206.128 301.76C202.727 302.826 199.96 304.565 197.904 306.938C197.003 307.979 196.28 309.222 195.759 310.631L195.15 312.319V300.783C195.15 293.105 193.323 287.356 189.706 283.675C186.101 279.995 181.19 278.129 175.136 278.129C171.215 278.129 167.649 279.068 164.552 280.934C163.359 281.645 162.268 282.469 161.303 283.383C160.453 284.183 159.26 284.411 158.194 283.992C157.166 283.586 156.481 282.634 156.417 281.518C156.354 280.337 155.364 279.411 154.183 279.411H151.15C149.919 279.411 148.917 280.414 148.917 281.645V328.779C148.917 330.01 149.919 331.013 151.15 331.013H154.894C156.125 331.013 157.128 330.01 157.128 328.779V304.26C157.128 298.168 158.663 293.396 161.684 290.084C164.717 286.759 168.562 285.084 173.131 285.084C177.7 285.084 181.19 286.505 183.487 289.31C185.772 292.102 186.926 296.277 186.926 301.735V328.779C186.926 330.01 187.929 331.013 189.16 331.013H192.904C194.135 331.013 195.138 330.01 195.138 328.779V320.517L195.747 322.18C196.153 323.271 196.686 324.287 197.32 325.188C198.996 327.548 201.305 329.338 204.186 330.505C207.08 331.673 210.341 332.269 213.857 332.269C218.058 332.269 221.7 331.254 224.695 329.261C226.434 328.107 227.969 326.787 229.277 325.327C229.898 324.629 230.787 324.287 231.688 324.35C232.614 324.426 233.439 324.934 233.947 325.746C234.29 326.292 234.683 326.799 235.102 327.244C236.358 328.563 237.919 329.528 239.759 330.112C240.813 330.442 241.955 330.683 243.148 330.835C243.909 330.924 244.658 330.632 245.14 330.048C245.28 329.883 245.458 329.807 245.673 329.807C245.876 329.807 246.067 329.909 246.181 330.074C246.6 330.645 247.26 330.987 247.958 330.987H251.74C252.971 330.987 253.973 329.985 253.973 328.754V260.133C253.973 258.902 252.971 257.9 251.74 257.9H251.791ZM231.307 309.666C231.015 311.519 230.52 314.07 229.835 315.631C228.591 318.474 226.726 320.847 224.314 322.662C221.878 324.49 218.844 325.416 215.278 325.416C212.067 325.416 209.288 324.667 206.991 323.208C204.656 321.71 203.476 319.299 203.476 316.037C203.476 313.499 204.174 311.494 205.57 310.073C206.94 308.664 208.768 307.687 210.989 307.141C213.172 306.608 215.545 306.341 218.02 306.341H228.477C229.315 306.341 230.114 306.709 230.66 307.344C231.206 307.979 231.447 308.829 231.307 309.666Z" fill="white"/>
<path d="M101.477 296.493C101.477 301.836 99.6244 310.567 94.9287 317.992C90.1315 325.746 83.5829 331.304 72.3386 331.304C59.4572 331.304 54 323.664 54 312.636C54 304.12 60.0029 278.37 83.7987 278.37C91.8702 278.37 101.477 282.304 101.477 296.493ZM63.3914 316.786C63.3914 325.302 66.2342 329.223 72.2371 329.223C86.8572 329.223 92.0986 300.186 92.0986 292.33C92.0986 284.474 89.7 280.439 83.3672 280.439C69.94 280.439 63.3914 305.542 63.3914 316.786Z" fill="white"/>
<path d="M158.663 245.487C154.259 245.487 151.163 246.757 148.828 248.457C148.015 249.054 146.962 249.117 146.086 248.648C143.84 247.429 140.781 246.515 136.733 246.515C135.933 246.515 135.159 246.553 134.41 246.63C120.806 247.873 114.003 259.981 111.414 270.527L110.983 272.481C110.729 273.636 109.701 274.448 108.521 274.448H102.873C102.239 274.448 101.68 274.855 101.477 275.451C101.16 276.403 101.871 277.393 102.873 277.393H106.807C108.406 277.393 109.599 278.852 109.282 280.413C105.868 297.115 100.03 324.198 97.6698 336C96.921 339.82 96.2103 342.853 95.4489 345.049C94.5605 347.613 93.6086 348.996 92.4284 348.996C92.238 348.996 91.9969 348.996 91.7304 348.932C91.0831 348.818 90.2074 348.514 89.2048 347.663C88.2784 346.876 87.225 345.633 86.0955 343.653C85.5498 342.447 84.6741 341.356 83.2527 341.356C82.3517 341.356 81.3364 341.838 80.4607 342.561C79.217 343.589 78.2397 345.125 78.2397 346.585C78.2397 348.856 80.6003 351.28 84.5472 352.029C85.3341 352.181 86.1717 352.257 87.0727 352.257C97.6571 352.257 104.967 343.412 109.993 319.946L118.521 279.385C118.762 278.218 119.79 277.38 120.983 277.38H133.522C134.436 277.596 135.058 278.51 134.855 279.487C131.517 295.909 126.009 321.431 123.509 333.767C121.872 342.282 119.689 347.08 118.052 347.08C116.199 347.08 114.447 345.988 112.049 341.737C111.389 340.645 110.742 339.985 109.434 339.985C107.137 339.985 104.637 341.952 104.637 344.567C104.637 347.181 107.797 350.138 113.483 350.138C124.727 350.138 131.492 337.917 135.642 318.271L144.056 279.335C144.31 278.18 145.338 277.342 146.518 277.342H155.021C155.693 277.342 156.277 276.885 156.442 276.238C156.683 275.299 155.985 274.398 155.021 274.398H148.091C146.467 274.398 145.274 272.887 145.642 271.314L147.102 265.019C149.399 254.765 152.127 247.988 154.856 247.988C157.254 247.988 157.254 249.079 159.767 253.99C160.199 254.866 160.973 255.628 162.496 255.628C164.463 255.628 166.976 253.775 166.976 251.592C166.976 248.533 164.679 245.475 158.676 245.475L158.663 245.487ZM143.675 254.853C141.835 258.927 138.408 266.72 136.403 272.71C136.06 273.738 135.108 274.41 134.03 274.41C131.238 274.41 125.755 274.41 121.288 274.41C120.349 274.182 119.727 273.217 119.981 272.215C122.1 263.877 124.918 250.856 133.116 248.863C133.814 248.698 134.55 248.597 135.324 248.597C139.208 248.597 141.784 250.12 143.447 252.366C143.98 253.077 144.043 254.041 143.675 254.853Z" fill="white"/>
</svg>
