<svg width="61" height="61" viewBox="0 0 61 61" fill="none" xmlns="http://www.w3.org/2000/svg">
<g clip-path="url(#clip0_2946_11543)">
<path d="M14.0407 40.3547C13.0991 40.8074 11.5607 40.9984 9.96695 41.0426C6.41572 41.1409 2.85473 41.2665 0.364226 43.8C-1.33735 45.5309 -0.725416 48.4795 0.277908 50.8468C1.0233 52.6056 2.41161 53.9799 3.95899 55.0999C6.01866 56.5908 8.41991 57.5401 10.9422 57.8609L20.7976 59.1142C23.6727 59.4798 26.5927 59.2309 29.3644 58.384C31.5567 57.7141 33.842 57.4249 36.1338 57.4758C45.6755 57.6876 59.9514 57.4237 60.3946 55.023C60.5305 54.2868 60.6081 53.3623 60.6448 52.3601C60.8305 47.2854 59.8027 42.2582 58.5046 37.3487C57.7319 34.4266 56.9961 31.7967 56.6884 31.1153C55.8928 29.3537 53.5107 30.8103 51.9342 31.9287C50.9949 32.5952 49.8874 33.3052 48.7539 33.8819C45.7785 35.3957 38.1051 32.8379 36.0171 32.0027C33.929 31.1675 16.7551 39.0497 14.0407 40.3547Z" fill="#F2F2F2"/>
<path d="M17.2807 56.225C2.86263 56.2457 -0.107746 48.3554 0.203182 44.3144C0.208162 44.2497 0.223314 44.187 0.248336 44.1271C1.10656 42.0729 3.08444 41.8029 4.27458 41.6176C4.34502 41.6066 4.3817 41.7184 4.31793 41.7502C4.31439 41.752 4.31094 41.7542 4.3078 41.7566C3.70589 42.2237 3.4824 42.4019 3.47372 42.9139C3.20779 46.1665 9.45023 49.3839 12.7962 50.6667C12.9319 50.7188 13.0753 50.7381 13.2203 50.7269L18.1435 50.3458C18.6652 50.3054 19.0706 49.8692 19.0117 49.3492C18.7899 47.3921 17.8673 44.4639 15.3362 43.5403C12.732 42.59 12.4438 41.417 12.6778 40.7688C12.7389 40.5995 12.8861 40.49 13.0509 40.4179C18.8998 37.8593 32.0726 32.12 32.8857 31.2863C33.1986 30.9655 33.6046 30.8881 33.9312 30.9526C34.387 31.0426 35.1425 32.0208 35.6064 32.0467C36.026 32.0702 36.2158 32.5826 35.9128 32.8738L35.3321 33.4317C34.9933 33.7572 34.9895 34.2968 35.3231 34.6276C39.0126 38.2854 45.0953 44.7082 46.0431 43.9579C47.0453 43.1644 55.3406 40.9416 59.2795 39.9389C59.6797 41.2831 60.2663 44.0029 60.2193 45.0313C60.1723 46.0596 59.861 47.1747 59.6935 47.4814C57.5794 51.5791 39.7791 52.6492 38.8134 52.5448C37.8476 52.4404 31.7402 53.6932 28.3733 54.9721C25.6797 55.9953 19.8559 56.2337 17.2807 56.225Z" fill="#FFA93A"/>
<path d="M41.5768 34.5337C39.641 33.5534 38.0518 33.3788 36.9276 33.508C36.1075 33.6022 36.0576 34.5253 36.7483 34.9774C39.9586 37.3525 45.283 38.4487 47.9713 38.3443C50.6596 38.2399 54.392 34.0378 55.6448 32.3152C56.3664 31.323 56.3466 30.9928 56.1522 30.9312C55.9758 30.8753 55.7985 31.0037 55.6498 31.1139C55.1485 31.4852 54.1327 32.3898 52.7477 34.0378C50.6857 36.4912 45.6484 36.5956 41.5768 34.5337Z" fill="#9F9F9F"/>
<path d="M32.1217 35.4587C23.8523 40.3792 22.526 38.7157 23.0156 36.6667C23.1819 35.9708 23.7535 35.4666 24.4076 35.1767L30.4668 32.491C31.6642 31.9602 33.008 32.7319 33.2398 34.021C33.3552 34.663 32.5425 35.247 32.1217 35.4587Z" fill="#D9D9D9"/>
<circle cx="32.5789" cy="35.2927" r="1.05053" fill="#F2F2F2"/>
<circle cx="32.5788" cy="35.2912" r="0.67208" fill="#D9D9D9"/>
<path d="M33.4338 31.8683C32.9814 30.7634 32.2515 30.6558 32.5856 35.2912" stroke="#F2F2F2" stroke-width="2" stroke-linecap="round"/>
<circle cx="27.7766" cy="37.156" r="1.05053" fill="#F2F2F2"/>
<circle cx="27.7763" cy="37.1565" r="0.67208" fill="#D9D9D9"/>
<path d="M28.4489 33.9592C27.9965 32.8543 27.4231 32.5209 27.7572 37.1563" stroke="#F2F2F2" stroke-width="2" stroke-linecap="round"/>
<circle cx="22.5469" cy="39.7283" r="1.05053" fill="#F2F2F2"/>
<circle cx="22.5466" cy="39.7287" r="0.67208" fill="#D9D9D9"/>
<path d="M23.4115 36.3353C22.9591 35.2304 22.19 35.093 22.5241 39.7284" stroke="#F2F2F2" stroke-width="2" stroke-linecap="round"/>
<path d="M32.262 56.7977C18.3559 61.266 5.90085 56.2931 1.41162 53.248C10.2335 64.2623 30.6177 59.6165 31.5834 58.7291C32.356 58.0192 33.1233 58.2071 33.4104 58.3898C40.2487 61.4696 54.134 58.8074 57.6314 57.5546C60.4293 56.5523 60.7286 54.3878 60.5285 53.4307C53.0534 58.7134 38.5696 57.8765 32.262 56.7977Z" fill="#CDD1D5"/>
<path d="M33.4954 39.0873C31.3299 40.2942 27.8712 42.1579 25.5207 43.1094C25.1455 43.2612 24.7976 43.4702 24.5109 43.756C22.4773 45.7831 19.7368 49.2985 22.3408 49.9592C24.5077 50.509 32.1366 48.4227 38.0704 46.5565C40.1896 45.8899 40.8036 43.2226 39.227 41.6575L37.1283 39.5742C36.165 38.6179 34.681 38.4265 33.4954 39.0873Z" fill="#F2F2F2"/>
</g>
<defs>
<clipPath id="clip0_2946_11543">
<rect width="61" height="61" fill="white"/>
</clipPath>
</defs>
</svg>
