<svg width="24" height="25" viewBox="0 0 24 25" fill="none" xmlns="http://www.w3.org/2000/svg">
<path d="M6.14924 10.3364C5.81264 10.4982 5.26274 10.5665 4.69303 10.5823C3.42361 10.6174 2.1507 10.6623 1.26045 11.5679C0.652205 12.1867 0.870947 13.2407 1.22959 14.0869C1.49604 14.7156 1.99231 15.2069 2.54543 15.6072C3.28168 16.1401 4.14003 16.4795 5.04164 16.5941L8.56453 17.0421C9.59227 17.1728 10.636 17.0839 11.6268 16.7811C12.4105 16.5417 13.2274 16.4383 14.0466 16.4565C17.4574 16.5322 22.5604 16.4378 22.7189 15.5797C23.1641 13.1681 22.4463 10.7013 21.7941 8.33719C21.6185 7.70089 21.4699 7.20165 21.394 7.03367C21.1097 6.40398 20.2582 6.92467 19.6946 7.32446C19.3588 7.56268 18.963 7.81649 18.5578 8.02263C17.4942 8.56376 14.7513 7.64944 14.0049 7.35089C13.2585 7.05233 7.11953 9.86992 6.14924 10.3364Z" fill="#F2F2F2"/>
<path d="M7.30739 16.0091C2.15351 16.0165 1.09172 13.1961 1.20286 11.7516C1.20464 11.7284 1.21006 11.706 1.219 11.6846C1.52578 10.9503 2.2328 10.8538 2.65822 10.7876C2.6834 10.7836 2.69652 10.8236 2.67372 10.835C2.67245 10.8356 2.67122 10.8364 2.6701 10.8373C2.45494 11.0042 2.37505 11.0679 2.37195 11.2509C2.28029 12.372 4.3516 13.4814 5.57213 13.9704C5.70704 14.0245 5.85237 14.0441 5.99727 14.0328L7.02141 13.9535C7.54313 13.9132 7.95361 13.4704 7.81145 12.9668C7.64158 12.365 7.28665 11.7209 6.61232 11.4749C5.88269 11.2086 5.66164 10.8935 5.64044 10.6581C5.6243 10.4789 5.79301 10.3598 5.95787 10.2877L6.07464 10.2366C8.27711 9.27347 12.6072 7.37993 12.8855 7.09453C12.9974 6.97987 13.1425 6.95219 13.2592 6.97525C13.4222 7.00743 13.6922 7.3571 13.8581 7.36638C14.0081 7.37476 14.0759 7.55793 13.9676 7.662L13.76 7.86145C13.6389 7.97779 13.6376 8.17069 13.7568 8.28892C15.0756 9.59644 17.25 11.8923 17.5888 11.6241C17.947 11.3405 20.9122 10.5459 22.3203 10.1875C22.4633 10.668 22.673 11.6402 22.6562 12.0078C22.6394 12.3754 22.5281 12.774 22.4682 12.8836C21.7125 14.3484 15.3496 14.7309 15.0044 14.6936C14.6592 14.6563 12.4761 15.1041 11.2725 15.5613C10.3097 15.927 8.22792 16.0122 7.30739 16.0091Z" fill="#FFA93A"/>
<path d="M15.9923 8.25589C15.3003 7.90548 14.7323 7.84305 14.3304 7.88924C14.0373 7.92293 14.0194 8.2529 14.2663 8.41449C15.4139 9.26349 17.3171 9.65534 18.2781 9.61802C19.2391 9.58071 20.5732 8.07863 21.021 7.46287C21.1318 7.31062 21.1937 7.20199 21.2227 7.12583C21.2888 6.95292 21.0243 7.02523 20.8834 7.14526C20.6826 7.31637 20.3748 7.61531 19.9854 8.07863C19.2484 8.95562 17.4478 8.99294 15.9923 8.25589Z" fill="#9F9F9F"/>
<path d="M12.6125 8.58598C10.2443 9.9951 9.46906 9.89362 9.3444 9.42091C9.21216 8.91941 9.75327 8.53024 10.2274 8.32007L12.0209 7.52511C12.4489 7.33539 12.9293 7.61122 13.0121 8.07204C13.0534 8.30152 12.7629 8.51028 12.6125 8.58598Z" fill="#D9D9D9"/>
<circle cx="12.7759" cy="8.52665" r="0.375522" fill="#F2F2F2"/>
<circle cx="12.7759" cy="8.52662" r="0.240241" fill="#D9D9D9"/>
<path d="M13.0815 7.30302C12.9197 6.90806 12.6588 6.86961 12.7783 8.52657" stroke="#F2F2F2" stroke-width="2" stroke-linecap="round"/>
<circle cx="11.0594" cy="9.19339" r="0.375522" fill="#F2F2F2"/>
<circle cx="11.0592" cy="9.19361" r="0.240241" fill="#D9D9D9"/>
<path d="M11.2996 8.0506C11.1379 7.65564 10.9329 7.53647 11.0523 9.19343" stroke="#F2F2F2" stroke-width="2" stroke-linecap="round"/>
<circle cx="9.18985" cy="10.1126" r="0.375522" fill="#F2F2F2"/>
<circle cx="9.18976" cy="10.1128" r="0.240241" fill="#D9D9D9"/>
<path d="M9.49888 8.89987C9.33716 8.50491 9.06225 8.45581 9.18168 10.1128" stroke="#F2F2F2" stroke-width="2" stroke-linecap="round"/>
<path d="M12.6626 16.2144C7.6917 17.8117 3.23954 16.034 1.63483 14.9456C4.78828 18.8827 12.0748 17.222 12.42 16.9048C12.6962 16.651 12.9705 16.7182 13.0731 16.7835C15.5175 17.8844 20.4809 16.9328 21.7311 16.485C22.7313 16.1267 22.8382 15.353 22.7667 15.0109C20.0947 16.8992 14.9173 16.6 12.6626 16.2144Z" fill="#928282"/>
<path d="M12.8045 10.0492C12.1554 10.406 11.3083 10.855 10.6155 11.166C10.2462 11.3318 9.89198 11.5383 9.61951 11.8376C8.95507 12.5676 8.29857 13.5625 9.11625 13.77C9.80964 13.9459 12.0678 13.3667 14.0551 12.7647C15.1308 12.4389 15.4423 11.0902 14.6446 10.2984C14.1573 9.81461 13.4063 9.71846 12.8045 10.0492Z" fill="#F2F2F2"/>
</svg>
