<svg width="25" height="24" viewBox="0 0 25 24" fill="none" xmlns="http://www.w3.org/2000/svg">
<path d="M10.1135 1.38144C10.7122 -0.461178 13.319 -0.461176 13.9177 1.38144L15.3833 5.89209C15.6511 6.71614 16.419 7.27405 17.2854 7.27405L22.0282 7.27406C23.9657 7.27406 24.7712 9.75329 23.2038 10.8921L19.3668 13.6798C18.6658 14.1891 18.3725 15.0918 18.6403 15.9159L20.1059 20.4265C20.7046 22.2692 18.5956 23.8014 17.0282 22.6626L13.1912 19.8749C12.4902 19.3656 11.541 19.3656 10.8401 19.8749L7.00307 22.6626C5.43564 23.8014 3.32668 22.2692 3.92539 20.4265L5.39099 15.9159C5.65873 15.0918 5.36542 14.1891 4.66444 13.6798L0.827459 10.8921C-0.739968 9.75329 0.0655828 7.27406 2.00303 7.27406L6.7458 7.27405C7.61226 7.27405 8.38017 6.71613 8.64791 5.89209L10.1135 1.38144Z" fill="#E6E8EA"/>
</svg>
