<svg width="37" height="29" viewBox="0 0 37 29" fill="none" xmlns="http://www.w3.org/2000/svg">
<path d="M34.2433 2.86712L33.0307 12.6946C33.0307 12.6946 32.771 13.9218 34.6752 13.9218L33.1314 25.9147C33.1314 25.9147 32.4967 27.4162 34.1996 27.7036C35.9024 27.9911 35.7871 25.957 35.7871 25.957L36.9997 3.71781C36.9997 3.71781 37.0435 2.51984 35.8747 2.11565C34.2871 1.567 34.2433 2.86566 34.2433 2.86566V2.86712Z" fill="#E0E0E0"/>
<path d="M18.3555 28.5515C26.071 28.5515 32.3257 22.2969 32.3257 14.5814C32.3257 6.86595 26.071 0.611328 18.3555 0.611328C10.6399 0.611328 4.38525 6.86595 4.38525 14.5814C4.38525 22.2969 10.6399 28.5515 18.3555 28.5515Z" fill="#F3F3F3"/>
<path d="M18.3555 23.8934C23.4986 23.8934 27.668 19.7241 27.668 14.581C27.668 9.43786 23.4986 5.26855 18.3555 5.26855C13.2123 5.26855 9.04297 9.43786 9.04297 14.581C9.04297 19.7241 13.2123 23.8934 18.3555 23.8934Z" fill="#E0E0E0"/>
<path d="M19.2212 21.9686C23.7374 21.9686 27.3985 18.3076 27.3985 13.7914C27.3985 9.27531 23.7374 5.61426 19.2212 5.61426C14.705 5.61426 11.0439 9.27531 11.0439 13.7914C11.0439 18.3076 14.705 21.9686 19.2212 21.9686Z" fill="#F3F3F3"/>
<path d="M0.357516 1.98144C0.357516 1.98144 0.126953 1.9187 0.126953 2.59284C0.126953 3.26697 0.242234 9.40423 0.242234 9.40423C0.242234 9.40423 0.145934 10.2899 1.05063 11.0589C1.95532 11.8279 1.39649 12.1942 1.41692 13.2915C1.43735 14.3888 0.627479 25.6827 0.627479 25.6827C0.627479 25.6827 0.300608 27.9138 2.10854 27.7314C3.91647 27.549 3.2248 25.8564 3.1854 24.4322C3.146 23.0081 2.47333 13.3294 2.47333 13.3294C2.47333 13.3294 2.12751 11.7126 2.58862 11.1363C3.04972 10.5599 3.78223 10.4052 3.68593 8.53895C3.58962 6.67268 3.55169 2.32434 3.55169 2.32434C3.55169 2.32434 3.57506 1.98144 3.24382 1.98144C2.91259 1.98144 3.00592 2.34185 3.00592 2.34185L3.02787 8.09244C3.02787 8.09244 3.09353 8.2938 2.81191 8.2938C2.53029 8.2938 2.63821 7.84585 2.63821 7.84585L2.60173 2.28203C2.60173 2.28203 2.57984 2.00771 2.34929 2.0223C2.11874 2.03689 2.08959 2.26014 2.08959 2.26014V7.83124C2.08959 7.83124 2.09686 8.22085 1.84442 8.22085C1.59198 8.22085 1.54823 8.06909 1.54823 7.78017V2.37542C1.54823 2.37542 1.61976 1.97852 1.35273 1.97852C1.08569 1.97852 1.08568 2.31705 1.08568 2.31705L1.17175 7.78602C1.17175 7.78602 1.20097 8.2048 0.948529 8.2048C0.69609 8.2048 0.710627 7.73641 0.710627 7.73641L0.688754 2.27473C0.688754 2.27473 0.703343 1.9683 0.357516 1.98144Z" fill="#E0E0E0"/>
</svg>
