<svg width="24" height="25" viewBox="0 0 24 25" fill="none" xmlns="http://www.w3.org/2000/svg">
<path d="M4.70005 12.5357C6.02553 12.5357 7.10005 11.4612 7.10005 10.1357C7.10005 8.81023 6.02553 7.73572 4.70005 7.73572C3.37457 7.73572 2.30005 8.81023 2.30005 10.1357C2.30005 11.4612 3.37457 12.5357 4.70005 12.5357Z" fill="#1E2124"/>
<path d="M14.2 11.6357H9.79998C8.39998 11.6357 7.29998 12.7357 7.29998 14.0357L7.09998 21.7357C7.09998 21.8357 7.09998 22.0357 7.19998 22.1357C7.19998 22.1357 7.39998 22.3357 7.59998 22.3357H16.5C16.6 22.3357 16.8 22.3357 16.9 22.1357C17 21.9357 17 21.9357 17 21.7357L16.7 14.0357C16.7 12.6357 15.6 11.6357 14.2 11.6357Z" fill="#1E2124"/>
<path d="M17.8001 14.0358C17.8001 13.5924 18.194 13.0358 18.6374 13.0358H20.8001C21.6001 13.0358 22.2001 13.6358 22.3001 14.3358C22.3001 14.3358 22.9001 18.3358 22.9001 19.0358C22.9001 19.7358 22.8001 20.4358 22.3001 21.0358C21.8001 21.5358 21.1001 21.8358 20.4001 21.8358H18.2001C18.0897 21.8358 18.0001 21.7462 18.0001 21.6358L17.8001 13.9358V14.0358Z" fill="#1E2124"/>
<path d="M6.29995 14.0358C6.29995 13.5924 5.90606 13.0358 5.46269 13.0358H3.29995C2.49995 13.0358 1.89995 13.6358 1.79995 14.3358C1.79995 14.3358 1.19995 18.3358 1.19995 19.0358C1.19995 19.7358 1.29995 20.4358 1.79995 21.0358C2.29995 21.5358 2.99995 21.8358 3.69995 21.8358H5.89995C6.01041 21.8358 6.09995 21.7462 6.09995 21.6358L6.29995 13.9358V14.0358Z" fill="#1E2124"/>
<path d="M19.2001 12.5357C20.5255 12.5357 21.6 11.4612 21.6 10.1357C21.6 8.81023 20.5255 7.73572 19.2001 7.73572C17.8746 7.73572 16.8 8.81023 16.8 10.1357C16.8 11.4612 17.8746 12.5357 19.2001 12.5357Z" fill="#1E2124"/>
<path d="M12 10.8357C13.9882 10.8357 15.6 9.22397 15.6 7.23574C15.6 5.24752 13.9882 3.63574 12 3.63574C10.0118 3.63574 8.40002 5.24752 8.40002 7.23574C8.40002 9.22397 10.0118 10.8357 12 10.8357Z" fill="#1E2124"/>
</svg>
