<svg width="24" height="24" viewBox="0 0 24 24" fill="none" xmlns="http://www.w3.org/2000/svg">
<path d="M4.70005 11.9C6.02553 11.9 7.10005 10.8255 7.10005 9.49998C7.10005 8.17449 6.02553 7.09998 4.70005 7.09998C3.37457 7.09998 2.30005 8.17449 2.30005 9.49998C2.30005 10.8255 3.37457 11.9 4.70005 11.9Z" fill="#CDD1D5"/>
<path d="M14.2 11H9.79998C8.39998 11 7.29998 12.1 7.29998 13.4L7.09998 21.1C7.09998 21.2 7.09998 21.4 7.19998 21.5C7.19998 21.5 7.39998 21.7 7.59998 21.7H16.5C16.6 21.7 16.8 21.7 16.9 21.5C17 21.3 17 21.3 17 21.1L16.7 13.4C16.7 12 15.6 11 14.2 11Z" fill="#CDD1D5"/>
<path d="M17.8001 13.4C17.8001 12.9566 18.194 12.4 18.6374 12.4H20.8001C21.6001 12.4 22.2001 13 22.3001 13.7C22.3001 13.7 22.9001 17.7 22.9001 18.4C22.9001 19.1 22.8001 19.8 22.3001 20.4C21.8001 20.9 21.1001 21.2 20.4001 21.2H18.2001C18.0897 21.2 18.0001 21.1105 18.0001 21L17.8001 13.3V13.4Z" fill="#CDD1D5"/>
<path d="M6.29995 13.4C6.29995 12.9566 5.90606 12.4 5.46269 12.4H3.29995C2.49995 12.4 1.89995 13 1.79995 13.7C1.79995 13.7 1.19995 17.7 1.19995 18.4C1.19995 19.1 1.29995 19.8 1.79995 20.4C2.29995 20.9 2.99995 21.2 3.69995 21.2H5.89995C6.01041 21.2 6.09995 21.1105 6.09995 21L6.29995 13.3V13.4Z" fill="#CDD1D5"/>
<path d="M19.2001 11.9C20.5255 11.9 21.6 10.8255 21.6 9.49998C21.6 8.17449 20.5255 7.09998 19.2001 7.09998C17.8746 7.09998 16.8 8.17449 16.8 9.49998C16.8 10.8255 17.8746 11.9 19.2001 11.9Z" fill="#CDD1D5"/>
<path d="M12 10.2C13.9882 10.2 15.6 8.58822 15.6 6.6C15.6 4.61177 13.9882 3 12 3C10.0118 3 8.40002 4.61177 8.40002 6.6C8.40002 8.58822 10.0118 10.2 12 10.2Z" fill="#CDD1D5"/>
</svg>
