<svg width="24" height="25" viewBox="0 0 24 25" fill="none" xmlns="http://www.w3.org/2000/svg">
<rect x="4.28125" y="4.37402" width="15.4375" height="15.4375" rx="2" fill="#B78EFF"/>
<path d="M12.0002 19.512C16.1059 19.512 19.4342 16.1901 19.4342 12.0923C19.4342 7.99451 16.1059 4.67261 12.0002 4.67261C7.89448 4.67261 4.56616 7.99451 4.56616 12.0923C4.56616 16.1901 7.89448 19.512 12.0002 19.512Z" fill="#B78EFF"/>
<path d="M12.0003 18.1026C15.3298 18.1026 18.0289 15.4087 18.0289 12.0856C18.0289 8.7625 15.3298 6.0686 12.0003 6.0686C8.67079 6.0686 5.97168 8.7625 5.97168 12.0856C5.97168 15.4087 8.67079 18.1026 12.0003 18.1026Z" fill="#FEFEFE"/>
<path d="M12.1073 6.52342C12.1073 6.46451 12.0595 6.41675 12.0004 6.41675C11.9414 6.41675 11.8936 6.46451 11.8936 6.52342V7.79152C11.8936 7.85044 11.9414 7.89819 12.0004 7.89819C12.0595 7.89819 12.1073 7.85044 12.1073 7.79152V6.52342Z" fill="#0060A5"/>
<path d="M15.9573 8.58389C16.1121 8.42914 16.1367 8.20286 16.0123 8.07848C15.8879 7.9541 15.6617 7.97872 15.5069 8.13347L12.1758 11.4645C12.0211 11.6193 11.9965 11.8456 12.1208 11.97C12.2452 12.0943 12.4715 12.0697 12.6262 11.915L15.9573 8.58389Z" fill="#B78EFF"/>
<path d="M17.5674 12.1974C17.6263 12.1974 17.6741 12.1495 17.6741 12.0905C17.6741 12.0315 17.6263 11.9836 17.5674 11.9836L16.2993 11.9836C16.2404 11.9836 16.1926 12.0315 16.1926 12.0905C16.1926 12.1495 16.2404 12.1974 16.2993 12.1974L17.5674 12.1974Z" fill="#0060A5"/>
<path d="M7.70168 12.1974C7.76059 12.1974 7.80835 12.1495 7.80835 12.0905C7.80835 12.0315 7.76059 11.9836 7.70168 11.9836L6.43357 11.9836C6.37466 11.9836 6.3269 12.0315 6.3269 12.0905C6.3269 12.1495 6.37466 12.1974 6.43357 12.1974L7.70168 12.1974Z" fill="#0060A5"/>
<path d="M12.0003 13.0415C12.5292 13.0415 12.958 12.6135 12.958 12.0856C12.958 11.5576 12.5292 11.1296 12.0003 11.1296C11.4713 11.1296 11.0425 11.5576 11.0425 12.0856C11.0425 12.6135 11.4713 13.0415 12.0003 13.0415Z" fill="#B78EFF"/>
<path d="M14.6852 7.50322C14.7051 7.46878 14.6798 7.41694 14.6287 7.38742C14.5776 7.35791 14.52 7.3619 14.5001 7.39634L14.0721 8.13765C14.0523 8.17209 14.0776 8.22393 14.1287 8.25345C14.1798 8.28296 14.2374 8.27897 14.2572 8.24453L14.6852 7.50322Z" fill="#BDD6E8"/>
<path d="M16.6963 9.59197C16.7307 9.57208 16.7347 9.51453 16.7052 9.46341C16.6757 9.41229 16.6238 9.38697 16.5894 9.40685L15.8481 9.83485C15.8136 9.85473 15.8096 9.91229 15.8391 9.96341C15.8687 10.0145 15.9205 10.0398 15.9549 10.02L16.6963 9.59197Z" fill="#BDD6E8"/>
<path d="M9.14093 7.50322C9.12104 7.46878 9.14636 7.41694 9.19748 7.38742C9.2486 7.35791 9.30616 7.3619 9.32604 7.39634L9.75404 8.13765C9.77392 8.17209 9.7486 8.22393 9.69748 8.25345C9.64636 8.28296 9.58881 8.27897 9.56892 8.24453L9.14093 7.50322Z" fill="#BDD6E8"/>
<path d="M7.12992 9.59197C7.09548 9.57208 7.09149 9.51453 7.121 9.46341C7.15051 9.41229 7.20236 9.38697 7.2368 9.40685L7.97811 9.83485C8.01255 9.85473 8.01654 9.91229 7.98703 9.96341C7.95751 10.0145 7.90567 10.0398 7.87123 10.02L7.12992 9.59197Z" fill="#BDD6E8"/>
</svg>
