<svg preserveAspectRatio="xMidYMid meet" width="100%" height="100%" overflow="visible" style="display: block;" viewBox="0 0 9.70707 27.8482" fill="none" xmlns="http://www.w3.org/2000/svg">
<g id="Group">
<path id="Vector" d="M0.639509 17.8598C0.508343 18.1733 0.674486 18.242 0.96305 18.3157C1.37279 18.3732 1.78252 18.4269 2.19226 18.4794C2.95177 18.7342 4.66192 18.6543 5.49639 18.623C5.65629 18.6168 5.88739 18.678 6.06852 18.6205C6.13473 18.5993 6.14222 18.4631 6.21842 18.4806C6.36208 18.6518 6.37332 18.8641 6.11224 18.8829C5.85116 18.9016 5.68626 18.8429 5.41644 18.9453C5.36772 18.9641 5.1641 19.114 5.15661 19.1589C5.1641 19.2489 5.23655 19.2726 5.314 19.2826C6.01605 19.3776 7.1953 19.1365 7.92108 19.0303C8.44699 18.9541 8.99414 18.9566 9.48757 18.7342C9.48757 19.0628 9.47508 19.43 9.39013 19.7473C9.35266 19.886 9.23649 19.9972 9.27146 20.1558C9.2165 20.312 8.823 20.3907 8.69308 20.302L8.61189 20.2945L8.58066 19.9697C8.52694 19.876 7.53632 19.8323 7.36768 19.8298C7.269 19.8722 7.33395 19.9297 7.56256 20.0034C7.6475 20.162 7.37643 20.2907 7.28399 20.1558L7.21153 20.1258C7.17156 19.9472 6.84052 19.7573 6.68188 19.6936C6.55945 19.6449 6.16221 19.6536 6.09225 19.7548L6.05603 19.8273C5.3952 19.8023 6.04728 20.0771 6.27714 20.1158L6.30837 20.192C6.3396 20.202 6.3396 20.2145 6.30837 20.2283C6.34459 20.312 6.29462 20.3319 6.21717 20.3394C6.88549 20.4843 6.58694 20.7304 6.04478 20.7017L6.12723 20.7392L6.26714 20.7879L7.81365 20.6692L7.86112 20.7392C7.90609 20.8316 7.77867 20.8791 7.69872 20.9028C7.30023 20.9415 6.90798 21.0065 6.52323 21.0977C6.52323 21.1814 6.4895 21.2513 6.4133 21.2888C6.47701 21.4337 6.41704 21.4999 6.23216 21.4849C6.1035 21.7935 5.94984 21.8847 5.6263 21.9334L5.03543 21.9621C5.13912 21.9521 5.23905 21.9709 5.33399 22.0146C5.38396 22.0109 5.41769 22.0371 5.43643 22.0958C5.74498 22.0996 6.05478 22.0946 6.36583 22.0808L6.41705 22.1595L6.42204 22.242C5.8699 22.2857 5.75872 22.3157 6.08851 22.3307C6.14847 22.4418 6.11599 22.563 5.99107 22.6979C6.05853 22.9303 5.98607 22.9915 5.75872 23.029L6.53197 23.0727L6.63441 23.1451C6.66314 23.1551 6.68063 23.1739 6.68313 23.2026C7.45013 23.1426 8.21464 23.0439 8.97665 22.9065C9.08158 22.904 9.27146 22.9902 9.23524 23.1089C9.23399 23.1426 9.22274 23.1726 9.20151 23.1976C9.08908 23.3263 7.36894 23.7273 7.05039 23.5811L6.57445 23.721C6.20593 23.7373 5.83992 23.766 5.4764 23.8085C5.53261 23.9883 5.49889 24.1183 5.30151 24.1757C5.30651 24.2906 5.27403 24.3818 5.20408 24.4468C6.43454 24.4643 7.79366 24.3231 8.95292 23.9059L9.12781 23.9109C9.16153 23.9021 9.19651 23.9046 9.2065 23.9384L9.56627 23.8184L9.63373 23.8747C9.63373 23.9908 9.73866 24.2232 9.63373 24.3481C9.55753 24.2657 9.55503 24.1657 9.55878 24.0595C9.40138 24.1332 9.28146 24.1445 9.20026 24.0933C9.1378 24.207 9.03287 24.2856 8.88421 24.3319C8.54818 24.3706 8.37329 24.4993 8.3608 24.7191C8.62688 24.543 8.99289 24.6642 8.58315 24.8665L8.30958 25.0252C8.30084 25.6198 8.14968 26.2356 7.80865 26.7253C7.82739 26.8365 7.75244 26.904 7.64875 26.9339C7.68123 27.0476 7.59629 27.0501 7.50385 27.0064C7.46637 27.0864 7.22028 27.1526 7.17906 27.0426L6.92547 27.0214C6.67688 26.8253 6.41704 26.6516 6.14597 26.4992C5.53886 26.3818 4.928 26.3006 4.31215 26.2544L4.28966 26.2044C4.27842 26.2731 4.24969 26.2694 4.21721 26.2044C3.62384 26.1932 3.02548 26.2182 2.43086 26.2456C2.32468 26.1207 2.49707 26.0358 2.62323 26.0508L3.03172 26.042C2.67195 25.8034 2.34716 25.4412 2.18102 25.0352C1.99489 25.1189 1.87372 25.0489 1.82999 24.8453L1.7463 24.3718L1.08422 24.2232C0.829386 24.0833 0.555812 23.9846 0.26475 23.9296C-0.0600417 23.5249 0.80815 23.7635 0.966798 23.9459C1.03675 23.9709 1.07922 23.9571 1.09047 23.9046C1.31782 23.9846 1.54892 24.0358 1.78377 24.0595L1.79377 23.9908C1.71756 23.5986 1.80251 23.4262 2.04985 23.4737C2.28845 23.4175 2.33467 23.3962 2.18851 23.4112C1.88121 23.2026 2.2947 23.1839 2.48333 23.2363C2.81936 23.3075 3.15914 23.3475 3.49642 23.3825C3.51891 23.385 4.0848 23.4037 3.93489 23.3438C3.62259 23.3225 3.31154 23.31 3.00049 23.3075C2.7569 23.3213 2.60075 23.2401 2.53329 23.0639L1.32906 22.5755C1.21539 22.498 1.11545 22.1458 1.21913 22.0521C1.28034 21.8997 1.61888 21.9934 1.76129 22.0521L1.03175 21.831C0.91433 21.6736 1.05424 21.6174 1.18291 21.7248L1.21664 21.6823C1.14793 21.6623 1.01302 21.4712 1.24537 21.475L1.60764 21.5686C1.94617 21.6623 1.56766 21.1477 1.45898 21.0477C1.45773 20.9428 1.46648 20.8853 1.5814 20.9041C1.35155 20.8753 0.859366 20.6942 1.02051 20.4206C0.784414 20.3344 0.549567 20.2595 0.315967 20.1958C0.369683 19.9247 0.206037 19.7523 0.174807 19.4812C0.158568 19.3351 0.178555 19.1777 0.17106 19.0303L0.278489 18.9916C0.863113 19.0927 1.41401 19.2676 1.96116 19.465L1.99489 19.5399C2.00238 19.5112 2.01488 19.47 2.03736 19.4675C2.30719 19.435 2.66071 19.4712 2.9168 19.5399L2.84184 19.5112C2.25847 19.455 2.6732 19.1777 3.03297 19.2289L3.42147 19.2489C3.56013 19.1964 3.72378 19.1939 3.91241 19.2426C3.76125 19.1302 3.59261 19.039 3.40648 19.004L3.34902 18.9216C3.25658 18.9004 3.16039 18.8904 3.0617 18.8929C2.86932 18.738 2.47333 18.6967 2.24348 18.8029C1.79002 18.7517 1.33781 18.6205 0.905588 18.4844L0.756934 18.5606C0.839381 18.9778 0.305972 18.8629 0.169809 18.6305C0.166062 18.608 0.138582 18.5793 0.133585 18.5581L0.13983 18.3982C0.244762 18.1971 0.232272 18.0559 0.133585 17.866C0.0486399 17.8323 0.124839 17.6287 0.206037 17.6836C0.282238 17.6062 0.634512 17.7548 0.639509 17.866V17.8598Z" fill="#DEF5F0"/>
<path id="Vector_2" d="M5.00912 4.16572C5.04535 4.16822 5.08657 4.17072 5.11155 4.19695C5.35265 4.45054 5.46507 6.20941 5.41261 6.6129C5.36389 6.63164 5.37763 6.66786 5.45258 6.71908C5.52254 7.32994 5.57875 7.94329 5.61997 8.56165C5.58625 8.68032 5.45758 8.72529 5.23272 8.69781C4.15342 8.68032 3.14656 8.68157 2.09224 8.90393C2.13721 9.04134 2.27088 9.01011 2.3883 8.97513C2.82927 9.0251 3.26649 9.06757 3.72119 9.04759C3.83362 9.04134 3.85611 9.0938 3.85486 9.18999C4.27209 9.0276 4.6531 8.88519 5.08907 9.06383C4.93292 8.71655 5.84233 8.84397 5.59249 9.18375C5.75988 9.38237 5.84233 9.47356 6.10966 9.39986C6.77798 9.19124 7.54874 9.13878 8.18957 9.44608C8.24079 9.79086 9.19143 9.69217 9.02279 9.27993L9.09024 9.22872C9.13896 9.12004 9.4675 9.1875 9.48749 9.30117C9.50623 9.50354 9.56494 9.65345 9.59492 9.84707C9.47375 9.79211 9.54995 9.61347 9.3988 9.60972C9.12272 9.60348 8.54185 9.84332 8.23205 9.90953C7.9972 9.9595 7.7561 9.98823 7.51876 10.0282L5.22648 10.1019L5.31642 10.2106C5.62872 10.2181 5.97849 10.2143 6.28705 10.2518C6.4382 10.2705 6.56062 10.328 6.69054 10.3542C6.82045 10.3805 7.0578 10.2893 6.95911 10.5016C7.20146 10.4954 7.45879 10.5791 7.71738 10.5754C7.68615 10.5978 7.65367 10.6191 7.61994 10.6366C7.58621 10.6541 7.55248 10.6678 7.51751 10.6728C6.44694 10.8077 5.25396 10.8227 4.17341 10.7977C4.13843 10.7977 4.10345 10.7852 4.06722 10.7727C4.031 10.7602 3.99602 10.7415 3.96229 10.7228L3.84736 10.6753C3.68247 10.373 3.33144 10.4279 3.05912 10.5316C2.96293 10.5591 2.84176 10.5704 2.78305 10.4742C2.5532 10.6178 2.43952 10.6053 2.28337 10.398L1.69 10.323C1.58757 10.5766 1.08914 10.5017 1.17408 10.1869C1.09788 10.0782 0.969215 10.0182 0.78933 10.0107L0.748105 9.92202C0.596952 9.96075 0.62818 9.77212 0.781832 9.77337C0.615688 9.72965 0.5195 9.68218 0.469532 9.50854C0.44205 9.41235 0.39958 9.19499 0.495768 9.15752C0.393334 9.09006 0.534494 8.77901 0.640676 8.75652C0.635679 8.56165 0.671905 8.37926 0.749355 8.21062C0.663161 8.12568 0.769343 7.82587 0.894263 7.80963L0.959219 7.73968C1.16284 7.0851 1.36396 6.4605 1.79868 5.9071L1.90486 5.87962C1.98106 5.76469 2.05102 5.78094 2.03603 5.9221C1.75371 6.40304 1.49138 6.88897 1.3065 7.40739C1.41143 7.28497 1.54509 7.19377 1.70374 7.13256C2.02478 6.82026 2.19842 6.80403 2.16469 7.30745L2.32084 7.32369C2.35207 7.20752 2.40829 7.13381 2.52571 7.20377C2.64689 7.3949 2.71934 7.32994 2.74432 7.00889L3.1653 6.44801C3.10284 6.50922 3.03664 6.56168 2.98667 6.46425C2.87924 6.41803 2.95793 6.26187 3.05912 6.31809L3.04538 6.22565C3.27648 6.04202 3.33394 5.91335 3.36392 5.62228C3.65873 5.26002 3.89234 4.84903 4.06348 4.38933C4.34579 4.2844 4.63686 4.19196 4.93666 4.11326L5.01037 4.16947L5.00912 4.16572Z" fill="#E0F6F2"/>
<path id="Vector_3" d="M1.07303 21.6108C1.1205 21.5558 1.23417 21.6645 1.18171 21.7194C1.15173 21.7144 1.02556 21.697 1.03805 21.7557C1.2679 21.8306 1.5877 21.8756 1.76008 22.048H1.21793L1.31412 22.4877L2.56832 22.9986C2.63452 23.0336 2.61578 23.1498 2.68449 23.1723C2.96931 23.2709 3.42901 23.226 3.72882 23.2485C4.04612 23.2722 4.36591 23.3159 4.68446 23.3234C4.70694 23.4833 4.4571 23.3521 4.37965 23.3609C4.32219 23.3671 4.27847 23.4321 4.19727 23.4371C4.09359 23.4433 4.03487 23.3684 4.01613 23.3684C3.9874 23.3684 3.94993 23.4621 3.87248 23.4696C3.79503 23.4771 3.3728 23.4421 3.25912 23.4321C2.95057 23.4059 2.62328 23.3097 2.31973 23.2872C2.27725 23.2834 2.12235 23.2572 2.12235 23.3222C2.54708 23.3884 2.97431 23.4746 3.40403 23.5045C3.72882 23.527 4.0636 23.5045 4.37965 23.5045C4.59951 23.5045 4.89307 23.4608 5.08295 23.5595C4.0711 23.6232 3.058 23.5333 2.0499 23.4683C1.99119 23.4596 1.93123 23.4596 1.88126 23.4958L1.06053 23.2634C1.12174 23.3659 1.1992 23.923 1.113 23.9642L0.966844 23.9418C0.738241 23.8868 0.510887 23.8106 0.296025 23.7619C0.229818 23.7469 0.223572 23.7906 0.261048 23.8331C0.340997 23.9255 0.67953 23.933 0.824437 23.9942C0.91313 24.0317 0.953102 24.1029 1.10301 24.1491C1.21543 24.1828 1.7376 24.274 1.78882 24.3128C1.88376 24.384 1.83503 24.9936 2.02741 24.9961C2.07988 24.9961 2.18106 24.9336 2.22479 24.9648C2.24228 24.9773 2.36595 25.2697 2.41591 25.3384C2.49711 25.4508 2.90185 25.8905 3.00428 25.9455C3.09298 25.9942 3.20665 25.9829 3.27661 26.0716C3.03926 26.1478 2.77318 26.0954 2.53584 26.1266C2.48587 26.1328 2.42216 26.1541 2.48212 26.1991H4.21601L4.03862 26.2678C3.39403 26.3015 2.75944 26.3302 2.13484 26.3552L2.08488 26.2728L2.02741 26.3352C1.26165 26.1903 0.80195 25.7156 0.45967 25.0198C0.510887 25.2397 0.58459 25.4545 0.674532 25.6607L0.640805 25.7618C0.613323 25.7956 0.565853 25.7956 0.495898 25.7618L0.398461 25.7269C0.194841 25.2472 0.0836625 24.7362 0.0624262 24.1953C0.0636754 24.0329 0.112394 23.8381 0.101151 23.7032C0.076167 23.4171 -0.0937226 23.2534 0.0711715 22.9099C0.111146 22.8262 0.263547 22.7325 0.273541 22.6776C0.281036 22.6388 0.0861582 22.2266 0.0986501 21.9918C0.106145 21.8668 0.221074 21.4571 0.35099 21.4259C0.355987 21.4046 0.359733 21.3884 0.36473 21.3884C0.573346 21.3847 0.898139 21.5083 1.07303 21.6083V21.6108Z" fill="#ADE8DB"/>
<path id="Vector_4" d="M2.37342 15.2009C2.50209 15.1634 2.642 15.1647 2.77066 15.2009C2.86061 15.0885 3.22912 15.1797 3.27659 15.3096C3.34279 15.4145 3.22162 15.4382 3.12294 15.4457C2.73319 15.417 2.68572 15.4757 2.98178 15.6219C3.07297 15.8218 3.27034 15.9092 3.57515 15.8855L3.60138 15.9654C3.72505 15.9617 3.9574 16.0441 3.99862 16.1478C3.97489 16.2715 3.98738 16.3976 4.0361 16.525L3.96365 16.585C3.96365 16.605 3.9599 16.6212 3.9524 16.6237C3.8762 16.6537 3.55516 16.6125 3.45772 16.585C3.61512 16.6275 3.83498 16.655 3.97864 16.5888C4.28844 16.5575 4.54327 16.6025 4.83559 16.6949C4.99923 16.7474 5.29404 16.8523 5.37274 16.986C5.53389 17.2458 5.88616 17.2109 6.16099 17.1546C6.51326 17.0547 6.86928 16.976 7.2303 16.9185L7.32274 16.986L7.26028 17.1047C5.86118 18.1465 4.16976 18.7274 2.53956 17.9104L2.51957 17.8242L2.55705 17.793C2.37842 17.7792 2.20977 17.7405 2.04988 17.6781L1.95868 17.728L1.10548 17.3845C-0.0112976 17.0884 0.662016 17.5044 1.1567 17.7493C1.31535 17.8255 1.42777 18.0153 1.18418 17.9691C1.08674 18.0603 0.679506 17.9966 0.64203 17.8604C0.569576 17.838 0.239788 17.7168 0.208558 17.6781C0.136105 17.703 0.138606 17.6656 0.172334 17.6056C0.133609 17.372 0.172332 16.8998 0.208558 16.6587C0.227296 16.5013 0.399688 16.5775 0.460899 16.6587L0.575823 16.7062C0.720729 17.1746 1.10423 17.1147 1.48899 16.9873C1.71134 16.9423 1.82752 17.0635 1.82502 17.2808C2.21477 17.2558 2.59078 17.2908 2.95305 17.387L2.96929 17.3395C3.44648 17.397 3.93366 17.4707 4.43209 17.5594C4.98049 17.6743 5.47767 17.5069 5.9861 17.3133C5.85618 17.382 5.55887 17.4545 5.48017 17.3133C4.96675 17.1347 4.4296 17.0572 3.88245 17.1059C3.74254 17.1059 3.60763 17.0734 3.48271 17.0122C3.3328 16.916 2.21352 16.4426 2.12982 16.4901C2.11358 16.5001 1.99117 16.8086 1.99491 16.8423C1.96493 16.8586 1.93495 16.8573 1.90497 16.8398C1.87999 16.8936 1.78255 16.8511 1.76006 16.8036C1.25789 16.7524 0.760705 16.6725 0.268521 16.5625L0.243536 16.5113C0.292254 16.2927 0.357214 15.9891 0.424671 15.783C0.44216 15.7193 0.467143 15.6594 0.498373 15.6019C0.519609 15.5857 0.945587 15.6768 1.00305 15.7106C1.10299 15.6281 1.23415 15.5694 1.39655 15.5369L2.06611 15.2021C2.20103 15.1284 2.30346 15.1284 2.37592 15.2009H2.37342Z" fill="#417180"/>
<path id="Vector_5" d="M7.64618 12.761C8.12587 12.5561 8.68926 12.4462 9.20892 12.3625C9.50873 12.315 9.49374 12.3787 9.37881 12.5773V12.651C9.36757 12.8347 9.15271 13.2007 9.09025 13.4155C8.94534 13.4118 8.87414 13.5667 8.87789 13.8802L8.83666 14.4661L8.76545 14.5086C8.76545 14.646 8.64803 14.6285 8.62055 14.4986C8.63054 14.175 8.65178 13.8602 8.68176 13.5529L7.94223 13.7478C7.88852 13.7478 7.8373 13.7353 7.79108 13.7078C7.74111 13.829 7.56123 13.874 7.46629 13.7803C7.44505 13.8015 7.42257 13.8215 7.39634 13.8328C6.9029 14.0501 5.49381 14.0464 4.90544 14.0414C3.99852 14.0339 3.0204 13.9814 2.1572 13.7428C2.02479 13.8115 1.81117 13.7865 1.72373 13.6341C1.48763 13.6167 1.2328 13.5529 1.00794 13.4717L0.965466 13.3793L1.00544 13.3093C1.63504 13.3581 2.25964 13.4418 2.87924 13.5604L3.00166 13.503L4.27959 13.6541C4.84173 13.7053 5.41886 13.7528 5.96476 13.6042C5.72866 13.6067 5.58875 13.5442 5.54378 13.418C5.15153 13.2944 4.76178 13.3068 4.35079 13.3406L4.28833 13.2681C3.46136 13.453 2.64814 13.2144 1.86864 12.9771C1.82492 13.0832 1.67501 13.0445 1.65252 12.9408C1.49138 12.9271 1.28776 12.8734 1.49388 12.7235L1.96482 12.7634C2.71184 12.9321 3.46511 12.9896 4.22212 12.9346C4.39826 12.9321 4.57939 12.9208 4.76428 12.9021C5.6537 12.9683 6.52315 12.9596 7.37135 12.8759C7.43006 12.9371 7.32388 12.8721 7.3676 12.7947C7.39633 12.7435 7.58122 12.7547 7.64618 12.7585V12.761Z" fill="#DEF5EE"/>
<path id="Vector_6" d="M9.59611 10.4307C9.54989 10.743 9.63233 11.069 9.59236 11.3913C9.58611 11.4463 9.56738 11.5512 9.53989 11.5937C9.46244 11.7149 8.56552 11.9047 8.37064 11.9435C8.02212 12.0134 7.53493 12.1134 7.19515 12.1421C6.83413 12.1721 6.68173 12.0609 6.3457 12.2508C6.05713 12.1908 5.76857 12.1796 5.47875 12.2145C5.44752 12.3195 5.42254 12.3032 5.37007 12.2145C5.27513 12.1583 5.14897 12.1708 4.99282 12.2495C4.83792 12.2658 4.68676 12.2845 4.53311 12.3045C4.50438 12.3082 4.49689 12.3257 4.50438 12.3607C4.45316 12.4144 4.36697 12.4469 4.27952 12.4394C4.22831 12.4344 3.7661 12.327 3.75361 12.302C3.71364 12.2208 3.78609 12.1159 3.87478 12.1171L4.35573 12.1533C4.36822 12.0184 4.45691 11.9747 4.6243 12.0222L4.75672 11.9972C4.75922 11.8922 4.83292 11.8848 4.90162 11.961C5.00906 11.9684 5.10524 11.9322 5.19019 11.8523C5.17645 11.7798 5.20768 11.7648 5.26264 11.816C5.48875 11.7761 5.7186 11.7611 5.9522 11.7736L6.56805 11.6661C7.04525 11.6786 7.49996 11.6349 7.97215 11.5487L8.11456 11.5974L8.212 11.505C8.48432 11.4688 8.74166 11.3963 8.98275 11.2864L8.21699 11.495L8.07833 11.4513C8.04585 11.4713 8.02462 11.5 8.01587 11.5387C7.77603 11.5874 7.53368 11.6249 7.28884 11.6299C7.25511 11.6299 7.22888 11.5937 7.21139 11.56C7.17141 11.5987 7.10896 11.6062 7.02651 11.5812C6.68173 11.455 6.3382 11.4063 5.99592 11.4363L5.91098 11.3776L5.69487 11.3876C5.57494 11.2964 5.40255 11.3039 5.29637 11.4063C5.4088 11.475 5.5537 11.5862 5.36882 11.6324L5.29762 11.7211C5.06777 11.7748 4.83792 11.8248 4.60556 11.8698L4.50188 11.8135C4.3957 11.856 4.33324 11.7836 4.317 11.5962L4.26828 11.4913C3.89977 11.3976 3.92475 11.2577 4.34198 11.069C5.26389 11.0515 6.18455 11.0078 7.10396 10.9391L7.1889 10.8579C8.02087 10.8504 8.80162 10.6843 9.5299 10.3595L9.59486 10.4294L9.59611 10.4307Z" fill="#DDF5EF"/>
<path id="Vector_7" d="M9.27144 20.1539C9.30642 20.3151 9.51379 20.5099 9.52503 20.7935C9.53502 21.0396 9.30767 21.3369 9.31266 21.3681C9.32516 21.4506 9.52753 21.6554 9.56875 21.7666C9.63871 21.959 9.63995 22.1701 9.56125 22.3587C9.53002 22.4362 9.4151 22.5586 9.4151 22.6123C9.4151 22.681 9.54626 22.766 9.58999 22.8359C9.82733 23.2107 9.62996 23.4805 9.63246 23.8678L9.14152 24.0114L9.12653 23.904C9.12029 23.8365 9.16776 23.7816 9.26769 23.7416C9.17026 23.5492 9.21773 23.3506 9.29393 23.1595L9.23396 23.1033L9.03784 22.9708C8.20838 23.0021 7.3889 23.3469 6.56193 23.2482L6.63438 23.1395L6.70684 23.0633C7.0866 23.0545 8.80424 22.7947 8.9379 22.4624C8.91167 22.28 8.92292 22.1176 8.97164 21.974C8.24835 22.0377 7.52631 22.1226 6.80552 22.2301C6.6906 22.2413 6.47699 22.2551 6.41703 22.1551C6.11847 22.1101 5.67375 22.2201 5.39393 22.1564C5.34896 22.1464 5.34896 22.0464 5.33397 22.009C5.42891 21.9378 5.52759 21.9378 5.62253 22.009L6.05601 21.9727C6.12096 21.9365 6.18842 21.899 6.26337 21.8915C6.47823 21.8691 8.8642 21.608 8.86295 21.4756L8.83672 21.3744C9.08531 21.2744 9.29393 21.1845 9.13153 20.8697L9.15901 20.5611C8.78051 20.6523 8.38076 20.7248 7.98851 20.7848L7.8611 20.7348L6.21715 20.8472L6.12721 20.7348L6.2309 20.6836C7.01789 20.5811 7.79864 20.43 8.57564 20.2776L8.69181 20.2976C8.87794 20.2501 9.08156 20.2314 9.27019 20.1514L9.27144 20.1539Z" fill="#C2EEE6"/>
<path id="Vector_8" d="M0.495995 25.763C0.53472 25.7717 0.577192 25.7842 0.593432 25.8167C0.960696 26.61 1.35044 26.9922 2.21489 27.2196C2.21739 27.2196 2.22239 27.2033 2.22988 27.1833C1.91883 26.971 2.05624 26.7036 2.42351 26.8648C2.51095 26.8648 2.61213 26.8785 2.72706 26.906C2.77328 26.8336 2.91569 26.8623 2.91569 26.9647C2.95816 26.876 3.00563 26.8885 3.0606 27.001C3.14429 26.9447 3.19551 27.0272 3.16928 27.1096C3.29045 27.1771 3.38664 27.282 3.18926 27.2845C3.18177 27.3208 3.19926 27.3482 3.24173 27.3645C4.54089 27.4669 5.85755 27.5294 7.14547 27.2371L7.2504 27.2558C7.42029 27.1384 7.67888 27.1071 7.86376 27.1096C7.81254 27.0172 7.9587 26.8998 8.04489 26.9635L8.05239 26.871C8.24851 26.7461 8.40841 26.5825 8.54957 26.3988C8.58705 26.4051 8.62327 26.3988 8.65825 26.3801C8.60953 26.3351 8.67324 26.2889 8.7307 26.3077L8.7407 26.229C9.10921 25.7443 9.34156 25.1609 9.48022 24.5688C9.57391 24.3614 9.66635 24.5613 9.59764 24.7049C9.55517 25.307 9.17667 26.2352 8.80316 26.7086C8.69697 26.8323 8.5758 26.9435 8.44214 27.0359C8.3397 27.0984 8.22727 27.1721 8.11734 27.2183C8.10985 27.2433 8.10111 27.267 8.08487 27.2833C7.89999 27.4694 6.90688 27.6643 6.60207 27.713C5.71889 27.7917 4.82571 27.8267 3.96376 27.8004C3.14554 27.763 2.02126 27.5656 1.31671 27.1384C0.426037 26.5987 0.0550254 25.1846 0.0637698 24.1953C0.161207 24.545 0.151217 24.8998 0.262396 25.2521C0.319859 25.4332 0.418542 25.5919 0.497241 25.7618L0.495995 25.763Z" fill="#67CAC1"/>
<path id="Vector_9" d="M8.00742 16.7679C8.12235 16.7679 8.16981 16.8591 8.14983 17.044C8.23102 17.0615 8.23227 17.1739 8.15232 17.2051L8.14608 17.2576C7.70761 17.4724 7.28788 17.6848 6.88814 17.8972C7.00431 17.9122 7.0293 18.2532 6.92436 18.2982C6.68951 18.3356 6.47091 18.3481 6.23856 18.3706L6.08615 18.3256C4.98686 18.4393 3.89381 18.4181 2.80701 18.2619C2.49471 18.232 2.17616 18.2082 1.86761 18.1532C1.68273 18.2394 1.31422 18.1233 1.1818 17.9709C1.27924 17.9834 1.28049 17.9396 1.21678 17.8809C1.05189 17.7323 0.472258 17.5599 0.403552 17.2801C0.371073 17.1489 0.790805 17.2388 0.865756 17.2526C1.36044 17.34 1.66649 17.5824 2.04875 17.6798C2.21614 17.7248 2.37229 17.7735 2.51845 17.826L3.17677 18.0908C4.08869 18.3756 5.14925 18.1795 6.00995 17.796C6.4709 17.5911 6.87564 17.2276 7.32161 16.9878C7.37907 16.7991 7.85627 16.6342 8.00742 16.7691V16.7679Z" fill="#569CA1"/>
<path id="Vector_10" d="M0.278554 11.9955C0.313531 11.9755 0.353507 11.958 0.393482 11.9693C1.40783 12.2703 2.44466 12.434 3.50523 12.4652L3.60142 12.5414L3.99866 12.5776C4.05613 12.5064 4.12109 12.5064 4.1798 12.5776C4.59203 12.6226 5.06673 12.6226 5.48021 12.5776C5.51269 12.5064 5.62012 12.479 5.6526 12.5589C5.84873 12.5726 6.04485 12.5701 6.23972 12.5414C7.38399 12.5102 8.52451 12.2903 9.6163 11.958C9.69875 12.2241 9.4664 12.4252 9.3827 12.6501C9.3827 12.6451 9.34898 12.6239 9.34898 12.5951C9.34898 12.5189 9.45266 12.459 9.4002 12.3953C8.81807 12.5252 8.23094 12.6339 7.64882 12.76C6.63697 12.8725 5.56766 12.9037 4.51833 12.8924C4.48335 12.9624 4.38592 12.9761 4.22602 12.9349C3.67137 13.0074 3.18044 12.9736 2.64204 12.8237C1.88502 12.8025 1.15174 12.6901 0.443449 12.4864C0.33227 12.5089 0.298542 12.4502 0.244827 12.3578C0.187364 12.2154 0.0487039 11.9893 0.0312151 11.8631C0.00248356 11.647 0.0899259 11.3509 0.0999194 11.1198C0.199855 11.1223 0.238579 11.2048 0.216094 11.3672L0.176122 11.8456C0.219844 11.8943 0.254821 11.943 0.281055 11.993L0.278554 11.9955Z" fill="#9CE3D3"/>
<path id="Vector_11" d="M0.49595 9.15421C0.470966 9.24165 0.534676 9.54521 0.602133 9.61142C0.68458 9.69386 0.94691 9.70386 1.0381 9.82753C1.09057 9.93621 0.764526 9.81254 0.713309 9.84502C0.708312 9.8725 0.749537 9.89873 0.749537 9.91747L0.819492 9.96244C0.75953 10.1061 0.787012 10.1998 0.904436 10.2448C1.15927 10.3222 1.41286 10.4371 1.16552 10.7057C1.14053 10.9018 1.1905 11.1067 1.25921 11.2903C1.77013 11.5339 2.2923 11.7413 2.83445 11.9049C3.09553 12.2235 2.356 12.0823 2.23233 11.9936L2.10242 12.0324C1.62647 11.9149 1.08807 11.84 0.634609 12.0499C0.500945 11.9811 0.383521 11.9624 0.283585 11.9936C0.241112 11.9761 0.176154 11.9786 0.138678 11.9399C0.0312468 11.8312 0.233619 11.2903 0.102454 11.1192C0.118693 10.7544 0.0287488 10.4122 0.0337456 10.0849C0.036244 9.90998 0.124937 9.70386 0.138678 9.5527C0.16616 9.48775 0.232367 9.44028 0.3373 9.40905C0.311067 9.32535 0.316065 9.26289 0.35479 9.22541C0.312318 9.12173 0.429743 9.06302 0.499698 9.15296L0.49595 9.15421Z" fill="#BCEEE0"/>
<path id="Vector_12" d="M6.74292 0.450662C6.77915 0.613058 6.75917 0.711744 6.68296 0.745473C6.7042 1.04028 6.71919 1.33634 6.73043 1.6324C6.73043 1.65989 6.70045 1.67862 6.67172 1.68862C6.7092 1.75358 6.60051 1.77731 6.56304 1.72484C6.53056 1.7136 6.50058 1.69237 6.49933 1.65989C6.50683 1.54246 6.52057 0.715493 6.47809 0.691758C6.45811 0.680515 6.3944 0.678017 6.38691 0.681764L6.42063 1.22267C6.40065 1.30761 6.33943 1.34134 6.25948 1.30636C6.25574 1.50249 6.26074 1.65489 6.27323 1.76232C6.25824 1.78605 6.242 1.80479 6.22326 1.80729C5.90971 1.85726 5.4525 1.89224 5.13646 1.88099C5.11772 1.88099 5.09898 1.85976 5.08149 1.83477C5.06275 1.82103 5.04652 1.80479 5.03652 1.78605C4.99405 1.70486 5.02778 0.840411 5.04526 0.680514C4.9853 0.611808 5.02153 0.559342 5.15394 0.523116C5.19892 0.483141 5.1502 0.446915 5.00904 0.414436C4.96032 0.560592 4.33822 0.483141 4.26577 0.433173L4.17832 0.341982L4.0609 0.395697C3.87851 0.3907 3.124 0.339483 3.00907 0.288266C2.9666 0.269528 2.93662 0.235801 2.91413 0.195827C3.00033 0.12837 3.15023 0.108383 3.26141 0.0908944C3.8985 -0.00654299 4.74046 -0.0140382 5.38755 0.0146933C5.67736 0.0271853 6.29571 0.0584144 6.54555 0.15835C6.77665 0.250791 6.70795 0.253289 6.74292 0.450662Z" fill="#FCDACC"/>
<path id="Vector_13" d="M8.83793 15.0554C9.00907 14.9592 9.10276 15.4052 8.93037 15.4614C8.9591 15.575 9.02406 15.5725 9.1265 15.4564C9.13649 15.5138 9.15148 15.5788 9.16272 15.6388L9.14773 15.7249C8.93537 15.8011 8.90289 15.8848 9.05154 15.976C8.96035 16.1234 8.96785 16.1759 9.01657 16.3446C8.728 16.5544 9.17522 16.5981 9.24017 16.3845L9.30763 16.3308C9.32137 16.392 9.33011 16.4532 9.34386 16.5132C9.36884 16.6419 9.18271 16.7006 9.09152 16.6956C9.03406 16.7093 9.02156 16.7206 9.05529 16.7318C9.35635 16.5906 9.4263 16.6306 9.26516 16.8517C9.43879 16.9242 9.31887 17.0291 9.21269 17.1053C9.24892 17.2665 9.31138 17.4264 9.40382 17.565L9.38008 17.6412C9.08527 17.8336 8.73925 17.8823 8.40446 17.9685C8.27205 17.981 8.23707 17.9285 8.31952 17.8248C8.24581 17.655 8.1896 17.4851 8.15212 17.3127C8.18085 17.2702 8.18085 17.2327 8.15212 17.204C8.11964 17.0953 8.15212 16.9916 8.00722 17.0216C8.1084 16.8805 8.13713 16.8155 7.93476 16.8392C7.92227 16.7905 7.98848 16.7968 8.00722 16.7668C7.96349 16.7068 7.93601 16.5607 8.00722 16.5119L7.95475 16.2921C7.8773 16.2858 7.90103 16.2584 7.97099 16.2209C8.02096 16.1597 7.97349 16.1584 7.82608 16.2146L7.7911 16.1834C7.75987 16.1422 7.74738 16.0935 7.75488 16.0372C7.73489 15.971 7.77611 15.9398 7.87605 15.9436C8.01971 15.7837 7.45507 15.9785 7.41509 16.0148C7.27768 16.0597 7.11404 16.1022 7.1815 15.9036L7.81859 15.66L7.76362 15.2965L7.82733 15.2365C7.84732 15.1478 7.93102 15.1103 8.08092 15.1266L8.78796 15.274C8.75673 15.1753 8.77422 15.1028 8.83793 15.0554Z" fill="#8BB3B9"/>
<path id="Vector_14" d="M4.10729 2.81718C4.00861 2.87964 3.90367 2.90837 3.79374 2.90213C3.86245 3.19444 3.8687 3.483 3.81248 3.76532L5.1916 3.90648L5.22782 3.98268C5.14038 4.10385 4.81808 4.14008 4.7219 4.01891C4.71065 4.06388 4.67443 4.08012 4.61197 4.06887L3.69631 3.99517C3.80249 4.16381 3.7038 4.27749 3.40025 4.33495C3.12293 4.47112 2.8406 4.58355 2.55079 4.67474C2.10358 5.17691 1.11921 6.45859 1.11546 7.11192C1.20041 7.2181 1.13295 7.33553 1.02427 7.39549C1.09548 7.51666 0.990544 7.71528 0.895605 7.80522C0.846886 7.94264 0.789422 8.05381 0.750697 8.20622C0.674496 8.37611 0.63827 8.55849 0.642018 8.75211C0.604542 8.90826 0.527091 9.05068 0.49711 9.15311C0.440896 9.16185 0.397178 9.20557 0.352207 9.22556C0.379689 9.3255 0.349706 9.33799 0.279751 9.26179C0.171071 9.01944 0.20605 8.61845 0.394679 8.39984C0.399676 8.24744 0.469629 8.10753 0.60704 7.98261C0.558322 7.87893 0.579559 7.77899 0.670751 7.68156C0.788175 7.0732 1.02302 6.52979 1.32658 6.00388C1.32908 5.93517 1.34032 5.86772 1.36156 5.80151C1.50771 5.59414 1.67885 5.41176 1.83126 5.21938C1.9162 5.21189 1.96367 5.15193 1.97616 5.037C1.98741 5.02326 2.00239 5.01327 2.01239 5.00078C2.10108 4.97329 2.10982 4.94581 2.12107 4.85462C2.59826 4.25501 3.39525 3.54671 2.98801 2.706C3.0005 2.67477 3.01175 2.67477 3.02424 2.706L3.06296 2.6373L4.06232 2.73848L4.10729 2.81593V2.81718Z" fill="#89D6CC"/>
<path id="Vector_15" d="M3.34907 18.9155L3.34033 18.963C2.83315 18.9967 2.85064 19.0629 3.39529 19.1629L3.42152 19.2428C3.28036 19.309 2.73072 19.289 2.66326 19.334C2.62829 19.3565 2.62079 19.384 2.62704 19.4252C2.63828 19.4377 2.90561 19.4514 2.9156 19.5351H1.99494C1.77633 19.5351 1.40907 19.324 1.18421 19.2603C0.858169 19.1679 0.489658 19.1516 0.171113 19.0255C0.164867 18.8993 0.188602 18.7406 0.171113 18.6245C0.288537 18.6332 0.470921 18.7794 0.578352 18.7644C0.791965 18.7331 0.654552 18.5707 0.682034 18.5208C0.689529 18.507 0.860668 18.4059 0.906888 18.4071C1.00932 18.4096 1.11925 18.4871 1.21045 18.5058C1.50775 18.567 1.92124 18.6882 2.18482 18.7281C2.26602 18.7406 2.34846 18.6594 2.46464 18.6582C2.53709 18.6582 2.93434 18.7194 2.99805 18.7431C3.06675 18.7669 3.08799 18.8418 3.13296 18.8618C3.20541 18.8943 3.30035 18.8543 3.34907 18.9168V18.9155Z" fill="#CAEFE5"/>
<path id="Vector_16" d="M7.71877 10.5755C8.10727 10.5268 8.53075 10.4644 8.91176 10.3769C9.09914 10.3332 9.42518 10.182 9.57883 10.1745C9.705 10.1683 9.60381 10.3807 9.59632 10.4306C9.52137 10.4219 9.47764 10.4544 9.41893 10.4881C8.80058 10.8391 7.79997 10.8691 7.10542 10.9403L4.98303 11.064C4.7257 11.1577 1.91875 10.8891 1.8338 10.7304C1.72637 10.5293 2.03992 10.5318 2.17608 10.5343C2.70075 10.5443 3.25914 10.5893 3.78505 10.6442L3.96368 10.7217C5.15417 10.7392 6.55452 10.7217 7.72002 10.5755H7.71877Z" fill="#BDEDE2"/>
<path id="Vector_17" d="M0.242138 12.3598C0.305847 12.4535 0.409529 12.3998 0.459497 12.4198C1.34518 12.7571 2.04598 12.6309 2.93041 12.7995C3.06657 12.8258 3.22397 12.927 3.36513 12.9444C3.66619 12.9807 4.04594 12.8695 4.2708 12.887C4.37698 12.8957 4.38947 13.0256 4.49316 12.8333C5.00783 12.8295 5.52624 12.8208 6.03966 12.7995C6.31948 12.787 6.60929 12.7696 6.9066 12.7633C7.14145 12.7583 7.40378 12.6659 7.64488 12.7621C7.56993 12.7783 7.44876 12.802 7.39254 12.8533L7.82476 12.872C7.76605 13.1643 7.46125 12.9457 7.30135 12.9444C7.16893 12.9444 6.97656 13.0131 6.8329 13.0194C6.11211 13.0481 5.38758 12.9682 4.66304 12.9794C4.0347 12.9894 3.45257 13.0306 2.82673 12.9782C2.39326 12.9407 1.94229 12.8045 1.52381 12.7983C1.36017 12.7958 1.57503 12.9332 1.64998 12.9457C1.63749 13.0019 1.58627 13.0306 1.49633 13.0319L2.4832 13.4204C2.65684 13.4241 2.78925 13.4716 2.87794 13.5653L0.964174 13.3829C0.902963 13.4454 0.788036 13.4354 0.619394 13.3554L0.566926 13.3829C0.505715 12.9944 0.393291 12.7383 0.242138 12.3636V12.3598Z" fill="#CBF1E6"/>
<path id="Vector_18" d="M0.314698 20.1908C0.375908 20.1446 0.427127 20.1559 0.495833 20.1696C0.724436 20.2158 0.983018 20.3295 1.21662 20.392C1.24785 20.4007 1.69381 20.4582 1.61511 20.5181C1.54141 20.5394 1.44397 20.4707 1.38401 20.4794C1.36028 20.4832 1.36153 20.5556 1.34279 20.5569C1.28033 20.5594 1.14292 20.4332 1.03673 20.4819C1.00176 20.5119 1.13417 20.648 1.16165 20.6655C1.57514 20.9316 2.14977 20.9004 2.61697 20.8154C2.78686 20.7842 2.86806 20.9291 2.60823 20.9554C2.24096 20.9916 1.8737 20.9878 1.50643 20.9554C1.52517 21.089 1.67257 21.1402 1.73129 21.2564C1.74878 21.2914 1.83622 21.5687 1.82997 21.5887C1.78126 21.7548 1.21912 21.5075 1.18164 21.5375C1.11918 21.5899 1.22162 21.6174 1.25285 21.6274C1.55265 21.7261 2.00861 21.7986 2.3284 21.8548C2.36338 21.861 2.70191 21.8523 2.58948 21.9372C2.38836 21.9472 2.19224 21.8898 1.99362 21.8723C1.93116 21.8673 1.84621 21.9072 1.74503 21.8985C1.5539 21.8823 1.35903 21.7486 1.18039 21.7186C1.15541 21.6711 1.10669 21.6474 1.07171 21.6099C0.868092 21.4913 0.609509 21.4163 0.365915 21.3913L0.349675 21.3551C0.335934 21.3089 0.270976 21.2514 0.24849 21.184C0.122321 20.8029 0.243492 20.5406 0.313447 20.1896L0.314698 20.1908Z" fill="#B6EBDF"/>
<path id="Vector_19" d="M7.32145 4.78491C7.36268 4.71245 7.47136 4.78366 7.43388 4.80989L7.50134 4.78491C8.66934 6.4276 9.29643 7.18337 9.48756 9.30075L9.09032 9.2283L8.98913 9.03342C8.83173 8.18022 8.59814 7.34951 8.29083 6.53878L8.29583 6.4251C8.13468 6.15403 7.98603 5.8767 7.85112 5.59189L7.86236 5.51444C7.76492 5.42699 7.68122 5.3308 7.61002 5.22337C7.49634 5.29458 7.27274 4.95605 7.32145 4.85861C7.22652 4.82738 7.22652 4.81863 7.32145 4.78615V4.78491Z" fill="#B0EAEA"/>
<path id="Vector_20" d="M2.22847 11.9952C2.50579 12.1039 2.81309 12.1464 3.10666 12.1139C3.19785 11.9178 3.31527 12.0089 3.4252 12.1314C3.72626 12.3025 4.0498 12.4112 4.39833 12.4562C4.40082 12.4824 4.40457 12.5024 4.41207 12.5049C4.55073 12.5399 4.72437 12.5386 4.86428 12.5049C4.88426 12.4349 4.91549 12.4349 4.93673 12.5049C5.07789 12.5336 5.2228 12.5336 5.3702 12.5049C5.37395 12.3999 5.61005 12.3262 5.65877 12.4324C5.66626 12.4949 5.57007 12.5324 5.67626 12.5424C5.84365 12.5573 6.06475 12.5473 6.23714 12.5424C6.00729 12.6098 5.72247 12.5786 5.47888 12.5786C5.04666 12.6086 4.61194 12.6086 4.17847 12.5786C4.1185 12.5786 4.05854 12.5786 3.99733 12.5786L3.60009 12.5424C2.68318 12.5124 1.11044 12.3512 0.277225 11.9964C0.308454 11.7678 0.490835 11.9902 0.622 11.9802C0.681962 11.9765 0.741926 11.9103 0.811881 11.8965C1.28658 11.8028 1.76252 11.8553 2.22847 11.9952Z" fill="#E3F7EF"/>
<path id="Vector_21" d="M0.965413 13.379C1.24398 13.4777 1.41762 13.5577 1.72368 13.6339C1.73617 13.7463 1.66122 13.7526 1.56503 13.7351C1.20026 13.5577 1.11782 13.8088 1.16654 14.1298L1.0741 14.1448C0.836749 14.0748 0.881718 14.1086 1.20901 14.246L1.219 14.291L1.28021 14.3259C1.22025 14.7769 1.15279 15.2279 1.07909 15.6801L1.00289 15.7125C0.977907 15.715 0.944179 15.7463 0.881719 15.7463C0.808016 15.7463 0.478226 15.6626 0.461986 15.6776C0.473229 15.725 0.433256 15.7575 0.424512 15.7862C0.635626 14.9743 0.700585 14.2148 0.569419 13.3828C0.575665 13.3503 0.550681 13.2754 0.588157 13.2729C0.610642 13.2716 0.916695 13.3653 0.966663 13.3828L0.965413 13.379Z" fill="#8DCECC"/>
<path id="Vector_22" d="M4.17993 0.341733C4.38105 0.420433 4.36606 0.582827 4.1462 0.600316C4.1512 0.662776 4.12621 0.697755 4.07125 0.70525C4.12746 0.725237 4.12621 0.83017 4.07125 0.851406C4.00004 0.86015 3.94633 0.805186 3.9126 0.684014L3.68774 0.677768L3.61779 1.75583C3.56407 1.80704 3.30799 1.75208 3.25552 1.69961C3.26302 1.33235 3.26926 0.966332 3.27551 0.602815L3.19681 0.612809C3.16808 0.977575 3.15184 1.34359 3.14809 1.71335L3.06189 1.76082C3.00818 1.85326 2.86702 1.84327 2.80956 1.76082C2.79582 1.26739 2.8183 0.777704 2.84579 0.28552C2.84579 0.22306 2.88451 0.22056 2.91699 0.194327C3.32423 0.281771 3.77769 0.261785 4.18118 0.340485L4.17993 0.341733Z" fill="#F8BAAA"/>
<path id="Vector_23" d="M6.67071 1.68806C6.73317 1.48195 6.86059 1.74803 6.74441 1.84172C6.6832 1.89168 6.07859 1.96164 5.9849 1.8692C5.94743 1.91042 5.90246 1.9404 5.84999 1.95664C5.42651 1.96913 5.01428 2.00911 4.61454 2.07406C4.53334 1.97788 3.90999 1.99162 3.90624 2.02784C4.18231 2.22147 4.25102 2.45882 3.85502 2.4888C3.68013 2.54876 3.48151 2.54251 3.26041 2.47006C3.13549 2.45132 2.85317 2.37512 2.80695 2.27019C2.86566 2.13528 2.81194 1.92916 2.80695 1.76051C2.8769 1.73428 2.98558 1.75052 3.05928 1.76051C3.09676 1.72804 3.13923 1.7118 3.1867 1.7043C3.25291 1.69306 3.44279 1.75177 3.51899 1.7805C3.68388 1.74802 3.93122 1.75302 4.07238 1.84046C4.16108 1.81548 4.22104 1.82547 4.25102 1.87044C4.25726 1.83797 4.26976 1.83921 4.28725 1.87044C4.30723 1.80049 4.33846 1.80049 4.3597 1.87044C4.39218 1.80049 4.43465 1.80049 4.46838 1.87044C4.55707 1.77925 4.63327 1.77925 4.72071 1.87044C4.7482 1.74927 4.91309 1.76302 4.97305 1.83422C5.00678 1.73553 5.04801 1.73553 5.08173 1.83422C5.51645 1.81673 5.83625 1.81423 6.27347 1.76176C6.3072 1.65059 6.50082 1.6281 6.56203 1.72554C6.6145 1.71679 6.65322 1.69181 6.67071 1.68931V1.68806Z" fill="#F4A291"/>
<path id="Vector_24" d="M8.152 17.3138C8.2282 17.3401 8.23195 17.3813 8.25694 17.445C8.28692 17.5212 8.38311 17.7636 8.38935 17.821C8.3981 17.8997 8.26568 17.9047 8.40434 17.9684C7.91716 18.0946 7.42122 18.2158 6.92404 18.2957L6.88781 17.8947C7.27132 17.6874 7.67106 17.4887 8.06581 17.2951L8.15076 17.3126L8.152 17.3138Z" fill="#4C838F"/>
<path id="Vector_25" d="M1.36269 5.80514C1.33771 5.89133 1.44264 5.85635 1.4314 5.92506C1.40391 6.08371 1.14783 6.46971 1.06788 6.65459C0.89424 7.05183 0.844273 7.30292 0.74059 7.70766C0.725599 7.76387 0.649398 7.81759 0.6469 7.86881C0.644401 7.91628 0.704363 7.95125 0.705612 7.97249C0.705612 7.99248 0.480755 8.23982 0.469512 8.30353C0.444528 8.44719 0.539468 8.33476 0.41205 8.50215C0.253402 8.71327 0.284633 9.00933 0.280886 9.26416C0.16471 9.33662 0.120986 9.26041 0.153465 9.03556L0.172206 8.86442C0.207184 7.73764 0.729346 6.70206 1.36394 5.80514H1.36269Z" fill="#98DCD7"/>
<path id="Vector_26" d="M6.05714 2.41816C6.07338 2.31448 6.13209 2.32072 6.16582 2.41816L6.24202 2.45688C6.22953 2.70048 6.43564 2.64926 6.60678 2.60554L6.63552 2.63677C6.62802 2.78168 6.56056 2.95282 6.56056 3.09148C6.56056 3.57242 7.21514 4.3819 7.50246 4.78539C7.51995 4.92905 7.40127 4.84285 7.32132 4.78539L7.24387 4.81662C6.9778 4.47434 6.69798 4.21201 6.3557 3.95717C6.24827 3.79602 6.22828 3.75605 6.27824 3.54493L6.26325 3.36755C5.8835 3.46624 5.81354 3.17143 6.20204 3.10147L6.03965 2.98904C6.03465 2.87662 5.99218 2.79542 5.91348 2.7467C5.95096 2.6705 5.97344 2.58305 5.98344 2.48437C6.01591 2.53059 6.01716 2.5206 5.98593 2.45564C5.9547 2.3582 5.98593 2.34821 6.05839 2.41941L6.05714 2.41816Z" fill="#97E2E1"/>
<path id="Vector_27" d="M6.85175 2.23516C6.89297 2.33509 6.76805 2.33259 6.68935 2.32759C6.65063 2.3913 6.40703 2.44877 6.34582 2.38006C6.27712 2.48999 6.21716 2.50248 6.16469 2.41629C6.13096 2.42128 6.09098 2.41129 6.05601 2.41629C5.96731 2.30386 5.91485 1.99781 5.98355 1.87039C6.25088 1.83916 6.51571 1.82292 6.77804 1.76046C6.79928 1.66927 6.74057 1.67551 6.66936 1.68801L6.59691 0.558733L6.74057 0.703638V0.448803C6.81177 0.848546 6.75431 2.02404 6.84925 2.23391L6.85175 2.23516Z" fill="#FBEAE1"/>
<path id="Vector_28" d="M0.639443 17.8593C0.790596 17.9055 1.0192 17.928 1.18159 17.968C1.40645 18.0242 1.6388 18.1092 1.8674 18.1504C1.8674 18.2141 1.87989 18.2828 1.92237 18.3315C1.93486 18.3465 2.16721 18.4702 2.19219 18.4777C2.05478 18.5676 1.90863 18.4839 1.77621 18.4777C1.40395 18.4614 1.15786 18.4627 0.794343 18.339C0.599468 18.2728 0.503279 18.2128 0.528263 17.9842C0.537007 17.9018 0.542006 17.8568 0.639443 17.8581V17.8593Z" fill="#E7F8F5"/>
<path id="Vector_29" d="M9.19891 24.0877C9.26387 24.0627 9.60365 23.9491 9.63238 23.9778C9.63363 24.099 9.63113 24.2214 9.63238 24.3426C9.63363 24.455 9.66112 24.6236 9.59616 24.7073C9.59866 24.6686 9.62239 24.5199 9.55993 24.5249C9.42877 25.212 9.15644 25.7654 8.72922 26.3088C8.673 26.35 8.63677 26.3463 8.65676 26.2726C8.62803 26.1614 8.70048 26.064 8.87287 25.9815C8.83165 25.924 8.84789 25.8478 8.92159 25.7554C8.92159 25.6405 8.95282 25.5705 9.01778 25.5443C9.01528 25.4056 9.02777 25.2607 9.05526 25.1083C9.06025 24.8435 9.09523 24.5837 9.16144 24.3326C9.08274 24.2251 9.08024 24.1552 9.19767 24.0877H9.19891Z" fill="#AFE5DC"/>
<path id="Vector_30" d="M2.80684 2.27178C2.91178 2.28052 3.17411 2.38545 3.30527 2.40669C3.48516 2.43667 3.67378 2.47165 3.85492 2.49039C4.0448 2.40794 4.17097 2.42043 4.23468 2.52661C4.24217 2.49788 4.25341 2.45666 4.27715 2.45416C4.37583 2.44042 4.96795 2.43667 5.04915 2.45416L5.10162 2.52661L5.15159 2.45291L5.84989 2.38795L5.9136 2.45416C5.9061 2.48414 5.89611 2.51287 5.87862 2.53785C5.79492 2.65902 5.79118 2.66277 5.63627 2.70525C5.59505 2.71649 5.02917 2.74772 4.96546 2.74647C4.3521 2.73023 3.7375 2.70025 3.12664 2.65028C3.13413 2.69151 3.10041 2.71149 3.02545 2.71024C3.01421 2.70774 3.00047 2.71274 2.98923 2.71024C2.90928 2.6915 2.65569 2.60656 2.6332 2.54035C2.58948 2.40794 2.65944 2.26053 2.80809 2.27302L2.80684 2.27178Z" fill="#53B3B8"/>
<path id="Vector_31" d="M8.11608 27.2194C8.1648 27.4143 7.84126 27.4917 7.6976 27.5442C6.72197 27.9027 5.21294 27.8502 4.16112 27.839C4.09991 27.839 3.99997 27.8627 3.9625 27.8015C4.14613 27.8102 4.46218 27.8265 4.63332 27.804C4.70202 27.7953 4.66829 27.734 4.737 27.7253C5.07803 27.6816 5.53524 27.7465 5.89625 27.729C6.56832 27.6966 7.49023 27.483 8.11608 27.2181V27.2194Z" fill="#AEE3DA"/>
<path id="Vector_32" d="M8.76567 14.5091C8.75568 14.3555 8.82439 13.5023 8.89309 13.4173C8.90808 13.3986 9.1192 13.2687 9.09046 13.4173C8.89059 14.1194 9.00302 14.7539 9.12669 15.4572C9.16792 15.5434 8.9518 15.7533 8.91058 15.7121C9.00552 15.5772 8.84312 15.5247 8.8019 15.3848H8.94681C8.96929 15.3611 8.93057 15.075 8.83813 15.0563C8.71571 14.9488 8.65949 14.634 8.76567 14.5104V14.5091Z" fill="#6DBABB"/>
<path id="Vector_33" d="M5.37163 12.2144C5.40661 12.2107 5.44408 12.2157 5.48031 12.2144C5.73015 12.1782 6.07742 12.1657 6.31102 12.2869C6.06368 12.4218 5.90753 12.3856 5.66144 12.433C5.55776 12.453 5.4853 12.4855 5.37287 12.5055C5.22547 12.5342 5.08056 12.5342 4.9394 12.5055C4.91567 12.5055 4.89069 12.5055 4.86695 12.5055C4.59837 12.6167 4.05123 12.4018 4.60712 12.413L4.90318 12.3593L4.91942 12.2756C4.93441 12.2556 5.36663 12.1057 5.37287 12.2132L5.37163 12.2144Z" fill="#97E7D2"/>
<path id="Vector_34" d="M2.80704 18.2598C3.32796 18.3097 4.09246 18.4122 4.59214 18.4034C4.67584 18.4022 4.82949 18.3222 4.91693 18.3147C5.30668 18.281 5.75389 18.296 6.14614 18.2598C6.37724 18.2385 6.61584 18.1523 6.85069 18.1511C6.86818 18.261 6.82446 18.2098 6.76325 18.2248C6.56587 18.2735 6.33352 18.2947 6.12866 18.2972L6.23733 18.3697C5.20425 18.4696 4.22988 18.4221 3.18555 18.3335C3.07437 18.3235 2.90822 18.301 2.80579 18.261L2.80704 18.2598Z" fill="#70B1B4"/>
<path id="Vector_35" d="M9.16273 15.6387C9.20645 15.8698 9.25767 16.1009 9.30763 16.3308C9.3651 16.5918 8.91164 16.6868 8.84169 16.4907C8.77923 16.3133 8.92788 16.3832 8.94662 16.367C8.96536 16.3507 8.79796 15.9722 9.01907 16.0384C8.74425 15.8486 8.93538 15.7349 9.16273 15.6387Z" fill="#6299A4"/>
<path id="Vector_36" d="M9.34404 16.5132C9.38527 16.7031 9.47396 16.8542 9.4902 17.0766C9.50269 17.2527 9.46272 17.4301 9.4852 17.6025C9.45148 17.6162 9.4115 17.6225 9.38027 17.6424C9.28783 17.5787 9.14792 17.2065 9.14168 17.114C9.13543 17.0216 9.2616 16.9991 9.30782 16.9329C9.21413 16.9217 9.18165 16.9017 9.20164 16.793C9.20539 16.7718 9.34155 16.7555 9.27159 16.6968C9.22787 16.6593 9.11169 16.8442 9.05548 16.733C9.028 16.6981 9.04924 16.6943 9.09171 16.6968C9.1779 16.6406 9.25285 16.5631 9.34404 16.5144V16.5132Z" fill="#59929F"/>
<path id="Vector_37" d="M6.63457 2.63654C6.35725 2.71399 6.2036 2.80893 6.16487 2.41793C6.22733 2.40794 6.28479 2.39294 6.346 2.3817C6.31352 2.59032 6.70203 2.55784 6.60209 2.35547C6.71327 2.34673 6.80945 2.31925 6.88815 2.27178C6.8919 2.28052 6.94812 2.28551 6.96061 2.36296C6.99933 2.60406 6.81445 2.58532 6.63582 2.63654H6.63457Z" fill="#1398A0"/>
<path id="Vector_38" d="M0.134914 17.8596C0.417233 17.9683 0.256086 18.3605 0.134914 18.5516C0.119924 18.4742 0.079951 18.3992 0.0624623 18.2968L0.0849469 17.8821L0.134914 17.8596Z" fill="#CAEFE5"/>
<path id="Vector_39" d="M6.88785 2.27224C6.89659 2.4059 6.75294 2.32595 6.67174 2.34469C6.6555 2.39091 6.72295 2.51084 6.70796 2.52583C6.66674 2.56955 6.14708 2.68697 6.34695 2.38092C6.38193 2.37467 6.45188 2.33095 6.51809 2.31721C6.63926 2.29098 6.79291 2.36218 6.85287 2.23476C6.85787 2.24475 6.8816 2.256 6.8891 2.27099L6.88785 2.27224Z" fill="#8AD9D9"/>
<path id="Vector_40" d="M1.76019 16.8039C1.80766 16.8527 1.79017 16.8502 1.72396 16.8402L1.63652 16.8876C1.283 16.8252 0.925723 16.7802 0.564705 16.7527C0.543469 16.7053 0.51099 16.6703 0.459773 16.6578C0.341099 16.6303 0.259903 16.5229 0.207436 16.6578C0.218679 16.5891 0.232418 16.5591 0.24366 16.5116C0.734595 16.739 1.26176 16.6253 1.76019 16.8027V16.8039Z" fill="#80B0B7"/>
<path id="Vector_41" d="M0.17104 8.86347C0.167293 8.99589 0.173539 9.1308 0.17104 9.26446L0.224755 9.19076C0.257234 9.19076 0.238495 9.25447 0.278469 9.26446C0.300955 9.26946 0.32719 9.23823 0.350925 9.22824C0.489586 9.47558 0.364665 9.50681 0.134812 9.55553C0.156049 9.33442 0.0885933 9.07209 0.17104 8.86347Z" fill="#E0F6F2"/>
<path id="Vector_42" d="M1.073 21.6108C0.866883 21.6283 0.542092 21.3834 0.350965 21.4284C0.347217 21.4059 0.357211 21.3747 0.350965 21.3559C0.530849 21.3747 0.853141 21.4334 1.01304 21.5096C1.08674 21.5446 1.06176 21.5983 1.073 21.612V21.6108Z" fill="#DEF5F0"/>
<path id="Vector_43" d="M0.206137 17.6776C0.1087 17.705 0.146177 17.795 0.133685 17.8599C0.102455 18.0173 0.112447 18.1635 0.0612296 18.2972C0.0212553 18.0623 -0.0137228 17.7887 0.169909 17.6051C0.172408 17.6176 0.197393 17.6663 0.206137 17.6776Z" fill="#9FD8D1"/>
<path id="Vector_44" d="M6.34576 12.2502C6.33326 12.2577 6.32327 12.2789 6.30953 12.2864C6.05095 12.2015 5.74864 12.2002 5.47881 12.214C5.46632 12.0853 5.5088 12.1727 5.57126 12.1752C5.82984 12.1852 6.09842 12.1552 6.34576 12.2514V12.2502Z" fill="#CFF3E8"/>
<path id="Vector_45" d="M8.44089 27.038L8.80191 26.7107C8.64451 26.9093 8.66824 26.8981 8.44089 27.038Z" fill="#AEE3DA"/>
<path id="Vector_46" d="M1.97598 5.04017C2.05218 5.13136 1.87604 5.39369 1.83107 5.22255C1.87854 5.16134 1.92851 5.10138 1.97598 5.04017Z" fill="#98DCD7"/>
<path id="Vector_47" d="M2.01229 5.00433C2.04477 4.96311 2.07849 4.91189 2.12097 4.85818C2.19592 4.94437 2.09723 5.07554 2.01229 5.00433Z" fill="#98DCD7"/>
<path id="Vector_48" d="M9.23533 23.1045C9.28905 23.0858 9.55763 22.9921 9.57637 22.9971C9.65756 23.0171 9.6663 23.2619 9.56137 23.2869C9.62133 23.0183 9.43271 23.0796 9.34152 23.232C9.33277 23.2457 9.28155 23.4793 9.28155 23.493C9.28155 23.7404 9.48642 23.7454 9.1279 23.9053C7.91119 24.4512 6.4159 24.4599 5.10299 24.5261C5.01805 24.5299 4.89187 24.5349 4.81193 24.5249C4.76196 24.5186 4.70824 24.5061 4.75821 24.4524C4.80443 24.4037 5.11798 24.4287 5.18294 24.37C5.2379 24.3213 5.20792 24.1763 5.2454 24.1226C5.27788 24.0752 5.3978 24.0989 5.43028 23.979C5.45526 23.8878 5.35033 23.8191 5.37281 23.7229C5.53146 23.7491 5.67762 23.7004 5.82627 23.6842C6.05737 23.6604 6.51708 23.6867 6.71945 23.6042C7.18665 23.4143 7.04924 23.5455 7.44399 23.5368C7.88995 23.5268 8.80311 23.2519 9.23783 23.102L9.23533 23.1045Z" fill="#FBFDFE"/>
<path id="Vector_49" d="M7.86244 20.7355C8.32339 20.6443 8.7831 20.6118 9.23406 20.4444C9.25154 20.4644 9.20408 20.793 9.20408 20.8642C9.20408 20.9154 9.25654 20.9479 9.26029 21.0003C9.27528 21.2564 9.11788 21.3913 8.87304 21.3913L8.98172 21.4638C8.99171 21.4738 8.96173 21.51 8.94549 21.5188C8.79434 21.5999 8.27467 21.6974 8.07855 21.7374C7.42772 21.8698 6.72067 21.9522 6.0561 21.9735L5.62263 22.0097C5.52644 22.0097 5.43025 22.0097 5.33406 22.0097C4.59703 22.0109 3.86376 21.966 3.13173 21.936C3.12174 21.9285 3.15047 21.8898 3.16671 21.881C3.2479 21.8398 3.77381 21.8585 3.90873 21.8623C3.99367 21.8648 4.07362 21.8998 4.15857 21.9023C4.55331 21.9085 5.72381 21.961 6.00238 21.7199C6.14729 21.5937 6.10981 21.3014 6.38089 21.4276C6.27221 21.1577 6.37339 21.2777 6.4346 21.1715C6.46084 21.1265 6.4421 21.0478 6.45709 21.0316C6.46834 21.0191 6.60699 21.0166 6.65696 20.9966C6.96676 20.8704 7.30405 20.9054 7.65382 20.8354C7.74251 20.818 7.8437 20.7393 7.86119 20.7355H7.86244Z" fill="#F9FDFD"/>
<path id="Vector_50" d="M6.41814 22.1583C6.5543 22.147 6.6967 22.172 6.83287 22.1583C7.57239 22.0821 8.30692 21.9172 9.05394 21.9034C9.07642 21.9834 8.99898 22.0471 8.99273 22.1083C8.97649 22.2607 9.10766 22.4731 8.90779 22.6117C8.61797 22.8116 7.93966 22.9678 7.58738 23.029C7.30506 23.0777 6.91656 23.1339 6.63424 23.1426C6.27198 23.1526 5.91346 23.0777 5.55119 23.1064C5.55619 23.0764 5.5437 23.0077 5.55119 22.9977C5.56368 22.9815 5.90721 22.9403 5.94594 22.8841C5.96718 22.8541 5.90971 22.7554 5.91846 22.6942C5.9322 22.598 6.08835 22.5018 6.05712 22.3769C6.04587 22.3656 5.73732 22.4768 5.82227 22.3032C5.90721 22.1295 6.17704 22.2095 6.33194 22.1957C6.37816 22.192 6.41314 22.1583 6.41938 22.1583H6.41814Z" fill="#FAFDFD"/>
<path id="Vector_51" d="M4.21462 26.1996C4.23835 26.1996 4.26334 26.1996 4.28707 26.1996L4.37951 26.2683C4.58188 26.262 4.77051 26.3295 4.9429 26.4732L5.85356 26.6118C6.31327 26.6493 6.68178 26.803 6.96035 27.0728C6.91788 27.2227 6.69177 27.159 6.59933 27.0615C6.30202 26.9853 5.99597 26.9441 5.68242 26.9391L5.59123 27.0253C5.21897 27.0378 4.86045 26.9179 4.51193 26.7992C4.42698 26.7617 3.90232 26.7917 3.88233 26.8179C3.94229 26.9916 4.12218 27.074 4.42198 27.0653C4.53566 27.0903 4.71679 27.1427 4.66058 27.2901C4.6281 27.3751 3.95853 27.3376 3.8486 27.3014C3.82362 27.2926 3.81862 27.2527 3.81862 27.2189C3.7799 27.1427 3.57378 27.0728 3.46385 27.0415C3.34143 27.0078 3.03662 26.9529 3.06036 27.0003C3.02413 26.9841 2.95917 26.9753 2.91545 26.9641C2.89047 26.8729 2.8305 26.8117 2.73432 26.7817C2.73432 26.8504 2.68435 26.8442 2.66186 26.7817C2.60315 26.7405 2.55568 26.7417 2.51821 26.7817L2.48073 26.7442C2.47448 26.7767 2.46199 26.7755 2.44451 26.7442C2.33707 26.7168 2.28461 26.6481 2.23214 26.5569C1.94108 26.6068 1.80491 26.4557 2.08349 26.2708C2.31334 26.3133 2.44575 26.302 2.67685 26.2683C3.18903 26.1908 3.68371 26.1809 4.21462 26.1983V26.1996Z" fill="#88DCCE"/>
<path id="Vector_52" d="M9.19908 24.0873C9.1541 24.1185 9.18783 24.2609 9.19908 24.2697C9.24654 24.3047 9.36022 24.1548 9.41519 24.2147C9.36897 24.2884 9.22906 24.3234 9.20532 24.4033C9.1566 24.5695 9.15161 24.9605 9.12163 25.1566C9.10289 25.279 9.07915 25.4364 9.01794 25.5439L8.9255 25.4677L8.71689 25.9861C8.69565 26.0211 8.66067 26.0273 8.6207 26.0173L8.62444 26.091C8.41458 26.3359 8.17599 26.5545 7.90991 26.7481C8.09104 26.8018 8.13476 26.8743 8.04232 26.9642C7.98861 27.0004 7.9124 27.0841 7.86119 27.1104C7.74251 27.1816 7.67131 27.1216 7.64507 26.928C8.00109 26.3284 8.2297 25.7088 8.24094 24.998C8.26218 24.953 8.48328 24.8356 8.54699 24.7956C8.61445 24.7544 8.74812 24.7531 8.67441 24.6707L8.29466 24.8156C8.22095 24.3271 8.56948 24.3771 8.87179 24.2509C8.98047 24.206 9.07541 24.1335 9.19658 24.0873H9.19908Z" fill="#CFEDE7"/>
<path id="Vector_53" d="M3.81748 27.2195C4.0261 27.3219 4.23471 27.2857 4.44958 27.2632C4.46207 27.2632 4.71566 27.2969 4.57575 27.2008C4.42209 27.0946 4.08981 27.1246 3.91367 27.0296C3.83497 26.9871 3.85995 26.9034 3.81748 26.8722C3.75752 26.8297 3.43398 26.8173 3.3228 26.7873C3.26034 26.771 3.22286 26.8135 3.2391 26.7098C3.42773 26.6786 3.61761 26.7448 3.79624 26.7473C4.00361 26.7498 4.26844 26.6811 4.44708 26.7111C4.65445 26.746 4.93177 26.8897 5.21159 26.9234C5.2653 26.9297 5.54887 26.9647 5.56636 26.9597C5.61258 26.9472 5.60883 26.856 5.64381 26.8535C5.67004 26.851 5.73375 26.891 5.78497 26.891C6.03606 26.8947 6.33087 26.8885 6.57071 26.9721C6.77308 27.0421 6.61568 27.1108 6.95796 27.0733C6.9817 27.0234 7.05415 27.0109 7.17408 27.0371C7.27276 27.0209 7.39893 27.0221 7.49887 27.0009C7.58007 26.9722 7.67125 26.9896 7.64502 27.0883C7.62628 27.1595 7.27526 27.2095 7.2103 27.1833C6.51825 27.4081 5.72376 27.4556 4.99048 27.4568C4.52328 27.4568 3.62261 27.4568 3.21662 27.3082C3.21287 27.3069 3.29407 27.3307 3.23785 27.3656C3.18164 27.3582 3.13292 27.3731 3.0942 27.3107L3.23785 27.257L3.1654 27.1121C3.22661 27.0371 3.73503 27.127 3.7925 27.1708C3.80499 27.1808 3.81124 27.1995 3.81623 27.2207L3.81748 27.2195Z" fill="#78D4C9"/>
<path id="Vector_54" d="M8.69302 20.3004C7.82108 20.5241 7.03159 20.6727 6.12842 20.7377C5.36516 20.7926 4.44825 20.8214 3.68874 20.7389C3.63502 20.7327 3.57756 20.7302 3.56382 20.6652C4.0535 20.6427 4.53819 20.7089 5.02788 20.7027C5.43637 20.6977 5.98851 20.6715 6.39575 20.6252C6.42323 20.6215 6.59062 20.5878 6.52441 20.5203C6.45821 20.4529 6.00975 20.3841 5.91106 20.3192C5.91231 20.2155 6.14466 20.2742 6.22086 20.2667C6.26708 20.2617 6.30206 20.2292 6.30831 20.2292C6.61186 20.1443 6.98287 20.0569 7.28393 20.1568C7.37387 20.1406 7.46881 20.1418 7.53627 20.0656C7.54626 20.0419 7.02909 19.9607 7.34514 19.7633C7.5675 19.7583 8.52438 19.7858 8.64181 19.9369C8.65305 19.9519 8.65555 20.2442 8.69302 20.3029V20.3004Z" fill="#F9FDFD"/>
<path id="Vector_55" d="M7.17669 27.0369C7.10048 27.0494 7.04927 27.0631 6.96058 27.0731C6.87563 27.0919 6.88937 27.0044 6.82691 26.9719C6.41343 26.7583 5.49777 26.6109 5.02807 26.5622C4.74825 26.5335 4.73325 26.3836 4.62333 26.3511C4.5134 26.3186 4.24982 26.4023 4.2873 26.1987C4.7395 26.2162 5.89126 26.3074 6.28226 26.4635C6.41343 26.516 6.75446 26.8608 6.89062 26.9432C6.96932 26.9907 7.08799 27.0094 7.17669 27.0369Z" fill="#B0EADE"/>
<path id="Vector_56" d="M5.55148 20.446C5.53774 20.5122 5.48027 20.5134 5.42656 20.5197C5.2017 20.5446 4.79196 20.4909 4.56086 20.4472C4.51464 20.4385 4.56336 20.3423 4.52089 20.3335C4.36974 20.3035 4.12614 20.3598 3.9625 20.336L4.06993 20.4085C3.8051 20.421 3.48655 20.3585 3.25045 20.2336C3.15177 20.1811 2.99812 20.1012 3.02185 19.9725C3.42534 20.0649 3.85257 19.9588 4.25856 20.0187C4.66455 20.0787 5.1205 20.4422 5.55023 20.4472L5.55148 20.446Z" fill="#73D1C2"/>
<path id="Vector_57" d="M2.04849 23.4676C1.66748 23.4639 1.97978 24.061 1.80864 24.1185C1.66998 24.1659 1.13157 23.9811 0.965431 23.9411C1.0916 23.9448 1.06787 23.9648 1.07161 23.8499C1.08036 23.6025 1.05537 23.3365 0.892979 23.1403L2.04849 23.4676Z" fill="#C0EDE3"/>
<path id="Vector_58" d="M2.77078 20.0083C2.61713 20.0521 2.40976 20.1607 2.24986 20.152C1.97629 20.1382 1.00566 19.8922 0.787052 19.7335C0.742081 19.701 0.547207 19.5249 0.60467 19.4624C0.629654 19.435 0.896983 19.5774 0.956945 19.5973C1.20179 19.6798 1.7252 19.8297 1.96879 19.8534C2.1137 19.8684 2.20739 19.8147 2.34605 19.8334C2.38977 19.8397 2.807 19.9584 2.77078 20.0071V20.0083Z" fill="#BAEEE3"/>
<path id="Vector_59" d="M5.15393 23.1769C4.90409 23.1731 4.66174 23.0869 4.41315 23.0682C3.76482 23.0207 2.97158 23.2181 2.44567 22.7409C2.86165 22.7446 3.28513 22.8783 3.69237 22.922C4.09961 22.9657 4.38442 22.9145 4.83663 23.0419C4.93407 23.0694 5.09646 23.0907 5.15393 23.1769Z" fill="#85D5C5"/>
<path id="Vector_60" d="M7.28544 20.1543C6.9594 20.2118 6.63086 20.1993 6.30981 20.2268V20.1906C6.31356 20.1593 6.32605 20.1269 6.35354 20.1181C6.43099 20.0919 6.67458 19.9332 6.6471 19.8745C6.62586 19.8295 6.24735 19.8233 6.17115 19.8258L6.0937 19.7546C6.10869 19.6984 6.04373 19.6159 6.14617 19.6084C6.28358 19.5984 6.58713 19.5885 6.70831 19.6259C6.73454 19.6334 7.15052 19.8908 7.17801 19.917C7.24671 19.982 7.28919 20.0569 7.28419 20.1556L7.28544 20.1543Z" fill="#B9ECDF"/>
<path id="Vector_61" d="M6.09362 19.7528C6.33971 19.7453 6.54457 19.7516 6.77942 19.8265L6.52584 20.1338C6.45963 20.1875 6.39092 20.1913 6.31097 20.19C6.18481 20.1875 5.73135 20.0289 5.70012 19.9102C5.6489 19.7104 5.98618 19.7566 6.09362 19.7528Z" fill="#83D8C9"/>
<path id="Vector_62" d="M3.34884 18.9156C3.65739 18.9506 3.92097 19.1317 4.14333 19.3341C3.91597 19.3104 3.64365 19.2891 3.42129 19.2429C3.31261 19.2204 2.90412 19.148 2.87914 19.0418C2.84791 18.9031 3.27389 18.9069 3.34884 18.9144V18.9156Z" fill="#93DFCF"/>
<path id="Vector_63" d="M7.64642 26.9284C7.69888 26.9184 7.77009 26.9347 7.82755 26.9284C7.84004 26.9372 7.62768 27.1483 7.86378 27.1096C7.63517 27.2257 7.47652 27.212 7.25042 27.2557C7.21919 27.2395 7.2067 27.2157 7.2142 27.1833C7.34036 27.1533 7.47778 27.0808 7.61144 27.0733L7.50276 27.0009C7.53899 26.9934 7.61144 26.9347 7.64767 26.9284H7.64642Z" fill="#B4E5DE"/>
<path id="Vector_64" d="M7.79114 23.3601C7.64374 23.3351 7.34768 23.5112 7.3939 23.2876C7.52756 23.2814 7.66747 23.3138 7.79114 23.2514V23.3601Z" fill="#FBFDFE"/>
<path id="Vector_65" d="M5.2267 4.12858C5.55399 4.19603 6.00745 4.1623 6.37347 4.12858L6.52712 4.20228C6.5571 4.20727 6.58583 4.21352 6.61331 4.22476C6.82818 4.31221 7.29662 5.13918 7.43903 5.39276C7.46776 5.44273 7.484 5.49145 7.46651 5.55016C7.49025 5.58514 7.51648 5.59638 7.56145 5.57265L7.71635 5.90119C7.60642 5.73379 7.51523 5.31781 7.81504 5.55141L8.29723 6.42335C8.66449 7.31778 8.9643 8.26217 9.09172 9.2278C9.10296 9.31024 9.10671 9.51761 9.05924 9.57757C8.9643 9.69874 8.41591 9.75871 8.261 9.6825C8.17856 9.64253 8.1823 9.49763 8.09111 9.4539C7.88375 9.35522 7.11299 9.27902 6.87065 9.3015C6.58833 9.32649 6.04868 9.55259 5.79384 9.47514C5.71264 9.45015 5.62894 9.28276 5.56398 9.27027C5.50402 9.25903 5.26168 9.43891 5.13551 9.26527L5.40783 9.24903C5.80883 8.96422 5.38785 8.93174 5.11677 8.93798C5.09679 8.95672 5.25169 9.13286 5.09929 9.1466C5.0743 9.1491 4.78324 9.04541 4.66706 9.04666C4.27731 9.04916 3.85384 9.34023 3.47408 9.34023C3.40163 9.34023 3.41662 9.33648 3.41911 9.26652C3.54778 9.25278 3.7439 9.24654 3.81636 9.12037C3.61774 9.12286 3.41786 9.11662 3.21924 9.11787C2.87197 9.12037 2.67959 9.06415 2.38853 9.04791C2.32732 9.04417 2.26611 9.08914 2.20989 9.08414C2.1237 9.07664 1.90009 8.89676 2.07123 8.8343C2.47847 8.77184 2.87821 8.66691 3.2917 8.64442C4.03622 8.6032 4.80322 8.65816 5.55024 8.60944L5.40034 6.77437C5.37161 6.68818 5.15924 6.67444 5.08055 6.67819C5.11178 6.55577 5.30165 6.64571 5.35412 6.572C5.38285 6.53203 5.37411 6.39087 5.37161 6.33091C5.35287 5.96365 5.30415 5.50019 5.26168 5.13043C5.22296 4.79939 5.18673 4.44587 5.00934 4.1648C5.01434 4.05237 5.18548 4.02489 5.22545 4.12858H5.2267Z" fill="#F0FAFA"/>
<path id="Vector_66" d="M0.748141 9.91993C0.916783 9.98239 1.19036 9.96615 1.24282 10.1673C1.25656 10.2172 1.22034 10.2847 1.24907 10.3322C1.29529 10.4084 1.52764 10.4109 1.5926 10.3609C1.62883 10.3334 1.60509 10.2635 1.61633 10.2535C1.64132 10.2297 2.23968 10.3059 2.30964 10.3309C2.41207 10.3659 2.43456 10.4996 2.46953 10.5071C2.5957 10.5333 2.70064 10.4084 2.79058 10.3946C2.85554 10.3834 2.8343 10.4608 2.86678 10.4683C3.02917 10.5083 3.10912 10.4121 3.22405 10.3984C3.31899 10.3871 3.56758 10.3796 3.65502 10.3971C3.71998 10.4096 3.92485 10.6395 3.96233 10.7244C3.3852 10.7157 2.84679 10.6357 2.28465 10.6132C2.2147 10.6107 1.86992 10.592 1.86867 10.6695C1.86867 10.7369 2.58696 10.7869 2.6844 10.8668C3.60131 10.943 4.50323 11.0754 5.42389 10.978L7.10531 10.943C6.18965 11.038 5.29272 11.1329 4.35832 11.1416L4.03478 11.3428C4.33958 11.394 4.34958 11.424 4.42203 11.7013C4.43827 11.765 4.39955 11.8387 4.50448 11.8162C4.44577 11.9249 4.51197 11.9624 4.7031 11.9311L4.75681 11.9986C4.70185 12.0823 4.52197 12.0048 4.472 12.0398C4.43952 12.0623 4.45451 12.2072 4.40954 12.2197C4.32084 12.2447 4.06476 12.211 3.95358 12.206C3.9186 12.2047 3.83366 12.1572 3.81742 12.2359C3.79119 12.3684 3.98356 12.2947 3.99231 12.2997C4.18593 12.4021 4.25464 12.3621 4.50323 12.3634C4.58942 12.3009 4.8505 12.2334 4.90047 12.3634C4.73433 12.4221 4.61691 12.462 4.43078 12.4358C4.37206 12.4808 4.43077 12.502 4.48449 12.5083C4.59692 12.5233 4.74432 12.5058 4.86425 12.5083C4.80678 12.5682 4.66812 12.552 4.59192 12.5457C4.34833 12.5295 4.2359 12.5345 4.06476 12.4071C4.05227 12.3971 3.84115 12.4233 3.74621 12.3796C3.66627 12.3421 3.47639 12.2434 3.38644 12.196C3.32773 12.1647 3.28026 12.0561 3.22155 12.071C3.18907 12.0798 3.18907 12.161 3.13911 12.1797C2.94173 12.2534 2.54823 12.146 2.34087 12.0835C2.26716 12.0611 2.23469 12.0011 2.22719 11.9986C2.39958 11.9699 2.53574 12.0898 2.70813 12.0561C2.74436 12.0486 2.8368 12.0436 2.80432 11.9811C2.77933 11.9324 2.32338 11.8337 2.22719 11.7987L1.21409 11.364C1.1329 11.2803 1.0467 10.7819 1.09042 10.6894C1.1229 10.6207 1.21659 10.5995 1.18161 10.4571C1.16912 10.4046 0.840583 10.3372 0.765632 10.2497C0.65945 10.1248 0.748142 10.0436 0.745644 9.92368L0.748141 9.91993Z" fill="#CFF3E8"/>
<path id="Vector_67" d="M5.94877 3.91048C5.93878 3.99167 5.86757 4.05163 5.73266 4.09286C5.72391 4.1116 5.71517 4.13033 5.70018 4.14282C5.68144 4.15906 5.25297 4.19779 5.22673 4.12909C5.14804 4.13908 5.08932 4.14782 5.01062 4.16531C4.83823 4.20528 4.7433 4.25525 4.58715 4.30272C4.45348 4.34395 4.25736 4.32646 4.1187 4.43139C3.97629 4.69872 3.8701 5.02476 3.7177 5.28334C3.65649 5.38703 3.46037 5.58565 3.43039 5.64811C3.38417 5.74805 3.4079 5.89295 3.36668 5.98539C3.34169 6.04285 3.11934 6.24273 3.06063 6.31393L2.98442 6.29769C2.62091 5.86297 2.34234 7.20461 2.89324 6.45134L2.98817 6.46009C2.98817 6.46009 3.04314 6.45259 3.07811 6.42511C3.14182 6.37639 3.19429 6.2927 3.258 6.24148C3.29547 6.26396 3.27799 6.36015 3.26674 6.39638C3.20428 6.595 2.84327 6.91979 2.78955 7.08094C2.74458 7.2146 2.82828 7.41323 2.60842 7.37325C2.53721 7.36076 2.43977 7.14465 2.40979 7.28081C2.37481 7.44195 2.67462 7.42322 2.66213 7.58936C2.64339 7.6056 2.46601 7.56937 2.43228 7.54814C2.36233 7.50442 2.38981 7.43071 2.34733 7.40698C2.28612 7.372 2.0925 7.38075 2.08375 7.372C2.07126 7.35951 2.09999 7.11217 2.08375 7.02722C2.07626 6.99099 2.10499 6.94977 2.03129 6.97226C1.94384 6.99849 1.81018 7.15589 1.72149 7.20586C1.50912 7.32453 1.49538 7.27206 1.3105 7.5194C1.28677 7.55063 1.17434 7.8417 1.10938 7.77175C1.06816 7.72677 1.49538 6.7574 1.55284 6.63497C1.67027 6.38763 1.83391 6.15653 1.95758 5.91419C2.0088 5.81425 1.95758 5.83799 1.90387 5.87796C1.83391 5.78302 2.06252 5.45698 2.14496 5.39577C2.19743 5.35704 2.2424 5.34705 2.30611 5.35455C2.77831 5.10846 3.18804 4.8049 3.53532 4.44263C3.59403 4.2515 3.69897 4.13783 3.84762 4.10035L4.40351 4.06412C4.52718 4.08786 4.63336 4.07287 4.72081 4.02041C4.8907 4.02665 5.05809 3.99667 5.22673 3.98418C5.21424 3.88424 5.27545 3.868 5.33541 3.94795C5.49906 3.89049 5.78887 3.84552 5.94877 3.91172V3.91048Z" fill="#C9EFE8"/>
<path id="Vector_68" d="M4.72073 4.01931C4.72073 4.11175 4.68075 4.13049 4.59581 4.12924C4.35096 4.12799 4.14485 4.16922 3.87127 4.17047C3.63767 4.17171 3.69264 4.32037 3.61643 4.45279C3.57646 4.52149 3.23668 4.86627 3.16298 4.90624C2.82944 5.08988 2.64706 5.21604 2.33351 5.41841C2.30353 5.4384 2.25106 5.40842 2.20859 5.4359C2.1199 5.49462 1.96874 5.77818 1.90254 5.87562C1.75763 6.09048 1.5715 6.34407 1.45532 6.57267C1.27419 6.93119 1.17176 7.35967 1.00561 7.71819C0.974383 7.78439 0.955647 7.78439 0.890689 7.80563C0.915673 7.73443 0.996868 7.57578 0.996868 7.53206C0.996868 7.43587 0.851964 7.34967 0.890689 7.22225C0.949401 7.21976 0.956895 7.32594 0.963141 7.33094C0.971885 7.33718 1.10305 7.26348 1.1043 7.24099C1.1043 7.22476 1.04684 7.17104 1.04184 7.12357C1.00062 6.73882 1.53902 5.91435 1.76388 5.57206C1.8763 5.40217 2.33601 4.72261 2.45843 4.63392C2.51839 4.59019 2.70827 4.57146 2.8132 4.51774C3.05555 4.39407 3.26916 4.29663 3.54898 4.2017C3.58396 4.19045 3.63267 4.2017 3.6714 4.1992C3.71137 4.05804 3.57646 4.02556 3.56272 3.90813L4.71823 4.01682L4.72073 4.01931Z" fill="#98DCD7"/>
<path id="Vector_69" d="M3.0592 6.31398C3.02422 6.35645 2.99799 6.40517 2.98675 6.46014C2.82935 6.59755 2.71942 6.87112 2.53329 6.71622C2.4321 6.63252 2.64571 6.16408 2.72191 6.13784C2.84184 6.09662 3.04796 6.16408 3.0592 6.31398Z" fill="#AAE5D8"/>
<path id="Vector_70" d="M0.63961 8.75545C0.615876 8.65801 0.629617 8.47687 0.647105 8.38193C0.658348 8.32197 0.700819 8.25077 0.74704 8.20955C0.707065 8.36695 0.682082 8.57681 0.63836 8.75545H0.63961Z" fill="#98DCD7"/>
<path id="Vector_71" d="M2.0848 26.2733C2.20597 26.4594 1.95738 26.3033 2.01235 26.4919C2.07481 26.5056 2.26593 26.4707 2.29592 26.4982C2.30716 26.5081 2.37211 26.7093 2.44582 26.748C2.40709 26.798 2.41958 26.798 2.48204 26.748C2.49953 26.748 2.59822 26.6618 2.66318 26.7842C2.66443 26.8067 2.66443 26.8242 2.65818 26.8279C2.52827 26.8866 2.62945 26.8055 2.73563 26.7842C2.74063 26.7842 2.76186 26.7442 2.81558 26.753C2.943 26.773 2.97173 26.8554 2.91677 26.9666C2.71065 26.9154 2.42333 26.9429 2.29467 26.8692C2.06731 26.738 2.13227 27.074 2.23095 27.1852C1.90117 27.189 1.53265 26.9741 1.26408 26.7642C1.12167 26.6768 1.04672 26.5744 1.03922 26.4569C0.903061 26.2583 0.781887 26.0509 0.678204 25.8373C0.60575 25.8473 0.590759 25.8173 0.641976 25.7649C0.494571 25.4476 0.354662 25.0179 0.334674 24.6718C0.572022 25.0341 0.845597 25.6212 1.18288 25.8923C1.38025 26.0509 1.8437 26.2283 2.08605 26.2733H2.0848Z" fill="#77D1C7"/>
<path id="Vector_72" d="M0.639499 25.7624C0.651991 25.7886 0.661986 25.8098 0.675727 25.8348C0.778161 26.0484 0.899332 26.2545 1.03674 26.4544C1.51269 26.9204 1.59638 26.9728 2.22848 27.1827C2.28844 27.2027 2.38712 27.2252 2.40961 27.2914C1.84872 27.2289 1.18415 26.9091 0.848113 26.4444C0.691964 26.2283 0.602024 25.9935 0.495842 25.7624C0.542063 25.6499 0.5633 25.7111 0.64075 25.7624H0.639499Z" fill="#CBF0E8"/>
<path id="Vector_73" d="M1.72384 13.6345C1.865 13.6695 2.01615 13.7169 2.15731 13.7432L2.13483 13.7719C3.87621 14.0867 5.71627 14.1604 7.43017 13.8531C7.67876 13.6969 7.64129 14.344 7.62505 14.5102C7.59132 14.8649 7.52261 15.0298 7.24779 15.2534C7.31025 15.2847 7.33523 15.3271 7.32149 15.3821C7.30525 15.4708 7.23905 15.547 7.12287 15.612L6.65192 16.0642C6.56698 16.1366 6.45455 16.1529 6.34712 16.1479C6.33713 16.1716 6.32588 16.1903 6.31214 16.1928C5.79373 16.2678 5.18536 16.1479 4.70567 15.9455C4.25846 15.7406 3.8025 15.5595 3.33905 15.4021L3.27659 15.3109C3.12169 15.2734 2.92432 15.216 2.77067 15.2022C2.642 15.166 2.50209 15.1648 2.37342 15.2022C1.87624 15.2509 1.58143 15.6619 1.00055 15.7119L1.21667 14.2916L1.26164 14.2703C1.1692 14.2453 1.10674 14.2041 1.07176 14.1454C1.1642 14.043 1.04677 13.8918 1.07551 13.8056C1.07925 13.7931 1.2429 13.6245 1.25289 13.617C1.3928 13.5271 1.58018 13.7519 1.72134 13.6357L1.72384 13.6345Z" fill="#9CD8DA"/>
<path id="Vector_74" d="M6.34593 16.1487C6.44837 16.1237 6.49584 16.1362 6.49084 16.1849C6.59452 16.2037 6.70196 16.2162 6.81563 16.2212C7.10795 16.2324 7.39526 16.1562 7.67883 15.9888L7.75503 16.0388L7.86371 16.075C7.8737 16.085 7.8075 16.1574 7.79126 16.1837C7.86246 16.1912 7.92242 16.2024 7.97239 16.2199L8.00862 16.511C7.93616 16.5135 7.88994 16.466 7.86746 16.3661C7.51643 16.5697 7.15292 16.7221 6.77941 16.8245L6.7082 16.7658C6.34843 16.9482 5.82627 17.0906 5.44401 16.9844C5.42153 17.0556 5.38905 17.0569 5.37156 16.9844C5.078 16.9032 4.79568 16.7071 4.44091 16.6671C4.19607 16.6396 3.92999 16.6771 3.69514 16.6571C3.64517 16.6534 3.47528 16.6396 3.45779 16.5847H3.96371C3.9862 16.3773 3.79757 16.3223 3.99994 16.1475C4.01118 16.1237 4.01868 16.1062 4.01618 16.105C3.90875 16.0413 3.72637 15.9588 3.6027 15.9663C3.40532 15.9176 3.14799 15.9663 2.99933 15.8102C2.9681 15.7764 2.9681 15.709 2.93438 15.6765C2.88441 15.6278 2.64581 15.5778 2.74075 15.4254C2.81695 15.303 3.17297 15.4516 3.27791 15.3117C4.20106 15.5366 5.39779 16.3948 6.34718 16.15L6.34593 16.1487Z" fill="#509097"/>
<path id="Vector_75" d="M1.90364 16.8395C2.02731 16.7683 1.78872 16.762 1.86742 16.6946C1.87616 16.6871 1.93987 16.7096 1.9661 16.6871C1.98359 16.6721 2.07104 16.4185 2.08853 16.4073C2.14974 16.3673 2.91674 16.6733 3.04791 16.7233C3.22779 16.792 3.5301 16.9781 3.69874 17.0131C3.93234 17.0618 4.27337 17.0044 4.51946 17.0231C4.68311 17.0356 5.36267 17.163 5.4701 17.2492C5.48759 17.263 5.4751 17.3129 5.4776 17.3129H5.98352C5.97478 17.3679 5.91732 17.3829 5.87484 17.4041C4.94669 17.8538 4.51571 17.614 3.57757 17.5003C3.39643 17.4778 3.0629 17.3929 2.95047 17.3866C2.87302 17.3691 2.86053 17.3454 2.91424 17.3142C2.7406 17.213 2.54948 17.1468 2.34086 17.1143C2.14599 17.0606 1.99983 16.9694 1.90239 16.8407L1.90364 16.8395Z" fill="#53959C"/>
<path id="Vector_76" d="M6.70673 16.768C6.84039 16.7367 6.97281 16.728 7.10397 16.6768C7.23514 16.6255 7.8385 16.2308 7.93219 16.297C7.93219 16.3745 7.98966 16.4532 8.00715 16.5131C8.03713 16.6218 8.0821 16.6518 8.00715 16.768C7.73232 16.7842 7.55493 16.8604 7.32133 16.9866C6.7542 17.004 6.22579 17.3164 5.65865 17.2614L5.29888 17.0778L5.37134 16.9866C5.39008 16.9916 5.42006 16.9841 5.44379 16.9866C5.83354 17.0927 6.34571 16.9478 6.70798 16.768H6.70673Z" fill="#386170"/>
<path id="Vector_77" d="M1.72379 16.8405C1.89243 16.8793 2.05982 16.9555 2.22597 17.0716C2.47581 17.1241 2.70566 17.204 2.91552 17.314C2.92427 17.339 2.94176 17.3614 2.95175 17.3864C2.68317 17.3727 2.46831 17.3777 2.17475 17.3502C2.10105 17.3427 1.77625 17.3627 1.76126 17.3477C1.73753 17.324 1.7825 17.0816 1.6326 17.0566C1.37651 17.0129 1.03173 17.3065 0.731923 17.0566C0.716933 17.0442 0.555787 16.888 0.549541 16.8768C0.509567 16.8081 0.572027 16.6994 0.459599 16.6581C0.865588 16.7531 1.37526 16.7094 1.72379 16.8405Z" fill="#48828E"/>
<path id="Vector_78" d="M2.04847 17.6776C2.30455 17.7426 2.66682 17.7713 2.93415 17.7863C3.49004 17.8188 4.05718 17.7863 4.61307 17.8238C4.61932 17.8775 4.51813 17.8887 4.48315 17.8925C4.0984 17.9337 3.51753 17.8462 3.11528 17.8213C2.92166 17.8088 2.70805 17.8412 2.51817 17.8225C2.37201 17.8075 2.18213 17.7301 2.02848 17.7151L2.04847 17.6776Z" fill="#ABD0D4"/>
<path id="Vector_79" d="M3.60122 15.9651C3.65494 15.9051 3.7074 15.9451 3.76486 15.9626C4.30452 16.1375 4.81544 16.4698 5.40756 16.511C5.4138 16.5772 5.28639 16.5485 5.24891 16.5435C4.84792 16.4848 4.38072 16.2911 3.99846 16.1462C3.8623 16.095 3.75237 16.0013 3.60122 15.9638V15.9651Z" fill="#A8D4D6"/>
<path id="Vector_80" d="M1.90386 16.8393C2.02878 16.8968 2.12622 17.0055 2.28112 17.0592C2.50097 17.1354 2.83076 17.0842 2.91446 17.3128C2.65588 17.2541 2.39979 17.1829 2.1562 17.0754C2.01504 17.013 1.87513 16.8968 1.72272 16.8393L1.75895 16.8031C1.80767 16.8206 1.88262 16.8294 1.90386 16.8393Z" fill="#C9E9EA"/>
<path id="Vector_81" d="M2.77081 15.2008C2.66213 15.1908 2.48225 15.1896 2.37357 15.2008C2.45851 15.1396 2.67962 15.1383 2.77081 15.2008Z" fill="#509097"/>
<path id="Vector_82" d="M7.79127 13.7081C8.12855 13.6369 8.46334 13.5195 8.80187 13.4533C8.75065 13.7781 8.6757 14.1254 8.69319 14.4552C8.69819 14.5438 8.66696 14.5738 8.76564 14.5089C8.77689 14.6825 8.81936 14.8699 8.8381 15.0548C8.84809 15.1535 8.85309 15.2496 8.87432 15.3458C8.8306 15.387 8.221 15.2097 8.09733 15.2009C7.97366 15.1922 7.92369 15.2234 7.8275 15.2371C7.81875 15.2696 7.80626 15.2684 7.79127 15.2371C7.76379 15.2371 7.72006 15.2297 7.71882 15.2122C7.71007 15.0335 7.67384 13.8068 7.71882 13.7494L7.79127 13.7069V13.7081Z" fill="#AFDCDE"/>
<path id="Vector_83" d="M1.65133 12.9428C1.70879 12.949 1.79123 12.9702 1.86744 12.979C2.29466 13.1464 2.72814 13.2488 3.1666 13.2863C3.28653 13.3725 3.43018 13.4 3.60008 13.3662L4.28588 13.2713C4.51324 13.2713 4.82054 13.2363 5.01666 13.2438C5.07663 13.2463 5.51384 13.33 5.56131 13.35C5.64126 13.3825 5.59879 13.4774 5.64376 13.4912C5.71621 13.5124 5.87236 13.4874 5.95981 13.5299L6.30583 13.6348C5.98604 13.6673 5.63627 13.7672 5.31647 13.7772C4.61317 13.7985 3.59383 13.6548 2.87429 13.5624C2.74062 13.5449 2.59447 13.5112 2.4608 13.4874L1.18787 12.9865L1.10543 12.8703C1.28906 13.0227 1.47019 12.9253 1.64633 12.9428H1.65133Z" fill="#89DCCD"/>
<path id="Vector_84" d="M2.15722 13.7448C3.66251 14.0271 5.95853 14.0496 7.46631 13.781C7.54501 13.8385 7.52627 13.8634 7.43008 13.8534C7.07906 14.1308 5.21401 14.1283 4.70184 14.1095C3.92234 14.0808 2.89925 13.9971 2.14848 13.8072C2.08102 13.7897 2.0423 13.7248 2.15722 13.7435V13.7448Z" fill="#8CC5C4"/>
<path id="Vector_85" d="M7.7911 13.7078V15.238C7.71865 15.3567 7.45007 15.4342 7.3214 15.3842L7.14152 15.293C7.19898 15.1506 7.37637 15.0607 7.44632 14.9457C7.58249 14.7221 7.5675 14.2399 7.54001 13.9801C7.53127 13.8976 7.52752 13.8539 7.43008 13.8539C7.44258 13.8439 7.45257 13.799 7.46631 13.7815C7.57249 13.7627 7.68492 13.7315 7.7911 13.709V13.7078Z" fill="#85CBCC"/>
<path id="Vector_86" d="M4.2873 13.2709C3.95752 13.3646 3.65771 13.4832 3.31043 13.4358C3.16802 13.4158 3.15678 13.3446 3.14679 13.3446C2.56591 13.3333 2.60963 13.3296 2.1187 13.0735C2.04 13.0323 1.93256 13.0523 1.86886 12.9798C2.54717 13.061 3.02936 13.2734 3.72766 13.2696C3.91504 13.2696 4.10242 13.2721 4.28855 13.2709H4.2873Z" fill="#CBF1E6"/>
<path id="Vector_87" d="M7.86219 13.3066C7.53365 13.3641 7.22135 13.434 6.88781 13.3791C7.04147 13.1767 7.58237 13.0968 7.79973 13.2067C7.84845 13.2317 7.87468 13.2454 7.86219 13.3066Z" fill="#8BE4D1"/>
<path id="Vector_88" d="M5.91219 11.378C5.85723 11.453 5.78727 11.5054 5.70483 11.5367C6.18327 11.3805 6.5293 11.4092 7.00774 11.5779C7.10393 11.5954 7.16889 11.6041 7.21261 11.5604C7.50617 11.5904 7.79473 11.5104 8.07955 11.4517C8.17199 11.5067 8.22946 11.5504 8.11578 11.5979C7.5399 11.704 7.07769 11.6978 6.50931 11.744C6.31568 11.7603 6.09333 11.8402 5.89471 11.8527C5.6736 11.8664 5.47872 11.829 5.26261 11.8165C5.23888 11.7465 5.29509 11.7003 5.43 11.6766L5.37004 11.6341C5.45749 11.5254 5.25387 11.5192 5.22888 11.428C5.19266 11.2968 5.46873 11.2431 5.55492 11.2518C5.6736 11.2643 5.77978 11.3892 5.91095 11.378H5.91219Z" fill="#CFF3E8"/>
<path id="Vector_89" d="M7.21288 11.558C7.23287 11.6667 7.15792 11.6292 7.08796 11.6317C6.80689 11.6367 6.50958 11.4593 6.25725 11.4843C6.04738 11.5043 5.82627 11.6529 5.58767 11.5954C5.59142 11.443 5.77006 11.4068 5.91247 11.3768C6.50084 11.2532 6.72944 11.5093 7.21288 11.5592V11.558Z" fill="#8CE2D0"/>
<path id="Vector_90" d="M8.07969 11.4494C8.47193 11.3683 8.81546 11.2283 9.19897 11.1584C9.15025 11.2371 9.02783 11.362 8.94413 11.3932C8.6768 11.4932 8.39074 11.5444 8.11591 11.5956V11.5456C8.04721 11.5032 8.02097 11.5344 8.07969 11.4494Z" fill="#96E6D6"/>
<path id="Vector_91" d="M5.26281 11.8147C5.23532 11.826 5.21159 11.8422 5.19035 11.8509C5.10041 11.9209 5.02046 11.9784 4.90179 11.9596C4.85806 11.9734 4.8006 11.9908 4.75688 11.9958C4.62197 12.0108 4.36588 12.0346 4.35964 11.8509C4.41835 11.8747 4.47456 11.8197 4.50454 11.8147C4.83183 11.7597 5.06418 11.696 5.37149 11.6323C5.44894 11.6161 5.49766 11.5636 5.51639 11.686C5.51015 11.711 5.31027 11.7947 5.26405 11.8135L5.26281 11.8147Z" fill="#86E1CD"/>
<path id="Vector_92" d="M4.50459 12.361C4.47836 12.3498 4.38592 12.2923 4.43214 12.2523C4.45587 12.2323 4.9643 12.1836 5.05549 12.1699C5.10421 12.1624 5.46398 12.0137 5.37154 12.2148C5.15917 12.2348 5.07673 12.2985 4.90184 12.361C4.79691 12.3348 4.68323 12.391 4.59204 12.391C4.54956 12.391 4.51584 12.361 4.50459 12.361Z" fill="#FDFDFD"/>
<path id="Vector_93" d="M7.42898 11.8863C7.36152 12.005 7.18413 11.9963 7.06796 11.995C7.05921 11.9001 7.06296 11.9351 7.12167 11.9238C7.21661 11.9063 7.33029 11.8988 7.42898 11.8863Z" fill="#CFF3E8"/>
<path id="Vector_94" d="M5.19031 11.8509C5.06164 11.9733 5.09787 12.0258 4.90175 11.9595C4.96046 11.9421 5.1266 11.8771 5.19031 11.8509Z" fill="#CFF3E8"/>
<path id="Vector_95" d="M6.05739 21.976C5.94996 22.0435 5.76008 22.0122 5.62392 22.0122C5.7326 21.9423 5.91873 21.981 6.05739 21.976Z" fill="#DEF5F0"/>
<path id="Vector_96" d="M8.8743 25.981C8.8081 26.0785 8.72565 26.1822 8.6582 26.2721C8.66569 26.3046 8.66569 26.3421 8.6582 26.3808C8.4196 26.6706 8.36214 26.7505 8.04484 26.9629L8.00861 26.8542C7.50519 26.8043 8.23971 26.4145 8.37088 26.2908C8.42959 26.2359 8.54952 26.0185 8.62197 26.016C8.7269 25.9411 8.8106 25.9286 8.8743 25.9798V25.981Z" fill="#DEF5F0"/>
<path id="Vector_97" d="M7.2129 27.1831C7.30909 27.1768 7.29535 27.1818 7.24912 27.2555C5.80006 27.5353 4.70701 27.5653 3.24045 27.3642L3.18673 27.2917C4.52837 27.4604 5.88625 27.4929 7.2129 27.1831Z" fill="#D9F6F0"/>
<path id="Vector_98" d="M3.05919 27.0018C2.99548 26.9043 3.02421 26.9306 3.11291 26.9281C3.40147 26.9206 3.57886 26.9943 3.80621 27.1105C3.88116 27.1492 3.9761 27.1317 4.03356 27.2016C3.9811 27.2329 3.87991 27.2241 3.81745 27.2191C3.67505 27.2091 3.29029 27.1567 3.16787 27.1105C3.10291 27.0855 3.06918 27.0055 3.05919 27.0018Z" fill="#B6EAE2"/>
<path id="Vector_99" d="M8.72921 26.3089C8.70298 26.3427 8.67425 26.3614 8.65676 26.3814H8.54808C8.55183 26.3239 8.63552 26.3002 8.65676 26.2727L8.72921 26.3089Z" fill="#CFEDE7"/>
<path id="Vector_100" d="M8.15213 17.2036C8.30328 17.1661 8.59935 17.1661 8.76674 17.1486C8.54688 17.2198 8.37199 17.2235 8.15213 17.3122C7.7299 17.4834 7.32266 17.7282 6.88794 17.8944C6.76178 17.9431 6.63561 18.0093 6.49945 18.0305C6.46072 18.0368 6.37453 18.0692 6.38202 18.0043C6.67933 17.9431 6.96165 17.8094 7.23647 17.682C7.44759 17.5846 7.99224 17.241 8.15088 17.2023L8.15213 17.2036Z" fill="#C2E2E4"/>
<path id="Vector_101" d="M5.47892 12.5788C5.44145 12.6388 5.34151 12.6151 5.2803 12.6163C4.97924 12.62 4.67694 12.62 4.37588 12.6163C4.31467 12.6163 4.21474 12.64 4.17726 12.5788C4.60948 12.5788 5.0442 12.5788 5.47768 12.5788H5.47892Z" fill="#CFF3E8"/>
<path id="Vector_102" d="M3.99846 12.5786C3.87354 12.5786 3.69616 12.6086 3.60122 12.5424C3.72739 12.5461 3.90228 12.5086 3.99846 12.5786Z" fill="#CFF3E8"/>
<path id="Vector_103" d="M5.00931 0.414839C5.05928 0.451066 5.10799 0.487292 5.15421 0.523519C5.11049 0.573487 5.08801 0.617209 5.08051 0.685915C5.04179 1.04319 5.11299 1.46916 5.08176 1.83518C5.04553 1.83643 5.00931 1.83518 4.97308 1.83518C4.90812 1.48665 4.92936 1.0994 4.9506 0.745876L4.90188 0.72464L4.9506 0.735882C4.93561 1.08191 4.93186 1.42794 4.93935 1.77522L4.90313 1.79895L4.82817 1.77522C4.86065 1.67903 4.82568 1.7115 4.72324 1.8714C4.63955 1.8714 4.5546 1.8714 4.4709 1.8714C4.43343 1.82893 4.39845 1.82893 4.36222 1.8714C4.33849 1.8714 4.31351 1.8714 4.28977 1.8714C4.2523 1.7952 4.24105 1.7952 4.25354 1.8714C3.82257 1.86266 3.48404 1.81769 3.06181 1.76272C3.14301 1.52288 3.03308 0.719642 3.14176 0.569739C3.17674 0.522269 3.3179 0.498536 3.34538 0.58473C3.42158 0.819579 3.27792 1.3405 3.31415 1.63531C3.32039 1.68902 3.34163 1.74773 3.3866 1.68902L3.42283 0.61471L3.49528 0.560995C3.544 0.625954 3.43407 1.42169 3.45781 1.60033C3.46905 1.68028 3.48654 1.714 3.55024 1.76272L3.62145 0.597221L3.96748 0.61471L4.07366 0.852058L4.10989 0.939502C4.07866 1.53662 4.17235 0.873295 4.07366 0.705903C4.07741 0.662181 4.06117 0.594723 4.08865 0.558496C4.15735 0.469803 4.35848 0.623455 4.18109 0.342386C4.5596 0.416088 4.59333 0.437325 5.01181 0.414839H5.00931Z" fill="#FACABD"/>
<path id="Vector_104" d="M6.27354 1.76183C6.16361 1.78182 6.20358 1.70686 6.20108 1.63566C6.18484 1.2634 6.14612 0.893636 6.12863 0.522624H6.23606C6.26354 0.62256 6.25604 1.24091 6.29102 1.25091C6.37472 1.27464 6.34224 1.17221 6.34474 1.12349C6.34973 1.0198 6.30476 0.676277 6.30976 0.652542C6.32725 0.585085 6.40845 0.602572 6.45217 0.631304C6.45717 0.626307 6.44093 0.432683 6.52462 0.521376C6.5596 0.558852 6.58084 1.39082 6.58708 1.53322C6.58958 1.60068 6.5671 1.65814 6.56085 1.7231C6.45842 1.73934 6.37347 1.74684 6.27229 1.75933L6.27354 1.76183Z" fill="#FBEAE1"/>
<path id="Vector_105" d="M5.98481 0.524081C6.03478 0.515336 6.03978 0.589039 6.04727 0.624017C6.10224 0.876355 6.12097 1.29234 6.13096 1.55967C6.13221 1.59589 6.13471 1.71956 6.12847 1.72456C6.10723 1.7458 5.98481 1.70832 5.98481 1.6696V0.522832V0.524081Z" fill="#FBEAE1"/>
<path id="Vector_106" d="M5.6964 0.632334L5.76886 1.01459C5.75512 1.27817 5.83007 1.53301 5.80508 1.79784L5.6964 1.59796V0.632334Z" fill="#FBEAE1"/>
<path id="Vector_107" d="M5.91229 0.704821V1.72416H5.83984C5.87856 1.64796 5.83984 1.56927 5.83984 1.52429V0.704821H5.91229Z" fill="#FBEAE1"/>
<path id="Vector_108" d="M5.00914 0.414086C5.19027 0.404092 5.37016 0.396596 5.55129 0.377858C5.5313 0.553995 5.27771 0.51652 5.15404 0.522766C5.04536 0.529012 4.93794 0.620204 5.00914 0.414086Z" fill="#F8BAAA"/>
<path id="Vector_109" d="M7.79103 15.237C7.80227 15.2345 7.81476 15.2383 7.82725 15.237L7.89971 15.7105L7.17767 15.9841C7.43875 15.9841 7.66486 15.7967 7.91595 15.7817L7.97216 16.0016C7.96467 16.0091 7.79477 16.0253 7.7548 16.0378C7.5137 16.1202 7.24388 16.3026 6.9778 16.2964C6.91034 16.2951 6.84039 16.3001 6.8154 16.2202V16.1789L7.17642 16.0753C6.93907 16.1764 6.71047 16.2127 6.49061 16.1839L6.3457 16.1477C6.69798 16.0565 6.95281 15.5693 7.32133 15.3832C7.47123 15.307 7.62613 15.2683 7.79103 15.237Z" fill="#49818D"/>
<path id="Vector_110" d="M9.09034 16.6934C9.07784 16.7009 9.06785 16.7221 9.05411 16.7296C8.93543 16.7971 8.22839 17.0769 8.15094 17.0207C8.27336 16.9108 8.51695 16.8833 8.69184 16.8196C8.80552 16.7784 8.97041 16.631 9.09034 16.6934Z" fill="#C9E7E9"/>
<path id="Vector_111" d="M7.79137 16.1842L8.65831 15.8932C8.64957 15.9494 8.59086 15.9619 8.54963 15.9831C8.41097 16.0543 8.11991 16.173 7.9725 16.2205C7.90255 16.243 7.83009 16.2617 7.75639 16.2567C7.7489 16.2517 7.78387 16.1992 7.79262 16.1842H7.79137Z" fill="#BBDFE2"/>
<path id="Vector_112" d="M4.10749 2.81814C4.4048 2.71321 4.83077 2.7282 5.15931 2.75068C5.22302 2.75568 5.28048 2.78691 5.33545 2.81814C5.35294 2.86686 5.45662 2.87185 5.644 2.83563L5.97878 2.78316C6.01251 2.80565 6.01001 3.24412 5.91258 3.25536C5.52907 3.30533 5.13808 3.33031 4.75707 3.25536C4.83202 3.1092 4.51847 3.20289 4.43228 3.25536C4.91322 3.30158 5.39916 3.31282 5.89009 3.29158L5.91383 3.32781C5.98503 3.35904 6.02625 3.44149 6.0375 3.57265C6.09746 3.6601 6.1162 3.7363 6.09496 3.80126C5.82263 3.87871 5.58903 3.91868 5.39666 3.91993L5.3367 3.94741C5.31172 3.94991 5.27049 3.98114 5.22802 3.98364L3.71149 3.83748C3.8514 3.51269 3.75147 3.15167 3.71149 2.81814C3.84391 2.81689 3.97632 2.81814 4.10874 2.81814H4.10749Z" fill="#98DCD7"/>
<path id="Vector_113" d="M5.98482 2.45374C6.12099 2.43501 5.99482 2.51121 6.03729 2.5974C6.05603 2.63613 6.12349 2.65861 6.12973 2.70733L5.91362 2.74356C5.7937 2.84974 5.48265 2.87722 5.33524 2.81601C4.9305 2.83475 4.51452 2.81101 4.10728 2.81601L3.02423 2.70733C3.16913 2.48872 2.81686 2.69734 2.84434 2.52495C3.54264 2.64362 4.25219 2.63238 4.95798 2.67235C5.10914 2.5974 5.69376 2.68235 5.76122 2.58741C5.80244 2.5287 5.72624 2.49122 5.91362 2.45249C5.92861 2.35506 5.95609 2.36005 5.98607 2.45249L5.98482 2.45374Z" fill="#137B82"/>
<path id="Vector_114" d="M5.91243 2.74494C6.00862 2.7412 6.10605 2.74744 6.20099 2.74494C6.15227 2.82239 6.04859 2.8149 6.09106 2.94232C6.09606 2.95856 6.33216 3.01477 6.27345 3.18092C6.17851 3.17092 6.03235 3.19341 5.98488 3.2896C6.07358 3.35206 6.24721 3.25836 6.30593 3.29459C6.36464 3.33082 6.37963 3.73556 6.27345 3.80052C6.4221 3.76679 6.37588 3.88546 6.43584 3.94667C6.52329 4.03536 6.7444 4.15904 6.85183 4.25647C7.01672 4.40513 7.18162 4.68495 7.32028 4.78489C7.32527 4.80737 7.31403 4.8411 7.32028 4.85734C7.27031 4.85734 7.27405 4.89856 7.33277 4.98226L7.52015 5.26957C7.62883 5.40948 7.6613 5.76426 7.46518 5.55064C7.18786 5.08344 6.8968 4.60125 6.52579 4.20276C6.40087 4.12906 6.25471 4.11406 6.08732 4.15779C5.91992 4.19026 5.80125 4.16778 5.7313 4.09408C5.78626 3.95292 5.83498 3.96666 5.94741 3.91169C5.94741 3.87297 5.99488 3.83674 6.09231 3.80301C5.97364 3.69933 5.92742 3.49072 5.91118 3.32957C5.83748 3.32083 5.84123 3.2846 5.91118 3.25712C5.90619 3.10721 5.90244 2.96605 5.94741 2.8199C5.76003 2.90609 5.59014 2.9011 5.38777 2.89235C5.29908 2.8886 5.27034 2.91858 5.33405 2.8199C5.50894 2.8124 5.7238 2.75619 5.91243 2.74744V2.74494Z" fill="#D6F2F2"/>
<path id="Vector_115" d="M7.32134 4.85832C7.35507 4.94076 7.5387 5.14938 7.60991 5.22308C7.68236 5.32927 7.76731 5.4267 7.86225 5.51414C8.03963 5.8202 8.16205 6.10127 8.29572 6.42481C8.04338 6.18122 7.94344 5.80396 7.71859 5.53164C7.65113 5.47792 7.68611 5.6528 7.69111 5.66904C7.70235 5.70652 8.03463 6.35985 7.72358 6.03631C7.6174 5.92513 7.54745 5.68778 7.46625 5.55037C7.54745 5.61283 7.55494 5.58535 7.5362 5.4979C7.49373 5.30178 7.31635 5.11565 7.25639 4.94201C7.23765 4.88705 7.21016 4.77587 7.32134 4.85832Z" fill="#E0F6F2"/>
<path id="Vector_116" d="M7.86233 5.51322C7.7424 5.44826 7.63997 5.36331 7.60999 5.22215C7.74115 5.35707 7.73616 5.29586 7.86233 5.51322Z" fill="#D6F2F2"/>
<path id="Vector_117" d="M5.37146 12.5048C5.2403 12.5285 5.06041 12.5947 4.93799 12.5048H5.37146Z" fill="#CFF3E8"/>
<path id="Vector_118" d="M1.07305 14.144C1.20671 14.1977 1.31664 14.2665 1.47029 14.3077C2.26478 14.5275 3.17794 14.4938 3.99867 14.5076C4.00741 14.5713 3.91622 14.5413 3.8725 14.5438C3.35908 14.565 2.75696 14.5575 2.24729 14.5076C1.91126 14.4738 1.53275 14.4114 1.21795 14.2889C1.05931 14.2277 0.918146 14.1103 0.748256 14.0703C0.739511 14.0029 0.823208 14.0379 0.858186 14.0503C0.924393 14.0753 1.00059 14.1141 1.07305 14.1428V14.144Z" fill="#CBEEEE"/>
<path id="Vector_119" d="M4.07119 0.704977C4.18112 0.68499 4.14115 0.76119 4.14364 0.831145C4.15614 1.15844 4.13365 1.48822 4.14364 1.81551H4.07119C4.07869 1.49447 4.06245 1.17093 4.07119 0.849883C4.07244 0.801164 4.06745 0.752445 4.07119 0.703727V0.704977Z" fill="#FCDACC"/>
<path id="Vector_120" d="M5.98482 1.87049C6.03853 2.05162 6.07476 2.22526 6.05727 2.41639C6.02229 2.42138 5.99356 2.45137 5.98482 2.45261C5.96108 2.45511 5.93609 2.45012 5.91236 2.45261C5.67751 2.47885 5.31524 2.52507 5.10038 2.52507H4.23344C4.16598 2.52507 3.94613 2.49884 3.85369 2.48884C3.90865 2.44637 4.08229 2.37891 4.0673 2.29397C3.96112 2.14406 3.81371 2.05287 3.67255 1.94294C3.93363 1.96293 4.22969 1.91546 4.48703 1.94044C4.56822 1.94794 4.6132 2.0104 4.66441 2.0129C4.72687 2.01665 4.80932 1.95169 4.88552 1.94544C5.25778 1.91296 5.60006 1.91421 5.98357 1.86924L5.98482 1.87049Z" fill="#FBC7B8"/>
<path id="Vector_121" d="M4.72053 1.87145C4.78923 1.49919 4.75176 1.11194 4.74426 0.733435C4.74426 0.680968 4.69554 0.644741 4.77549 0.596022C4.86294 0.578533 4.82671 0.667227 4.82921 0.723441C4.83546 0.88084 4.82297 1.03949 4.82921 1.19689L4.90166 1.79775V0.723441C4.90166 0.700955 4.98911 0.647239 5.01034 0.668476C5.02283 0.682217 4.97412 0.848361 4.97287 0.903325C4.96163 1.21188 4.98411 1.52543 4.97412 1.83398C4.91416 1.83648 4.82171 1.86896 4.72178 1.8702L4.72053 1.87145Z" fill="#FCDACC"/>
<path id="Vector_122" d="M4.25109 1.87072C4.19612 1.52344 4.20112 1.11621 4.21486 0.760184C4.21736 0.711465 4.18488 0.609031 4.26858 0.632765C4.32729 0.650254 4.26233 1.73581 4.28732 1.87072C4.27483 1.87072 4.26358 1.87072 4.25109 1.87072Z" fill="#FCDACC"/>
<path id="Vector_123" d="M4.35964 1.87042C4.43459 1.5094 4.37962 1.1284 4.39586 0.759887C4.40711 0.49006 4.48081 0.641212 4.46957 0.834837C4.44958 1.17962 4.38837 1.52439 4.46831 1.87167C4.43209 1.87167 4.39586 1.87167 4.35964 1.87167V1.87042Z" fill="#FCDACC"/>
<path id="Vector_124" d="M8.62056 26.0183C8.67053 25.9396 8.85042 25.4224 8.87915 25.4061C8.91413 25.3862 8.97409 25.4049 9.01781 25.3999C9.01906 25.4486 9.01781 25.4973 9.01781 25.5461C9.01906 25.7609 8.99033 25.8134 8.8729 25.9833C8.8092 25.9858 8.76672 26.0495 8.70676 26.057C8.65679 26.0632 8.62431 26.0195 8.62056 26.0195V26.0183Z" fill="#F1FAF7"/>
<path id="Vector_125" d="M2.44597 26.746C2.45847 26.746 2.46971 26.746 2.4822 26.746C2.50094 26.8547 2.43098 26.8209 2.36103 26.8147C2.25859 26.8047 2.14367 26.7747 2.03624 26.761C2.01125 26.7572 1.624 26.771 1.83137 26.6548C1.84136 26.6485 2.05123 26.6361 2.06622 26.6386C2.21237 26.6535 2.27109 26.7422 2.44473 26.7472L2.44597 26.746Z" fill="#67CAC1"/>
<path id="Vector_126" d="M2.6621 26.7818C2.68208 26.778 2.71081 26.7818 2.73455 26.7818L2.75453 26.8792L2.55466 26.8542C2.53468 26.7406 2.59839 26.7955 2.66335 26.7818H2.6621Z" fill="#67CAC1"/>
<path id="Vector_127" d="M7.7187 8.97218C7.65124 8.93845 7.61876 8.94595 7.53756 8.88224C7.14906 8.57369 6.80678 7.22331 6.56944 6.6899C6.3933 6.29515 6.02229 5.758 5.98606 5.34826C5.90236 4.41011 6.29461 4.37764 6.83427 5.00223C7.09535 5.30454 8.1047 7.09964 8.11844 7.42568C8.13343 7.81418 8.15217 7.65928 8.28083 7.98781C8.33705 8.13147 8.48695 8.71235 8.47571 8.84102C8.45073 9.13208 8.04599 8.91597 7.8636 9.00841C7.82488 9.1046 7.7162 9.07836 7.7187 8.97218Z" fill="#FDFDFD"/>
<path id="Vector_128" d="M8.17589 9.15824C8.25459 9.13575 8.38576 9.23569 8.46821 9.25443C8.6381 9.29191 9.2577 9.30939 8.92666 9.55798C8.72679 9.47804 8.14966 9.6117 8.08346 9.34812C8.06971 9.29066 8.11968 9.17573 8.17465 9.15949L8.17589 9.15824Z" fill="#FDFDFD"/>
<path id="Vector_129" d="M6.5271 4.20204C6.33098 4.13833 6.13735 4.24451 5.93123 4.24076C5.81131 4.23951 5.69763 4.20453 5.57022 4.19829C5.47903 4.19454 5.23668 4.31446 5.22794 4.12833C5.41532 4.10335 5.54773 4.10085 5.73386 4.09211C5.94123 4.08211 6.00743 4.07712 6.22105 4.09585C6.43466 4.11459 6.32598 3.98592 6.52835 4.20204H6.5271Z" fill="#E0F6F2"/>
<path id="Vector_130" d="M7.86241 9.01074C7.89988 9.02948 8.08601 9.19063 8.04229 9.22935C7.83742 9.24934 7.51013 9.2406 7.7175 8.97452C7.75622 8.99325 7.82368 8.992 7.86241 9.01074Z" fill="#97EDDB"/>
<path id="Vector_131" d="M7.53738 9.12037C7.57486 9.1591 7.54488 9.19532 7.48366 9.19158C7.33126 9.18408 7.12265 9.17409 6.97649 9.15785C6.92278 9.1516 6.86531 9.15035 6.85157 9.08415C6.95775 9.01669 7.47742 9.06041 7.53738 9.12037Z" fill="#E0F6F2"/>
<path id="Vector_132" d="M8.29595 7.29681C8.20726 7.32179 8.19352 7.20937 8.17104 7.15066C8.13981 7.06821 8.10358 6.98951 8.11607 6.89707C8.16729 6.91456 8.21101 7.04072 8.22975 7.09069C8.25473 7.15815 8.29221 7.22311 8.29595 7.29681Z" fill="#FDFDFD"/>
<path id="Vector_133" d="M6.38216 9.04616C6.36342 9.13735 6.2335 9.14485 6.20227 9.06365C6.16355 8.96371 6.3172 9.03117 6.38216 9.04616Z" fill="#E0F6F2"/>
<path id="Vector_134" d="M6.09347 3.80043C6.09347 3.80043 6.13219 3.79668 6.12844 3.81792C6.08597 3.87538 6.00977 3.87913 5.94856 3.90911C5.74744 3.94284 5.53507 3.92535 5.3352 3.94534C5.31522 3.82791 5.39392 3.88412 5.46137 3.87413C5.67124 3.84165 5.88235 3.80917 6.09347 3.80043Z" fill="#4CC5C2"/>
<path id="Vector_135" d="M1.03673 26.4559C0.938048 26.3597 0.983018 26.3884 0.906817 26.2772C0.810629 26.1373 0.669472 26.0274 0.675718 25.8362C0.784398 26.0461 0.976773 26.2272 1.03673 26.4559Z" fill="#ADE8DB"/>
<path id="Vector_136" d="M6.49065 16.1838C6.72425 16.1589 6.94411 16.1226 7.17646 16.0752L6.81545 16.2201C6.16336 16.3525 5.53752 16.2688 4.88419 16.2201L4.63185 16.1476C5.22272 16.1601 5.81234 16.265 6.40446 16.2226C6.45193 16.2188 6.48441 16.1851 6.4919 16.1851L6.49065 16.1838Z" fill="#93C5C7"/>
<path id="Vector_137" d="M6.70689 16.7676C6.62819 16.8339 6.50577 16.9263 6.41458 16.965C6.18347 17.0625 6.04606 17.0525 5.8237 17.0575C5.69379 17.06 5.54388 17.1699 5.4427 16.9863C5.73002 17.0112 6.39584 16.8401 6.70689 16.7676Z" fill="#417180"/>
<path id="Vector_138" d="M4.64808 1.83406L4.57563 1.78034C4.6131 1.39559 4.47944 1.01084 4.57563 0.632334L4.64683 1.83406H4.64808Z" fill="#FCDACC"/>
<path id="Vector_139" d="M4.43213 3.25446C4.53332 3.17077 4.66074 3.16077 4.75692 3.25446C5.14168 3.25446 5.52768 3.25446 5.91243 3.25446C5.91243 3.2782 5.90993 3.30318 5.91243 3.32691H5.38777C5.028 3.38563 4.65324 3.30568 4.28723 3.29069C4.26474 3.15452 4.36717 3.25321 4.43213 3.25446Z" fill="#39BFBE"/>
<path id="Vector_140" d="M4.43194 3.2548C4.4232 3.12739 4.69552 3.1074 4.77547 3.10615C4.83418 3.10615 5.07528 3.1074 5.04655 3.21858L4.75798 3.2548C4.65055 3.2548 4.54062 3.2573 4.43319 3.2548H4.43194Z" fill="#CFF3EF"/>
</g>
</svg>
