<svg width="50" height="50" viewBox="0 0 50 50" fill="none" xmlns="http://www.w3.org/2000/svg">
<ellipse cx="25.5813" cy="47.1496" rx="15.1162" ry="2.84884" fill="#7CC6FF"/>
<path d="M48.1116 22.7617C49.2416 22.7617 50.1709 23.7133 49.8438 24.7949C48.8365 28.1253 45.6916 30.5547 41.9656 30.5547C38.2396 30.5547 35.0947 28.1253 34.0873 24.7949C33.7602 23.7133 34.6896 22.7617 35.8195 22.7617H48.1116Z" fill="#9ED2FA"/>
<rect width="36.0204" height="1.56008" rx="0.780041" transform="matrix(0.978986 -0.203929 0.211965 0.977277 7.12061 19.7402)" fill="#9ED2FA"/>
<ellipse cx="41.9653" cy="23.8439" rx="8.03467" ry="2.59782" fill="#7CC6FF"/>
<path d="M14.1812 30.0781C15.311 30.0781 16.2403 31.0294 15.9135 32.1109C14.907 35.4424 11.7614 37.873 8.03467 37.873C4.3079 37.873 1.16235 35.4425 0.15579 32.1109C-0.170953 31.0294 0.758349 30.0781 1.88812 30.0781H14.1812Z" fill="#9ED2FA"/>
<ellipse cx="8.03467" cy="31.1174" rx="8.03467" ry="2.59782" fill="#7CC6FF"/>
<path d="M10.4651 46.0098H40.6975V47.1493H10.4651V46.0098Z" fill="#7CC6FF"/>
<ellipse cx="25.5813" cy="46.0109" rx="15.1162" ry="2.84884" fill="#9ED2FA"/>
<path d="M34.3081 23.7335C34.2819 23.7744 34.2711 23.8239 34.2796 23.8721C34.2881 23.9203 34.3149 23.9632 34.3543 23.9914C34.3938 24.0196 34.443 24.031 34.4914 24.0234C34.5398 24.0158 34.5831 23.9895 34.6133 23.9515C34.8776 23.6172 35.1411 23.2823 35.4038 22.9468C37.7678 19.9275 40.0632 16.8592 42.2899 13.7418C42.2899 13.7418 42.2899 13.7418 42.2899 13.7418L41.4762 13.7418C43.7029 16.8592 45.9982 19.9275 48.3622 22.9468C48.6249 23.2823 48.8884 23.6172 49.1528 23.9515C49.1829 23.9895 49.2263 24.0158 49.2746 24.0234C49.323 24.031 49.3722 24.0196 49.4117 23.9914C49.4512 23.9632 49.478 23.9203 49.4864 23.8721C49.4949 23.8239 49.4842 23.7744 49.4579 23.7335C49.2275 23.375 48.9962 23.0171 48.764 22.6598C46.6746 19.4444 44.5166 16.2779 42.2899 13.1606L41.883 12.5909L41.4762 13.1606C41.4762 13.1606 41.4762 13.1606 41.4762 13.1606C39.2495 16.2779 37.0914 19.4444 35.002 22.6598C34.7699 23.0171 34.5386 23.375 34.3081 23.7335Z" fill="#BDD6E8"/>
<path d="M0.377454 31.0089C0.351194 31.0498 0.340454 31.0993 0.34894 31.1475C0.357414 31.1957 0.384205 31.2385 0.423682 31.2667C0.463159 31.2949 0.512359 31.3064 0.56072 31.2988C0.609095 31.2912 0.652454 31.2649 0.682604 31.2268C0.946968 30.8926 1.21049 30.5577 1.47315 30.2222C3.83717 27.2029 6.13254 24.1346 8.35924 21.0172C8.35924 21.0172 8.35924 21.0172 8.35924 21.0172L7.54551 21.0172C9.7722 24.1346 12.0675 27.2029 14.4316 30.2222C14.6942 30.5577 14.9577 30.8926 15.2221 31.2268C15.2523 31.2649 15.2956 31.2912 15.344 31.2988C15.3923 31.3064 15.4415 31.2949 15.481 31.2667C15.5205 31.2386 15.5473 31.1957 15.5558 31.1475C15.5643 31.0993 15.5535 31.0498 15.5273 31.0089C15.2968 30.6504 15.0655 30.2925 14.8333 29.9352C12.744 26.7198 10.5859 23.5533 8.35924 20.4359L7.95238 19.8663L7.54551 20.4359C7.54551 20.4359 7.5455 20.436 7.5455 20.436C5.3188 23.5533 3.16076 26.7198 1.07137 29.9352C0.839219 30.2925 0.607913 30.6504 0.377454 31.0089Z" fill="#BDD6E8"/>
<path d="M25.5811 14.5117C26.8525 14.5117 27.8838 15.543 27.8838 16.8145C27.8837 17.666 27.4198 18.4075 26.7324 18.8057V45.5889L26.7266 45.707C26.6673 46.2871 26.1768 46.7402 25.5811 46.7402C24.9459 46.7401 24.4313 46.2249 24.4307 45.5898V18.8057C23.7431 18.4075 23.2794 17.6661 23.2793 16.8145C23.2793 15.5431 24.3097 14.5119 25.5811 14.5117Z" fill="#BDD6E8"/>
</svg>
