<svg width="24" height="24" viewBox="0 0 24 24" fill="none" xmlns="http://www.w3.org/2000/svg">
<path d="M3 7.83936H21V19.8954C21 20.4477 20.5523 20.8954 20 20.8954H4C3.44772 20.8954 3 20.4477 3 19.8954V7.83936Z" fill="white"/>
<path d="M3 7.83936H21V5.70589C21 5.15361 20.5523 4.70589 20 4.70589H4C3.44772 4.70589 3 5.15361 3 5.70589V7.83936Z" fill="#717171"/>
<rect x="5.26318" y="3.10449" width="1.14894" height="3.48162" rx="0.574468" fill="#CDCDCD"/>
<rect x="9.33643" y="3.10449" width="1.14894" height="3.48162" rx="0.574468" fill="#CDCDCD"/>
<rect x="13.6191" y="3.10449" width="1.14894" height="3.48162" rx="0.574468" fill="#CDCDCD"/>
<rect x="17.6924" y="3.10449" width="1.14894" height="3.48162" rx="0.574468" fill="#CDCDCD"/>
<path d="M8.43558 15.25C8.94457 16.847 10.4023 18 12.1212 18C14.2634 18 16 16.2091 16 14C16 11.7909 14.2634 10 12.1212 10C10.6855 10 9.432 10.8044 8.76134 12M9.93939 12.5H8V10.5" stroke="#979797" stroke-width="1.5" stroke-linecap="round" stroke-linejoin="round"/>
</svg>
