<svg width="81" height="50" viewBox="0 0 81 50" fill="none" xmlns="http://www.w3.org/2000/svg">
<rect x="11.25" width="66.2675" height="45.1674" rx="5" fill="#EEEDED"/>
<line x1="21.6406" y1="2.17162e-08" x2="21.6406" y2="45.1674" stroke="white"/>
<line x1="31.5312" y1="2.17162e-08" x2="31.5312" y2="45.1674" stroke="white"/>
<line x1="41.4219" y1="2.17162e-08" x2="41.4219" y2="45.1674" stroke="white"/>
<line x1="51.3127" y1="2.17162e-08" x2="51.3127" y2="45.1674" stroke="white"/>
<line x1="61.2034" y1="2.17162e-08" x2="61.2034" y2="45.1674" stroke="white"/>
<line x1="70.792" y1="2.98975" x2="70.792" y2="44.095" stroke="white"/>
<line x1="76.6934" y1="17.3286" x2="12.0743" y2="17.3286" stroke="white"/>
<line x1="76.6934" y1="27.2192" x2="12.0743" y2="27.2192" stroke="white"/>
<line x1="76.6934" y1="37.1099" x2="12.0743" y2="37.1099" stroke="white"/>
<path d="M11.25 5C11.25 2.23858 13.4886 0 16.25 0H72.5175C75.2789 0 77.5175 2.23858 77.5175 5V9.2313H11.25V5Z" fill="#C3C3C3"/>
<g filter="url(#filter0_dd_1963_11880)">
<path d="M20.0669 30.862L3.80182 14.3799L3.80529 14.3765C3.7606 14.3357 3.71652 14.2935 3.67355 14.2499C2.3499 12.9086 2.36454 10.7481 3.70621 9.42391C5.04801 8.09987 7.20922 8.1132 8.53294 9.45451C8.57592 9.49807 8.61688 9.54338 8.65704 9.58861L8.66052 9.58518L24.9256 26.0672L26.3638 32.3545L20.0669 30.862Z" fill="#C9C9C9"/>
<path d="M20.0659 30.7773L20.0955 30.7823C20.3058 30.7475 21.4049 29.7976 22.6591 28.5599C23.9959 27.2406 25.0032 26.0939 24.91 25.997L26.3636 32.3541L19.9971 30.8452L20.0659 30.7773Z" fill="white"/>
<path d="M25.6137 29.1124L23.1028 31.5903L26.3566 32.3614L25.6137 29.1124Z" fill="#D9D9D9"/>
</g>
<path d="M52.8134 7.76375C52.8777 7.79688 52.9157 7.8815 52.9317 7.95714C52.9369 7.98077 52.8902 8.00801 52.8919 8.0259C52.8954 8.06085 52.9325 8.06339 52.9328 8.10071C52.9327 8.11325 52.8622 8.16037 52.8636 8.17224C52.8714 8.2369 52.921 8.26053 52.9437 8.31292C53.0553 8.57104 53.2062 8.7882 53.3572 9.01568C53.4071 9.09063 53.4221 9.22225 53.5082 9.26893C53.5183 9.27432 53.5691 9.22057 53.575 9.21806C53.6658 9.18026 53.5475 9.27113 53.5467 9.29992C53.5436 9.4139 53.5999 9.48749 53.6743 9.52838C53.7061 9.54563 53.7928 9.42287 53.7542 9.50307C53.7516 9.50854 53.6874 9.55408 53.6874 9.5666C53.6874 9.59489 53.7245 9.61561 53.7308 9.63199C53.7426 9.66382 53.7466 9.66721 53.7658 9.69015C53.7916 9.72196 53.7948 9.78415 53.8372 9.80514C53.8464 9.80947 53.8981 9.74691 53.9182 9.74899C53.9384 9.75111 53.9595 9.78517 53.9543 9.8077C53.949 9.83023 53.8981 9.86788 53.8888 9.87925C53.8105 9.9748 53.9672 9.89673 53.9742 9.89835C54.0987 9.93122 54.0879 10.0639 54.155 10.139C54.2061 10.1959 54.2841 10.2358 54.3292 10.2931C54.3827 10.3615 54.399 10.4453 54.4605 10.5033C54.4669 10.5094 54.5305 10.439 54.5385 10.4464C54.6233 10.5253 54.6917 10.6177 54.7203 10.7458C54.7231 10.7587 54.6514 10.8026 54.6505 10.8188C54.6464 10.9166 54.5982 11.1085 54.8955 10.9002C54.9167 10.9452 54.9443 10.9982 54.9183 11.0784C54.9016 11.13 54.8164 11.17 54.8676 11.1697C54.8791 11.1697 54.9316 11.1098 54.9443 11.1137C54.9979 11.1305 55.0137 11.1868 55.0758 11.1953C55.0886 11.1969 55.1398 11.1479 55.1511 11.1415C55.2436 11.0901 55.1415 11.2322 55.1378 11.2467C55.111 11.3558 55.1692 11.3664 55.2069 11.4123C55.2156 11.4229 55.2759 11.3476 55.2869 11.3556C55.3427 11.3979 55.3839 11.4566 55.3971 11.5349C55.3999 11.5525 55.3302 11.596 55.3284 11.6072C55.3213 11.6557 55.4403 11.5593 55.4357 11.6039C55.4349 11.6131 55.3807 11.6565 55.3758 11.6625C55.2985 11.7555 55.4356 11.6548 55.4415 11.6558C55.5191 11.6661 55.4121 11.8119 55.4688 11.8381C55.4758 11.8411 55.5311 11.7713 55.5465 11.7833C55.6498 11.8631 55.7219 11.9805 55.7538 12.122C55.7589 12.1439 55.7002 12.1772 55.695 12.1835C55.6136 12.283 55.7494 12.1797 55.7585 12.1803C55.8267 12.1876 55.7516 12.3178 55.9259 12.209C56.0162 12.4164 56.2435 12.5008 56.2495 12.7808C56.2497 12.7843 56.1839 12.8363 56.1846 12.8429C56.1927 12.9228 56.2817 12.827 56.4294 12.7534C56.4665 12.7349 56.3447 12.8873 56.3361 12.8989C56.3044 12.9414 56.2039 13.0159 56.1987 13.0253C56.1593 13.0998 56.4642 12.8223 56.4908 12.852C56.4911 12.8534 56.4309 12.8999 56.4275 12.9074C56.4167 12.9309 56.446 12.9185 56.4333 12.9435C56.4035 13.001 56.2593 13.1403 56.37 13.0893C56.3843 13.0826 56.5545 12.9222 56.5699 12.9561C56.5759 12.9697 56.6205 13.0139 56.6209 13.0371C56.6212 13.0603 56.5569 13.1013 56.5553 13.1044C56.5122 13.206 56.4694 13.22 56.3749 13.3357C56.2808 13.4511 56.5384 13.2133 56.5741 13.1945C56.6097 13.1758 56.5713 13.2564 56.5556 13.2817C56.5399 13.3071 56.497 13.331 56.49 13.3474C56.4443 13.4551 56.6346 13.2483 56.6872 13.2237C56.8116 13.1653 56.6375 13.3607 56.6422 13.4043C56.6434 13.4161 56.6825 13.3709 56.6923 13.3736C56.7308 13.3851 56.6838 13.4543 56.7651 13.4338C56.7784 13.4305 56.916 13.3501 56.8437 13.4415C56.8333 13.4546 56.7795 13.4915 56.7783 13.512C56.7764 13.5427 56.7918 13.5813 56.8235 13.5844C56.8469 13.5866 56.9135 13.5009 56.9032 13.5392C56.8985 13.5562 56.84 13.5844 56.8351 13.6129C56.8302 13.6414 56.8628 13.6739 56.876 13.6856C56.8893 13.6972 56.9434 13.6363 56.9485 13.6337C56.9775 13.6193 57.029 13.6185 57.0309 13.6207C57.1376 13.7259 57.1272 13.9197 57.2577 13.9985C57.2678 14.0047 57.3266 13.9423 57.3288 13.9427C57.3815 13.9482 57.1914 14.0759 57.1527 14.1468C57.2796 14.0288 57.2669 14.0617 57.2994 14.0696C57.3152 14.0734 57.3605 14.0234 57.3664 14.0198C57.4557 13.9668 57.3664 14.0645 57.3486 14.085C57.2833 14.1605 57.3802 14.0934 57.3366 14.144C57.2934 14.1943 57.207 14.2438 57.2255 14.2627C57.2768 14.227 57.3849 14.1047 57.4178 14.1022C57.5424 14.0928 57.5412 14.2829 57.5718 14.3371C57.6023 14.3913 57.6239 14.3984 57.6306 14.4397C57.6428 14.5144 57.7171 14.417 57.7846 14.4101C57.8522 14.4033 57.6182 14.5854 57.5745 14.632C57.5307 14.6784 57.5837 14.6395 57.5622 14.6679C57.5407 14.6964 57.4984 14.7138 57.4995 14.7348C57.5006 14.7557 57.6149 14.7141 57.6684 14.6742C57.7819 14.5898 57.879 14.4765 57.869 14.5434C57.8683 14.5473 57.8048 14.593 57.8053 14.6053C57.8109 14.7018 57.8605 14.7632 57.8713 14.855C57.8727 14.8677 57.8018 14.9183 57.8018 14.9263C57.8024 15.0103 57.8965 14.8965 58.0407 14.8146C57.8743 14.9522 57.7883 15.0542 57.8192 15.0908C57.8377 15.1129 57.9049 15.0466 57.9669 15.0164C57.9856 15.0073 57.9507 15.0655 57.9863 15.0389C58.1027 14.9517 58.2111 14.8296 58.1957 14.9095C58.1948 14.9131 58.131 14.9607 58.1324 14.9694C58.1411 15.0265 58.2581 14.9302 58.3066 14.9571C58.3447 14.9782 58.3241 15.0942 58.3439 15.1391C58.162 15.2995 58.2328 15.2955 58.3697 15.1978C58.3847 15.225 58.4135 15.2432 58.4157 15.2805C58.4165 15.2933 58.3596 15.335 58.3548 15.341C58.2788 15.4346 58.4092 15.3364 58.4183 15.337C58.5117 15.3488 58.458 15.474 58.593 15.4445C58.5979 15.4434 58.7264 15.3344 58.6464 15.4296C58.6409 15.4361 58.5687 15.4704 58.5855 15.4981C58.6022 15.5259 58.5746 15.6307 58.6623 15.6119C58.6835 15.6074 58.8037 15.5368 58.7382 15.624C58.7293 15.6358 58.6911 15.6656 58.6738 15.6865C58.6187 15.7536 58.7509 15.6459 58.6533 15.7539C58.5557 15.8619 58.4967 15.9585 58.6009 15.9256C58.604 15.9247 58.7119 15.8429 58.7196 15.8548C58.7318 15.8739 58.7319 15.9163 58.7481 15.9332C58.7559 15.9412 58.8138 15.8802 58.8162 15.8806C58.9013 15.9057 58.8811 15.9954 58.9104 16.0771C58.9156 16.0923 59.0293 16.0481 58.9807 16.1295C58.9277 16.2187 58.5987 16.4679 58.7199 16.4567C58.7686 16.4525 59.1833 16.1332 59.0159 16.352C59.1334 16.3833 59.0923 16.5455 59.2315 16.558C59.2377 16.5586 59.3562 16.4726 59.3618 16.482C59.37 16.496 59.325 16.5478 59.3292 16.5593C59.3456 16.6087 59.4182 16.6027 59.4421 16.6431C59.4512 16.6584 59.3945 16.7006 59.4055 16.7188C59.4164 16.737 59.495 16.6858 59.4803 16.7366C59.4689 16.7753 59.3415 16.9171 59.3438 16.953C59.4842 16.8296 59.4943 16.8467 59.5541 16.8398C59.5657 16.8384 59.6096 16.7898 59.6176 16.7869C59.6511 16.7742 59.6187 16.8189 59.6541 16.8037C59.6626 16.8001 59.7104 16.7578 59.72 16.7525C59.804 16.7054 59.7191 16.8261 59.7043 16.847C59.6481 16.9268 59.7171 16.8794 59.7005 16.917C59.6839 16.9546 59.632 16.9666 59.6283 16.9965C59.6207 17.0586 59.6637 17.0914 59.6894 17.1247C59.6999 17.1378 59.756 17.0726 59.759 17.0732C59.7982 17.0847 59.7537 17.1711 59.8933 17.0727C59.5812 17.3822 59.939 17.06 59.9062 17.1554C59.9035 17.163 59.7517 17.3046 59.7189 17.3136C59.6862 17.3227 59.7197 17.2626 59.6704 17.2786C59.6588 17.2824 59.4947 17.3905 59.4833 17.3955C59.3945 17.4341 59.6235 17.2249 59.6352 17.2124C59.7606 17.0768 59.5811 17.1902 59.5642 17.1931C59.4871 17.2061 59.4963 17.1508 59.4379 17.1564C59.3999 17.1597 59.2466 17.2931 59.2394 17.2756C59.2154 17.2177 59.4135 17.014 59.1928 17.1355C59.1457 17.1614 58.9876 17.3178 59.0896 17.1697C59.0961 17.1604 59.1943 17.0305 59.1066 17.0839C59.0955 17.0906 59.0472 17.1337 59.0411 17.135C59.0013 17.1431 59.0308 17.0987 58.9975 17.0985C58.9643 17.0982 58.919 17.1027 58.9186 17.0692C58.9182 17.049 58.9953 16.9542 59.0125 16.9291C59.0623 16.8572 58.9433 16.9332 59.0118 16.8553C59.0805 16.7768 59.2148 16.6913 59.2423 16.6216C59.1158 16.7323 58.9849 16.8448 58.8572 16.9556C58.8123 16.8962 58.8044 16.8055 58.7493 16.7547C58.7424 16.7485 58.6811 16.8156 58.6719 16.8106C58.6334 16.7889 58.6573 16.7188 58.6093 16.7035C58.572 16.6918 58.476 16.7279 58.4347 16.7177C58.5643 16.5739 58.4809 16.5784 58.4689 16.5385C58.4646 16.5246 58.5036 16.4911 58.5099 16.4729C58.5326 16.4052 58.4166 16.5305 58.3902 16.541C58.2771 16.5857 58.5623 16.3274 58.5225 16.2968C58.5204 16.2951 58.3459 16.4076 58.3335 16.4128C58.2527 16.4472 58.3838 16.3619 58.3835 16.3388C58.383 16.2965 58.4049 16.2474 58.3351 16.2593C58.3145 16.263 58.2016 16.3284 58.2614 16.2468C58.2693 16.2361 58.3209 16.1923 58.3224 16.1879C58.3449 16.1136 58.185 16.2543 58.1156 16.2849C58.0463 16.3155 58.1324 16.191 58.1592 16.1574C58.2285 16.0703 58.2039 16.1372 58.2127 16.1308C58.3164 16.0548 58.2826 16.0499 58.2774 16.0278C58.4316 15.8869 58.4037 15.8743 58.2714 16.0054C58.257 16.0198 58.2819 16.0184 58.2774 16.0278C58.1126 16.1508 58.0726 16.1453 58.1932 15.9927C58.2497 15.9212 58.3379 15.8629 58.2772 15.8523C58.2498 15.8474 58.1479 15.9493 58.1057 15.9609C58.0096 15.9874 58.0717 15.8554 58.0257 15.8354C58.009 15.8281 57.9608 15.8925 57.9474 15.8893C57.9115 15.8811 57.9381 15.8221 57.8955 15.8198C57.8916 15.8196 57.8344 15.8793 57.8274 15.873C57.7732 15.8264 57.7716 15.7452 57.7235 15.6889C57.7002 15.6617 57.6238 15.6441 57.606 15.6103C57.5748 15.5521 57.6118 15.4134 57.5536 15.3918C57.5159 15.3774 57.4595 15.438 57.4074 15.4639C57.3063 15.5141 57.4173 15.3454 57.4352 15.32C57.4358 15.3192 57.4708 15.3293 57.4915 15.2889C57.551 15.2232 57.4357 15.3201 57.4352 15.32C57.4467 15.3036 57.4198 15.2452 57.3999 15.2466C57.389 15.2473 57.3331 15.302 57.3286 15.3014C57.2217 15.2863 57.1521 15.2379 57.124 15.1513C57.1242 15.1492 57.191 15.0928 57.1906 15.0885C57.1876 15.0266 57.0871 15.0744 57.0132 15.0868C56.9394 15.0992 56.9343 15.0615 57.0307 14.9442C56.9966 14.9343 57.0175 14.858 57.0311 14.8128C57.0447 14.7675 56.9153 14.8779 56.9113 14.8785C56.7857 14.8991 56.8323 14.805 56.7967 14.7421C56.78 14.712 56.7173 14.6786 56.6792 14.6638C56.6489 14.6523 56.6672 14.6129 56.6306 14.61C56.6256 14.6096 56.5715 14.6626 56.5686 14.6637C56.4812 14.7018 56.629 14.5895 56.6496 14.5629C56.7248 14.4665 56.7636 14.4138 56.6962 14.4231C56.6807 14.4252 56.4646 14.5832 56.4424 14.5817C56.4139 14.5793 56.4904 14.5217 56.4588 14.5209C56.4561 14.5208 56.4123 14.5602 56.4054 14.5485C56.3726 14.4946 56.3533 14.4213 56.306 14.377C56.2997 14.3708 56.2373 14.4413 56.2271 14.4334C56.1792 14.3961 56.1382 14.3449 56.1323 14.2723C56.131 14.2543 56.1859 14.2175 56.1984 14.2023C56.2736 14.1099 56.1279 14.2032 56.1225 14.202C55.9904 14.1769 56.0518 14.0132 55.9246 13.981C55.9175 13.9794 55.7503 14.0671 55.8543 13.9476C55.8611 13.9396 55.9679 13.8178 55.874 13.8776C55.8681 13.8813 55.8146 13.9456 55.8064 13.9237C55.7982 13.9018 55.7335 13.9122 55.7815 13.8294C55.7966 13.8033 55.9015 13.68 55.7872 13.7437C55.7793 13.7482 55.5342 13.9075 55.6729 13.7634C55.6957 13.7397 55.8552 13.6015 55.7518 13.6481C55.7319 13.6572 55.7045 13.6972 55.6712 13.704C55.62 13.7146 55.6393 13.6512 55.5477 13.6897C55.5316 13.6965 55.4087 13.7739 55.4773 13.6874C55.488 13.6738 55.5444 13.6313 55.5436 13.6185C55.54 13.5576 55.4714 13.5513 55.4755 13.4825C55.4768 13.4583 55.5678 13.3892 55.5787 13.3555C55.5895 13.3218 55.5874 13.2752 55.536 13.2957C55.4846 13.3162 55.3626 13.4522 55.333 13.4407C55.2044 13.391 55.2033 13.2295 55.1336 13.1277C55.1233 13.1126 55.0848 13.167 55.0661 13.1478C54.9969 13.0773 54.8383 12.9904 54.8846 12.8348C54.9216 12.7101 55.0418 12.7187 55.0406 12.6497C55.0398 12.6165 54.864 12.7363 54.855 12.7361C54.7649 12.7364 54.8072 12.6433 54.7501 12.6222C54.7383 12.6179 54.6816 12.6828 54.6723 12.6785C54.6398 12.6643 54.6458 12.6136 54.6202 12.5952C54.6085 12.5871 54.5614 12.6324 54.5567 12.6196C54.5449 12.5893 54.5476 12.551 54.5736 12.4882C54.576 12.4824 54.6488 12.4421 54.6362 12.4233C54.6154 12.3929 54.6305 12.319 54.5561 12.3291C54.5338 12.3323 54.4219 12.4311 54.4812 12.3427C54.4936 12.3242 54.6323 12.2104 54.4959 12.2901C54.4732 12.3032 54.2823 12.4029 54.3659 12.2943C54.3879 12.2657 54.486 12.1553 54.4589 12.1595C54.4548 12.1604 54.4002 12.2198 54.3862 12.2157C54.3376 12.2004 54.3136 12.1606 54.265 12.1437C54.2519 12.1393 54.2018 12.2078 54.1843 12.1995C54.136 12.1767 54.111 12.1169 54.0986 12.0637C54.0941 12.044 54.1536 12.0075 54.1583 12.0016C54.2355 11.9053 54.1046 12.0052 54.0929 12.0065C54.0216 12.0126 54.0577 11.937 54.0162 11.9211C54.0049 11.9166 53.9515 11.9744 53.9449 11.9774C53.879 12.006 53.9952 11.925 53.9973 11.9041C54.0037 11.8452 53.9695 11.8162 53.9353 11.7928C53.9226 11.7843 53.8658 11.857 53.8552 11.8486C53.7914 11.8003 53.7436 11.7335 53.7301 11.643C53.7277 11.6258 53.786 11.5862 53.7959 11.5733C53.8656 11.4836 53.7315 11.5621 53.7161 11.5665C53.6454 11.5868 53.6834 11.5365 53.6561 11.5232C53.5221 11.4589 53.4402 11.3051 53.3731 11.1915C53.2853 11.0438 53.2481 10.9018 53.1283 10.7931C53.1208 10.7861 53.0581 10.8556 53.0507 10.8504C52.9583 10.7802 52.9111 10.6723 52.8153 10.605C52.8075 10.5993 52.7506 10.668 52.736 10.6609C52.7055 10.6468 52.6831 10.6144 52.6835 10.5725C52.6835 10.5521 52.7536 10.5171 52.7525 10.4976C52.75 10.4521 52.7294 10.4195 52.6945 10.4015C52.6795 10.394 52.6277 10.4715 52.6135 10.457C52.5153 10.36 52.4138 10.2692 52.4085 10.0875C52.4082 10.075 52.5396 9.94704 52.4998 9.95522C52.4608 9.98787 52.4162 10.0277 52.3751 10.0633C52.2199 9.93282 52.1355 9.74222 52.0092 9.58536C52.0039 9.57876 51.941 9.65422 51.9303 9.64177C51.8683 9.56979 51.7869 9.51868 51.7944 9.38191C51.7951 9.36843 51.926 9.25865 51.8878 9.25457C51.881 9.25396 51.8355 9.23709 51.8004 9.25346C51.7953 9.25605 51.7409 9.31486 51.7299 9.30609C51.6676 9.25422 51.6254 9.17934 51.6087 9.08717C51.6061 9.07219 51.6787 9.02606 51.6774 9.0149C51.6677 8.93619 51.5723 8.92602 51.5885 8.82821C51.5996 8.76253 51.7196 8.67657 51.8128 8.56402C51.8259 8.54813 51.8112 8.52667 51.8731 8.46983C52.0288 8.32684 52.2101 8.18244 52.3751 8.02893C52.4106 7.99588 52.3486 8.00473 52.4498 7.94214C52.4567 7.938 52.5024 7.93089 52.5363 7.90909C52.5597 7.89403 52.6184 7.83144 52.6506 7.81461C52.6827 7.79781 52.6355 7.85262 52.6761 7.83602C52.7171 7.81907 52.7855 7.74969 52.8134 7.76375ZM57.0913 14.6098C57.1371 14.5384 56.9113 14.7346 56.9813 14.7056C56.9849 14.7039 57.0891 14.6133 57.0913 14.6098ZM58.9732 16.6559C59.0519 16.5458 58.8933 16.6593 58.8312 16.7428C58.7692 16.8263 58.9494 16.6893 58.9732 16.6559ZM59.2521 16.8247C59.3066 16.7293 58.9859 17.007 59.075 16.9781C59.08 16.9765 59.249 16.8302 59.2521 16.8247ZM51.9119 8.61356C51.9146 8.61068 51.9052 8.59422 51.9019 8.59651C51.8244 8.65222 51.8433 8.68509 51.9119 8.61356ZM59.5358 16.986C59.5714 16.9397 59.501 16.9601 59.4567 17.0177C59.4211 17.064 59.4916 17.0436 59.5358 16.986ZM56.5337 13.502C56.5368 13.4988 56.5309 13.4862 56.5123 13.5031C56.4522 13.5577 56.4817 13.5563 56.5337 13.502ZM59.8885 17.3754C59.8488 17.3067 60.0794 17.0388 60.106 17.1282C60.1108 17.1444 60.0006 17.1778 59.9899 17.2134C59.9706 17.2782 60.1507 17.1498 60.0868 17.2553C60.0751 17.2745 59.8901 17.3798 59.888 17.3756C59.8881 17.3755 59.8883 17.3754 59.8885 17.3754ZM57.351 14.3612C57.3537 14.3583 57.3442 14.342 57.341 14.3443C57.2634 14.3999 57.2824 14.4327 57.351 14.3612ZM56.1556 12.7983C56.1612 12.7919 56.1387 12.7547 56.1319 12.7588C56.0011 12.8453 56.0463 12.9209 56.1556 12.7983ZM58.3395 15.1439C58.4243 15.0955 58.4487 15.106 58.3697 15.1977C58.3612 15.1785 58.3485 15.1628 58.3395 15.1439Z" fill="#DFDFDF"/>
<path d="M61.5759 10.4881C61.5466 10.5543 61.4644 10.5971 61.3898 10.6176C61.3665 10.6241 61.3366 10.5791 61.3188 10.5819C61.2841 10.5874 61.2838 10.6246 61.2466 10.6271C61.234 10.6277 61.1829 10.5602 61.1711 10.5622C61.107 10.5738 61.0863 10.6247 61.0354 10.6505C60.7842 10.777 60.5763 10.9404 60.3581 11.1045C60.2862 11.1587 60.1557 11.1814 60.1141 11.2701C60.1093 11.2805 60.166 11.3281 60.1688 11.3338C60.2119 11.4222 60.1142 11.3095 60.0855 11.3103C59.9715 11.3139 59.9013 11.3745 59.8649 11.4511C59.8495 11.4839 59.9772 11.5633 59.8948 11.5294C59.8892 11.5272 59.84 11.4657 59.8275 11.4664C59.7993 11.4681 59.7808 11.5064 59.7648 11.5136C59.7337 11.5272 59.7306 11.5315 59.7088 11.552C59.6785 11.5796 59.6166 11.5864 59.5982 11.63C59.5944 11.6394 59.6599 11.6874 59.659 11.7076C59.6581 11.7278 59.6253 11.751 59.6025 11.747C59.5797 11.7431 59.5391 11.6945 59.5272 11.6859C59.4272 11.6134 59.5144 11.7652 59.5132 11.7723C59.4877 11.8985 59.3546 11.8955 59.2836 11.9669C59.2298 12.0212 59.1945 12.1015 59.14 12.1498C59.0748 12.2072 58.9921 12.2284 58.9379 12.2932C58.9321 12.3 59.0061 12.3593 58.9992 12.3677C58.9254 12.457 58.8372 12.5307 58.711 12.5668C58.6983 12.5704 58.6502 12.5014 58.634 12.5014C58.5361 12.5031 58.3417 12.4662 58.5671 12.7508C58.5234 12.7746 58.4722 12.8052 58.3906 12.784C58.3381 12.7704 58.2932 12.6877 58.2965 12.7388C58.2972 12.7503 58.3601 12.7991 58.3569 12.8121C58.3433 12.8666 58.2879 12.8856 58.2831 12.9481C58.2823 12.961 58.3342 13.0092 58.3413 13.0201C58.398 13.1094 58.2502 13.0159 58.2355 13.013C58.125 12.9927 58.1178 13.0514 58.0743 13.0917C58.0641 13.1011 58.1429 13.1568 58.1355 13.1682C58.0966 13.2265 58.0404 13.2711 57.963 13.2888C57.9456 13.2926 57.898 13.2256 57.8868 13.2245C57.8379 13.2202 57.9412 13.3334 57.8964 13.3314C57.8871 13.3311 57.8406 13.2795 57.8344 13.275C57.737 13.2033 57.8456 13.3343 57.8449 13.3403C57.8392 13.4183 57.6873 13.32 57.6645 13.3782C57.6619 13.3853 57.7349 13.4364 57.7238 13.4526C57.6502 13.5604 57.5373 13.6392 57.3979 13.6794C57.3763 13.6857 57.3396 13.6291 57.333 13.6243C57.2289 13.5488 57.34 13.6784 57.3399 13.6874C57.3366 13.756 57.2022 13.6886 57.3211 13.8563C57.1193 13.9586 57.0484 14.1904 56.7693 14.2129C56.7659 14.2133 56.7101 14.1506 56.7035 14.1517C56.6242 14.1645 56.7251 14.2478 56.8073 14.3909C56.8279 14.4268 56.6685 14.3142 56.6565 14.3063C56.6123 14.2771 56.5319 14.1812 56.5223 14.1766C56.4456 14.1416 56.7405 14.4297 56.7124 14.4579C56.711 14.4583 56.6611 14.401 56.6534 14.398C56.6293 14.3886 56.6434 14.4172 56.6177 14.4059C56.5585 14.3796 56.411 14.2438 56.4684 14.3513C56.4759 14.3652 56.6461 14.5257 56.6132 14.543C56.5999 14.5498 56.5584 14.5969 56.5352 14.5987C56.5121 14.6004 56.4674 14.5386 56.4642 14.5371C56.3603 14.5001 56.3438 14.4582 56.2227 14.3707C56.102 14.2835 56.3545 14.5267 56.3754 14.5612C56.3961 14.5957 56.3134 14.562 56.2872 14.5479C56.261 14.5337 56.2346 14.4923 56.2178 14.4862C56.1076 14.447 56.3253 14.6248 56.3529 14.6759C56.4185 14.7966 56.2132 14.6343 56.1699 14.6415C56.1582 14.6435 56.2057 14.6798 56.2035 14.6898C56.1944 14.7288 56.1225 14.6859 56.1477 14.7659C56.1518 14.779 56.2401 14.9117 56.1447 14.8449C56.1309 14.8352 56.0909 14.7837 56.0704 14.7837C56.0396 14.7836 56.002 14.8013 56.0008 14.8331C56 14.8566 56.0894 14.9181 56.0506 14.91C56.0333 14.9063 56.0018 14.8495 55.973 14.8463C55.9443 14.8431 55.9137 14.8776 55.9029 14.8915C55.8921 14.9054 55.9561 14.9559 55.9589 14.9607C55.975 14.9889 55.9789 15.0402 55.9767 15.0422C55.878 15.155 55.6839 15.156 55.6129 15.2908C55.6073 15.3014 55.673 15.3563 55.6728 15.3586C55.6704 15.4115 55.5317 15.2292 55.4587 15.1948C55.584 15.3145 55.5504 15.3037 55.5443 15.3367C55.5415 15.3526 55.5941 15.3949 55.5981 15.4007C55.6562 15.4866 55.5534 15.4033 55.5319 15.3867C55.4527 15.3259 55.5254 15.4187 55.4723 15.3782C55.4196 15.338 55.3651 15.2547 55.3473 15.2742C55.3859 15.3233 55.5144 15.424 55.5188 15.4568C55.5355 15.5806 55.3457 15.5906 55.2933 15.6243C55.241 15.6579 55.2352 15.6799 55.1944 15.689C55.1205 15.7056 55.2221 15.7741 55.2329 15.8411C55.2437 15.9081 55.0482 15.6852 54.9992 15.6443C54.9502 15.6033 54.9922 15.6539 54.9625 15.6342C54.9329 15.6144 54.913 15.5731 54.8921 15.5754C54.8712 15.5778 54.9195 15.6894 54.9624 15.7406C55.0534 15.8489 55.1722 15.9392 55.1048 15.9331C55.1009 15.9327 55.0516 15.8719 55.0393 15.8731C54.9433 15.8844 54.8849 15.9375 54.7939 15.9537C54.7813 15.9558 54.7267 15.888 54.7186 15.8885C54.6348 15.8941 54.754 15.9813 54.8442 16.1204C54.6971 15.9624 54.5902 15.8826 54.5554 15.9155C54.5345 15.9353 54.6046 15.9984 54.6384 16.0586C54.6486 16.0767 54.5884 16.0454 54.6171 16.0793C54.7109 16.1903 54.8392 16.2914 54.7586 16.2807C54.7549 16.2801 54.7037 16.2191 54.695 16.221C54.6385 16.233 54.7416 16.3443 54.7175 16.3943C54.6987 16.4335 54.5818 16.4197 54.5381 16.4421C54.3673 16.2699 54.3754 16.3404 54.481 16.4713C54.4547 16.4879 54.4382 16.5178 54.4011 16.5221C54.3884 16.5237 54.3435 16.4694 54.3372 16.4649C54.2392 16.3945 54.345 16.5189 54.3448 16.528C54.3385 16.622 54.2105 16.5757 54.2478 16.7088C54.2492 16.7136 54.3656 16.8354 54.2658 16.7612C54.259 16.7561 54.2206 16.6861 54.1939 16.7044C54.1671 16.7227 54.0608 16.7013 54.0848 16.7878C54.0905 16.8086 54.1681 16.9245 54.0771 16.8643C54.0648 16.8561 54.0329 16.8197 54.0109 16.8036C53.9408 16.7526 54.056 16.8782 53.9425 16.7871C53.829 16.696 53.729 16.6428 53.7681 16.7449C53.7691 16.7479 53.8571 16.8508 53.8457 16.8592C53.8273 16.8726 53.785 16.8752 53.7691 16.8923C53.7615 16.9006 53.8258 16.9548 53.8255 16.9572C53.8055 17.0436 53.7148 17.0287 53.6349 17.0628C53.6201 17.0689 53.6709 17.1797 53.5868 17.1361C53.4946 17.0883 53.2265 16.7746 53.2448 16.8949C53.2519 16.9432 53.595 17.3384 53.3667 17.1842C53.3423 17.3034 53.1781 17.2719 53.1738 17.4115C53.1735 17.4177 53.2663 17.531 53.2573 17.5372C53.2437 17.5462 53.1894 17.5043 53.1781 17.5092C53.1298 17.5285 53.1401 17.6006 53.1011 17.6268C53.0864 17.6368 53.0409 17.5827 53.0234 17.5947C53.0059 17.6067 53.0617 17.6821 53.01 17.6704C52.9708 17.6613 52.8217 17.5424 52.786 17.5468C52.9174 17.6798 52.901 17.6908 52.9114 17.7502C52.9135 17.7616 52.9645 17.8026 52.9679 17.8104C52.9825 17.8432 52.936 17.8134 52.9532 17.8478C52.9574 17.8561 53.0024 17.9013 53.0083 17.9107C53.0602 17.9917 52.9348 17.9141 52.913 17.9005C52.8301 17.8491 52.8814 17.9152 52.8429 17.9008C52.8044 17.8865 52.7894 17.8354 52.7593 17.8334C52.6969 17.8295 52.6666 17.8743 52.6348 17.9019C52.6225 17.9132 52.6908 17.9654 52.6904 17.9684C52.6812 18.0082 52.5924 17.9688 52.6988 18.1024C52.3715 17.8091 52.7141 18.1473 52.617 18.1202C52.6092 18.1179 52.459 17.9746 52.448 17.9425C52.4371 17.9104 52.499 17.9402 52.4801 17.892C52.4757 17.8806 52.3581 17.7232 52.3525 17.7121C52.3087 17.6257 52.531 17.842 52.5442 17.8529C52.6869 17.9702 52.5631 17.7977 52.5593 17.781C52.5417 17.7048 52.5975 17.7107 52.5885 17.6527C52.5829 17.615 52.4408 17.4698 52.4578 17.4616C52.5142 17.4343 52.7292 17.62 52.5949 17.4068C52.5664 17.3613 52.4009 17.2127 52.5547 17.3058C52.5644 17.3117 52.6999 17.4022 52.6414 17.3177C52.634 17.3071 52.5882 17.2614 52.5865 17.2554C52.5761 17.2161 52.6222 17.2429 52.6205 17.2097C52.6187 17.1765 52.6116 17.1316 52.6451 17.1292C52.6652 17.1276 52.7643 17.199 52.7904 17.2147C52.8651 17.2602 52.7822 17.1459 52.8641 17.2097C52.9464 17.2737 53.0397 17.4027 53.1109 17.426C52.9929 17.3063 52.8729 17.1822 52.7548 17.0612C52.8115 17.0129 52.9016 16.9997 52.949 16.9417C52.9548 16.9344 52.8842 16.8772 52.8887 16.8677C52.9081 16.828 52.9795 16.8478 52.992 16.799C53.0014 16.761 52.9597 16.6673 52.9675 16.6255C53.1187 16.7464 53.1093 16.6634 53.1484 16.6491C53.1621 16.644 53.1978 16.681 53.2163 16.6862C53.2853 16.7049 53.1533 16.5965 53.1413 16.5707C53.0901 16.4604 53.3647 16.7299 53.3928 16.6884C53.3944 16.6863 53.2719 16.5187 53.266 16.5065C53.2268 16.4279 53.3197 16.5538 53.3428 16.5521C53.3849 16.5491 53.4353 16.5681 53.4192 16.4992C53.4144 16.4789 53.3425 16.3699 53.4274 16.4249C53.4385 16.4321 53.4854 16.4811 53.4898 16.4823C53.5653 16.5004 53.4154 16.349 53.3808 16.2816C53.3462 16.2141 53.4756 16.2928 53.5107 16.3176C53.6017 16.3816 53.5335 16.3611 53.5404 16.3694C53.6223 16.4685 53.6252 16.4344 53.647 16.428C53.7967 16.5736 53.8076 16.545 53.669 16.4207C53.6538 16.4071 53.6566 16.4319 53.647 16.428C53.5145 16.2706 53.5177 16.2304 53.6771 16.3418C53.7518 16.394 53.8151 16.4787 53.8222 16.4175C53.8254 16.3898 53.7178 16.2941 53.7037 16.2527C53.6716 16.1582 53.8071 16.2125 53.8243 16.1654C53.8305 16.1483 53.7635 16.104 53.7659 16.0904C53.7719 16.0541 53.8324 16.0772 53.8322 16.0345C53.8322 16.0306 53.7692 15.977 53.7751 15.9697C53.8184 15.9128 53.8994 15.9064 53.9528 15.8551C53.9786 15.8303 53.9917 15.7529 54.0243 15.7332C54.0806 15.6986 54.2212 15.7275 54.2394 15.6681C54.2516 15.6296 54.1877 15.5769 54.1589 15.5263C54.1028 15.4284 54.2777 15.5293 54.3041 15.5456C54.3049 15.5462 54.2969 15.5817 54.3384 15.6C54.4075 15.6556 54.3041 15.5461 54.3041 15.5456C54.3211 15.5561 54.3779 15.5259 54.3754 15.5061C54.374 15.4953 54.3161 15.4427 54.3164 15.4381C54.3252 15.3305 54.3694 15.2582 54.4542 15.2251C54.4564 15.2251 54.5166 15.2885 54.5209 15.2879C54.5825 15.2812 54.5288 15.1838 54.5121 15.1107C54.4954 15.0377 54.5328 15.0304 54.6555 15.1198C54.6634 15.0852 54.7408 15.1016 54.7868 15.1125C54.8327 15.1234 54.715 15.0007 54.7141 14.9968C54.6862 14.8725 54.7828 14.9135 54.8435 14.8743C54.8725 14.8558 54.9022 14.7913 54.9148 14.7524C54.9245 14.7215 54.9649 14.7375 54.9656 14.7007C54.9658 14.6958 54.9097 14.6448 54.9084 14.642C54.8652 14.557 54.9861 14.6979 55.0137 14.717C55.1144 14.7864 55.1693 14.822 55.1561 14.7552C55.1531 14.7399 54.9826 14.5335 54.9829 14.5112C54.9835 14.4826 55.0455 14.5556 55.0445 14.524C55.0445 14.5213 55.0025 14.4799 55.0138 14.4723C55.0657 14.4364 55.1378 14.4128 55.1792 14.363C55.185 14.3564 55.1109 14.2983 55.1183 14.2876C55.1527 14.2375 55.2014 14.1937 55.2735 14.1835C55.2914 14.1812 55.3314 14.2338 55.3473 14.2453C55.4439 14.315 55.3423 14.175 55.3431 14.1696C55.3604 14.0362 55.5274 14.0879 55.5521 13.959C55.5532 13.9518 55.4559 13.7901 55.5813 13.8868C55.5897 13.8933 55.7175 13.9927 55.6524 13.9024C55.6483 13.8968 55.581 13.8471 55.6024 13.8377C55.6237 13.8282 55.6095 13.7643 55.695 13.8073C55.722 13.8208 55.8512 13.9183 55.7809 13.8079C55.7759 13.8003 55.6026 13.565 55.7546 13.6949C55.7796 13.7164 55.9269 13.8674 55.8743 13.767C55.8641 13.7476 55.8225 13.7226 55.8137 13.6898C55.8002 13.6393 55.8646 13.6548 55.8208 13.5657C55.813 13.55 55.7286 13.4319 55.8189 13.4952C55.8331 13.5052 55.8789 13.559 55.8916 13.5574C55.9522 13.5502 55.9544 13.4814 56.0233 13.4814C56.0476 13.4813 56.1219 13.5681 56.1562 13.577C56.1905 13.5858 56.2369 13.5809 56.2134 13.5308C56.1899 13.4807 56.047 13.3669 56.0567 13.3367C56.0988 13.2054 56.2599 13.1949 56.3575 13.1193C56.372 13.1081 56.3154 13.0728 56.3334 13.0531C56.3998 12.9799 56.4771 12.8164 56.6352 12.8535C56.7619 12.8831 56.7603 13.0036 56.8292 12.9984C56.8623 12.9957 56.7324 12.8271 56.732 12.8181C56.7265 12.7283 56.8219 12.765 56.8396 12.7068C56.8432 12.6948 56.775 12.642 56.7788 12.6324C56.7911 12.5991 56.842 12.6022 56.8589 12.5755C56.8663 12.5633 56.8183 12.519 56.8309 12.5135C56.8604 12.5 56.8988 12.5004 56.963 12.5227C56.9689 12.5248 57.0134 12.5951 57.0315 12.5813C57.0605 12.5589 57.1352 12.5696 57.1207 12.4959C57.1163 12.4738 57.0111 12.3679 57.1028 12.4219C57.122 12.4332 57.2437 12.565 57.1562 12.4335C57.1417 12.4116 57.031 12.2269 57.1444 12.304C57.1742 12.3242 57.2901 12.4157 57.2844 12.3889C57.2832 12.3848 57.2208 12.3339 57.224 12.3196C57.2364 12.2702 57.2748 12.2439 57.2888 12.1944C57.2924 12.1811 57.2211 12.1351 57.2284 12.1171C57.2482 12.0675 57.3065 12.0391 57.3588 12.0235C57.3782 12.0179 57.4182 12.0752 57.4244 12.0795C57.525 12.1509 57.4176 12.0262 57.4157 12.0145C57.4054 11.9438 57.4829 11.9753 57.4963 11.933C57.5002 11.9215 57.4394 11.8716 57.436 11.8651C57.4036 11.801 57.4912 11.9122 57.5122 11.9131C57.5714 11.916 57.5983 11.8802 57.6197 11.8447C57.6275 11.8315 57.5515 11.7791 57.5593 11.768C57.6037 11.7014 57.6676 11.6498 57.7572 11.631C57.7742 11.6276 57.8172 11.6834 57.8306 11.6926C57.9243 11.7569 57.838 11.6277 57.8327 11.6125C57.8083 11.5432 57.8608 11.5782 57.8724 11.5501C57.9288 11.4125 58.0775 11.3218 58.1869 11.2481C58.3292 11.1518 58.4688 11.1063 58.5703 10.9804C58.5768 10.9724 58.5038 10.9139 58.5086 10.9063C58.5732 10.8099 58.6781 10.7564 58.7397 10.6568C58.7449 10.6487 58.673 10.5959 58.6792 10.5809C58.6915 10.5497 58.7225 10.5255 58.7644 10.5233C58.7848 10.5222 58.8238 10.5901 58.8432 10.5878C58.8884 10.5827 58.9199 10.5602 58.9357 10.5243C58.9424 10.5089 58.862 10.4618 58.8756 10.4467C58.9667 10.343 59.0514 10.2363 59.2324 10.2204C59.2448 10.2193 59.3803 10.343 59.3698 10.3038C59.3349 10.2667 59.2926 10.2245 59.2546 10.1856C59.3757 10.023 59.5611 9.92757 59.7102 9.79228C59.7165 9.78656 59.6375 9.72827 59.6493 9.71685C59.7175 9.65066 59.7637 9.56639 59.9007 9.5659C59.9142 9.56575 60.0315 9.69003 60.0333 9.65167C60.0335 9.64479 60.0477 9.59841 60.0293 9.56436C60.0264 9.55935 59.9645 9.50849 59.9726 9.4971C60.0207 9.43185 60.093 9.38532 60.184 9.36318C60.1988 9.35972 60.2492 9.42948 60.2602 9.42753C60.3382 9.41326 60.3428 9.31744 60.4414 9.32786C60.5076 9.33505 60.6004 9.44975 60.7183 9.53623C60.7349 9.54842 60.7555 9.53243 60.8158 9.59092C60.9677 9.73795 61.1225 9.91045 61.2855 10.0661C61.3205 10.0997 61.3081 10.0382 61.3765 10.1356C61.381 10.1422 61.3908 10.1875 61.4146 10.22C61.431 10.2425 61.4969 10.2974 61.5156 10.3285C61.5342 10.3596 61.4768 10.3158 61.4957 10.3553C61.515 10.3952 61.5883 10.4594 61.5759 10.4881ZM54.9929 15.1606C55.0669 15.2021 54.8578 14.9882 54.8908 15.0564C54.8927 15.06 54.9892 15.1586 54.9929 15.1606ZM53.0608 17.1595C53.1754 17.2315 53.0527 17.0798 52.9657 17.0228C52.8788 16.9658 53.0261 17.1377 53.0608 17.1595ZM52.9087 17.4478C53.0071 17.4965 52.7111 17.1927 52.7451 17.2799C52.747 17.2849 52.903 17.445 52.9087 17.4478ZM60.6746 9.63804C60.6777 9.64062 60.6936 9.63022 60.6911 9.62713C60.6309 9.55296 60.5992 9.5738 60.6746 9.63804ZM52.7643 17.7405C52.8126 17.7733 52.7881 17.7042 52.7281 17.6634C52.6797 17.6305 52.7042 17.6997 52.7643 17.7405ZM56.066 14.5389C56.0694 14.5418 56.0817 14.5353 56.0637 14.5176C56.0057 14.4609 56.0087 14.4902 56.066 14.5389ZM52.3964 18.1154C52.4625 18.0718 52.7435 18.2862 52.6558 18.318C52.6399 18.3238 52.6001 18.2157 52.564 18.2072C52.4981 18.1917 52.637 18.364 52.5279 18.3063C52.508 18.2957 52.392 18.1173 52.3961 18.1149C52.3962 18.1151 52.3963 18.1152 52.3964 18.1154ZM55.2563 15.4053C55.2594 15.4078 55.2751 15.3974 55.2726 15.3943C55.2125 15.3201 55.1809 15.341 55.2563 15.4053ZM56.7463 14.1202C56.753 14.1254 56.7888 14.1007 56.7843 14.0942C56.6903 13.9687 56.6176 14.0182 56.7463 14.1202ZM54.533 16.4381C54.5863 16.5199 54.5773 16.5448 54.4811 16.4714C54.4997 16.4617 54.5146 16.4482 54.533 16.4381Z" fill="#DFDFDF"/>
<path d="M33.1244 31.5161C33.1937 31.5652 33.2351 31.6667 33.2528 31.7541C33.2585 31.7814 33.2084 31.803 33.2104 31.8233C33.2144 31.8629 33.2542 31.8727 33.2548 31.9144C33.2548 31.9284 33.1793 31.9677 33.1808 31.9812C33.1896 32.0547 33.2431 32.0905 33.2678 32.1532C33.3895 32.4621 33.5531 32.7328 33.7169 33.015C33.771 33.108 33.788 33.2576 33.8808 33.3259C33.8917 33.3339 33.9461 33.2835 33.9524 33.2818C34.0499 33.2568 33.9232 33.3358 33.9224 33.3678C33.9198 33.4943 33.9808 33.587 34.0611 33.6466C34.0954 33.6719 34.188 33.5513 34.1469 33.6335C34.1442 33.6391 34.0754 33.6778 34.0754 33.6917C34.0756 33.7233 34.1157 33.7534 34.1225 33.7729C34.1354 33.8106 34.1398 33.8151 34.1606 33.8443C34.1884 33.8847 34.1923 33.9546 34.238 33.9861C34.2479 33.9926 34.3032 33.9326 34.3249 33.9387C34.3465 33.9449 34.3695 33.9869 34.364 34.011C34.3584 34.0351 34.3039 34.0675 34.294 34.0785C34.2104 34.1703 34.3784 34.1127 34.386 34.1159C34.5201 34.176 34.5093 34.322 34.5819 34.4184C34.6372 34.4914 34.7214 34.5507 34.7703 34.6231C34.8282 34.7095 34.8462 34.806 34.9128 34.8823C34.9197 34.8904 34.9877 34.8238 34.9963 34.8336C35.088 34.9375 35.1621 35.0535 35.1937 35.2018C35.1968 35.2167 35.1199 35.2522 35.119 35.27C35.1152 35.3784 35.0646 35.5833 35.3831 35.4071C35.4062 35.4613 35.4362 35.5255 35.4087 35.6101C35.3911 35.6645 35.2997 35.693 35.3548 35.7024C35.3671 35.7045 35.4232 35.6476 35.4369 35.6544C35.4902 35.681 35.509 35.739 35.564 35.7645L34.9171 35.792C34.9175 35.7868 34.9175 35.7815 34.9171 35.776C34.9161 35.7617 34.8544 35.7269 34.8453 35.7173C34.7724 35.6391 34.9415 35.6906 34.9574 35.6887C35.0763 35.6729 35.075 35.6063 35.1146 35.5471C35.1238 35.5334 35.0328 35.4996 35.0388 35.4846C35.071 35.4075 35.1231 35.3394 35.2017 35.2933C35.2194 35.2832 35.2793 35.3402 35.2913 35.3375C35.3432 35.3253 35.2178 35.2371 35.2651 35.2239C35.2749 35.221 35.3314 35.2614 35.3386 35.2643C35.4516 35.3091 35.318 35.2032 35.3178 35.1965C35.3121 35.1092 35.4861 35.1644 35.5013 35.0929C35.5029 35.0843 35.4187 35.0535 35.4279 35.032C35.4889 34.8888 35.5955 34.7637 35.7356 34.6719C35.7573 34.6575 35.8043 34.7068 35.812 34.7098C35.9325 34.7565 35.7966 34.6531 35.7952 34.6431C35.7884 34.5671 35.9395 34.5945 35.7896 34.452C35.9858 34.2707 36.0253 33.9928 36.3147 33.8722C36.3182 33.8706 36.3862 33.9199 36.3929 33.9165C36.4742 33.8752 36.3558 33.8189 36.2481 33.6907C36.2211 33.6585 36.4051 33.7268 36.419 33.7313C36.4698 33.748 36.5684 33.8253 36.5792 33.827C36.665 33.8389 36.3123 33.6253 36.3375 33.5847C36.3389 33.5838 36.3999 33.6294 36.4084 33.63C36.4351 33.632 36.4161 33.6055 36.4447 33.6091C36.5107 33.6175 36.6858 33.7152 36.6095 33.6173C36.5995 33.6048 36.3969 33.4878 36.4288 33.4575C36.4417 33.4456 36.4782 33.3797 36.5022 33.3699C36.5262 33.3601 36.5824 33.4123 36.586 33.4127C36.7005 33.4174 36.7241 33.4576 36.8643 33.5117C37.0039 33.5655 36.7025 33.3864 36.6755 33.3558C36.6486 33.3253 36.7403 33.3336 36.77 33.3401C36.7996 33.3466 36.8335 33.3828 36.852 33.3837C36.9735 33.3887 36.7185 33.2691 36.6818 33.2228C36.5949 33.1133 36.8346 33.2202 36.8789 33.1974C36.8909 33.1912 36.8357 33.1678 36.8364 33.1562C36.8401 33.1103 36.9219 33.1325 36.8835 33.0536C36.8773 33.0408 36.7646 32.9261 36.8748 32.9663C36.8906 32.9721 36.9404 33.0147 36.9619 33.0077C36.9942 32.9971 37.031 32.9649 37.0275 32.9297C37.0248 32.9037 36.9218 32.8672 36.9636 32.8628C36.9823 32.8608 37.0239 32.9121 37.0546 32.9057C37.0852 32.8993 37.1121 32.8511 37.1214 32.8322C37.1306 32.8132 37.0559 32.78 37.0522 32.7757C37.0311 32.7505 37.0193 32.6957 37.0213 32.6927C37.1079 32.5355 37.3112 32.4676 37.3654 32.2957C37.3698 32.2823 37.2925 32.2447 37.2925 32.2422C37.287 32.1835 37.4599 32.3352 37.5417 32.3477C37.3922 32.2599 37.4291 32.2601 37.4305 32.222C37.431 32.2036 37.3696 32.1754 37.3645 32.1705C37.2906 32.0965 37.4109 32.1523 37.436 32.163C37.5283 32.2022 37.438 32.1258 37.4998 32.1518C37.5612 32.1777 37.6308 32.25 37.6465 32.2225C37.5986 32.1821 37.4487 32.1161 37.4392 32.0818C37.403 31.9522 37.6007 31.876 37.6505 31.8211C37.7003 31.7664 37.7031 31.7404 37.7446 31.7163C37.8195 31.6728 37.7027 31.6328 37.6812 31.5633C37.6599 31.4937 37.8985 31.6702 37.956 31.6981C38.0135 31.726 37.9619 31.6851 37.996 31.6965C38.03 31.708 38.0571 31.7462 38.0787 31.7365C38.1002 31.7268 38.0328 31.6213 37.9801 31.5802C37.8684 31.493 37.7301 31.4352 37.8018 31.4186C37.806 31.4177 37.8668 31.4672 37.8795 31.4616C37.9785 31.4162 38.0317 31.3381 38.1248 31.2892C38.1377 31.2825 38.2052 31.3378 38.2135 31.3345C38.3006 31.2996 38.1625 31.2452 38.047 31.1241C38.225 31.2464 38.3491 31.2968 38.3806 31.2488C38.3996 31.22 38.3166 31.1751 38.2721 31.1209C38.2587 31.1046 38.3265 31.1182 38.2913 31.091C38.1762 31.0018 38.0265 30.9354 38.1126 30.9194C38.1166 30.9188 38.1795 30.9678 38.1883 30.9628C38.2457 30.9302 38.1209 30.844 38.1386 30.7811C38.1525 30.7317 38.2772 30.7065 38.3196 30.667C38.5247 30.7965 38.5056 30.7222 38.3752 30.6154C38.4002 30.5882 38.413 30.5499 38.4512 30.5324C38.4643 30.5263 38.5197 30.5703 38.5269 30.573C38.6402 30.6163 38.5106 30.5166 38.5094 30.5066C38.5019 30.4016 38.6431 30.4082 38.584 30.2756C38.5818 30.2708 38.4414 30.1776 38.5572 30.2244C38.5652 30.2277 38.616 30.291 38.6412 30.2618C38.6665 30.2326 38.7812 30.2194 38.7431 30.1331C38.734 30.1123 38.6352 30.0123 38.7396 30.0468C38.7537 30.0516 38.7927 30.0804 38.8182 30.0904C38.8994 30.1221 38.7597 30.0243 38.8924 30.0849C39.0252 30.1454 39.138 30.1693 39.0817 30.0711C39.0802 30.0681 38.9724 29.9858 38.9831 29.9727C39.0004 29.9518 39.0444 29.9344 39.0585 29.9102C39.0652 29.8985 38.9896 29.8614 38.9895 29.8586C38.9975 29.7572 39.0949 29.7424 39.1736 29.6776C39.1882 29.6659 39.1182 29.5621 39.213 29.5809C39.3168 29.6014 39.6453 29.8523 39.608 29.727C39.5933 29.6766 39.174 29.3624 39.4366 29.4526C39.4443 29.3139 39.6213 29.2918 39.6048 29.1377C39.6041 29.1308 39.4898 29.0388 39.4983 29.0289C39.5112 29.0144 39.5745 29.0416 39.5855 29.0324C39.6333 28.9947 39.6117 28.9193 39.6486 28.8773C39.6625 28.8612 39.7184 28.9048 39.7349 28.8856C39.7515 28.8665 39.6817 28.8032 39.7376 28.7982C39.7801 28.7946 39.9544 28.8734 39.9911 28.8563C39.8333 28.7561 39.8489 28.7384 39.829 28.6771C39.8251 28.6652 39.7654 28.638 39.7608 28.6306C39.7404 28.5998 39.7937 28.6164 39.7705 28.5847C39.7649 28.577 39.7109 28.5431 39.7033 28.5349C39.6366 28.4642 39.7799 28.5059 39.8048 28.5132C39.8994 28.5409 39.8357 28.4863 39.8782 28.4887C39.9208 28.4912 39.9442 28.5419 39.9761 28.5337C40.0421 28.5165 40.0671 28.4571 40.0963 28.416C40.1076 28.3994 40.0281 28.3658 40.028 28.3624C40.0317 28.3158 40.1308 28.3282 39.999 28.2187C40.3864 28.4269 39.9762 28.175 40.0821 28.1712C40.0906 28.171 40.2698 28.276 40.2861 28.3073C40.3024 28.3387 40.233 28.3274 40.2601 28.3736C40.2664 28.3846 40.4134 28.5163 40.421 28.5264C40.4799 28.6058 40.2142 28.4458 40.1988 28.4384C40.0314 28.3593 40.1872 28.5053 40.1937 28.5222C40.2236 28.5995 40.1642 28.6122 40.1824 28.6726C40.1939 28.7119 40.3648 28.8218 40.3482 28.8366C40.2931 28.8859 40.0397 28.7567 40.2126 28.9437C40.2494 28.9836 40.4453 29.0892 40.27 29.0402C40.2589 29.0372 40.1033 28.9849 40.1773 29.0571C40.1866 29.0662 40.2415 29.1004 40.2442 29.1064C40.261 29.1458 40.2087 29.1323 40.2155 29.168C40.2223 29.2037 40.2365 29.2504 40.2018 29.2645C40.1809 29.2731 40.0662 29.2292 40.0365 29.221C39.9513 29.197 40.0554 29.2934 39.9599 29.2518C39.864 29.2101 39.7468 29.1012 39.6685 29.1002C39.8103 29.1905 39.9548 29.2849 40.0969 29.3766C40.0447 29.4489 39.9522 29.4944 39.9112 29.5741C39.9062 29.584 39.9889 29.6223 39.9855 29.6342C39.9712 29.6843 39.8933 29.6873 39.8876 29.7449C39.8834 29.7897 39.9412 29.8778 39.9394 29.9262C39.7626 29.846 39.7849 29.9335 39.746 29.9626C39.7325 29.9729 39.6895 29.9447 39.6693 29.9454C39.5941 29.9487 39.7489 30.0219 39.7654 30.0459C39.8356 30.1489 39.5071 29.9486 39.4838 30.0037C39.4825 30.0066 39.6361 30.1477 39.6442 30.159C39.6971 30.2315 39.5807 30.1258 39.5568 30.1356C39.513 30.1533 39.4574 30.1499 39.4846 30.2198C39.4927 30.2403 39.5845 30.3347 39.4872 30.3038C39.4744 30.2998 39.4179 30.2623 39.4131 30.2625C39.3312 30.2687 39.5111 30.3827 39.5576 30.4445C39.604 30.5063 39.4565 30.4648 39.4159 30.4498C39.3108 30.4111 39.3855 30.4101 39.377 30.4033C39.2762 30.3231 39.2782 30.3614 39.2564 30.376C39.0774 30.2682 39.0703 30.3033 39.2344 30.3915C39.2524 30.4011 39.2457 30.375 39.2564 30.376C39.419 30.5024 39.4218 30.5475 39.2378 30.4805C39.1516 30.4491 39.0724 30.3784 39.0742 30.4477C39.075 30.4791 39.2023 30.5467 39.2233 30.5872C39.2711 30.6794 39.1209 30.6666 39.1099 30.7241C39.1059 30.7449 39.1829 30.7703 39.1825 30.786C39.1816 30.8278 39.1147 30.8233 39.1212 30.8699C39.1219 30.8742 39.196 30.9111 39.191 30.9212C39.1541 30.9983 39.0701 31.0331 39.0218 31.1076C38.9985 31.1436 38.9964 31.2327 38.9651 31.2655C38.9113 31.3227 38.7595 31.3395 38.7493 31.4107C38.7423 31.457 38.8172 31.4927 38.8551 31.538C38.9286 31.6258 38.73 31.5757 38.6999 31.5669C38.6989 31.5665 38.702 31.5249 38.6557 31.5192C38.5749 31.4822 38.6998 31.5663 38.6999 31.5669C38.6804 31.5612 38.6255 31.6138 38.6311 31.6346C38.6342 31.6459 38.7028 31.6835 38.7031 31.6887C38.7101 31.8093 38.6746 31.9036 38.5906 31.969C38.5884 31.9697 38.5157 31.9212 38.5113 31.9233C38.4476 31.9518 38.5186 32.0399 38.5471 32.114C38.5756 32.1881 38.5375 32.2089 38.3954 32.1534C38.3923 32.194 38.3087 32.2027 38.2588 32.2066C38.2089 32.2105 38.3509 32.3041 38.3524 32.3081C38.4004 32.4343 38.2928 32.4228 38.2351 32.4865C38.2074 32.5167 38.186 32.5975 38.1787 32.6443C38.1731 32.6815 38.1283 32.6779 38.1331 32.7184C38.1337 32.7238 38.2002 32.7602 38.202 32.7629C38.26 32.841 38.1121 32.7284 38.0802 32.7171C37.9642 32.6759 37.9012 32.6558 37.9251 32.7243C37.9306 32.74 38.1404 32.9071 38.1435 32.9315C38.1472 32.9631 38.0711 32.9045 38.077 32.9388C38.0774 32.9417 38.1276 32.9725 38.1169 32.9847C38.0679 33.0418 37.9959 33.0924 37.9599 33.1611C37.9548 33.1704 38.0412 33.2084 38.0352 33.2226C38.0066 33.2892 37.9621 33.3539 37.888 33.3899C37.8695 33.3986 37.8197 33.3547 37.8013 33.3476C37.6895 33.3047 37.8171 33.4227 37.8171 33.429C37.819 33.5808 37.6361 33.5817 37.6295 33.7311C37.6294 33.7394 37.7558 33.8827 37.6098 33.8201C37.6 33.816 37.451 33.7512 37.5329 33.8275C37.538 33.8323 37.6161 33.8634 37.5951 33.8811C37.5741 33.8989 37.5986 33.9639 37.5024 33.9462C37.4721 33.9407 37.3219 33.8786 37.4123 33.9751C37.4187 33.9817 37.6359 34.1794 37.4569 34.0896C37.4275 34.0748 37.2502 33.9602 37.3205 34.052C37.3341 34.0696 37.3815 34.0827 37.3956 34.1155C37.4174 34.1661 37.3476 34.1713 37.4069 34.2537C37.4174 34.2682 37.5237 34.3683 37.4194 34.3301C37.4031 34.3241 37.347 34.281 37.3339 34.2871C37.2713 34.3158 37.2794 34.3918 37.2071 34.4155C37.1816 34.424 37.0907 34.3547 37.0534 34.3568C37.0161 34.3589 36.9682 34.3802 37.0004 34.4269C37.0326 34.4736 37.1995 34.5489 37.1939 34.5852C37.1695 34.7432 37.0021 34.8103 36.9111 34.9264C36.8976 34.9437 36.9622 34.9628 36.9463 34.9906C36.8877 35.0934 36.8312 35.2988 36.6598 35.3127C36.5225 35.3238 36.506 35.1915 36.4345 35.2209C36.4003 35.2353 36.5618 35.3749 36.5636 35.3846C36.5829 35.481 36.4773 35.4736 36.4675 35.5434C36.4655 35.5578 36.5449 35.592 36.5424 35.6038C36.5346 35.6444 36.4807 35.6586 36.467 35.6936C36.4611 35.7094 36.5181 35.7415 36.5057 35.7517C36.4768 35.7766 36.4365 35.7894 36.3657 35.7871C36.3593 35.7869 36.3019 35.7253 36.2851 35.7466C36.258 35.7811 36.1781 35.7951 36.2043 35.8707C36.2123 35.8933 36.3386 35.9729 36.2342 35.9454C36.2124 35.9397 36.065 35.8375 36.1765 35.9512C36.195 35.9701 36.3389 36.134 36.2084 36.0887C36.1741 36.0768 36.0387 36.0166 36.0488 36.0441C36.0506 36.0481 36.1238 36.0823 36.1225 36.099C36.117 36.1573 36.0807 36.1993 36.0735 36.2582C36.0717 36.274 36.1534 36.2998 36.1484 36.322C36.135 36.383 36.0782 36.4341 36.0257 36.4691C36.0062 36.482 35.9557 36.4331 35.9485 36.4304C35.9402 36.4273 35.9331 36.425 35.9272 36.4232L35.1259 37.3944L34.6112 36.4791C34.6597 36.4156 34.5381 36.4903 34.5264 36.4895C34.4498 36.4829 34.4881 36.4054 34.4434 36.3799C34.4313 36.3727 34.3742 36.4271 34.367 36.4292C34.2963 36.4486 34.4208 36.3803 34.423 36.3573C34.4295 36.2928 34.3925 36.2541 34.3556 36.2215C34.3419 36.2096 34.2812 36.28 34.2698 36.2687C34.2008 36.2027 34.149 36.1192 34.1339 36.0157C34.1312 35.9961 34.1937 35.9629 34.2043 35.9504C34.2787 35.8635 34.135 35.9258 34.1184 35.9278C34.0425 35.937 34.0831 35.8881 34.0536 35.8681C33.909 35.7711 33.82 35.5841 33.7471 35.4448C33.6519 35.2635 33.6109 35.0981 33.4814 34.9542C33.4733 34.945 33.4063 35.0107 33.3983 35.0035C33.2985 34.9078 33.247 34.7786 33.1435 34.6854C33.1352 34.6776 33.0743 34.7434 33.0585 34.7328C33.0257 34.7113 33.0014 34.671 33.0016 34.6242C33.0015 34.6015 33.0767 34.5757 33.0753 34.5538C33.0724 34.5026 33.05 34.4622 33.0124 34.4356C32.9962 34.4245 32.941 34.5011 32.9256 34.4823C32.8194 34.3555 32.7096 34.2351 32.7029 34.0315C32.7024 34.0175 32.843 33.8995 32.8003 33.9012C32.7585 33.9302 32.7107 33.9662 32.6667 33.9982C32.499 33.8234 32.4071 33.5949 32.2703 33.3961C32.2645 33.3877 32.1973 33.46 32.1857 33.4441C32.1185 33.3521 32.0307 33.2798 32.038 33.1287C32.0386 33.1137 32.1788 33.016 32.1377 33.0043C32.1303 33.0023 32.0813 32.9749 32.0437 32.9865C32.0381 32.9884 31.9799 33.0438 31.9682 33.0319C31.9008 32.9623 31.855 32.8708 31.8364 32.7649C31.8335 32.7477 31.9113 32.7099 31.9099 32.6972C31.899 32.6076 31.7963 32.5783 31.8131 32.4723C31.8246 32.4011 31.9532 32.3278 32.0528 32.2199C32.0668 32.2047 32.0508 32.1779 32.1171 32.1262C32.2837 31.9961 32.4779 31.8693 32.6544 31.7292C32.6925 31.699 32.6258 31.6972 32.7343 31.6465C32.7416 31.6431 32.7908 31.6438 32.8271 31.6259C32.8522 31.6135 32.915 31.5548 32.9495 31.5421C32.9839 31.5294 32.9335 31.5817 32.9771 31.5708C33.0211 31.5596 33.0942 31.4951 33.1244 31.5161ZM38.0353 32.2248C37.9515 32.2049 38.203 32.3668 38.1581 32.3037C38.1556 32.3004 38.0395 32.2257 38.0353 32.2248ZM39.7611 29.3744C39.6302 29.335 39.7816 29.4587 39.8815 29.4912C39.9812 29.5236 39.8009 29.3863 39.7611 29.3744ZM39.8773 29.0068C39.7668 28.9873 40.123 29.2177 40.0741 29.1341C40.0714 29.1293 39.8838 29.0079 39.8773 29.0068ZM32.1597 32.2938C32.1626 32.2912 32.1524 32.271 32.1489 32.273C32.0658 32.3205 32.0864 32.3607 32.1597 32.2938ZM39.9847 28.6371C39.9291 28.6178 39.9653 28.685 40.0344 28.7089C40.09 28.7282 40.0539 28.661 39.9847 28.6371ZM37.0033 33.2738C36.9993 33.2718 36.9874 33.2832 37.009 33.2963C37.0784 33.3384 37.0707 33.3074 37.0033 33.2738ZM40.3143 28.1005C40.2515 28.171 39.9245 28.0331 40.0117 27.9682C40.0275 27.9564 40.0855 28.0609 40.1246 28.0578C40.1961 28.0521 40.0246 27.9115 40.1476 27.937C40.1701 27.9417 40.3186 28.0969 40.3146 28.1009C40.3145 28.1008 40.3144 28.1007 40.3143 28.1005ZM37.7223 32.0479C37.7186 32.0462 37.7038 32.063 37.7068 32.0655C37.781 32.126 37.811 32.0923 37.7223 32.0479ZM36.3527 33.9657C36.345 33.9623 36.3111 34.0016 36.3168 34.0072C36.4343 34.1121 36.5031 34.0329 36.3527 33.9657ZM38.3256 30.6697C38.2573 30.5986 38.2631 30.5682 38.375 30.6154C38.3569 30.6324 38.3433 30.6524 38.3256 30.6697Z" fill="#DFDFDF"/>
<g filter="url(#filter1_dd_1963_11880)">
<path d="M65.8104 46.0724C72.7474 46.0724 78.3708 40.4597 78.3708 33.5362C78.3708 26.6126 72.7474 21 65.8104 21C58.8735 21 53.25 26.6126 53.25 33.5362C53.25 40.4597 58.8735 46.0724 65.8104 46.0724Z" fill="#C9C9C9"/>
<path d="M65.8104 43.6909C71.4359 43.6909 75.9963 39.1393 75.9963 33.5246C75.9963 27.91 71.4359 23.3584 65.8104 23.3584C60.1849 23.3584 55.6245 27.91 55.6245 33.5246C55.6245 39.1393 60.1849 43.6909 65.8104 43.6909Z" fill="#FEFEFE"/>
<path d="M66.062 25.2164C66.062 25.0778 65.9494 24.9653 65.8104 24.9653C65.6715 24.9653 65.5588 25.0778 65.5588 25.2164V33.3872C65.5588 33.5259 65.6715 33.6383 65.8104 33.6383C65.9494 33.6383 66.062 33.5259 66.062 33.3872V25.2164Z" fill="#E2E2E2"/>
<path d="M66.4361 34.1485C66.4361 33.8038 66.1561 33.5244 65.8108 33.5244C65.4655 33.5244 65.1855 33.8038 65.1855 34.1485V41.5674C65.1855 41.912 65.4655 42.1914 65.8108 42.1914C66.1561 42.1914 66.4361 41.912 66.4361 41.5674V34.1485Z" fill="#E2E2E2"/>
<path d="M66.5029 34.4325C66.8384 34.0977 66.8384 33.5548 66.5029 33.22C66.1675 32.8852 65.6236 32.8852 65.2881 33.22L61.8826 36.6189C61.5472 36.9537 61.5472 37.4965 61.8826 37.8314C62.2181 38.1662 62.762 38.1662 63.0975 37.8314L66.5029 34.4325Z" fill="#E2E2E2"/>
<path d="M65.8106 35.1394C66.7044 35.1394 67.4289 34.4163 67.4289 33.5243C67.4289 32.6323 66.7044 31.9092 65.8106 31.9092C64.9169 31.9092 64.1924 32.6323 64.1924 33.5243C64.1924 34.4163 64.9169 35.1394 65.8106 35.1394Z" fill="#C9C9C9"/>
<path d="M65.7354 23.6475C71.1686 23.6476 75.5732 28.0521 75.5732 33.4854C75.5731 38.9185 71.1685 43.3231 65.7354 43.3232C60.3021 43.3232 55.8976 38.9186 55.8975 33.4854C55.8975 28.052 60.302 23.6475 65.7354 23.6475Z" stroke="#DADADA" stroke-width="0.3"/>
<path d="M66.0605 24.0078C66.269 24.0145 66.4758 24.025 66.6807 24.0449L66.667 24.1943C66.8713 24.2142 67.0742 24.2406 67.2744 24.2734L67.2969 24.127C67.5028 24.1607 67.706 24.2023 67.9072 24.249L67.874 24.3926C68.0734 24.4389 68.2706 24.491 68.4648 24.5498L68.5078 24.4072C68.707 24.4676 68.9033 24.5346 69.0967 24.6074L69.0449 24.7471C69.2362 24.8191 69.4243 24.8975 69.6094 24.9814L69.6699 24.8467C69.8594 24.9326 70.046 25.0233 70.2285 25.1211L70.1582 25.252C70.3382 25.3484 70.5147 25.451 70.6875 25.5586L70.7666 25.4326C70.9427 25.5423 71.1141 25.6586 71.2822 25.7793L71.1963 25.8994C71.3621 26.0185 71.5241 26.1431 71.6816 26.2725L71.7764 26.1553C71.9367 26.287 72.0909 26.4257 72.2422 26.5674L72.1416 26.6758C72.2905 26.8153 72.4347 26.9595 72.5742 27.1084L72.6816 27.0068C72.8234 27.1581 72.962 27.3124 73.0938 27.4727L72.9775 27.5684C73.1069 27.7259 73.2315 27.8879 73.3506 28.0537L73.4697 27.9668C73.5904 28.1349 73.7067 28.3064 73.8164 28.4824L73.6914 28.5625C73.799 28.7353 73.9016 28.9118 73.998 29.0918L74.1279 29.0205C74.2257 29.203 74.3164 29.3897 74.4023 29.5791L74.2686 29.6406C74.3525 29.8257 74.4309 30.0138 74.5029 30.2051L74.6416 30.1523C74.7145 30.3458 74.7814 30.542 74.8418 30.7412L74.7002 30.7852C74.759 30.9794 74.8111 31.1766 74.8574 31.376L75 31.3418C75.0468 31.543 75.0883 31.7462 75.1221 31.9521L74.9766 31.9756C75.0094 32.1758 75.0358 32.3787 75.0557 32.583L75.2041 32.5684C75.224 32.7732 75.2345 32.98 75.2412 33.1885L75.0947 33.1934C75.098 33.2952 75.0996 33.3974 75.0996 33.5C75.0996 33.6026 75.098 33.7048 75.0947 33.8066L75.2412 33.8105C75.2345 34.019 75.224 34.2258 75.2041 34.4307L75.0557 34.417C75.0358 34.6213 75.0094 34.8242 74.9766 35.0244L75.1221 35.0469C75.0883 35.2528 75.0467 35.456 75 35.6572L74.8574 35.624C74.8111 35.8234 74.759 36.0206 74.7002 36.2148L74.8418 36.2578C74.7815 36.457 74.7144 36.6532 74.6416 36.8467L74.5029 36.7949C74.4309 36.9862 74.3525 37.1743 74.2686 37.3594L74.4023 37.4199C74.3164 37.6094 74.2257 37.796 74.1279 37.9785L73.998 37.9082C73.9016 38.0882 73.799 38.2647 73.6914 38.4375L73.8164 38.5166C73.7067 38.6927 73.5904 38.8641 73.4697 39.0322L73.3506 38.9463C73.2315 39.1121 73.1069 39.2741 72.9775 39.4316L73.0938 39.5264C72.962 39.6867 72.8234 39.8409 72.6816 39.9922L72.5742 39.8916C72.4347 40.0405 72.2905 40.1847 72.1416 40.3242L72.2422 40.4316C72.0909 40.5734 71.9367 40.712 71.7764 40.8438L71.6816 40.7275C71.5241 40.8569 71.3621 40.9815 71.1963 41.1006L71.2822 41.2197C71.1141 41.3404 70.9427 41.4567 70.7666 41.5664L70.6875 41.4414C70.5147 41.549 70.3382 41.6516 70.1582 41.748L70.2285 41.8779C70.046 41.9757 69.8594 42.0664 69.6699 42.1523L69.6094 42.0186C69.4243 42.1025 69.2362 42.1809 69.0449 42.2529L69.0967 42.3916C68.9032 42.4644 68.707 42.5315 68.5078 42.5918L68.4648 42.4502C68.2706 42.509 68.0734 42.5611 67.874 42.6074L67.9072 42.75C67.706 42.7967 67.5028 42.8383 67.2969 42.8721L67.2744 42.7266C67.0742 42.7594 66.8713 42.7858 66.667 42.8057L66.6807 42.9541C66.4758 42.974 66.269 42.9845 66.0605 42.9912L66.0566 42.8447C65.9548 42.848 65.8526 42.8496 65.75 42.8496C65.6474 42.8496 65.5452 42.848 65.4434 42.8447L65.4385 42.9912C65.23 42.9845 65.0232 42.974 64.8184 42.9541L64.833 42.8057C64.6287 42.7858 64.4258 42.7594 64.2256 42.7266L64.2021 42.8721C63.9962 42.8383 63.793 42.7968 63.5918 42.75L63.626 42.6074C63.4266 42.5611 63.2294 42.509 63.0352 42.4502L62.9912 42.5918C62.792 42.5314 62.5958 42.4645 62.4023 42.3916L62.4551 42.2529C62.2638 42.1809 62.0757 42.1025 61.8906 42.0186L61.8291 42.1523C61.6397 42.0664 61.453 41.9757 61.2705 41.8779L61.3418 41.748C61.1618 41.6516 60.9853 41.549 60.8125 41.4414L60.7324 41.5664C60.5564 41.4567 60.3849 41.3404 60.2168 41.2197L60.3037 41.1006C60.1379 40.9815 59.9759 40.8569 59.8184 40.7275L59.7227 40.8438C59.5624 40.712 59.4081 40.5734 59.2568 40.4316L59.3584 40.3242C59.2095 40.1847 59.0653 40.0405 58.9258 39.8916L58.8174 39.9922C58.6757 39.8409 58.537 39.6867 58.4053 39.5264L58.5225 39.4316C58.3931 39.2741 58.2685 39.1121 58.1494 38.9463L58.0293 39.0322C57.9086 38.8641 57.7923 38.6927 57.6826 38.5166L57.8086 38.4375C57.701 38.2647 57.5984 38.0882 57.502 37.9082L57.3711 37.9785C57.2733 37.796 57.1826 37.6094 57.0967 37.4199L57.2314 37.3594C57.1475 37.1743 57.0691 36.9862 56.9971 36.7949L56.8574 36.8467C56.7846 36.6533 56.7176 36.457 56.6572 36.2578L56.7998 36.2148C56.741 36.0206 56.6889 35.8234 56.6426 35.624L56.499 35.6572C56.4523 35.456 56.4107 35.2528 56.377 35.0469L56.5234 35.0244C56.4906 34.8242 56.4642 34.6213 56.4443 34.417L56.2949 34.4307C56.275 34.2258 56.2645 34.019 56.2578 33.8105L56.4053 33.8066L56.4004 33.5C56.4004 33.3974 56.402 33.2952 56.4053 33.1934L56.2578 33.1885C56.2645 32.98 56.275 32.7732 56.2949 32.5684L56.4443 32.583C56.4642 32.3787 56.4906 32.1758 56.5234 31.9756L56.377 31.9521C56.4107 31.7463 56.4523 31.543 56.499 31.3418L56.6426 31.376C56.6889 31.1766 56.741 30.9794 56.7998 30.7852L56.6572 30.7412C56.7176 30.542 56.7846 30.3458 56.8574 30.1523L56.9971 30.2051C57.0691 30.0138 57.1475 29.8257 57.2314 29.6406L57.0967 29.5791C57.1826 29.3897 57.2733 29.203 57.3711 29.0205L57.502 29.0918C57.5984 28.9118 57.701 28.7353 57.8086 28.5625L57.6826 28.4824C57.7923 28.3064 57.9086 28.1349 58.0293 27.9668L58.1494 28.0537C58.2685 27.8879 58.3931 27.7259 58.5225 27.5684L58.4053 27.4727C58.537 27.3124 58.6757 27.1581 58.8174 27.0068L58.9258 27.1084C59.0653 26.9595 59.2095 26.8153 59.3584 26.6758L59.2568 26.5674C59.4081 26.4257 59.5624 26.287 59.7227 26.1553L59.8184 26.2725C59.9759 26.1431 60.1379 26.0185 60.3037 25.8994L60.2168 25.7793C60.3849 25.6586 60.5564 25.5423 60.7324 25.4326L60.8125 25.5586C60.9853 25.451 61.1618 25.3484 61.3418 25.252L61.2705 25.1211C61.453 25.0233 61.6397 24.9326 61.8291 24.8467L61.8906 24.9814C62.0757 24.8975 62.2638 24.8191 62.4551 24.7471L62.4023 24.6074C62.5958 24.5346 62.792 24.4676 62.9912 24.4072L63.0352 24.5498C63.2294 24.491 63.4266 24.4389 63.626 24.3926L63.5918 24.249C63.793 24.2023 63.9963 24.1607 64.2021 24.127L64.2256 24.2734C64.4258 24.2406 64.6287 24.2142 64.833 24.1943L64.8184 24.0449C65.0232 24.025 65.23 24.0145 65.4385 24.0078L65.4434 24.1553C65.5452 24.152 65.6474 24.1504 65.75 24.1504C65.8526 24.1504 65.9548 24.152 66.0566 24.1553L66.0605 24.0078Z" stroke="#DADADA" stroke-width="0.3" stroke-dasharray="0.6 0.6"/>
</g>
<defs>
<filter id="filter0_dd_1963_11880" x="0.690186" y="6.43945" width="27.6736" height="28.9219" filterUnits="userSpaceOnUse" color-interpolation-filters="sRGB">
<feFlood flood-opacity="0" result="BackgroundImageFix"/>
<feColorMatrix in="SourceAlpha" type="matrix" values="0 0 0 0 0 0 0 0 0 0 0 0 0 0 0 0 0 0 127 0" result="hardAlpha"/>
<feOffset/>
<feGaussianBlur stdDeviation="1"/>
<feComposite in2="hardAlpha" operator="out"/>
<feColorMatrix type="matrix" values="0 0 0 0 0 0 0 0 0 0 0 0 0 0 0 0 0 0 0.05 0"/>
<feBlend mode="normal" in2="BackgroundImageFix" result="effect1_dropShadow_1963_11880"/>
<feColorMatrix in="SourceAlpha" type="matrix" values="0 0 0 0 0 0 0 0 0 0 0 0 0 0 0 0 0 0 127 0" result="hardAlpha"/>
<feOffset dy="1"/>
<feGaussianBlur stdDeviation="1"/>
<feComposite in2="hardAlpha" operator="out"/>
<feColorMatrix type="matrix" values="0 0 0 0 0 0 0 0 0 0 0 0 0 0 0 0 0 0 0.05 0"/>
<feBlend mode="normal" in2="effect1_dropShadow_1963_11880" result="effect2_dropShadow_1963_11880"/>
<feBlend mode="normal" in="SourceGraphic" in2="effect2_dropShadow_1963_11880" result="shape"/>
</filter>
<filter id="filter1_dd_1963_11880" x="51.25" y="19" width="29.1208" height="30.0723" filterUnits="userSpaceOnUse" color-interpolation-filters="sRGB">
<feFlood flood-opacity="0" result="BackgroundImageFix"/>
<feColorMatrix in="SourceAlpha" type="matrix" values="0 0 0 0 0 0 0 0 0 0 0 0 0 0 0 0 0 0 127 0" result="hardAlpha"/>
<feOffset/>
<feGaussianBlur stdDeviation="1"/>
<feComposite in2="hardAlpha" operator="out"/>
<feColorMatrix type="matrix" values="0 0 0 0 0 0 0 0 0 0 0 0 0 0 0 0 0 0 0.05 0"/>
<feBlend mode="normal" in2="BackgroundImageFix" result="effect1_dropShadow_1963_11880"/>
<feColorMatrix in="SourceAlpha" type="matrix" values="0 0 0 0 0 0 0 0 0 0 0 0 0 0 0 0 0 0 127 0" result="hardAlpha"/>
<feOffset dy="1"/>
<feGaussianBlur stdDeviation="1"/>
<feComposite in2="hardAlpha" operator="out"/>
<feColorMatrix type="matrix" values="0 0 0 0 0 0 0 0 0 0 0 0 0 0 0 0 0 0 0.05 0"/>
<feBlend mode="normal" in2="effect1_dropShadow_1963_11880" result="effect2_dropShadow_1963_11880"/>
<feBlend mode="normal" in="SourceGraphic" in2="effect2_dropShadow_1963_11880" result="shape"/>
</filter>
</defs>
</svg>
