<svg width="44" height="45" viewBox="0 0 44 45" fill="none" xmlns="http://www.w3.org/2000/svg">
<g filter="url(#filter0_dd_1963_6057)">
<path d="M2 22C2 10.9543 10.9543 2 22 2C33.0457 2 42 10.9543 42 22C42 33.0457 33.0457 42 22 42C10.9543 42 2 33.0457 2 22Z" fill="white"/>
<path d="M19.2122 17.9726V18.9726C19.5679 18.9726 19.8968 18.7837 20.076 18.4765L19.2122 17.9726ZM20.3629 16V15C20.0072 15 19.6783 15.1889 19.4991 15.4961L20.3629 16ZM24.6369 16L25.5007 15.4961C25.3215 15.1889 24.9926 15 24.6369 15V16ZM25.7876 17.9726L24.9238 18.4765C25.103 18.7837 25.4319 18.9726 25.7876 18.9726V17.9726ZM15.9246 26.3562H16.9246V19.6164H15.9246H14.9246V26.3562H15.9246ZM17.5684 17.9726V18.9726H19.2122V17.9726V16.9726H17.5684V17.9726ZM19.2122 17.9726L20.076 18.4765L21.2267 16.5039L20.3629 16L19.4991 15.4961L18.3485 17.4687L19.2122 17.9726ZM20.3629 16V17H24.6369V16V15H20.3629V16ZM24.6369 16L23.7731 16.5039L24.9238 18.4765L25.7876 17.9726L26.6514 17.4687L25.5007 15.4961L24.6369 16ZM25.7876 17.9726V18.9726H27.4314V17.9726V16.9726H25.7876V17.9726ZM29.0752 19.6164H28.0752V26.3562H29.0752H30.0752V19.6164H29.0752ZM29.0752 26.3562H28.0752C28.0752 26.7117 27.787 27 27.4314 27V28V29C28.8916 29 30.0752 27.8163 30.0752 26.3562H29.0752ZM27.4314 17.9726V18.9726C27.787 18.9726 28.0752 19.2609 28.0752 19.6164H29.0752H30.0752C30.0752 18.1563 28.8916 16.9726 27.4314 16.9726V17.9726ZM15.9246 19.6164H16.9246C16.9246 19.2609 17.2128 18.9726 17.5684 18.9726V17.9726V16.9726C16.1082 16.9726 14.9246 18.1563 14.9246 19.6164H15.9246ZM17.5684 28V27C17.2128 27 16.9246 26.7117 16.9246 26.3562H15.9246H14.9246C14.9246 27.8163 16.1082 29 17.5684 29V28ZM24.9657 22.5753H23.9657C23.9657 23.3849 23.3094 24.0411 22.4999 24.0411V25.0411V26.0411C24.414 26.0411 25.9657 24.4894 25.9657 22.5753H24.9657ZM22.4999 25.0411V24.0411C21.6904 24.0411 21.0341 23.3849 21.0341 22.5753H20.0341H19.0341C19.0341 24.4894 20.5858 26.0411 22.4999 26.0411V25.0411ZM20.0341 22.5753H21.0341C21.0341 21.7658 21.6904 21.1096 22.4999 21.1096V20.1096V19.1096C20.5858 19.1096 19.0341 20.6613 19.0341 22.5753H20.0341ZM22.4999 20.1096V21.1096C23.3094 21.1096 23.9657 21.7658 23.9657 22.5753H24.9657H25.9657C25.9657 20.6613 24.414 19.1096 22.4999 19.1096V20.1096ZM27.4314 28V27H17.5684V28V29H27.4314V28Z" fill="#51D3E1"/>
</g>
<defs>
<filter id="filter0_dd_1963_6057" x="0" y="0" width="44" height="45" filterUnits="userSpaceOnUse" color-interpolation-filters="sRGB">
<feFlood flood-opacity="0" result="BackgroundImageFix"/>
<feColorMatrix in="SourceAlpha" type="matrix" values="0 0 0 0 0 0 0 0 0 0 0 0 0 0 0 0 0 0 127 0" result="hardAlpha"/>
<feOffset/>
<feGaussianBlur stdDeviation="1"/>
<feComposite in2="hardAlpha" operator="out"/>
<feColorMatrix type="matrix" values="0 0 0 0 0 0 0 0 0 0 0 0 0 0 0 0 0 0 0.05 0"/>
<feBlend mode="normal" in2="BackgroundImageFix" result="effect1_dropShadow_1963_6057"/>
<feColorMatrix in="SourceAlpha" type="matrix" values="0 0 0 0 0 0 0 0 0 0 0 0 0 0 0 0 0 0 127 0" result="hardAlpha"/>
<feOffset dy="1"/>
<feGaussianBlur stdDeviation="1"/>
<feComposite in2="hardAlpha" operator="out"/>
<feColorMatrix type="matrix" values="0 0 0 0 0 0 0 0 0 0 0 0 0 0 0 0 0 0 0.05 0"/>
<feBlend mode="normal" in2="effect1_dropShadow_1963_6057" result="effect2_dropShadow_1963_6057"/>
<feBlend mode="normal" in="SourceGraphic" in2="effect2_dropShadow_1963_6057" result="shape"/>
</filter>
</defs>
</svg>
