<svg width="44" height="45" viewBox="0 0 44 45" fill="none" xmlns="http://www.w3.org/2000/svg">
<g filter="url(#filter0_dd_1963_6062)">
<path d="M2 22C2 10.9543 10.9543 2 22 2C33.0457 2 42 10.9543 42 22C42 33.0457 33.0457 42 22 42C10.9543 42 2 33.0457 2 22Z" fill="white"/>
<path d="M18 23.75L20.625 26M22.5 27.875H28.5M17.625 23.75L25.0196 16.0971C25.8158 15.301 27.1067 15.301 27.9029 16.0971C28.699 16.8933 28.699 18.1842 27.9029 18.9804L20.25 26.375L16.5 27.5L17.625 23.75Z" stroke="#51D3E1" stroke-width="2" stroke-linecap="round" stroke-linejoin="round"/>
</g>
<defs>
<filter id="filter0_dd_1963_6062" x="0" y="0" width="44" height="45" filterUnits="userSpaceOnUse" color-interpolation-filters="sRGB">
<feFlood flood-opacity="0" result="BackgroundImageFix"/>
<feColorMatrix in="SourceAlpha" type="matrix" values="0 0 0 0 0 0 0 0 0 0 0 0 0 0 0 0 0 0 127 0" result="hardAlpha"/>
<feOffset/>
<feGaussianBlur stdDeviation="1"/>
<feComposite in2="hardAlpha" operator="out"/>
<feColorMatrix type="matrix" values="0 0 0 0 0 0 0 0 0 0 0 0 0 0 0 0 0 0 0.05 0"/>
<feBlend mode="normal" in2="BackgroundImageFix" result="effect1_dropShadow_1963_6062"/>
<feColorMatrix in="SourceAlpha" type="matrix" values="0 0 0 0 0 0 0 0 0 0 0 0 0 0 0 0 0 0 127 0" result="hardAlpha"/>
<feOffset dy="1"/>
<feGaussianBlur stdDeviation="1"/>
<feComposite in2="hardAlpha" operator="out"/>
<feColorMatrix type="matrix" values="0 0 0 0 0 0 0 0 0 0 0 0 0 0 0 0 0 0 0.05 0"/>
<feBlend mode="normal" in2="effect1_dropShadow_1963_6062" result="effect2_dropShadow_1963_6062"/>
<feBlend mode="normal" in="SourceGraphic" in2="effect2_dropShadow_1963_6062" result="shape"/>
</filter>
</defs>
</svg>
