<svg width="59" height="86" viewBox="0 0 59 86" fill="none" xmlns="http://www.w3.org/2000/svg">
<rect x="0.25" y="5.2124" width="58" height="79.9697" rx="4" fill="#CFCFCF"/>
<rect x="3.76514" y="8.72754" width="50.9697" height="71.1818" rx="4" fill="#E2DFDF"/>
<path d="M3.80247 10.7616C3.78319 9.64107 4.68587 8.72754 5.80655 8.72754H52.6531C53.789 8.72754 54.6969 9.67246 54.6515 10.8075L52.1751 72.7166C52.1322 73.7892 51.2502 74.6366 50.1767 74.6366H3.38416C2.18468 74.6366 1.2527 73.5935 1.38761 72.4016C1.97823 67.1841 3.40159 53.885 3.76492 43.8791C4.14272 33.4745 3.90242 16.5687 3.80247 10.7616Z" fill="#E9E9E9"/>
<rect x="8.75635" y="18.5078" width="4.97314" height="4.97314" rx="1" fill="white"/>
<rect x="16.7134" y="18.5078" width="32.2425" height="4.97314" rx="1" fill="white"/>
<rect x="8.75635" y="29.9463" width="4.97314" height="4.97314" rx="1" fill="white"/>
<rect x="16.7134" y="29.9463" width="32.2425" height="4.97314" rx="1" fill="white"/>
<rect x="8.75635" y="41.3843" width="4.97314" height="4.97314" rx="1" fill="white"/>
<rect x="16.7134" y="41.3843" width="32.2425" height="4.97314" rx="1" fill="white"/>
<rect x="8.75635" y="52.8228" width="4.97314" height="4.97314" rx="1" fill="white"/>
<rect x="16.7134" y="52.8228" width="32.2425" height="4.97314" rx="1" fill="white"/>
<path d="M9.9165 21.0175L10.9092 21.9094L12.5529 20.1519" stroke="#E9E4E4" stroke-width="2" stroke-linecap="round"/>
<rect x="16.0684" y="3.45459" width="27.2424" height="7.90909" rx="2" fill="#E3E3E3"/>
<path d="M26.6138 3.89412C26.6138 2.19542 27.9908 0.818359 29.6895 0.818359C31.3882 0.818359 32.7653 2.19542 32.7653 3.89412C32.7653 5.59281 31.3882 6.96987 29.6895 6.96987C27.9908 6.96987 26.6138 5.59281 26.6138 3.89412Z" fill="#E3E3E3"/>
<path d="M49.9014 65.4094L52.5378 60.1367L54.2953 74.6367L49.0226 78.5913L28.3711 76.3943L49.9014 65.4094Z" fill="#E2DFDF"/>
<path d="M39.0856 63.6306C37.9397 67.5819 33.857 72.3355 31.0078 74.6367C45.2973 73.9135 51.9744 64.6687 52.7578 59.6973C51.1536 63.5533 46.2594 62.8399 42.5509 61.4558C41.573 61.0908 39.3763 62.6281 39.0856 63.6306Z" fill="#D9D9D9"/>
<circle cx="29.6893" cy="3.89435" r="1.31818" fill="white"/>
</svg>
