<svg width="328" height="244" viewBox="0 0 328 244" fill="none" xmlns="http://www.w3.org/2000/svg">
<path d="M138.619 111.29C139.147 111.006 140.234 110.68 140.833 110.504C140.844 110.5 140.855 110.497 140.866 110.494C141.008 110.452 141.141 110.408 141.297 110.358C141.671 110.237 142.172 110.072 143.242 109.792C143.548 109.688 143.851 109.586 144.158 109.486C147.044 108.538 149.966 107.681 152.927 106.935C153.354 106.828 153.776 106.724 154.203 106.622C154.245 106.609 154.289 106.596 154.332 106.584C155.171 106.335 156.221 106.036 156.894 105.914C157.749 105.759 158.337 105.678 158.821 105.615C161.046 105.184 163.265 104.789 165.574 104.549C166.113 104.499 166.645 104.451 167.274 104.475C167.499 104.489 167.727 104.498 168.066 104.596C168.234 104.652 168.459 104.723 168.725 104.969C169.004 105.208 169.14 105.675 169.149 105.78C169.289 106.673 169.075 107.251 168.917 107.805C168.642 108.658 168.308 109.402 167.977 110.146C167.811 110.591 167.658 111.011 167.514 111.401C167.481 111.493 167.447 111.584 167.414 111.674C167.315 111.986 167.26 112.302 167.213 112.573C167.147 112.951 167.093 113.377 167.073 113.777C167.062 113.976 167.061 114.171 167.069 114.325C167.072 114.402 167.079 114.471 167.082 114.502C167.083 114.517 167.084 114.522 167.073 114.498C167.053 114.466 167.063 114.427 166.894 114.215C166.902 114.227 166.911 114.239 166.919 114.25C166.956 114.299 166.994 114.341 167.033 114.378C167.272 114.529 167.661 114.614 168.198 114.617C168.233 114.634 168.267 114.651 168.304 114.669C168.767 114.892 169.424 114.855 170.553 114.762C170.86 114.738 171.204 114.712 171.597 114.699C171.798 114.692 172.006 114.681 172.229 114.662C172.607 114.63 172.821 114.677 172.999 114.718C173.051 114.73 173.101 114.741 173.15 114.748C173.32 114.771 173.484 114.684 173.677 114.577C173.926 114.44 174.228 114.269 174.676 114.273C174.96 114.276 175.211 114.265 175.435 114.243C176.325 114.158 176.755 113.901 177.095 113.695C177.219 113.619 177.333 113.55 177.451 113.5C177.839 113.335 178.428 113.282 178.884 113.289C179.246 113.295 179.917 113.06 180.417 112.835C180.605 112.75 180.871 112.689 181.185 112.616C181.51 112.54 181.883 112.453 182.275 112.313C182.365 112.281 182.456 112.248 182.538 112.219C183.358 111.925 183.824 111.758 184.208 111.622C184.33 111.579 184.441 111.539 184.555 111.499C184.911 111.371 185.359 111.228 185.821 111.085C186.223 110.96 186.635 110.836 186.994 110.721L186.754 110.783C186.873 110.729 186.979 110.677 187.081 110.625C188.098 110.326 189.091 110.003 190.032 109.618C190.453 109.447 190.897 109.389 191.412 109.433L191.283 109.505C191.257 109.573 191.271 109.625 191.314 109.654C191.715 109.773 192.296 109.858 192.627 110.227C192.959 110.589 193.212 111.033 193.043 111.673C193.007 111.769 192.941 111.883 192.831 112.004C192.811 112.016 192.751 112.051 192.73 112.061C192.549 112.458 192.155 112.849 191.68 113.101C190.563 113.695 189.42 114.185 188.268 114.605C188.183 114.636 188.097 114.667 188.009 114.698C187.967 114.711 187.842 114.746 187.799 114.753C186.541 115.046 185.257 115.367 183.94 115.633C183.733 115.675 183.525 115.717 183.316 115.758C182.539 115.91 181.766 116.051 180.99 116.187C180.889 116.204 180.787 116.222 180.686 116.239C179.886 116.504 179.083 116.753 178.51 116.895C178.036 117.012 177.676 117.021 177.367 117.029C177.153 117.035 176.966 117.04 176.782 117.078C176.683 117.098 176.548 117.13 176.386 117.167C176.279 117.191 176.158 117.219 176.03 117.247C175.363 117.393 174.444 117.589 173.486 117.643C172.982 117.67 172.337 117.65 171.75 117.578C171.726 117.575 171.702 117.572 171.678 117.569C171.023 117.465 170.357 117.408 170.015 117.453C169.398 117.537 168.637 117.519 167.9 117.403C167.199 117.3 166.53 117.061 166.12 116.923C165.638 116.767 165.24 116.463 164.856 115.937C164.828 115.903 164.804 115.87 164.782 115.838C164.567 115.498 164.563 115.354 164.522 115.193C164.491 115.039 164.477 114.903 164.467 114.769C164.448 114.499 164.449 114.229 164.461 113.926C164.492 113.23 164.621 112.767 164.743 112.375C164.925 111.824 165.079 111.43 165.289 110.782C165.306 110.732 165.324 110.682 165.342 110.632C165.537 110.079 165.761 109.537 165.992 109.128C166.105 108.93 166.216 108.695 166.326 108.452C166.472 108.129 166.617 107.793 166.764 107.506C166.887 107.267 167.018 107.09 167.126 106.933C167.16 106.882 167.19 106.837 167.218 106.79C167.264 106.605 167.292 106.429 167.294 106.292C167.284 106.27 167.272 106.248 167.259 106.228C167.24 106.197 167.217 106.17 167.194 106.15C167.156 106.081 167.182 106.316 167.309 106.45C167.426 106.581 167.472 106.59 167.451 106.599C167.289 106.607 166.807 106.567 166.399 106.555C166.207 106.549 166.006 106.548 165.79 106.559C165.634 106.566 165.466 106.581 165.291 106.606C165.01 106.645 164.69 106.712 164.375 106.781C163.906 106.883 163.444 106.992 163.113 107.022C162.991 107.033 162.875 107.013 162.766 106.993C162.765 106.993 162.765 106.993 162.764 106.992C162.757 106.991 162.75 106.99 162.742 106.988C161.949 107.151 161.161 107.329 160.374 107.517C160.307 107.54 160.237 107.563 160.171 107.586C159.845 107.696 159.526 107.805 159.326 107.908C159.11 108.02 158.539 108.177 157.937 108.348C157.54 108.46 157.137 108.576 156.807 108.686C156.614 108.75 156.421 108.757 156.217 108.765C156.032 108.772 155.838 108.781 155.638 108.837C155.539 108.864 155.434 108.904 155.322 108.947C155.222 108.985 155.118 109.024 155.008 109.059C154.905 109.092 154.664 109.13 154.36 109.179C154.169 109.21 153.956 109.245 153.731 109.286C153.677 109.302 153.622 109.317 153.568 109.333C153.046 109.483 152.519 109.635 151.996 109.787C151.88 109.847 151.787 109.91 151.716 109.979C151.666 110.028 151.626 110.081 151.585 110.136C151.529 110.21 151.47 110.286 151.382 110.358C151.312 110.414 151.223 110.452 151.156 110.453C151.124 110.453 151.098 110.446 151.074 110.44C151.047 110.432 151.023 110.426 150.997 110.433C150.979 110.438 150.962 110.452 150.942 110.47C150.91 110.498 150.867 110.534 150.793 110.554C150.518 110.628 150.2 110.702 149.89 110.774C149.543 110.856 149.207 110.936 148.942 111.013C148.645 111.1 148.209 111.179 147.772 111.261C147.468 111.318 147.161 111.377 146.904 111.437C146.65 111.496 146.395 111.586 146.148 111.673C145.849 111.777 145.566 111.877 145.308 111.918C145.256 111.926 145.184 111.908 145.093 111.887C145.028 111.872 144.954 111.855 144.872 111.843C144.556 111.932 144.242 112.019 143.925 112.106C143.915 112.114 143.905 112.122 143.895 112.13C143.895 112.13 143.895 112.13 143.894 112.13C143.669 112.311 143.358 112.554 142.834 112.608C142.7 112.622 142.608 112.604 142.526 112.589C142.444 112.574 142.372 112.56 142.277 112.58C142.171 112.602 142.053 112.659 141.926 112.721C141.747 112.808 141.546 112.904 141.324 112.931C141.308 112.933 141.292 112.935 141.275 112.937C141.114 112.957 140.876 112.987 140.627 112.983C139.951 113.158 139.272 113.332 138.594 113.506C137.464 113.796 136.332 114.085 135.202 114.378C134.652 114.52 134.104 114.592 133.679 114.577C133.253 114.561 132.985 114.461 132.93 114.288C132.876 114.114 133.038 113.878 133.377 113.621C133.717 113.363 134.207 113.107 134.739 112.906C135.606 112.58 136.474 112.253 137.342 111.927C137.387 111.907 137.432 111.888 137.477 111.869C137.811 111.727 138.111 111.565 138.411 111.402C138.48 111.365 138.549 111.327 138.619 111.29Z" fill="#2ECADC"/>
<path d="M291.658 31.8076L291.658 43.5674" stroke="#B9EDF3" stroke-width="3"/>
<path d="M297.538 37.6875L285.778 37.6875" stroke="#B9EDF3" stroke-width="3"/>
<path d="M63.1836 129.644C70.6777 129.644 76.7529 135.719 76.7529 143.213C76.7528 150.707 70.6777 156.782 63.1836 156.782H36.4463C35.1929 156.782 33.9794 156.611 32.8271 156.293C32.6972 156.376 32.5682 156.461 32.4365 156.543C30.207 157.93 27.7222 159.206 26.1123 159.959L25.5801 159.122C28.0074 157.097 28.6399 155.574 28.7061 154.515C28.7093 154.463 28.7101 154.411 28.7109 154.361C25.1855 151.911 22.877 147.832 22.877 143.213C22.877 135.719 28.9522 129.644 36.4463 129.644H63.1836Z" fill="#DCF6F9"/>
<path d="M258.946 22.6191C250.702 22.6194 244.019 29.3026 244.019 37.5469C244.019 45.7913 250.702 52.4753 258.946 52.4756H259.322C267.567 52.4754 274.25 45.7913 274.25 37.5469C274.25 29.3026 267.567 22.6193 259.322 22.6191H258.946Z" fill="#DBF5F8"/>
<path d="M28.9375 103.657C22.9127 103.657 18.0283 108.542 18.0283 114.566L18.042 115.127C18.3339 120.891 23.1008 125.475 28.9375 125.475H29.2109L29.7725 125.461C35.3507 125.178 39.8229 120.705 40.1055 115.127L40.1201 114.566C40.1201 108.73 35.5364 103.964 29.7725 103.672L29.2109 103.657H28.9375ZM29.2109 109.657C31.922 109.657 34.1201 111.855 34.1201 114.566C34.1199 117.277 31.9219 119.475 29.2109 119.475H28.9375C26.2265 119.475 24.0285 117.277 24.0283 114.566C24.0283 111.855 26.2264 109.657 28.9375 109.657H29.2109Z" fill="#B9EDF3"/>
<path d="M286.399 75.5283C284.441 75.5283 282.854 77.1154 282.854 79.0732C282.854 81.031 284.441 82.6182 286.399 82.6182H286.488C288.446 82.6182 290.033 81.031 290.033 79.0732C290.033 77.1154 288.446 75.5283 286.488 75.5283H286.399Z" fill="#DBF5F8"/>
<rect width="7.17894" height="7.08984" rx="3.54492" transform="matrix(-1 0 0 1 229.294 192.254)" fill="#DBF5F8"/>
<rect width="12.9338" height="12.7733" rx="6.38665" transform="matrix(-1 0 0 1 229.294 203.349)" fill="#DBF5F8"/>
<rect x="47.8457" y="106.171" width="173.428" height="118.207" rx="14" transform="rotate(-13.6957 47.8457 106.171)" fill="#C9C9C9"/>
<line x1="73.4803" y1="99.9246" x2="101.468" y2="214.771" stroke="white"/>
<line x1="98.6291" y1="93.7957" x2="126.616" y2="208.642" stroke="white"/>
<line x1="123.778" y1="87.6668" x2="151.765" y2="202.513" stroke="white"/>
<line x1="148.927" y1="81.5379" x2="176.914" y2="196.384" stroke="white"/>
<line x1="174.076" y1="75.4099" x2="202.063" y2="190.256" stroke="white"/>
<line x1="199.224" y1="69.281" x2="227.212" y2="184.127" stroke="white"/>
<line x1="223.609" y1="104.039" x2="59.3038" y2="144.079" stroke="white"/>
<line x1="229.738" y1="129.188" x2="65.4325" y2="169.228" stroke="white"/>
<line x1="235.867" y1="154.336" x2="71.5611" y2="194.377" stroke="white"/>
<path d="M51.1604 119.773C49.3297 112.261 53.9355 104.687 61.4476 102.856L202.741 68.4239C210.253 66.5933 217.827 71.199 219.657 78.7112L222.063 88.5815L53.5657 129.643L51.1604 119.773Z" fill="#ABABAB"/>
<rect width="173.428" height="118.207" rx="14" transform="matrix(-0.971567 -0.236765 -0.236765 0.971567 277.237 75.5283)" fill="#DCF6F9"/>
<line y1="-0.5" x2="118.207" y2="-0.5" transform="matrix(-0.236765 0.971567 0.971567 0.236765 252.089 69.4004)" stroke="white"/>
<line y1="-0.5" x2="118.207" y2="-0.5" transform="matrix(-0.236765 0.971567 0.971567 0.236765 226.94 63.2715)" stroke="white"/>
<line y1="-0.5" x2="118.207" y2="-0.5" transform="matrix(-0.236765 0.971567 0.971567 0.236765 201.791 57.1426)" stroke="white"/>
<line y1="-0.5" x2="118.207" y2="-0.5" transform="matrix(-0.236765 0.971567 0.971567 0.236765 176.642 51.0146)" stroke="white"/>
<line y1="-0.5" x2="118.207" y2="-0.5" transform="matrix(-0.236765 0.971567 0.971567 0.236765 151.493 44.8857)" stroke="white"/>
<line y1="-0.5" x2="118.207" y2="-0.5" transform="matrix(-0.236765 0.971567 0.971567 0.236765 126.344 38.7568)" stroke="white"/>
<line y1="-0.5" x2="169.114" y2="-0.5" transform="matrix(0.971567 0.236765 0.236765 -0.971567 101.592 72.9102)" stroke="white"/>
<line y1="-0.5" x2="169.114" y2="-0.5" transform="matrix(0.971567 0.236765 0.236765 -0.971567 95.4634 98.0596)" stroke="white"/>
<line y1="-0.5" x2="169.114" y2="-0.5" transform="matrix(0.971567 0.236765 0.236765 -0.971567 89.3347 123.208)" stroke="white"/>
<path d="M273.923 89.1303C275.753 81.6181 271.148 74.0443 263.635 72.2136L122.342 37.7814C114.83 35.9507 107.256 40.5565 105.426 48.0686L103.02 57.9389L271.517 99.0006L273.923 89.1303Z" fill="#96E5ED"/>
<g filter="url(#filter0_d_3041_12403)">
<path d="M215.226 115.411L271.215 172.146L271.202 172.159C271.356 172.299 271.509 172.444 271.657 172.594C276.213 177.212 276.161 184.652 271.541 189.212C266.92 193.772 259.48 193.726 254.923 189.109C254.774 188.958 254.631 188.804 254.493 188.648L254.481 188.66L198.492 131.924L198.491 131.925L193.546 110.277L215.226 115.411Z" fill="#B9EDF3"/>
<path d="M215.229 115.701C214.904 115.371 210.905 118.79 206.298 123.336C201.927 127.65 198.581 131.43 198.527 132.087L193.545 110.278L215.465 115.468L215.229 115.701Z" fill="#EEFBFC"/>
<path d="M196.125 121.439L204.773 112.905L193.57 110.253L196.125 121.439Z" fill="#2ECADC"/>
</g>
<path d="M34.9541 85.6162L34.9541 97.376" stroke="#DBF5F8" stroke-width="3"/>
<path d="M40.834 91.4961L29.0742 91.4961" stroke="#DBF5F8" stroke-width="3"/>
<path d="M235.51 197.469L235.51 203.349" stroke="#DCF6F9" stroke-linecap="round"/>
<path d="M238.45 200.408L232.57 200.408" stroke="#DCF6F9" stroke-linecap="round"/>
<path d="M271.889 189.169C267.273 193.725 261.564 195.426 259.139 192.969C259.06 192.889 258.986 192.804 258.916 192.718L258.903 192.73L254.59 188.359L271.308 171.862L275.621 176.232L275.609 176.244C275.695 176.315 275.777 176.391 275.856 176.471C278.281 178.928 276.505 184.614 271.889 189.169Z" fill="#2ECADC"/>
<rect x="272.32" y="172.902" width="23.6005" height="1.33968" transform="rotate(135.38 272.32 172.902)" fill="white"/>
<rect x="271.379" y="171.948" width="23.6005" height="1.33968" transform="rotate(135.38 271.379 171.948)" fill="#86D1D9"/>
<path d="M244.2 61.3916C244.488 60.3253 245.586 59.6946 246.652 59.9829L270.036 66.3054C271.103 66.5937 271.733 67.6918 271.445 68.7581L259.109 114.384C258.676 115.987 256.591 116.394 255.586 115.072L248.197 105.352C247.648 104.629 246.679 104.367 245.84 104.715L234.56 109.387C233.026 110.023 231.43 108.62 231.864 107.018L244.2 61.3916Z" fill="#2ECADC"/>
<rect width="7.17894" height="7.08984" rx="3.54492" transform="matrix(-1 0 0 1 57.7354 98.4482)" fill="#DCF6F9"/>
<path d="M297.118 50.5039C291.093 50.5039 286.208 55.3883 286.208 61.4131L286.222 61.9736C286.514 67.7378 291.281 72.3213 297.118 72.3213H297.391L297.953 72.3076C303.531 72.025 308.003 67.5519 308.286 61.9736L308.3 61.4131C308.3 55.5765 303.717 50.8106 297.953 50.5186L297.391 50.5039H297.118ZM297.391 56.5039C300.102 56.5039 302.3 58.702 302.3 61.4131C302.3 64.124 300.102 66.3213 297.391 66.3213H297.118C294.407 66.3213 292.209 64.124 292.208 61.4131C292.208 58.702 294.407 56.5039 297.118 56.5039H297.391Z" fill="#DBF5F8"/>
<defs>
<filter id="filter0_d_3041_12403" x="180.245" y="96.9529" width="108.095" height="108.949" filterUnits="userSpaceOnUse" color-interpolation-filters="sRGB">
<feFlood flood-opacity="0" result="BackgroundImageFix"/>
<feColorMatrix in="SourceAlpha" type="matrix" values="0 0 0 0 0 0 0 0 0 0 0 0 0 0 0 0 0 0 127 0" result="hardAlpha"/>
<feOffset/>
<feGaussianBlur stdDeviation="6.65"/>
<feComposite in2="hardAlpha" operator="out"/>
<feColorMatrix type="matrix" values="0 0 0 0 0 0 0 0 0 0 0 0 0 0 0 0 0 0 0.25 0"/>
<feBlend mode="normal" in2="BackgroundImageFix" result="effect1_dropShadow_3041_12403"/>
<feBlend mode="normal" in="SourceGraphic" in2="effect1_dropShadow_3041_12403" result="shape"/>
</filter>
</defs>
</svg>
