<svg width="180" height="180" viewBox="0 0 180 180" fill="none" xmlns="http://www.w3.org/2000/svg">
<path d="M95.0979 40.6719H84.4642V51.837H95.0979V40.6719Z" fill="#2ECADC"/>
<path d="M89.775 179.01C126.074 179.01 155.501 149.64 155.501 113.411C155.501 77.1812 126.074 47.8115 89.775 47.8115C53.4756 47.8115 24.0491 77.1812 24.0491 113.411C24.0491 149.64 53.4756 179.01 89.775 179.01Z" fill="#96E5ED"/>
<path d="M89.7763 166.544C119.213 166.544 143.077 142.726 143.077 113.346C143.077 83.9658 119.213 60.1484 89.7763 60.1484C60.3392 60.1484 36.4758 83.9658 36.4758 113.346C36.4758 142.726 60.3392 166.544 89.7763 166.544Z" fill="white"/>
<path d="M95.0975 32.9912H84.4561C81.5219 32.9912 79.1432 35.3653 79.1432 38.2939V38.3016C79.1432 41.2302 81.5219 43.6043 84.4561 43.6043H95.0975C98.0318 43.6043 100.41 41.2302 100.41 38.3016V38.2939C100.41 35.3653 98.0318 32.9912 95.0975 32.9912Z" fill="#96E5ED"/>
<path d="M29.3468 34.679C17.3109 42.4619 12.7069 57.3825 17.4901 70.2659C18.6898 73.5004 22.6005 74.7911 25.5062 72.9095L65.8828 46.8005C68.7885 44.9267 69.2092 40.8369 66.7397 38.4188C56.9085 28.7932 41.3826 26.896 29.3468 34.679Z" fill="#96E5ED"/>
<path d="M151.069 35.9612C163.104 43.7442 167.708 58.6647 162.925 71.5481C161.726 74.7826 157.815 76.0733 154.909 74.1917L114.533 48.0827C111.627 46.2089 111.206 42.1191 113.676 39.7011C123.499 30.0754 139.033 28.1783 151.061 35.9612H151.069Z" fill="#96E5ED"/>
<path d="M138.526 155.738C135.769 152.987 131.301 152.987 128.544 155.738C125.788 158.489 125.788 162.949 128.544 165.7L137.881 175.019C140.637 177.77 145.106 177.77 147.863 175.019C150.619 172.268 150.619 167.808 147.863 165.057L138.526 155.738Z" fill="#96E5ED"/>
<path d="M32.1167 165.055C29.3605 167.806 29.3605 172.266 32.1167 175.017C34.873 177.768 39.3419 177.768 42.0981 175.017L51.4351 165.698C54.1913 162.947 54.1913 158.487 51.435 155.736C48.6788 152.985 44.2099 152.985 41.4536 155.736L32.1167 165.055Z" fill="#96E5ED"/>
<path d="M91.9254 69.8775C91.9254 69.1518 90.963 68.5635 89.7758 68.5635C88.5886 68.5635 87.6262 69.1518 87.6262 69.8775V112.633C87.6262 113.359 88.5886 113.947 89.7758 113.947C90.963 113.947 91.9254 113.359 91.9254 112.633V69.8775Z" fill="#96E5ED"/>
<path d="M93.2983 116.614C93.2983 114.811 91.7215 113.349 89.7764 113.349C87.8314 113.349 86.2546 114.811 86.2546 116.614V155.436C86.2546 157.239 87.8314 158.701 89.7764 158.701C91.7215 158.701 93.2983 157.239 93.2983 155.436V116.614Z" fill="#96E5ED"/>
<path d="M93.3982 118.101C95.1536 116.349 95.1536 113.508 93.3982 111.756C91.6428 110.004 88.7968 110.004 87.0414 111.756L69.2214 129.542C67.466 131.294 67.466 134.134 69.2214 135.886C70.9768 137.638 73.8228 137.638 75.5782 135.886L93.3982 118.101Z" fill="#96E5ED"/>
<path d="M89.776 121.798C94.4527 121.798 98.2439 118.014 98.2439 113.346C98.2439 108.678 94.4527 104.895 89.776 104.895C85.0993 104.895 81.3081 108.678 81.3081 113.346C81.3081 118.014 85.0993 121.798 89.776 121.798Z" fill="#73DCE7"/>
<path d="M117.655 22.1021C117.655 19.2641 115.356 16.9623 112.518 16.9618C109.68 16.9618 107.378 19.2638 107.378 22.1021C107.378 24.9399 109.68 27.2388 112.518 27.2388C115.356 27.2382 117.654 24.9396 117.655 22.1021ZM121.318 22.1021C121.317 26.9626 117.379 30.9012 112.518 30.9017C107.657 30.9017 103.715 26.9629 103.715 22.1021C103.715 17.2408 107.657 13.2988 112.518 13.2988C117.379 13.2994 121.318 17.2411 121.318 22.1021Z" fill="#96E5ED"/>
<path d="M133.593 15.5677C133.593 14.6476 132.846 13.9011 131.926 13.9008C131.005 13.9008 130.259 14.6474 130.259 15.5677C130.259 16.4878 131.006 17.2347 131.926 17.2347C132.846 17.2344 133.592 16.4876 133.593 15.5677ZM135.424 15.5677C135.424 17.4991 133.857 19.0658 131.926 19.0661C129.994 19.0661 128.428 17.4993 128.427 15.5677C128.427 13.6359 129.994 12.0693 131.926 12.0693C133.857 12.0696 135.424 13.6361 135.424 15.5677Z" fill="#96E5ED"/>
<path d="M125.338 3.92773H128.762V7.04883H125.338V10.4736H122.216V7.04883H118.791V3.92773H122.216V0.501953H125.338V3.92773Z" fill="#96E5ED"/>
</svg>
