<svg width="138" height="68" viewBox="0 0 138 68" fill="none" xmlns="http://www.w3.org/2000/svg">
<path d="M33.0877 23.2196C30.4341 24.4954 25.6205 24.8238 21.1637 24.739C15.3563 24.6286 9.51004 24.7778 5.22673 28.701C4.55525 29.316 3.83949 30.006 3.07973 30.7789C-0.653754 34.5767 0.688911 41.0464 2.89033 46.2406C4.52582 50.0996 7.57196 53.1151 10.9671 55.5725C15.4863 58.8436 20.755 60.9266 26.2892 61.6304L47.9131 64.3803C54.2215 65.1825 60.6283 64.6364 66.7099 62.7781C71.5201 61.3083 76.5343 60.6738 81.5628 60.7854C102.498 61.2501 133.822 60.671 134.794 55.4038C135.489 51.6398 135.489 45.6342 135.279 40.4516C135.073 35.3776 134.188 30.3662 132.934 25.4453C130.619 16.3605 127.645 5.12356 126.662 2.94705C124.917 -0.91812 119.69 2.27798 116.231 4.73192C114.17 6.19413 111.74 7.75207 109.253 9.0174C102.725 12.3389 85.888 6.72668 81.3066 4.89413C76.7253 3.06159 39.0435 20.3563 33.0877 23.2196Z" fill="#F2F2F2"/>
<path d="M40.1962 58.0378C8.47615 58.0834 2.00889 40.6779 2.73158 31.8333C2.73926 31.7393 2.76142 31.6483 2.79709 31.5611C4.66484 26.9923 9.03479 26.3959 11.6591 25.9873C11.8137 25.9633 11.8941 26.2085 11.7542 26.2784C11.7464 26.2823 11.7389 26.2871 11.732 26.2924C10.4113 27.3172 9.92094 27.7083 9.90191 28.8316C9.31184 36.0486 23.3258 43.1869 30.6024 45.9359C30.7383 45.9873 30.8795 46.0059 31.0244 45.9947L43.194 45.0526C43.7157 45.0122 44.1203 44.5785 44.0897 44.0561C43.8438 39.8513 41.9839 32.4152 35.9298 30.206C29.787 27.9644 29.5171 25.1584 30.2302 23.8249C30.315 23.6662 30.454 23.5571 30.6188 23.4849C43.2971 17.9378 72.6376 5.16261 74.4356 3.31908C75.1755 2.56047 76.1528 2.42218 76.8935 2.62554C77.8252 2.88129 79.2723 4.92435 80.2369 4.97827L80.5319 4.99477C81.4043 5.04353 81.799 6.10897 81.1689 6.71431L79.1891 8.61654C78.7817 9.00794 78.7787 9.65826 79.1811 10.0548C87.198 17.9548 101.172 32.8102 103.305 31.1222C105.504 29.3813 123.704 24.5041 132.347 22.3041C133.225 25.2534 134.512 31.2211 134.409 33.4774C134.306 35.7337 133.623 38.1804 133.255 38.8533C128.617 47.8443 89.5605 50.1922 87.4416 49.9631C85.3227 49.7341 71.9222 52.4829 64.5348 55.289C58.6248 57.5339 45.8466 58.0569 40.1962 58.0378Z" fill="#73DCE7"/>
<path d="M93.5055 10.4496C89.2582 8.29872 85.7713 7.91554 83.3045 8.19906C81.5053 8.40586 81.3957 10.4312 82.9111 11.4231C89.955 16.6344 101.637 19.0396 107.536 18.8106C113.434 18.5815 121.624 9.36155 124.373 5.58194C126.31 2.91858 125.812 2.42938 125.157 2.53324C124.974 2.56223 124.808 2.64891 124.655 2.75292C123.681 3.41427 121.33 5.41776 118.016 9.36155C113.492 14.7446 102.439 14.9737 93.5055 10.4496Z" fill="#B1B8BE"/>
<path d="M72.7593 12.475C52.9286 24.2746 51.2956 18.8178 53.1729 13.8608C53.4263 13.1917 53.9691 12.6825 54.6231 12.3926L70.7268 5.25468C72.5546 4.44452 74.6424 5.61621 74.9368 7.59368C75.0371 8.26713 75.1339 8.88435 75.2123 9.32041C75.4656 10.729 73.6825 12.0104 72.7593 12.475Z" fill="#D9D9D9"/>
<circle cx="73.763" cy="12.1116" r="2.305" fill="#F2F2F2"/>
<circle cx="73.7628" cy="12.1113" r="1.47463" fill="#D9D9D9"/>
<path d="M75.6384 4.60087C74.6457 2.17656 73.0442 1.94055 73.7773 12.1112" stroke="#F2F2F2" stroke-width="2" stroke-linecap="round"/>
<circle cx="63.2261" cy="16.2025" r="2.305" fill="#F2F2F2"/>
<circle cx="63.2249" cy="16.2051" r="1.47463" fill="#D9D9D9"/>
<path d="M64.7005 9.18766C63.7079 6.76336 62.4498 6.03186 63.1828 16.2025" stroke="#F2F2F2" stroke-width="2" stroke-linecap="round"/>
<circle cx="51.7512" cy="21.846" r="2.305" fill="#F2F2F2"/>
<circle cx="51.7505" cy="21.8487" r="1.47463" fill="#D9D9D9"/>
<path d="M53.6479 14.4006C52.6552 11.9763 50.9678 11.675 51.7008 21.8456" stroke="#F2F2F2" stroke-width="2" stroke-linecap="round"/>
<path d="M73.0673 59.3001C42.5553 69.1042 15.2275 58.1929 5.3775 51.5117C24.7338 75.6785 69.4594 65.4849 71.5783 63.5378C73.2734 61.9802 74.9571 62.3925 75.587 62.7933C90.591 69.5509 121.057 63.7096 128.731 60.9608C134.87 58.7617 135.527 54.0124 135.088 51.9126C118.686 63.5035 86.9068 61.6671 73.0673 59.3001Z" fill="#CDD1D5"/>
<path d="M78.1664 19.0951C73.8815 21.5268 63.6949 27.1825 57.5958 29.5347C57.2181 29.6804 56.8733 29.8909 56.5823 30.1722C52.093 34.5116 45.3594 42.7879 51.2992 44.295C56.7566 45.6798 78.0058 39.4432 91.2934 35.0641C93.4033 34.3688 94.0098 31.6991 92.4332 30.134L81.7948 19.5732C80.8315 18.6169 79.347 18.4252 78.1664 19.0951Z" fill="#F2F2F2"/>
</svg>
