<svg preserveAspectRatio="none" width="100%" height="100%" overflow="visible" style="display: block;" viewBox="0 0 27.0639 22.4562" fill="none" xmlns="http://www.w3.org/2000/svg">
<g id="Group">
<path id="Vector" d="M19.3014 12.3528C17.5243 12.3572 15.6766 12.355 13.7583 12.3449C13.6822 12.3416 13.6172 12.3057 13.6508 12.2261L13.5925 12.133C13.6172 11.8539 13.6866 11.5814 13.7572 11.3112L13.8413 11.2406C14.0878 10.2876 14.3937 9.34591 14.6256 8.38847L14.6984 8.27074L20.6818 8.25617C20.8207 8.29429 20.851 8.41985 20.8174 8.5499L19.6846 12.2126C19.6207 12.3785 19.4257 12.2855 19.3014 12.3528Z" fill="var(--fill-0, #C8D0D6)"/>
<path id="Vector_2" d="M9.1431 6.0635C9.15767 6.05901 9.17335 6.05565 9.1868 6.05677C9.22938 6.06238 9.34367 6.70142 9.35263 6.79895L9.30221 6.85726C9.47364 7.08148 9.58009 7.34607 9.66861 7.61401L9.62042 7.68352C9.5588 7.75528 9.5588 7.76649 9.62042 7.71492L9.69326 7.74855C9.72575 7.81021 9.71567 8.25418 9.62042 8.28669C9.56776 9.34727 9.62267 10.4549 9.72687 11.5256L9.74256 11.4965C9.80979 11.5301 9.88598 11.5514 9.9689 11.5593C10.0104 11.4617 10.2647 11.4875 10.286 11.5906L10.3196 11.6187C10.1762 11.8922 10.0809 12.168 10.0316 12.4483C10.1258 12.418 10.1549 12.6434 10.063 12.6703C10.091 12.6804 10.091 12.6916 10.063 12.7017C9.1319 12.7645 8.19966 12.7645 7.26966 12.7017L7.20355 12.6815L7.14417 12.1927C6.99066 12.2174 6.86292 12.1972 6.76208 12.1299C6.67468 11.9629 6.6758 11.7891 6.76208 11.622C6.6702 11.5066 6.69037 11.344 6.7139 11.2072C6.28588 11.233 5.84217 11.2431 5.38165 11.2386L5.20685 11.177L5.8769 11.1265C6.00576 10.6556 6.01584 10.15 6.10436 9.67689C6.26123 8.84725 6.8999 7.88309 7.36378 7.18799C7.56659 6.88416 8.4428 6.46486 8.76214 6.22046C8.88651 6.11956 9.01313 6.06687 9.1431 6.06126V6.0635Z" fill="var(--fill-0, #8EC7C2)"/>
<path id="Vector_3" d="M23.2062 21.0552L23.2723 21.081L23.3194 21.6864C23.3273 21.7021 23.6208 21.701 23.6186 21.6909C23.7385 21.6528 23.7575 21.8434 23.6186 21.8501C23.3452 21.8523 23.0662 21.8602 22.7928 21.8501C22.255 21.9185 21.7182 21.6886 21.2779 21.433C20.9518 21.5306 20.6426 21.618 20.2751 21.5597C19.5781 21.4913 18.8397 21.4577 18.1394 21.4846C18.0868 21.4868 17.587 21.5631 17.5613 21.5754C17.5534 21.5788 17.5646 21.6808 17.568 21.7088C17.6554 21.8893 17.5265 21.9644 17.1814 21.9342C13.7135 21.9342 10.24 21.9263 6.76207 21.914C6.71501 21.9297 6.66794 21.9454 6.61976 21.9555C6.57158 21.9656 6.52452 21.9756 6.47746 21.9768C5.72226 21.9902 4.9637 22.0003 4.20849 21.9981C3.66954 21.9958 3.12947 21.9768 2.595 21.942C2.54346 21.9387 2.4639 21.9286 2.41908 21.9073C2.3272 21.8635 2.1681 21.6348 2.34961 21.692C3.36925 21.7682 4.39785 21.7963 5.43542 21.7739L5.52506 21.8187L5.54411 21.7806C5.77605 21.8377 5.88697 21.7895 5.87577 21.6337L5.93964 21.0115C5.94412 20.9532 5.97325 20.9285 6.03376 20.9296L6.1021 20.9588C6.65562 20.896 7.21474 20.8814 7.77162 20.8725C7.79851 20.8725 7.82652 20.8814 7.85454 20.8904C7.88255 20.8994 7.91056 20.9139 7.93857 20.9296C7.97779 21.0754 7.97779 21.2223 7.94193 21.368C8.03605 21.3534 8.13353 21.377 8.22429 21.4061C8.17275 21.3445 8.17723 21.2514 8.2355 21.127C8.25231 20.9745 8.30049 20.8769 8.38228 20.8343C8.46968 20.8399 8.56268 20.8388 8.65456 20.8343C9.26858 20.8007 9.90726 20.7805 10.5437 20.7794C10.6221 20.7794 10.7017 20.7873 10.7801 20.7973C10.8585 20.8074 10.9381 20.8209 11.0165 20.8355C11.0221 21.0171 11.0333 21.1998 11.0513 21.3826C11.1779 21.3747 11.3123 21.3579 11.4524 21.3344L11.4614 20.8512L11.5241 20.8041L11.5734 20.7592C11.9107 20.7592 12.2435 20.7424 12.5718 20.7088C12.6222 20.6684 12.648 20.6841 12.6614 20.7435L12.7208 21.3332C12.89 21.3175 13.095 21.3153 13.2418 21.3747L13.2709 21.47C13.299 21.4767 13.2978 21.4868 13.2709 21.5014C13.3247 21.544 13.318 21.5743 13.2788 21.6191C14.5472 21.6393 15.8436 21.6438 17.1691 21.6348C17.1276 21.5922 17.1187 21.5474 17.1433 21.5014L15.7965 21.1471C15.6307 21.0776 15.4884 20.9812 15.3416 20.8803L15.3337 20.8018C15.3393 20.785 15.3449 20.7693 15.3539 20.7547C15.3752 20.72 16.0027 20.711 16.1147 20.711C16.7489 20.7503 17.3853 20.7525 18.024 20.7177C18.1372 20.7043 18.2246 20.7323 18.2862 20.803C18.2941 20.7749 18.3053 20.776 18.3176 20.803L18.4576 20.7873C18.7422 20.8321 19.0381 20.8556 19.3428 20.8579C19.5591 21.0092 19.7305 21.0014 19.8549 20.8343C20.191 20.8725 20.526 20.9039 20.8611 20.9285C21.0135 21.1449 21.1412 21.1303 21.3059 20.933C21.4191 20.9229 21.5121 20.8792 21.5838 20.8018L21.4897 20.1796C21.502 19.8612 21.7026 19.989 21.8213 20.1662C21.9401 20.1213 22.0264 20.137 22.079 20.2155C22.144 20.442 22.2348 20.3904 22.3524 20.0619C22.2583 19.9711 22.2348 19.8948 22.2729 19.767C22.2303 19.7502 21.8762 19.776 21.9009 19.878C21.7922 19.9397 21.4191 20.026 21.4359 19.8052C21.4045 19.4991 21.344 19.1975 21.2521 18.9026L21.2779 18.8567C21.7843 18.8477 22.2919 18.8421 22.8006 18.8387C22.8118 18.7883 22.8309 18.7681 22.8891 18.7704C23.0931 19.5024 23.2074 20.2962 23.2062 21.0575V21.0552Z" fill="var(--fill-0, #DEEFF0)"/>
<path id="Vector_4" d="M3.3973 21.6268C3.3973 21.6515 3.39282 21.6818 3.37265 21.6918C3.24603 21.7546 2.52556 21.7154 2.34965 21.6907C2.25665 21.6919 2.41015 21.8331 2.42248 21.8398C2.47514 21.8656 2.58719 21.8791 2.64994 21.8836C4.02028 21.9833 5.38839 21.9071 6.7621 21.9138L7.19685 21.8981C12.2536 21.952 17.2588 21.9463 22.2113 21.8791L22.3805 21.9138C22.3782 22.0203 22.5105 22.0327 22.5866 22.0405C23.018 22.0887 23.5435 22.0484 23.985 22.0708C24.4265 22.0932 25.3699 22.0988 25.7632 22.1986C25.8159 22.212 25.8562 22.1672 25.8405 22.2625C25.138 22.3096 24.4332 22.3107 23.7284 22.3275C22.32 22.3623 20.879 22.4026 19.4471 22.4251C15.2598 22.4878 11.0804 22.4508 6.90552 22.3567C5.47691 22.3253 4.04381 22.3331 2.61856 22.2311C2.08409 22.193 1.55187 22.091 1.01516 22.0719L1.25382 22.0091C1.61013 22.0125 1.96532 21.9609 2.31715 21.9138C2.32276 21.8791 2.31715 21.8533 2.28578 21.8342C2.25665 21.8163 1.68632 21.7322 1.60229 21.7244C1.25158 21.6896 0.889661 21.7042 0.527745 21.656C0.447071 21.6448 0 21.5921 0 21.5181C0.145662 21.4082 0.352953 21.4183 0.523266 21.3757L3.27068 21.203L3.30093 21.0259C3.31774 21.0315 3.33343 21.0382 3.348 21.0472C3.38273 21.0707 3.48245 21.5764 3.39618 21.6291L3.3973 21.6268Z" fill="var(--fill-0, #ECF7F7)"/>
<path id="Vector_5" d="M24.1587 13.1138C24.1452 13.2035 24.2875 13.8235 24.3189 13.8437C24.3301 13.8504 24.3906 13.8493 24.4074 13.8392C24.4242 13.8291 24.5744 13.5556 24.6214 13.4984C25.0001 13.0398 25.1772 13.5634 25.2052 13.9255C25.259 14.6005 24.85 16.5053 24.2819 16.9077C24.2382 16.9391 24.1732 16.9358 24.1351 16.9683C24.0623 17.0288 23.9895 17.2631 23.8729 17.3248C23.8438 17.3921 24.0197 17.373 24.087 17.3965C24.1878 17.4324 24.3839 17.586 24.4399 17.6791C24.4668 17.7239 24.5015 17.8697 24.5127 17.8764C24.5665 17.91 24.7985 17.8439 24.8265 17.9919C24.8489 18.1129 24.8377 18.4683 24.7727 18.5715C24.7615 18.5905 24.5721 18.7935 24.543 18.8215C24.5015 18.8619 24.4309 18.8618 24.3985 18.9C24.3469 18.9605 24.1867 20.1052 24.1632 20.2846C24.1363 20.4987 24.1172 20.7173 24.0959 20.9315C24.2472 20.9909 24.7861 20.909 24.8422 21.0267C24.8747 21.0974 24.8287 21.2185 24.9094 21.2454C25.4976 21.3025 26.0937 21.3216 26.6775 21.4135C26.7963 21.4326 27.2926 21.5234 26.9386 21.6333C26.7145 21.7028 26.2652 21.7353 26.0153 21.7577C25.2231 21.8306 24.4119 21.8474 23.6186 21.853C23.6881 21.7779 23.6253 21.7286 23.6186 21.6938C23.5816 21.6703 23.5547 21.6389 23.5379 21.5996C23.4427 20.2229 23.3721 18.8349 23.325 17.4347L23.3642 17.3113C23.6108 17.3831 23.7004 17.4078 23.6186 17.0916C23.6074 16.6476 23.6488 16.1947 23.7284 15.7586C23.6421 15.9727 23.529 16.1577 23.3889 16.3124L23.3956 16.6207L23.3329 16.6768C23.3116 16.6958 23.2757 16.7115 23.2634 16.6958C23.2264 16.6454 23.1816 15.8023 23.1827 15.6745C23.2309 15.6375 23.2511 15.5915 23.2376 15.5332C23.148 15.5231 23.1256 15.0713 23.1424 15.0209L23.2051 14.9772C23.1155 14.9973 23.1278 14.4883 23.1413 14.4513L23.2051 14.4054C23.0561 14.4323 23.0785 14.041 23.1738 13.9771C23.1446 13.9199 23.1614 13.8953 23.2208 13.8852L23.827 13.8818C23.8595 13.7708 23.9054 13.708 23.9671 13.6912C23.9178 13.6228 23.9278 13.5914 23.9984 13.5959C23.9581 13.5264 23.976 13.43 24.0522 13.3067C24.0533 13.2181 24.078 13.1553 24.1251 13.1194C24.1307 13.0914 24.1419 13.0925 24.1564 13.1194L24.1587 13.1138Z" fill="var(--fill-0, #E2F1F1)"/>
<path id="Vector_6" d="M14.7937 13.5593C14.8229 13.4977 14.8598 13.4977 14.889 13.5593C15.2262 13.4943 15.5669 13.5044 15.9052 13.5593C15.9075 13.4685 15.9792 13.473 16.0005 13.5593C16.0834 13.5167 16.1697 13.5235 16.2548 13.5593C18.0532 13.4808 19.8527 13.4797 21.6511 13.5593C21.9245 13.6053 22.236 13.5885 22.5082 13.5593C22.5911 13.4965 22.6785 13.4965 22.7626 13.5593C23.1671 13.5492 23.5704 13.5694 23.9693 13.6176V13.686C23.9413 13.76 23.9223 13.9114 23.8517 13.9349C23.7553 13.9674 23.3867 13.9371 23.2511 13.9394C23.2108 13.9394 23.1783 13.9719 23.1738 13.9719C23.1716 13.9999 23.1592 14.019 23.1335 14.028C22.8713 13.9685 22.5452 13.982 22.2853 14.0358C22.2382 14.0863 22.1766 14.0358 22.19 13.9932C21.7104 14.0302 21.2365 13.991 20.7614 13.9405C20.5082 13.9596 20.2527 13.9708 19.9995 13.9405C19.9815 14.001 19.9535 14.001 19.9356 13.9405H16.6974L16.6694 14.0033C16.5932 13.9921 16.5282 13.9921 16.4756 14.0033C16.4319 14.0515 16.3904 14.0369 16.3523 13.9584C13.5298 13.9405 10.7028 13.945 7.87251 13.9719C7.84562 14.0638 7.82321 14.0493 7.77727 13.9719C7.73245 13.9607 7.691 13.9506 7.65066 13.9405C7.55878 13.8643 7.48483 13.8643 7.4288 13.9405C7.4344 14.038 7.35149 14.0593 7.30219 13.9719C7.23832 14.0694 6.98509 14.0694 6.92122 13.9719L6.90106 14.01C6.6411 13.9685 6.37219 13.9562 6.09543 13.9719C6.19964 13.9943 6.16938 14.13 6.06406 14.0986C6.06182 14.0493 6.07302 13.9831 6.06406 13.9394L6.03268 13.908C5.90943 13.5851 6.2579 13.5571 6.50329 13.5649L7.52516 13.5582C7.62937 13.5391 7.73469 13.5223 7.84002 13.51C7.94534 13.4977 8.05067 13.4853 8.15487 13.4842C9.20925 13.4629 10.2636 13.4663 11.318 13.5156C12.4754 13.4685 13.6385 13.4674 14.7948 13.5593H14.7937Z" fill="var(--fill-0, #A8CDC5)"/>
<path id="Vector_7" d="M13.206 1.2671C13.2833 1.32988 13.2015 1.43079 13.1107 1.39379C13.0681 1.58214 12.9113 1.66958 12.732 1.69761C12.7466 1.88484 12.5807 2.01601 12.4474 2.11915C11.9084 2.53509 11.3247 2.27611 10.7857 1.99583C10.3487 1.80524 9.99355 1.65277 9.59578 1.98798C9.05571 1.92408 9.07923 1.19535 9.14198 0.790624C9.20361 0.654967 9.20361 0.548463 9.33582 0.428502C9.60586 0.182976 10.0372 0.00583759 10.3992 0.000231961C11.0995 -0.0109793 11.5701 0.388136 12.2043 0.345533C12.3678 0.334322 12.5415 0.188578 12.5404 0.425136C12.5393 0.661693 12.3768 0.735684 12.2211 0.870219C12.5404 1.25701 13.2295 0.170643 13.2698 0.869104C13.2766 0.983458 13.2564 1.16844 13.2048 1.2671H13.206Z" fill="var(--fill-0, #89634F)"/>
<path id="Vector_8" d="M23.7777 12.6062C23.7945 12.6253 23.8035 12.6634 23.8326 12.669C23.8584 12.6746 24.0366 12.7015 24.0478 12.7015H25.2702C25.2344 12.7677 25.1615 13.1612 25.1425 13.178C25.0842 13.2318 25.0775 13.1264 25.073 13.1231C25.0349 13.0962 24.2909 13.1186 24.1587 13.1141C24.1486 13.1141 24.1374 13.1141 24.1273 13.1141C23.6534 13.2004 23.1379 13.1847 22.6673 13.0827C22.4141 13.0547 22.1586 13.0558 21.9054 13.0827C21.4841 13.1679 21.0561 13.1702 20.6359 13.0827C20.5328 13.0558 20.4219 13.0547 20.3188 13.0827C18.2583 13.178 16.1887 13.1814 14.1282 13.0827C14.0027 13.0558 13.8727 13.0547 13.7472 13.0827C13.5365 13.1466 13.3237 13.141 13.1119 13.0827C12.6525 13.0379 12.1438 13.0558 11.6833 13.0827C11.4401 13.1455 11.1959 13.1455 10.9527 13.0827C10.8071 13.0558 10.6547 13.0547 10.5079 13.0827C10.5012 13.1074 10.49 13.1455 10.472 13.1466C10.3174 13.1533 10.0227 13.1276 9.86137 13.1107C9.85353 13.1107 9.8468 13.0984 9.8412 13.0827C9.52971 13.0502 9.21598 13.0401 8.90112 13.0513C8.82493 13.048 8.49102 13.0188 8.65461 12.8944C8.72296 12.8428 9.59022 12.7576 9.75269 12.7497C9.8849 12.7867 9.98799 12.771 10.0631 12.7027C10.0631 12.6926 10.0642 12.6814 10.0631 12.6713L10.0866 12.6085C10.537 12.6208 10.9527 12.6309 11.3326 12.6399C11.392 12.6388 11.4614 12.6477 11.4917 12.7038C11.5589 12.7554 11.6329 12.7654 11.7135 12.7352C13.0256 12.7217 14.3377 12.7217 15.6498 12.7352C16.7815 12.7127 17.9143 12.7015 19.046 12.7038C19.0504 12.6163 19.1692 12.5894 19.2051 12.6724C19.5726 12.6701 19.9782 12.6746 20.3479 12.6724C20.3928 12.5838 20.5071 12.6186 20.5384 12.7038C20.6303 12.752 20.7323 12.752 20.8242 12.7038C21.4673 12.5905 22.1172 12.6354 22.7603 12.7038C23.0718 12.6219 23.3945 12.632 23.7128 12.6477L23.7766 12.6085L23.7777 12.6062Z" fill="var(--fill-0, #C0E4D9)"/>
<path id="Vector_9" d="M11.7146 7.87402C11.9712 8.57472 12.1718 9.30121 12.4306 10.0008C12.5886 10.4279 12.8037 10.7901 13.1903 11.0513C13.4155 11.2026 13.5937 11.1645 13.8413 11.2408C13.7606 11.5547 13.6631 11.9078 13.6508 12.2251C13.7237 12.3092 13.5746 12.3888 13.5242 12.289C13.3629 12.3854 13.048 12.3619 12.8889 12.2576C12.8205 12.3294 12.5068 12.3507 12.4766 12.2262C12.4598 12.1253 12.4687 11.9998 12.6009 11.9964C12.406 11.4358 12.0026 11.3237 11.4424 11.4291L11.3975 11.3686L11.3695 11.2049C11.5118 10.1006 11.5421 8.98393 11.4614 7.85496C11.5163 7.64195 11.6384 7.74733 11.7158 7.87514L11.7146 7.87402Z" fill="var(--fill-0, #6AAFAD)"/>
<path id="Vector_10" d="M9.46022 3.61681C9.48824 3.62466 9.48824 3.63587 9.46022 3.6482C9.5465 3.67063 9.59244 3.74462 9.59692 3.87243C9.62718 4.37805 9.71009 3.91503 9.68432 3.69193C9.72578 3.63699 9.89945 3.66166 9.9678 3.6796L10.0126 3.67399C9.97004 4.63703 11.2093 4.72897 11.1432 3.71211C11.1656 3.67287 11.3012 3.66838 11.3561 3.6695C11.262 4.04957 11.523 4.32985 11.904 4.31415C11.8446 4.90947 11.8614 5.38707 11.3113 5.73798C11.0681 5.8927 10.9661 5.87812 10.6815 5.87252C10.5538 5.87028 10.4575 5.76601 10.4126 5.93418C9.77732 5.72453 9.15657 5.50366 9.39412 4.69982L9.33249 4.69534C9.32465 4.64825 9.3437 4.45205 9.33249 4.44084C9.32465 4.43299 9.1801 4.4386 9.11624 4.41954C8.79354 4.32536 8.57841 3.92288 8.75432 3.62466C8.78682 3.57084 8.97281 3.43071 9.01539 3.4251C9.07814 3.29953 9.51513 3.45873 9.46022 3.61569V3.61681Z" fill="var(--fill-0, #FCD4C2)"/>
<path id="Vector_11" d="M11.7146 7.87386L11.5241 7.77856C11.5107 8.97592 11.681 10.1923 11.3964 11.3673C11.4222 11.4928 11.1958 11.5052 11.2373 11.3673L11.2552 11.3202C11.0031 10.5646 10.7992 9.78873 10.6345 9.00619C10.5885 8.78757 10.3588 7.67093 10.4171 7.60927C10.4597 7.56443 10.5471 7.59582 10.593 7.62833L10.3868 7.4994L10.3812 7.42877L10.3297 7.3615C10.3756 7.13503 10.4249 6.91417 10.4765 6.6978C10.3846 6.64398 10.2445 6.34801 10.3812 6.28522C10.5605 6.40631 10.7174 6.55205 10.8922 6.67985C11.0165 6.77067 11.2104 6.84691 11.3191 6.95117C11.5062 7.13167 11.6216 7.62048 11.7146 7.87386Z" fill="var(--fill-0, #8CC5C2)"/>
<path id="Vector_12" d="M23.492 11.8762L23.4404 11.8583L23.3721 12.1621C23.4034 12.2854 23.2253 12.3 23.2118 12.1576L23.2948 11.5791C23.2264 11.5634 23.2152 11.6027 23.2163 11.6677L23.2029 12.1845C23.1659 12.2787 23.055 12.2899 23.0158 12.1946C22.9172 11.4008 22.7087 10.6172 22.6068 9.82455C22.5384 9.2909 22.4129 8.23479 22.4746 7.73141C22.5048 7.48252 22.6919 7.19888 22.9015 7.49597C23.046 7.70114 23.3956 8.97474 23.4819 9.29762C23.7474 10.2932 23.7351 10.8762 23.4908 11.8773L23.492 11.8762Z" fill="var(--fill-0, #DDEFEE)"/>
<path id="Vector_13" d="M22.7928 21.8497C22.6842 21.8856 22.5049 21.9069 22.3805 21.9136C21.1009 21.9742 19.7474 21.9629 18.4611 21.9786C14.5472 22.0257 10.6748 21.9349 6.76213 21.9136C6.79463 21.8609 6.88314 21.8822 6.9358 21.8811C8.51904 21.8643 10.0877 21.8609 11.6676 21.852C12.434 21.8475 13.1814 21.9159 13.9534 21.9147C14.6044 21.9147 15.2722 21.9192 15.9187 21.9147C16.4644 21.9114 17.0112 21.8957 17.5546 21.8497C17.4795 21.723 17.5053 21.6367 17.4907 21.501C17.7339 21.5526 17.9557 21.427 18.1787 21.4181C18.5025 21.4035 18.8353 21.4495 19.1804 21.4293C19.725 21.3957 20.2213 21.5403 20.7457 21.5033C20.9149 21.491 21.1816 21.3721 21.2847 21.3721C21.3239 21.3721 21.5894 21.5493 21.7049 21.5885C22.0746 21.7174 22.394 21.8351 22.7917 21.8508L22.7928 21.8497Z" fill="var(--fill-0, #E2F1F1)"/>
<path id="Vector_14" d="M9.14311 0.790782C9.19578 0.823295 9.17449 0.911862 9.17561 0.964555C9.17897 1.24596 9.1476 1.57669 9.35264 1.80315C9.61484 2.09353 9.6675 1.79755 9.89608 1.75046C10.63 1.59911 11.3202 2.45453 12.0709 2.24264C12.1919 2.20901 12.5471 2.00047 12.6177 1.90069C12.7029 1.78073 12.6569 1.65741 12.6659 1.64844C12.6749 1.63947 12.834 1.61817 12.899 1.57893C12.9371 1.55651 13.0782 1.4287 13.1096 1.39283C13.2452 1.41973 13.1219 1.70338 13.0558 1.78074C12.9539 1.89846 12.9034 1.92424 12.7533 1.94891C12.5247 2.43211 11.9533 2.57674 11.4591 2.5375C11.4289 2.55319 11.393 2.56888 11.3583 2.56104C11.2216 2.52852 10.825 2.25385 10.7611 2.12492C10.7544 2.0711 10.7118 2.04981 10.6345 2.06102C10.5437 2.05541 10.4485 2.01281 10.3487 1.93433L10.2871 1.97581C9.97899 1.80316 9.95658 1.85249 9.91176 2.16528C9.8647 2.62382 9.84229 3.08348 9.84341 3.54426L9.77731 3.58575C9.68319 3.62162 9.57786 3.63171 9.46021 3.61713C9.44676 3.59695 9.31903 3.49942 9.28766 3.48709C9.25628 3.47475 9.02882 3.42431 9.01538 3.42655C8.87308 2.89289 8.46074 2.43771 8.57951 1.86258C8.62433 1.64284 8.78008 1.31547 8.92014 1.13945L8.89661 1.09349C8.65795 1.04304 8.87756 1.01164 9.00866 1.02734L9.04675 1.01276C9.05347 0.997067 9.04003 0.960069 9.04675 0.948858C9.01314 0.869258 9.03443 0.847956 9.11062 0.884953C9.12182 0.858046 9.12743 0.823294 9.14199 0.78966L9.14311 0.790782Z" fill="var(--fill-0, #744E3E)"/>
<path id="Vector_15" d="M10.3498 1.93416L10.8563 2.25143C11.2395 2.63822 11.6003 2.75146 12.1337 2.78958L12.1605 3.0138C12.1863 3.01717 12.1841 3.02837 12.1605 3.04519C12.1505 3.14721 12.0855 3.2526 12.0967 3.36247C12.1045 3.41292 12.0832 3.41292 12.0328 3.36247C11.9992 3.45889 11.7527 3.45776 11.811 3.33108C11.8759 3.31874 11.8972 3.30754 11.8748 3.29969L11.8838 3.22906C12.0787 3.16852 11.6283 3.13712 11.6205 3.20551C11.7572 3.13824 11.9174 3.24699 11.7471 3.29969C11.532 3.34565 11.4165 3.45889 11.3527 3.67863C11.2832 3.67078 11.2137 3.67863 11.1443 3.70553C11.0882 3.52503 10.9952 3.36583 10.8585 3.23578L10.8104 3.18533C10.9112 2.98017 10.3476 3.14609 10.351 3.23578C10.1863 3.32547 10.0877 3.44656 10.007 3.62257C9.99129 3.63266 9.79521 3.62145 9.77952 3.58557C9.80081 3.26942 9.77056 2.03393 9.95432 1.83774C10.0328 1.75365 10.2613 1.89716 10.351 1.93416H10.3498Z" fill="var(--fill-0, #FCD5C4)"/>
<path id="Vector_16" d="M13.6508 12.2248C13.6676 12.2226 13.7079 12.2764 13.7371 12.2798L19.2946 12.2966C19.307 12.3134 19.2991 12.3336 19.3002 12.3515C19.3114 12.4647 19.2532 12.5724 19.205 12.6688C19.1781 12.6688 19.1131 12.7002 19.0459 12.7002C17.9949 12.7136 16.9472 12.7136 15.9029 12.7002C15.2598 12.6251 14.5516 12.6116 13.9051 12.6105C13.718 12.6363 13.3471 12.467 13.5219 12.2876C13.5992 12.2887 13.6418 12.2248 13.6485 12.2237L13.6508 12.2248Z" fill="var(--fill-0, #9CA8B1)"/>
<path id="Vector_17" d="M3.81076 16.8946C3.84661 16.9439 3.9228 17.2219 3.86566 17.2477L3.77938 17.2433C3.4578 17.4933 3.14071 17.4865 2.7956 17.6099C2.53789 17.7018 2.29474 17.9462 1.98213 17.9406C1.88241 17.9383 1.88577 17.6155 1.89249 17.5247C1.91602 17.2029 2.16477 16.8486 2.41688 16.6591C2.92446 16.2746 3.37825 16.5627 3.81076 16.8946Z" fill="var(--fill-0, #8AC8C6)"/>
<path id="Vector_18" d="M5.11162 18.5143C4.9301 18.5065 4.96147 18.2654 5.07576 18.1634C5.11498 18.1286 5.55309 18.0221 5.60575 18.0816L5.62031 18.2598C5.73796 18.28 5.66625 18.3932 5.5979 18.4538C5.6853 18.4168 5.75701 18.4157 5.81079 18.4504C5.90267 18.6444 5.86794 19.0569 5.71556 19.2128L5.6416 19.2004C5.5486 19.0211 5.35252 18.928 5.15643 18.9246L5.11274 18.863C5.20574 18.8876 5.15756 18.9459 5.10601 19.0065L4.66454 19.3978L5.41639 19.4034L5.46233 19.4673C5.48025 19.5614 5.38277 19.5794 5.33571 19.4987C5.32339 19.5435 5.28977 19.5715 5.23375 19.5805C5.28865 19.7397 5.32451 19.8989 5.34132 20.0592C5.11498 20.0985 4.87968 20.1029 4.63653 20.0704C4.15361 20.1635 3.65723 20.1467 3.1687 20.113C3.2068 20.1231 3.18775 20.1433 3.14517 20.1657C3.13061 19.9852 2.8348 20.1097 2.79558 20.0704C2.77429 20.0491 2.80231 19.557 2.76421 19.4662C3.11268 19.4572 3.46451 19.4796 3.81186 19.4662C3.89029 19.4897 3.96424 19.4897 4.03371 19.4662C4.03932 19.4034 4.0875 19.3843 4.17826 19.409C4.21523 19.3496 4.29815 19.2632 4.35193 19.3383L4.40011 19.3843C4.59843 19.1623 4.81245 18.9695 5.04215 18.8058L5.11386 18.8619C4.9357 18.8473 4.95699 18.6522 5.1273 18.5838L5.11386 18.5121L5.11162 18.5143Z" fill="var(--fill-0, #94CAC7)"/>
<path id="Vector_19" d="M4.85731 12.7016C4.86292 12.6736 4.87412 12.6747 4.88869 12.7016H6.88874C6.92796 12.8037 6.83832 12.9461 6.72964 12.9561L6.6512 13.0313L6.08088 12.9281C6.0383 12.936 5.79516 13.0402 5.78619 13.0526C5.77163 13.0716 5.93521 13.4797 5.95538 13.492L7.48484 13.4965L7.52182 13.5604C7.20248 13.5672 6.5582 13.5492 6.27584 13.5997C6.09208 13.6322 6.07976 13.7533 6.03046 13.9102C5.82541 13.9326 5.61924 13.9349 5.41195 13.9169L5.39626 13.8474C5.38842 13.6613 5.35032 13.7095 5.30775 13.6019C5.24724 13.4472 5.19906 13.2869 5.14416 13.131L4.24329 13.1187C4.21752 13.112 4.16934 12.9685 4.14021 12.9292C4.04272 12.7947 3.85897 12.7364 4.17494 12.705C4.38447 12.6848 4.64106 12.7073 4.85731 12.705V12.7016Z" fill="var(--fill-0, #A7CEC6)"/>
<path id="Vector_20" d="M21.5233 11.3044C21.4651 10.9815 21.5401 9.75052 22.125 10.1149C22.5082 10.3537 22.506 11.1474 22.4746 11.5421C22.4634 11.6755 22.2808 12.4143 22.4332 12.4491C22.4634 12.4558 22.7189 12.458 22.7301 12.4479C22.7469 12.4311 22.6954 12.2585 22.7615 12.226C22.9542 12.3975 22.7346 12.6968 22.5396 12.4805C22.4556 12.5814 22.1071 12.5533 22.032 12.4491L21.9951 12.3695C22.0746 12.0511 22.0858 11.7237 22.0287 11.3885C21.8438 11.3504 21.7362 11.3324 21.548 11.3212C21.539 11.3212 21.5312 11.3134 21.5233 11.3055V11.3044Z" fill="var(--fill-0, #E0F2F1)"/>
<path id="Vector_21" d="M10.3812 6.1898C10.379 6.22119 10.3812 6.2537 10.3812 6.2851C10.3779 6.47457 10.4563 6.5295 10.4765 6.69767C10.4238 6.75597 10.444 6.69094 10.4451 6.6943C10.4507 6.71 10.4496 6.73579 10.4485 6.7526C10.4003 7.36025 9.51511 7.34455 9.30222 6.85574C9.2574 6.70103 9.17897 6.10908 9.14311 6.06199C9.09381 6.0732 9.0826 6.0732 9.11174 6.0306C9.17897 5.99921 9.16776 5.98239 9.17672 5.92185C9.21146 5.68081 9.2686 5.44313 9.30222 5.20545L9.36048 5.22788C9.49606 5.57767 9.8591 6.26379 10.3028 6.15168L10.3824 6.1898H10.3812Z" fill="var(--fill-0, #FCCBB9)"/>
<path id="Vector_22" d="M5.08025 12.0982C5.11835 12.1195 5.13964 12.1183 5.1486 12.0679C5.65282 12.0926 6.15815 12.0926 6.66573 12.0668L6.76321 12.1307C6.91 12.1329 7.0579 12.1251 7.20468 12.134L7.27191 12.7025C7.26967 12.7933 7.19796 12.7888 7.17667 12.7025H4.89089C4.88081 12.7025 4.8696 12.7025 4.85952 12.7025C4.88529 12.5881 4.92227 12.3157 4.89313 12.2136C4.88417 12.18 4.7654 12.1901 4.76428 12.1464C4.76316 12.0724 5.00854 12.1083 5.01751 12.0993C5.02423 12.0926 5.01639 11.9479 5.01751 11.9087C5.10154 11.8706 5.08922 12.0387 5.08137 12.0993L5.08025 12.0982Z" fill="var(--fill-0, #F4ECDA)"/>
<path id="Vector_23" d="M5.90493 19.7535C5.87356 19.8858 5.82426 20.0103 5.75815 20.1246C5.78504 20.3915 5.56879 20.7861 5.4545 20.3264C5.26065 20.2323 3.87798 20.3466 3.68302 20.5249C3.54072 20.6538 3.69198 21.3489 3.74689 21.5384C3.84437 21.6056 3.85445 21.6561 3.77826 21.6909C3.69983 21.7413 3.53288 21.711 3.42867 21.6909C3.348 21.7312 3.33343 21.6886 3.3973 21.6269C3.35696 21.4588 3.33903 21.2132 3.30206 21.0238C3.25948 20.804 3.14631 20.3578 3.14295 20.1661C3.14295 20.1347 3.14295 20.1022 3.14295 20.0708C3.64044 20.0697 4.13793 20.0731 4.63543 20.0708C4.93347 20.0966 5.20575 20.119 5.45338 20.0092C5.5038 19.7883 5.44665 19.7109 5.28979 19.5708L5.33349 19.4991C5.39063 19.4923 5.4433 19.4688 5.4601 19.4677C5.49036 19.369 5.67075 19.3903 5.71445 19.4677L5.74582 19.3724C5.78952 19.3051 5.88925 19.1795 5.96768 19.2457C6.02482 19.4262 6.00353 19.5921 5.90381 19.7535H5.90493Z" fill="var(--fill-0, #6DAEAE)"/>
<path id="Vector_24" d="M6.09543 13.9716C6.26238 13.9536 6.43157 13.948 6.60301 13.9525L6.63214 14.0467C6.53018 14.9447 6.42485 15.8416 6.31393 16.7452C6.30832 16.7867 6.29488 16.8271 6.27919 16.8685C6.2635 16.91 6.24446 16.9493 6.22317 16.9885C6.19515 17.1006 5.93968 17.0726 5.92176 16.9638L5.90607 16.6712C5.8422 16.6634 5.84444 16.632 5.90607 16.6073C5.83884 16.4111 5.8478 16.2239 5.93744 16.0355C5.97218 15.4301 6.08871 14.698 6.06406 14.0982C6.10551 14.0736 6.09095 13.976 6.09543 13.9716Z" fill="var(--fill-0, #6A9093)"/>
<path id="Vector_25" d="M4.82594 17.2442C4.64666 17.1814 4.26794 17.603 4.22312 17.3216C4.1727 17.0133 4.40016 17.1299 4.4136 17.1175C4.41697 17.1142 4.4136 17.057 4.43265 17.0256C4.56935 16.8059 4.50324 16.8518 4.54806 16.6321C4.58055 16.474 4.76767 16.3305 4.90101 16.2543C4.96264 16.2184 5.38394 16.0155 5.42204 16.0099C5.52512 15.9953 5.5352 16.1007 5.61139 16.1264C5.77274 16.1825 5.70776 15.965 5.82765 15.8787L5.81084 16.0525L5.93858 16.0368C5.92737 16.2274 5.91841 16.4179 5.9072 16.6085C5.87919 16.6668 5.82092 16.7487 5.74809 16.7038C5.72456 16.8059 5.65061 16.8541 5.54865 16.8485C5.32791 16.8137 5.03547 16.7857 4.99177 17.0693C5.00746 17.1926 4.94359 17.3597 4.82706 17.2431L4.82594 17.2442Z" fill="var(--fill-0, #C5E1E2)"/>
<path id="Vector_26" d="M5.2069 11.1769C5.49711 11.1702 5.78955 11.1836 6.08088 11.178C6.30049 11.1746 6.52795 11.1006 6.75989 11.178C6.76437 11.3249 6.75989 11.474 6.76213 11.6208L6.733 11.6848H5.17329L5.17553 12.0121C5.22259 12.1018 5.16544 12.141 5.07917 12.0973C5.01866 12.0345 5.07693 11.9549 5.0153 11.9067C5.02426 11.6691 5.03099 11.4067 4.98393 11.1769C5.05788 11.1758 5.13183 11.178 5.20578 11.1769H5.2069Z" fill="var(--fill-0, #43857A)"/>
<path id="Vector_27" d="M12.1595 3.04647C12.1595 3.03638 12.1595 3.02517 12.1595 3.01508C12.1415 2.91194 12.1158 2.81103 12.0833 2.7135C11.8805 2.7404 11.6777 2.69444 11.4894 2.61933L11.4603 2.5386C11.5757 2.41079 11.7998 2.50385 11.969 2.46013C12.0934 2.42874 12.4228 2.26953 12.5191 2.18433C12.6155 2.09912 12.6603 1.9545 12.7141 1.90292C12.7589 1.8592 12.8329 1.87938 12.8878 1.85472C13.0178 1.79642 13.1354 1.53856 13.1108 1.39506C13.1399 1.36143 13.1858 1.30537 13.206 1.26837C13.6038 1.26837 13.3147 1.92759 13.1746 2.11034C12.9483 2.40519 12.6334 2.45003 12.4586 2.63278C12.3488 2.74825 12.313 2.96687 12.1583 3.0476L12.1595 3.04647Z" fill="var(--fill-0, #6F493A)"/>
<path id="Vector_28" d="M23.0158 12.1933C23.0573 12.19 23.101 12.1967 23.1424 12.1933C23.1424 12.0969 23.1368 11.5689 23.1772 11.5285C23.1839 11.5218 23.3587 11.4826 23.3632 11.5409L23.269 12.1922C23.3643 12.2079 23.3206 12.1687 23.3329 12.1149C23.3452 12.0611 23.3788 11.8256 23.3979 11.8122C23.427 11.792 23.5178 11.7954 23.4909 11.8738C23.4651 11.9815 23.4438 12.0913 23.3956 12.1911C23.8438 12.1552 23.7878 12.2135 23.7766 12.6048C23.7766 12.6362 23.7777 12.6687 23.7766 12.7001C23.4382 12.7001 23.0987 12.699 22.7603 12.7001L22.3984 12.6844C22.3133 12.6519 22.4712 12.4882 22.5374 12.4781C22.5788 12.477 22.7514 12.486 22.7592 12.4781C22.7749 12.4635 22.7424 12.2505 22.7592 12.2236C22.7771 12.1956 22.9665 12.1956 23.0136 12.1922L23.0158 12.1933Z" fill="var(--fill-0, #455E6C)"/>
<path id="Vector_29" d="M3.68305 16.1637C3.61806 16.1883 3.53403 16.1883 3.4287 16.1637C2.82813 15.9843 2.92337 15.7533 2.88863 15.1793C3.46008 15.084 4.00127 15.611 3.68193 16.1637H3.68305Z" fill="var(--fill-0, #88C7C6)"/>
<path id="Vector_30" d="M4.0001 17.2115C4.02363 17.262 3.97769 17.336 3.93399 17.3079C3.87012 17.2676 3.84211 16.9559 3.84211 16.8628C3.83763 16.8438 3.84659 16.818 3.84211 16.7989C3.84884 16.6554 3.82643 16.5041 3.77152 16.3438L3.80962 16.3225C3.92055 16.1094 4.17041 15.9906 4.334 15.8146C4.4158 15.726 4.61188 15.3168 4.69256 15.6778C4.75082 15.9402 4.58051 16.4548 4.3665 16.6117C4.31271 16.6521 4.26901 16.6039 4.22308 16.6229C4.20515 16.6308 3.9452 16.864 3.93959 16.8819C3.92951 16.9178 3.98889 17.1398 3.99898 17.2104L4.0001 17.2115Z" fill="var(--fill-0, #BDDDDD)"/>
<path id="Vector_31" d="M2.9211 18.1648C2.85723 18.1211 2.77432 18.0695 2.73062 18.0067C2.91438 18.0471 3.09478 18.1199 3.23932 18.2444C3.2931 18.2915 3.37601 18.4226 3.39842 18.435C3.46565 18.4742 3.59899 18.4372 3.69647 18.5179C3.74465 18.5583 3.84998 18.8599 3.87351 18.6884C3.88023 18.6413 3.906 18.5056 3.906 18.4821C3.91496 18.454 3.92617 18.4552 3.93738 18.4821C4.19285 18.4282 4.25447 18.4821 4.28697 18.7321C4.38669 18.8128 4.40798 18.8778 4.35083 18.9272C4.33066 19.0023 4.29705 19.083 4.24999 19.1693C4.3273 19.0337 4.41358 18.9518 4.50882 18.9272C4.48417 18.8162 4.55476 18.7343 4.66793 18.7366C4.65897 18.7063 4.67017 18.6962 4.6993 18.7052C4.81919 18.5964 4.79903 18.7287 4.76317 18.8319C4.80799 18.9294 4.63992 19.083 4.54132 19.0538L4.38221 19.2758C4.43599 19.3128 4.41694 19.342 4.35083 19.3397C4.29817 19.3431 4.21301 19.463 4.20069 19.4664C4.14803 19.4787 4.08416 19.4597 4.03262 19.4664C4.02141 19.3778 3.97659 19.3162 3.90712 19.25C3.63373 19.0908 3.48919 18.8666 3.35585 18.6076L3.4298 18.5774C3.43316 18.5695 3.47462 18.5718 3.46117 18.5303C3.43988 18.4854 3.39731 18.4944 3.36593 18.4821L3.10486 18.4641C2.91326 18.5 2.84939 18.4383 2.99057 18.2769C2.93343 18.2556 2.9155 18.2309 2.9211 18.1648Z" fill="var(--fill-0, #6AB7B9)"/>
<path id="Vector_32" d="M3.84215 16.8628C3.87128 16.9918 3.92507 17.142 3.95308 17.2765L4.00126 17.2126C4.00126 17.2193 4.02927 17.2474 4.03488 17.2888C4.05728 17.4581 3.94411 17.6499 4.20407 17.6162C4.24776 17.6106 4.31275 17.5512 4.38222 17.5299C4.42592 17.5254 4.47634 17.5445 4.47746 17.5938L4.47971 17.6622C4.38783 17.6958 4.30491 17.7407 4.22872 17.7978C4.36429 17.9223 4.4573 18.0602 4.5066 18.2127C4.45057 18.262 4.38783 18.3102 4.31836 18.3562C4.34973 18.4391 4.20407 18.4705 4.13348 18.4806L3.93739 18.484H3.90602C3.90602 18.2676 3.45446 18.271 3.37155 18.0826C3.46007 17.8348 3.64607 17.7407 3.90602 17.7855C3.87464 17.6297 4.03936 17.2608 3.77941 17.2451C3.91835 17.1375 3.80069 17.04 3.81078 16.8953C3.81078 16.8897 3.83655 16.8752 3.84215 16.8639V16.8628Z" fill="var(--fill-0, #D2E7E8)"/>
<path id="Vector_33" d="M21.5233 11.3045C21.623 11.3056 22.0432 11.281 22.0813 11.3348C22.106 11.3707 22.134 11.966 22.1284 12.0523C22.1194 12.1835 22.0847 12.3281 22.032 12.4481C21.9771 12.549 21.6533 12.5804 21.5872 12.4795C21.5457 12.4436 21.5536 12.3987 21.6107 12.3438C21.604 12.0759 21.5861 11.8046 21.558 11.5321L21.5894 11.4088C21.3933 11.42 21.2118 11.3953 21.0471 11.3348C21 11.4222 20.8286 11.4267 20.7928 11.3348C21.0157 11.2787 21.2891 11.2989 21.5233 11.3034V11.3045Z" fill="var(--fill-0, #4AB9BB)"/>
<path id="Vector_34" d="M20.6661 12.384C20.7614 12.4131 20.8835 12.4311 21.0325 12.4367L21.111 12.4793C21.26 12.3896 21.4393 12.3874 21.5872 12.4793C21.7395 12.4793 21.9087 12.4479 22.032 12.4479C22.1721 12.4479 22.3648 12.4849 22.5396 12.4793C22.5116 12.5196 22.5026 12.5768 22.4768 12.6161C22.4567 12.6463 22.4017 12.6217 22.413 12.6699L22.7614 12.7024C22.116 12.7046 21.4695 12.699 20.8252 12.7024C20.7311 12.7517 20.6336 12.7517 20.5395 12.7024C20.4611 12.7024 20.3838 12.6699 20.349 12.671L20.2224 12.4804C20.3434 12.4737 20.4689 12.4894 20.5888 12.4804C20.6863 12.4726 20.6706 12.4961 20.6661 12.3851V12.384Z" fill="var(--fill-0, #6CC2C0)"/>
<path id="Vector_35" d="M9.33359 4.69787C9.33359 4.69114 9.36048 4.66087 9.3672 4.62051C9.37393 4.57791 9.35712 4.45347 9.36608 4.44338C9.38177 4.42769 9.48037 4.4445 9.49046 4.49383C9.50054 4.54316 9.38401 4.96582 9.39633 5.12839C9.42771 5.53199 10.0653 5.77639 10.4104 5.8459C10.4216 5.87505 10.4137 5.90644 10.4137 5.93671C10.4149 6.0208 10.388 6.10264 10.3824 6.19121C10.3006 6.2226 10.2188 6.2596 10.1269 6.24278C9.82436 6.18785 9.32911 5.52078 9.30221 5.20687C9.32462 5.05439 9.31342 4.85259 9.33359 4.69899V4.69787Z" fill="var(--fill-0, #FBA58D)"/>
<path id="Vector_36" d="M11.8099 3.33222C11.8155 3.33222 11.8356 3.36249 11.8614 3.36361C11.9253 3.36585 11.9656 3.35352 12.0317 3.36361C12.0844 3.37706 12.1337 3.41406 12.0956 3.4589C12.0261 3.68089 11.9331 3.99704 12.0004 4.22127C11.9723 4.26499 11.9723 4.28629 12.0004 4.28517C11.9701 4.29638 11.9735 4.32217 11.9051 4.31657C11.5623 4.33451 11.2765 4.08337 11.3516 3.73358C11.2653 3.73582 11.4155 3.50823 11.4513 3.46563C11.541 3.36137 11.6754 3.28625 11.8099 3.33109V3.33222Z" fill="var(--fill-0, #F8DCCE)"/>
<path id="Vector_37" d="M20.7939 11.3361C20.8712 11.3271 20.9664 11.3383 21.0482 11.3361L21.0796 11.4224C20.9552 11.7374 21.0023 12.0895 21.1401 12.3922L21.1121 12.4796C20.9821 12.4774 20.8499 12.4796 20.7199 12.4807C20.7076 12.4774 20.6751 12.4034 20.6684 12.3843C20.656 12.3484 20.646 12.2711 20.637 12.2251C20.5384 12.1926 20.5272 12.1287 20.6056 12.0345C20.5014 11.9942 20.4992 11.6915 20.6056 11.6533C20.5104 11.6152 20.5451 11.5166 20.637 11.4941C20.6706 11.3708 20.637 11.354 20.7961 11.3349L20.7939 11.3361Z" fill="var(--fill-0, #2A9191)"/>
<path id="Vector_38" d="M4.4763 17.5927C4.43037 17.5927 4.39451 17.5747 4.38106 17.5288C4.45726 17.5052 4.74858 17.4301 4.77995 17.4043C4.8483 17.3483 4.81021 17.2743 4.82477 17.2429C4.8315 17.2283 4.90545 17.2216 4.91441 17.2059C4.93234 17.1734 4.91441 17.0814 4.93458 17.0186C5.01301 16.772 5.16428 16.7641 5.38165 16.7653C5.57437 16.7653 5.54188 16.8381 5.74581 16.7036C5.84217 16.7182 5.8164 16.7989 5.78054 16.8751C5.69315 17.0646 4.80908 17.5669 4.60292 17.6061C4.55922 17.614 4.51776 17.6084 4.4763 17.5927Z" fill="var(--fill-0, #9FCCCB)"/>
<path id="Vector_39" d="M3.42979 18.5772C3.38161 18.6792 3.4791 18.6781 3.5396 18.7689C3.57658 18.825 3.58106 18.8956 3.61915 18.9438C3.75585 19.1176 4.05838 19.1355 4.03261 19.4662C3.98219 19.4741 3.87351 19.5526 3.81076 19.4662C3.87463 19.464 3.93849 19.4685 4.00124 19.4662C3.99676 19.4405 4.00796 19.3822 4.00124 19.3721C3.99228 19.3609 3.80291 19.316 3.73232 19.2745C3.49926 19.14 3.46565 19.0077 3.31999 18.8608C3.27853 18.8182 3.01746 18.7084 3.01746 18.6557C3.01746 18.5492 3.35696 18.5761 3.42979 18.5761V18.5772Z" fill="var(--fill-0, #D3E6E7)"/>
<path id="Vector_40" d="M2.92106 18.1649C2.98941 18.212 3.08353 18.2423 3.14292 18.3084C3.04992 18.3376 2.9614 18.3151 2.98493 18.4508C3.12611 18.4542 3.23368 18.4295 3.3659 18.4822C3.24712 18.49 3.12051 18.4699 3.00286 18.4833C2.95132 18.4889 2.91994 18.545 2.84711 18.545C2.74403 18.545 2.42133 18.4564 2.58716 18.3219L2.92106 18.1638V18.1649Z" fill="var(--fill-0, #DAECEC)"/>
<path id="Vector_41" d="M20.6034 11.6531L20.5429 11.7002C20.1384 11.7439 20.3782 12.0466 20.6034 12.0343C20.6056 12.0701 20.6258 12.1823 20.6347 12.2249C19.9972 12.1654 19.9927 11.5398 20.6347 11.4939C20.6247 11.532 20.6056 11.6161 20.6034 11.6531Z" fill="var(--fill-0, #68C2BE)"/>
<path id="Vector_42" d="M9.04791 1.01248C9.03783 1.03715 9.03334 1.04948 9.00197 1.045H8.79356L8.98404 1.07639C8.9874 1.11451 8.93474 1.12235 8.92017 1.13917C8.77675 1.04612 8.58179 1.16608 8.44621 1.22101C8.39131 1.24343 8.34649 1.2524 8.41148 1.18626C8.5986 1.03939 8.81149 0.987818 9.04679 1.01248H9.04791Z" fill="var(--fill-0, #B59F94)"/>
<path id="Vector_43" d="M3.683 16.1637C3.69644 16.1693 3.7323 16.287 3.75247 16.3173C3.76255 16.333 3.80737 16.3195 3.80961 16.3229C3.81746 16.3341 3.80289 16.4417 3.81634 16.4899C3.84883 16.5987 3.97432 16.6951 3.84099 16.7994C3.80401 16.6502 3.76367 16.3442 3.66731 16.2276C3.64154 16.1973 3.50036 16.1861 3.42865 16.1648C3.4914 16.1783 3.63818 16.1457 3.683 16.1648V16.1637Z" fill="var(--fill-0, #D2E7E8)"/>
<path id="Vector_44" d="M9.0479 0.949817L8.82604 0.505849C8.88767 0.444187 9.01764 0.762587 9.03221 0.793979C9.0535 0.839945 9.02549 0.906093 9.11176 0.887034C9.10504 0.903851 9.06246 0.927395 9.0479 0.950939V0.949817Z" fill="var(--fill-0, #B59F94)"/>
<path id="Vector_45" d="M12.0004 4.28379C11.8928 4.29163 11.9342 4.25464 12.0004 4.21988C12.1135 4.16046 12.1864 4.16159 12.2614 4.02032C12.267 4.00911 12.3578 3.68398 12.3511 3.85552C12.341 4.07862 12.1976 4.20755 12.0004 4.28379Z" fill="var(--fill-0, #4F4E4B)"/>
<path id="Vector_46" d="M12.0956 3.36356C12.1841 3.40952 12.2457 3.54854 12.3051 3.61581C12.3331 3.6472 12.379 3.64608 12.3813 3.64944C12.3858 3.65617 12.3174 3.77725 12.286 3.77613C12.3051 3.61693 12.1841 3.55078 12.0956 3.45885C12.072 3.43418 12.0552 3.39158 12.0317 3.36356C12.0519 3.36692 12.0844 3.35795 12.0956 3.36356Z" fill="var(--fill-0, #3C312C)"/>
<path id="Vector_47" d="M5.39734 13.8452C5.42759 13.9058 5.44104 13.9069 5.5049 13.9114C5.66289 13.9226 5.88923 13.8822 6.03153 13.9091C6.05506 13.9136 6.05842 13.917 6.0629 13.9405C5.9699 13.9237 5.42087 13.9629 5.39622 13.9405C5.39173 13.936 5.39734 13.8699 5.39622 13.8452H5.39734Z" fill="var(--fill-0, #B2D7CE)"/>
<path id="Vector_48" d="M9.11172 6.03197C9.12964 6.03421 9.13413 6.05214 9.14309 6.06336L8.76213 6.22256C8.85401 6.15193 8.96717 6.01403 9.11172 6.03197Z" fill="var(--fill-0, #5C7D7E)"/>
<path id="Vector_49" d="M17.5154 9.97698C18.0184 9.8716 17.8874 10.4837 17.5075 10.4792C17.1277 10.4748 17.1646 10.051 17.5154 9.97698Z" fill="var(--fill-0, #64B8BC)"/>
<path id="Vector_50" d="M10.4765 6.69875C10.5123 6.99585 10.4317 7.16177 10.3813 7.42972C10.4261 7.49362 10.4339 7.5878 10.407 7.71112C10.5773 8.81207 10.835 9.88386 11.0961 10.9613L11.0804 11.0835C11.1353 11.2057 11.1712 11.3301 11.188 11.4557C11.1577 11.5162 10.5359 11.7281 10.4193 11.6922L10.3824 11.6227C10.323 11.6889 10.2995 11.6765 10.2871 11.5913C10.1684 11.5745 10.091 11.5656 9.97004 11.5599C9.89496 11.5499 9.81877 11.5386 9.7437 11.5229C9.59803 10.4859 9.58459 9.36591 9.62044 8.28851C9.61708 8.09455 9.67086 7.88938 9.62044 7.71673C9.59243 7.70888 9.59355 7.69767 9.62044 7.68534C9.57114 7.4443 9.37954 7.12702 9.30335 6.85907C9.63837 7.22792 10.2602 7.32097 10.416 6.7492C10.4306 6.69426 10.3756 6.6326 10.4776 6.69987L10.4765 6.69875Z" fill="var(--fill-0, #FEFEFE)"/>
<path id="Vector_51" d="M7.17557 12.7013H7.27081C8.20193 12.7013 9.13417 12.7013 10.0642 12.7013C10.0563 12.92 9.89049 12.7843 9.73138 12.7955C9.59468 12.8056 9.34145 12.8437 9.19467 12.8639C9.01651 12.8886 8.82267 12.9536 8.63555 12.9558L8.90559 13.0186C9.2182 13.0265 9.53866 12.9895 9.84119 13.0825C9.84007 13.0982 9.83783 13.1106 9.83559 13.1106C9.43221 13.1386 9.02324 13.1285 8.61538 13.0971C7.96775 13.1431 7.32907 13.1375 6.69936 13.0825C6.54922 13.0747 6.60972 12.9895 6.73073 12.9558C6.77892 12.865 6.82933 12.7843 6.88984 12.7013H7.17557Z" fill="var(--fill-0, #B9DED3)"/>
<path id="Vector_52" d="M7.77841 9.74707C7.80642 9.40624 7.84676 8.95443 7.83555 8.61921C7.83107 8.48692 7.72575 8.14385 7.74704 8.04856C7.78401 7.88824 7.93864 8.22009 7.95208 8.25485C8.22772 8.9264 8.09999 9.83227 8.15937 10.5565C8.19635 11.0106 8.32857 11.2953 8.76219 11.4781C8.67255 11.5386 8.54257 11.4691 8.47647 11.4624C8.03724 11.3256 7.62714 10.9422 7.78737 10.4455L7.77841 9.74707Z" fill="var(--fill-0, #72B3B1)"/>
<path id="Vector_53" d="M6.76213 11.6216C6.76325 11.7909 6.76101 11.9613 6.76213 12.1294C6.26687 12.1216 5.62708 12.1833 5.15536 12.1317C5.11166 12.1272 5.10942 12.1306 5.07916 12.0981C5.19121 12.1093 5.11502 12.0711 5.11278 12.0162C5.10718 11.885 5.11166 11.7527 5.11054 11.6216H6.761H6.76213Z" fill="var(--fill-0, #74B1A4)"/>
<path id="Vector_54" d="M11.3336 11.9718C11.4446 12.0211 11.4771 12.1691 11.3975 12.2577C11.5544 12.3205 11.5342 12.6456 11.3336 12.6389C11.3258 12.6568 11.3527 12.7073 11.3146 12.7028L10.063 12.6703C10.0585 12.631 10.035 12.4595 10.0316 12.4483C10.0709 12.3317 10.1347 12.2476 10.2221 12.1938L10.2849 12.1288C10.6445 12.1736 10.9515 12.0772 11.2709 11.9315L11.3325 11.9718H11.3336Z" fill="var(--fill-0, #DEE5EB)"/>
<path id="Vector_55" d="M7.77838 9.74733L7.8456 10.4323C7.85681 10.5288 7.77278 10.4839 7.77502 10.5871C7.78398 10.9638 8.09211 11.2474 8.41257 11.383C8.42937 11.3898 8.54703 11.4357 8.47644 11.4627C8.31621 11.4458 7.92964 11.4492 7.81087 11.3819C7.70106 11.3191 7.75597 11.0927 7.74588 10.9705C7.70331 10.4525 7.73692 10.2496 7.77838 9.74733Z" fill="var(--fill-0, #5F9F9F)"/>
<path id="Vector_56" d="M9.61931 8.28667C9.63276 9.11743 9.62604 9.98406 9.71455 10.8114C9.72464 10.9045 9.78402 11.5009 9.80979 11.5256C9.82548 11.5402 9.94761 11.4998 9.96778 11.5581C9.87366 11.5536 9.7773 11.5637 9.68318 11.5559C9.54984 10.5469 9.56553 9.48179 9.5857 8.45933C9.58682 8.39878 9.57113 8.336 9.61819 8.28555L9.61931 8.28667Z" fill="var(--fill-0, #D3E1E3)"/>
<path id="Vector_57" d="M10.3813 11.622C10.4373 11.6948 10.388 11.9606 10.286 11.9718C10.369 12.0357 10.3241 12.1825 10.2222 12.1937C10.183 12.307 10.165 12.4101 10.0317 12.4482C10.0306 12.4449 9.98463 12.4325 9.97343 12.3944C9.92973 12.2431 10.2166 11.7543 10.2849 11.5906C10.3387 11.5984 10.3634 11.6186 10.3802 11.622H10.3813Z" fill="var(--fill-0, #558F8E)"/>
<path id="Vector_58" d="M9.61934 7.68348C9.62158 7.69357 9.61934 7.70478 9.61934 7.71487C9.6227 7.75635 9.61822 7.80008 9.61934 7.84156C9.34818 7.80681 9.15994 7.99739 8.92128 8.06354C9.0759 7.8438 9.35042 7.68796 9.61934 7.68236V7.68348Z" fill="var(--fill-0, #60A3A1)"/>
<path id="Vector_59" d="M18.2851 20.8016L18.228 20.7186C18.1193 20.1009 18.0095 19.4809 17.8963 18.8609C17.6577 18.8508 17.6117 18.3721 17.67 18.2084C17.7316 18.0358 18.0252 17.7308 18.1731 17.6198C17.6554 17.4001 17.8044 16.4976 18.275 16.316C18.1697 15.909 18.1081 15.5805 18.2448 15.1601C18.3143 14.8327 18.5484 13.762 18.8319 14.604C18.9148 14.7094 19.0101 14.8114 19.121 14.8888C19.3339 14.6937 19.5502 14.5054 19.7709 14.3226C19.8516 14.2744 19.9109 14.2699 19.986 14.3327C20.1776 14.4908 20.3759 15.8272 20.1283 16.0738C20.8533 16.1175 20.7233 17.3788 20.1126 17.5582C20.3491 17.5683 20.4947 17.723 20.572 17.9382L20.6056 17.9506C20.7042 17.8373 20.7894 17.8183 20.9328 17.7992C21.0527 17.594 21.2073 17.4349 21.4023 17.297L21.4908 17.307C21.5648 17.242 21.5984 17.3227 21.5625 17.4012C21.3586 17.5189 21.2712 17.6434 21.1748 17.8508C20.8353 18.084 20.9194 18.3968 21.0225 18.7286C21.1211 18.7522 21.1614 18.797 21.1424 18.8632C21.0348 18.9629 20.7547 19.0246 20.6919 18.8351L20.5171 18.8867C20.4107 19.5381 20.2527 20.2085 20.0947 20.833L20.051 20.8464C19.4672 20.7556 18.8891 20.741 18.3165 20.8005C18.3064 20.7982 18.2952 20.8016 18.2851 20.8005V20.8016Z" fill="var(--fill-0, #ECF7F7)"/>
<path id="Vector_60" d="M20.7614 13.9404C21.2432 13.9416 21.7261 13.9404 22.2079 13.9382L22.2852 14.0357C22.3278 14.1445 22.3693 14.2555 22.3861 14.3721C22.5004 15.1681 22.6124 15.9685 22.7144 16.7668C22.7222 16.824 22.72 16.8823 22.7166 16.9406C22.7133 16.9989 22.7065 17.0583 22.6976 17.1166C22.7424 17.2007 22.776 17.2904 22.7951 17.3845C22.8802 17.8173 22.9138 18.333 22.8881 18.7691L22.8477 18.9048C22.3334 18.8532 21.8146 18.9698 21.3003 18.8958C21.2746 18.9205 21.4326 19.3207 21.4516 19.3958C21.4852 19.5348 21.4819 19.6727 21.4975 19.7938C21.5278 20.0315 21.7373 19.777 21.8729 19.8476L21.8404 19.7535C21.8539 19.7333 22.2942 19.6896 22.3177 19.7053C22.3771 19.7434 22.2987 19.8432 22.3222 19.9216C22.3357 19.9687 22.4096 19.9934 22.4152 20.0573C22.4208 20.1212 22.3155 20.2232 22.3491 20.2613C22.3592 20.2725 22.5396 20.2669 22.5889 20.4228C22.6113 20.4923 22.4858 20.564 22.6035 20.675L22.19 20.6436V20.5483C22.4858 20.7064 22.3962 20.5315 22.3491 20.3264C22.2572 20.3185 22.2449 20.4418 22.1497 20.4183C22.0544 20.3948 22.0376 20.2389 22.0018 20.2131C21.9513 20.1761 21.8695 20.2468 21.8012 20.2277C21.7418 20.212 21.5412 19.8219 21.5547 20.2165C21.558 20.332 21.66 20.7692 21.6477 20.8129C21.6186 20.9172 21.4045 20.9363 21.3227 20.999C21.1804 21.1067 21.2129 21.2266 20.9295 21.0999C20.8768 21.0764 20.8757 21.0125 20.8253 20.98C20.6818 20.8869 20.5519 20.98 20.3972 20.9632C20.2292 20.9463 20.0039 20.7916 19.8426 20.915C19.7417 20.9912 19.8314 21.0495 19.605 21.0259C19.4661 21.0114 19.3933 20.9273 19.2801 20.906C19.0795 20.869 18.8286 20.9183 18.6213 20.8981C18.5014 20.8869 18.3927 20.8152 18.3199 20.8028C18.5227 20.6582 18.9081 20.6952 19.1625 20.7064C19.4549 20.7199 19.8247 20.7602 20.0981 20.8342L20.1205 20.7714L21.4292 20.7927C21.3855 20.1515 21.2813 19.5304 21.1143 18.9306L21.1457 18.8655C21.0807 18.8005 20.9956 18.8162 20.9608 18.7478C20.9138 18.6548 20.86 18.2657 20.8734 18.1648C20.8958 17.9967 21.0437 17.9328 21.1278 17.815C21.1916 17.7253 21.2253 17.6009 21.3048 17.5157C21.372 17.4451 21.4841 17.4103 21.5143 17.3722C21.5446 17.3341 21.4953 17.3139 21.4953 17.3094C21.4785 17.1244 21.4079 17.0796 21.353 16.9282C21.1782 16.445 21.1233 15.9865 21.0101 15.4932C20.9474 15.223 20.804 14.9506 20.7972 14.6737C20.7468 14.436 20.7916 14.2274 20.9676 14.0548C20.9003 14.057 20.6942 14.0402 20.7222 13.964C20.7267 13.9528 20.7446 13.9472 20.7659 13.9438L20.7614 13.9404Z" fill="var(--fill-0, #E2F1F1)"/>
<path id="Vector_61" d="M7.65174 13.9404C7.6932 13.9404 7.75707 13.9247 7.77836 13.9718C7.75819 14.0379 7.67415 14.0592 7.52513 14.0334C7.72905 14.529 8.30722 14.6994 8.79463 14.7655L8.8753 14.7195C9.59353 14.9169 10.3196 15.0682 11.0546 15.1736L11.1118 15.2409C11.7 15.2319 12.0082 15.5447 12.3331 15.9976C12.3869 15.9528 12.4351 15.9438 12.4776 15.9707L12.5438 15.9831C12.667 16.8519 12.7914 17.7219 12.9158 18.5908L12.8586 18.6379C12.7925 18.6951 12.7499 18.6424 12.7107 18.5751C12.6435 18.3217 12.5045 18.2253 12.2928 18.102C12.2446 17.9461 12.211 17.7858 12.1919 17.6221L12.1169 17.5246L12.0485 16.7802L12.0956 16.6703L12.0227 16.6266C11.9017 16.0582 11.5208 15.5828 10.8978 15.5705C10.314 15.5279 9.73471 15.4595 9.15878 15.3642C8.88315 15.5088 9.39185 15.8855 9.5532 15.9584C9.96553 16.1916 10.4048 16.3799 10.8384 16.5627L10.8563 16.6389L9.45908 16.5246C9.40865 16.5593 9.17896 17.5392 9.1431 17.6872C9.08259 17.9215 9.00192 17.8699 8.85962 17.7275C8.79575 17.6905 8.77222 17.76 8.75653 17.815C8.4372 18.9226 8.25568 20.1402 8.09545 21.2669C8.19629 21.2849 8.23887 21.3308 8.22319 21.4037L7.87359 21.4351C7.89264 21.2658 7.91393 21.0954 7.93746 20.9272C8.08537 19.8442 8.3173 18.7713 8.49994 17.6939C8.57613 17.2421 8.58734 16.7813 8.733 16.3396C8.34308 16.2196 7.96099 16.0795 7.81869 15.6613C7.78732 15.5682 7.78732 15.4629 7.75594 15.3743C7.5946 14.9101 7.39403 14.4561 7.30215 13.9706C7.35818 13.9706 7.41083 13.9392 7.42876 13.9392C7.50496 13.8608 7.57555 13.8596 7.65062 13.9392L7.65174 13.9404Z" fill="var(--fill-0, #C0A680)"/>
<path id="Vector_62" d="M14.9842 20.5468C15.0324 20.5805 15.103 20.6993 15.1769 20.7509C15.2576 20.8081 15.3259 20.7969 15.3338 20.8013C15.4727 20.8776 15.6016 20.9987 15.8021 21.0794C16.1304 21.2128 16.954 21.3058 17.1434 21.4998L17.1209 21.5637H13.3091L13.271 21.4998C13.2732 21.4908 13.271 21.4785 13.271 21.4684C13.2239 21.3832 13.2127 21.3305 13.2396 21.3092C13.1264 21.1119 13.1645 20.8742 13.2396 20.6735L13.2844 20.5984C13.7236 20.4897 14.1494 20.4 14.5931 20.5031L14.8273 20.4628C14.9125 20.4515 14.9887 20.4459 14.9853 20.548L14.9842 20.5468Z" fill="var(--fill-0, #4E3A2E)"/>
<path id="Vector_63" d="M6.54024 16.9585C6.49542 17.2982 6.45844 17.6357 6.41362 17.9754C6.39458 18.037 6.41138 18.0729 6.46293 18.0808L6.38225 18.1974L6.37217 18.314C6.44724 18.3431 6.42595 18.3633 6.35088 18.3879C6.30382 18.7377 6.26012 19.0898 6.19177 19.4362C6.44836 19.3902 6.51671 19.481 6.50999 19.7367C6.50551 19.8936 6.44948 19.8768 6.40466 19.953C6.38673 19.9844 6.39122 20.0584 6.38001 20.0696C6.35088 20.0943 6.18953 20.0371 6.14359 20.1033C6.08869 20.1806 6.05395 20.7872 6.03378 20.9307C5.9419 21.0988 5.97776 21.7054 5.89148 21.8208C5.85563 21.8679 5.69876 21.8578 5.63265 21.8545C5.57775 21.8511 5.53069 21.8208 5.52508 21.8208C5.45113 21.7614 5.37942 21.7625 5.27522 21.7648C4.6399 21.7939 4.0214 21.785 3.4197 21.7412L3.43091 21.6941H3.7805L3.85893 21.6314C4.42813 21.6762 4.9895 21.6695 5.54413 21.6078C5.69876 21.11 5.78728 20.5898 5.81193 20.0495L5.90829 19.7557C5.92958 19.5864 5.95087 19.416 5.97216 19.2479C5.96319 18.4933 6.04163 17.7254 6.22651 16.9922C6.26012 16.8969 6.5055 16.8587 6.5436 16.9608L6.54024 16.9585Z" fill="var(--fill-0, #8FBFBB)"/>
<path id="Vector_64" d="M22.6976 17.1162L22.7267 17.012C22.9239 16.9032 22.9284 16.7619 22.8993 16.5557L22.8276 15.9603C22.7984 15.6386 22.7995 15.3045 23.1984 15.5511L23.2388 15.5287C23.2567 15.846 23.2982 16.1666 23.3015 16.4985C23.3015 16.5523 23.2814 16.6397 23.334 16.6723C23.4237 16.7776 23.4248 16.9189 23.334 17.022C23.3676 17.1622 23.3587 17.3169 23.3396 17.4615L23.0707 17.4638C23.1771 18.5636 23.2645 19.6578 23.334 20.7464C23.3452 20.9135 23.3026 21.0166 23.2074 21.0559C23.1122 20.2946 22.9878 19.5222 22.8903 18.7688C22.8186 18.2228 22.7715 17.6656 22.6998 17.1173L22.6976 17.1162Z" fill="var(--fill-0, #759E9F)"/>
<path id="Vector_65" d="M12.1908 17.6242C12.2525 17.7352 12.2054 17.9011 12.285 18.0143C12.3264 18.0737 12.5472 18.1758 12.6211 18.2576C12.732 18.3798 12.7141 18.5592 12.8575 18.6399C12.9629 18.7027 13.0032 18.8955 12.9214 18.9897C12.9371 19.409 12.9505 19.8373 12.9595 20.2745L12.9214 20.3877L12.9449 20.7712C13.0166 20.8945 13.0402 21.047 13.0166 21.2275C13.1242 21.2252 13.1993 21.2521 13.2396 21.3082C13.2396 21.3418 13.2777 21.3923 13.271 21.4674C13.2329 21.4281 13.2631 21.3788 13.1937 21.3698C13.029 21.3474 12.8329 21.3878 12.6682 21.4046C12.6424 21.1905 12.6323 20.9696 12.6021 20.7566C12.5987 20.7308 12.574 20.7129 12.5729 20.7061C12.425 19.6837 12.3152 18.6478 12.192 17.6253L12.1908 17.6242Z" fill="var(--fill-0, #D6BD94)"/>
<path id="Vector_66" d="M23.3642 17.3071C23.3766 18.0415 23.4516 18.7825 23.492 19.5135C23.529 20.1828 23.4987 21.0573 23.6175 21.6907C23.6354 21.7872 23.5693 21.7513 23.5077 21.7546C23.464 21.7569 23.2757 21.7636 23.2679 21.7546C23.2444 21.7289 23.2163 21.1526 23.204 21.0562C23.2735 20.8959 23.2724 20.703 23.269 20.5304C23.2556 19.8745 23.1289 19.1323 23.0774 18.4664C23.0505 18.1132 23.0348 17.7567 23.0135 17.4024C23.0673 17.3935 23.3183 17.4148 23.3318 17.4024C23.3452 17.389 23.3318 17.0807 23.3318 17.0213C23.4606 16.9742 23.4752 17.2679 23.3631 17.3071H23.3642Z" fill="var(--fill-0, #92BEBA)"/>
<path id="Vector_67" d="M8.22321 21.405C8.17951 21.3298 8.03609 21.3635 8.03384 21.2648C8.0316 21.1516 8.08426 20.8601 8.10443 20.73C8.23329 19.8959 8.44506 18.7277 8.66355 17.9227C8.69605 17.8028 8.72294 17.5931 8.88989 17.6727C8.9672 17.7097 9.06132 17.9171 9.14424 17.6884C8.88765 18.7356 8.64899 19.7883 8.38231 20.8332L8.22321 21.405Z" fill="var(--fill-0, #DDC496)"/>
<path id="Vector_68" d="M11.5555 17.8151C11.5387 18.8095 11.5376 19.8062 11.5242 20.8006C11.5231 20.9027 11.5477 21.3533 11.4939 21.3903C11.4513 21.4195 11.0603 21.4184 11.03 21.3746C10.9975 21.3276 11.0177 20.9318 11.0166 20.8331C11.0166 20.7805 11.0177 20.7278 11.0166 20.6739L11.0917 20.6807C11.1208 20.8825 11.1253 21.0865 11.104 21.2906C11.0984 21.3163 11.1443 21.3119 11.1443 21.3096C11.2071 20.1829 11.2004 19.0236 11.1387 17.9205C11.1779 17.8128 11.4805 17.722 11.5555 17.8151Z" fill="var(--fill-0, #DEC496)"/>
<path id="Vector_69" d="M17.1434 21.4998C17.1949 21.5536 17.2498 21.6074 17.2386 21.6904C16.2492 21.6837 15.2587 21.6994 14.2693 21.6915C13.9803 21.6893 13.6228 21.7139 13.3483 21.6915C13.0928 21.6713 13.2497 21.5884 13.271 21.4998H17.1434Z" fill="var(--fill-0, #8E8169)"/>
<path id="Vector_70" d="M3.39732 21.627C3.39732 21.627 3.42645 21.6875 3.42869 21.6909C3.46118 21.7234 3.45782 21.7189 3.50488 21.7245C4.10658 21.7906 4.82929 21.674 5.44555 21.7223C5.54304 21.7301 5.52735 21.7066 5.52287 21.8176C4.53124 21.7817 3.47575 21.8691 2.49421 21.7514C2.44155 21.7447 2.3844 21.7324 2.34854 21.6909L3.39619 21.627H3.39732Z" fill="var(--fill-0, #C9C9C5)"/>
<path id="Vector_71" d="M21.6342 21.1515C21.6824 21.1851 21.809 21.3095 21.697 21.3409C21.5849 21.3723 21.539 21.2142 21.6342 21.1515Z" fill="var(--fill-0, #E2F1F1)"/>
<path id="Vector_72" d="M21.8091 19.2769C21.7486 19.3419 21.6511 19.1087 21.7609 19.1502C21.8012 19.1659 21.8281 19.2556 21.8091 19.2769Z" fill="var(--fill-0, #E2F1F1)"/>
<path id="Vector_73" d="M9.84119 13.0827H10.5079C10.6535 13.0546 10.8059 13.0558 10.9527 13.0827C11.1958 13.0827 11.4401 13.0827 11.6833 13.0827C12.1527 13.0625 12.6424 13.0434 13.1119 13.0827C13.3236 13.0827 13.5354 13.0827 13.7472 13.0827C13.8716 13.0546 14.0038 13.0558 14.1281 13.0827C16.1954 13.0827 18.2515 13.0782 20.3188 13.0827C20.4241 13.0558 20.5317 13.0558 20.6359 13.0827C21.0583 13.0827 21.483 13.0804 21.9054 13.0827C22.1586 13.0569 22.4141 13.0558 22.6673 13.0827C23.1559 13.086 23.6478 13.1017 24.1273 13.1141C24.1654 13.299 24.059 13.4325 24.0007 13.5905L23.9402 13.6118C23.5503 13.5692 23.1581 13.5513 22.7626 13.5592C22.6785 13.5592 22.5934 13.5592 22.5082 13.5592C22.2225 13.5827 21.9357 13.5928 21.6511 13.5592C19.8527 13.5592 18.0532 13.5592 16.2548 13.5592C16.1685 13.5266 16.0856 13.5154 16.0005 13.5592H15.9052C15.7271 13.5278 15.5456 13.5109 15.3618 13.5087L15.3248 13.4347C15.4077 13.2094 15.0234 13.3461 15.0111 13.5244L14.8901 13.5592C14.8587 13.5592 14.8262 13.5592 14.7948 13.5592L13.8716 13.502C13.783 13.4807 13.7617 13.4033 13.7561 13.3237C13.1421 13.1141 12.518 13.2138 11.9421 13.4549C11.8088 13.5479 10.5594 13.5255 10.5112 13.4706C10.4899 13.4201 10.4866 13.3641 10.4989 13.3047C10.0586 13.1937 9.60141 13.1735 9.12856 13.243C8.62771 13.1612 8.11341 13.1578 7.58566 13.234C7.48034 13.2363 6.72961 13.2508 6.6848 13.1589L6.70048 13.0827H9.84343H9.84119Z" fill="var(--fill-0, #B3D8CE)"/>
<path id="Vector_74" d="M23.1738 13.9717C23.1794 14.0827 23.1648 14.1959 23.1727 14.3069C23.176 14.3484 23.2052 14.3899 23.2052 14.4011V14.9729C23.2052 15.1198 23.2276 15.363 23.2365 15.529C23.2623 15.7622 23.0371 15.455 22.9172 15.5424C22.8679 15.5783 22.8847 15.8451 22.8881 15.9258C22.8981 16.1972 22.99 16.5503 22.9676 16.8171C22.9564 16.9528 22.7895 17.0358 22.6965 17.1176C22.562 16.0929 22.3906 15.0671 22.2841 14.0367V13.9415C22.5329 13.9415 22.7827 13.9415 23.0326 13.9403C23.0909 13.9403 23.1525 13.974 23.1738 13.9728V13.9717Z" fill="var(--fill-0, #6C9194)"/>
<path id="Vector_75" d="M23.9996 13.5906C23.9895 13.6175 23.9805 13.65 23.9682 13.6859C23.9402 13.6253 23.8853 13.6018 23.8237 13.5928C23.5839 13.5558 23.1973 13.5939 22.9362 13.5917C22.8825 13.5917 22.7951 13.6119 22.7626 13.5592C23.1715 13.5592 23.5984 13.5323 24.0007 13.5906H23.9996Z" fill="var(--fill-0, #A9CDC5)"/>
<path id="Vector_76" d="M6.73071 12.9557C6.69709 13.0208 6.64555 13.0152 6.69933 13.0824C6.73295 13.125 6.7576 13.1362 6.81138 13.1441C6.93239 13.1609 7.15313 13.1665 7.28646 13.171C7.76155 13.1889 8.22991 13.0959 8.71508 13.1138C8.83721 13.1183 9.01201 13.1766 9.12966 13.1777C9.4277 13.1811 9.76385 13.1138 10.0798 13.1452C10.2434 13.1609 10.4025 13.2517 10.5728 13.2405C10.5941 13.2932 10.5437 13.3863 10.5493 13.4165C10.5627 13.495 10.9628 13.458 11.0625 13.4659C11.318 13.486 11.5981 13.5354 11.8625 13.4367C11.9073 13.4199 11.9062 13.3739 11.9286 13.3694C12.4093 13.2652 12.6771 13.0959 13.2228 13.1463C13.3012 13.1542 13.7371 13.245 13.7886 13.2719C13.8312 13.2943 13.8166 13.3728 13.8402 13.4109C13.9096 13.5253 14.6402 13.4737 14.7948 13.5589C12.3768 13.5612 9.94088 13.5062 7.52513 13.5589L5.91051 13.5544C5.85449 13.3582 5.73348 13.1968 5.71555 12.9871C5.82984 12.9961 5.99343 12.8661 6.07971 12.8638C6.16598 12.8616 6.49317 12.9356 6.58729 12.958C6.64555 12.9714 6.67356 12.9703 6.73183 12.9557H6.73071Z" fill="var(--fill-0, #B2D7CE)"/>
<path id="Vector_77" d="M6.9212 13.9716C6.85958 14.5759 6.77891 15.1802 6.69935 15.7822C6.7677 15.8966 6.78115 16.0165 6.66798 16.132C6.63212 16.4056 6.57722 16.6825 6.54136 16.9583C6.43156 16.9572 6.33631 16.9874 6.22427 16.9897C6.13687 17.7397 6.06068 18.4942 5.96992 19.2454C5.88924 19.2891 5.85451 19.3889 5.74806 19.3721C5.66963 19.3306 5.66963 19.3227 5.74806 19.2768C5.67075 19.297 5.65954 19.2768 5.71669 19.2129C5.7828 18.9617 5.79288 18.7095 5.81193 18.4505C5.75254 17.872 5.77159 17.2363 5.90717 16.6713C5.97776 16.974 5.86571 16.9986 6.22427 16.9886C6.27245 16.5726 6.30606 16.1544 6.35536 15.7385C6.42595 15.1488 6.55481 14.5669 6.57274 13.9716C6.50439 13.9839 6.11222 13.9537 6.09653 13.9716C6.31503 13.9178 6.58506 13.9346 6.81476 13.938C6.87191 13.938 6.91672 13.9716 6.92233 13.9716H6.9212Z" fill="var(--fill-0, #749F9F)"/>
<path id="Vector_78" d="M16.4767 14.0041C16.7075 14.1857 16.7736 14.494 16.722 14.7743L15.6822 18.3563C15.6408 18.2139 15.6464 18.0659 15.7013 17.9112C15.9769 16.9751 16.2021 16.0345 16.3747 15.0871L16.3254 14.0198C13.932 14.0523 11.5353 14.0411 9.14087 14.0299C8.88652 14.0288 8.63441 14.0019 8.38231 13.9738C8.2725 14.059 8.03047 14.0624 7.9061 14.0052C7.86128 14.0478 7.8456 14.0299 7.87473 13.9738C10.6602 13.8202 13.5063 14.0243 16.3052 13.9402C16.3769 13.9335 16.4251 13.9637 16.4778 14.0063L16.4767 14.0041Z" fill="var(--fill-0, #3B5564)"/>
<path id="Vector_79" d="M7.77835 13.9718C7.80972 13.9696 7.84222 13.9741 7.87359 13.9718L7.90496 14.0032C7.95874 14.0481 7.96995 14.131 7.93858 14.251C8.04502 14.3283 8.09657 14.4046 8.09544 14.4797L8.18172 14.4629C8.3554 14.5728 8.55148 14.6367 8.74868 14.6893L8.79351 14.7667C8.22206 14.7757 7.64053 14.5548 7.42764 13.9886C7.42764 13.9573 7.72569 13.9763 7.77723 13.973L7.77835 13.9718Z" fill="var(--fill-0, #A48C6A)"/>
<path id="Vector_80" d="M14.8889 13.559C15.0704 13.4413 14.9539 13.2978 15.1881 13.2709C15.5444 13.2305 15.3405 13.4088 15.3965 13.4637C15.4156 13.4817 15.838 13.4761 15.9041 13.559C15.5657 13.559 15.2262 13.559 14.8878 13.559H14.8889Z" fill="var(--fill-0, #B2D7CE)"/>
<path id="Vector_81" d="M20.7614 13.9403C20.7502 14.0536 20.7883 13.9762 20.8432 13.974C20.9429 13.9706 21.0426 13.9706 21.1424 13.9717C20.9149 14.1522 20.7861 14.3742 20.7928 14.6702C20.7121 14.4471 20.73 14.2038 20.7289 13.9717C20.6964 13.9392 20.0936 14.0199 19.9984 13.9403C20.2516 13.9403 20.5071 13.9403 20.7603 13.9403H20.7614Z" fill="var(--fill-0, #ECF7F7)"/>
<path id="Vector_82" d="M19.9367 13.9401H16.6985C17.7663 13.9099 18.8655 13.939 19.9367 13.9401Z" fill="var(--fill-0, #ECF7F7)"/>
<path id="Vector_83" d="M22.5071 13.5589C22.4746 13.6116 22.3861 13.5902 22.3334 13.5914C22.1497 13.5936 21.9626 13.6048 21.781 13.6048C21.7295 13.6048 21.6858 13.6048 21.6499 13.5589C21.9357 13.5589 22.2214 13.5589 22.5071 13.5589Z" fill="var(--fill-0, #A9CDC5)"/>
<path id="Vector_84" d="M7.42881 13.9401C7.412 13.7506 7.61929 13.7909 7.65066 13.9401C7.57671 13.9389 7.50276 13.9401 7.42881 13.9401Z" fill="var(--fill-0, #A7CEC6)"/>
<path id="Vector_85" d="M16.2537 13.559C16.1697 13.559 16.0845 13.559 15.9994 13.559C16.0632 13.4682 16.1809 13.4906 16.2537 13.559Z" fill="var(--fill-0, #B2D7CE)"/>
<path id="Vector_86" d="M11.8412 12.3203C12.1572 12.3371 12.4821 12.3315 12.8183 12.3035L12.8889 12.2575C13.0973 12.2643 13.3236 12.2856 13.5242 12.2889C13.5455 12.6477 14.0105 12.5244 14.2693 12.5434C14.7657 12.5804 15.2699 12.5871 15.7629 12.6365C15.8201 12.6421 15.8817 12.6253 15.9041 12.7015C15.8369 12.7284 15.7203 12.7262 15.6497 12.7015C14.3063 12.7318 12.9606 12.7497 11.6183 12.7015C11.5858 12.7676 11.5286 12.7643 11.4916 12.7015C11.4266 12.7037 11.4098 12.7732 11.3325 12.6376C11.3717 12.5389 11.3886 12.5771 11.411 12.5434C11.4636 12.4616 11.4098 12.3439 11.3964 12.2564C11.5017 12.1667 11.8054 12.1835 11.8412 12.3203Z" fill="var(--fill-0, #8B99A3)"/>
<path id="Vector_87" d="M15.6508 12.7013C15.6789 12.7103 15.6777 12.7215 15.6508 12.7327C14.3522 12.735 13.0076 12.7765 11.7146 12.7327C11.6552 12.7809 11.5801 12.7843 11.6194 12.7013C12.9628 12.7092 14.3074 12.7013 15.6508 12.7013Z" fill="var(--fill-0, #B2D7CE)"/>
<path id="Vector_88" d="M15.9052 12.7013H19.0482C17.9221 12.707 16.7803 12.7316 15.652 12.7327V12.7013H15.9064H15.9052Z" fill="var(--fill-0, #B9DED3)"/>
<path id="Vector_89" d="M13.1119 13.0826H11.6833C11.7158 13.0299 11.8032 13.0512 11.857 13.0501C12.1315 13.0467 12.4071 13.0546 12.6828 13.0501C12.815 13.0478 12.9718 12.9783 13.1119 13.0815V13.0826Z" fill="var(--fill-0, #B9DED3)"/>
<path id="Vector_90" d="M22.6662 13.0828C22.4129 13.0806 22.1575 13.0839 21.9042 13.0828C22.1317 13.0301 22.4387 13.0301 22.6662 13.0828Z" fill="var(--fill-0, #B9DED3)"/>
<path id="Vector_91" d="M20.8252 12.7013C20.7883 12.7978 20.5765 12.7978 20.5395 12.7013C20.6347 12.7013 20.73 12.7013 20.8252 12.7013Z" fill="var(--fill-0, #B9DED3)"/>
<path id="Vector_92" d="M11.6194 12.7013C11.6351 12.7428 11.6799 12.7316 11.7146 12.7327C11.6709 12.837 11.4861 12.8258 11.4928 12.7013C11.5354 12.7002 11.5779 12.7013 11.6194 12.7013Z" fill="var(--fill-0, #B9DED3)"/>
<path id="Vector_93" d="M10.9527 13.0827H10.5079C10.6143 13.03 10.8395 13.0289 10.9527 13.0827Z" fill="var(--fill-0, #B9DED3)"/>
<path id="Vector_94" d="M14.127 13.0827H13.7461C13.8312 13.03 14.0363 13.0289 14.127 13.0827Z" fill="var(--fill-0, #B9DED3)"/>
<path id="Vector_95" d="M20.6347 13.0827C20.5294 13.0827 20.423 13.0827 20.3176 13.0827C20.3815 13.03 20.5653 13.0289 20.6347 13.0827Z" fill="var(--fill-0, #B9DED3)"/>
<path id="Vector_96" d="M11.2384 11.3673C11.3101 11.4424 11.3471 11.3706 11.3975 11.3673C11.6373 11.3516 12.0485 11.2899 12.2536 11.4166C12.3556 11.4794 12.7455 11.929 12.6547 12.0366C12.6301 12.0657 12.5595 12.0556 12.546 12.0713C12.5248 12.096 12.5696 12.2003 12.4777 12.2249C12.4217 12.3326 12.2805 12.2832 12.3186 12.161L12.2782 12.1812C12.0474 11.9189 11.8861 11.8348 11.5174 11.8494L11.4939 11.7798C11.4581 11.8124 11.4054 11.8034 11.337 11.7507C11.0446 11.9245 10.6984 12.0478 10.351 12.0399L10.2872 11.9704C10.3174 11.8583 10.323 11.7339 10.3824 11.6206C10.6199 11.6677 10.9101 11.4861 11.1432 11.4289C11.1085 11.3202 11.104 11.1834 11.0805 11.0814C11.1981 11.0455 11.2665 11.2798 11.2396 11.3673H11.2384Z" fill="var(--fill-0, #FCCEBD)"/>
<path id="Vector_97" d="M12.3174 12.1623C12.4127 12.2508 12.3634 12.2037 12.4765 12.2262C12.6368 12.2564 12.7275 12.2519 12.8889 12.2576C12.8922 12.3685 12.909 12.345 12.8116 12.3529C12.5987 12.3685 12.034 12.4313 11.8625 12.3854C11.8289 12.3764 11.8446 12.3226 11.8412 12.3215C11.8917 12.1847 12.016 12.1398 12.2144 12.188L12.3174 12.1623Z" fill="var(--fill-0, #A7B5BB)"/>
<path id="Vector_98" d="M10.4765 3.23674L10.4417 3.30738C9.97114 3.42734 10.0171 4.14822 10.4328 4.3119C11.0681 4.56303 11.2586 3.60784 10.7981 3.31298L10.7947 3.23674C10.7992 3.15154 10.8339 3.1549 10.8586 3.23674C11.0076 3.28383 11.1376 3.6482 11.1633 3.65156C11.1768 3.6538 11.3516 3.6168 11.3594 3.61007C11.3673 3.60335 11.4065 3.4789 11.4479 3.42845C11.5577 3.29616 11.6138 3.32643 11.7471 3.29953C11.7942 3.2132 11.8356 3.2076 11.8737 3.29953C12.0048 3.30289 11.9174 3.34885 11.8098 3.33092C11.3572 3.31522 11.2227 3.91727 11.5398 4.1897C11.6003 4.24127 11.8323 4.31078 11.9051 4.31639C11.6093 4.38029 11.3157 4.16279 11.3045 3.85897C11.3023 3.80964 11.3863 3.69977 11.2866 3.71322C11.1084 3.73565 11.1969 3.81973 11.1723 3.94866C11.0558 4.55294 10.3476 4.65609 10.0697 4.10449C10.0036 3.97332 10.007 3.72555 9.9689 3.68183L9.75152 3.66389C9.72127 3.74574 9.50614 3.74125 9.46132 3.65044C9.45684 3.64147 9.4658 3.62577 9.46132 3.61905C9.53527 3.5585 9.67757 3.59102 9.77841 3.58766C10.119 3.57532 9.95433 3.55514 10.1426 3.36455C10.2064 3.29952 10.2669 3.27037 10.3499 3.23898C10.3286 3.14817 10.5191 3.11005 10.4765 3.23898V3.23674Z" fill="var(--fill-0, #3C312C)"/>
<path id="Vector_99" d="M11.3011 4.03079C11.2227 4.1642 11.4435 4.55772 11.4266 4.61489C11.4054 4.68889 11.0827 4.70907 11.0804 4.58911C11.0804 4.57342 11.1376 4.29425 11.1432 4.27744C11.1566 4.24044 11.2059 4.2438 11.2205 4.2225C11.2709 4.14402 11.1824 4.00724 11.3011 4.03191V4.03079Z" fill="var(--fill-0, #F8A990)"/>
<path id="Vector_100" d="M9.96894 3.68102H9.74708C9.73812 3.86152 9.81431 4.18216 9.5566 4.18889C9.56108 4.01623 9.53979 3.80546 9.46136 3.64963C9.57677 3.66981 9.90507 3.60814 9.96894 3.68102Z" fill="var(--fill-0, #755144)"/>
<path id="Vector_101" d="M10.444 4.72905C10.444 4.72905 10.4507 4.78174 10.4754 4.80753C10.6121 4.94767 10.7667 5.00932 10.9527 5.06202C10.8182 5.20888 10.3734 4.94766 10.3521 4.80416C10.3443 4.75147 10.4171 4.70774 10.444 4.72905Z" fill="var(--fill-0, #E38B75)"/>
<path id="Vector_102" d="M10.3813 7.42857C10.6054 7.51154 10.9068 7.76715 10.8418 8.03174C10.7757 7.93196 10.6099 7.67186 10.4933 7.65056C10.4474 7.64159 10.4362 7.65056 10.4474 7.69652C10.5695 8.32996 10.6524 8.96788 10.8037 9.59571C10.9404 10.1608 11.1511 10.7079 11.2889 11.2707C11.3034 11.3323 11.3359 11.3817 11.2396 11.3682C11.188 11.3144 11.1455 11.1451 11.0805 11.0823C10.8194 9.92308 10.49 8.78962 10.3521 7.60123C10.3398 7.49809 10.3712 7.48575 10.3824 7.4297L10.3813 7.42857Z" fill="var(--fill-0, #65A5A5)"/>
<path id="Vector_103" d="M10.6356 2.06077C10.6916 2.04731 10.7599 2.063 10.7622 2.12466C10.9863 2.24463 11.216 2.43186 11.4602 2.53724C11.6776 2.6303 11.9264 2.69308 12.1583 2.63254C12.1505 2.7581 12.1695 2.88816 12.1583 3.01372C12.1 2.99354 12.1404 2.87022 12.1258 2.85564C12.0933 2.82201 11.3348 2.79174 11.2283 2.62693L10.3487 1.93408C10.4473 1.97444 10.5392 2.01144 10.6345 2.06077H10.6356Z" fill="var(--fill-0, #FAB6A2)"/>
<path id="Vector_104" d="M10.6356 2.06111C10.6659 2.0017 10.8194 2.04766 10.7936 2.1082L10.7622 2.1239C10.7219 2.1026 10.6771 2.08242 10.6356 2.05999V2.06111Z" fill="var(--fill-0, #6F493A)"/>
<path id="Vector_105" d="M10.8574 3.23669C10.8417 3.23221 10.8149 3.23893 10.7936 3.23669C10.7443 3.32078 10.5258 3.32078 10.4765 3.23669C10.4294 3.18288 10.398 3.21875 10.3499 3.23669C10.2961 3.19969 10.2479 3.19745 10.3386 3.14588C10.4922 3.05843 11.0087 2.88466 10.8586 3.23669H10.8574Z" fill="var(--fill-0, #8C5E4E)"/>
<path id="Vector_106" d="M11.746 3.2995C11.848 3.16272 11.5981 3.30959 11.5555 3.26811V3.10891C11.7382 3.11788 11.9611 3.06182 12.0945 3.2199C12.0205 3.21429 11.913 3.29165 11.8726 3.2995C11.8345 3.30623 11.783 3.29165 11.746 3.2995Z" fill="var(--fill-0, #7B5546)"/>
<path id="Vector_107" d="M5.33351 19.4988C5.34583 19.6098 5.48813 19.639 5.51054 19.7186C5.52959 19.7881 5.54752 20.019 5.49373 20.056C5.38841 20.13 4.78335 20.1177 4.63545 20.0706C4.8573 20.0706 5.08028 20.0706 5.30213 20.0706L5.14302 19.4988C5.20577 19.4932 5.27188 19.5056 5.33351 19.4988Z" fill="var(--fill-0, #80BFBD)"/>
<path id="Vector_108" d="M7.17554 12.7017C7.0803 12.7017 6.98506 12.7017 6.88982 12.7017C6.22425 12.7017 5.55645 12.6961 4.88976 12.7017H7.17554Z" fill="var(--fill-0, #B2D7CE)"/>
<path id="Vector_109" d="M3.77829 21.6906C3.78725 21.611 3.7133 21.63 3.68193 21.5493C3.62366 21.3979 3.5329 20.76 3.56988 20.6087C3.61582 20.4158 3.80518 20.3856 3.97437 20.3463C4.34413 20.26 5.04219 20.214 5.41531 20.26C5.45453 20.2645 5.47918 20.2578 5.50943 20.2936C5.55537 20.3474 5.51728 20.4887 5.60355 20.4842C5.68647 20.3755 5.69095 20.2342 5.69991 20.1064L5.90608 19.7533C5.83997 20.2925 5.80524 21.0078 5.65061 21.5145C5.61812 21.6222 5.59907 21.676 5.47918 21.6928C5.0209 21.7545 4.27242 21.6917 3.77941 21.6917L3.77829 21.6906Z" fill="var(--fill-0, #80BFBD)"/>
<path id="Vector_110" d="M5.74694 19.372C5.74358 19.4135 5.76375 19.4527 5.71557 19.4673V19.3406C5.54974 19.4101 5.5968 19.298 5.74694 19.2767C5.75143 19.3002 5.74919 19.3451 5.74694 19.372Z" fill="var(--fill-0, #80BFBD)"/>
<path id="Vector_111" d="M4.31833 18.3551L4.62198 18.4167C4.68584 18.5064 4.52449 18.6768 4.6668 18.7362C4.61525 18.8013 4.56035 18.8629 4.50769 18.9268L4.45951 18.9089C4.46959 18.9481 4.38556 18.9818 4.3497 18.9268C4.33177 18.8304 4.25222 18.8349 4.21636 18.7284C4.19844 18.6735 4.19619 18.5658 4.18611 18.5513C4.17826 18.5412 3.97882 18.466 3.93848 18.4817L4.31945 18.3551H4.31833Z" fill="var(--fill-0, #94CAC7)"/>
<path id="Vector_112" d="M4.79453 18.8006C4.78445 18.8118 4.77212 18.8208 4.76316 18.832C4.75868 18.7524 4.79453 18.6851 4.69929 18.7053C4.74411 18.6493 4.90434 18.4822 4.92115 18.4508C4.98389 18.3589 5.06457 18.4755 4.95588 18.5226C4.87521 18.5977 4.83375 18.7008 4.79453 18.8006Z" fill="var(--fill-0, #94CAC7)"/>
<path id="Vector_113" d="M4.38106 19.2769C4.45726 19.1211 4.43148 19.176 4.54017 19.055C4.52112 19.1379 4.44829 19.2231 4.38106 19.2769Z" fill="var(--fill-0, #94CAC7)"/>
<path id="Vector_114" d="M21.0471 11.336C21.2903 11.3304 21.5345 11.3394 21.7766 11.336C21.7811 11.3943 21.706 11.354 21.6656 11.3988C21.6477 11.419 21.6231 11.5143 21.6197 11.5468C21.6029 11.7508 21.7015 12.1096 21.6847 12.3047C21.6768 12.391 21.6287 12.4157 21.5861 12.4785C21.4281 12.4785 21.2679 12.4807 21.1099 12.4785C20.9317 12.1287 20.8701 11.6993 21.046 11.3349L21.0471 11.336Z" fill="var(--fill-0, #30A8A7)"/>
<path id="Vector_115" d="M11.6418 3.62159C11.8334 3.57113 11.7651 4.01398 11.699 4.03079C11.5309 4.07452 11.4368 3.67652 11.6418 3.62159Z" fill="var(--fill-0, #181513)"/>
<path id="Vector_116" d="M12.3174 12.1625C12.3163 12.3104 12.0777 12.2275 12.0194 12.2342C11.9611 12.2409 11.9107 12.3217 11.8412 12.3217C11.83 12.3149 11.6272 12.2712 11.5947 12.2656C11.5309 12.2533 11.458 12.3172 11.3964 12.2589C11.3807 12.1613 11.3583 12.0683 11.3325 11.973C11.3034 11.8945 11.4087 11.7869 11.4916 11.7824C11.6384 11.8171 11.8659 11.779 12.0295 11.8642C12.1214 11.9124 12.2379 12.0885 12.3174 12.1636V12.1625Z" fill="var(--fill-0, #6AADAA)"/>
<path id="Vector_117" d="M11.4928 11.7811C11.467 11.8551 11.402 11.9347 11.3337 11.9717C11.2418 12.0221 10.8396 12.1713 10.7376 12.1858C10.5695 12.2105 10.3914 12.1858 10.2222 12.1937C10.2457 12.1253 10.267 12.0423 10.286 11.9717C10.6009 12.0098 10.8754 11.8966 11.16 11.7811C11.2149 11.7587 11.2833 11.6959 11.3258 11.6892C11.4188 11.6757 11.4379 11.7676 11.4928 11.7811Z" fill="var(--fill-0, #FDB9A8)"/>
<path id="Vector_118" d="M8.38121 13.9715C11.0356 13.9389 13.6945 13.9961 16.3489 13.9715C16.4419 14.4502 16.4845 14.8897 16.4038 15.3762C16.238 16.3807 15.8492 17.3001 15.6823 18.3551C15.5736 19.0412 15.2475 19.7374 15.1366 20.4303L14.9831 20.5468C14.8878 20.4796 14.7119 20.5648 14.592 20.5659C14.4609 20.567 14.3074 20.5121 14.1752 20.5132C13.9007 20.5166 13.5007 20.613 13.2374 20.6735C13.2273 20.7016 13.2172 20.7016 13.206 20.6735C13.1242 20.7834 13.0312 20.7139 13.0357 20.5547C12.9763 20.0356 12.9169 19.5132 12.9203 18.9896C12.9035 18.8708 12.8732 18.7564 12.8564 18.6398L12.4754 15.9715C12.3376 15.9188 12.1785 15.7047 12.1584 15.559C12.1371 15.4682 12.22 15.4222 12.4082 15.4199C12.4732 15.3179 12.5259 15.2708 12.6088 15.3796L12.7802 15.032C12.9942 14.819 13.0088 15.1666 12.9315 15.3224C13.4996 14.9267 13.4615 15.3785 12.9774 15.6094C12.8183 15.7417 12.7107 15.9099 12.6704 16.1139L12.9953 17.2889C13.113 17.836 13.1511 18.3954 13.1108 18.9683C13.2475 19.4515 13.3259 19.9392 13.3461 20.4303L14.1909 20.2576L14.22 18.0221C14.2649 17.9952 14.2873 17.947 14.2861 17.8786C14.2189 17.2608 14.3814 16.6498 14.5573 16.0668C14.6055 15.911 14.6178 15.7563 14.5932 15.6038C14.5506 15.5713 14.5226 15.5354 14.5091 15.4962L14.229 15.4782C14.1662 15.5601 14.0609 15.4446 14.1606 15.3852C14.136 15.3785 14.099 15.3684 14.0968 15.3482C14.0889 15.2529 14.0878 14.6116 14.1181 14.5802C14.1282 14.569 14.1438 14.5634 14.1606 14.5589L14.0923 14.5533C14.034 14.384 13.9825 14.3661 13.8211 14.347C12.5561 14.3257 11.2777 14.3179 9.98462 14.3212C9.40421 14.2607 8.83725 14.2517 8.28597 14.2943L8.25684 14.2248C8.16944 14.1351 8.26132 13.9759 8.38345 13.9703L8.38121 13.9715Z" fill="var(--fill-0, #334853)"/>
<path id="Vector_119" d="M6.38111 18.1963C6.3912 18.1224 6.40352 18.0416 6.41249 17.9744C6.42369 18.0237 6.36991 18.0932 6.46515 18.0428C6.55143 17.9957 6.6265 17.9239 6.72958 17.9105L6.63434 17.8791C6.69036 17.7658 6.87188 17.832 6.98393 17.8152C6.85171 17.6885 6.71165 17.536 6.67356 17.3477C6.64891 17.2255 6.70381 17.1537 6.69821 17.0707C6.69372 17.0124 6.6321 16.9575 6.63994 16.9149C6.64442 16.8914 6.72622 16.8073 6.74527 16.8073C6.83715 16.805 7.19234 17.0819 7.26405 17.1705C7.37722 17.3073 7.70664 18.008 7.5565 18.1201C7.44893 18.1997 7.14304 17.8667 6.9716 17.8802C6.88533 17.8869 6.40128 18.1403 6.37999 18.1963H6.38111Z" fill="var(--fill-0, #8EC9C9)"/>
<path id="Vector_120" d="M7.17555 18.3551C7.34362 18.5165 7.72906 18.9201 7.5722 19.1814C7.52402 19.2621 7.22821 19.2217 7.1509 19.1892C7.02541 19.1365 6.97722 18.9437 6.9212 18.863C6.87974 18.8193 6.90215 18.7688 6.98731 18.7116C6.95257 18.5659 7.0142 18.2385 7.17443 18.3551H7.17555Z" fill="var(--fill-0, #91C7C7)"/>
<path id="Vector_121" d="M7.17553 18.3554C6.93799 18.3924 7.28982 18.5852 7.23828 18.6412C6.89093 18.324 7.09597 18.6009 7.04331 18.7466C7.02538 18.7982 6.94023 18.8061 6.92118 18.8632C6.85395 18.7679 6.75759 18.6951 6.71725 18.639C6.5996 18.4742 6.76319 18.3296 6.34974 18.3868C6.3587 18.3184 6.37439 18.2522 6.38111 18.1962C6.37663 18.2096 6.37663 18.3184 6.38111 18.3228C6.39232 18.3341 6.67579 18.2948 6.70044 18.2769C6.77552 18.2208 6.63658 18.0796 6.89765 18.1401C7.04443 18.1737 7.08589 18.269 7.17441 18.3554H7.17553Z" fill="var(--fill-0, #AED6D6)"/>
<path id="Vector_122" d="M6.69932 15.7826C6.6814 15.8835 6.75086 15.8375 6.80913 15.8454C6.83154 15.8487 7.09149 15.8409 7.01642 15.9407C7.00409 15.9563 6.71613 16.0886 6.66683 16.1312C6.6814 16.018 6.68252 15.9036 6.6982 15.7814L6.69932 15.7826Z" fill="var(--fill-0, #91C8C8)"/>
<path id="Vector_123" d="M12.0956 16.6726C11.9298 16.6861 11.7426 16.639 11.588 16.704C11.5757 16.7085 11.5645 16.6984 11.5566 16.6726C11.4636 16.7668 11.0647 16.8352 11.0166 16.6726C10.9695 16.7422 10.9381 16.7422 10.9213 16.6726C10.9 16.667 10.8787 16.6502 10.8575 16.6413C10.453 16.472 9.4759 16.0628 9.1913 15.7836C9.0602 15.6547 8.87756 15.3587 9.1588 15.3049C9.81877 15.4585 10.5661 15.4226 11.2182 15.5661C11.7079 15.6737 12.016 16.213 12.0956 16.6738V16.6726Z" fill="var(--fill-0, #D3BA93)"/>
<path id="Vector_124" d="M11.0166 16.6726L11.0536 16.7264C11.0132 16.8161 10.9785 17.167 11.0211 17.2387C11.0457 17.2813 11.4648 17.4361 11.4917 17.4114V16.7197L11.5555 16.6737C11.5791 16.6782 11.5824 16.6815 11.5869 16.7051C11.6261 16.9136 11.5925 17.4338 11.588 17.676C11.5869 17.7354 11.5555 17.7937 11.5544 17.8161L11.2037 17.898C11.1768 18.1087 11.2328 18.3318 11.2384 18.5292C11.2631 19.4754 11.2384 20.4306 11.2059 21.3734H11.0468C11.0155 21.3421 11.095 20.7647 11.0155 20.675C10.9863 19.5673 10.9437 18.4574 10.9191 17.3576C10.9135 17.13 10.9258 16.9013 10.9202 16.6737C10.9258 16.6748 10.9527 16.6647 11.0155 16.6737L11.0166 16.6726Z" fill="var(--fill-0, #CAB087)"/>
<path id="Vector_125" d="M8.25458 14.226C8.38567 14.2563 8.53806 14.1935 8.65123 14.1947C9.08597 14.1958 9.54761 14.253 9.98348 14.2597C11.1376 14.2765 12.2939 14.2294 13.4435 14.2911C13.6161 14.3 13.9466 14.2361 14.0654 14.3684C14.0856 14.392 14.1595 14.5422 14.1595 14.5601V15.3864C14.1595 15.5299 14.4262 15.4245 14.5091 15.4974C14.4822 15.5624 14.4071 15.5837 14.2839 15.5613C14.2839 16.3125 14.276 17.0625 14.2615 17.8136C14.1976 18.03 14.2066 18.0513 14.2861 17.8798L14.2503 20.2734C14.2447 20.3025 14.2256 20.3104 14.201 20.3194C13.9489 20.4124 13.5679 20.4057 13.3023 20.5156C13.2676 20.4786 13.2553 19.881 13.2362 19.7711C13.1925 19.5178 13.0715 19.2509 13.0491 18.974C13.0222 18.6455 13.0715 18.2856 13.0491 17.9572C13.0077 17.3461 12.7298 16.715 12.6076 16.1151C12.6525 15.8719 12.7555 15.7194 12.9371 15.5602C12.9987 15.5064 13.3057 15.327 13.3001 15.2575C13.2867 15.0927 12.9225 15.4671 12.8564 15.3999C12.8295 15.3528 12.9886 15.0142 12.8721 15.0198C12.8239 15.022 12.6603 15.4716 12.5864 15.5266L12.5079 15.336C12.4911 15.5849 12.2805 15.4279 12.1583 15.5579C12.0519 15.5512 11.9443 15.4963 11.8345 15.392C11.6216 15.2922 11.3796 15.2418 11.1107 15.2396C10.546 15.2093 9.38514 14.9077 8.79353 14.7631C8.56159 14.7059 8.28371 14.6196 8.09547 14.4772C8.00695 14.3976 8.15037 14.2025 8.25458 14.2227V14.226Z" fill="var(--fill-0, #3B5564)"/>
<path id="Vector_126" d="M12.1595 15.5602C12.2861 15.6791 12.3903 15.8248 12.4766 15.9728L12.3342 16.0995C12.1539 15.8932 11.9264 15.549 11.6799 15.4201C11.5118 15.3315 11.2844 15.3282 11.1118 15.2418C11.2687 15.2508 11.5185 15.206 11.644 15.2306C11.7763 15.2564 12.0564 15.4627 12.1595 15.5591V15.5602Z" fill="var(--fill-0, #9F8A68)"/>
<path id="Vector_127" d="M12.9214 20.388L12.9875 20.4171C12.9897 20.6189 12.9954 20.8902 13.2071 20.6739C13.2183 20.6739 13.2295 20.6761 13.2385 20.6739C13.2419 20.8846 13.234 21.0976 13.2385 21.3095H12.9528C12.9561 21.0024 12.9326 20.6952 12.9214 20.388Z" fill="var(--fill-0, #DEEFF0)"/>
<path id="Vector_128" d="M8.38118 13.9716C8.30163 14.0366 8.28706 14.1655 8.25457 14.2261C8.22208 14.2866 8.12235 14.3819 8.09546 14.4805C8.0428 14.4413 7.89377 14.3202 7.87809 14.2664C7.86912 14.235 7.89377 14.0287 7.90498 14.0041C7.92963 13.9491 8.29378 13.9738 8.38118 13.9727V13.9716Z" fill="var(--fill-0, #2C3F4A)"/>
<path id="Vector_129" d="M10.4765 3.23685C10.5527 3.22676 10.7163 3.22788 10.7936 3.23685C11.3471 3.55413 11.1578 4.59678 10.453 4.38713C9.91627 4.22681 9.88377 3.31869 10.4754 3.23685H10.4765Z" fill="var(--fill-0, #FBE3D8)"/>
<path id="Vector_130" d="M4.92116 18.4504C4.97382 18.3528 4.87186 17.9717 4.93797 17.8158C4.95477 17.7766 5.4321 17.4515 5.4814 17.438C5.57552 17.4111 5.54975 17.6768 5.55983 17.7329C5.59008 17.91 5.65171 18.067 5.62034 18.2598C5.6181 18.2329 5.56095 18.1611 5.58896 18.1006L5.11276 18.2116C5.03881 18.3102 4.99847 18.4336 5.11276 18.5132C4.9178 18.465 4.91555 18.66 4.79566 18.7991C4.7979 18.6701 4.87746 18.5614 4.97046 18.4818L4.92228 18.4493L4.92116 18.4504Z" fill="var(--fill-0, #B6D8D8)"/>
<path id="Vector_131" d="M11.5555 16.6725V17.5301C11.458 17.4808 11.0076 17.3418 10.9684 17.2768C10.9292 17.2117 10.928 16.7465 11.0166 16.6725C11.0849 16.6814 11.1544 16.7061 11.2216 16.705C11.3236 16.7039 11.4334 16.6478 11.5566 16.6725H11.5555Z" fill="var(--fill-0, #B89C77)"/>
<path id="Vector_132" d="M10.6916 3.5935C10.7566 3.67759 10.7387 4.05541 10.621 4.02962C10.3824 3.94442 10.5572 3.42085 10.6916 3.5935Z" fill="var(--fill-0, #1E1C1B)"/>
</g>
</svg>
