<svg width="360" height="253" viewBox="0 0 360 253" fill="none" xmlns="http://www.w3.org/2000/svg">
<g clip-path="url(#clip0_6_588)">
<path d="M0 0H360V241C360 247.627 354.627 253 348 253H12C5.37259 253 0 247.627 0 241V0Z" fill="white"/>
<path d="M0.0322266 0H360.032V253H0.0322266V0Z" fill="white"/>
<path d="M0.0322266 0H360.032V253H0.0322266V0Z" fill="url(#paint0_linear_6_588)"/>
<g filter="url(#filter0_f_6_588)">
<ellipse cx="118.829" cy="30.9333" rx="118.829" ry="30.9333" transform="matrix(0.950916 -0.30945 0.313294 0.949656 19.204 135.06)" fill="#FAF6C7" fill-opacity="0.2"/>
</g>
<path d="M257.988 158.149C269.039 158.149 278.767 163.772 284.433 172.293C286.167 171.751 288.014 171.458 289.929 171.458C295.723 171.458 300.887 174.137 304.235 178.316C305.793 177.62 307.52 177.23 309.339 177.23C316.221 177.23 321.8 182.77 321.8 189.605C321.8 196.44 316.221 201.98 309.339 201.98C307.52 201.98 305.793 201.589 304.235 200.893C300.887 205.072 295.723 207.751 289.929 207.751C288.014 207.751 286.168 207.458 284.433 206.915C278.767 215.437 269.039 221.06 257.988 221.06C240.496 221.06 226.317 206.977 226.317 189.605C226.317 172.233 240.496 158.149 257.988 158.149Z" fill="url(#paint1_linear_6_588)"/>
<path d="M308.389 146.587C314.001 146.587 318.942 149.443 321.819 153.77C322.7 153.495 323.638 153.345 324.61 153.345C327.553 153.345 330.173 154.707 331.873 156.829C332.665 156.475 333.543 156.277 334.468 156.277C337.963 156.277 340.796 159.09 340.796 162.561C340.796 166.032 337.963 168.846 334.468 168.846C333.543 168.846 332.665 168.647 331.873 168.293C330.173 170.415 327.553 171.777 324.61 171.777C323.638 171.777 322.7 171.628 321.819 171.352C318.942 175.68 314.002 178.537 308.389 178.537C299.506 178.537 292.305 171.384 292.305 162.561C292.305 153.739 299.506 146.587 308.389 146.587Z" fill="url(#paint2_linear_6_588)"/>
<path d="M40.2949 213.386C45.9074 213.386 50.848 216.242 53.7256 220.57C54.6065 220.294 55.5441 220.145 56.5166 220.145C59.4588 220.145 62.0793 221.507 63.7793 223.628C64.5712 223.274 65.4493 223.076 66.374 223.076C69.8687 223.076 72.702 225.89 72.7022 229.361C72.7022 232.832 69.8689 235.646 66.374 235.646C65.449 235.646 64.5714 235.446 63.7793 235.092C62.0794 237.214 59.4593 238.576 56.5166 238.576C55.544 238.576 54.6066 238.427 53.7256 238.152C50.848 242.48 45.9077 245.336 40.2949 245.336C31.412 245.336 24.211 238.183 24.211 229.361C24.2112 220.538 31.4121 213.386 40.2949 213.386Z" fill="url(#paint3_linear_6_588)"/>
</g>
<defs>
<filter id="filter0_f_6_588" x="-27.6262" y="24.4977" width="339.035" height="206.333" filterUnits="userSpaceOnUse" color-interpolation-filters="sRGB">
<feFlood flood-opacity="0" result="BackgroundImageFix"/>
<feBlend mode="normal" in="SourceGraphic" in2="BackgroundImageFix" result="shape"/>
<feGaussianBlur stdDeviation="28.05" result="effect1_foregroundBlur_6_588"/>
</filter>
<linearGradient id="paint0_linear_6_588" x1="180.032" y1="0" x2="180.032" y2="253" gradientUnits="userSpaceOnUse">
<stop stop-color="#8FD5DC" stop-opacity="0.3"/>
<stop offset="0.269231" stop-color="#ACE6EC" stop-opacity="0.538462"/>
<stop offset="0.5" stop-color="#C5F4F9"/>
<stop offset="1" stop-color="#8FD5DC"/>
</linearGradient>
<linearGradient id="paint1_linear_6_588" x1="274.058" y1="158.149" x2="274.058" y2="221.06" gradientUnits="userSpaceOnUse">
<stop stop-color="white"/>
<stop offset="0.576923" stop-color="white" stop-opacity="0"/>
</linearGradient>
<linearGradient id="paint2_linear_6_588" x1="316.55" y1="146.587" x2="316.55" y2="178.537" gradientUnits="userSpaceOnUse">
<stop stop-color="white"/>
<stop offset="0.576923" stop-color="white" stop-opacity="0"/>
</linearGradient>
<linearGradient id="paint3_linear_6_588" x1="48.4566" y1="213.386" x2="48.4566" y2="245.336" gradientUnits="userSpaceOnUse">
<stop stop-color="white"/>
<stop offset="0.576923" stop-color="white" stop-opacity="0"/>
</linearGradient>
<clipPath id="clip0_6_588">
<path d="M0 0H360V241C360 247.627 354.627 253 348 253H12C5.37259 253 0 247.627 0 241V0Z" fill="white"/>
</clipPath>
</defs>
</svg>
