<svg width="360" height="253" viewBox="0 0 360 253" fill="none" xmlns="http://www.w3.org/2000/svg">
<g clip-path="url(#clip0_6_607)">
<path d="M0 0H360V241C360 247.627 354.627 253 348 253H12C5.37259 253 0 247.627 0 241V0Z" fill="white"/>
<path d="M0 0H360V253H0V0Z" fill="white"/>
<path d="M0 0H360V253H0V0Z" fill="url(#paint0_radial_6_607)"/>
<path d="M268.958 127.427C280.011 127.427 289.74 133.09 295.407 141.671C297.143 141.124 298.99 140.83 300.906 140.83C306.701 140.83 311.865 143.528 315.213 147.735C316.772 147.034 318.5 146.642 320.32 146.642C327.202 146.642 332.781 152.222 332.781 159.104C332.781 165.987 327.202 171.566 320.32 171.566C318.5 171.566 316.772 171.173 315.213 170.472C311.865 174.68 306.701 177.379 300.906 177.379C298.99 177.379 297.143 177.083 295.407 176.536C289.74 185.118 280.012 190.781 268.958 190.781C251.464 190.781 237.282 176.599 237.281 159.104C237.281 141.61 251.464 127.427 268.958 127.427Z" fill="url(#paint1_linear_6_607)"/>
<path d="M319.368 115.782C324.982 115.782 329.923 118.659 332.801 123.017C333.682 122.739 334.62 122.589 335.593 122.589C338.536 122.589 341.157 123.96 342.858 126.097C343.65 125.74 344.528 125.541 345.452 125.541C348.948 125.541 351.781 128.374 351.781 131.869C351.781 135.365 348.948 138.198 345.452 138.198C344.527 138.198 343.65 137.998 342.858 137.642C341.157 139.779 338.536 141.15 335.593 141.15C334.62 141.15 333.682 140.999 332.801 140.722C329.923 145.08 324.982 147.957 319.368 147.957C310.484 147.957 303.282 140.755 303.281 131.87C303.281 122.986 310.484 115.782 319.368 115.782Z" fill="url(#paint2_linear_6_607)"/>
<path d="M51.2266 183.052C56.8401 183.052 61.781 185.928 64.6592 190.286C65.5404 190.008 66.4782 189.858 67.4512 189.858C70.3941 189.858 73.0155 191.229 74.7158 193.366C75.5078 193.01 76.3857 192.81 77.3105 192.81C80.8058 192.81 83.6394 195.643 83.6396 199.139C83.6396 202.634 80.806 205.468 77.3105 205.468C76.3856 205.468 75.5079 205.268 74.7158 204.911C73.0156 207.048 70.3943 208.42 67.4512 208.42C66.4781 208.42 65.5405 208.269 64.6592 207.991C61.7811 212.35 56.8404 215.226 51.2266 215.226C42.3421 215.226 35.1399 208.024 35.1396 199.14C35.1396 190.255 42.342 183.052 51.2266 183.052Z" fill="url(#paint3_linear_6_607)"/>
</g>
<defs>
<radialGradient id="paint0_radial_6_607" cx="0" cy="0" r="1" gradientUnits="userSpaceOnUse" gradientTransform="translate(180 253) rotate(-90) scale(253 360)">
<stop stop-color="#FAF6C7"/>
<stop offset="0.269231" stop-color="#FFFCD9"/>
<stop offset="0.6" stop-color="#C5F4F9"/>
<stop offset="0.9" stop-color="#8FD5DC"/>
<stop offset="1" stop-color="#39BAC7" stop-opacity="0.7"/>
</radialGradient>
<linearGradient id="paint1_linear_6_607" x1="285.031" y1="127.427" x2="285.031" y2="190.781" gradientUnits="userSpaceOnUse">
<stop stop-color="white"/>
<stop offset="0.576923" stop-color="white" stop-opacity="0"/>
</linearGradient>
<linearGradient id="paint2_linear_6_607" x1="327.531" y1="115.782" x2="327.531" y2="147.957" gradientUnits="userSpaceOnUse">
<stop stop-color="white"/>
<stop offset="0.576923" stop-color="white" stop-opacity="0"/>
</linearGradient>
<linearGradient id="paint3_linear_6_607" x1="59.3896" y1="183.052" x2="59.3896" y2="215.226" gradientUnits="userSpaceOnUse">
<stop stop-color="white"/>
<stop offset="0.576923" stop-color="white" stop-opacity="0"/>
</linearGradient>
<clipPath id="clip0_6_607">
<path d="M0 0H360V241C360 247.627 354.627 253 348 253H12C5.37259 253 0 247.627 0 241V0Z" fill="white"/>
</clipPath>
</defs>
</svg>
