<svg width="360" height="253" viewBox="0 0 360 253" fill="none" xmlns="http://www.w3.org/2000/svg">
<g clip-path="url(#clip0_6_835)">
<path d="M0 0H360V241C360 247.627 354.627 253 348 253H12C5.37259 253 0 247.627 0 241V0Z" fill="white"/>
<path d="M0 0H360V253H0V0Z" fill="white"/>
<path d="M0 0H360V253H0V0Z" fill="url(#paint0_radial_6_835)"/>
<path d="M46.7109 135.341H56.9609" stroke="#EEE147" stroke-opacity="0.2"/>
<path d="M51.8359 130.216L51.8359 140.466" stroke="#EEE147" stroke-opacity="0.2"/>
<path d="M55.46 131.717L48.2121 138.965" stroke="#EEE147" stroke-opacity="0.2"/>
<path d="M55.46 138.965L48.2121 131.717" stroke="#EEE147" stroke-opacity="0.2"/>
<path d="M10.1621 69.9669H20.4121" stroke="#EEE147" stroke-opacity="0.2"/>
<path d="M15.2871 64.8419L15.2871 75.0919" stroke="#EEE147" stroke-opacity="0.2"/>
<path d="M18.9111 66.343L11.6633 73.5908" stroke="#EEE147" stroke-opacity="0.2"/>
<path d="M18.9111 73.5908L11.6633 66.343" stroke="#EEE147" stroke-opacity="0.2"/>
<path d="M93.9673 69.1683H104.217" stroke="#EEE147" stroke-opacity="0.2"/>
<path d="M99.0923 64.0433L99.0923 74.2933" stroke="#EEE147" stroke-opacity="0.2"/>
<path d="M102.716 65.5444L95.4685 72.7922" stroke="#EEE147" stroke-opacity="0.2"/>
<path d="M102.716 72.7922L95.4685 65.5444" stroke="#EEE147" stroke-opacity="0.2"/>
<path d="M23.041 33.0154H33.291" stroke="#EEE147" stroke-opacity="0.2"/>
<path d="M28.166 27.8904L28.166 38.1404" stroke="#EEE147" stroke-opacity="0.2"/>
<path d="M31.79 29.3914L24.5422 36.6393" stroke="#EEE147" stroke-opacity="0.2"/>
<path d="M31.79 36.6393L24.5422 29.3914" stroke="#EEE147" stroke-opacity="0.2"/>
<path d="M66.8115 93.2169H77.0615" stroke="#EEE147" stroke-opacity="0.2"/>
<path d="M71.9365 88.0919L71.9365 98.3419" stroke="#EEE147" stroke-opacity="0.2"/>
<path d="M75.5605 89.593L68.3127 96.8408" stroke="#EEE147" stroke-opacity="0.2"/>
<path d="M75.5605 96.8409L68.3127 89.5931" stroke="#EEE147" stroke-opacity="0.2"/>
<path d="M126.213 119.224H136.463" stroke="#EEE147" stroke-opacity="0.2"/>
<path d="M131.338 114.099L131.338 124.349" stroke="#EEE147" stroke-opacity="0.2"/>
<path d="M134.962 115.6L127.714 122.848" stroke="#EEE147" stroke-opacity="0.2"/>
<path d="M134.962 122.848L127.714 115.6" stroke="#EEE147" stroke-opacity="0.2"/>
<path d="M259.397 161.708H269.647" stroke="#EEE147" stroke-opacity="0.2"/>
<path d="M264.522 156.583L264.522 166.833" stroke="#EEE147" stroke-opacity="0.2"/>
<path d="M268.146 158.084L260.899 165.332" stroke="#EEE147" stroke-opacity="0.2"/>
<path d="M268.146 165.332L260.899 158.084" stroke="#EEE147" stroke-opacity="0.2"/>
<path d="M222.849 96.3338H233.099" stroke="#EEE147" stroke-opacity="0.2"/>
<path d="M227.974 91.2088L227.974 101.459" stroke="#EEE147" stroke-opacity="0.2"/>
<path d="M231.598 92.7099L224.35 99.9577" stroke="#EEE147" stroke-opacity="0.2"/>
<path d="M231.598 99.9577L224.35 92.7099" stroke="#EEE147" stroke-opacity="0.2"/>
<path d="M306.654 95.5352H316.904" stroke="#EEE147" stroke-opacity="0.2"/>
<path d="M311.779 90.4102L311.779 100.66" stroke="#EEE147" stroke-opacity="0.2"/>
<path d="M315.403 91.9113L308.155 99.1592" stroke="#EEE147" stroke-opacity="0.2"/>
<path d="M315.403 99.1591L308.155 91.9113" stroke="#EEE147" stroke-opacity="0.2"/>
<path d="M235.728 59.3823H245.978" stroke="#EEE147" stroke-opacity="0.2"/>
<path d="M240.853 54.2573L240.853 64.5073" stroke="#EEE147" stroke-opacity="0.2"/>
<path d="M244.477 55.7584L237.229 63.0062" stroke="#EEE147" stroke-opacity="0.2"/>
<path d="M244.477 63.0062L237.229 55.7584" stroke="#EEE147" stroke-opacity="0.2"/>
<path d="M279.498 119.584H289.748" stroke="#EEE147" stroke-opacity="0.2"/>
<path d="M284.623 114.459L284.623 124.709" stroke="#EEE147" stroke-opacity="0.2"/>
<path d="M288.247 115.96L280.999 123.208" stroke="#EEE147" stroke-opacity="0.2"/>
<path d="M288.247 123.208L280.999 115.96" stroke="#EEE147" stroke-opacity="0.2"/>
<path d="M338.899 145.591H349.149" stroke="#EEE147" stroke-opacity="0.2"/>
<path d="M344.024 140.466L344.024 150.716" stroke="#EEE147" stroke-opacity="0.2"/>
<path d="M347.648 141.967L340.401 149.215" stroke="#EEE147" stroke-opacity="0.2"/>
<path d="M347.648 149.215L340.401 141.967" stroke="#EEE147" stroke-opacity="0.2"/>
</g>
<defs>
<radialGradient id="paint0_radial_6_835" cx="0" cy="0" r="1" gradientUnits="userSpaceOnUse" gradientTransform="translate(188 643) rotate(-90) scale(661 858.639)">
<stop stop-color="#98F5FF"/>
<stop offset="0.168269" stop-color="#98F5FF"/>
<stop offset="0.360577" stop-color="#FFE8BE"/>
<stop offset="0.651917" stop-color="#2CAFBD"/>
<stop offset="0.8" stop-color="#177F8B"/>
<stop offset="1" stop-color="#1F2225"/>
</radialGradient>
<clipPath id="clip0_6_835">
<path d="M0 0H360V241C360 247.627 354.627 253 348 253H12C5.37259 253 0 247.627 0 241V0Z" fill="white"/>
</clipPath>
</defs>
</svg>
